<?xml version="1.0" encoding="UTF-8" standalone="no"?>
<!-- Created with Inkscape (http://www.inkscape.org/) -->

<svg
   version="1.1"
   id="svg59"
   width="153.60001"
   height="153.60001"
   viewBox="0 0 153.60001 153.60001"
   sodipodi:docname="lifemtr_logo_edited.svg"
   inkscape:version="1.2.2 (732a01da63, 2022-12-09)"
   xmlns:inkscape="http://www.inkscape.org/namespaces/inkscape"
   xmlns:sodipodi="http://sodipodi.sourceforge.net/DTD/sodipodi-0.dtd"
   xmlns="http://www.w3.org/2000/svg"
   xmlns:svg="http://www.w3.org/2000/svg">
  <defs
     id="defs63" />
  <sodipodi:namedview
     id="namedview61"
     pagecolor="#ffffff"
     bordercolor="#000000"
     borderopacity="0.25"
     inkscape:showpageshadow="2"
     inkscape:pageopacity="0.0"
     inkscape:pagecheckerboard="0"
     inkscape:deskcolor="#d1d1d1"
     showgrid="false"
     inkscape:zoom="4.0104165"
     inkscape:cx="193.24676"
     inkscape:cy="98.992212"
     inkscape:window-width="2560"
     inkscape:window-height="1506"
     inkscape:window-x="-11"
     inkscape:window-y="-11"
     inkscape:window-maximized="1"
     inkscape:current-layer="g65" />
  <g
     inkscape:groupmode="layer"
     inkscape:label="Image"
     id="g65">
    <g
       id="g199"
       transform="translate(-3.9896068,1.2467533)">
      <path
         style="fill:#a3a29e;stroke-width:0.32"
         d="m 11.972121,139.27376 c 0.66,-0.069 1.74,-0.069 2.4,0 0.660001,0.069 0.12,0.12552 -1.2,0.12552 -1.32,0 -1.86,-0.0565 -1.2,-0.12552 z m 4.806091,0.0114 c 0.311349,-0.0811 0.743349,-0.0758 0.96,0.0119 0.21665,0.0877 -0.03809,0.15404 -0.56609,0.14751 -0.528,-0.007 -0.70526,-0.0782 -0.39391,-0.15937 z m 2.55391,-0.0114 c 0.66,-0.069 1.74,-0.069 2.4,0 0.66,0.069 0.12,0.12552 -1.2,0.12552 -1.32,0 -1.86,-0.0565 -1.2,-0.12552 z m 46.563734,0.007 c 0.398051,-0.0765 0.974051,-0.0736 1.28,0.006 0.305949,0.0801 -0.01974,0.14272 -0.723731,0.13917 -0.704,-0.004 -0.95432,-0.0691 -0.556269,-0.14562 z m 27.978655,-2.81367 c 0.0065,-0.528 0.07824,-0.70526 0.159372,-0.39391 0.08113,0.31135 0.0758,0.74335 -0.01187,0.96 -0.08766,0.21665 -0.154038,-0.0381 -0.147516,-0.56609 z m -17.856126,-3.84 c 6.4e-4,-2.464 0.05073,-3.4297 0.111625,-2.146 0.0609,1.2837 0.06049,3.2997 -9.6e-4,4.48 -0.06134,1.1803 -0.111165,0.13 -0.110665,-2.334 z m -39.394739,2.56 c 0.0026,-0.88 0.06455,-1.20202 0.138103,-0.7156 0.07355,0.48642 0.07159,1.20642 -0.0044,1.6 -0.07596,0.39358 -0.136135,-0.004 -0.133735,-0.8844 z m 69.764374,-0.16 c 0,-0.968 0.06,-1.364 0.13331,-0.88 0.0733,0.484 0.0733,1.276 0,1.76 -0.0733,0.484 -0.13331,0.088 -0.13331,-0.88 z m -51.873512,-1.44 c 0.0065,-0.528 0.07824,-0.70526 0.159373,-0.39391 0.08113,0.31135 0.0758,0.74335 -0.01187,0.96 -0.08766,0.21665 -0.154039,-0.0381 -0.147517,-0.56609 z m -12.302385,-4.53193 c 0.22,-0.0888 0.58,-0.0888 0.8,0 0.22,0.0888 0.04,0.1614 -0.4,0.1614 -0.44,0 -0.62,-0.0726 -0.4,-0.1614 z m 26.000002,0.0883 c 0,-0.068 0.424394,-0.18597 0.943101,-0.2621 0.518704,-0.0761 0.870205,-0.0205 0.781114,0.12368 -0.158564,0.25656 -1.724215,0.38225 -1.724215,0.13842 z m -24.240002,-3.94943 c 0.66,-0.069 1.740001,-0.069 2.400001,0 0.66,0.069 0.12,0.12552 -1.200001,0.12552 -1.32,0 -1.86,-0.0565 -1.2,-0.12552 z m -7.352845,-2.64689 c 0,-0.792 0.06241,-1.116 0.138679,-0.72 0.07628,0.396 0.07628,1.044 0,1.44 -0.07627,0.396 -0.138679,0.072 -0.138679,-0.72 z m -25.587999,-1.76 c 0.0018,-1.056 0.06154,-1.44943 0.132756,-0.87427 0.07122,0.57515 0.06975,1.43915 -0.0033,1.92 -0.07301,0.48084 -0.131286,0.0103 -0.12949,-1.04573 z m 99.126111,-0.34667 c 0.0154,-0.37278 0.0912,-0.44861 0.19333,-0.19333 0.0924,0.23099 0.0811,0.507 -0.0252,0.61333 -0.10633,0.10633 -0.18196,-0.0827 -0.16807,-0.42 z m -30.564691,-0.35953 c -0.173658,-0.45607 -0.136903,-0.49282 0.179136,-0.17914 0.218694,0.21707 0.317014,0.47528 0.218489,0.5738 -0.09852,0.0985 -0.277456,-0.0791 -0.397625,-0.39466 z m -37.060576,3.2e-4 c 0.396,-0.0763 1.044,-0.0763 1.44,0 0.396,0.0763 0.072,0.13868 -0.72,0.13868 -0.792,0 -1.116,-0.0624 -0.72,-0.13868 z m 20.160002,0 c 0.396,-0.0763 1.044,-0.0763 1.44,0 0.396,0.0763 0.072,0.13868 -0.72,0.13868 -0.792,0 -1.116,-0.0624 -0.72,-0.13868 z m 13.250525,-0.73412 c 0,-0.44 0.07263,-0.62 0.161405,-0.4 0.08877,0.22 0.08877,0.58 0,0.8 -0.08877,0.22 -0.161405,0.04 -0.161405,-0.4 z m 49.48948,-0.5386 c 0.231,-0.0924 0.507,-0.0811 0.61333,0.0252 0.10634,0.10633 -0.0827,0.18196 -0.42,0.16807 -0.37278,-0.0154 -0.4486,-0.0912 -0.19333,-0.19333 z m -114.425768,-2.0214 c 0,-0.616 0.06586,-0.868 0.146344,-0.56 0.08049,0.308 0.08049,0.812 0,1.12 -0.08049,0.308 -0.146344,0.056 -0.146344,-0.56 z m 5.096286,-0.64 c 0,-0.44 0.07263,-0.62 0.161404,-0.4 0.08877,0.22 0.08877,0.58 0,0.8 -0.08877,0.22 -0.161404,0.04 -0.161404,-0.4 z m 84.480002,0 c 0,-0.44 0.0726,-0.62 0.16141,-0.4 0.0888,0.22 0.0888,0.58 0,0.8 -0.0888,0.22 -0.16141,0.04 -0.16141,-0.4 z m -39.810525,-0.87693 c 1.1,-0.0625 2.9,-0.0625 4,0 1.1,0.0625 0.2,0.11361 -2,0.11361 -2.200001,0 -3.100001,-0.0511 -2,-0.11361 z m -34.713913,-13.7451 c 0.31135,-0.0811 0.74335,-0.0758 0.960001,0.0119 0.21665,0.0877 -0.03809,0.15404 -0.566091,0.14752 -0.528,-0.007 -0.705259,-0.0782 -0.39391,-0.15938 z m 12.010932,-0.0171 c 1.813363,-0.0572 4.693363,-0.0569 6.4,6.4e-4 1.70664,0.0574 0.222979,0.10418 -3.297021,0.10389 -3.52,-2.8e-4 -4.916339,-0.0473 -3.102979,-0.10441 z m 9.90298,0.0269 c 0.22,-0.0888 0.58,-0.0888 0.8,0 0.22,0.0888 0.04,0.16141 -0.4,0.16141 -0.44,0 -0.62,-0.0726 -0.4,-0.16141 z m 9.28,0 c 0.22,-0.0888 0.58,-0.0888 0.8,0 0.22,0.0888 0.04,0.16141 -0.4,0.16141 -0.44,0 -0.62,-0.0726 -0.4,-0.16141 z m -32.620002,-0.32666 c 0.231,-0.0924 0.507,-0.0811 0.613334,0.0252 0.106333,0.10633 -0.08267,0.18196 -0.42,0.16807 -0.372782,-0.0154 -0.448608,-0.0912 -0.193334,-0.19333 z m 40.860003,-0.10141 c 0.352,-0.15126 0.856,-0.27501 1.12,-0.27501 0.302554,0 0.243405,0.10166 -0.16,0.27501 -0.352,0.15126 -0.856,0.27502 -1.12,0.27502 -0.302554,0 -0.243405,-0.10167 0.16,-0.27502 z m 46.803735,0.0937 c 0.39805,-0.0765 0.97405,-0.0736 1.28,0.006 0.30595,0.0801 -0.0197,0.14272 -0.72373,0.13917 -0.704,-0.004 -0.95432,-0.0691 -0.55627,-0.14562 z m -44.463735,-0.63227 c 0.230998,-0.0924 0.506998,-0.0811 0.613334,0.0252 0.106333,0.10633 -0.08267,0.18196 -0.42,0.16807 -0.372784,-0.0154 -0.448608,-0.0912 -0.193334,-0.19333 z m -47.810407,-1.781406 -0.609596,-0.72 0.72,0.609597 c 0.676622,0.57287 0.865677,0.830403 0.609596,0.830403 -0.06072,0 -0.384722,-0.324 -0.72,-0.72 z m 82.800932,0.08 c 0,-0.44 0.0726,-0.62 0.16141,-0.4 0.0888,0.22 0.0888,0.58 0,0.8 -0.0888,0.22 -0.16141,0.04 -0.16141,-0.4 z m 0.041,-2.4 c 0.003,-0.88 0.0645,-1.20202 0.1381,-0.7156 0.0736,0.486419 0.0716,1.206419 -0.004,1.6 -0.076,0.393581 -0.13613,-0.0044 -0.13373,-0.8844 z M 35.658212,80.725106 c 0.311351,-0.08113 0.743351,-0.0758 0.960001,0.01187 0.216649,0.08766 -0.03809,0.154038 -0.56609,0.147517 -0.528,-0.0065 -0.705261,-0.07824 -0.393911,-0.159373 z m 5.913911,-0.01728 c 2.156,-0.05536 5.684001,-0.05536 7.840001,0 2.156,0.05536 0.392,0.100659 -3.92,0.100659 -4.312001,0 -6.076001,-0.0453 -3.920001,-0.100659 z m 13.261771,0.01898 c 1.075427,-0.124112 1.193629,-0.235776 1.313552,-1.240922 0.130227,-1.091533 0.131382,-1.090374 0.09823,0.09823 -0.03285,1.177591 -0.06034,1.203569 -1.313549,1.240922 l -1.28,0.03816 z m 62.107886,-0.01552 c 0.84131,-0.06614 2.13731,-0.06534 2.88,0.0019 0.74269,0.06711 0.0543,0.121222 -1.52965,0.120246 -1.584,-9.6e-4 -2.19166,-0.05589 -1.35035,-0.122019 z M 74.372823,73.746862 c 0.0036,-0.704 0.06909,-0.95432 0.145626,-0.556269 0.07654,0.398052 0.07363,0.974052 -0.0065,1.280001 -0.08009,0.305948 -0.14272,-0.01974 -0.139168,-0.723732 z m 5.619303,0.261405 c 0.230998,-0.09244 0.506998,-0.08107 0.613334,0.02525 0.106333,0.106333 -0.08267,0.181965 -0.42,0.168071 -0.372784,-0.01536 -0.448608,-0.09118 -0.193334,-0.193332 z m 2.24,0 c 0.230998,-0.09244 0.506998,-0.08107 0.613334,0.02525 0.106333,0.106333 -0.08267,0.181965 -0.42,0.168071 -0.372784,-0.01536 -0.448608,-0.09118 -0.193334,-0.193332 z m 55.150524,-2.341405 c 0,-0.44 0.0726,-0.62 0.16141,-0.4 0.0888,0.22 0.0888,0.58 0,0.8 -0.0888,0.22 -0.16141,0.04 -0.16141,-0.4 z M 56.077388,59.000196 c 0.01536,-0.372784 0.09118,-0.448608 0.193331,-0.193335 0.09244,0.230999 0.08107,0.506999 -0.02525,0.613335 -0.106336,0.106333 -0.181964,-0.08267 -0.16807,-0.42 z m 81.280002,-2.56 c 0.0154,-0.372784 0.0912,-0.448608 0.19333,-0.193335 0.0924,0.230999 0.0811,0.506999 -0.0252,0.613335 -0.10634,0.106332 -0.18197,-0.08267 -0.16807,-0.42 z M 34.354507,51.346861 c 0.0065,-0.528 0.07824,-0.705261 0.159373,-0.393911 0.08113,0.311351 0.0758,0.743351 -0.01184,0.96 -0.08766,0.21665 -0.154039,-0.03809 -0.147517,-0.566089 z m 0.05449,-4.8 c 9.6e-4,-1.760001 0.05457,-2.439175 0.119415,-1.509274 0.06485,0.929901 0.06417,2.369901 -0.0016,3.2 -0.06568,0.830099 -0.118733,0.06927 -0.117901,-1.690726 z m 68.384663,2.24 c -0.0361,-0.176 -0.11992,-0.752 -0.18627,-1.28 -0.0977,-0.777652 -0.0591,-0.851882 0.2031,-0.390797 0.17805,0.313059 0.26188,0.889059 0.18626,1.28 -0.0756,0.390937 -0.167,0.566797 -0.20309,0.390797 z m 18.88373,-4.506666 c 0.0154,-0.372784 0.0912,-0.448608 0.19333,-0.193335 0.0924,0.230999 0.0811,0.506999 -0.0252,0.613335 -0.10634,0.106333 -0.18197,-0.08267 -0.16807,-0.42 z M 102.83451,34.06686 c 0.007,-0.528 0.0782,-0.70526 0.15937,-0.393911 0.0811,0.311351 0.0758,0.743351 -0.0119,0.96 -0.0877,0.21665 -0.15404,-0.03809 -0.14751,-0.566089 z M 74.317389,33.720194 c 0.01536,-0.372783 0.09118,-0.448609 0.193332,-0.193334 0.09244,0.230998 0.08107,0.506998 -0.02525,0.613334 -0.106336,0.106333 -0.181965,-0.08267 -0.168071,-0.42 z M 34.342648,15.666859 c 0,-0.440001 0.07263,-0.620001 0.161404,-0.400001 0.08877,0.220001 0.08877,0.580001 0,0.800001 -0.08877,0.22 -0.161404,0.04 -0.161404,-0.4 z"
         id="path217" />
      <path
         style="fill:#a78972;stroke-width:0.32"
         d="m 15.672122,139.28827 c 0.231,-0.0924 0.507,-0.0811 0.613333,0.0252 0.106333,0.10633 -0.08267,0.18196 -0.42,0.16807 -0.372782,-0.0154 -0.448608,-0.0912 -0.193333,-0.19333 z m 42.880002,0 c 0.230999,-0.0924 0.506999,-0.0811 0.613335,0.0252 0.106333,0.10633 -0.08267,0.18196 -0.42,0.16807 -0.372784,-0.0154 -0.448608,-0.0912 -0.193335,-0.19333 z m 5.260001,-0.002 c 0.308,-0.0805 0.812,-0.0805 1.12,0 0.308,0.0805 0.056,0.14635 -0.56,0.14635 -0.616,0 -0.868,-0.0659 -0.56,-0.14635 z m -52.534741,-1.56608 c 0.01535,-0.37278 0.09118,-0.44861 0.193334,-0.19333 0.09244,0.231 0.08107,0.507 -0.02526,0.61333 -0.106334,0.10633 -0.181965,-0.0827 -0.168071,-0.42 z m 59.520005,-2.24 c 0.01536,-0.37278 0.09118,-0.44861 0.193331,-0.19333 0.09244,0.231 0.08107,0.507 -0.02525,0.61333 -0.106336,0.10633 -0.181964,-0.0827 -0.16807,-0.42 z m -59.520005,-0.64 c 0.01535,-0.37278 0.09118,-0.44861 0.193334,-0.19333 0.09244,0.231 0.08107,0.507 -0.02526,0.61333 -0.106334,0.10633 -0.181965,-0.0827 -0.168071,-0.42 z m 25.384272,-6.0534 c 3.2e-4,-2.816 0.04936,-3.92517 0.108787,-2.46481 0.05943,1.46036 0.0591,3.76436 -6.4e-4,5.12 -0.05983,1.35564 -0.108458,0.16081 -0.108051,-2.65519 z m -25.648836,3.2 c 0.0036,-0.704 0.06908,-0.95432 0.145625,-0.55627 0.07654,0.39805 0.07364,0.97405 -0.0065,1.28 -0.08009,0.30595 -0.142719,-0.0197 -0.139167,-0.72373 z m 43.501688,0 c 0.0065,-0.528 0.07824,-0.70526 0.159373,-0.39391 0.08113,0.31135 0.0758,0.74335 -0.01187,0.96 -0.08766,0.21665 -0.154039,-0.0381 -0.147517,-0.56609 z m -10.856295,-2.94176 c 0.31135,-0.0811 0.74335,-0.0758 0.96,0.0119 0.21665,0.0877 -0.03809,0.15404 -0.56609,0.14752 -0.528,-0.007 -0.70526,-0.0782 -0.39391,-0.15937 z m 6.873911,0.01 c 0.22,-0.0888 0.58,-0.0888 0.8,0 0.22,0.0888 0.04,0.16141 -0.4,0.16141 -0.44,0 -0.62,-0.0726 -0.4,-0.16141 z m 16.640001,0 c 0.22,-0.0888 0.58,-0.0888 0.8,0 0.22,0.0888 0.04,0.16141 -0.4,0.16141 -0.44,0 -0.62,-0.0726 -0.4,-0.16141 z m -56.13758,-4.58806 c 0,-1.144 0.05808,-1.612 0.129063,-1.04 0.07098,0.572 0.07098,1.508 0,2.08 -0.07099,0.572 -0.129063,0.104 -0.129063,-1.04 z m 36.777579,0.73941 c 0.308,-0.0805 0.812,-0.0805 1.12,0 0.308,0.0805 0.056,0.14635 -0.56,0.14635 -0.616,0 -0.868,-0.0659 -0.56,-0.14635 z m 15.200001,-0.0153 c 0.924,-0.0646 2.436,-0.0646 3.36,0 0.924,0.0646 0.168,0.11753 -1.68,0.11753 -1.848,0 -2.604,-0.0529 -1.68,-0.11753 z M 54.502649,121.907 c 0,-0.44 0.07263,-0.62 0.161405,-0.4 0.08877,0.22 0.08877,0.58 0,0.8 -0.08877,0.22 -0.161405,0.04 -0.161405,-0.4 z m 6.929476,-1.8186 c 0.230998,-0.0924 0.506998,-0.0811 0.613334,0.0252 0.106333,0.10633 -0.08267,0.18196 -0.42,0.16807 -0.372784,-0.0154 -0.448608,-0.0912 -0.193334,-0.19333 z m 4.14,-0.0129 c 0.572,-0.071 1.508,-0.071 2.08,0 0.572,0.071 0.104,0.12907 -1.04,0.12907 -1.144,0 -1.612,-0.0581 -1.04,-0.12907 z m -9.260001,-18.5471 c 0.230999,-0.0924 0.506999,-0.0811 0.613335,0.0252 0.106332,0.10634 -0.08267,0.18197 -0.42,0.16807 -0.372784,-0.0154 -0.448608,-0.0912 -0.193335,-0.19333 z m 4.14,-0.31334 c 0.220001,-0.0888 0.580001,-0.0888 0.800001,0 0.22,0.0888 0.04,0.16141 -0.4,0.16141 -0.440001,0 -0.620001,-0.0726 -0.400001,-0.16141 z m 50.240006,0 c 0.22,-0.0888 0.58,-0.0888 0.8,0 0.22,0.0888 0.04,0.16141 -0.4,0.16141 -0.44,0 -0.62,-0.0726 -0.4,-0.16141 z M 34.662648,77.426863 c 0,-0.44 0.07263,-0.620001 0.161404,-0.4 0.08877,0.22 0.08877,0.58 0,0.8 -0.08877,0.22 -0.161404,0.04 -0.161404,-0.4 z M 74.34265,75.506862 c 0,-0.44 0.07263,-0.62 0.161405,-0.4 0.08877,0.22 0.08877,0.58 0,0.8 -0.08877,0.22 -0.161405,0.04 -0.161405,-0.4 z m -0.308141,-5.92 c 0.0065,-0.528 0.07824,-0.705261 0.159373,-0.39391 0.08113,0.31135 0.0758,0.74335 -0.01187,0.96 -0.08766,0.216649 -0.154038,-0.03809 -0.147517,-0.56609 z m 0.01184,-2.08 c 0,-0.616 0.06586,-0.868 0.146346,-0.56 0.08049,0.308 0.08049,0.812 0,1.12 -0.08049,0.308 -0.146346,0.056 -0.146346,-0.56 z M 34.383646,53.586861 c 0.0026,-0.88 0.06455,-1.202019 0.138102,-0.7156 0.07356,0.486419 0.07159,1.206419 -0.0044,1.6 -0.07596,0.393581 -0.136134,-0.0044 -0.133734,-0.8844 z M 16.19598,38.38686 c 0,-6.072 0.04303,-8.556001 0.09563,-5.52 0.0526,3.036 0.0526,8.004 0,11.04 -0.0526,3.036001 -0.09563,0.552 -0.09563,-5.52 z"
         id="path215" />
      <path
         style="fill:#a35e61;stroke-width:0.32"
         d="m 60.124988,139.27591 c 0.568074,-0.0707 1.576074,-0.0719 2.240001,-0.003 0.663923,0.0693 0.199136,0.12711 -1.032864,0.12853 -1.232001,0.001 -1.775213,-0.0553 -1.207137,-0.12594 z m -48.76853,-0.33779 c -0.27223,-0.17315 -0.350251,-2.00004 -0.283367,-6.6351 0.05076,-3.51789 0.124188,-8.55615 0.163168,-11.19615 0.05322,-3.60481 0.147514,-4.56096 0.378673,-3.84 0.16929,0.528 0.230267,2.328 0.135505,4 -0.148241,2.61556 -0.316076,16.09446 -0.213878,17.17653 0.01956,0.2071 0.287562,0.44239 0.595562,0.52288 0.396793,0.10369 0.420109,0.15574 0.08,0.17857 -0.264,0.0177 -0.649048,-0.0753 -0.855663,-0.20673 z m 59.50719,-1.51125 c 0.0026,-0.88 0.06455,-1.20202 0.138103,-0.7156 0.07355,0.48642 0.07159,1.20642 -0.0044,1.6 -0.07596,0.39358 -0.136135,-0.004 -0.133735,-0.8844 z m -54.994314,-10.24 c 2.25e-4,-4.048 0.04608,-5.65988 0.10191,-3.58195 0.05583,2.07793 0.05564,5.38993 -4.16e-4,7.36 -0.05604,1.97007 -0.101719,0.26995 -0.101494,-3.77805 z m 12.794395,1.76 c 0,-3.08 0.048,-4.34 0.106655,-2.8 0.05866,1.54 0.05866,4.06 0,5.6 -0.05866,1.54 -0.106655,0.28 -0.106655,-2.8 z m 25.914654,-2.08 c 6.4e-4,-2.464 0.05073,-3.4297 0.111626,-2.146 0.0609,1.28369 0.06049,3.2997 -9.6e-4,4.48 -0.06134,1.1803 -0.111165,0.13 -0.110666,-2.334 z m -8.356605,2.16439 c 0.841312,-0.0661 2.137312,-0.0653 2.88,0.002 0.742691,0.0671 0.05435,0.12122 -1.529654,0.12025 -1.584,-9.6e-4 -2.191655,-0.0559 -1.350346,-0.12202 z m 15.68203,-0.001 c 1.018425,-0.0637 2.602426,-0.0631 3.52,0.001 0.917574,0.0644 0.08432,0.11653 -1.851683,0.11581 -1.936,-6.4e-4 -2.686743,-0.0534 -1.668317,-0.11712 z m -12.165595,-3.82493 c 0.311351,-0.0811 0.743351,-0.0758 0.96,0.0119 0.21665,0.0877 -0.03809,0.15404 -0.566089,0.14752 -0.528,-0.007 -0.705261,-0.0782 -0.393911,-0.15938 z m -8.301085,-2.49818 c 0.0013,-1.232 0.05926,-1.69679 0.128531,-1.03287 0.06927,0.66393 0.06811,1.67193 -0.0026,2.24 -0.07069,0.56808 -0.127369,0.0249 -0.125949,-1.20713 z m 28.314997,-2.6186 c 0.230999,-0.0924 0.506999,-0.0811 0.613335,0.0252 0.106332,0.10633 -0.08267,0.18196 -0.42,0.16807 -0.372785,-0.0154 -0.448609,-0.0912 -0.193335,-0.19333 z M 16.077385,49.720195 c 0.01535,-0.372784 0.09118,-0.448608 0.193333,-0.193334 0.09244,0.230998 0.08107,0.506998 -0.02526,0.613334 -0.106333,0.106333 -0.181965,-0.08267 -0.16807,-0.42 z m 0.104269,-27.173336 c 4.16e-4,-2.816 0.04936,-3.925163 0.108789,-2.464806 0.05943,1.460357 0.0591,3.764357 -7.36e-4,5.12 -0.05983,1.355644 -0.108458,0.160806 -0.108053,-2.655194 z"
         id="path213" />
      <path
         style="fill:#5d5d59;stroke-width:0.32"
         d="m 29.572122,138.96628 c 0.308,-0.0805 0.812001,-0.0805 1.120001,0 0.308,0.0805 0.056,0.14635 -0.56,0.14635 -0.616001,0 -0.868001,-0.0659 -0.560001,-0.14635 z m 47.684404,-0.009 c 0.486419,-0.0736 1.206419,-0.0716 1.6,0.004 0.393581,0.076 -0.0044,0.13613 -0.8844,0.13373 -0.88,-0.003 -1.20202,-0.0646 -0.7156,-0.1381 z m 17.439332,0.003 c 0.398051,-0.0765 0.974051,-0.0736 1.28,0.006 0.305949,0.0801 -0.01974,0.14272 -0.723731,0.13917 -0.704,-0.004 -0.95432,-0.0691 -0.556269,-0.14562 z m -0.858467,-1.24034 c 0.01536,-0.37279 0.09118,-0.44861 0.193331,-0.19334 0.09244,0.231 0.08107,0.50701 -0.02525,0.61334 -0.106333,0.10633 -0.181965,-0.0827 -0.168071,-0.42 z M 69.86265,127.34687 c 0,-0.44 0.07263,-0.62 0.161405,-0.4 0.08877,0.22 0.08877,0.58 0,0.8 -0.08877,0.22 -0.161405,0.04 -0.161405,-0.4 z m 53.64948,-0.5386 c 0.231,-0.0924 0.507,-0.0811 0.61333,0.0252 0.10634,0.10633 -0.0827,0.18196 -0.42,0.16807 -0.37278,-0.0154 -0.44861,-0.0912 -0.19333,-0.19333 z m 3.26,-1.2214 c 0.41336,-0.44 0.82356,-0.8 0.91156,-0.8 0.088,0 -0.1782,0.36 -0.59156,0.8 -0.41336,0.44 -0.82356,0.8 -0.91156,0.8 -0.088,0 0.1782,-0.36 0.59156,-0.8 z M 79.11739,122.0402 c 0.01536,-0.37278 0.09118,-0.44861 0.193331,-0.19333 0.09244,0.23099 0.08107,0.507 -0.02525,0.61333 -0.106336,0.10633 -0.181965,-0.0827 -0.16807,-0.42 z m 0,-1.92 c 0.01536,-0.37278 0.09118,-0.44861 0.193331,-0.19333 0.09244,0.23099 0.08107,0.507 -0.02525,0.61333 -0.106336,0.10633 -0.181965,-0.0827 -0.16807,-0.42 z m -8.484692,-0.22714 c 0.12017,-0.31559 0.299101,-0.49319 0.397626,-0.39466 0.09852,0.0985 2.04e-4,0.35673 -0.21849,0.5738 -0.316038,0.31368 -0.352794,0.27693 -0.179136,-0.17914 z m 5.333667,-2.46619 c 0,-0.616 0.06586,-0.868 0.146346,-0.56 0.08049,0.308 0.08049,0.812 0,1.12 -0.08049,0.308 -0.146346,0.056 -0.146346,-0.56 z m -48.454243,-15.8986 c 0.231,-0.0924 0.507,-0.0811 0.613334,0.0252 0.106333,0.10633 -0.08267,0.18196 -0.42,0.16807 -0.372782,-0.0154 -0.448608,-0.0912 -0.193334,-0.19333 z m 21.858315,0.0736 c 0.245978,-0.24598 5.364196,-0.31917 5.603236,-0.0801 0.123814,0.12381 -1.118883,0.22511 -2.761549,0.22511 -1.642666,0 -2.921424,-0.0652 -2.841687,-0.14498 z m -23.478315,-0.38695 c 0.22,-0.0888 0.58,-0.0888 0.8,0 0.22,0.0888 0.04,0.16141 -0.4,0.16141 -0.44,0 -0.62,-0.0726 -0.4,-0.16141 z m 31.685733,-0.02 c 0.575153,-0.0712 1.439153,-0.0697 1.920001,0.003 0.480848,0.073 0.01027,0.13128 -1.045732,0.12949 -1.056,-0.002 -1.449421,-0.0615 -0.874269,-0.13276 z m 4.81427,0.0133 c 0.230998,-0.0924 0.506998,-0.0811 0.613334,0.0252 0.106333,0.10634 -0.08267,0.18197 -0.42,0.16807 -0.372784,-0.0154 -0.448608,-0.0912 -0.193334,-0.19333 z m 42.220005,-0.0183 c 1.1,-0.0625 2.9,-0.0625 4,0 1.1,0.0625 0.2,0.11361 -2,0.11361 -2.2,0 -3.1,-0.0511 -2,-0.11361 z m 16.42526,-8.269742 c 0.0154,-0.372784 0.0912,-0.448608 0.19333,-0.193334 0.0924,0.230998 0.0811,0.507001 -0.0252,0.613334 -0.10634,0.106333 -0.18197,-0.08267 -0.16807,-0.42 z m 0.32,-2.56 c 0.0154,-0.372784 0.0912,-0.448608 0.19333,-0.193335 0.0924,0.230999 0.0811,0.507002 -0.0252,0.613335 -0.10634,0.106333 -0.18197,-0.08267 -0.16807,-0.42 z M 74.34265,88.306863 c 0,-0.44 0.07263,-0.62 0.161405,-0.4 0.08877,0.22 0.08877,0.58 0,0.8 -0.08877,0.22 -0.161405,0.04 -0.161405,-0.4 z m -58.203372,-0.96 c 0,-0.792 0.0624,-1.116 0.138678,-0.72 0.07627,0.396 0.07627,1.044 0,1.44 -0.07627,0.396 -0.138678,0.072 -0.138678,-0.72 z m 18.535229,-7.52 c 0.0065,-0.528 0.07824,-0.705261 0.159373,-0.393911 0.08113,0.311351 0.0758,0.743351 -0.01184,0.96 -0.08766,0.21665 -0.154039,-0.03809 -0.147517,-0.566089 z m 39.720041,-1.76 c 0,-1.144 0.05808,-1.612001 0.129065,-1.04 0.07098,0.572 0.07098,1.508 0,2.08 -0.07098,0.572 -0.129065,0.104 -0.129065,-1.04 z M 34.721822,74.386862 c 0.0013,-1.408 0.05742,-1.944195 0.125021,-1.191542 0.0676,0.752653 0.06665,1.904653 -0.0022,2.56 -0.06876,0.655347 -0.124067,0.03954 -0.122906,-1.368458 z m 102.660828,-1.12 c 0,-0.44 0.0726,-0.62 0.16141,-0.4 0.0888,0.22 0.0888,0.58 0,0.8 -0.0888,0.22 -0.16141,0.04 -0.16141,-0.4 z M 34.637387,71.160197 c 0.01536,-0.372784 0.09118,-0.448608 0.193331,-0.193335 0.09244,0.230999 0.08107,0.506999 -0.02525,0.613335 -0.106336,0.106332 -0.181965,-0.08267 -0.16807,-0.42 z m 0.102717,-5.733335 c 3.2e-4,-2.64 0.05001,-3.677418 0.11014,-2.305373 0.06013,1.372041 0.05976,3.532042 -9.6e-4,4.8 -0.06058,1.267955 -0.109772,0.145373 -0.109324,-2.494627 z m 39.347381,-1.76 c 0,-1.672 0.05393,-2.356001 0.119853,-1.52 0.06592,0.836 0.06592,2.204 0,3.04 -0.06592,0.836 -0.119853,0.152 -0.119853,-1.52 z M 34.391281,56.786861 c 0.0019,-1.056 0.06154,-1.449421 0.132755,-0.874269 0.07122,0.575152 0.06975,1.439152 -0.0033,1.92 -0.07302,0.480848 -0.131286,0.01027 -0.129491,-1.045731 z m 21.770542,-0.64 c 0.0013,-1.408 0.05742,-1.944195 0.125021,-1.191542 0.0676,0.752653 0.06665,1.904653 -0.0022,2.56 -0.06876,0.655347 -0.124067,0.03954 -0.122905,-1.368458 z m -39.986387,-2.08 c 0,-2.2 0.05113,-3.1 0.113613,-2 0.06249,1.1 0.06249,2.9 0,4 -0.06249,1.1 -0.113613,0.2 -0.113613,-2 z m 17.877385,-4.32 c 0.0036,-0.704 0.06908,-0.95432 0.145625,-0.556269 0.07654,0.398051 0.07364,0.974051 -0.0065,1.28 -0.08009,0.305949 -0.142719,-0.01973 -0.139168,-0.723731 z m 87.690829,-2.88 c 0.003,-0.880001 0.0645,-1.20202 0.1381,-0.7156 0.0736,0.486419 0.0716,1.206419 -0.004,1.6 -0.0759,0.39358 -0.13613,-0.0044 -0.13373,-0.8844 z M 74.317389,32.440193 c 0.01536,-0.372782 0.09118,-0.448608 0.193332,-0.193333 0.09244,0.231 0.08107,0.507 -0.02525,0.613333 -0.106336,0.106333 -0.181965,-0.08267 -0.168071,-0.42 z M 56.692124,20.346041 c 0,-0.06645 0.252,-0.31845 0.56,-0.56 0.50754,-0.398039 0.518858,-0.38672 0.120819,0.120818 -0.418038,0.533039 -0.680819,0.702553 -0.680819,0.439182 z m 61.399186,-1.079182 c -0.39804,-0.507538 -0.38672,-0.518857 0.12082,-0.120818 0.308,0.24155 0.56,0.49355 0.56,0.56 0,0.263371 -0.26278,0.09386 -0.68082,-0.439182 z m -101.988662,-2.32 c 0,-0.44 0.07263,-0.62 0.161404,-0.4 0.08877,0.22 0.08877,0.58 0,0.8 -0.08877,0.22 -0.161404,0.04 -0.161404,-0.4 z m 92.349482,-2.45193 c 0.22,-0.08877 0.58,-0.08877 0.8,0 0.22,0.08877 0.04,0.161403 -0.4,0.161403 -0.44,0 -0.62,-0.07263 -0.4,-0.161403 z"
         id="path211" />
      <path
         style="fill:#f80300;stroke-width:0.32"
         d="m 28.052122,99.781114 c -1.584,-0.116391 -3.24,-0.279335 -3.68,-0.362096 -0.44,-0.08276 -0.979585,-0.168852 -1.199078,-0.191316 -1.52121,-0.15567 -4.543042,-4.657507 -5.067806,-7.549866 -0.126633,-0.697961 -0.262806,-11.713962 -0.302607,-24.480001 -0.05974,-19.163026 -0.176763,-29.709199 -0.560542,-50.518187 -0.01094,-0.592977 0.182442,-1.19514 0.435175,-1.3551 0.429889,-0.272086 2.652398,-0.337121 11.128203,-0.325632 4.435259,0.006 4.676556,0.14226 4.401199,2.485113 -0.232932,1.98189 -0.603816,34.133427 -0.52905,45.862833 0.04446,6.97528 0.335526,12.973815 0.815038,16.797089 0.213638,1.703392 1.087648,2.079161 4.914919,2.113107 7.338935,0.06509 17.512932,-0.06046 18.04489,-0.222672 1.130852,-0.344838 1.244669,-1.307114 1.370893,-11.590209 0.06844,-5.575523 0.129911,-10.221316 0.136602,-10.323981 0.02208,-0.339002 0.751053,-0.379309 7.532167,-0.41649 l 6.72,-0.03684 0.03538,5.120001 c 0.01946,2.816 0.216048,6.776 0.436871,8.8 0.220822,2.024 0.412717,6.776001 0.426432,10.560001 0.02291,6.316752 -0.0311,7.019821 -0.659476,8.587895 -0.883379,2.20439 -3.043261,4.99673 -4.252377,5.497562 -0.520756,0.215706 -0.946826,0.487862 -0.946826,0.604794 0,0.116934 -0.252,0.232665 -0.56,0.257177 -0.308,0.02451 -1.64,0.13224 -2.96,0.239386 -1.32,0.107149 -8.736001,0.262112 -16.480001,0.344365 -7.744001,0.08225 -14.584001,0.186704 -15.200001,0.232118 -0.616,0.04541 -2.416001,-0.01264 -4.000001,-0.129046 z M 145.09213,52.893527 c -0.73825,-0.2953 -0.43202,-1.066666 0.42346,-1.066666 0.5967,0 0.79498,0.146909 0.72,0.533482 -0.11377,0.586627 -0.52753,0.779558 -1.14346,0.533184 z m -1.97474,-0.933332 c 0.0154,-0.372784 0.0912,-0.448608 0.19334,-0.193334 0.0924,0.230998 0.0811,0.506998 -0.0252,0.613334 -0.10634,0.106333 -0.18197,-0.08267 -0.16807,-0.42 z m 5.12,-0.64 c 0.0154,-0.372784 0.0912,-0.448608 0.19334,-0.193334 0.0924,0.230998 0.0811,0.506998 -0.0252,0.613334 -0.10634,0.106333 -0.18197,-0.08267 -0.16807,-0.42 z"
         id="path209" />
      <path
         style="fill:#cc0b08;stroke-width:0.32"
         d="m 56.790793,138.16464 c -0.385734,-0.1864 -0.802083,-0.57266 -0.925222,-0.85834 -0.352285,-0.81731 -0.629668,-9.37467 -0.453447,-13.98898 0.151463,-3.96598 0.209008,-4.26014 1.078474,-5.51271 1.163149,-1.67567 1.719245,-1.78482 8.104141,-1.59076 3.791159,0.11522 5.023488,0.25671 5.241965,0.60183 0.42362,0.66918 0.355143,2.2125 -0.104579,2.357 -0.22,0.0691 -2.457811,0.20372 -4.972912,0.29905 -2.515101,0.0953 -4.711101,0.25873 -4.880001,0.36312 -0.168899,0.10438 -0.307088,1.40022 -0.307088,2.87964 0,2.33188 0.08237,2.73394 0.618964,3.02112 0.340428,0.18219 2.353686,0.33126 4.473904,0.33126 h 3.854941 l 0.209408,0.83434 c 0.281949,1.12339 -0.224227,1.38706 -2.757216,1.43625 -3.947056,0.0767 -5.864356,0.26576 -6.21161,0.61265 -0.191616,0.19141 -0.398816,1.63957 -0.460445,3.21813 l -0.112051,2.8701 1.126301,1.24668 c 0.619465,0.68568 1.211091,1.18829 1.31472,1.11693 0.103629,-0.0714 0.07922,-0.007 -0.05425,0.14391 -0.370205,0.41749 -2.315725,1.00367 -3.250416,0.97935 -0.457738,-0.0119 -1.14785,-0.17417 -1.533581,-0.36057 z m -44.589404,-0.58471 c -0.258097,-0.15967 -0.474151,-0.72727 -0.480119,-1.26131 -0.0087,-0.78055 0.10111,-0.93968 0.56,-0.81137 0.313968,0.0878 0.872016,0.2455 1.240106,0.35046 0.458168,0.13066 0.620278,0.37815 0.513971,0.78466 -0.08541,0.3266 -0.06257,0.64911 0.05075,0.71671 0.113316,0.0676 0.0078,0.072 -0.23453,0.01 -0.242308,-0.0622 -0.607137,0.0252 -0.810732,0.19414 -0.224824,0.18659 -0.554432,0.19322 -0.839441,0.0169 z m 18.170734,0.0778 -0.880001,-0.11339 v -3.12704 c 0,-1.71986 -0.09497,-6.3903 -0.211044,-10.37874 l -0.211045,-7.25171 h 1.616354 c 1.463382,0 1.635632,0.0768 1.820047,0.81157 0.249653,0.9947 0.217741,17.50816 -0.03629,18.77831 -0.210469,1.05235 -0.848637,1.442 -2.098022,1.281 z m 7.451258,-1.00985 c -0.203661,-0.38054 -0.331258,-3.78238 -0.331258,-8.83164 0,-8.83704 0.137523,-9.69598 1.756269,-10.96929 0.73896,-0.58127 0.8904,-0.58838 9.203732,-0.43258 l 2.8,0.0525 v 1.10874 c 0,0.75104 -0.19088,1.21089 -0.591664,1.42539 -0.325415,0.17415 -2.488372,0.33821 -4.806573,0.36457 -4.935847,0.0561 -4.841764,-0.0111 -4.841764,3.4574 0,2.36891 0.430547,3.2439 1.596192,3.2439 0.324762,0 0.638474,0.13983 0.697143,0.31074 0.120768,0.35183 1.188928,0.59044 2.8,0.62548 1.60727,0.0349 1.012579,0.35222 -1.589613,0.84804 -1.262912,0.24064 -2.475037,0.58594 -2.69361,0.76734 -0.370166,0.30722 -0.777376,3.03973 -0.955005,6.4084 -0.04176,0.792 -0.09824,1.62 -0.125516,1.84 -0.08532,0.68818 -2.53105,0.50468 -2.918333,-0.21897 z m -23.69126,-2.42103 c 0,-0.264 0.05659,-0.48 0.125764,-0.48 0.06917,0 0.208651,0.216 0.309957,0.48 0.101306,0.264 0.04471,0.48 -0.125764,0.48 -0.170476,0 -0.309957,-0.216 -0.309957,-0.48 z m -1.624483,-0.56 c -0.193234,-0.6314 -0.241115,-1.46984 -0.10871,-1.90364 0.151329,-0.49578 0.221457,-0.4881 0.796896,0.0873 0.499517,0.49952 0.560426,0.76277 0.292373,1.26363 -0.279262,0.52181 -0.885442,0.86346 -0.980559,0.55267 z m 0.504483,-1.2 c 0.108774,-0.176 0.04527,-0.32 -0.141114,-0.32 -0.186387,0 -0.338886,0.144 -0.338886,0.32 0,0.176 0.0635,0.32 0.141115,0.32 0.07761,0 0.230111,-0.144 0.338885,-0.32 z m 0.53062,-1.4567 c -0.205338,-0.45066 -0.499781,-0.74125 -0.654318,-0.64574 -0.154538,0.0955 -0.304796,-0.36437 -0.333909,-1.02195 -0.02911,-0.65759 -0.108119,-1.69961 -0.175571,-2.31561 -0.358151,-3.27081 -0.451611,-5.744 -0.222414,-5.88565 0.142158,-0.0879 0.2101,-0.80293 0.150981,-1.58906 -0.09219,-1.22592 0.01091,-1.52246 0.724539,-2.0838 0.693244,-0.54531 0.940078,-0.59 1.479808,-0.26798 0.616823,0.36801 0.637747,0.59293 0.437847,4.70649 -0.273114,5.62013 -0.610175,9.50068 -0.845601,9.73531 -0.103411,0.10307 -0.356023,-0.18134 -0.561362,-0.63201 z M 31.812123,99.926278 c 0.308,-0.08049 0.812,-0.08049 1.12,0 0.308,0.08049 0.056,0.146342 -0.56,0.146342 -0.616,0 -0.868,-0.0658 -0.56,-0.146342 z m 16.240001,0.09482 c 0,-0.06917 0.223478,-0.211525 0.496621,-0.316341 0.284774,-0.109277 0.413222,-0.05563 0.301113,0.125763 -0.187923,0.304078 -0.797734,0.449748 -0.797734,0.190578 z M 23.412122,99.509837 c -0.344355,-0.22041 -0.176386,-0.269594 0.594383,-0.174051 0.59091,0.07325 1.15491,0.213705 1.253333,0.312128 0.30838,0.30838 -1.342992,0.184976 -1.847716,-0.138077 z m 34.180002,0.09843 c 0.230999,-0.09244 0.506999,-0.08107 0.613335,0.02525 0.106333,0.106333 -0.08267,0.181965 -0.42,0.16807 -0.372784,-0.01536 -0.448608,-0.09118 -0.193335,-0.193331 z m 4.112439,-0.121843 c 0.231757,-0.231757 0.686349,-0.24097 1.424,-0.02886 l 1.083562,0.311577 -1.424,0.02886 c -1.006327,0.02038 -1.324148,-0.07099 -1.083562,-0.311577 z m 2.927562,-0.198157 c 0.230998,-0.09244 0.506998,-0.08107 0.613334,0.02525 0.106333,0.106333 -0.08267,0.181965 -0.42,0.16807 -0.372784,-0.01536 -0.448608,-0.09118 -0.193334,-0.193331 z m 2.62,-0.411623 c 0,-0.138675 0.42607,-0.42862 0.946826,-0.644326 1.209116,-0.500832 3.368998,-3.293172 4.252377,-5.497562 0.628385,-1.568074 0.682372,-2.271143 0.659476,-8.587895 -0.01373,-3.784 -0.20561,-8.536001 -0.426432,-10.560001 -0.220823,-2.024 -0.417415,-5.984 -0.436871,-8.8 l -0.03538,-5.120001 -6.72,0.03684 c -6.781114,0.03718 -7.510071,0.07749 -7.532167,0.41649 -0.0067,0.102665 -0.06816,4.748458 -0.136602,10.323981 -0.126224,10.283095 -0.240041,11.245371 -1.370893,11.590209 -0.531958,0.162214 -10.705955,0.28776 -18.04489,0.222672 -3.827271,-0.03395 -4.701281,-0.409715 -4.914919,-2.113107 -0.479513,-3.823284 -0.770576,-9.821809 -0.815035,-16.797089 -0.07131,-11.187492 0.300062,-45.192228 0.495685,-45.387851 0.377811,-0.377811 0.291307,24.785161 -0.11863,34.50785 -0.421582,9.998897 0.373168,28.035922 1.276041,28.960002 0.192627,0.197152 4.470061,0.355315 11.142183,0.41199 9.604548,0.08158 10.887767,0.03375 11.344378,-0.422857 0.452298,-0.452298 0.514848,-1.795965 0.514848,-11.059912 V 59.811021 l 0.820832,-0.31208 c 1.055351,-0.401244 13.585028,-0.399856 14.219169,0.0016 0.396435,0.250957 0.48,1.26682 0.48,5.835102 0,3.042185 0.194266,8.411245 0.4317,11.931245 0.515603,7.643866 0.358787,13.098382 -0.441601,15.360001 -0.844297,2.385699 -2.941606,5.222308 -4.37231,5.913549 -0.669783,0.323578 -1.217789,0.474884 -1.217789,0.336208 z M 20.852122,97.860989 c -0.44,-0.525984 -0.956669,-1.12922 -1.148153,-1.340525 -0.661466,-0.729936 -2.051764,-4.64626 -2.026407,-5.70818 0.0199,-0.833574 0.119102,-0.647609 0.455855,0.854579 0.546445,2.437578 1.481629,4.331466 2.931037,5.93579 0.628177,0.695315 1.017384,1.253065 0.864904,1.23944 -0.15248,-0.01362 -0.637236,-0.45512 -1.077236,-0.981104 z M 17.445707,86.866863 c -9.6e-4,-1.584 0.05314,-2.272346 0.120249,-1.529654 0.06711,0.742688 0.06791,2.038688 0.0018,2.88 -0.06612,0.841309 -0.121033,0.233654 -0.122009,-1.350346 z M 17.552062,65.266862 C 17.430064,55.146861 17.250489,40.246681 17.153007,32.155349 c -0.09748,-8.091332 -0.08391,-14.618183 0.03016,-14.504115 0.114069,0.114069 0.273812,6.086249 0.354985,13.271512 0.340778,30.164835 0.484844,50.575454 0.364383,51.624117 -0.07076,0.616 -0.228471,-7.160001 -0.35047,-17.280001 z M 144.68137,57.644368 c -2.84721,-1.261891 -4.02027,-4.731741 -2.50884,-7.420982 0.8023,-1.427498 1.72382,-1.916525 3.6115,-1.916525 1.87937,0 2.90615,0.869964 3.591,3.042592 0.476,1.510045 0.49143,1.903178 0.11897,3.031747 -0.57765,1.750288 -2.33634,3.53233 -3.45727,3.503168 -0.47553,-0.01235 -1.08544,-0.120368 -1.35536,-0.24 z m 1.55422,-5.284025 c 0.075,-0.386573 -0.1233,-0.533482 -0.72,-0.533482 -0.85548,0 -1.16171,0.771366 -0.42346,1.066666 0.61593,0.246374 1.02969,0.05344 1.14346,-0.533184 z m -2.92486,-0.593482 c -0.10216,-0.255274 -0.17798,-0.17945 -0.19334,0.193334 -0.0139,0.337332 0.0617,0.526333 0.16807,0.42 0.10634,-0.106336 0.1177,-0.382336 0.0252,-0.613334 z m 5.12,-0.64 c -0.10215,-0.255274 -0.17798,-0.17945 -0.19334,0.193334 -0.0139,0.337331 0.0617,0.526333 0.16807,0.42 0.10634,-0.106336 0.1177,-0.382336 0.0252,-0.613334 z M 33.382649,16.626859 c 0,-0.44 0.07263,-0.62 0.161404,-0.4 0.08877,0.22 0.08877,0.58 0,0.8 -0.08877,0.22 -0.161404,0.04 -0.161404,-0.4 z m -6.850527,-1.834306 c 0.748,-0.06737 1.972,-0.06737 2.72,0 0.748001,0.06737 0.136,0.122493 -1.36,0.122493 -1.496,0 -2.108,-0.05512 -1.36,-0.122493 z"
         id="path207" />
      <path
         style="fill:#a71214;stroke-width:0.32"
         d="m 13.092121,138.9582 c -1.370821,-0.11399 -1.52,-0.2043 -1.52,-0.92012 0,-0.68629 0.084,-0.74878 0.62058,-0.46161 0.429556,0.22989 0.684098,0.22935 0.82693,-0.002 0.113493,-0.18363 0.518232,-0.25735 0.899421,-0.16382 0.381188,0.0935 0.528356,0.0925 0.32704,-0.002 -0.201316,-0.0948 -0.294982,-0.44407 -0.208146,-0.77613 0.126645,-0.48429 -0.101672,-0.67364 -1.153971,-0.95699 l -1.311854,-0.35349 v -6.921 c 0,-6.78734 0.204533,-8.55987 0.522321,-4.52657 0.08807,1.11773 0.215701,2.53624 0.283631,3.15224 0.06793,0.616 0.147329,1.65802 0.176441,2.31561 0.02911,0.65758 0.173146,1.12131 0.320075,1.0305 0.146929,-0.0908 0.477595,0.23517 0.734814,0.72439 l 0.46767,0.8895 0.172832,-0.8 c 0.229136,-1.06063 0.477638,-4.35104 0.712937,-9.44 0.182126,-3.93895 0.158043,-4.18054 -0.453209,-4.54649 -0.537657,-0.32189 -0.784624,-0.2771 -1.477584,0.26798 -0.713623,0.56134 -0.816731,0.85788 -0.724539,2.0838 0.05912,0.78613 -0.01016,1.50203 -0.15395,1.5909 -0.143791,0.0889 -0.285439,-0.63892 -0.314772,-1.61731 -0.02933,-0.97839 -0.06533,-2.0295 -0.08,-2.33581 -0.02006,-0.41888 0.351197,-0.62595 1.497841,-0.83544 2.555379,-0.46685 2.475493,-0.77432 2.475493,9.52755 0,6.58641 0.103503,9.12032 0.384,9.40082 0.258455,0.25845 1.716097,0.384 4.458436,0.384 3.604032,0 4.095018,0.0648 4.252708,0.56168 0.177052,0.55784 0.01548,1.95436 -0.257729,2.22757 -0.290047,0.29005 -9.29187,0.68383 -11.477416,0.50208 z m 1.475721,-4.73133 c -0.101306,-0.264 -0.240787,-0.48 -0.309957,-0.48 -0.06917,0 -0.125764,0.216 -0.125764,0.48 0,0.264 0.139481,0.48 0.309957,0.48 0.170477,0 0.22707,-0.216 0.125764,-0.48 z m -1.079645,-1.11267 c 0.268053,-0.50086 0.207144,-0.76411 -0.292373,-1.26363 -0.575439,-0.57544 -0.645567,-0.58312 -0.796896,-0.0873 -0.132405,0.4338 -0.08452,1.27224 0.10871,1.90364 0.09512,0.31079 0.701297,-0.0308 0.980559,-0.55267 z m -0.956076,-0.64733 c 0,-0.176 0.152499,-0.32 0.338886,-0.32 0.186387,0 0.249888,0.144 0.141114,0.32 -0.108774,0.176 -0.261272,0.32 -0.338885,0.32 -0.07761,0 -0.141115,-0.144 -0.141115,-0.32 z m 44.635085,6.40449 c -0.545379,-0.17176 -1.241047,-0.76054 -1.6,-1.35419 -0.591043,-0.97747 -0.635082,-1.63834 -0.635082,-9.5303 v -8.48 l 0.861555,-1.46552 c 1.43624,-2.44304 1.214007,-2.3798 8.187598,-2.33002 4.868544,0.0348 6.289431,0.1396 6.505101,0.48 0.428461,0.67625 0.334368,3.03682 -0.136624,3.42771 -0.254582,0.21128 -2.383853,0.38575 -5.36,0.43918 l -4.93763,0.0887 v 2.56 2.56 l 4.000001,0.0783 c 5.36161,0.10498 5.44,0.12838 5.44,1.62377 0,0.66545 -0.1728,1.38271 -0.384,1.59391 -0.260262,0.26026 -1.758675,0.384 -4.650042,0.384 -3.762064,0 -4.293181,0.0662 -4.495735,0.56 -0.284009,0.69243 -0.306128,5.39076 -0.02669,5.67019 0.111943,0.11195 2.460829,0.30983 5.219751,0.43975 5.39898,0.25423 5.801908,0.40022 5.437258,1.97006 -0.102205,0.44 -0.283638,0.8993 -0.403184,1.02067 -0.356557,0.36199 -11.963837,0.59714 -13.022276,0.26382 z m 3.077168,-0.68817 c 0.598263,-0.20002 1.196951,-0.48682 1.330416,-0.63733 0.133469,-0.15051 0.157879,-0.21527 0.05425,-0.14391 -0.103629,0.0714 -0.695255,-0.43125 -1.31472,-1.11693 l -1.126301,-1.24668 0.112051,-2.8701 c 0.06163,-1.57856 0.268829,-3.02672 0.460445,-3.21813 0.347254,-0.34689 2.264554,-0.53599 6.21161,-0.61265 2.532989,-0.0492 3.039165,-0.31286 2.757216,-1.43625 l -0.209408,-0.83434 h -3.854941 c -2.120218,0 -4.133476,-0.14907 -4.473904,-0.33126 -0.536589,-0.28718 -0.618964,-0.68924 -0.618964,-3.02112 0,-1.47942 0.138189,-2.77526 0.307088,-2.87964 0.1689,-0.10439 2.3649,-0.26779 4.880001,-0.36312 2.515101,-0.0953 4.752912,-0.2299 4.972912,-0.29905 0.459722,-0.1445 0.528199,-1.68782 0.104579,-2.357 -0.218477,-0.34512 -1.450806,-0.48661 -5.241965,-0.60183 -6.384896,-0.19406 -6.940992,-0.0849 -8.104141,1.59076 -0.869466,1.25257 -0.927011,1.54673 -1.078474,5.51271 -0.176221,4.61431 0.101162,13.17167 0.453447,13.98898 0.485792,1.12704 2.45256,1.5209 4.378803,0.87689 z m -30.016755,0.13335 c -0.681259,-0.0851 -1.093927,-0.34664 -1.231714,-0.78077 -0.113965,-0.35907 -0.227628,-5.18053 -0.252584,-10.71435 -0.03657,-8.11002 0.03793,-10.11298 0.384136,-10.32695 0.583883,-0.36086 3.492122,-0.40387 3.707837,-0.0548 0.09537,0.15431 0.179053,5.07205 0.185959,10.92831 0.01302,11.04183 -0.01066,11.24615 -1.28913,11.1228 -0.264,-0.0255 -0.941027,-0.10386 -1.504504,-0.17421 z m 2.242526,-1.93979 c 0.25403,-1.27015 0.285942,-17.78361 0.03629,-18.77831 -0.184415,-0.73477 -0.356665,-0.81157 -1.820047,-0.81157 h -1.616354 l 0.211045,7.25171 c 0.116074,3.98844 0.211044,8.65888 0.211044,10.37874 v 3.12704 l 0.880001,0.11339 c 1.249385,0.161 1.887553,-0.22865 2.098021,-1.281 z m 4.80753,0.89012 c -0.121088,-0.264 -0.272253,-4.28799 -0.335914,-8.94221 -0.125936,-9.20667 -0.06249,-9.65445 1.623556,-11.45779 l 0.972352,-1.04 h 6.177229 6.177226 v 1.77004 c 0,1.13503 -0.143501,1.81556 -0.4,1.89692 -0.22,0.0698 -2.486218,0.22013 -5.036036,0.3341 -2.992701,0.13377 -4.720778,0.34046 -4.875101,0.58308 -0.389101,0.61174 -0.284041,4.21268 0.135136,4.63186 0.264768,0.26476 1.884765,0.384 5.217437,0.384 h 4.833438 l 0.07727,1.30949 c 0.125453,2.12616 -0.07437,2.21051 -5.237089,2.21051 -3.868928,0 -4.596253,0.0773 -4.760816,0.50617 -0.106832,0.27839 -0.196202,1.89839 -0.198605,3.6 -0.0063,4.465 -0.0033,4.45891 -2.263062,4.58693 -1.441447,0.0817 -1.938826,-0.006 -2.107018,-0.3731 z m 3.464039,-0.4 c 0.02726,-0.22 0.08376,-1.048 0.125516,-1.84 0.177629,-3.36867 0.584839,-6.10118 0.955005,-6.4084 0.218573,-0.1814 1.430698,-0.5267 2.69361,-0.76734 2.602192,-0.49582 3.196883,-0.81309 1.589613,-0.84804 -1.611072,-0.035 -2.679232,-0.27365 -2.8,-0.62548 -0.05867,-0.17091 -0.372381,-0.31074 -0.697143,-0.31074 -1.165645,0 -1.596192,-0.87499 -1.596192,-3.2439 0,-3.46845 -0.09408,-3.40127 4.841764,-3.4574 2.318201,-0.0264 4.481158,-0.19042 4.806573,-0.36457 0.400784,-0.2145 0.591664,-0.67435 0.591664,-1.42539 v -1.10874 l -2.8,-0.0525 c -8.313332,-0.1558 -8.464772,-0.14869 -9.203732,0.43258 -1.618746,1.27331 -1.756269,2.13225 -1.756269,10.96929 0,5.04926 0.127597,8.4511 0.331258,8.83164 0.387283,0.72365 2.833014,0.90715 2.918333,0.21897 z M 29.412122,99.934934 c 0.22,-0.08877 0.580001,-0.08877 0.800001,0 0.22,0.08878 0.04,0.161406 -0.400001,0.161406 -0.44,0 -0.62,-0.0726 -0.4,-0.161406 z m 4.320001,-0.0086 c 0.308,-0.08049 0.812,-0.08049 1.12,0 0.308,0.08049 0.056,0.146346 -0.56,0.146346 -0.616,0 -0.868,-0.0659 -0.56,-0.146346 z m 3.2044,-0.0091 c 0.486419,-0.07355 1.206419,-0.07159 1.6,0.0044 0.393581,0.07596 -0.0044,0.136126 -0.8844,0.133726 -0.88,-0.003 -1.202019,-0.06455 -0.7156,-0.138094 z m 3.0356,0.0177 c 0.22,-0.08877 0.58,-0.08877 0.8,0 0.22,0.08878 0.04,0.161406 -0.4,0.161406 -0.44,0 -0.62,-0.0726 -0.4,-0.161406 z m 1.92,0 c 0.22,-0.08877 0.58,-0.08877 0.8,0 0.22,0.08878 0.04,0.161406 -0.4,0.161406 -0.44,0 -0.62,-0.0726 -0.4,-0.161406 z m 9.449655,-0.02368 c 0.841312,-0.06614 2.137312,-0.06534 2.88,0.0019 0.742692,0.06711 0.05435,0.121226 -1.529654,0.120246 -1.584,-9.6e-4 -2.191655,-0.05588 -1.350346,-0.122018 z m 7.590346,-0.133705 c 0,-0.334317 2.465428,-0.362647 2.670471,-0.03069 0.08153,0.132 -0.485968,0.253811 -1.261114,0.270691 -0.775145,0.0169 -1.409357,-0.09113 -1.409357,-0.240006 z M 22.132122,99.186864 c -0.264,-0.170611 -0.336,-0.310198 -0.16,-0.310198 0.176,0 0.536,0.139587 0.8,0.310198 0.264,0.170611 0.336,0.310198 0.16,0.310198 -0.176,0 -0.536,-0.139587 -0.8,-0.310198 z m 43.460003,0.101405 c 0.230998,-0.09244 0.506998,-0.08107 0.613334,0.02525 0.106333,0.106333 -0.08267,0.181965 -0.42,0.16807 -0.372784,-0.01536 -0.448608,-0.09118 -0.193334,-0.193331 z m 2.214666,-0.461114 c 0.217068,-0.218694 0.475276,-0.317014 0.573801,-0.218489 0.09853,0.09852 -0.07907,0.277456 -0.394665,0.397625 -0.456064,0.173658 -0.49282,0.136903 -0.179136,-0.179136 z M 20.719033,98.021603 c -0.168534,-0.439194 -0.121708,-0.458989 0.285763,-0.120819 0.555279,0.460842 0.613069,0.64608 0.201562,0.64608 -0.15717,0 -0.376466,-0.236368 -0.487325,-0.525261 z m -1.000069,-1.096029 c -0.116011,-0.187709 -0.142299,-0.40992 -0.05842,-0.493801 0.08388,-0.08388 0.237781,0.0697 0.342,0.341289 0.216379,0.563875 0.03195,0.663059 -0.283582,0.152512 z m 50.413161,0.220471 c 0,-0.06645 0.252,-0.318448 0.56,-0.56 0.507539,-0.398039 0.518858,-0.38672 0.120819,0.120819 -0.418038,0.53304 -0.680819,0.702553 -0.680819,0.439181 z M 18.664103,95.173158 c -0.536157,-1.176733 -0.433867,-1.427773 0.145873,-0.358003 0.270728,0.499558 0.432353,0.968166 0.359169,1.04135 -0.07318,0.07318 -0.300453,-0.23432 -0.505042,-0.683347 z m 52.911632,0.0531 c 0.302499,-0.461667 0.610502,-0.839398 0.684451,-0.839398 0.231482,0 -0.513568,1.23327 -0.882973,1.461577 -0.193312,0.119472 -0.103974,-0.160508 0.198522,-0.622179 z m -53.724081,-1.97177 c -0.109743,-0.285984 -0.190405,-0.688195 -0.179249,-0.893801 0.01115,-0.205604 0.15825,-0.02893 0.326875,0.39263 0.168625,0.421552 0.249287,0.823763 0.179248,0.893802 -0.07004,0.07004 -0.217131,-0.106647 -0.326874,-0.392631 z M 72.719517,92.94686 c 0.03332,-0.606151 0.566644,-1.626833 0.585216,-1.120001 0.0097,0.264 -0.121996,0.696001 -0.292608,0.960001 -0.170611,0.264 -0.302285,0.336 -0.292608,0.16 z M 17.394505,90.386863 c 0.0065,-0.528 0.07824,-0.70526 0.159374,-0.39391 0.08113,0.31135 0.0758,0.74335 -0.01186,0.96 -0.08766,0.21665 -0.154039,-0.03809 -0.147518,-0.56609 z m 55.988145,0.16 c 0,-0.44 0.07263,-0.62 0.161405,-0.4 0.08877,0.22 0.08877,0.58 0,0.8 -0.08877,0.22 -0.161405,0.04 -0.161405,-0.4 z m 0.395735,-5.28 c 6.4e-4,-2.464 0.05073,-3.429699 0.111625,-2.146 0.0609,1.283699 0.06049,3.299699 -9.6e-4,4.48 -0.06134,1.180301 -0.111165,0.13 -0.110665,-2.334 z m -56.679107,2.08 c 0,-0.792 0.0624,-1.116 0.138678,-0.72 0.07627,0.396 0.07627,1.044 0,1.44 -0.07627,0.396 -0.138678,0.072 -0.138678,-0.72 z m 0.362376,-8.16 c 4.16e-4,-2.816001 0.04936,-3.925162 0.108789,-2.464807 0.05943,1.460359 0.0591,3.764359 -7.36e-4,5.12 -0.05983,1.355645 -0.108458,0.160807 -0.108053,-2.655193 z m 18.663333,2.489046 c 0.568074,-0.07069 1.576074,-0.07185 2.24,-0.0026 0.663923,0.06927 0.199136,0.127111 -1.032864,0.128531 -1.232,0.0013 -1.775213,-0.05526 -1.207136,-0.125948 z m 17.612868,-9.6e-4 c 0.575152,-0.07122 1.439152,-0.06975 1.92,0.0033 0.480848,0.07302 0.01027,0.131287 -1.045731,0.129491 -1.056,-0.0019 -1.449421,-0.06154 -0.874269,-0.132755 z M 34.095016,81.125554 c -0.09736,-0.253718 -0.120623,-0.721718 -0.05169,-1.04 0.07826,-0.361347 0.187792,-0.18809 0.29164,0.461309 0.174272,1.089763 0.061,1.362947 -0.239948,0.578691 z m 22.842107,-1.873696 c 0.156572,-3.462797 0.303142,-3.896333 0.346524,-1.024995 0.02128,1.408 -0.07144,2.733248 -0.206035,2.944995 -0.134592,0.21175 -0.197814,-0.65225 -0.140489,-1.92 z m 16.511876,-2.304995 c 9.6e-4,-1.760001 0.05457,-2.439175 0.119414,-1.509274 0.06485,0.929901 0.06417,2.369901 -0.0016,3.2 -0.06568,0.830099 -0.118732,0.06927 -0.1179,-1.690726 z m -39.705352,0.96 c 0.0024,-0.88 0.06455,-1.20202 0.138102,-0.7156 0.07355,0.486419 0.07159,1.206419 -0.0044,1.6 -0.07596,0.39358 -0.136136,-0.0044 -0.133734,-0.8844 z m -0.324368,-3.040001 c 0,-0.792 0.0624,-1.116 0.138678,-0.72 0.07627,0.396 0.07627,1.044 0,1.44 -0.07627,0.396 -0.138678,0.072 -0.138678,-0.72 z m -0.06189,-2.106665 c 0.01535,-0.372784 0.09118,-0.448608 0.193333,-0.193335 0.09244,0.230999 0.08107,0.506999 -0.02526,0.613335 -0.106333,0.106332 -0.181965,-0.08267 -0.16807,-0.42 z M 72.83593,70.466862 c -0.128506,-1.54 -0.144698,-4.558672 -0.03598,-6.708157 0.176612,-3.491828 0.138784,-3.942474 -0.355078,-4.230272 -0.488983,-0.284951 -0.46969,-0.323232 0.167254,-0.33184 l 0.72,-0.0097 v 7.040001 c 0,3.872 -0.05907,7.04 -0.131273,7.04 -0.0722,0 -0.236416,-1.26 -0.364922,-2.8 z M 33.012123,65.951524 c 0,-3.319434 -0.0698,-6.739434 -0.155103,-7.6 -0.134841,-1.360269 -0.118822,-1.418356 0.122632,-0.444663 0.437143,1.762842 0.754517,14.080001 0.362796,14.080001 -0.215424,0 -0.330325,-2.099344 -0.330325,-6.035338 z m 24.320001,-6.474621 c 0,-0.159523 0.288,-0.290042 0.64,-0.290042 0.352,0 0.64,0.05521 0.64,0.122679 0,0.06747 -0.288,0.19799 -0.64,0.290041 -0.352,0.09205 -0.64,0.03684 -0.64,-0.122678 z m 8.560001,-0.525958 c 0.924,-0.06464 2.436,-0.06464 3.36,0 0.924,0.06464 0.168,0.117529 -1.68,0.117529 -1.848,0 -2.604,-0.05289 -1.68,-0.117529 z M 144.53213,58.07128 c -1.36487,-0.640534 -2.33866,-1.561411 -2.72463,-2.576592 -0.47144,-1.239993 -0.23031,-1.270541 0.43569,-0.05519 0.74605,1.361427 1.91008,2.178912 3.38412,2.376621 1.06354,0.142649 1.33639,0.02653 2.32194,-0.988276 0.61424,-0.632457 1.30937,-1.733443 1.54475,-2.44664 0.37246,-1.128569 0.35703,-1.521702 -0.11897,-3.031747 -0.68485,-2.172628 -1.71163,-3.042592 -3.591,-3.042592 -0.75998,0 -1.73038,0.158828 -2.15644,0.352956 -1.08636,0.49498 -2.13021,2.507725 -2.16296,4.170612 -0.0264,1.338506 -0.0394,1.356608 -0.31479,0.436432 -0.39888,-1.332986 0.46458,-3.470435 1.86992,-4.628832 0.9158,-0.754887 1.36246,-0.898218 2.58953,-0.83097 1.85548,0.101683 3.24284,0.654381 3.24284,1.291882 0,0.268355 0.1525,0.48792 0.33889,0.48792 0.18638,0 0.25604,0.134051 0.15478,0.297888 -0.10126,0.16384 -0.0461,0.383197 0.12262,0.487459 0.66341,0.41001 0.746,2.977543 0.14657,4.556099 -0.64086,1.687642 -1.34664,2.452391 -2.91258,3.155927 -1.21117,0.544147 -0.98026,0.545523 -2.17028,-0.01296 z M 33.267534,47.026861 c 0.08365,-5.192001 0.212308,-9.507915 0.28592,-9.590919 0.18762,-0.211565 -0.01643,13.363287 -0.247582,16.470919 -0.10473,1.408 -0.121982,-1.688 -0.03834,-6.88 z m -15.825713,4.32 c 0.0012,-1.408 0.05742,-1.944195 0.12502,-1.191543 0.0676,0.752653 0.06665,1.904653 -0.0021,2.560001 -0.06876,0.655347 -0.12407,0.03954 -0.122908,-1.368458 z m -0.330541,-4.48 c 0.0018,-1.056001 0.06154,-1.449421 0.132756,-0.874269 0.07122,0.575152 0.06975,1.439152 -0.0033,1.92 -0.07302,0.480848 -0.131287,0.01027 -0.129491,-1.045731 z M 16.838552,29.906859 c 7.9e-5,-7.392 0.04206,-10.370307 0.09328,-6.618459 0.05123,3.751848 0.05116,9.799848 -1.45e-4,13.440002 -0.05131,3.640151 -0.09322,0.570458 -0.09314,-6.821543 z m 16.580727,3.680001 c 0,-0.792 0.0624,-1.116 0.138678,-0.72 0.07627,0.396 0.07627,1.044 0,1.44 -0.07627,0.396 -0.138678,0.072 -0.138678,-0.72 z m 0.04623,-10.400001 c 3.07e-4,-3.344 0.04773,-4.668521 0.105375,-2.943379 0.05765,1.725142 0.0574,4.461142 -5.44e-4,6.08 -0.05797,1.618859 -0.105139,0.207379 -0.104831,-3.136621 z M 17.118788,15.24359 c 0,-0.255803 0.436632,-0.422965 1.146667,-0.438996 0.786673,-0.01776 0.895508,0.02269 0.346667,0.12885 -0.44,0.08511 -0.956,0.282654 -1.146667,0.438996 -0.21666,0.177656 -0.346667,0.129335 -0.346667,-0.12885 z m 3.813334,-0.437316 c 0.308,-0.08049 0.812,-0.08049 1.12,0 0.308,0.08049 0.056,0.146344 -0.56,0.146344 -0.616,0 -0.868,-0.06585 -0.56,-0.146344 z"
         id="path205" />
      <path
         style="fill:#630e0f;stroke-width:0.32"
         d="m 12.932121,138.96628 c 0.308,-0.0805 0.812,-0.0805 1.12,0 0.308,0.0805 0.056,0.14635 -0.56,0.14635 -0.616,0 -0.868,-0.0659 -0.56,-0.14635 z m 4.106667,0.0942 c 0.07333,-0.0695 1.74941,-0.18556 3.724615,-0.25795 1.975204,-0.0724 3.67172,-0.21205 3.770035,-0.31036 0.303784,-0.30379 0.481449,-1.67253 0.293828,-2.26367 -0.15769,-0.49684 -0.648676,-0.56168 -4.252708,-0.56168 -3.769137,0 -4.840973,-0.20893 -4.842897,-0.944 -2.53e-4,-0.0968 2.204317,-0.13324 4.899046,-0.081 l 4.899507,0.095 0.04519,1.73582 c 0.02485,0.9547 -0.09407,1.82188 -0.264266,1.92707 -0.170198,0.10519 -0.226604,0.3253 -0.125346,0.48914 0.110081,0.17811 -1.517551,0.29789 -4.048114,0.29789 -2.327721,0 -4.172219,-0.0568 -4.098886,-0.12634 z m 12.933335,-0.15203 c -1.232102,-0.19409 -1.282377,-0.24953 -1.3435,-1.48163 -0.06275,-1.26489 -0.05994,-1.26824 0.2378,-0.2838 0.264317,0.87392 0.477398,1.02034 1.73597,1.19285 2.291016,0.31402 2.371994,0.21355 2.497737,-3.09883 0.109191,-2.87637 0.110875,-2.86848 0.09161,0.42978 l -0.01962,3.36 -0.96,0.0416 c -0.528,0.0229 -1.536,-0.0491 -2.24,-0.16 z m 6.964208,-1.88163 c -0.0092,-1.188 0.04446,-1.8 0.119152,-1.36 0.371949,2.19099 0.250554,2.08879 2.342077,1.97157 1.06401,-0.0596 1.954627,-0.13163 1.979152,-0.16 0.02451,-0.0284 0.142973,-1.85157 0.263216,-4.05157 l 0.218627,-4 0.05678,3.73916 c 0.06227,4.10058 -0.22239,5.38084 -1.196409,5.38084 -0.345972,0 -0.718032,0.144 -0.826807,0.32 -0.108774,0.176 -0.814579,0.32 -1.568454,0.32 H 36.95298 l -0.01664,-2.16 z m 19.435793,1.82538 c -0.350547,-0.23722 -0.221094,-0.26691 0.48,-0.11009 1.176618,0.26319 1.432036,0.44635 0.613335,0.43981 -0.337335,-0.003 -0.829335,-0.15107 -1.093335,-0.32972 z m 11.169102,0.035 c 2.29935,-0.15424 2.725104,-0.27314 2.937507,-0.82038 0.215008,-0.55395 0.251434,-0.52168 0.270899,0.24 l 0.02249,0.88 -2.96,-0.0596 -2.96,-0.0596 z m -12.135521,-1.14812 c -0.22263,-0.26825 -0.34281,-0.5497 -0.267069,-0.62544 0.07574,-0.0757 0.313485,0.14373 0.528314,0.48773 0.464579,0.74391 0.309641,0.82559 -0.261245,0.13771 z m -0.571197,-1.91226 c 0.0065,-0.528 0.07824,-0.70526 0.159373,-0.39391 0.08113,0.31135 0.0758,0.74335 -0.01187,0.96 -0.08766,0.21665 -0.154038,-0.0381 -0.147517,-0.56609 z m 15.540782,0.40949 c -0.11528,-0.34584 -2.372714,-0.54275 -9.923166,-0.86555 -0.308,-0.0132 -0.56,-0.16794 -0.56,-0.34394 0,-0.20079 2.026666,-0.32 5.440001,-0.32 h 5.44 v 0.96 c 0,0.99698 -0.172038,1.24388 -0.396835,0.56949 z m -10.707274,-3.76949 c 0,-0.968 0.05999,-1.364 0.133308,-0.88 0.07332,0.484 0.07332,1.276 0,1.76 -0.07332,0.484 -0.133308,0.088 -0.133308,-0.88 z m -26.659085,-8.16 -0.156808,-8 -1.44,-0.054 c -2.230948,-0.0837 -2.554488,0.095 -2.600054,1.43558 -0.0398,1.17086 -0.04159,1.16918 -0.279289,-0.26156 -0.131579,-0.792 -0.221555,-1.46383 -0.199946,-1.49295 0.02161,-0.0291 1.076054,-0.155 2.343212,-0.27976 2.243046,-0.22083 2.308845,-0.20674 2.490164,0.53294 0.102433,0.41787 0.144231,4.21577 0.09289,8.43977 l -0.09336,7.68 z m 18.549907,4.17601 c 0.524736,-0.63227 0.312694,-2.84079 -0.298929,-3.11352 -0.357148,-0.15926 -0.294956,-0.22353 0.232215,-0.24 0.669165,-0.0209 0.72,0.11306 0.72,1.89751 0,1.55773 -0.09796,1.92 -0.519181,1.92 -0.417254,0 -0.443581,-0.0911 -0.134105,-0.46399 z m 17.549287,0.08 c 0.517648,-0.51765 0.50465,-2.81307 -0.016,-2.82574 -0.22,-0.005 -0.1372,-0.16255 0.184,-0.34933 0.825335,-0.47994 0.899447,-0.28301 0.660051,1.75384 -0.15664,1.33278 -0.343008,1.80523 -0.712109,1.80523 -0.388844,0 -0.414608,-0.0853 -0.115942,-0.384 z m -14.261761,-8.256 c 0,-0.616 0.06586,-0.868 0.146346,-0.56 0.08049,0.308 0.08049,0.812 0,1.12 -0.08049,0.308 -0.146346,0.056 -0.146346,-0.56 z m -5.83424,-0.61962 2.72,-0.18038 0.09576,-1.83304 0.09576,-1.83304 -6.175763,-0.0943 -6.175761,-0.0943 6.280001,-0.0727 6.28,-0.0727 0.2,1 c 0.11,0.55 0.2,1.558 0.2,2.24 v 1.24 l -3.12,-0.0596 -3.12,-0.0596 z m 21.376001,-0.0844 c 0.423568,-0.42357 0.514807,-2.75484 0.131418,-3.35788 -0.13353,-0.21003 -1.103325,-0.43849 -2.155101,-0.5077 -1.790791,-0.11783 -1.769965,-0.12407 0.327683,-0.0981 l 2.24,0.0277 0.101053,1.41434 c 0.122906,1.72015 -0.142762,2.90566 -0.651149,2.90566 -0.287152,0 -0.285686,-0.0922 0.0061,-0.384 z m -54.598324,-1.41682 c -0.07971,-1.82526 -0.62546,-2.20154 -2.620814,-1.80701 -1.455674,0.28782 -1.596866,0.26322 -1.596866,-0.27822 0,-0.51798 0.267341,-0.59395 2.090044,-0.59395 2.388066,0 2.488599,0.10636 2.306776,2.44065 -0.118722,1.52419 -0.122761,1.52957 -0.17914,0.23853 z m 39.302323,0.6096 c 0,-0.18583 0.296547,-0.67783 0.658992,-1.09334 l 0.658992,-0.75544 -0.562141,0.96 c -0.739859,1.26349 -0.755843,1.28229 -0.755843,0.88878 z m -16.640001,-2.1296 c 0,-0.0665 0.252,-0.31845 0.56,-0.56 0.507539,-0.39804 0.518858,-0.38672 0.120819,0.12082 -0.418038,0.53304 -0.680819,0.70255 -0.680819,0.43918 z m 17.920001,0 c 0,-0.0665 0.252,-0.31845 0.56,-0.56 0.507539,-0.39804 0.518858,-0.38672 0.120819,0.12082 -0.418038,0.53304 -0.680819,0.70255 -0.680819,0.43918 z m 1.68609,-1.06094 c 0.31135,-0.0811 0.74335,-0.0758 0.96,0.0119 0.21665,0.0877 -0.03809,0.15404 -0.56609,0.14752 -0.528,-0.007 -0.70526,-0.0782 -0.39391,-0.15938 z m 7.533911,0.003 c 0.230998,-0.0924 0.506998,-0.0811 0.613334,0.0252 0.106333,0.10633 -0.08267,0.18196 -0.42,0.16807 -0.372784,-0.0154 -0.448608,-0.0912 -0.193334,-0.19333 z m -10.240001,-14.4 c 0.230999,-0.0924 0.506999,-0.0811 0.613335,0.0252 0.106332,0.10633 -0.08267,0.18196 -0.42,0.16807 -0.372784,-0.0154 -0.448608,-0.0912 -0.193335,-0.19334 z m -17.61627,-0.96773 c 0.398051,-0.0765 0.974051,-0.0736 1.28,0.006 0.305949,0.0801 -0.01974,0.14272 -0.723731,0.13917 -0.704,-0.004 -0.95432,-0.0691 -0.556269,-0.14562 z m 3.216269,0.008 c 0.230999,-0.0924 0.506999,-0.0811 0.613335,0.0252 0.106332,0.10633 -0.08267,0.18197 -0.42,0.16807 -0.372784,-0.0154 -0.448608,-0.0912 -0.193335,-0.19333 z m 2.62,-0.12394 c -0.513312,-0.149964 0.06007,-0.23709 1.6,-0.243126 1.320001,-0.0052 2.645892,0.08847 2.946426,0.208106 0.742647,0.29561 -3.541491,0.32862 -4.546426,0.035 z M 27.172122,99.92103 c 0.396,-0.07627 1.044,-0.07627 1.44,0 0.396,0.07627 0.072,0.13868 -0.72,0.13868 -0.792,0 -1.116,-0.06241 -0.72,-0.13868 z m 8.340001,0.0072 c 0.230998,-0.09244 0.506998,-0.08107 0.613334,0.02525 0.106333,0.10633 -0.08267,0.18197 -0.42,0.16807 -0.372784,-0.0154 -0.448608,-0.0912 -0.193334,-0.19333 z m 20.785732,-0.01331 c 0.575152,-0.07122 1.439153,-0.06975 1.920001,0.0033 0.480848,0.07302 0.01027,0.13129 -1.045732,0.1295 -1.056,-0.002 -1.449421,-0.06154 -0.874269,-0.132764 z m 3.834269,0.02 c 0.22,-0.08877 0.580001,-0.08877 0.800001,0 0.22,0.08877 0.04,0.16141 -0.400001,0.16141 -0.44,0 -0.62,-0.0726 -0.4,-0.16141 z m 4.240001,-0.108086 c 0,-0.176 0.207501,-0.32 0.461113,-0.32 0.253613,0 0.550112,0.144 0.658887,0.32 0.108774,0.175996 -0.09873,0.319996 -0.461114,0.319996 -0.362387,0 -0.658886,-0.144 -0.658886,-0.319996 z M 21.177022,99.567811 c -0.0075,-0.637638 -2.311037,-3.257843 -2.669433,-3.036342 -0.172894,0.106854 -0.217411,0.03743 -0.09893,-0.154285 0.182733,-0.295671 -0.909259,-3.103037 -1.396541,-3.59032 -0.088,-0.088 -0.209398,-1.096001 -0.269774,-2.240001 -0.174594,-3.308233 -0.269919,-4.166358 -0.486925,-4.383366 -0.111816,-0.111815 -0.176474,-1.3673 -0.143684,-2.789968 l 0.05962,-2.586666 0.18192,2.72 c 0.174874,2.614631 0.194089,2.509261 0.496001,-2.72 0.452616,-7.839527 0.38485,-28.325874 -0.101618,-30.720002 -0.270395,-1.330736 -0.412442,-6.953658 -0.462833,-18.321196 -0.03999,-9.020658 -0.02441,-16.255761 0.03463,-16.078007 0.05903,0.177753 0.203032,0.263926 0.32,0.191494 0.116968,-0.07243 0.167016,5.290671 0.111217,11.918007 -0.07335,8.71211 0.04911,14.487173 0.442103,20.849702 0.44736,7.242656 0.501716,11.235117 0.30715,22.560001 -0.130022,7.568001 -0.27916,14.624001 -0.331417,15.680001 -0.209138,4.226186 1.208153,8.720433 3.487401,11.058586 0.801946,0.822673 1.028897,1.266609 0.817957,1.600001 -0.219706,0.347244 -0.293154,0.357728 -0.296842,0.04236 z m 45.915103,-0.359014 c 1.637101,-0.396576 2.628848,-1.084493 3.823475,-2.652122 1.332855,-1.749008 2.332647,-3.932554 2.618157,-5.718055 0.110093,-0.688467 0.342106,-1.251757 0.515588,-1.251757 0.278611,0 0.224166,0.730464 -0.19081,2.56 -0.216272,0.953501 -0.992266,2.560001 -1.236567,2.560001 -0.137414,0 -0.249843,0.288 -0.249843,0.64 0,0.352 -0.125437,0.64 -0.278752,0.64 -0.153312,0 -0.618838,0.496326 -1.034502,1.102947 -0.912282,1.331386 -2.758503,2.42904 -4.010314,2.384298 l -0.916432,-0.03275 z m 6.955264,-12.501934 c -2.52e-4,-1.496 0.104752,-3.656 0.233344,-4.8 0.203111,-1.806979 0.235236,-1.575962 0.244736,1.76 0.006,2.112 -0.09899,4.272 -0.233344,4.8 -0.168576,0.662487 -0.244419,0.117047 -0.244736,-1.76 z M 37.012123,81.629884 C 34.57651,81.436728 34.448436,81.387992 34.376267,80.626863 l -0.07585,-0.8 0.364755,0.72 c 0.347959,0.686848 0.557738,0.722525 4.555853,0.774864 4.214458,0.05517 8.239684,0.04999 14.049988,-0.01808 1.806103,-0.02115 3.062084,-0.161047 2.958007,-0.329447 -0.09949,-0.160966 -0.03941,-0.340966 0.133494,-0.4 0.19337,-0.06602 0.368909,-4.15584 0.456052,-10.625386 0.07792,-5.784932 0.27366,-10.650045 0.434976,-10.811361 0.161318,-0.161318 1.864995,-0.246777 3.785946,-0.189907 l 3.49264,0.103392 -3.6,0.06796 -3.600001,0.06796 -0.03207,7.920001 c -0.03406,8.412756 -0.297555,13.957863 -0.68144,14.340769 -0.301046,0.300281 -16.248955,0.448525 -19.606494,0.182253 z m 36.759705,-4.043021 c 6.4e-4,-1.936001 0.05343,-2.686743 0.117123,-1.668317 0.0637,1.018425 0.0631,2.602425 -0.0013,3.52 -0.06442,0.917574 -0.116534,0.08432 -0.115811,-1.851683 z m -39.708181,0.64 c 0.0024,-0.88 0.06455,-1.20202 0.138102,-0.7156 0.07355,0.486419 0.07159,1.206419 -0.0044,1.6 -0.07596,0.39358 -0.136136,-0.0044 -0.133734,-0.8844 z M 16.077385,77.880197 c 0.01535,-0.372784 0.09118,-0.448608 0.193333,-0.193334 0.09244,0.230998 0.08107,0.506998 -0.02526,0.613334 -0.106333,0.106333 -0.181965,-0.08267 -0.16807,-0.42 z m 0.116777,-10.373335 c 0,-5.368 0.04379,-7.564001 0.09731,-4.88 0.05352,2.684 0.05352,7.076 0,9.76 -0.05352,2.684 -0.09731,0.488 -0.09731,-4.88 z m 17.549485,7.52 c 0.0024,-0.88 0.06455,-1.202019 0.138102,-0.7156 0.07355,0.48642 0.07159,1.20642 -0.0044,1.6 -0.07596,0.393581 -0.136136,-0.0044 -0.133734,-0.8844 z m 39.698178,-3.52 c 0.0013,-1.408 0.05742,-1.944195 0.12502,-1.191542 0.0676,0.752653 0.06665,1.904653 -0.0022,2.56 -0.06876,0.655347 -0.124067,0.03954 -0.122905,-1.368458 z m 0.01658,-8 c 6.4e-4,-2.464001 0.05073,-3.4297 0.111625,-2.146001 0.0609,1.2837 0.06049,3.2997 -9.6e-4,4.480001 -0.06136,1.180301 -0.111181,0.13 -0.110681,-2.334 z m -40.169701,-1.52 c -0.0696,-2.860001 -0.04066,-6.424001 0.0643,-7.920001 0.120808,-1.721846 0.210708,0.186384 0.244981,5.2 0.02978,4.356001 8.32e-4,7.920001 -0.0643,7.920001 -0.06514,0 -0.175385,-2.34 -0.244981,-5.2 z m 40.708689,-1.706666 c 0.01536,-0.372784 0.09118,-0.448608 0.193332,-0.193335 0.09244,0.230999 0.08107,0.506999 -0.02525,0.613335 -0.106336,0.106333 -0.181965,-0.08267 -0.168071,-0.42 z M 71.33586,58.960538 c 0.398052,-0.07654 0.974052,-0.07364 1.28,0.0065 0.305949,0.08009 -0.01974,0.14272 -0.723731,0.139168 -0.704,-0.0036 -0.95432,-0.06909 -0.556269,-0.145625 z m -2.723731,-0.314262 c 0.308,-0.08049 0.812,-0.08049 1.12,0 0.308,0.08049 0.056,0.146345 -0.56,0.146345 -0.616,0 -0.868,-0.06586 -0.56,-0.146345 z m 77.999841,-0.458919 c 0.43991,-0.175417 1.09484,-0.562288 1.45541,-0.859718 0.36057,-0.297427 0.25037,-0.144778 -0.24488,0.339222 -0.49526,0.484 -1.15019,0.870874 -1.45542,0.859716 -0.38204,-0.01395 -0.30574,-0.119658 0.24489,-0.33922 z m -3.71024,-1.000496 -0.6096,-0.72 0.72,0.609597 c 0.396,0.335277 0.72,0.659277 0.72,0.72 0,0.25608 -0.25753,0.06702 -0.8304,-0.609597 z m -86.750443,-5.2 c 0.0019,-1.056 0.06154,-1.449421 0.132755,-0.874269 0.07122,0.575152 0.06975,1.439152 -0.0033,1.92 -0.07302,0.480848 -0.131287,0.01027 -0.129491,-1.045731 z m 86.531953,-3.376128 c 0.39111,-0.411575 0.77301,-0.684317 0.84866,-0.606093 0.0756,0.07822 -0.24435,0.414963 -0.71111,0.748317 l -0.84866,0.606096 z M 33.802037,48.226861 c -0.0825,-0.22 -0.18598,-7.66777 -0.229957,-16.550603 l -0.07996,-16.150602 -0.8,-0.404681 c -0.554647,-0.28057 -0.634045,-0.406129 -0.258886,-0.409399 0.297613,-0.0026 0.626225,0.132994 0.730248,0.301307 0.104024,0.168313 0.376078,0.234287 0.604565,0.146608 0.336724,-0.129213 0.430205,3.026042 0.493409,16.653977 0.04289,9.247367 -0.0092,16.813393 -0.115723,16.813393 -0.106535,0 -0.261199,-0.18 -0.343699,-0.4 z M 16.885084,15.080192 c -0.09065,-0.146667 0.03852,-0.266667 0.287038,-0.266667 0.248516,0 0.377683,0.12 0.287038,0.266667 -0.09065,0.146666 -0.219812,0.266666 -0.287038,0.266666 -0.06723,0 -0.196394,-0.12 -0.287038,-0.266666 z"
         id="path203" />
      <path
         style="fill:#020101;stroke-width:0.32"
         d="m 84.844708,137.72956 c -0.864345,-2.01643 -2.346662,-7.21447 -4.231981,-14.84027 -0.410316,-1.65966 -0.884307,-3.06374 -1.053315,-3.12017 -0.193408,-0.0646 -0.267555,3.45514 -0.200077,9.49758 l 0.10721,9.60017 h -1.70721 l -1.707209,1e-5 0.06676,-11.60001 0.06676,-11.6 2.16655,-0.0963 c 3.526631,-0.15674 3.334618,-0.34175 4.824321,4.6484 1.944192,6.51259 2.261818,7.73551 2.731795,10.51798 0.456672,2.70369 1.113251,3.36561 1.557226,1.56992 0.130544,-0.528 0.613808,-2.544 1.073923,-4.48 0.460112,-1.936 1.321491,-5.104 1.914173,-7.04 0.592682,-1.936 1.122803,-3.88 1.178051,-4.32 0.09803,-0.78069 0.171904,-0.80223 3.060452,-0.89201 l 2.96,-0.092 v 11.69201 c 0,9.12444 -0.08784,11.69852 -0.4,11.72168 -0.549747,0.0408 -3.28,-0.074 -3.28,-0.13795 0,-0.0284 0.072,-4.26386 0.16,-9.41204 0.11055,-6.46743 0.05541,-9.36022 -0.178416,-9.36 -0.489652,3.2e-4 -1.371098,2.16664 -1.77104,4.35238 -0.303469,1.65849 -1.877041,7.46451 -3.399348,12.54259 -0.532976,1.77788 -1.100749,2.30535 -2.481533,2.30535 -0.683245,0 -0.944345,-0.26115 -1.457082,-1.45731 z m 21.715872,-8.14253 0.10845,-9.60016 h -2.90845 -2.90845 v -2.2458 -2.24579 l 7.6,0.0858 7.6,0.0858 0.0946,2.16 0.0946,2.16 h -3.05462 -3.05462 v 9.6 9.6 l -1.84,1.6e-4 -1.84,1.5e-4 z m 13.09155,9.37064 -0.88,-0.13331 v -11.65875 -11.65874 l 4.72,0.0144 c 2.96131,0.009 5.04081,0.1581 5.58099,0.4 1.22423,0.54823 2.72241,2.58287 3.33663,4.53139 0.52274,1.65832 0.5206,1.67984 -0.36128,3.64495 -0.8185,1.82386 -2.90241,4.20923 -3.67726,4.20923 -0.61865,0 -0.3072,0.66998 0.73807,1.58774 0.58143,0.51051 1.46998,1.69411 1.97455,2.63022 0.50457,0.93612 1.46886,2.61675 2.14285,3.73474 1.68499,2.79497 1.64847,2.9273 -0.80802,2.9273 h -2.03347 l -1.63889,-3.28 c -2.58301,-5.1695 -3.28285,-6.31968 -3.84815,-6.32437 -0.28931,-0.003 -0.85002,-0.0912 -1.24602,-0.19733 l -0.72,-0.19295 v 4.99732 4.99733 l -1.2,-0.0479 c -0.66,-0.0264 -1.596,-0.10794 -2.08,-0.18125 z m 6.1822,-12.42229 c 1.33499,-0.69034 2.8578,-2.89811 2.8578,-4.14321 0,-1.44875 -1.67652,-3.25429 -3.52325,-3.79438 -0.79379,-0.23215 -1.62179,-0.36258 -1.84,-0.28984 -0.28801,0.096 -0.39675,1.25051 -0.39675,4.21225 0,2.244 0.096,4.176 0.21333,4.29333 0.36995,0.36995 1.70206,0.23215 2.68887,-0.27815 z m -85.782207,12.20879 c 0,-0.0675 0.36,-0.19151 0.8,-0.27562 0.44,-0.0841 0.8,-0.0289 0.8,0.12269 0,0.15159 -0.36,0.27563 -0.8,0.27563 -0.44,0 -0.8,-0.0552 -0.8,-0.1227 z M 25.165435,101.1291 c -1.834896,-0.22038 -3.673313,-1.0507 -3.673313,-1.659039 0,-0.360163 0.08729,-0.355834 1.176758,0.05838 1.24525,0.473449 4.741145,0.618469 16.257166,0.674399 15.544958,0.0755 26.737807,-0.0981 26.543964,-0.411762 -0.09661,-0.15632 0.425235,-0.284218 1.15966,-0.284218 1.665261,0 3.434615,-0.965552 4.429201,-2.417053 0.415664,-0.606621 0.88119,-1.102947 1.034502,-1.102947 0.153315,0 0.278752,-0.288 0.278752,-0.64 0,-0.352 0.128391,-0.64 0.285309,-0.64 0.156922,0 0.37993,-0.376992 0.495575,-0.83776 0.115644,-0.460768 0.294486,-0.753536 0.397427,-0.650596 0.389453,0.38945 -1.656845,3.891306 -3.067575,5.249578 -2.350381,2.262988 -2.70129,2.366878 -8.805661,2.606978 -7.556446,0.29722 -34.159345,0.33659 -36.511765,0.054 z m 77.720385,-0.72459 c 0.10866,-0.405707 0.19954,-4.949646 0.20194,-10.097647 l 0.004,-9.36 h 9.28 9.28 v 3.768394 c 0,4.034595 -0.41026,8.319098 -1.01442,10.593866 -0.20483,0.771242 -0.88838,2.022922 -1.519,2.781507 -0.63062,0.758586 -1.38168,1.711572 -1.66903,2.11774 -0.5151,0.72813 -0.62239,0.73986 -7.64193,0.83614 l -7.11949,0.0976 z M 19.955649,98.410326 c -1.277673,-1.455187 -2.525981,-3.615162 -2.787613,-4.823462 -0.134319,-0.620327 0.09156,-0.337264 0.638385,0.8 0.46544,0.968 1.428759,2.452371 2.14071,3.298601 1.485018,1.765105 1.492658,2.415205 0.0085,0.724861 z m -3.213001,-6.583463 c 0,-0.44 0.07263,-0.62 0.161404,-0.4 0.08877,0.22 0.08877,0.58 0,0.800001 -0.08877,0.22 -0.161404,0.04 -0.161404,-0.400001 z m -0.274634,-2.56 c 0,-0.968 0.05999,-1.364 0.133309,-0.88 0.07332,0.484 0.07332,1.276 0,1.76 -0.07332,0.484 -0.133309,0.088 -0.133309,-0.88 z m -0.119848,-5.76 c -0.06537,-1.496 -0.100876,-3.584 -0.0789,-4.64 0.02198,-1.056 0.06649,-8.184001 0.09891,-15.840001 0.04258,-10.053678 0.150813,-13.653358 0.389686,-12.960001 0.410954,1.192841 0.407847,27.981282 -0.0038,32.800002 l -0.287037,3.36 -0.11886,-2.72 z m 57.484129,-7.120001 c -0.132925,-3.916 -0.217459,-9.375002 -0.18785,-12.131114 0.05351,-4.981639 0.04946,-5.012528 -0.689244,-5.252221 -1.155325,-0.37487 -15.361761,-0.166326 -15.842392,0.23256 -0.305798,0.253792 -0.367565,1.167206 -0.24247,3.585658 0.09232,1.784813 0.05017,6.557117 -0.09366,10.605117 -0.218791,6.157533 -0.305101,2.596394 -0.528295,-21.796856 -0.146726,-16.036269 -0.160505,-29.500271 -0.03062,-29.920001 0.437053,-1.412347 3.606929,-4.683441 5.365572,-5.536903 3.774211,-1.831609 3.729069,-1.82876 27.181346,-1.715146 l 21.527448,0.104289 2.24,0.74892 c 2.01978,0.675291 2.52954,1.038292 5.1851,3.692275 1.6198,1.618845 3.12548,3.366369 3.34596,3.883387 0.2909,0.682152 0.43375,4.385629 0.52071,13.500033 l 0.11984,12.560001 h -9.3058 -9.30581 l -0.0219,-0.88 c -0.012,-0.484 -0.003,-4.051383 0.0196,-7.927518 0.0247,-4.197082 -0.0927,-7.4004 -0.29022,-7.92 L 102.46797,31.34686 H 88.73923 c -11.221367,0 -13.795066,0.07992 -14.091895,0.437575 -0.263008,0.316906 -0.380902,7.508985 -0.427504,26.080001 -0.03539,14.103335 -0.08269,25.642427 -0.105101,25.642427 -0.02243,0 -0.14951,-3.204 -0.282435,-7.120001 z m -34.740172,4.865774 c -2.890096,-0.11656 -0.727584,-0.196 6.533335,-0.24 5.969332,-0.03618 10.793332,-0.0065 10.720001,0.06588 -0.232176,0.229255 -12.75308,0.355613 -17.253336,0.174116 z m -5.062637,-5.345774 c -0.432659,-4.638883 -0.460549,-28.791621 -0.03021,-26.160001 0.282482,1.72743 0.81247,30.240002 0.562096,30.240002 -0.08324,0 -0.322595,-1.836 -0.531888,-4.080001 z m 45.38264,-11.28 v -9.280001 h 28.960004 28.96 v 9.280001 9.28 h -28.96 -28.960004 z M 34.022649,18.546859 c 0,-0.44 0.07263,-0.62 0.161404,-0.4 0.08877,0.22 0.08877,0.58 0,0.8 -0.08877,0.22 -0.161404,0.04 -0.161404,-0.4 z m -0.02526,-1.786667 c 0.01535,-0.372782 0.09118,-0.448608 0.193334,-0.193333 0.09244,0.231 0.08107,0.507 -0.02526,0.613333 -0.106334,0.106333 -0.181966,-0.08267 -0.168071,-0.42 z M 16.245653,15.478849 c -0.550272,-1.433986 -0.681895,-1.412265 8.526469,-1.40709 8.473643,0.0048 10.360542,0.197861 9.202676,0.941774 -0.30439,0.195567 -0.588434,0.195567 -0.784,0 -0.179385,-0.179384 -3.662885,-0.306675 -8.392633,-0.306675 -6.796183,0 -8.058558,0.0714 -7.914185,0.447632 0.09447,0.246198 0.03304,0.533371 -0.136512,0.638162 -0.169556,0.104792 -0.395373,-0.03642 -0.501815,-0.313803 z"
         id="path201" />
    </g>
  </g>
</svg>
