M48
; DRILL file {KiCad (6.0.9)} date Mon Jan 23 17:19:02 2023
; FORMAT={-:-/ absolute / inch / decimal}
; #@! TF.CreationDate,2023-01-23T17:19:02-06:00
; #@! TF.GenerationSoftware,Kicad,Pcbnew,(6.0.9)
; #@! TF.FileFunction,Plated,1,4,PTH
FMAT,2
INCH
; #@! TA.AperFunction,Plated,PTH,ViaDrill
T1C0.0118
; #@! TA.AperFunction,Plated,PTH,ComponentDrill
T2C0.0118
; #@! TA.AperFunction,Plated,PTH,ViaDrill
T3C0.0157
; #@! TA.AperFunction,Plated,PTH,ComponentDrill
T4C0.0236
; #@! TA.AperFunction,Plated,PTH,ComponentDrill
T5C0.0295
; #@! TA.AperFunction,Plated,PTH,ComponentDrill
T6C0.0300
; #@! TA.AperFunction,Plated,PTH,ComponentDrill
T7C0.0394
%
G90
G05
T1
X2.7421Y-2.2661
X2.7443Y-2.2362
X2.7446Y-2.306
X2.7657Y-2.2884
T2
X3.4272Y-3.0559
X3.4272Y-3.115
X3.4469Y-3.0854
X3.4665Y-3.0559
X3.4665Y-3.115
T3
X2.5866Y-1.8504
X2.5866Y-1.9617
X2.5906Y-2.5394
X2.6423Y-1.9061
X2.6423Y-2.0174
X2.6693Y-2.5394
X2.698Y-1.9617
X2.7126Y-2.0276
X2.748Y-2.5394
X2.7835Y-2.9016
X2.7835Y-2.9803
X2.7913Y-2.0276
X2.8493Y-3.1091
X2.8622Y-1.7441
X2.8622Y-2.9016
X2.8622Y-2.9803
X2.8701Y-2.0276
X2.8858Y-2.126
X2.8937Y-2.4173
X2.905Y-3.0534
X2.905Y-3.1648
X2.9168Y-1.4061
X2.9409Y-2.9016
X2.9409Y-2.9803
X2.9606Y-3.1091
X2.9606Y-3.2205
X2.9724Y-1.3504
X2.9724Y-1.4617
X2.9882Y-2.3819
X2.9961Y-2.1102
X3.0079Y-2.3346
X3.0157Y-1.8346
X3.0163Y-3.1648
X3.0197Y-2.1654
X3.0281Y-1.4061
X3.0281Y-1.5174
X3.0394Y-2.0315
X3.0658Y-3.2784
X3.0838Y-1.4617
X3.095Y-2.0872
X3.1213Y-2.4677
X3.1215Y-3.3341
X3.1417Y-3.0039
X3.1446Y-3.1957
X3.1496Y-2.3701
X3.1507Y-2.1429
X3.1772Y-3.3898
X3.1811Y-1.4213
X3.1969Y-2.7205
X3.2002Y-3.2514
X3.2008Y-1.748
X3.2047Y-2.2165
X3.2047Y-2.7992
X3.2165Y-1.8858
X3.248Y-2.2165
X3.252Y-2.4882
X3.2559Y-3.3071
X3.2874Y-2.2165
X3.2992Y-2.3307
X3.311Y-1.5354
X3.3228Y-3.1969
X3.3307Y-2.2165
X3.3425Y-1.9488
X3.3425Y-2.3307
X3.3661Y-2.7244
X3.374Y-2.2165
X3.3937Y-2.3307
X3.4173Y-2.2165
X3.4449Y-2.3307
X3.4449Y-2.4055
X3.4449Y-2.5394
X3.4449Y-2.9724
X3.4449Y-3.1969
X3.4488Y-2.689
X3.4646Y-2.2165
X3.5Y-2.3307
X3.5079Y-2.2165
X3.5197Y-1.5157
X3.5236Y-1.3622
X3.5354Y-1.9134
X3.5472Y-2.3307
X3.5512Y-2.2126
X3.563Y-1.6535
X3.563Y-1.7323
X3.563Y-1.811
X3.5754Y-1.4601
X3.5906Y-2.1929
X3.6024Y-2.4567
X3.6063Y-2.126
X3.6102Y-3.315
X3.6142Y-1.9134
X3.631Y-1.4044
X3.6732Y-1.8228
X3.689Y-3.315
X3.6929Y-1.9134
X3.6969Y-2.2205
X3.6969Y-2.2717
X3.7205Y-1.4173
X3.7205Y-1.689
X3.752Y-1.8228
X3.752Y-2.2205
X3.752Y-2.2717
X3.7677Y-3.315
X3.7756Y-2.5787
X3.7953Y-3.2205
X3.7992Y-2.9213
X3.7992Y-3.063
X3.8189Y-1.3976
X3.8228Y-1.7323
X3.8307Y-1.8228
X3.8307Y-1.9134
X3.8583Y-2.1614
X3.8622Y-1.6457
X3.8661Y-2.6614
X3.874Y-1.563
X3.878Y-3.1929
X3.878Y-3.2717
X3.878Y-3.3504
X3.8819Y-1.4764
X3.8976Y-1.3976
X3.9016Y-1.7323
X3.9094Y-1.9134
X3.9409Y-1.6457
X3.9528Y-1.563
X3.9567Y-3.1929
X3.9567Y-3.2717
X3.9567Y-3.3504
X3.9606Y-1.4764
X3.9764Y-1.3976
X3.9803Y-1.7323
X3.9882Y-1.9134
X4.0197Y-1.6457
X4.0315Y-1.563
X4.0315Y-1.9606
X4.0315Y-2.622
X4.0394Y-1.4764
X4.0433Y-1.7874
X4.0433Y-3.1929
X4.0433Y-3.2717
X4.0433Y-3.3504
X4.0433Y-3.4291
X4.0512Y-1.3661
X4.0827Y-2.4803
X4.122Y-3.1929
X4.122Y-3.2717
X4.122Y-3.3504
X4.122Y-3.4291
X4.1384Y-2.4246
X4.185Y-1.8157
X4.194Y-2.369
X4.2008Y-3.1929
X4.2008Y-3.2717
X4.2008Y-3.3504
X4.2008Y-3.4291
X4.2205Y-2.5433
X4.2402Y-2.7835
X4.2762Y-2.4876
X4.2835Y-3.1929
X4.2835Y-3.2717
X4.2835Y-3.3504
X4.311Y-1.7323
X4.311Y-1.811
X4.311Y-1.8898
X4.311Y-1.9685
X4.311Y-2.563
X4.311Y-2.6417
X4.311Y-2.7205
X4.311Y-2.7992
X4.311Y-2.8819
X4.311Y-2.9606
X4.311Y-3.0394
X4.311Y-3.1181
X4.3318Y-2.432
X4.3346Y-2.2126
X4.3465Y-1.4921
X4.3465Y-1.5709
X4.3465Y-1.6496
X4.3622Y-3.1929
X4.3622Y-3.2717
X4.3622Y-3.3504
X4.3898Y-1.7323
X4.3898Y-1.811
X4.3898Y-1.8898
X4.3898Y-1.9685
X4.3898Y-2.563
X4.3898Y-2.6417
X4.3898Y-2.7205
X4.3898Y-2.7992
X4.3898Y-2.9606
X4.3898Y-3.0394
X4.3898Y-3.1181
X4.3898Y-2.8819
X4.4409Y-3.1929
X4.4409Y-3.2717
X4.4685Y-1.7323
X4.4685Y-1.811
X4.4685Y-1.8898
X4.4685Y-1.9685
X4.4685Y-2.563
X4.4685Y-2.6417
X4.4685Y-2.7205
X4.4685Y-2.7992
X4.4685Y-2.8819
X4.4685Y-3.0394
X4.4685Y-3.1181
X4.4685Y-2.9606
X4.5512Y-2.8819
X4.5512Y-3.0394
X4.5512Y-1.7323
X4.5512Y-1.811
X4.5512Y-1.8898
X4.5512Y-1.9685
X4.5512Y-2.563
X4.5512Y-2.6417
X4.5512Y-2.7205
X4.5512Y-2.7992
X4.5512Y-2.9606
X4.5512Y-3.1181
X4.6299Y-2.9606
X4.6299Y-1.6102
X4.6299Y-1.7323
X4.6299Y-1.811
X4.6299Y-1.8898
X4.6299Y-1.9685
X4.6299Y-2.563
X4.6299Y-2.6417
X4.6299Y-2.7205
X4.6299Y-2.7992
X4.6299Y-2.8819
X4.6299Y-3.0394
X4.6299Y-3.1181
X4.7087Y-2.8819
X4.7087Y-1.7323
X4.7087Y-1.811
X4.7087Y-1.8898
X4.7087Y-1.9685
X4.7087Y-2.563
X4.7087Y-2.6417
X4.7087Y-2.7205
X4.7087Y-2.7992
X4.7087Y-2.9606
X4.7087Y-3.0394
X4.7745Y-1.6209
X4.8189Y-2.8583
X4.8301Y-1.6766
X4.8746Y-2.8026
X4.8858Y-1.7323
X4.8937Y-2.6693
X4.9213Y-2.1102
X4.9213Y-2.189
X4.9213Y-2.2677
X4.9303Y-2.7469
X4.9331Y-1.8504
X4.9331Y-1.9291
X4.9331Y-2.0079
X4.9494Y-2.6136
X4.9764Y-2.3543
X4.9764Y-2.4331
X4.9764Y-2.5118
X5.0051Y-2.5579
X5.0079Y-2.0866
X5.0079Y-2.1654
X5.0079Y-2.2441
T5
X2.7697Y-2.685
X2.7697Y-2.7638
T6
X3.6913Y-3.4724
X3.7913Y-3.4724
X3.8913Y-3.4724
T7
X4.0714Y-2.3341
X4.1421Y-2.2634
X4.2128Y-2.1927
X4.2835Y-2.122
T4
G00X2.628Y-2.1055
M15
G01X2.6043Y-2.1055
M16
G05
G00X2.628Y-2.4457
M15
G01X2.6043Y-2.4457
M16
G05
G00X2.8024Y-2.1055
M15
G01X2.7591Y-2.1055
M16
G05
G00X2.8024Y-2.4457
M15
G01X2.7591Y-2.4457
M16
G05
T0
M30
