%TF.GenerationSoftware,KiCad,Pcbnew,(7.0.0)*%
%TF.CreationDate,2023-04-01T17:00:43-05:00*%
%TF.ProjectId,pulse_ox_wearable,70756c73-655f-46f7-985f-776561726162,1*%
%TF.SameCoordinates,Original*%
%TF.FileFunction,Copper,L4,Bot*%
%TF.FilePolarity,Positive*%
%FSLAX46Y46*%
G04 Gerber Fmt 4.6, Leading zero omitted, Abs format (unit mm)*
G04 Created by KiCad (PCBNEW (7.0.0)) date 2023-04-01 17:00:43*
%MOMM*%
%LPD*%
G01*
G04 APERTURE LIST*
G04 Aperture macros list*
%AMRoundRect*
0 Rectangle with rounded corners*
0 $1 Rounding radius*
0 $2 $3 $4 $5 $6 $7 $8 $9 X,Y pos of 4 corners*
0 Add a 4 corners polygon primitive as box body*
4,1,4,$2,$3,$4,$5,$6,$7,$8,$9,$2,$3,0*
0 Add four circle primitives for the rounded corners*
1,1,$1+$1,$2,$3*
1,1,$1+$1,$4,$5*
1,1,$1+$1,$6,$7*
1,1,$1+$1,$8,$9*
0 Add four rect primitives between the rounded corners*
20,1,$1+$1,$2,$3,$4,$5,0*
20,1,$1+$1,$4,$5,$6,$7,0*
20,1,$1+$1,$6,$7,$8,$9,0*
20,1,$1+$1,$8,$9,$2,$3,0*%
%AMHorizOval*
0 Thick line with rounded ends*
0 $1 width*
0 $2 $3 position (X,Y) of the first rounded end (center of the circle)*
0 $4 $5 position (X,Y) of the second rounded end (center of the circle)*
0 Add line between two ends*
20,1,$1,$2,$3,$4,$5,0*
0 Add two circle primitives to create the rounded ends*
1,1,$1,$2,$3*
1,1,$1,$4,$5*%
%AMRotRect*
0 Rectangle, with rotation*
0 The origin of the aperture is its center*
0 $1 length*
0 $2 width*
0 $3 Rotation angle, in degrees counterclockwise*
0 Add horizontal line*
21,1,$1,$2,0,0,$3*%
G04 Aperture macros list end*
%TA.AperFunction,ComponentPad*%
%ADD10C,0.600000*%
%TD*%
%TA.AperFunction,SMDPad,CuDef*%
%ADD11R,2.300000X2.800000*%
%TD*%
%TA.AperFunction,ComponentPad*%
%ADD12O,2.100000X1.000000*%
%TD*%
%TA.AperFunction,ComponentPad*%
%ADD13O,1.600000X1.000000*%
%TD*%
%TA.AperFunction,ComponentPad*%
%ADD14O,1.524000X1.524000*%
%TD*%
%TA.AperFunction,ComponentPad*%
%ADD15RotRect,1.700000X1.700000X315.000000*%
%TD*%
%TA.AperFunction,ComponentPad*%
%ADD16HorizOval,1.700000X0.000000X0.000000X0.000000X0.000000X0*%
%TD*%
%TA.AperFunction,ComponentPad*%
%ADD17RoundRect,0.250000X0.625000X-0.350000X0.625000X0.350000X-0.625000X0.350000X-0.625000X-0.350000X0*%
%TD*%
%TA.AperFunction,ComponentPad*%
%ADD18O,1.750000X1.200000*%
%TD*%
%TA.AperFunction,ViaPad*%
%ADD19C,0.800000*%
%TD*%
%TA.AperFunction,ViaPad*%
%ADD20C,0.500000*%
%TD*%
%TA.AperFunction,Conductor*%
%ADD21C,0.500000*%
%TD*%
%TA.AperFunction,Conductor*%
%ADD22C,0.250000*%
%TD*%
G04 APERTURE END LIST*
D10*
%TO.P,U4,11,GND*%
%TO.N,GND*%
X88050000Y-79120000D03*
X88050000Y-77620000D03*
X87550000Y-78370000D03*
D11*
X87549999Y-78369999D03*
D10*
X87050000Y-79120000D03*
X87050000Y-77620000D03*
%TD*%
D12*
%TO.P,J2,S1,SHIELD*%
%TO.N,unconnected-(J2-SHIELD-PadS1)*%
X70629999Y-53479999D03*
D13*
X66449999Y-53479999D03*
D12*
X70629999Y-62119999D03*
D13*
X66449999Y-62119999D03*
%TD*%
D14*
%TO.P,SW1,1,A*%
%TO.N,/VDD_IN*%
X93759999Y-88199999D03*
%TO.P,SW1,2,B*%
%TO.N,VDD*%
X96299999Y-88199999D03*
%TO.P,SW1,3,C*%
%TO.N,unconnected-(SW1-C-Pad3)*%
X98839999Y-88199999D03*
%TD*%
D15*
%TO.P,J4,1,Pin_1*%
%TO.N,+3V3*%
X117280255Y-72319743D03*
D16*
%TO.P,J4,2,Pin_2*%
%TO.N,GND*%
X115484204Y-74115794D03*
%TO.P,J4,3,Pin_3*%
%TO.N,MOSI*%
X113688153Y-75911845D03*
%TO.P,J4,4,Pin_4*%
%TO.N,SCLK*%
X111892101Y-77707897D03*
%TO.P,J4,5,Pin_5*%
%TO.N,~{CS}*%
X110096050Y-79503948D03*
%TO.P,J4,6,Pin_6*%
%TO.N,DC*%
X108299999Y-81299999D03*
%TO.P,J4,7,Pin_7*%
%TO.N,RST*%
X106503948Y-83096050D03*
%TO.P,J4,8,Pin_8*%
%TO.N,+3V3*%
X104707896Y-84892102D03*
%TD*%
D17*
%TO.P,J1,1,Pin_1*%
%TO.N,GND*%
X70350000Y-70200000D03*
D18*
%TO.P,J1,2,Pin_2*%
%TO.N,VDD*%
X70349999Y-68199999D03*
%TD*%
D19*
%TO.N,VBUS*%
X82600000Y-63200000D03*
X76100000Y-53600000D03*
X91500000Y-62400000D03*
%TO.N,GND*%
X98400000Y-76000000D03*
X127200000Y-57000000D03*
X79285786Y-84685786D03*
X98500000Y-85100001D03*
X69800000Y-64500000D03*
X98499999Y-81100000D03*
X79871573Y-81171573D03*
X76914214Y-38542641D03*
X95300000Y-57700000D03*
X70700000Y-75700000D03*
X91200000Y-55700000D03*
X88500000Y-34373359D03*
X118400000Y-49100000D03*
X126500000Y-62800000D03*
X103700000Y-63000000D03*
X125000000Y-53600000D03*
X125500000Y-60000000D03*
X94500000Y-42900000D03*
X124100000Y-44000000D03*
X121485786Y-72285786D03*
X114000000Y-82900000D03*
X75200000Y-81800000D03*
X99100000Y-44000000D03*
X84900000Y-59200000D03*
X87500000Y-59200000D03*
X83500000Y-61900000D03*
X87500000Y-75800000D03*
X117500000Y-64800000D03*
X82012500Y-47587500D03*
X127200000Y-60100000D03*
X87600000Y-81000000D03*
X99000000Y-35500000D03*
X115500000Y-64800000D03*
X83500000Y-56300000D03*
X116400000Y-49100000D03*
X100600000Y-37500000D03*
X100400000Y-39700000D03*
X72371573Y-78971573D03*
X68900000Y-51500000D03*
X89100000Y-56300000D03*
X115499999Y-68900000D03*
X111900000Y-37300000D03*
X111900000Y-68100000D03*
X65700000Y-47000000D03*
X81400000Y-56300000D03*
X76914214Y-35714214D03*
X73000000Y-54400000D03*
X119500000Y-66800000D03*
X109500000Y-50500000D03*
X107159500Y-69100000D03*
X80028427Y-54428427D03*
X120071573Y-76528427D03*
X100500000Y-81100000D03*
X94800000Y-64200000D03*
X67114214Y-48414214D03*
X74700000Y-75700000D03*
X91500000Y-49300000D03*
X79500000Y-79200000D03*
X90100000Y-59200000D03*
X115500000Y-66800000D03*
X81285786Y-82585786D03*
X102600000Y-37500000D03*
X117500000Y-80700000D03*
X82500000Y-56300000D03*
X121271573Y-41171573D03*
X91700000Y-84200000D03*
X98200000Y-67900000D03*
X74000000Y-53000000D03*
X107900000Y-37300000D03*
X127200000Y-53000000D03*
X98400000Y-78000001D03*
X119500001Y-68900000D03*
X93700000Y-84200000D03*
X108985786Y-41714214D03*
X117500000Y-66800000D03*
X109000000Y-76000000D03*
X76700000Y-55000000D03*
X108300000Y-63200000D03*
X125300000Y-47000000D03*
X108300000Y-67900000D03*
X126500000Y-66800000D03*
X65800000Y-64500000D03*
X124500000Y-66800001D03*
X109500000Y-48499999D03*
X93500001Y-49300000D03*
X118614214Y-78685786D03*
X84600000Y-56300000D03*
X88000000Y-64200000D03*
X75500000Y-37128427D03*
X110400000Y-40300000D03*
X105114214Y-61585786D03*
X109500000Y-52500001D03*
X100500000Y-85100000D03*
X90200000Y-56200000D03*
X67800000Y-64500000D03*
X76400000Y-59500000D03*
X96500000Y-74200000D03*
X122900000Y-73700000D03*
X120400000Y-39100000D03*
X114400000Y-49100000D03*
X88000000Y-56300000D03*
X116400000Y-51100000D03*
X93900000Y-56400000D03*
X101000000Y-35500000D03*
X79280000Y-62680000D03*
X126500000Y-64800001D03*
X95700000Y-84200000D03*
X75200000Y-78971573D03*
X107200000Y-72200000D03*
X94500000Y-36998315D03*
X80700000Y-86100000D03*
X72700000Y-73700000D03*
X124500000Y-64800000D03*
X70900000Y-51500000D03*
X95300000Y-56400000D03*
X93900000Y-57700000D03*
X74085786Y-35714214D03*
X118657359Y-75114214D03*
X77871573Y-83271573D03*
X124499999Y-62800000D03*
X125000000Y-55599999D03*
X111900000Y-66099999D03*
X74700000Y-73700000D03*
X88000000Y-60700000D03*
X75500000Y-34300000D03*
X81200000Y-69100000D03*
X98785786Y-45185786D03*
X82700000Y-84000000D03*
X114399999Y-51100000D03*
X98400000Y-73999999D03*
X100500000Y-83100001D03*
X109000000Y-71999998D03*
X98500000Y-83100000D03*
X118400001Y-51100000D03*
X78328427Y-37128427D03*
X96000000Y-77890000D03*
X125300000Y-48999999D03*
X109000000Y-73999999D03*
X70700000Y-73700000D03*
X125300000Y-51000000D03*
X109900000Y-37300000D03*
X80400000Y-76600000D03*
X65700000Y-49828427D03*
X73785785Y-77557359D03*
X127200000Y-54999999D03*
X72900000Y-51500000D03*
X85100000Y-69700000D03*
X77200000Y-51600000D03*
X102400000Y-39700000D03*
X81300000Y-37900000D03*
X80700000Y-59000000D03*
X108300000Y-65600000D03*
X125000000Y-57600000D03*
X116300000Y-81900000D03*
X103199999Y-87600000D03*
X103457611Y-34373359D03*
X100200000Y-46600000D03*
X117500000Y-68900000D03*
X101100001Y-44000000D03*
X73785786Y-80385785D03*
X78614214Y-53014214D03*
X120071573Y-73700000D03*
X84545778Y-38445778D03*
X86200000Y-59200000D03*
X67114214Y-51242641D03*
X122685786Y-42585786D03*
X87979141Y-67923264D03*
X119500000Y-64800000D03*
X76614214Y-80385786D03*
X85700000Y-56300000D03*
X83800000Y-59200000D03*
X101614214Y-48014214D03*
X106528427Y-60171573D03*
X97099999Y-44000000D03*
X88900000Y-59200000D03*
X111900000Y-70100001D03*
X73100000Y-61000000D03*
X86800000Y-56300000D03*
X111814214Y-38885786D03*
X68528427Y-49828427D03*
X72700000Y-75700000D03*
X109400000Y-55500000D03*
X121485786Y-75114214D03*
X89499999Y-49300000D03*
X96100000Y-81789999D03*
%TO.N,+3V3*%
X102400000Y-66600000D03*
X80800000Y-36100000D03*
X81300000Y-44400000D03*
%TO.N,VDD*%
X81400000Y-71100000D03*
D20*
%TO.N,D-*%
X69704323Y-56800000D03*
X70250000Y-58124500D03*
%TO.N,D+*%
X69712921Y-58572663D03*
X69650000Y-57558850D03*
D19*
%TO.N,SDA*%
X104909045Y-57190955D03*
X102700000Y-45400000D03*
%TO.N,SCL*%
X106300000Y-46119152D03*
X109200000Y-56800000D03*
%TO.N,~{RTS}*%
X98000000Y-54900000D03*
X76600000Y-46600000D03*
%TO.N,~{DTR}*%
X72700000Y-44300000D03*
X91600000Y-54000000D03*
%TO.N,IO0*%
X84900000Y-49500000D03*
X102400000Y-49800000D03*
%TO.N,MOSI*%
X89200000Y-40700000D03*
%TO.N,SCLK*%
X97300000Y-49500000D03*
%TO.N,~{CS}*%
X99100000Y-42800000D03*
%TO.N,DC*%
X100800000Y-50500000D03*
%TO.N,RST*%
X98600000Y-50500000D03*
%TO.N,/VDD_IN*%
X84400000Y-81200000D03*
%TD*%
D21*
%TO.N,VBUS*%
X76301041Y-53600000D02*
X76100000Y-53600000D01*
X83745451Y-60843369D02*
X83951041Y-61048959D01*
X81361827Y-58459745D02*
X83745451Y-60843369D01*
X76644239Y-53742157D02*
X81361827Y-58459745D01*
X82600000Y-61448959D02*
X82600000Y-63200000D01*
X91500000Y-62400000D02*
X87212742Y-62400000D01*
X83951008Y-61048992D02*
G75*
G03*
X87212742Y-62400000I3261692J3261792D01*
G01*
X82600025Y-61448959D02*
G75*
G03*
X81361827Y-58459745I-4227425J-41D01*
G01*
X76644228Y-53742168D02*
G75*
G03*
X76301041Y-53600000I-343228J-343232D01*
G01*
%TO.N,+3V3*%
X100501041Y-63358274D02*
X100501041Y-58045888D01*
X104707897Y-84892103D02*
X103500000Y-83684206D01*
X81300000Y-44400000D02*
X80525000Y-45175000D01*
X80300000Y-46650000D02*
X80300000Y-45206066D01*
X104707897Y-84892103D02*
X105815794Y-86000000D01*
X92548118Y-50500000D02*
X84226345Y-50500000D01*
X81396015Y-49296015D02*
X81450000Y-49350000D01*
X103500000Y-67700000D02*
X102100000Y-66300000D01*
X80300000Y-45206066D02*
X80300000Y-44993933D01*
X107700000Y-86000000D02*
X117280256Y-76419744D01*
X102100000Y-66300000D02*
X102400000Y-66600000D01*
X101450520Y-65650520D02*
X102100000Y-66300000D01*
X96395874Y-52093792D02*
X99195064Y-54892982D01*
X103500000Y-83684206D02*
X103500000Y-67700000D01*
X105815794Y-86000000D02*
X107700000Y-86000000D01*
X117280256Y-76419744D02*
X117280256Y-72319744D01*
X80300000Y-36953553D02*
X80300000Y-44993933D01*
X80800000Y-36100000D02*
X80550000Y-36350000D01*
X80299991Y-46650000D02*
G75*
G03*
X81396015Y-49296015I3742009J0D01*
G01*
X80375000Y-45175000D02*
G75*
G03*
X80525000Y-45175000I75000J75000D01*
G01*
X80549984Y-36349984D02*
G75*
G03*
X80300000Y-36953553I603516J-603516D01*
G01*
X80299986Y-44993933D02*
G75*
G03*
X80375000Y-45175000I256114J33D01*
G01*
X80374942Y-45175058D02*
G75*
G03*
X80300000Y-45206066I-31042J-31042D01*
G01*
X96395875Y-52093791D02*
G75*
G03*
X92548118Y-50500000I-3847775J-3847809D01*
G01*
X100501061Y-58045888D02*
G75*
G03*
X99195064Y-54892982I-4458861J-12D01*
G01*
X81449966Y-49350034D02*
G75*
G03*
X84226345Y-50500000I2776334J2776434D01*
G01*
X100501069Y-63358274D02*
G75*
G03*
X101450520Y-65650520I3241731J-26D01*
G01*
%TO.N,VDD*%
X75950000Y-70850000D02*
X74342982Y-69242982D01*
X78200000Y-74160660D02*
X78200000Y-78846036D01*
X77760660Y-71600000D02*
X80546446Y-71600000D01*
X71825000Y-68200000D02*
X70350000Y-68200000D01*
X83906207Y-86806207D02*
X79793792Y-82693792D01*
X77450000Y-72350000D02*
X75950000Y-70850000D01*
X96300000Y-88675735D02*
X96300000Y-88200000D01*
X81400000Y-71100000D02*
X81150000Y-71350000D01*
X87753963Y-88400000D02*
X90180761Y-88400000D01*
X93319238Y-89700000D02*
X95275735Y-89700000D01*
X83906215Y-86806199D02*
G75*
G03*
X87753963Y-88400000I3847785J3847799D01*
G01*
X80546446Y-71600019D02*
G75*
G03*
X81150000Y-71350000I-46J853619D01*
G01*
X91750011Y-89049989D02*
G75*
G03*
X90180761Y-88400000I-1569211J-1569211D01*
G01*
X78199990Y-78846036D02*
G75*
G03*
X79793793Y-82693791I5441610J36D01*
G01*
X78200016Y-74160660D02*
G75*
G03*
X77450000Y-72350000I-2560716J-40D01*
G01*
X74342989Y-69242975D02*
G75*
G03*
X71825000Y-68200000I-2517989J-2518025D01*
G01*
X95275735Y-89700014D02*
G75*
G03*
X95999999Y-89399999I-35J1024314D01*
G01*
X77760660Y-71599904D02*
G75*
G03*
X77450000Y-72350000I40J-439396D01*
G01*
X75950012Y-70849988D02*
G75*
G03*
X77760660Y-71600000I1810688J1810688D01*
G01*
X95999989Y-89399989D02*
G75*
G03*
X96300000Y-88675735I-724289J724289D01*
G01*
X91749989Y-89050011D02*
G75*
G03*
X93319238Y-89700000I1569211J1569211D01*
G01*
D22*
%TO.N,D-*%
X70250000Y-58124500D02*
X70250000Y-57731528D01*
X69704323Y-56800000D02*
X69977161Y-57072838D01*
X70249988Y-57731528D02*
G75*
G03*
X69977161Y-57072838I-931488J28D01*
G01*
%TO.N,D+*%
X69712921Y-58572663D02*
X69681460Y-58541202D01*
X69650000Y-58465250D02*
X69650000Y-57558850D01*
X69650032Y-58465250D02*
G75*
G03*
X69681460Y-58541202I107368J-50D01*
G01*
D21*
%TO.N,SDA*%
X104909045Y-54427572D02*
X104909045Y-57190955D01*
X102700000Y-45400000D02*
X103650000Y-46350000D01*
X104600000Y-53681472D02*
X104600000Y-48643502D01*
X104600028Y-53681472D02*
G75*
G03*
X104754522Y-54054522I527572J-28D01*
G01*
X104599998Y-48643502D02*
G75*
G03*
X103649999Y-46350001I-3243498J2D01*
G01*
X104909072Y-54427572D02*
G75*
G03*
X104754522Y-54054522I-527572J-28D01*
G01*
%TO.N,SCL*%
X106705096Y-54305096D02*
X106705096Y-46810694D01*
X109200000Y-56800000D02*
X106705096Y-54305096D01*
X106502548Y-46321700D02*
X106300000Y-46119152D01*
X106705113Y-46810694D02*
G75*
G03*
X106502548Y-46321700I-691513J-6D01*
G01*
D22*
%TO.N,~{RTS}*%
X95225951Y-53275000D02*
X85528963Y-53275000D01*
X76600000Y-46600000D02*
X81681207Y-51681207D01*
X97187500Y-54087500D02*
X98000000Y-54900000D01*
X97187514Y-54087486D02*
G75*
G03*
X95225951Y-53275000I-1961514J-1961514D01*
G01*
X81681215Y-51681199D02*
G75*
G03*
X85528963Y-53275000I3847785J3847799D01*
G01*
%TO.N,~{DTR}*%
X80806207Y-52406207D02*
X72700000Y-44300000D01*
X91600000Y-54000000D02*
X84653963Y-54000000D01*
X80806215Y-52406199D02*
G75*
G03*
X84653963Y-54000000I3847785J3847799D01*
G01*
%TO.N,IO0*%
X102250000Y-49650000D02*
X102400000Y-49800000D01*
X100487867Y-48100000D02*
X101887867Y-49500000D01*
X84900000Y-49500000D02*
X86300000Y-48100000D01*
X86300000Y-48100000D02*
X100487867Y-48100000D01*
X102250009Y-49649991D02*
G75*
G03*
X101887867Y-49500000I-362109J-362109D01*
G01*
D21*
%TO.N,MOSI*%
X112000000Y-48800000D02*
X103900000Y-40700000D01*
X113688154Y-64356497D02*
X112000000Y-62668343D01*
X103900000Y-40700000D02*
X89200000Y-40700000D01*
X112000000Y-62668343D02*
X112000000Y-48800000D01*
X113688154Y-75911846D02*
X113688154Y-64356497D01*
%TO.N,SCLK*%
X101300000Y-62300000D02*
X104690000Y-65690000D01*
X97700000Y-51700000D02*
X101300000Y-55300000D01*
X97300000Y-49500000D02*
X97300000Y-50274803D01*
X104690000Y-65690000D02*
X104690000Y-83163007D01*
X97700000Y-50674803D02*
X97700000Y-51700000D01*
X104690000Y-83163007D02*
X105845658Y-84318665D01*
X106992534Y-84318665D02*
X111892102Y-79419097D01*
X101300000Y-55300000D02*
X101300000Y-62300000D01*
X97300000Y-50274803D02*
X97700000Y-50674803D01*
X111892102Y-79419097D02*
X111892102Y-77707898D01*
X105845658Y-84318665D02*
X106992534Y-84318665D01*
%TO.N,~{CS}*%
X101174803Y-42800000D02*
X99100000Y-42800000D01*
X110096051Y-59860662D02*
X105600000Y-55364611D01*
X105600000Y-55364611D02*
X105600000Y-47225197D01*
X110096051Y-79503949D02*
X110096051Y-59860662D01*
X105600000Y-47225197D02*
X101174803Y-42800000D01*
%TO.N,DC*%
X103200000Y-52900000D02*
X100800000Y-50500000D01*
X103200000Y-58100000D02*
X103200000Y-52900000D01*
X106400000Y-61300000D02*
X103200000Y-58100000D01*
X108300000Y-81300000D02*
X106400000Y-79400000D01*
X106400000Y-79400000D02*
X106400000Y-61300000D01*
%TO.N,RST*%
X106503949Y-83096051D02*
X105600000Y-82192102D01*
X105600000Y-63146375D02*
X102500000Y-60046375D01*
X102500000Y-54400000D02*
X98600000Y-50500000D01*
X102500000Y-60046375D02*
X102500000Y-54400000D01*
X105600000Y-82192102D02*
X105600000Y-63146375D01*
%TO.N,/VDD_IN*%
X84100000Y-81712132D02*
X84100000Y-83997918D01*
X84250000Y-81350000D02*
X84400000Y-81200000D01*
X87002081Y-86900000D02*
X91540761Y-86900000D01*
X93110000Y-87550000D02*
X93760000Y-88200000D01*
X84950005Y-86049995D02*
G75*
G03*
X87002081Y-86900000I2052095J2052095D01*
G01*
X93110011Y-87549989D02*
G75*
G03*
X91540761Y-86900000I-1569211J-1569211D01*
G01*
X84099993Y-83997918D02*
G75*
G03*
X84950000Y-86050000I2902107J18D01*
G01*
X84249991Y-81349991D02*
G75*
G03*
X84100000Y-81712132I362109J-362109D01*
G01*
%TD*%
%TA.AperFunction,Conductor*%
%TO.N,GND*%
G36*
X98218533Y-50867300D02*
G01*
X98261971Y-50890220D01*
X98262256Y-50889778D01*
X98267412Y-50893092D01*
X98267415Y-50893093D01*
X98385750Y-50969143D01*
X98526601Y-51010500D01*
X98548486Y-51010500D01*
X98596704Y-51020091D01*
X98637581Y-51047405D01*
X102102595Y-54512419D01*
X102129909Y-54553296D01*
X102139500Y-54601514D01*
X102139500Y-59995918D01*
X102137019Y-60019837D01*
X102136968Y-60021057D01*
X102134827Y-60031271D01*
X102136118Y-60041628D01*
X102136118Y-60041629D01*
X102138614Y-60061653D01*
X102139150Y-60066828D01*
X102139500Y-60071054D01*
X102139500Y-60076248D01*
X102140354Y-60081367D01*
X102140355Y-60081377D01*
X102142763Y-60095807D01*
X102143512Y-60100952D01*
X102148417Y-60140301D01*
X102148418Y-60140304D01*
X102149709Y-60150661D01*
X102153061Y-60157518D01*
X102154318Y-60165048D01*
X102159284Y-60174225D01*
X102159285Y-60174227D01*
X102178164Y-60209112D01*
X102180547Y-60213741D01*
X102202551Y-60258750D01*
X102207947Y-60264146D01*
X102211581Y-60270861D01*
X102219259Y-60277929D01*
X102219260Y-60277930D01*
X102248463Y-60304813D01*
X102252221Y-60308420D01*
X105202595Y-63258794D01*
X105229909Y-63299671D01*
X105239500Y-63347889D01*
X105239500Y-65448579D01*
X105221741Y-65513076D01*
X105173470Y-65559393D01*
X105108293Y-65574471D01*
X105044585Y-65554062D01*
X105000303Y-65503918D01*
X104992035Y-65487006D01*
X104987449Y-65477625D01*
X104982052Y-65472228D01*
X104978419Y-65465514D01*
X104941548Y-65431572D01*
X104937790Y-65427966D01*
X101697405Y-62187581D01*
X101670091Y-62146704D01*
X101660500Y-62098486D01*
X101660500Y-55350457D01*
X101662980Y-55326537D01*
X101663030Y-55325323D01*
X101665173Y-55315104D01*
X101661385Y-55284722D01*
X101660849Y-55279545D01*
X101660500Y-55275336D01*
X101660500Y-55270127D01*
X101657238Y-55250579D01*
X101656487Y-55245424D01*
X101655036Y-55233785D01*
X101650291Y-55195715D01*
X101646938Y-55188857D01*
X101645682Y-55181327D01*
X101621822Y-55137238D01*
X101619456Y-55132641D01*
X101602036Y-55097006D01*
X101602034Y-55097003D01*
X101597450Y-55087626D01*
X101592052Y-55082228D01*
X101588419Y-55075514D01*
X101573658Y-55061926D01*
X101551548Y-55041572D01*
X101547790Y-55037966D01*
X98097405Y-51587581D01*
X98070091Y-51546704D01*
X98060500Y-51498486D01*
X98060500Y-50989160D01*
X98073428Y-50933566D01*
X98109559Y-50889380D01*
X98161479Y-50865669D01*
X98218533Y-50867300D01*
G37*
%TD.AperFunction*%
%TA.AperFunction,Conductor*%
G36*
X103025436Y-58454681D02*
G01*
X103075595Y-58485419D01*
X106002595Y-61412419D01*
X106029909Y-61453296D01*
X106039500Y-61501514D01*
X106039500Y-62771861D01*
X106025767Y-62829064D01*
X105987561Y-62873797D01*
X105933211Y-62896310D01*
X105874564Y-62891694D01*
X105824405Y-62860956D01*
X102897405Y-59933956D01*
X102870091Y-59893079D01*
X102860500Y-59844861D01*
X102860500Y-58574514D01*
X102874233Y-58517311D01*
X102912439Y-58472578D01*
X102966789Y-58450065D01*
X103025436Y-58454681D01*
G37*
%TD.AperFunction*%
%TA.AperFunction,Conductor*%
G36*
X118177463Y-33808767D02*
G01*
X118217216Y-33833850D01*
X118494531Y-34092451D01*
X118497694Y-34095506D01*
X119304493Y-34902305D01*
X119307549Y-34905468D01*
X120085784Y-35740022D01*
X120088726Y-35743291D01*
X120204961Y-35877004D01*
X120837320Y-36604451D01*
X120840107Y-36607772D01*
X121558201Y-37494544D01*
X121560909Y-37498009D01*
X122247620Y-38409307D01*
X122250205Y-38412865D01*
X122904688Y-39347561D01*
X122907132Y-39351184D01*
X123347535Y-40029346D01*
X123528600Y-40308161D01*
X123530930Y-40311890D01*
X124118617Y-41289967D01*
X124120816Y-41293776D01*
X124674002Y-42291748D01*
X124676067Y-42295631D01*
X125194096Y-43312321D01*
X125196024Y-43316274D01*
X125678251Y-44350412D01*
X125680040Y-44354430D01*
X125882149Y-44830568D01*
X126123858Y-45400000D01*
X126125891Y-45404788D01*
X126127534Y-45408857D01*
X126216224Y-45639901D01*
X126536446Y-46474109D01*
X126537950Y-46478241D01*
X126649560Y-46802380D01*
X126833856Y-47337616D01*
X126909441Y-47557129D01*
X126910797Y-47561305D01*
X126972700Y-47763779D01*
X127244403Y-48652481D01*
X127245616Y-48656709D01*
X127540945Y-49758890D01*
X127542009Y-49763157D01*
X127798692Y-50874976D01*
X127799606Y-50879278D01*
X128017325Y-51999341D01*
X128018089Y-52003672D01*
X128196590Y-53130683D01*
X128197202Y-53135038D01*
X128289827Y-53889406D01*
X128334596Y-54254024D01*
X128336260Y-54267572D01*
X128336720Y-54271946D01*
X128436171Y-55408683D01*
X128436477Y-55413071D01*
X128496193Y-56552516D01*
X128496347Y-56556911D01*
X128516261Y-57697800D01*
X128516261Y-57702198D01*
X128496347Y-58843088D01*
X128496193Y-58847483D01*
X128436477Y-59986928D01*
X128436171Y-59991316D01*
X128336720Y-61128053D01*
X128336260Y-61132427D01*
X128197202Y-62264961D01*
X128196590Y-62269316D01*
X128018089Y-63396327D01*
X128017325Y-63400658D01*
X127799606Y-64520721D01*
X127798692Y-64525023D01*
X127542009Y-65636842D01*
X127540945Y-65641109D01*
X127245616Y-66743290D01*
X127244403Y-66747518D01*
X126910800Y-67838687D01*
X126909441Y-67842870D01*
X126537950Y-68921758D01*
X126536446Y-68925890D01*
X126127538Y-69991133D01*
X126125891Y-69995211D01*
X125680040Y-71045569D01*
X125678251Y-71049587D01*
X125196024Y-72083725D01*
X125194096Y-72087678D01*
X124676067Y-73104368D01*
X124674002Y-73108251D01*
X124120816Y-74106223D01*
X124118617Y-74110032D01*
X123530930Y-75088109D01*
X123528600Y-75091838D01*
X122907148Y-76048791D01*
X122904688Y-76052438D01*
X122250205Y-76987134D01*
X122247620Y-76990692D01*
X121560909Y-77901990D01*
X121558201Y-77905455D01*
X120840127Y-78792203D01*
X120837300Y-78795572D01*
X120088726Y-79656708D01*
X120085784Y-79659977D01*
X119307549Y-80494531D01*
X119304493Y-80497694D01*
X118497694Y-81304493D01*
X118494531Y-81307549D01*
X117659977Y-82085784D01*
X117656708Y-82088726D01*
X116795572Y-82837300D01*
X116792203Y-82840127D01*
X115905455Y-83558201D01*
X115901990Y-83560909D01*
X114990692Y-84247620D01*
X114987134Y-84250205D01*
X114052438Y-84904688D01*
X114048791Y-84907148D01*
X113091838Y-85528600D01*
X113088109Y-85530930D01*
X112110032Y-86118617D01*
X112106223Y-86120816D01*
X111108251Y-86674002D01*
X111104368Y-86676067D01*
X110087678Y-87194096D01*
X110083725Y-87196024D01*
X109049587Y-87678251D01*
X109045569Y-87680040D01*
X107995211Y-88125891D01*
X107991133Y-88127538D01*
X106925890Y-88536446D01*
X106921758Y-88537950D01*
X105842870Y-88909441D01*
X105838687Y-88910800D01*
X104747518Y-89244403D01*
X104743290Y-89245616D01*
X103641109Y-89540945D01*
X103636842Y-89542009D01*
X102525023Y-89798692D01*
X102520721Y-89799606D01*
X101400658Y-90017325D01*
X101396327Y-90018089D01*
X100269316Y-90196590D01*
X100264961Y-90197202D01*
X99132427Y-90336260D01*
X99128053Y-90336720D01*
X97991316Y-90436171D01*
X97986928Y-90436477D01*
X96847483Y-90496193D01*
X96843088Y-90496347D01*
X95702199Y-90516261D01*
X95697801Y-90516261D01*
X94556911Y-90496347D01*
X94552516Y-90496193D01*
X93413071Y-90436477D01*
X93408683Y-90436171D01*
X92271946Y-90336720D01*
X92267572Y-90336260D01*
X91135038Y-90197202D01*
X91130683Y-90196590D01*
X90003672Y-90018089D01*
X89999341Y-90017325D01*
X88879278Y-89799606D01*
X88874976Y-89798692D01*
X87763157Y-89542009D01*
X87758890Y-89540945D01*
X86656709Y-89245616D01*
X86652481Y-89244403D01*
X85561312Y-88910800D01*
X85557129Y-88909441D01*
X85375964Y-88847061D01*
X84813532Y-88653400D01*
X84478241Y-88537950D01*
X84474109Y-88536446D01*
X83429923Y-88135621D01*
X83408857Y-88127534D01*
X83404788Y-88125891D01*
X83276745Y-88071540D01*
X82867341Y-87897758D01*
X82354430Y-87680040D01*
X82350412Y-87678251D01*
X81316274Y-87196024D01*
X81312321Y-87194096D01*
X80295631Y-86676067D01*
X80291748Y-86674002D01*
X79293776Y-86120816D01*
X79289967Y-86118617D01*
X78311890Y-85530930D01*
X78308161Y-85528600D01*
X77909337Y-85269601D01*
X77351184Y-84907132D01*
X77347561Y-84904688D01*
X77338389Y-84898266D01*
X77020212Y-84675475D01*
X76412865Y-84250205D01*
X76409307Y-84247620D01*
X75498009Y-83560909D01*
X75494544Y-83558201D01*
X74607772Y-82840107D01*
X74604451Y-82837320D01*
X73813145Y-82149449D01*
X73743291Y-82088726D01*
X73740022Y-82085784D01*
X72905468Y-81307549D01*
X72902305Y-81304493D01*
X72095506Y-80497694D01*
X72092450Y-80494531D01*
X71314215Y-79659977D01*
X71311273Y-79656708D01*
X71263098Y-79601289D01*
X70562674Y-78795542D01*
X70559897Y-78792233D01*
X69841790Y-77905445D01*
X69839090Y-77901990D01*
X69830074Y-77890026D01*
X69175601Y-77021509D01*
X69152379Y-76990692D01*
X69149794Y-76987134D01*
X68776850Y-76454516D01*
X68495295Y-76052415D01*
X68492876Y-76048828D01*
X67871396Y-75091833D01*
X67869069Y-75088109D01*
X67281382Y-74110032D01*
X67279183Y-74106223D01*
X67116717Y-73813127D01*
X66725988Y-73108234D01*
X66723932Y-73104368D01*
X66626454Y-72913057D01*
X66205899Y-72087670D01*
X66203975Y-72083725D01*
X66146514Y-71960500D01*
X65721741Y-71049573D01*
X65719959Y-71045569D01*
X65714128Y-71031831D01*
X65274092Y-69995173D01*
X65272476Y-69991172D01*
X64863544Y-68925867D01*
X64862049Y-68921758D01*
X64858173Y-68910500D01*
X64643234Y-68286270D01*
X69364500Y-68286270D01*
X69366321Y-68293661D01*
X69366322Y-68293663D01*
X69403967Y-68446395D01*
X69403968Y-68446399D01*
X69405792Y-68453797D01*
X69485976Y-68606574D01*
X69600391Y-68735723D01*
X69742389Y-68833737D01*
X69903717Y-68894921D01*
X70032025Y-68910500D01*
X70664165Y-68910500D01*
X70667975Y-68910500D01*
X70796283Y-68894921D01*
X70957611Y-68833737D01*
X71099609Y-68735723D01*
X71214024Y-68606574D01*
X71215295Y-68607700D01*
X71252291Y-68574930D01*
X71310841Y-68560500D01*
X71767902Y-68560500D01*
X71821912Y-68560500D01*
X71828094Y-68560652D01*
X72132521Y-68575607D01*
X72144820Y-68576818D01*
X72443264Y-68621088D01*
X72455375Y-68623497D01*
X72748055Y-68696808D01*
X72759856Y-68700388D01*
X73043944Y-68802035D01*
X73055358Y-68806762D01*
X73328101Y-68935759D01*
X73338999Y-68941585D01*
X73597779Y-69096690D01*
X73608054Y-69103555D01*
X73850389Y-69283280D01*
X73859948Y-69291125D01*
X74085644Y-69495682D01*
X74090123Y-69499947D01*
X75652548Y-71062371D01*
X75652551Y-71062375D01*
X77192576Y-72602400D01*
X77197432Y-72607535D01*
X77244141Y-72659803D01*
X77354783Y-72783611D01*
X77363592Y-72794658D01*
X77498174Y-72984332D01*
X77505692Y-72996296D01*
X77618199Y-73199860D01*
X77624329Y-73212590D01*
X77713331Y-73427455D01*
X77717998Y-73440791D01*
X77782386Y-73664277D01*
X77785531Y-73678053D01*
X77824492Y-73907350D01*
X77826074Y-73921390D01*
X77839302Y-74156856D01*
X77839500Y-74163923D01*
X77839500Y-78788938D01*
X77839499Y-78788941D01*
X77839499Y-78788947D01*
X77839499Y-78788948D01*
X77839499Y-78846001D01*
X77839495Y-78846038D01*
X77839490Y-78846038D01*
X77839490Y-78846077D01*
X77839490Y-78846078D01*
X77839490Y-79071532D01*
X77839490Y-79071557D01*
X77839491Y-79074001D01*
X77839683Y-79076450D01*
X77839684Y-79076456D01*
X77871321Y-79478419D01*
X77875265Y-79528522D01*
X77875647Y-79530935D01*
X77875649Y-79530950D01*
X77946203Y-79976393D01*
X77946590Y-79978834D01*
X77947165Y-79981229D01*
X77947168Y-79981244D01*
X78052446Y-80419750D01*
X78052450Y-80419766D01*
X78053026Y-80422163D01*
X78053787Y-80424506D01*
X78053791Y-80424519D01*
X78164029Y-80763793D01*
X78193916Y-80855774D01*
X78194852Y-80858035D01*
X78194857Y-80858047D01*
X78358689Y-81253570D01*
X78368392Y-81276994D01*
X78369516Y-81279201D01*
X78369517Y-81279202D01*
X78383208Y-81306071D01*
X78575379Y-81683227D01*
X78576663Y-81685323D01*
X78576664Y-81685324D01*
X78812307Y-82069858D01*
X78812314Y-82069868D01*
X78813600Y-82071967D01*
X78873113Y-82153880D01*
X79078879Y-82437094D01*
X79081586Y-82440819D01*
X79083185Y-82442692D01*
X79083192Y-82442700D01*
X79187907Y-82565306D01*
X79377686Y-82787509D01*
X79379450Y-82789273D01*
X79496342Y-82906165D01*
X79496343Y-82906167D01*
X79538879Y-82948703D01*
X79579251Y-82989076D01*
X79579258Y-82989082D01*
X83610912Y-87020736D01*
X83610921Y-87020746D01*
X83651295Y-87061119D01*
X83672418Y-87082242D01*
X83672452Y-87082266D01*
X83672515Y-87082324D01*
X83812497Y-87222306D01*
X83814385Y-87223919D01*
X83814391Y-87223924D01*
X84157304Y-87516798D01*
X84159186Y-87518405D01*
X84528037Y-87786391D01*
X84530141Y-87787680D01*
X84530145Y-87787683D01*
X84557986Y-87804744D01*
X84916777Y-88024612D01*
X85323009Y-88231598D01*
X85744229Y-88406074D01*
X86177839Y-88546964D01*
X86621167Y-88653400D01*
X87071478Y-88724725D01*
X87525998Y-88760499D01*
X87693801Y-88760499D01*
X87693805Y-88760499D01*
X87693806Y-88760500D01*
X87693811Y-88760500D01*
X87753961Y-88760500D01*
X87811058Y-88760501D01*
X87811061Y-88760500D01*
X90123667Y-88760500D01*
X90123670Y-88760501D01*
X90176649Y-88760500D01*
X90184887Y-88760770D01*
X90415151Y-88775858D01*
X90431468Y-88778006D01*
X90653743Y-88822216D01*
X90669660Y-88826480D01*
X90884267Y-88899327D01*
X90899489Y-88905633D01*
X91102738Y-89005862D01*
X91116997Y-89014094D01*
X91305434Y-89140002D01*
X91318504Y-89150031D01*
X91481625Y-89293085D01*
X91491643Y-89301870D01*
X91497660Y-89307506D01*
X91597519Y-89407366D01*
X91600275Y-89409564D01*
X91600282Y-89409570D01*
X91642378Y-89443140D01*
X91824057Y-89588023D01*
X92069398Y-89742179D01*
X92330456Y-89867896D01*
X92603949Y-89963592D01*
X92886438Y-90028065D01*
X93174368Y-90060503D01*
X93319244Y-90060500D01*
X95218642Y-90060500D01*
X95218644Y-90060500D01*
X95218650Y-90060502D01*
X95275694Y-90060500D01*
X95275747Y-90060506D01*
X95275747Y-90060514D01*
X95366509Y-90060511D01*
X95546478Y-90036812D01*
X95721815Y-89989827D01*
X95889519Y-89920358D01*
X96046722Y-89829594D01*
X96190733Y-89719089D01*
X96214533Y-89695288D01*
X96214538Y-89695286D01*
X96254912Y-89654912D01*
X96295286Y-89614538D01*
X96295301Y-89614506D01*
X96295337Y-89614464D01*
X96319079Y-89590724D01*
X96429583Y-89446714D01*
X96520345Y-89289513D01*
X96589813Y-89121811D01*
X96603399Y-89071107D01*
X96629294Y-89021893D01*
X96673851Y-88988620D01*
X96738653Y-88959769D01*
X96887032Y-88851965D01*
X97009755Y-88715668D01*
X97101459Y-88556832D01*
X97158135Y-88382402D01*
X97177306Y-88200000D01*
X97962694Y-88200000D01*
X97981865Y-88382402D01*
X97983902Y-88388674D01*
X97983904Y-88388679D01*
X98036498Y-88550547D01*
X98036501Y-88550554D01*
X98038541Y-88556832D01*
X98130245Y-88715668D01*
X98252968Y-88851965D01*
X98401347Y-88959769D01*
X98568898Y-89034368D01*
X98748297Y-89072500D01*
X98925100Y-89072500D01*
X98931703Y-89072500D01*
X99111102Y-89034368D01*
X99278653Y-88959769D01*
X99427032Y-88851965D01*
X99549755Y-88715668D01*
X99641459Y-88556832D01*
X99698135Y-88382402D01*
X99717306Y-88200000D01*
X99698135Y-88017598D01*
X99659634Y-87899104D01*
X99643501Y-87849452D01*
X99643500Y-87849450D01*
X99641459Y-87843168D01*
X99549755Y-87684332D01*
X99427032Y-87548035D01*
X99278653Y-87440231D01*
X99111102Y-87365632D01*
X99104649Y-87364260D01*
X99104645Y-87364259D01*
X98938160Y-87328872D01*
X98938155Y-87328871D01*
X98931703Y-87327500D01*
X98748297Y-87327500D01*
X98741845Y-87328871D01*
X98741839Y-87328872D01*
X98575354Y-87364259D01*
X98575347Y-87364261D01*
X98568898Y-87365632D01*
X98562868Y-87368316D01*
X98562867Y-87368317D01*
X98407377Y-87437546D01*
X98407375Y-87437547D01*
X98401347Y-87440231D01*
X98396006Y-87444111D01*
X98396005Y-87444112D01*
X98258307Y-87544155D01*
X98258301Y-87544160D01*
X98252968Y-87548035D01*
X98248554Y-87552936D01*
X98248553Y-87552938D01*
X98157167Y-87654432D01*
X98130245Y-87684332D01*
X98126944Y-87690048D01*
X98126942Y-87690052D01*
X98041845Y-87837445D01*
X98038541Y-87843168D01*
X98036502Y-87849442D01*
X98036498Y-87849452D01*
X97983904Y-88011320D01*
X97983902Y-88011327D01*
X97981865Y-88017598D01*
X97981175Y-88024159D01*
X97981175Y-88024161D01*
X97970483Y-88125891D01*
X97962694Y-88200000D01*
X97177306Y-88200000D01*
X97158135Y-88017598D01*
X97119634Y-87899104D01*
X97103501Y-87849452D01*
X97103500Y-87849450D01*
X97101459Y-87843168D01*
X97009755Y-87684332D01*
X96887032Y-87548035D01*
X96738653Y-87440231D01*
X96571102Y-87365632D01*
X96564649Y-87364260D01*
X96564645Y-87364259D01*
X96398160Y-87328872D01*
X96398155Y-87328871D01*
X96391703Y-87327500D01*
X96208297Y-87327500D01*
X96201845Y-87328871D01*
X96201839Y-87328872D01*
X96035354Y-87364259D01*
X96035347Y-87364261D01*
X96028898Y-87365632D01*
X96022868Y-87368316D01*
X96022867Y-87368317D01*
X95867377Y-87437546D01*
X95867375Y-87437547D01*
X95861347Y-87440231D01*
X95856006Y-87444111D01*
X95856005Y-87444112D01*
X95718307Y-87544155D01*
X95718301Y-87544160D01*
X95712968Y-87548035D01*
X95708554Y-87552936D01*
X95708553Y-87552938D01*
X95617167Y-87654432D01*
X95590245Y-87684332D01*
X95586944Y-87690048D01*
X95586942Y-87690052D01*
X95501845Y-87837445D01*
X95498541Y-87843168D01*
X95496502Y-87849442D01*
X95496498Y-87849452D01*
X95443904Y-88011320D01*
X95443902Y-88011327D01*
X95441865Y-88017598D01*
X95441175Y-88024159D01*
X95441175Y-88024161D01*
X95430483Y-88125891D01*
X95422694Y-88200000D01*
X95441865Y-88382402D01*
X95443902Y-88388674D01*
X95443904Y-88388679D01*
X95496498Y-88550547D01*
X95496501Y-88550554D01*
X95498541Y-88556832D01*
X95590245Y-88715668D01*
X95712968Y-88851965D01*
X95718307Y-88855844D01*
X95775655Y-88897510D01*
X95817685Y-88950467D01*
X95826290Y-89017527D01*
X95798993Y-89079380D01*
X95752903Y-89135540D01*
X95735438Y-89153005D01*
X95654092Y-89219765D01*
X95633555Y-89233487D01*
X95540686Y-89283128D01*
X95517867Y-89292581D01*
X95417092Y-89323153D01*
X95392869Y-89327972D01*
X95291664Y-89337943D01*
X95282025Y-89338893D01*
X95269672Y-89339500D01*
X93376333Y-89339500D01*
X93376331Y-89339499D01*
X93376329Y-89339499D01*
X93376321Y-89339499D01*
X93323349Y-89339499D01*
X93315111Y-89339229D01*
X93084859Y-89324142D01*
X93068517Y-89321991D01*
X92846257Y-89277783D01*
X92830337Y-89273518D01*
X92615735Y-89200673D01*
X92600508Y-89194365D01*
X92397265Y-89094139D01*
X92382997Y-89085902D01*
X92194567Y-88959998D01*
X92181495Y-88949968D01*
X92008355Y-88798128D01*
X92002337Y-88792491D01*
X91904978Y-88695131D01*
X91904977Y-88695130D01*
X91902481Y-88692634D01*
X91899725Y-88690436D01*
X91899717Y-88690429D01*
X91739365Y-88562554D01*
X91675943Y-88511977D01*
X91430602Y-88357821D01*
X91427414Y-88356285D01*
X91427409Y-88356283D01*
X91172720Y-88233634D01*
X91169543Y-88232104D01*
X91166226Y-88230943D01*
X91166218Y-88230940D01*
X90899378Y-88137571D01*
X90899370Y-88137568D01*
X90896050Y-88136407D01*
X90892610Y-88135621D01*
X90892607Y-88135621D01*
X90617002Y-88072720D01*
X90617000Y-88072719D01*
X90613562Y-88071935D01*
X90610062Y-88071540D01*
X90610058Y-88071540D01*
X90329144Y-88039892D01*
X90329130Y-88039891D01*
X90325631Y-88039497D01*
X90322095Y-88039497D01*
X90180755Y-88039500D01*
X87756445Y-88039500D01*
X87751497Y-88039403D01*
X87360260Y-88024028D01*
X87350398Y-88023252D01*
X86964028Y-87977520D01*
X86954256Y-87975972D01*
X86572670Y-87900068D01*
X86563050Y-87897758D01*
X86188605Y-87792152D01*
X86179196Y-87789095D01*
X85814179Y-87654432D01*
X85805051Y-87650651D01*
X85451722Y-87487763D01*
X85442907Y-87483272D01*
X85103444Y-87293164D01*
X85095008Y-87287994D01*
X84771523Y-87071848D01*
X84763519Y-87066033D01*
X84457982Y-86825168D01*
X84450459Y-86818743D01*
X84358388Y-86733634D01*
X84162738Y-86552777D01*
X84159172Y-86549348D01*
X84120745Y-86510920D01*
X84120742Y-86510918D01*
X81764952Y-84155128D01*
X83739493Y-84155128D01*
X83739494Y-84158201D01*
X83770916Y-84477218D01*
X83771519Y-84480252D01*
X83771520Y-84480255D01*
X83832853Y-84788590D01*
X83832856Y-84788603D01*
X83833456Y-84791618D01*
X83834350Y-84794565D01*
X83834353Y-84794577D01*
X83925613Y-85095417D01*
X83926511Y-85098376D01*
X83927687Y-85101216D01*
X83927691Y-85101226D01*
X84033176Y-85355887D01*
X84049185Y-85394535D01*
X84200297Y-85677244D01*
X84202015Y-85679816D01*
X84202018Y-85679820D01*
X84306980Y-85836906D01*
X84378391Y-85943780D01*
X84415584Y-85989099D01*
X84544216Y-86145838D01*
X84581753Y-86191576D01*
X84654713Y-86264537D01*
X84654714Y-86264538D01*
X84695088Y-86304912D01*
X84735462Y-86345286D01*
X84735475Y-86345292D01*
X84735496Y-86345310D01*
X84808428Y-86418242D01*
X85056224Y-86621603D01*
X85322760Y-86799697D01*
X85605468Y-86950809D01*
X85901626Y-87073483D01*
X85904596Y-87074384D01*
X85904599Y-87074385D01*
X86091491Y-87131078D01*
X86208382Y-87166537D01*
X86522783Y-87229077D01*
X86841799Y-87260499D01*
X86941920Y-87260499D01*
X86941922Y-87260499D01*
X86941924Y-87260500D01*
X86941928Y-87260500D01*
X87002079Y-87260500D01*
X87059176Y-87260501D01*
X87059179Y-87260500D01*
X91483667Y-87260500D01*
X91483670Y-87260501D01*
X91536649Y-87260500D01*
X91544887Y-87260770D01*
X91775151Y-87275858D01*
X91791468Y-87278006D01*
X92013743Y-87322216D01*
X92029660Y-87326480D01*
X92244267Y-87399327D01*
X92259489Y-87405633D01*
X92462738Y-87505862D01*
X92476997Y-87514094D01*
X92665434Y-87640002D01*
X92678504Y-87650031D01*
X92851831Y-87802035D01*
X92857848Y-87807672D01*
X92887954Y-87837778D01*
X92921378Y-87897459D01*
X92918692Y-87965809D01*
X92903904Y-88011319D01*
X92903901Y-88011329D01*
X92901865Y-88017598D01*
X92901175Y-88024159D01*
X92901175Y-88024161D01*
X92890483Y-88125891D01*
X92882694Y-88200000D01*
X92901865Y-88382402D01*
X92903902Y-88388674D01*
X92903904Y-88388679D01*
X92956498Y-88550547D01*
X92956501Y-88550554D01*
X92958541Y-88556832D01*
X93050245Y-88715668D01*
X93172968Y-88851965D01*
X93321347Y-88959769D01*
X93488898Y-89034368D01*
X93668297Y-89072500D01*
X93845100Y-89072500D01*
X93851703Y-89072500D01*
X94031102Y-89034368D01*
X94198653Y-88959769D01*
X94347032Y-88851965D01*
X94469755Y-88715668D01*
X94561459Y-88556832D01*
X94618135Y-88382402D01*
X94637306Y-88200000D01*
X94618135Y-88017598D01*
X94579634Y-87899104D01*
X94563501Y-87849452D01*
X94563500Y-87849450D01*
X94561459Y-87843168D01*
X94469755Y-87684332D01*
X94347032Y-87548035D01*
X94198653Y-87440231D01*
X94031102Y-87365632D01*
X94024649Y-87364260D01*
X94024645Y-87364259D01*
X93858160Y-87328872D01*
X93858155Y-87328871D01*
X93851703Y-87327500D01*
X93668297Y-87327500D01*
X93661847Y-87328870D01*
X93661837Y-87328872D01*
X93511739Y-87360776D01*
X93449757Y-87358340D01*
X93396448Y-87326624D01*
X93364955Y-87295131D01*
X93364917Y-87295082D01*
X93364923Y-87295077D01*
X93262481Y-87192634D01*
X93259725Y-87190436D01*
X93259717Y-87190429D01*
X93123940Y-87082152D01*
X93035943Y-87011977D01*
X92790602Y-86857821D01*
X92787414Y-86856285D01*
X92787409Y-86856283D01*
X92532720Y-86733634D01*
X92529543Y-86732104D01*
X92526226Y-86730943D01*
X92526218Y-86730940D01*
X92259378Y-86637571D01*
X92259370Y-86637568D01*
X92256050Y-86636407D01*
X92252610Y-86635621D01*
X92252607Y-86635621D01*
X91977002Y-86572720D01*
X91977000Y-86572719D01*
X91973562Y-86571935D01*
X91970062Y-86571540D01*
X91970058Y-86571540D01*
X91689144Y-86539892D01*
X91689130Y-86539891D01*
X91685631Y-86539497D01*
X91682095Y-86539497D01*
X91540755Y-86539500D01*
X87005624Y-86539500D01*
X86998558Y-86539302D01*
X86724581Y-86523913D01*
X86710541Y-86522331D01*
X86443499Y-86476958D01*
X86429723Y-86473813D01*
X86169460Y-86398831D01*
X86156123Y-86394165D01*
X85905864Y-86290503D01*
X85893135Y-86284372D01*
X85656077Y-86153355D01*
X85644121Y-86145843D01*
X85423197Y-85989089D01*
X85412163Y-85980289D01*
X85210146Y-85799755D01*
X85200155Y-85789764D01*
X85019709Y-85587845D01*
X85010899Y-85576798D01*
X84854154Y-85355887D01*
X84846637Y-85343923D01*
X84715618Y-85106864D01*
X84709487Y-85094133D01*
X84605830Y-84843885D01*
X84601163Y-84830548D01*
X84526177Y-84570267D01*
X84523033Y-84556492D01*
X84515916Y-84514604D01*
X84477660Y-84289455D01*
X84476079Y-84275418D01*
X84469495Y-84158201D01*
X84460698Y-84001566D01*
X84460500Y-83994500D01*
X84460500Y-81808610D01*
X84471886Y-81756268D01*
X84503988Y-81713385D01*
X84551002Y-81687714D01*
X84614250Y-81669143D01*
X84737744Y-81589778D01*
X84833877Y-81478836D01*
X84894859Y-81345304D01*
X84915750Y-81200000D01*
X84894859Y-81054696D01*
X84833877Y-80921164D01*
X84737744Y-80810222D01*
X84614250Y-80730857D01*
X84605606Y-80728318D01*
X84605604Y-80728318D01*
X84482043Y-80692038D01*
X84482042Y-80692037D01*
X84473399Y-80689500D01*
X84326601Y-80689500D01*
X84317958Y-80692037D01*
X84317956Y-80692038D01*
X84194395Y-80728318D01*
X84194391Y-80728319D01*
X84185750Y-80730857D01*
X84178172Y-80735727D01*
X84178170Y-80735728D01*
X84069836Y-80805350D01*
X84069833Y-80805352D01*
X84062256Y-80810222D01*
X84056358Y-80817028D01*
X84056354Y-80817032D01*
X83972025Y-80914352D01*
X83972022Y-80914355D01*
X83966123Y-80921164D01*
X83962380Y-80929358D01*
X83962379Y-80929361D01*
X83908883Y-81046501D01*
X83908882Y-81046504D01*
X83905141Y-81054696D01*
X83903859Y-81063611D01*
X83903859Y-81063612D01*
X83884250Y-81200000D01*
X83882160Y-81199699D01*
X83867171Y-81252852D01*
X83865777Y-81254772D01*
X83863534Y-81259173D01*
X83863528Y-81259184D01*
X83805665Y-81372755D01*
X83805661Y-81372763D01*
X83803420Y-81377163D01*
X83801894Y-81381857D01*
X83801893Y-81381862D01*
X83762505Y-81503100D01*
X83762502Y-81503110D01*
X83760978Y-81507803D01*
X83760205Y-81512678D01*
X83760204Y-81512687D01*
X83740269Y-81638590D01*
X83739496Y-81643474D01*
X83739496Y-81648416D01*
X83739496Y-81648420D01*
X83739498Y-81674807D01*
X83739500Y-81710500D01*
X83739500Y-83940820D01*
X83739499Y-83940823D01*
X83739499Y-83940829D01*
X83739499Y-83940830D01*
X83739499Y-83997894D01*
X83739496Y-83997920D01*
X83739493Y-83997920D01*
X83739493Y-83997947D01*
X83739493Y-83997948D01*
X83739493Y-84155109D01*
X83739493Y-84155128D01*
X81764952Y-84155128D01*
X80050483Y-82440659D01*
X80047054Y-82437094D01*
X79918008Y-82297492D01*
X79781244Y-82149540D01*
X79774823Y-82142022D01*
X79766058Y-82130904D01*
X79533958Y-81836485D01*
X79528143Y-81828481D01*
X79364095Y-81582967D01*
X79311986Y-81504981D01*
X79306820Y-81496549D01*
X79305512Y-81494213D01*
X79116716Y-81157094D01*
X79112236Y-81148303D01*
X78949336Y-80794948D01*
X78945563Y-80785838D01*
X78810889Y-80420794D01*
X78807841Y-80411410D01*
X78702230Y-80036949D01*
X78699921Y-80027330D01*
X78669281Y-79873295D01*
X78624015Y-79645734D01*
X78622469Y-79635971D01*
X78616785Y-79587946D01*
X78576735Y-79249587D01*
X78575961Y-79239738D01*
X78575090Y-79217582D01*
X78560597Y-78848755D01*
X78560500Y-78843808D01*
X78560500Y-74217755D01*
X78560501Y-74217752D01*
X78560500Y-74160712D01*
X78560507Y-74160654D01*
X78560516Y-74160654D01*
X78560514Y-74017147D01*
X78532378Y-73731515D01*
X78476381Y-73450016D01*
X78393062Y-73175361D01*
X78283224Y-72910195D01*
X78147925Y-72657071D01*
X77988467Y-72418428D01*
X77806387Y-72196563D01*
X77785419Y-72175595D01*
X77754681Y-72125436D01*
X77750065Y-72066789D01*
X77772578Y-72012439D01*
X77817311Y-71974233D01*
X77874514Y-71960500D01*
X80489357Y-71960500D01*
X80489359Y-71960500D01*
X80489368Y-71960503D01*
X80546394Y-71960500D01*
X80546465Y-71960509D01*
X80546465Y-71960519D01*
X80642012Y-71960514D01*
X80830751Y-71930612D01*
X81012490Y-71871555D01*
X81182754Y-71784797D01*
X81337350Y-71672474D01*
X81362418Y-71647405D01*
X81403296Y-71620091D01*
X81451514Y-71610500D01*
X81464390Y-71610500D01*
X81473399Y-71610500D01*
X81614250Y-71569143D01*
X81737744Y-71489778D01*
X81833877Y-71378836D01*
X81894859Y-71245304D01*
X81915750Y-71100000D01*
X81894859Y-70954696D01*
X81833877Y-70821164D01*
X81737744Y-70710222D01*
X81614250Y-70630857D01*
X81605606Y-70628318D01*
X81605604Y-70628318D01*
X81482043Y-70592038D01*
X81482042Y-70592037D01*
X81473399Y-70589500D01*
X81326601Y-70589500D01*
X81317958Y-70592037D01*
X81317956Y-70592038D01*
X81194395Y-70628318D01*
X81194391Y-70628319D01*
X81185750Y-70630857D01*
X81178172Y-70635727D01*
X81178170Y-70635728D01*
X81069836Y-70705350D01*
X81069833Y-70705352D01*
X81062256Y-70710222D01*
X81056358Y-70717028D01*
X81056354Y-70717032D01*
X80972025Y-70814352D01*
X80972022Y-70814355D01*
X80966123Y-70821164D01*
X80962380Y-70829358D01*
X80962379Y-70829361D01*
X80908883Y-70946501D01*
X80908882Y-70946504D01*
X80905141Y-70954696D01*
X80903859Y-70963609D01*
X80903857Y-70963618D01*
X80890562Y-71056087D01*
X80875615Y-71100014D01*
X80845781Y-71135552D01*
X80829962Y-71148535D01*
X80809423Y-71162259D01*
X80746062Y-71196127D01*
X80723246Y-71205579D01*
X80654500Y-71226436D01*
X80630276Y-71231256D01*
X80564597Y-71237728D01*
X80552778Y-71238893D01*
X80540424Y-71239500D01*
X77817751Y-71239500D01*
X77817740Y-71239499D01*
X77817725Y-71239494D01*
X77817676Y-71239494D01*
X77764195Y-71239498D01*
X77757119Y-71239300D01*
X77521391Y-71226058D01*
X77507351Y-71224476D01*
X77278054Y-71185515D01*
X77264284Y-71182371D01*
X77146839Y-71148535D01*
X77040799Y-71117984D01*
X77027463Y-71113317D01*
X76812597Y-71024314D01*
X76799867Y-71018184D01*
X76596311Y-70905681D01*
X76584347Y-70898164D01*
X76394663Y-70763576D01*
X76383616Y-70754766D01*
X76207322Y-70597219D01*
X76202187Y-70592363D01*
X74638271Y-69028447D01*
X74638267Y-69028442D01*
X74597919Y-68988095D01*
X74597895Y-68988064D01*
X74597899Y-68988061D01*
X74476831Y-68866995D01*
X74474729Y-68865231D01*
X74474719Y-68865222D01*
X74216620Y-68648654D01*
X74216618Y-68648652D01*
X74214514Y-68646887D01*
X74177667Y-68621087D01*
X73936269Y-68452060D01*
X73936268Y-68452059D01*
X73934011Y-68450479D01*
X73931624Y-68449101D01*
X73931618Y-68449097D01*
X73639840Y-68280641D01*
X73637457Y-68279265D01*
X73634974Y-68278107D01*
X73634966Y-68278103D01*
X73329602Y-68135711D01*
X73329601Y-68135710D01*
X73327110Y-68134549D01*
X73324532Y-68133611D01*
X73324528Y-68133609D01*
X73007899Y-68018367D01*
X73007885Y-68018362D01*
X73005331Y-68017433D01*
X73002705Y-68016729D01*
X73002688Y-68016724D01*
X72677209Y-67929513D01*
X72677200Y-67929511D01*
X72674569Y-67928806D01*
X72671879Y-67928331D01*
X72671876Y-67928331D01*
X72340045Y-67869820D01*
X72340027Y-67869817D01*
X72337341Y-67869344D01*
X72334622Y-67869106D01*
X72334606Y-67869104D01*
X71998939Y-67839738D01*
X71998931Y-67839737D01*
X71996215Y-67839500D01*
X71993475Y-67839500D01*
X71310841Y-67839500D01*
X71252291Y-67825070D01*
X71215295Y-67792299D01*
X71214024Y-67793426D01*
X71099609Y-67664277D01*
X71093336Y-67659947D01*
X71093335Y-67659946D01*
X70963886Y-67570594D01*
X70963884Y-67570593D01*
X70957611Y-67566263D01*
X70950483Y-67563559D01*
X70950480Y-67563558D01*
X70803409Y-67507781D01*
X70803404Y-67507779D01*
X70796283Y-67505079D01*
X70784999Y-67503709D01*
X70671760Y-67489959D01*
X70671750Y-67489958D01*
X70667975Y-67489500D01*
X70032025Y-67489500D01*
X70028250Y-67489958D01*
X70028239Y-67489959D01*
X69911285Y-67504160D01*
X69911284Y-67504160D01*
X69903717Y-67505079D01*
X69896597Y-67507779D01*
X69896590Y-67507781D01*
X69749519Y-67563558D01*
X69749512Y-67563561D01*
X69742389Y-67566263D01*
X69736119Y-67570590D01*
X69736113Y-67570594D01*
X69606664Y-67659946D01*
X69606658Y-67659950D01*
X69600391Y-67664277D01*
X69595339Y-67669978D01*
X69595336Y-67669982D01*
X69491032Y-67787718D01*
X69491029Y-67787722D01*
X69485976Y-67793426D01*
X69482434Y-67800174D01*
X69482431Y-67800179D01*
X69409336Y-67939449D01*
X69409333Y-67939454D01*
X69405792Y-67946203D01*
X69403969Y-67953597D01*
X69403967Y-67953604D01*
X69366322Y-68106336D01*
X69364500Y-68113730D01*
X69364500Y-68286270D01*
X64643234Y-68286270D01*
X64490544Y-67842827D01*
X64489213Y-67838730D01*
X64155593Y-66747510D01*
X64154383Y-66743290D01*
X64115988Y-66600000D01*
X63859054Y-65641109D01*
X63857990Y-65636842D01*
X63601307Y-64525023D01*
X63600393Y-64520721D01*
X63561665Y-64321482D01*
X63382671Y-63400645D01*
X63381910Y-63396327D01*
X63203403Y-62269277D01*
X63202802Y-62265001D01*
X63180254Y-62081362D01*
X65535862Y-62081362D01*
X65536359Y-62089266D01*
X65536359Y-62089272D01*
X65539973Y-62146704D01*
X65545548Y-62235305D01*
X65554420Y-62262609D01*
X65576274Y-62329873D01*
X65593213Y-62382004D01*
X65597460Y-62388697D01*
X65597462Y-62388700D01*
X65671613Y-62505544D01*
X65671615Y-62505547D01*
X65675863Y-62512240D01*
X65681641Y-62517666D01*
X65681642Y-62517667D01*
X65745344Y-62577487D01*
X65788305Y-62617830D01*
X65923474Y-62692140D01*
X66072876Y-62730500D01*
X66784445Y-62730500D01*
X66788408Y-62730500D01*
X66903032Y-62716020D01*
X67046448Y-62659237D01*
X67171237Y-62568572D01*
X67269559Y-62449722D01*
X67335235Y-62310154D01*
X67364138Y-62158638D01*
X67359276Y-62081362D01*
X69465862Y-62081362D01*
X69466359Y-62089266D01*
X69466359Y-62089272D01*
X69469973Y-62146704D01*
X69475548Y-62235305D01*
X69484420Y-62262609D01*
X69506274Y-62329873D01*
X69523213Y-62382004D01*
X69527460Y-62388697D01*
X69527462Y-62388700D01*
X69601613Y-62505544D01*
X69601615Y-62505547D01*
X69605863Y-62512240D01*
X69611641Y-62517666D01*
X69611642Y-62517667D01*
X69675344Y-62577487D01*
X69718305Y-62617830D01*
X69853474Y-62692140D01*
X70002876Y-62730500D01*
X71214445Y-62730500D01*
X71218408Y-62730500D01*
X71333032Y-62716020D01*
X71476448Y-62659237D01*
X71601237Y-62568572D01*
X71699559Y-62449722D01*
X71765235Y-62310154D01*
X71794138Y-62158638D01*
X71784452Y-62004695D01*
X71736787Y-61857996D01*
X71732537Y-61851299D01*
X71658386Y-61734455D01*
X71658384Y-61734453D01*
X71654137Y-61727760D01*
X71594149Y-61671428D01*
X71547471Y-61627594D01*
X71547470Y-61627593D01*
X71541695Y-61622170D01*
X71466376Y-61580763D01*
X71413472Y-61551678D01*
X71413468Y-61551676D01*
X71406526Y-61547860D01*
X71398851Y-61545889D01*
X71398845Y-61545887D01*
X71264803Y-61511471D01*
X71264798Y-61511470D01*
X71257124Y-61509500D01*
X70206744Y-61509500D01*
X70146139Y-61493968D01*
X70110518Y-61460604D01*
X70084861Y-61489631D01*
X70028834Y-61511110D01*
X69934834Y-61522985D01*
X69934823Y-61522987D01*
X69926968Y-61523980D01*
X69919606Y-61526894D01*
X69919601Y-61526896D01*
X69790920Y-61577845D01*
X69790914Y-61577847D01*
X69783552Y-61580763D01*
X69777140Y-61585420D01*
X69777139Y-61585422D01*
X69665176Y-61666768D01*
X69665172Y-61666770D01*
X69658763Y-61671428D01*
X69653713Y-61677531D01*
X69653709Y-61677536D01*
X69565493Y-61784170D01*
X69565489Y-61784175D01*
X69560441Y-61790278D01*
X69557069Y-61797443D01*
X69557065Y-61797450D01*
X69498140Y-61922672D01*
X69498138Y-61922677D01*
X69494765Y-61929846D01*
X69493280Y-61937628D01*
X69493279Y-61937633D01*
X69467347Y-62073576D01*
X69465862Y-62081362D01*
X67359276Y-62081362D01*
X67354452Y-62004695D01*
X67306787Y-61857996D01*
X67302537Y-61851299D01*
X67228386Y-61734455D01*
X67228384Y-61734453D01*
X67224137Y-61727760D01*
X67164149Y-61671428D01*
X67117471Y-61627594D01*
X67117470Y-61627593D01*
X67111695Y-61622170D01*
X67036376Y-61580763D01*
X66983472Y-61551678D01*
X66983468Y-61551676D01*
X66976526Y-61547860D01*
X66968851Y-61545889D01*
X66968845Y-61545887D01*
X66834803Y-61511471D01*
X66834798Y-61511470D01*
X66827124Y-61509500D01*
X66111592Y-61509500D01*
X66107667Y-61509995D01*
X66107664Y-61509996D01*
X66004827Y-61522987D01*
X66004825Y-61522987D01*
X65996968Y-61523980D01*
X65989606Y-61526894D01*
X65989601Y-61526896D01*
X65860920Y-61577845D01*
X65860914Y-61577847D01*
X65853552Y-61580763D01*
X65847140Y-61585420D01*
X65847139Y-61585422D01*
X65735176Y-61666768D01*
X65735172Y-61666770D01*
X65728763Y-61671428D01*
X65723713Y-61677531D01*
X65723709Y-61677536D01*
X65635493Y-61784170D01*
X65635489Y-61784175D01*
X65630441Y-61790278D01*
X65627069Y-61797443D01*
X65627065Y-61797450D01*
X65568140Y-61922672D01*
X65568138Y-61922677D01*
X65564765Y-61929846D01*
X65563280Y-61937628D01*
X65563279Y-61937633D01*
X65537347Y-62073576D01*
X65535862Y-62081362D01*
X63180254Y-62081362D01*
X63063733Y-61132376D01*
X63063284Y-61128105D01*
X63024955Y-60690000D01*
X69519534Y-60690000D01*
X69520612Y-60698188D01*
X69538234Y-60832047D01*
X69538235Y-60832053D01*
X69539313Y-60840236D01*
X69542472Y-60847864D01*
X69542473Y-60847865D01*
X69594141Y-60972603D01*
X69594142Y-60972606D01*
X69597302Y-60980233D01*
X69602329Y-60986784D01*
X69602330Y-60986786D01*
X69684522Y-61093900D01*
X69689549Y-61100451D01*
X69809767Y-61192698D01*
X69949764Y-61250687D01*
X70029488Y-61261182D01*
X70085401Y-61282953D01*
X70109114Y-61310064D01*
X70132239Y-61281888D01*
X70190298Y-61258578D01*
X70198542Y-61257492D01*
X70250236Y-61250687D01*
X70390233Y-61192698D01*
X70510451Y-61100451D01*
X70602698Y-60980233D01*
X70660687Y-60840236D01*
X70680466Y-60690000D01*
X70660687Y-60539764D01*
X70602698Y-60399767D01*
X70510451Y-60279549D01*
X70497360Y-60269504D01*
X70396786Y-60192330D01*
X70396784Y-60192329D01*
X70390233Y-60187302D01*
X70382606Y-60184142D01*
X70382603Y-60184141D01*
X70257865Y-60132473D01*
X70257864Y-60132472D01*
X70250236Y-60129313D01*
X70242053Y-60128235D01*
X70242047Y-60128234D01*
X70141807Y-60115038D01*
X70141806Y-60115037D01*
X70137720Y-60114500D01*
X70062280Y-60114500D01*
X70058194Y-60115037D01*
X70058192Y-60115038D01*
X69957952Y-60128234D01*
X69957944Y-60128236D01*
X69949764Y-60129313D01*
X69942137Y-60132472D01*
X69942134Y-60132473D01*
X69817396Y-60184141D01*
X69817390Y-60184144D01*
X69809767Y-60187302D01*
X69803218Y-60192326D01*
X69803213Y-60192330D01*
X69696099Y-60274522D01*
X69696094Y-60274526D01*
X69689549Y-60279549D01*
X69684526Y-60286094D01*
X69684522Y-60286099D01*
X69602330Y-60393213D01*
X69602326Y-60393218D01*
X69597302Y-60399767D01*
X69594144Y-60407390D01*
X69594141Y-60407396D01*
X69542473Y-60532134D01*
X69539313Y-60539764D01*
X69538236Y-60547944D01*
X69538234Y-60547952D01*
X69521052Y-60678463D01*
X69519534Y-60690000D01*
X63024955Y-60690000D01*
X62963825Y-59991282D01*
X62963524Y-59986962D01*
X62903804Y-58847432D01*
X62903653Y-58843137D01*
X62883738Y-57702177D01*
X62883738Y-57697801D01*
X62883897Y-57688691D01*
X62886163Y-57558850D01*
X69244508Y-57558850D01*
X69264354Y-57684154D01*
X69268852Y-57692983D01*
X69268854Y-57692987D01*
X69309647Y-57773046D01*
X69321950Y-57797192D01*
X69328961Y-57804202D01*
X69328961Y-57804203D01*
X69377595Y-57852837D01*
X69404909Y-57893714D01*
X69414500Y-57941932D01*
X69414500Y-58255240D01*
X69408333Y-58294177D01*
X69391002Y-58328189D01*
X69384871Y-58334321D01*
X69380369Y-58343156D01*
X69380368Y-58343158D01*
X69331775Y-58438525D01*
X69331772Y-58438531D01*
X69327275Y-58447359D01*
X69325724Y-58457148D01*
X69325724Y-58457150D01*
X69317085Y-58511696D01*
X69307429Y-58572663D01*
X69327275Y-58697967D01*
X69331773Y-58706796D01*
X69331775Y-58706800D01*
X69380370Y-58802172D01*
X69384871Y-58811005D01*
X69474579Y-58900713D01*
X69587617Y-58958309D01*
X69712921Y-58978155D01*
X69838225Y-58958309D01*
X69951263Y-58900713D01*
X70040971Y-58811005D01*
X70098567Y-58697967D01*
X70108583Y-58634730D01*
X70131096Y-58580380D01*
X70175829Y-58542174D01*
X70233032Y-58528441D01*
X70240207Y-58528441D01*
X70250000Y-58529992D01*
X70375304Y-58510146D01*
X70488342Y-58452550D01*
X70578050Y-58362842D01*
X70635646Y-58249804D01*
X70655492Y-58124500D01*
X70635646Y-57999196D01*
X70578050Y-57886158D01*
X70522405Y-57830512D01*
X70495091Y-57789636D01*
X70485500Y-57741418D01*
X70485500Y-57706880D01*
X70485500Y-57706777D01*
X70485492Y-57706743D01*
X70485488Y-57706663D01*
X70485488Y-57697800D01*
X70485491Y-57639688D01*
X70456759Y-57458253D01*
X70399997Y-57283548D01*
X70316603Y-57119873D01*
X70208631Y-56971260D01*
X70145168Y-56907796D01*
X70117854Y-56866919D01*
X70108263Y-56818699D01*
X70108263Y-56809798D01*
X70109815Y-56800000D01*
X70089969Y-56674696D01*
X70084321Y-56663612D01*
X70036873Y-56570490D01*
X70032373Y-56561658D01*
X69942665Y-56471950D01*
X69933833Y-56467450D01*
X69933832Y-56467449D01*
X69838460Y-56418854D01*
X69838456Y-56418852D01*
X69829627Y-56414354D01*
X69819835Y-56412803D01*
X69714116Y-56396059D01*
X69704323Y-56394508D01*
X69694530Y-56396059D01*
X69588810Y-56412803D01*
X69588808Y-56412803D01*
X69579019Y-56414354D01*
X69570191Y-56418851D01*
X69570185Y-56418854D01*
X69474813Y-56467449D01*
X69474809Y-56467451D01*
X69465981Y-56471950D01*
X69458972Y-56478958D01*
X69458969Y-56478961D01*
X69383284Y-56554646D01*
X69383281Y-56554649D01*
X69376273Y-56561658D01*
X69371774Y-56570486D01*
X69371772Y-56570490D01*
X69323177Y-56665862D01*
X69323174Y-56665868D01*
X69318677Y-56674696D01*
X69317126Y-56684485D01*
X69317126Y-56684487D01*
X69308857Y-56736699D01*
X69298831Y-56800000D01*
X69300382Y-56809793D01*
X69301784Y-56818648D01*
X69318677Y-56925304D01*
X69323175Y-56934133D01*
X69323177Y-56934137D01*
X69346496Y-56979902D01*
X69376273Y-57038342D01*
X69383284Y-57045353D01*
X69401099Y-57063168D01*
X69433711Y-57119652D01*
X69433711Y-57184874D01*
X69401100Y-57241358D01*
X69321950Y-57320508D01*
X69317451Y-57329336D01*
X69317449Y-57329340D01*
X69268854Y-57424712D01*
X69268851Y-57424718D01*
X69264354Y-57433546D01*
X69262803Y-57443335D01*
X69262803Y-57443337D01*
X69257156Y-57478991D01*
X69244508Y-57558850D01*
X62886163Y-57558850D01*
X62903653Y-56556860D01*
X62903804Y-56552569D01*
X62963524Y-55413033D01*
X62963825Y-55408721D01*
X63007457Y-54910000D01*
X69519534Y-54910000D01*
X69520612Y-54918188D01*
X69538234Y-55052047D01*
X69538235Y-55052053D01*
X69539313Y-55060236D01*
X69542472Y-55067864D01*
X69542473Y-55067865D01*
X69594141Y-55192603D01*
X69594142Y-55192606D01*
X69597302Y-55200233D01*
X69602329Y-55206784D01*
X69602330Y-55206786D01*
X69669750Y-55294649D01*
X69689549Y-55320451D01*
X69809767Y-55412698D01*
X69949764Y-55470687D01*
X70062280Y-55485500D01*
X70133598Y-55485500D01*
X70137720Y-55485500D01*
X70250236Y-55470687D01*
X70390233Y-55412698D01*
X70510451Y-55320451D01*
X70602698Y-55200233D01*
X70660687Y-55060236D01*
X70680466Y-54910000D01*
X70660687Y-54759764D01*
X70602698Y-54619767D01*
X70510451Y-54499549D01*
X70472109Y-54470128D01*
X70396786Y-54412330D01*
X70396784Y-54412329D01*
X70390233Y-54407302D01*
X70382606Y-54404142D01*
X70382603Y-54404141D01*
X70257865Y-54352473D01*
X70257864Y-54352472D01*
X70250236Y-54349313D01*
X70242053Y-54348235D01*
X70242047Y-54348234D01*
X70190298Y-54341422D01*
X70132239Y-54318112D01*
X70102656Y-54282066D01*
X70070329Y-54319028D01*
X70014415Y-54340801D01*
X69957951Y-54348235D01*
X69957949Y-54348235D01*
X69949764Y-54349313D01*
X69942137Y-54352472D01*
X69942134Y-54352473D01*
X69817396Y-54404141D01*
X69817390Y-54404144D01*
X69809767Y-54407302D01*
X69803218Y-54412326D01*
X69803213Y-54412330D01*
X69696099Y-54494522D01*
X69696094Y-54494526D01*
X69689549Y-54499549D01*
X69684526Y-54506094D01*
X69684522Y-54506099D01*
X69602330Y-54613213D01*
X69602326Y-54613218D01*
X69597302Y-54619767D01*
X69594144Y-54627390D01*
X69594141Y-54627396D01*
X69542473Y-54752134D01*
X69539313Y-54759764D01*
X69538236Y-54767944D01*
X69538234Y-54767952D01*
X69522148Y-54890142D01*
X69519534Y-54910000D01*
X63007457Y-54910000D01*
X63063285Y-54271888D01*
X63063732Y-54267629D01*
X63165185Y-53441362D01*
X65535862Y-53441362D01*
X65536359Y-53449266D01*
X65536359Y-53449272D01*
X65545050Y-53587394D01*
X65545548Y-53595305D01*
X65547997Y-53602842D01*
X65586441Y-53721164D01*
X65593213Y-53742004D01*
X65597460Y-53748697D01*
X65597462Y-53748700D01*
X65671613Y-53865544D01*
X65671615Y-53865547D01*
X65675863Y-53872240D01*
X65681641Y-53877666D01*
X65681642Y-53877667D01*
X65762748Y-53953830D01*
X65788305Y-53977830D01*
X65878005Y-54027143D01*
X65914775Y-54047358D01*
X65923474Y-54052140D01*
X66072876Y-54090500D01*
X66784445Y-54090500D01*
X66788408Y-54090500D01*
X66903032Y-54076020D01*
X67046448Y-54019237D01*
X67171237Y-53928572D01*
X67269559Y-53809722D01*
X67335235Y-53670154D01*
X67364138Y-53518638D01*
X67359276Y-53441362D01*
X69465862Y-53441362D01*
X69466359Y-53449266D01*
X69466359Y-53449272D01*
X69475050Y-53587394D01*
X69475548Y-53595305D01*
X69477997Y-53602842D01*
X69516441Y-53721164D01*
X69523213Y-53742004D01*
X69527460Y-53748697D01*
X69527462Y-53748700D01*
X69601613Y-53865544D01*
X69601615Y-53865547D01*
X69605863Y-53872240D01*
X69611641Y-53877666D01*
X69611642Y-53877667D01*
X69692748Y-53953830D01*
X69718305Y-53977830D01*
X69808005Y-54027143D01*
X69844775Y-54047358D01*
X69853474Y-54052140D01*
X70002876Y-54090500D01*
X70010813Y-54090500D01*
X70013757Y-54090872D01*
X70069785Y-54112350D01*
X70101313Y-54148016D01*
X70146139Y-54106032D01*
X70206744Y-54090500D01*
X71214445Y-54090500D01*
X71218408Y-54090500D01*
X71333032Y-54076020D01*
X71476448Y-54019237D01*
X71601237Y-53928572D01*
X71699559Y-53809722D01*
X71765235Y-53670154D01*
X71778617Y-53600000D01*
X75584250Y-53600000D01*
X75605141Y-53745304D01*
X75608882Y-53753497D01*
X75608883Y-53753498D01*
X75652922Y-53849931D01*
X75666123Y-53878836D01*
X75762256Y-53989778D01*
X75885750Y-54069143D01*
X76026601Y-54110500D01*
X76164390Y-54110500D01*
X76173399Y-54110500D01*
X76314250Y-54069143D01*
X76321832Y-54064269D01*
X76330029Y-54060527D01*
X76330722Y-54062044D01*
X76371562Y-54047358D01*
X76427738Y-54053393D01*
X76475628Y-54083370D01*
X81064375Y-58672116D01*
X81064378Y-58672120D01*
X81104954Y-58712696D01*
X81108756Y-58716666D01*
X81331108Y-58959319D01*
X81338173Y-58967739D01*
X81536840Y-59226643D01*
X81543145Y-59235648D01*
X81718486Y-59510875D01*
X81723982Y-59520394D01*
X81874674Y-59809867D01*
X81879319Y-59819829D01*
X82004203Y-60121319D01*
X82007963Y-60131648D01*
X82106101Y-60442891D01*
X82108946Y-60453509D01*
X82179580Y-60772110D01*
X82181489Y-60782934D01*
X82224089Y-61106486D01*
X82225047Y-61117437D01*
X82239380Y-61445642D01*
X82239500Y-61451139D01*
X82239500Y-62789487D01*
X82231556Y-62833520D01*
X82208724Y-62872000D01*
X82172025Y-62914352D01*
X82172023Y-62914354D01*
X82166123Y-62921164D01*
X82162380Y-62929358D01*
X82162379Y-62929361D01*
X82108883Y-63046501D01*
X82108882Y-63046504D01*
X82105141Y-63054696D01*
X82103859Y-63063611D01*
X82103859Y-63063612D01*
X82096255Y-63116502D01*
X82084250Y-63200000D01*
X82105141Y-63345304D01*
X82108882Y-63353497D01*
X82108883Y-63353498D01*
X82124782Y-63388313D01*
X82166123Y-63478836D01*
X82262256Y-63589778D01*
X82385750Y-63669143D01*
X82526601Y-63710500D01*
X82664390Y-63710500D01*
X82673399Y-63710500D01*
X82814250Y-63669143D01*
X82937744Y-63589778D01*
X83033877Y-63478836D01*
X83094859Y-63345304D01*
X83115750Y-63200000D01*
X83094859Y-63054696D01*
X83033877Y-62921164D01*
X82998539Y-62880382D01*
X82991276Y-62872000D01*
X82968444Y-62833520D01*
X82960500Y-62789487D01*
X82960500Y-61506056D01*
X82960501Y-61506053D01*
X82960500Y-61449049D01*
X82960512Y-61448956D01*
X82960525Y-61448956D01*
X82960523Y-61248644D01*
X82925603Y-60849545D01*
X82926428Y-60849472D01*
X82933254Y-60791696D01*
X82969049Y-60741027D01*
X83024685Y-60713582D01*
X83086674Y-60716013D01*
X83139989Y-60747731D01*
X83655749Y-61263491D01*
X83655756Y-61263499D01*
X83655758Y-61263502D01*
X83655763Y-61263507D01*
X83655764Y-61263508D01*
X83696008Y-61303750D01*
X83696116Y-61303891D01*
X83696100Y-61303908D01*
X83834271Y-61442074D01*
X84131441Y-61695874D01*
X84447608Y-61925576D01*
X84672693Y-62063504D01*
X84766787Y-62121164D01*
X84780822Y-62129764D01*
X85129030Y-62307179D01*
X85131306Y-62308121D01*
X85131311Y-62308124D01*
X85374656Y-62408917D01*
X85490084Y-62456727D01*
X85861758Y-62577487D01*
X86241761Y-62668713D01*
X86627750Y-62729844D01*
X87017345Y-62760502D01*
X87212745Y-62760500D01*
X87269843Y-62760500D01*
X91083430Y-62760500D01*
X91127463Y-62768444D01*
X91161025Y-62788358D01*
X91162256Y-62789778D01*
X91285750Y-62869143D01*
X91426601Y-62910500D01*
X91564390Y-62910500D01*
X91573399Y-62910500D01*
X91714250Y-62869143D01*
X91837744Y-62789778D01*
X91933877Y-62678836D01*
X91994859Y-62545304D01*
X92015750Y-62400000D01*
X91994859Y-62254696D01*
X91933877Y-62121164D01*
X91837744Y-62010222D01*
X91714250Y-61930857D01*
X91705606Y-61928318D01*
X91705604Y-61928318D01*
X91582043Y-61892038D01*
X91582042Y-61892037D01*
X91573399Y-61889500D01*
X91426601Y-61889500D01*
X91417958Y-61892037D01*
X91417956Y-61892038D01*
X91294395Y-61928318D01*
X91294391Y-61928319D01*
X91285750Y-61930857D01*
X91278172Y-61935727D01*
X91278170Y-61935728D01*
X91169836Y-62005350D01*
X91169833Y-62005352D01*
X91162256Y-62010222D01*
X91161025Y-62011641D01*
X91127463Y-62031556D01*
X91083430Y-62039500D01*
X87269840Y-62039500D01*
X87269838Y-62039499D01*
X87269836Y-62039499D01*
X87269828Y-62039499D01*
X87215483Y-62039499D01*
X87209988Y-62039379D01*
X86847623Y-62023561D01*
X86836673Y-62022603D01*
X86479800Y-61975624D01*
X86468975Y-61973716D01*
X86117540Y-61895809D01*
X86106922Y-61892964D01*
X85763614Y-61784723D01*
X85753285Y-61780963D01*
X85420733Y-61643220D01*
X85410771Y-61638575D01*
X85091475Y-61472366D01*
X85081956Y-61466870D01*
X84778378Y-61273475D01*
X84769374Y-61267171D01*
X84483780Y-61048034D01*
X84475359Y-61040968D01*
X84208723Y-60796648D01*
X84204751Y-60792845D01*
X81758401Y-58346495D01*
X81758380Y-58346473D01*
X81616738Y-58204832D01*
X81576366Y-58164460D01*
X81576364Y-58164457D01*
X76939528Y-53527622D01*
X76939524Y-53527617D01*
X76899150Y-53487244D01*
X76878165Y-53466259D01*
X76878164Y-53466258D01*
X76878028Y-53466122D01*
X76877975Y-53466084D01*
X76877880Y-53465996D01*
X76855574Y-53443690D01*
X76852069Y-53440185D01*
X76842973Y-53433576D01*
X76748371Y-53364842D01*
X76748368Y-53364840D01*
X76744364Y-53361931D01*
X76739961Y-53359687D01*
X76739954Y-53359683D01*
X76630152Y-53303732D01*
X76630150Y-53303731D01*
X76625744Y-53301486D01*
X76621043Y-53299958D01*
X76621035Y-53299955D01*
X76507464Y-53263048D01*
X76451183Y-53225731D01*
X76443642Y-53217028D01*
X76443640Y-53217026D01*
X76437744Y-53210222D01*
X76314250Y-53130857D01*
X76305606Y-53128318D01*
X76305604Y-53128318D01*
X76182043Y-53092038D01*
X76182042Y-53092037D01*
X76173399Y-53089500D01*
X76026601Y-53089500D01*
X76017958Y-53092037D01*
X76017956Y-53092038D01*
X75894395Y-53128318D01*
X75894391Y-53128319D01*
X75885750Y-53130857D01*
X75878172Y-53135727D01*
X75878170Y-53135728D01*
X75769836Y-53205350D01*
X75769833Y-53205352D01*
X75762256Y-53210222D01*
X75756358Y-53217028D01*
X75756354Y-53217032D01*
X75672025Y-53314352D01*
X75672022Y-53314355D01*
X75666123Y-53321164D01*
X75662380Y-53329358D01*
X75662379Y-53329361D01*
X75608883Y-53446501D01*
X75608882Y-53446504D01*
X75605141Y-53454696D01*
X75603859Y-53463611D01*
X75603859Y-53463612D01*
X75594656Y-53527622D01*
X75584250Y-53600000D01*
X71778617Y-53600000D01*
X71794138Y-53518638D01*
X71784452Y-53364695D01*
X71736787Y-53217996D01*
X71732409Y-53211098D01*
X71658386Y-53094455D01*
X71658384Y-53094453D01*
X71654137Y-53087760D01*
X71594149Y-53031428D01*
X71547471Y-52987594D01*
X71547470Y-52987593D01*
X71541695Y-52982170D01*
X71466376Y-52940763D01*
X71413472Y-52911678D01*
X71413468Y-52911676D01*
X71406526Y-52907860D01*
X71398851Y-52905889D01*
X71398845Y-52905887D01*
X71264803Y-52871471D01*
X71264798Y-52871470D01*
X71257124Y-52869500D01*
X70041592Y-52869500D01*
X70037667Y-52869995D01*
X70037664Y-52869996D01*
X69934827Y-52882987D01*
X69934825Y-52882987D01*
X69926968Y-52883980D01*
X69919606Y-52886894D01*
X69919601Y-52886896D01*
X69790920Y-52937845D01*
X69790914Y-52937847D01*
X69783552Y-52940763D01*
X69777140Y-52945420D01*
X69777139Y-52945422D01*
X69665176Y-53026768D01*
X69665172Y-53026770D01*
X69658763Y-53031428D01*
X69653713Y-53037531D01*
X69653709Y-53037536D01*
X69565493Y-53144170D01*
X69565489Y-53144175D01*
X69560441Y-53150278D01*
X69557069Y-53157443D01*
X69557065Y-53157450D01*
X69498140Y-53282672D01*
X69498138Y-53282677D01*
X69494765Y-53289846D01*
X69493280Y-53297628D01*
X69493279Y-53297633D01*
X69472590Y-53406093D01*
X69465862Y-53441362D01*
X67359276Y-53441362D01*
X67354452Y-53364695D01*
X67306787Y-53217996D01*
X67302409Y-53211098D01*
X67228386Y-53094455D01*
X67228384Y-53094453D01*
X67224137Y-53087760D01*
X67164149Y-53031428D01*
X67117471Y-52987594D01*
X67117470Y-52987593D01*
X67111695Y-52982170D01*
X67036376Y-52940763D01*
X66983472Y-52911678D01*
X66983468Y-52911676D01*
X66976526Y-52907860D01*
X66968851Y-52905889D01*
X66968845Y-52905887D01*
X66834803Y-52871471D01*
X66834798Y-52871470D01*
X66827124Y-52869500D01*
X66111592Y-52869500D01*
X66107667Y-52869995D01*
X66107664Y-52869996D01*
X66004827Y-52882987D01*
X66004825Y-52882987D01*
X65996968Y-52883980D01*
X65989606Y-52886894D01*
X65989601Y-52886896D01*
X65860920Y-52937845D01*
X65860914Y-52937847D01*
X65853552Y-52940763D01*
X65847140Y-52945420D01*
X65847139Y-52945422D01*
X65735176Y-53026768D01*
X65735172Y-53026770D01*
X65728763Y-53031428D01*
X65723713Y-53037531D01*
X65723709Y-53037536D01*
X65635493Y-53144170D01*
X65635489Y-53144175D01*
X65630441Y-53150278D01*
X65627069Y-53157443D01*
X65627065Y-53157450D01*
X65568140Y-53282672D01*
X65568138Y-53282677D01*
X65564765Y-53289846D01*
X65563280Y-53297628D01*
X65563279Y-53297633D01*
X65542590Y-53406093D01*
X65535862Y-53441362D01*
X63165185Y-53441362D01*
X63202803Y-53134990D01*
X63203402Y-53130730D01*
X63381914Y-52003648D01*
X63382674Y-51999341D01*
X63395851Y-51931555D01*
X63600395Y-50879267D01*
X63601307Y-50874976D01*
X63612130Y-50828099D01*
X63857992Y-49763147D01*
X63859054Y-49758890D01*
X63870377Y-49716633D01*
X64154389Y-48656686D01*
X64155596Y-48652481D01*
X64157385Y-48646631D01*
X64489218Y-47561252D01*
X64490538Y-47557189D01*
X64862064Y-46478198D01*
X64863552Y-46474113D01*
X65272484Y-45408807D01*
X65274084Y-45404845D01*
X65719974Y-44354395D01*
X65721732Y-44350447D01*
X65745256Y-44300000D01*
X72184250Y-44300000D01*
X72205141Y-44445304D01*
X72208882Y-44453497D01*
X72208883Y-44453498D01*
X72254551Y-44553498D01*
X72266123Y-44578836D01*
X72272025Y-44585647D01*
X72352774Y-44678836D01*
X72362256Y-44689778D01*
X72485750Y-44769143D01*
X72626601Y-44810500D01*
X72764390Y-44810500D01*
X72773399Y-44810500D01*
X72782094Y-44807946D01*
X72782154Y-44807945D01*
X72790965Y-44806679D01*
X72791124Y-44807784D01*
X72848756Y-44806751D01*
X72906697Y-44839744D01*
X80657185Y-52590232D01*
X80657213Y-52590250D01*
X80657263Y-52590294D01*
X80797413Y-52730444D01*
X80935072Y-52848016D01*
X81127563Y-53012419D01*
X81136632Y-53020164D01*
X81138627Y-53021613D01*
X81138629Y-53021615D01*
X81160542Y-53037536D01*
X81497537Y-53282377D01*
X81499641Y-53283666D01*
X81499645Y-53283669D01*
X81870168Y-53510726D01*
X81877902Y-53515465D01*
X82275382Y-53717992D01*
X82687527Y-53888710D01*
X83111796Y-54026564D01*
X83545572Y-54130707D01*
X83986183Y-54200495D01*
X84430910Y-54235498D01*
X84603904Y-54235499D01*
X84603906Y-54235500D01*
X84653961Y-54235500D01*
X91071030Y-54235500D01*
X91123372Y-54246886D01*
X91166253Y-54278986D01*
X91187594Y-54303614D01*
X91236169Y-54359673D01*
X91262256Y-54389778D01*
X91385750Y-54469143D01*
X91526601Y-54510500D01*
X91664390Y-54510500D01*
X91673399Y-54510500D01*
X91814250Y-54469143D01*
X91937744Y-54389778D01*
X92033877Y-54278836D01*
X92094859Y-54145304D01*
X92115750Y-54000000D01*
X92094859Y-53854696D01*
X92033877Y-53721164D01*
X92027974Y-53714352D01*
X92023103Y-53706772D01*
X92024934Y-53705595D01*
X92005378Y-53668535D01*
X92003746Y-53611481D01*
X92027456Y-53559560D01*
X92071642Y-53523428D01*
X92127237Y-53510500D01*
X95184427Y-53510500D01*
X95184430Y-53510501D01*
X95222420Y-53510500D01*
X95229480Y-53510697D01*
X95503127Y-53526060D01*
X95517155Y-53527641D01*
X95783868Y-53572953D01*
X95797629Y-53576094D01*
X96057606Y-53650990D01*
X96070915Y-53655647D01*
X96320865Y-53759176D01*
X96333573Y-53765295D01*
X96570378Y-53896171D01*
X96582313Y-53903671D01*
X96802963Y-54060229D01*
X96813995Y-54069027D01*
X96961323Y-54200687D01*
X97018076Y-54251404D01*
X97023193Y-54256241D01*
X97036035Y-54269082D01*
X97036038Y-54269085D01*
X97462617Y-54695664D01*
X97493074Y-54744968D01*
X97498240Y-54802689D01*
X97485667Y-54890142D01*
X97484250Y-54900000D01*
X97505141Y-55045304D01*
X97508882Y-55053497D01*
X97508883Y-55053498D01*
X97528752Y-55097006D01*
X97566123Y-55178836D01*
X97580749Y-55195715D01*
X97651716Y-55277615D01*
X97662256Y-55289778D01*
X97785750Y-55369143D01*
X97926601Y-55410500D01*
X98064390Y-55410500D01*
X98073399Y-55410500D01*
X98214250Y-55369143D01*
X98337744Y-55289778D01*
X98433877Y-55178836D01*
X98494859Y-55045304D01*
X98502115Y-54994834D01*
X98530150Y-54931966D01*
X98587042Y-54893213D01*
X98655809Y-54890142D01*
X98715928Y-54923670D01*
X98899770Y-55107512D01*
X98899777Y-55107520D01*
X98899779Y-55107523D01*
X98929532Y-55137275D01*
X98938214Y-55145956D01*
X98942015Y-55149927D01*
X99138465Y-55364311D01*
X99177985Y-55407438D01*
X99185049Y-55415855D01*
X99393186Y-55687101D01*
X99396017Y-55690790D01*
X99402322Y-55699795D01*
X99588514Y-55992055D01*
X99594010Y-56001574D01*
X99754023Y-56308951D01*
X99758669Y-56318913D01*
X99891288Y-56639080D01*
X99895047Y-56649409D01*
X99999254Y-56979902D01*
X100002099Y-56990520D01*
X100077103Y-57328837D01*
X100079012Y-57339663D01*
X100124245Y-57683238D01*
X100125203Y-57694187D01*
X100140421Y-58042683D01*
X100140541Y-58048180D01*
X100140541Y-63388147D01*
X100140558Y-63388257D01*
X100140568Y-63388481D01*
X100140568Y-63535236D01*
X100140870Y-63538307D01*
X100140871Y-63538318D01*
X100153755Y-63669143D01*
X100175256Y-63887462D01*
X100175859Y-63890496D01*
X100175861Y-63890506D01*
X100243698Y-64231563D01*
X100244301Y-64234593D01*
X100245195Y-64237541D01*
X100245196Y-64237544D01*
X100346141Y-64570329D01*
X100346145Y-64570340D01*
X100347038Y-64573284D01*
X100348218Y-64576134D01*
X100348221Y-64576141D01*
X100408544Y-64721777D01*
X100482478Y-64900274D01*
X100483930Y-64902990D01*
X100483934Y-64902999D01*
X100516525Y-64963974D01*
X100649316Y-65212415D01*
X100651025Y-65214973D01*
X100651033Y-65214986D01*
X100844223Y-65504121D01*
X100845946Y-65506699D01*
X100847912Y-65509095D01*
X100847916Y-65509100D01*
X100955695Y-65640433D01*
X101070473Y-65780294D01*
X101129502Y-65839324D01*
X101153070Y-65862893D01*
X101150810Y-65865152D01*
X101150811Y-65865154D01*
X101153071Y-65862895D01*
X101195605Y-65905429D01*
X101235978Y-65945804D01*
X101235980Y-65945805D01*
X101235985Y-65945809D01*
X101853599Y-66563423D01*
X101877176Y-66596118D01*
X101889221Y-66634586D01*
X101903857Y-66736381D01*
X101903859Y-66736388D01*
X101905141Y-66745304D01*
X101966123Y-66878836D01*
X102062256Y-66989778D01*
X102185750Y-67069143D01*
X102326601Y-67110500D01*
X102348486Y-67110500D01*
X102396704Y-67120091D01*
X102437581Y-67147405D01*
X103102595Y-67812419D01*
X103129909Y-67853296D01*
X103139500Y-67901514D01*
X103139500Y-83633749D01*
X103137019Y-83657668D01*
X103136968Y-83658888D01*
X103134827Y-83669102D01*
X103136118Y-83679459D01*
X103136118Y-83679460D01*
X103138614Y-83699484D01*
X103139150Y-83704659D01*
X103139500Y-83708885D01*
X103139500Y-83714079D01*
X103140354Y-83719198D01*
X103140355Y-83719208D01*
X103142763Y-83733638D01*
X103143512Y-83738783D01*
X103148417Y-83778132D01*
X103148418Y-83778135D01*
X103149709Y-83788492D01*
X103153061Y-83795349D01*
X103154318Y-83802879D01*
X103159284Y-83812056D01*
X103159285Y-83812058D01*
X103178164Y-83846943D01*
X103180547Y-83851572D01*
X103202551Y-83896581D01*
X103207947Y-83901977D01*
X103211581Y-83908692D01*
X103219259Y-83915760D01*
X103219260Y-83915761D01*
X103248463Y-83942644D01*
X103252221Y-83946251D01*
X103765726Y-84459756D01*
X103798855Y-84518235D01*
X103797206Y-84585426D01*
X103763092Y-84697886D01*
X103763090Y-84697891D01*
X103761295Y-84703812D01*
X103760688Y-84709973D01*
X103760688Y-84709974D01*
X103752945Y-84788590D01*
X103742750Y-84892103D01*
X103761295Y-85080394D01*
X103763090Y-85086312D01*
X103763091Y-85086316D01*
X103797206Y-85198778D01*
X103816217Y-85261449D01*
X103819136Y-85266910D01*
X103902486Y-85422847D01*
X103902490Y-85422853D01*
X103905407Y-85428310D01*
X104025435Y-85574565D01*
X104171690Y-85694593D01*
X104177148Y-85697510D01*
X104177152Y-85697513D01*
X104255120Y-85739188D01*
X104338551Y-85783783D01*
X104519606Y-85838705D01*
X104707897Y-85857250D01*
X104896188Y-85838705D01*
X104910799Y-85834273D01*
X105014572Y-85802794D01*
X105081763Y-85801144D01*
X105140243Y-85834273D01*
X105525200Y-86219230D01*
X105540362Y-86237899D01*
X105541187Y-86238796D01*
X105546898Y-86247536D01*
X105571094Y-86266369D01*
X105575124Y-86269642D01*
X105578315Y-86272345D01*
X105582005Y-86276035D01*
X105586243Y-86279061D01*
X105586249Y-86279066D01*
X105598138Y-86287554D01*
X105602303Y-86290659D01*
X105641842Y-86321434D01*
X105649059Y-86323911D01*
X105655274Y-86328349D01*
X105703320Y-86342652D01*
X105708270Y-86344239D01*
X105714276Y-86346300D01*
X105755637Y-86360500D01*
X105763268Y-86360500D01*
X105770587Y-86362679D01*
X105820648Y-86360607D01*
X105825856Y-86360500D01*
X107649543Y-86360500D01*
X107673462Y-86362980D01*
X107674676Y-86363030D01*
X107684896Y-86365173D01*
X107715287Y-86361384D01*
X107720456Y-86360848D01*
X107724653Y-86360500D01*
X107729873Y-86360500D01*
X107749444Y-86357233D01*
X107754533Y-86356491D01*
X107804286Y-86350291D01*
X107811143Y-86346938D01*
X107818673Y-86345682D01*
X107862739Y-86321833D01*
X107867370Y-86319450D01*
X107902988Y-86302038D01*
X107902988Y-86302037D01*
X107912375Y-86297449D01*
X107917771Y-86292052D01*
X107924486Y-86288419D01*
X107958462Y-86251508D01*
X107962022Y-86247800D01*
X117499491Y-76710331D01*
X117518137Y-76695190D01*
X117519044Y-76694354D01*
X117527792Y-76688640D01*
X117546628Y-76664437D01*
X117549890Y-76660422D01*
X117552595Y-76657227D01*
X117556291Y-76653533D01*
X117567843Y-76637351D01*
X117570897Y-76633257D01*
X117601690Y-76593696D01*
X117604167Y-76586478D01*
X117608605Y-76580264D01*
X117622919Y-76532181D01*
X117624485Y-76527294D01*
X117640756Y-76479901D01*
X117640756Y-76472270D01*
X117642935Y-76464951D01*
X117640863Y-76414889D01*
X117640756Y-76409682D01*
X117640756Y-73369786D01*
X117650347Y-73321568D01*
X117677661Y-73280691D01*
X118050887Y-72907465D01*
X118568169Y-72390183D01*
X118586426Y-72362859D01*
X118595002Y-72319744D01*
X118586426Y-72276629D01*
X118568169Y-72249305D01*
X117350695Y-71031831D01*
X117323371Y-71013574D01*
X117311202Y-71011153D01*
X117311201Y-71011153D01*
X117292427Y-71007419D01*
X117280256Y-71004998D01*
X117268085Y-71007419D01*
X117249310Y-71011153D01*
X117249307Y-71011153D01*
X117237141Y-71013574D01*
X117226825Y-71020466D01*
X117226824Y-71020467D01*
X117221067Y-71024314D01*
X117209817Y-71031831D01*
X117205443Y-71036204D01*
X117205438Y-71036209D01*
X115996721Y-72244926D01*
X115996716Y-72244931D01*
X115992343Y-72249305D01*
X115974086Y-72276629D01*
X115965510Y-72319744D01*
X115974086Y-72362859D01*
X115992343Y-72390183D01*
X115996721Y-72394561D01*
X116882851Y-73280691D01*
X116910165Y-73321568D01*
X116919756Y-73369786D01*
X116919756Y-76218230D01*
X116910165Y-76266448D01*
X116882851Y-76307325D01*
X107587581Y-85602595D01*
X107546704Y-85629909D01*
X107498486Y-85639500D01*
X106017308Y-85639500D01*
X105969090Y-85629909D01*
X105928213Y-85602595D01*
X105650067Y-85324449D01*
X105616938Y-85265969D01*
X105618588Y-85198778D01*
X105652700Y-85086325D01*
X105652700Y-85086323D01*
X105654499Y-85080394D01*
X105673044Y-84892103D01*
X105665723Y-84817771D01*
X105672758Y-84762208D01*
X105703180Y-84715182D01*
X105750977Y-84685986D01*
X105799633Y-84681100D01*
X105800450Y-84681343D01*
X105850497Y-84679273D01*
X105855705Y-84679165D01*
X106942077Y-84679165D01*
X106965996Y-84681645D01*
X106967210Y-84681695D01*
X106977430Y-84683838D01*
X107007821Y-84680049D01*
X107012990Y-84679513D01*
X107017187Y-84679165D01*
X107022407Y-84679165D01*
X107041978Y-84675898D01*
X107047067Y-84675156D01*
X107096820Y-84668956D01*
X107103677Y-84665603D01*
X107111207Y-84664347D01*
X107155273Y-84640498D01*
X107159904Y-84638115D01*
X107195522Y-84620703D01*
X107195522Y-84620702D01*
X107204909Y-84616114D01*
X107210305Y-84610717D01*
X107217020Y-84607084D01*
X107250996Y-84570173D01*
X107254556Y-84566465D01*
X112111337Y-79709684D01*
X112129983Y-79694543D01*
X112130890Y-79693707D01*
X112139638Y-79687993D01*
X112158460Y-79663809D01*
X112161732Y-79659780D01*
X112164443Y-79656579D01*
X112168138Y-79652885D01*
X112179671Y-79636730D01*
X112182736Y-79632619D01*
X112213536Y-79593049D01*
X112216014Y-79585830D01*
X112220451Y-79579616D01*
X112234763Y-79531540D01*
X112236316Y-79526690D01*
X112252602Y-79479254D01*
X112252602Y-79471623D01*
X112254781Y-79464304D01*
X112252710Y-79414232D01*
X112252602Y-79409025D01*
X112252602Y-78679827D01*
X112270528Y-78615050D01*
X112319205Y-78568705D01*
X112428309Y-78510388D01*
X112574564Y-78390360D01*
X112694592Y-78244105D01*
X112783782Y-78077244D01*
X112838704Y-77896189D01*
X112857249Y-77707898D01*
X112838704Y-77519607D01*
X112783782Y-77338552D01*
X112694592Y-77171691D01*
X112574564Y-77025436D01*
X112428309Y-76905408D01*
X112422852Y-76902491D01*
X112422846Y-76902487D01*
X112266909Y-76819137D01*
X112261448Y-76816218D01*
X112250826Y-76812996D01*
X112086315Y-76763092D01*
X112086311Y-76763091D01*
X112080393Y-76761296D01*
X111892102Y-76742751D01*
X111885939Y-76743358D01*
X111709973Y-76760689D01*
X111709972Y-76760689D01*
X111703811Y-76761296D01*
X111697894Y-76763090D01*
X111697888Y-76763092D01*
X111528679Y-76814421D01*
X111528676Y-76814422D01*
X111522756Y-76816218D01*
X111517298Y-76819135D01*
X111517294Y-76819137D01*
X111361357Y-76902487D01*
X111361346Y-76902494D01*
X111355895Y-76905408D01*
X111351109Y-76909335D01*
X111351104Y-76909339D01*
X111214424Y-77021509D01*
X111214419Y-77021513D01*
X111209640Y-77025436D01*
X111205717Y-77030215D01*
X111205713Y-77030220D01*
X111093543Y-77166900D01*
X111093539Y-77166905D01*
X111089612Y-77171691D01*
X111086698Y-77177142D01*
X111086691Y-77177153D01*
X111003341Y-77333090D01*
X111003339Y-77333094D01*
X111000422Y-77338552D01*
X110998626Y-77344472D01*
X110998625Y-77344475D01*
X110947296Y-77513684D01*
X110947294Y-77513690D01*
X110945500Y-77519607D01*
X110926955Y-77707898D01*
X110945500Y-77896189D01*
X110947295Y-77902107D01*
X110947296Y-77902111D01*
X110948908Y-77907425D01*
X111000422Y-78077244D01*
X111003341Y-78082705D01*
X111086691Y-78238642D01*
X111086695Y-78238648D01*
X111089612Y-78244105D01*
X111209640Y-78390360D01*
X111355895Y-78510388D01*
X111464998Y-78568705D01*
X111513676Y-78615050D01*
X111531602Y-78679827D01*
X111531602Y-79217582D01*
X111522011Y-79265800D01*
X111494697Y-79306678D01*
X111270754Y-79530620D01*
X111209266Y-79564463D01*
X111139211Y-79560158D01*
X111082327Y-79519043D01*
X111056266Y-79453874D01*
X111053902Y-79429873D01*
X111042653Y-79315658D01*
X110987731Y-79134603D01*
X110898541Y-78967742D01*
X110778513Y-78821487D01*
X110744911Y-78793911D01*
X110637048Y-78705390D01*
X110637047Y-78705389D01*
X110632258Y-78701459D01*
X110523154Y-78643141D01*
X110474477Y-78596797D01*
X110456551Y-78532020D01*
X110456551Y-59911114D01*
X110459029Y-59887222D01*
X110459080Y-59885985D01*
X110461223Y-59875766D01*
X110457433Y-59845361D01*
X110456901Y-59840225D01*
X110456551Y-59836001D01*
X110456551Y-59830789D01*
X110453288Y-59811239D01*
X110452537Y-59806082D01*
X110447633Y-59766734D01*
X110446342Y-59756376D01*
X110442989Y-59749518D01*
X110441733Y-59741989D01*
X110417885Y-59697923D01*
X110415502Y-59693293D01*
X110398086Y-59657668D01*
X110393500Y-59648287D01*
X110388103Y-59642890D01*
X110384470Y-59636176D01*
X110347599Y-59602234D01*
X110343841Y-59598628D01*
X105997405Y-55252192D01*
X105970091Y-55211315D01*
X105960500Y-55163097D01*
X105960500Y-47275654D01*
X105962980Y-47251734D01*
X105963030Y-47250520D01*
X105965173Y-47240301D01*
X105961385Y-47209919D01*
X105960849Y-47204742D01*
X105960500Y-47200533D01*
X105960500Y-47195324D01*
X105957238Y-47175776D01*
X105956487Y-47170621D01*
X105951583Y-47131279D01*
X105950291Y-47120912D01*
X105946938Y-47114054D01*
X105945682Y-47106524D01*
X105921822Y-47062435D01*
X105919456Y-47057838D01*
X105902036Y-47022203D01*
X105902034Y-47022200D01*
X105897450Y-47012823D01*
X105892052Y-47007425D01*
X105888419Y-47000711D01*
X105851548Y-46966769D01*
X105847790Y-46963163D01*
X105003779Y-46119152D01*
X105784250Y-46119152D01*
X105805141Y-46264456D01*
X105866123Y-46397988D01*
X105872025Y-46404799D01*
X105932086Y-46474113D01*
X105962256Y-46508930D01*
X106085750Y-46588295D01*
X106226601Y-46629652D01*
X106229581Y-46629652D01*
X106285854Y-46653549D01*
X106324967Y-46704828D01*
X106326979Y-46709684D01*
X106335497Y-46741465D01*
X106343518Y-46802380D01*
X106344596Y-46818829D01*
X106344596Y-54254639D01*
X106342115Y-54278558D01*
X106342064Y-54279778D01*
X106339923Y-54289992D01*
X106341214Y-54300349D01*
X106341214Y-54300350D01*
X106343710Y-54320374D01*
X106344246Y-54325549D01*
X106344596Y-54329775D01*
X106344596Y-54334969D01*
X106345450Y-54340088D01*
X106345451Y-54340098D01*
X106347859Y-54354528D01*
X106348608Y-54359673D01*
X106353513Y-54399022D01*
X106353514Y-54399025D01*
X106354805Y-54409382D01*
X106358157Y-54416239D01*
X106359414Y-54423769D01*
X106364380Y-54432946D01*
X106364381Y-54432948D01*
X106383260Y-54467833D01*
X106385643Y-54472462D01*
X106402997Y-54507961D01*
X106407647Y-54517471D01*
X106413043Y-54522867D01*
X106416677Y-54529582D01*
X106424355Y-54536650D01*
X106424356Y-54536651D01*
X106453559Y-54563534D01*
X106457317Y-54567141D01*
X108653599Y-56763423D01*
X108677176Y-56796118D01*
X108689221Y-56834586D01*
X108703857Y-56936381D01*
X108703859Y-56936387D01*
X108705141Y-56945304D01*
X108766123Y-57078836D01*
X108862256Y-57189778D01*
X108985750Y-57269143D01*
X109126601Y-57310500D01*
X109264390Y-57310500D01*
X109273399Y-57310500D01*
X109414250Y-57269143D01*
X109537744Y-57189778D01*
X109633877Y-57078836D01*
X109694859Y-56945304D01*
X109715750Y-56800000D01*
X109694859Y-56654696D01*
X109633877Y-56521164D01*
X109537744Y-56410222D01*
X109414250Y-56330857D01*
X109405606Y-56328318D01*
X109405604Y-56328318D01*
X109282043Y-56292038D01*
X109282042Y-56292037D01*
X109273399Y-56289500D01*
X109264390Y-56289500D01*
X109251514Y-56289500D01*
X109203296Y-56279909D01*
X109162419Y-56252595D01*
X107102501Y-54192677D01*
X107075187Y-54151800D01*
X107065596Y-54103582D01*
X107065596Y-46867792D01*
X107065597Y-46867789D01*
X107065596Y-46810753D01*
X107065604Y-46810691D01*
X107065613Y-46810691D01*
X107065612Y-46727891D01*
X107039703Y-46564330D01*
X106988526Y-46406837D01*
X106913340Y-46259289D01*
X106835137Y-46151662D01*
X106812353Y-46095531D01*
X106794859Y-45973848D01*
X106733877Y-45840316D01*
X106637744Y-45729374D01*
X106514250Y-45650009D01*
X106505606Y-45647470D01*
X106505604Y-45647470D01*
X106382043Y-45611190D01*
X106382042Y-45611189D01*
X106373399Y-45608652D01*
X106226601Y-45608652D01*
X106217958Y-45611189D01*
X106217956Y-45611190D01*
X106094395Y-45647470D01*
X106094391Y-45647471D01*
X106085750Y-45650009D01*
X106078172Y-45654879D01*
X106078170Y-45654880D01*
X105969836Y-45724502D01*
X105969833Y-45724504D01*
X105962256Y-45729374D01*
X105956358Y-45736180D01*
X105956354Y-45736184D01*
X105872025Y-45833504D01*
X105872022Y-45833507D01*
X105866123Y-45840316D01*
X105862380Y-45848510D01*
X105862379Y-45848513D01*
X105808883Y-45965653D01*
X105808882Y-45965656D01*
X105805141Y-45973848D01*
X105803859Y-45982763D01*
X105803859Y-45982764D01*
X105788513Y-46089500D01*
X105784250Y-46119152D01*
X105003779Y-46119152D01*
X101465393Y-42580766D01*
X101450248Y-42562116D01*
X101449410Y-42561206D01*
X101443699Y-42552464D01*
X101419500Y-42533629D01*
X101415486Y-42530369D01*
X101412281Y-42527654D01*
X101408592Y-42523965D01*
X101404351Y-42520937D01*
X101404349Y-42520935D01*
X101400114Y-42517911D01*
X101392438Y-42512430D01*
X101388323Y-42509362D01*
X101348755Y-42478566D01*
X101341537Y-42476088D01*
X101335323Y-42471651D01*
X101325314Y-42468671D01*
X101287283Y-42457348D01*
X101282335Y-42455763D01*
X101234960Y-42439500D01*
X101227329Y-42439500D01*
X101220010Y-42437321D01*
X101209579Y-42437752D01*
X101209575Y-42437752D01*
X101169949Y-42439392D01*
X101164741Y-42439500D01*
X99516570Y-42439500D01*
X99472537Y-42431556D01*
X99438974Y-42411641D01*
X99437744Y-42410222D01*
X99314250Y-42330857D01*
X99305606Y-42328318D01*
X99305604Y-42328318D01*
X99182043Y-42292038D01*
X99182042Y-42292037D01*
X99173399Y-42289500D01*
X99026601Y-42289500D01*
X99017958Y-42292037D01*
X99017956Y-42292038D01*
X98894395Y-42328318D01*
X98894391Y-42328319D01*
X98885750Y-42330857D01*
X98878172Y-42335727D01*
X98878170Y-42335728D01*
X98769836Y-42405350D01*
X98769833Y-42405352D01*
X98762256Y-42410222D01*
X98756358Y-42417028D01*
X98756354Y-42417032D01*
X98672025Y-42514352D01*
X98672022Y-42514355D01*
X98666123Y-42521164D01*
X98662380Y-42529358D01*
X98662379Y-42529361D01*
X98608883Y-42646501D01*
X98608882Y-42646504D01*
X98605141Y-42654696D01*
X98584250Y-42800000D01*
X98605141Y-42945304D01*
X98666123Y-43078836D01*
X98762256Y-43189778D01*
X98885750Y-43269143D01*
X99026601Y-43310500D01*
X99164390Y-43310500D01*
X99173399Y-43310500D01*
X99314250Y-43269143D01*
X99437744Y-43189778D01*
X99438974Y-43188358D01*
X99472537Y-43168444D01*
X99516570Y-43160500D01*
X100973289Y-43160500D01*
X101021507Y-43170091D01*
X101062384Y-43197405D01*
X102575291Y-44710312D01*
X102607706Y-44766072D01*
X102608282Y-44830568D01*
X102576867Y-44886898D01*
X102521694Y-44920303D01*
X102494396Y-44928318D01*
X102494393Y-44928318D01*
X102485750Y-44930857D01*
X102478172Y-44935727D01*
X102478170Y-44935728D01*
X102369836Y-45005350D01*
X102369833Y-45005352D01*
X102362256Y-45010222D01*
X102356358Y-45017028D01*
X102356354Y-45017032D01*
X102272025Y-45114352D01*
X102272022Y-45114355D01*
X102266123Y-45121164D01*
X102262380Y-45129358D01*
X102262379Y-45129361D01*
X102208883Y-45246501D01*
X102208882Y-45246504D01*
X102205141Y-45254696D01*
X102203859Y-45263611D01*
X102203859Y-45263612D01*
X102198128Y-45303474D01*
X102184250Y-45400000D01*
X102205141Y-45545304D01*
X102208882Y-45553497D01*
X102208883Y-45553498D01*
X102248615Y-45640500D01*
X102266123Y-45678836D01*
X102362256Y-45789778D01*
X102485750Y-45869143D01*
X102626601Y-45910500D01*
X102648486Y-45910500D01*
X102696704Y-45920091D01*
X102737581Y-45947405D01*
X103392864Y-46602688D01*
X103397129Y-46607166D01*
X103580935Y-46809964D01*
X103588779Y-46819523D01*
X103749935Y-47036817D01*
X103756805Y-47047098D01*
X103895894Y-47279154D01*
X103901723Y-47290059D01*
X104017396Y-47534628D01*
X104022127Y-47546050D01*
X104027588Y-47561312D01*
X104113272Y-47800784D01*
X104116861Y-47812617D01*
X104182598Y-48075056D01*
X104185010Y-48087183D01*
X104224707Y-48354795D01*
X104225919Y-48367100D01*
X104239348Y-48640448D01*
X104239500Y-48646631D01*
X104239500Y-53711345D01*
X104239516Y-53711443D01*
X104239525Y-53711664D01*
X104239524Y-53742004D01*
X104239524Y-53751344D01*
X104240296Y-53756223D01*
X104240297Y-53756229D01*
X104260609Y-53884521D01*
X104260610Y-53884527D01*
X104261383Y-53889406D01*
X104304570Y-54022349D01*
X104368021Y-54146899D01*
X104370925Y-54150897D01*
X104370929Y-54150903D01*
X104445840Y-54254024D01*
X104450175Y-54259991D01*
X104453670Y-54263487D01*
X104453672Y-54263489D01*
X104459233Y-54269051D01*
X104459239Y-54269058D01*
X104459252Y-54269082D01*
X104459306Y-54269136D01*
X104459309Y-54269139D01*
X104493789Y-54303614D01*
X104504658Y-54316006D01*
X104516085Y-54330896D01*
X104532529Y-54359372D01*
X104536525Y-54369017D01*
X104545043Y-54400795D01*
X104547466Y-54419193D01*
X104548545Y-54435645D01*
X104548545Y-56780442D01*
X104540601Y-56824475D01*
X104517769Y-56862955D01*
X104481070Y-56905307D01*
X104481068Y-56905309D01*
X104475168Y-56912119D01*
X104471425Y-56920313D01*
X104471424Y-56920316D01*
X104417928Y-57037456D01*
X104417927Y-57037459D01*
X104414186Y-57045651D01*
X104412904Y-57054566D01*
X104412904Y-57054567D01*
X104403515Y-57119873D01*
X104393295Y-57190955D01*
X104414186Y-57336259D01*
X104475168Y-57469791D01*
X104571301Y-57580733D01*
X104694795Y-57660098D01*
X104835646Y-57701455D01*
X104973435Y-57701455D01*
X104982444Y-57701455D01*
X105123295Y-57660098D01*
X105246789Y-57580733D01*
X105342922Y-57469791D01*
X105403904Y-57336259D01*
X105424795Y-57190955D01*
X105403904Y-57045651D01*
X105342922Y-56912119D01*
X105300321Y-56862955D01*
X105277489Y-56824475D01*
X105269545Y-56780442D01*
X105269545Y-55848170D01*
X105283278Y-55790967D01*
X105321484Y-55746234D01*
X105375834Y-55723721D01*
X105434481Y-55728337D01*
X105484640Y-55759075D01*
X109698646Y-59973081D01*
X109725960Y-60013958D01*
X109735551Y-60062176D01*
X109735551Y-78532020D01*
X109717625Y-78596797D01*
X109668947Y-78643141D01*
X109622494Y-78667971D01*
X109565306Y-78698539D01*
X109565302Y-78698541D01*
X109559844Y-78701459D01*
X109555058Y-78705386D01*
X109555053Y-78705390D01*
X109418373Y-78817560D01*
X109418368Y-78817564D01*
X109413589Y-78821487D01*
X109409666Y-78826266D01*
X109409662Y-78826271D01*
X109297492Y-78962951D01*
X109297488Y-78962956D01*
X109293561Y-78967742D01*
X109290647Y-78973193D01*
X109290640Y-78973204D01*
X109207290Y-79129141D01*
X109207288Y-79129145D01*
X109204371Y-79134603D01*
X109202575Y-79140523D01*
X109202574Y-79140526D01*
X109151245Y-79309735D01*
X109151243Y-79309741D01*
X109149449Y-79315658D01*
X109130904Y-79503949D01*
X109149449Y-79692240D01*
X109204371Y-79873295D01*
X109207290Y-79878756D01*
X109290640Y-80034693D01*
X109290644Y-80034699D01*
X109293561Y-80040156D01*
X109413589Y-80186411D01*
X109559844Y-80306439D01*
X109565302Y-80309356D01*
X109565306Y-80309359D01*
X109613002Y-80334853D01*
X109726705Y-80395629D01*
X109907760Y-80450551D01*
X110045976Y-80464164D01*
X110111145Y-80490225D01*
X110152261Y-80547109D01*
X110156564Y-80617164D01*
X110122721Y-80678652D01*
X109474703Y-81326670D01*
X109413215Y-81360513D01*
X109343160Y-81356210D01*
X109286276Y-81315094D01*
X109260215Y-81249925D01*
X109246602Y-81111709D01*
X109191680Y-80930654D01*
X109116748Y-80790467D01*
X109105410Y-80769255D01*
X109105407Y-80769251D01*
X109102490Y-80763793D01*
X108982462Y-80617538D01*
X108836207Y-80497510D01*
X108830750Y-80494593D01*
X108830744Y-80494589D01*
X108674807Y-80411239D01*
X108669346Y-80408320D01*
X108606675Y-80389309D01*
X108494213Y-80355194D01*
X108494209Y-80355193D01*
X108488291Y-80353398D01*
X108300000Y-80334853D01*
X108293837Y-80335460D01*
X108117871Y-80352791D01*
X108117870Y-80352791D01*
X108111709Y-80353398D01*
X108105788Y-80355193D01*
X108105783Y-80355195D01*
X107993323Y-80389309D01*
X107926132Y-80390958D01*
X107867653Y-80357829D01*
X106797405Y-79287581D01*
X106770091Y-79246704D01*
X106760500Y-79198486D01*
X106760500Y-61350452D01*
X106762978Y-61326560D01*
X106763029Y-61325323D01*
X106765172Y-61315104D01*
X106761382Y-61284699D01*
X106760850Y-61279563D01*
X106760500Y-61275339D01*
X106760500Y-61270127D01*
X106759395Y-61263508D01*
X106757238Y-61250579D01*
X106756486Y-61245420D01*
X106751582Y-61206072D01*
X106750291Y-61195714D01*
X106746938Y-61188856D01*
X106745682Y-61181327D01*
X106721834Y-61137261D01*
X106719451Y-61132631D01*
X106709336Y-61111940D01*
X106697449Y-61087625D01*
X106692052Y-61082228D01*
X106688419Y-61075514D01*
X106651548Y-61041572D01*
X106647790Y-61037966D01*
X103597405Y-57987581D01*
X103570091Y-57946704D01*
X103560500Y-57898486D01*
X103560500Y-52950457D01*
X103562980Y-52926537D01*
X103563030Y-52925323D01*
X103565173Y-52915104D01*
X103561385Y-52884722D01*
X103560849Y-52879545D01*
X103560500Y-52875336D01*
X103560500Y-52870127D01*
X103557238Y-52850579D01*
X103556487Y-52845424D01*
X103551583Y-52806082D01*
X103550291Y-52795715D01*
X103546938Y-52788857D01*
X103545682Y-52781327D01*
X103521822Y-52737238D01*
X103519456Y-52732641D01*
X103502036Y-52697006D01*
X103502034Y-52697003D01*
X103497450Y-52687626D01*
X103492052Y-52682228D01*
X103488419Y-52675514D01*
X103451548Y-52641572D01*
X103447790Y-52637966D01*
X101346400Y-50536576D01*
X101322822Y-50503880D01*
X101310777Y-50465412D01*
X101307435Y-50442169D01*
X101294859Y-50354696D01*
X101233877Y-50221164D01*
X101137744Y-50110222D01*
X101014250Y-50030857D01*
X101005606Y-50028318D01*
X101005604Y-50028318D01*
X100882043Y-49992038D01*
X100882042Y-49992037D01*
X100873399Y-49989500D01*
X100726601Y-49989500D01*
X100717958Y-49992037D01*
X100717956Y-49992038D01*
X100594395Y-50028318D01*
X100594391Y-50028319D01*
X100585750Y-50030857D01*
X100578172Y-50035727D01*
X100578170Y-50035728D01*
X100469836Y-50105350D01*
X100469833Y-50105352D01*
X100462256Y-50110222D01*
X100456358Y-50117028D01*
X100456354Y-50117032D01*
X100372025Y-50214352D01*
X100372022Y-50214355D01*
X100366123Y-50221164D01*
X100362380Y-50229358D01*
X100362379Y-50229361D01*
X100308883Y-50346501D01*
X100308882Y-50346504D01*
X100305141Y-50354696D01*
X100303859Y-50363611D01*
X100303859Y-50363612D01*
X100300648Y-50385946D01*
X100284250Y-50500000D01*
X100285532Y-50508917D01*
X100289029Y-50533241D01*
X100305141Y-50645304D01*
X100308882Y-50653497D01*
X100308883Y-50653498D01*
X100358837Y-50762883D01*
X100366123Y-50778836D01*
X100372025Y-50785647D01*
X100453157Y-50879278D01*
X100462256Y-50889778D01*
X100585750Y-50969143D01*
X100726601Y-51010500D01*
X100748486Y-51010500D01*
X100796704Y-51020091D01*
X100837581Y-51047405D01*
X102802595Y-53012419D01*
X102829909Y-53053296D01*
X102839500Y-53101514D01*
X102839500Y-53925487D01*
X102825767Y-53982690D01*
X102787561Y-54027423D01*
X102733211Y-54049936D01*
X102674564Y-54045320D01*
X102624405Y-54014582D01*
X100906438Y-52296615D01*
X99146400Y-50536576D01*
X99122822Y-50503880D01*
X99110777Y-50465412D01*
X99107435Y-50442169D01*
X99094859Y-50354696D01*
X99033877Y-50221164D01*
X98937744Y-50110222D01*
X98814250Y-50030857D01*
X98805606Y-50028318D01*
X98805604Y-50028318D01*
X98682043Y-49992038D01*
X98682042Y-49992037D01*
X98673399Y-49989500D01*
X98526601Y-49989500D01*
X98517958Y-49992037D01*
X98517956Y-49992038D01*
X98394395Y-50028318D01*
X98394391Y-50028319D01*
X98385750Y-50030857D01*
X98378172Y-50035727D01*
X98378170Y-50035728D01*
X98269836Y-50105350D01*
X98269833Y-50105352D01*
X98262256Y-50110222D01*
X98256358Y-50117028D01*
X98256354Y-50117032D01*
X98172025Y-50214352D01*
X98172022Y-50214355D01*
X98166123Y-50221164D01*
X98162379Y-50229361D01*
X98162377Y-50229365D01*
X98112989Y-50337508D01*
X98075673Y-50384670D01*
X98020747Y-50409163D01*
X97960725Y-50405408D01*
X97909281Y-50374260D01*
X97697405Y-50162384D01*
X97670091Y-50121507D01*
X97660500Y-50073289D01*
X97660500Y-49910513D01*
X97668444Y-49866480D01*
X97691276Y-49828000D01*
X97707811Y-49808917D01*
X97733877Y-49778836D01*
X97794859Y-49645304D01*
X97815750Y-49500000D01*
X97794859Y-49354696D01*
X97733877Y-49221164D01*
X97637744Y-49110222D01*
X97514250Y-49030857D01*
X97505606Y-49028318D01*
X97505604Y-49028318D01*
X97382043Y-48992038D01*
X97382042Y-48992037D01*
X97373399Y-48989500D01*
X97226601Y-48989500D01*
X97217958Y-48992037D01*
X97217956Y-48992038D01*
X97094395Y-49028318D01*
X97094391Y-49028319D01*
X97085750Y-49030857D01*
X97078172Y-49035727D01*
X97078170Y-49035728D01*
X96969836Y-49105350D01*
X96969833Y-49105352D01*
X96962256Y-49110222D01*
X96956358Y-49117028D01*
X96956354Y-49117032D01*
X96872025Y-49214352D01*
X96872022Y-49214355D01*
X96866123Y-49221164D01*
X96862380Y-49229358D01*
X96862379Y-49229361D01*
X96808883Y-49346501D01*
X96808882Y-49346504D01*
X96805141Y-49354696D01*
X96803859Y-49363611D01*
X96803859Y-49363612D01*
X96785532Y-49491083D01*
X96784250Y-49500000D01*
X96805141Y-49645304D01*
X96808882Y-49653497D01*
X96808883Y-49653498D01*
X96846332Y-49735501D01*
X96866123Y-49778836D01*
X96872025Y-49785647D01*
X96908724Y-49828000D01*
X96931556Y-49866480D01*
X96939500Y-49910513D01*
X96939500Y-50224346D01*
X96937019Y-50248265D01*
X96936968Y-50249485D01*
X96934827Y-50259699D01*
X96936118Y-50270056D01*
X96936118Y-50270057D01*
X96938614Y-50290081D01*
X96939150Y-50295256D01*
X96939500Y-50299482D01*
X96939500Y-50304676D01*
X96940354Y-50309795D01*
X96940355Y-50309805D01*
X96942763Y-50324235D01*
X96943512Y-50329380D01*
X96948417Y-50368729D01*
X96948418Y-50368732D01*
X96949709Y-50379089D01*
X96953061Y-50385946D01*
X96954318Y-50393476D01*
X96959284Y-50402653D01*
X96959285Y-50402655D01*
X96978164Y-50437540D01*
X96980547Y-50442169D01*
X97002551Y-50487178D01*
X97007947Y-50492574D01*
X97011581Y-50499289D01*
X97019259Y-50506357D01*
X97019260Y-50506358D01*
X97048463Y-50533241D01*
X97052221Y-50536848D01*
X97302595Y-50787222D01*
X97329909Y-50828099D01*
X97339500Y-50876317D01*
X97339500Y-51649543D01*
X97337019Y-51673462D01*
X97336968Y-51674682D01*
X97334827Y-51684896D01*
X97336118Y-51695253D01*
X97336118Y-51695254D01*
X97338614Y-51715278D01*
X97339150Y-51720453D01*
X97339500Y-51724679D01*
X97339500Y-51729873D01*
X97340354Y-51734992D01*
X97340355Y-51735002D01*
X97342763Y-51749432D01*
X97343512Y-51754577D01*
X97348417Y-51793926D01*
X97348418Y-51793929D01*
X97349709Y-51804286D01*
X97353061Y-51811143D01*
X97354318Y-51818673D01*
X97359284Y-51827850D01*
X97359285Y-51827852D01*
X97378164Y-51862737D01*
X97380547Y-51867366D01*
X97402551Y-51912375D01*
X97407947Y-51917771D01*
X97411581Y-51924486D01*
X97419259Y-51931554D01*
X97419260Y-51931555D01*
X97448463Y-51958438D01*
X97452221Y-51962045D01*
X100902595Y-55412419D01*
X100929909Y-55453296D01*
X100939500Y-55501514D01*
X100939500Y-56735570D01*
X100925008Y-56794237D01*
X100884867Y-56839410D01*
X100828310Y-56860697D01*
X100768346Y-56853201D01*
X100718768Y-56818648D01*
X100690982Y-56764985D01*
X100690607Y-56763423D01*
X100684191Y-56736699D01*
X100567162Y-56376526D01*
X100422234Y-56026645D01*
X100250302Y-55689214D01*
X100052425Y-55366312D01*
X99931759Y-55200233D01*
X99831272Y-55061926D01*
X99831268Y-55061921D01*
X99829823Y-55059932D01*
X99583868Y-54771961D01*
X99449974Y-54638068D01*
X99409600Y-54597694D01*
X96650788Y-51838882D01*
X96650785Y-51838878D01*
X96650786Y-51838878D01*
X96489592Y-51677684D01*
X96487704Y-51676071D01*
X96487697Y-51676065D01*
X96144783Y-51383191D01*
X96144775Y-51383184D01*
X96142902Y-51381585D01*
X96140910Y-51380137D01*
X96140904Y-51380133D01*
X95776054Y-51115057D01*
X95774049Y-51113600D01*
X95771950Y-51112314D01*
X95771940Y-51112307D01*
X95387406Y-50876665D01*
X95387393Y-50876658D01*
X95385308Y-50875380D01*
X95356106Y-50860501D01*
X94981283Y-50669519D01*
X94981282Y-50669518D01*
X94979075Y-50668394D01*
X94976796Y-50667450D01*
X94976783Y-50667444D01*
X94560127Y-50494860D01*
X94560115Y-50494855D01*
X94557854Y-50493919D01*
X94555509Y-50493157D01*
X94126608Y-50353799D01*
X94126597Y-50353796D01*
X94124243Y-50353031D01*
X94121846Y-50352455D01*
X94121830Y-50352451D01*
X93683311Y-50247171D01*
X93683305Y-50247169D01*
X93680915Y-50246596D01*
X93678483Y-50246210D01*
X93678479Y-50246210D01*
X93233025Y-50175656D01*
X93233005Y-50175653D01*
X93230602Y-50175273D01*
X93228171Y-50175081D01*
X93228157Y-50175080D01*
X92778538Y-50139693D01*
X92778530Y-50139692D01*
X92776082Y-50139500D01*
X92773613Y-50139500D01*
X92548119Y-50139500D01*
X92491029Y-50139499D01*
X92491022Y-50139499D01*
X92491019Y-50139499D01*
X92491018Y-50139500D01*
X85278286Y-50139500D01*
X85216328Y-50123214D01*
X85170386Y-50078566D01*
X85152337Y-50017098D01*
X85166847Y-49954700D01*
X85210165Y-49907502D01*
X85210215Y-49907469D01*
X85237744Y-49889778D01*
X85333877Y-49778836D01*
X85394859Y-49645304D01*
X85415750Y-49500000D01*
X85401759Y-49402688D01*
X85406925Y-49344967D01*
X85437378Y-49295667D01*
X86360644Y-48372402D01*
X86401519Y-48345091D01*
X86449737Y-48335500D01*
X100338130Y-48335500D01*
X100386348Y-48345091D01*
X100427225Y-48372405D01*
X101696222Y-49641402D01*
X101699878Y-49645391D01*
X101704690Y-49653724D01*
X101713131Y-49660806D01*
X101713133Y-49660808D01*
X101724413Y-49670271D01*
X101732523Y-49677703D01*
X101738845Y-49684025D01*
X101744382Y-49687620D01*
X101748685Y-49691105D01*
X101753425Y-49694611D01*
X101768314Y-49707103D01*
X101778672Y-49710872D01*
X101788220Y-49716384D01*
X101788076Y-49716633D01*
X101790475Y-49717554D01*
X101801586Y-49724769D01*
X101810705Y-49726213D01*
X101861470Y-49763371D01*
X101887704Y-49824034D01*
X101903857Y-49936381D01*
X101903859Y-49936387D01*
X101905141Y-49945304D01*
X101966123Y-50078836D01*
X102062256Y-50189778D01*
X102185750Y-50269143D01*
X102326601Y-50310500D01*
X102464390Y-50310500D01*
X102473399Y-50310500D01*
X102614250Y-50269143D01*
X102737744Y-50189778D01*
X102833877Y-50078836D01*
X102894859Y-49945304D01*
X102915750Y-49800000D01*
X102894859Y-49654696D01*
X102833877Y-49521164D01*
X102737744Y-49410222D01*
X102614250Y-49330857D01*
X102605606Y-49328318D01*
X102605604Y-49328318D01*
X102482043Y-49292038D01*
X102482042Y-49292037D01*
X102473399Y-49289500D01*
X102326601Y-49289500D01*
X102317963Y-49292036D01*
X102317958Y-49292037D01*
X102234865Y-49316435D01*
X102192627Y-49321357D01*
X102151156Y-49311949D01*
X102136002Y-49305673D01*
X102105938Y-49293221D01*
X102076043Y-49287276D01*
X102028836Y-49277888D01*
X101994018Y-49265431D01*
X101964317Y-49243403D01*
X100661096Y-47940182D01*
X100656554Y-47935397D01*
X100638243Y-47915060D01*
X100638242Y-47915059D01*
X100629383Y-47905220D01*
X100613349Y-47898081D01*
X100609635Y-47896427D01*
X100592263Y-47886994D01*
X100585253Y-47882442D01*
X100585250Y-47882441D01*
X100574148Y-47875231D01*
X100561072Y-47873159D01*
X100555674Y-47871087D01*
X100550020Y-47869885D01*
X100537924Y-47864500D01*
X100524682Y-47864500D01*
X100516318Y-47864500D01*
X100496607Y-47862949D01*
X100488345Y-47861640D01*
X100488342Y-47861640D01*
X100475267Y-47859569D01*
X100462475Y-47862996D01*
X100449251Y-47863690D01*
X100449231Y-47863321D01*
X100440278Y-47864500D01*
X86309457Y-47864500D01*
X86302862Y-47864327D01*
X86275560Y-47862896D01*
X86262337Y-47862203D01*
X86249979Y-47866946D01*
X86249970Y-47866948D01*
X86242157Y-47869948D01*
X86223205Y-47875562D01*
X86215024Y-47877301D01*
X86215023Y-47877301D01*
X86202074Y-47880054D01*
X86191365Y-47887833D01*
X86186081Y-47890186D01*
X86181229Y-47893336D01*
X86168872Y-47898081D01*
X86159510Y-47907441D01*
X86159509Y-47907443D01*
X86153593Y-47913359D01*
X86138570Y-47926189D01*
X86131796Y-47931110D01*
X86131788Y-47931118D01*
X86121080Y-47938899D01*
X86114459Y-47950364D01*
X86105599Y-47960206D01*
X86105325Y-47959959D01*
X86099822Y-47967129D01*
X85106697Y-48960254D01*
X85048765Y-48993245D01*
X84991125Y-48992216D01*
X84990967Y-48993321D01*
X84982175Y-48992057D01*
X84982108Y-48992056D01*
X84982050Y-48992039D01*
X84982043Y-48992038D01*
X84973399Y-48989500D01*
X84826601Y-48989500D01*
X84817958Y-48992037D01*
X84817956Y-48992038D01*
X84694395Y-49028318D01*
X84694391Y-49028319D01*
X84685750Y-49030857D01*
X84678172Y-49035727D01*
X84678170Y-49035728D01*
X84569836Y-49105350D01*
X84569833Y-49105352D01*
X84562256Y-49110222D01*
X84556358Y-49117028D01*
X84556354Y-49117032D01*
X84472025Y-49214352D01*
X84472022Y-49214355D01*
X84466123Y-49221164D01*
X84462380Y-49229358D01*
X84462379Y-49229361D01*
X84408883Y-49346501D01*
X84408882Y-49346504D01*
X84405141Y-49354696D01*
X84403859Y-49363611D01*
X84403859Y-49363612D01*
X84385532Y-49491083D01*
X84384250Y-49500000D01*
X84405141Y-49645304D01*
X84408882Y-49653497D01*
X84408883Y-49653498D01*
X84446332Y-49735501D01*
X84466123Y-49778836D01*
X84562256Y-49889778D01*
X84589700Y-49907415D01*
X84589835Y-49907502D01*
X84633153Y-49954700D01*
X84647663Y-50017098D01*
X84629614Y-50078566D01*
X84583672Y-50123214D01*
X84521714Y-50139500D01*
X84283443Y-50139500D01*
X84283441Y-50139499D01*
X84283439Y-50139499D01*
X84283431Y-50139499D01*
X84229426Y-50139499D01*
X84223245Y-50139347D01*
X83883005Y-50122637D01*
X83870699Y-50121425D01*
X83536796Y-50071899D01*
X83524669Y-50069487D01*
X83197228Y-49987472D01*
X83185396Y-49983883D01*
X82867561Y-49870165D01*
X82856137Y-49865433D01*
X82550995Y-49721117D01*
X82540090Y-49715289D01*
X82250552Y-49541753D01*
X82240271Y-49534884D01*
X81969133Y-49333802D01*
X81959574Y-49325957D01*
X81707882Y-49097844D01*
X81703402Y-49093578D01*
X81691304Y-49081480D01*
X81691300Y-49081475D01*
X81653119Y-49043295D01*
X81648854Y-49038815D01*
X81607551Y-48993245D01*
X81432228Y-48799809D01*
X81424385Y-48790253D01*
X81416443Y-48779545D01*
X81234071Y-48533647D01*
X81227203Y-48523367D01*
X81062964Y-48249354D01*
X81057140Y-48238460D01*
X80920535Y-47949635D01*
X80915814Y-47938234D01*
X80808180Y-47637421D01*
X80804600Y-47625619D01*
X80726970Y-47315703D01*
X80724558Y-47303576D01*
X80708500Y-47195324D01*
X80677681Y-46987565D01*
X80676470Y-46975265D01*
X80675875Y-46963163D01*
X80660652Y-46653276D01*
X80660500Y-46647094D01*
X80660500Y-45589958D01*
X80677381Y-45526958D01*
X80723497Y-45480840D01*
X80736478Y-45473346D01*
X80779912Y-45429912D01*
X80820286Y-45389538D01*
X80820285Y-45389538D01*
X81262419Y-44947404D01*
X81303297Y-44920091D01*
X81351515Y-44910500D01*
X81364390Y-44910500D01*
X81373399Y-44910500D01*
X81514250Y-44869143D01*
X81637744Y-44789778D01*
X81733877Y-44678836D01*
X81794859Y-44545304D01*
X81815750Y-44400000D01*
X81794859Y-44254696D01*
X81733877Y-44121164D01*
X81637744Y-44010222D01*
X81514250Y-43930857D01*
X81505606Y-43928318D01*
X81505604Y-43928318D01*
X81382043Y-43892038D01*
X81382042Y-43892037D01*
X81373399Y-43889500D01*
X81226601Y-43889500D01*
X81217958Y-43892037D01*
X81217956Y-43892038D01*
X81094395Y-43928318D01*
X81094391Y-43928319D01*
X81085750Y-43930857D01*
X81078172Y-43935727D01*
X81078170Y-43935728D01*
X80969836Y-44005350D01*
X80969833Y-44005352D01*
X80962256Y-44010222D01*
X80956358Y-44017028D01*
X80956354Y-44017032D01*
X80881724Y-44103160D01*
X80832213Y-44138062D01*
X80772137Y-44145826D01*
X80715380Y-44124656D01*
X80675061Y-44079447D01*
X80660500Y-44020647D01*
X80660500Y-40700000D01*
X88684250Y-40700000D01*
X88705141Y-40845304D01*
X88766123Y-40978836D01*
X88862256Y-41089778D01*
X88985750Y-41169143D01*
X89126601Y-41210500D01*
X89264390Y-41210500D01*
X89273399Y-41210500D01*
X89414250Y-41169143D01*
X89537744Y-41089778D01*
X89538974Y-41088358D01*
X89572537Y-41068444D01*
X89616570Y-41060500D01*
X103698486Y-41060500D01*
X103746704Y-41070091D01*
X103787581Y-41097405D01*
X111602595Y-48912418D01*
X111629909Y-48953295D01*
X111639500Y-49001513D01*
X111639500Y-62617886D01*
X111637019Y-62641805D01*
X111636968Y-62643025D01*
X111634827Y-62653239D01*
X111636118Y-62663596D01*
X111636118Y-62663597D01*
X111638614Y-62683621D01*
X111639150Y-62688796D01*
X111639500Y-62693022D01*
X111639500Y-62698216D01*
X111640354Y-62703335D01*
X111640355Y-62703345D01*
X111642763Y-62717775D01*
X111643512Y-62722920D01*
X111648417Y-62762269D01*
X111648418Y-62762272D01*
X111649709Y-62772629D01*
X111653061Y-62779486D01*
X111654318Y-62787016D01*
X111659284Y-62796193D01*
X111659285Y-62796195D01*
X111678164Y-62831080D01*
X111680547Y-62835709D01*
X111702551Y-62880718D01*
X111707947Y-62886114D01*
X111711581Y-62892829D01*
X111719259Y-62899897D01*
X111719260Y-62899898D01*
X111748463Y-62926781D01*
X111752221Y-62930388D01*
X113290749Y-64468916D01*
X113318063Y-64509793D01*
X113327654Y-64558011D01*
X113327654Y-74939917D01*
X113309728Y-75004694D01*
X113261050Y-75051038D01*
X113214597Y-75075868D01*
X113157409Y-75106436D01*
X113157405Y-75106438D01*
X113151947Y-75109356D01*
X113147161Y-75113283D01*
X113147156Y-75113287D01*
X113010476Y-75225457D01*
X113010471Y-75225461D01*
X113005692Y-75229384D01*
X113001769Y-75234163D01*
X113001765Y-75234168D01*
X112889595Y-75370848D01*
X112889591Y-75370853D01*
X112885664Y-75375639D01*
X112882750Y-75381090D01*
X112882743Y-75381101D01*
X112799393Y-75537038D01*
X112799391Y-75537042D01*
X112796474Y-75542500D01*
X112794678Y-75548420D01*
X112794677Y-75548423D01*
X112743348Y-75717632D01*
X112743346Y-75717638D01*
X112741552Y-75723555D01*
X112723007Y-75911846D01*
X112741552Y-76100137D01*
X112796474Y-76281192D01*
X112799393Y-76286653D01*
X112882743Y-76442590D01*
X112882747Y-76442596D01*
X112885664Y-76448053D01*
X112889594Y-76452842D01*
X112889595Y-76452843D01*
X112919907Y-76489779D01*
X113005692Y-76594308D01*
X113151947Y-76714336D01*
X113157405Y-76717253D01*
X113157409Y-76717256D01*
X113235377Y-76758931D01*
X113318808Y-76803526D01*
X113499863Y-76858448D01*
X113688154Y-76876993D01*
X113876445Y-76858448D01*
X114057500Y-76803526D01*
X114224361Y-76714336D01*
X114370616Y-76594308D01*
X114490644Y-76448053D01*
X114579834Y-76281192D01*
X114634756Y-76100137D01*
X114653301Y-75911846D01*
X114634756Y-75723555D01*
X114579834Y-75542500D01*
X114490644Y-75375639D01*
X114370616Y-75229384D01*
X114224361Y-75109356D01*
X114115257Y-75051038D01*
X114066580Y-75004694D01*
X114048654Y-74939917D01*
X114048654Y-69832167D01*
X121099500Y-69832167D01*
X121101073Y-69839059D01*
X121101074Y-69839067D01*
X121130042Y-69965985D01*
X121130043Y-69965987D01*
X121131617Y-69972882D01*
X121134684Y-69979251D01*
X121134686Y-69979256D01*
X121191168Y-70096543D01*
X121191170Y-70096546D01*
X121194241Y-70102923D01*
X121198651Y-70108453D01*
X121198653Y-70108456D01*
X121238739Y-70158722D01*
X121284232Y-70215768D01*
X121397077Y-70305759D01*
X121403455Y-70308830D01*
X121403456Y-70308831D01*
X121460285Y-70336198D01*
X121527118Y-70368383D01*
X121534013Y-70369956D01*
X121534014Y-70369957D01*
X121593284Y-70383485D01*
X121667833Y-70400500D01*
X121674911Y-70400500D01*
X123000000Y-70400500D01*
X123072170Y-70400509D01*
X123212895Y-70368407D01*
X123342945Y-70305788D01*
X123455796Y-70215796D01*
X123545788Y-70102945D01*
X123608407Y-69972895D01*
X123640509Y-69832170D01*
X123640500Y-69760000D01*
X123640500Y-69759500D01*
X123640500Y-57699901D01*
X123640500Y-45639901D01*
X123640500Y-45567833D01*
X123608383Y-45427118D01*
X123545759Y-45297077D01*
X123518599Y-45263020D01*
X123460174Y-45189757D01*
X123455768Y-45184232D01*
X123408647Y-45146654D01*
X123348456Y-45098653D01*
X123348453Y-45098651D01*
X123342923Y-45094241D01*
X123336546Y-45091170D01*
X123336543Y-45091168D01*
X123219256Y-45034686D01*
X123219251Y-45034684D01*
X123212882Y-45031617D01*
X123205991Y-45030044D01*
X123205985Y-45030042D01*
X123079067Y-45001074D01*
X123079059Y-45001073D01*
X123072167Y-44999500D01*
X123000099Y-44999500D01*
X121739901Y-44999500D01*
X121739900Y-44999500D01*
X121674909Y-44999509D01*
X121674908Y-44999509D01*
X121667836Y-44999510D01*
X121660945Y-45001083D01*
X121660941Y-45001084D01*
X121534021Y-45030068D01*
X121534018Y-45030069D01*
X121527130Y-45031642D01*
X121520766Y-45034707D01*
X121520758Y-45034710D01*
X121403474Y-45091201D01*
X121403467Y-45091204D01*
X121397100Y-45094272D01*
X121391574Y-45098678D01*
X121391569Y-45098682D01*
X121289786Y-45179854D01*
X121289781Y-45179858D01*
X121284261Y-45184261D01*
X121279858Y-45189781D01*
X121279854Y-45189786D01*
X121198682Y-45291569D01*
X121198678Y-45291574D01*
X121194272Y-45297100D01*
X121191204Y-45303467D01*
X121191201Y-45303474D01*
X121134710Y-45420758D01*
X121134707Y-45420766D01*
X121131642Y-45427130D01*
X121130070Y-45434014D01*
X121130068Y-45434021D01*
X121101084Y-45560941D01*
X121101083Y-45560945D01*
X121099510Y-45567836D01*
X121099500Y-45639900D01*
X121099500Y-45639901D01*
X121099500Y-57699901D01*
X121099500Y-69759500D01*
X121099500Y-69760000D01*
X121099500Y-69832167D01*
X114048654Y-69832167D01*
X114048654Y-64406949D01*
X114051132Y-64383057D01*
X114051183Y-64381820D01*
X114053326Y-64371601D01*
X114049536Y-64341196D01*
X114049004Y-64336060D01*
X114048654Y-64331836D01*
X114048654Y-64326624D01*
X114045391Y-64307074D01*
X114044640Y-64301917D01*
X114039736Y-64262569D01*
X114038445Y-64252211D01*
X114035092Y-64245353D01*
X114033836Y-64237824D01*
X114009988Y-64193758D01*
X114007605Y-64189128D01*
X113990189Y-64153503D01*
X113985603Y-64144122D01*
X113980206Y-64138725D01*
X113976573Y-64132011D01*
X113939702Y-64098069D01*
X113935944Y-64094463D01*
X112397405Y-62555924D01*
X112370091Y-62515047D01*
X112360500Y-62466829D01*
X112360500Y-48850457D01*
X112362980Y-48826537D01*
X112363030Y-48825323D01*
X112365173Y-48815104D01*
X112361385Y-48784722D01*
X112360849Y-48779545D01*
X112360500Y-48775336D01*
X112360500Y-48770127D01*
X112357238Y-48750579D01*
X112356487Y-48745424D01*
X112351583Y-48706082D01*
X112350291Y-48695715D01*
X112346938Y-48688857D01*
X112345682Y-48681327D01*
X112321822Y-48637238D01*
X112319456Y-48632641D01*
X112302036Y-48597006D01*
X112302034Y-48597003D01*
X112297450Y-48587626D01*
X112292052Y-48582228D01*
X112288419Y-48575514D01*
X112251548Y-48541572D01*
X112247790Y-48537966D01*
X104190590Y-40480766D01*
X104175445Y-40462116D01*
X104174607Y-40461206D01*
X104168896Y-40452464D01*
X104144697Y-40433629D01*
X104140683Y-40430369D01*
X104137478Y-40427654D01*
X104133789Y-40423965D01*
X104129548Y-40420937D01*
X104129546Y-40420935D01*
X104125311Y-40417911D01*
X104117635Y-40412430D01*
X104113520Y-40409362D01*
X104073952Y-40378566D01*
X104066734Y-40376088D01*
X104060520Y-40371651D01*
X104050511Y-40368671D01*
X104012480Y-40357348D01*
X104007532Y-40355763D01*
X103960157Y-40339500D01*
X103952526Y-40339500D01*
X103945207Y-40337321D01*
X103934776Y-40337752D01*
X103934772Y-40337752D01*
X103895146Y-40339392D01*
X103889938Y-40339500D01*
X89616570Y-40339500D01*
X89572537Y-40331556D01*
X89538974Y-40311641D01*
X89537744Y-40310222D01*
X89414250Y-40230857D01*
X89405606Y-40228318D01*
X89405604Y-40228318D01*
X89282043Y-40192038D01*
X89282042Y-40192037D01*
X89273399Y-40189500D01*
X89126601Y-40189500D01*
X89117958Y-40192037D01*
X89117956Y-40192038D01*
X88994395Y-40228318D01*
X88994391Y-40228319D01*
X88985750Y-40230857D01*
X88978172Y-40235727D01*
X88978170Y-40235728D01*
X88869836Y-40305350D01*
X88869833Y-40305352D01*
X88862256Y-40310222D01*
X88856358Y-40317028D01*
X88856354Y-40317032D01*
X88772025Y-40414352D01*
X88772022Y-40414355D01*
X88766123Y-40421164D01*
X88762380Y-40429358D01*
X88762379Y-40429361D01*
X88708883Y-40546501D01*
X88708882Y-40546504D01*
X88705141Y-40554696D01*
X88684250Y-40700000D01*
X80660500Y-40700000D01*
X80660500Y-37010644D01*
X80660500Y-37010639D01*
X80660504Y-37010628D01*
X80660500Y-36959714D01*
X80661106Y-36947370D01*
X80668752Y-36869696D01*
X80673570Y-36845469D01*
X80683073Y-36814134D01*
X80694421Y-36776722D01*
X80703868Y-36753911D01*
X80737732Y-36690554D01*
X80751458Y-36670012D01*
X80762495Y-36656564D01*
X80806021Y-36622597D01*
X80859892Y-36610500D01*
X80864390Y-36610500D01*
X80873399Y-36610500D01*
X81014250Y-36569143D01*
X81137744Y-36489778D01*
X81233877Y-36378836D01*
X81294859Y-36245304D01*
X81315750Y-36100000D01*
X81294859Y-35954696D01*
X81233877Y-35821164D01*
X81137744Y-35710222D01*
X81014250Y-35630857D01*
X81005606Y-35628318D01*
X81005604Y-35628318D01*
X80882043Y-35592038D01*
X80882042Y-35592037D01*
X80873399Y-35589500D01*
X80726601Y-35589500D01*
X80717958Y-35592037D01*
X80717956Y-35592038D01*
X80594395Y-35628318D01*
X80594391Y-35628319D01*
X80585750Y-35630857D01*
X80578172Y-35635727D01*
X80578170Y-35635728D01*
X80469836Y-35705350D01*
X80469833Y-35705352D01*
X80462256Y-35710222D01*
X80456358Y-35717028D01*
X80456354Y-35717032D01*
X80372025Y-35814352D01*
X80372022Y-35814355D01*
X80366123Y-35821164D01*
X80362380Y-35829358D01*
X80362379Y-35829361D01*
X80308883Y-35946501D01*
X80308882Y-35946504D01*
X80305141Y-35954696D01*
X80303859Y-35963609D01*
X80303859Y-35963611D01*
X80289228Y-36065375D01*
X80277183Y-36103841D01*
X80253609Y-36136535D01*
X80231005Y-36159140D01*
X80231000Y-36159145D01*
X80227508Y-36162638D01*
X80224606Y-36166630D01*
X80224601Y-36166638D01*
X80118091Y-36313240D01*
X80118087Y-36313246D01*
X80115182Y-36317245D01*
X80112939Y-36321646D01*
X80112933Y-36321657D01*
X80030677Y-36483105D01*
X80030673Y-36483114D01*
X80028428Y-36487521D01*
X80026898Y-36492229D01*
X80026896Y-36492235D01*
X79970911Y-36664558D01*
X79970909Y-36664563D01*
X79969380Y-36669272D01*
X79968606Y-36674155D01*
X79968605Y-36674163D01*
X79940268Y-36853138D01*
X79940267Y-36853145D01*
X79939495Y-36858024D01*
X79939495Y-36862967D01*
X79939495Y-36862971D01*
X79939500Y-36953531D01*
X79939500Y-44936849D01*
X79939499Y-44936859D01*
X79939492Y-44936882D01*
X79939492Y-44936950D01*
X79939492Y-44936951D01*
X79939499Y-44993923D01*
X79939492Y-44993979D01*
X79939486Y-44993979D01*
X79939486Y-44994029D01*
X79939486Y-44994030D01*
X79939491Y-45054631D01*
X79939491Y-45054649D01*
X79939492Y-45054701D01*
X79939495Y-45054720D01*
X79939500Y-45054794D01*
X79939500Y-45145342D01*
X79939486Y-45145518D01*
X79939402Y-45145798D01*
X79939403Y-45146648D01*
X79939403Y-45146654D01*
X79939500Y-45205787D01*
X79939500Y-45206091D01*
X79939469Y-45246501D01*
X79939456Y-45262884D01*
X79939495Y-45263004D01*
X79939500Y-45263067D01*
X79939500Y-46649966D01*
X79939496Y-46650000D01*
X79939491Y-46650000D01*
X79939491Y-46829121D01*
X79939728Y-46831838D01*
X79939729Y-46831844D01*
X79970474Y-47183263D01*
X79970475Y-47183277D01*
X79970714Y-47185999D01*
X79971190Y-47188701D01*
X79971191Y-47188705D01*
X80003956Y-47374521D01*
X80032923Y-47538798D01*
X80033628Y-47541429D01*
X80033630Y-47541438D01*
X80124932Y-47882181D01*
X80124936Y-47882194D01*
X80125643Y-47884832D01*
X80151328Y-47955399D01*
X80194879Y-48075056D01*
X80248170Y-48221469D01*
X80249327Y-48223950D01*
X80249329Y-48223955D01*
X80398406Y-48543649D01*
X80399570Y-48546145D01*
X80400946Y-48548528D01*
X80577322Y-48854018D01*
X80577327Y-48854026D01*
X80578692Y-48856390D01*
X80580264Y-48858635D01*
X80761196Y-49117032D01*
X80784172Y-49149844D01*
X81014447Y-49424271D01*
X81016396Y-49426220D01*
X81016397Y-49426221D01*
X81098565Y-49508388D01*
X81098565Y-49508389D01*
X81154709Y-49564533D01*
X81154718Y-49564543D01*
X81194966Y-49604790D01*
X81195076Y-49604933D01*
X81195059Y-49604951D01*
X81327409Y-49737296D01*
X81614172Y-49977911D01*
X81616421Y-49979485D01*
X81616424Y-49979488D01*
X81907032Y-50182967D01*
X81920815Y-50192617D01*
X82245003Y-50379780D01*
X82584270Y-50537976D01*
X82936034Y-50666002D01*
X83297617Y-50762883D01*
X83666268Y-50827881D01*
X84039181Y-50860502D01*
X84226349Y-50860500D01*
X84283447Y-50860500D01*
X92491019Y-50860500D01*
X92545639Y-50860500D01*
X92550585Y-50860596D01*
X92941831Y-50875969D01*
X92951673Y-50876744D01*
X93338075Y-50922478D01*
X93347806Y-50924020D01*
X93729427Y-50999929D01*
X93739020Y-51002233D01*
X94113493Y-51107846D01*
X94122876Y-51110895D01*
X94487922Y-51245567D01*
X94497031Y-51249340D01*
X94850364Y-51412229D01*
X94859179Y-51416720D01*
X95198642Y-51606827D01*
X95207078Y-51611997D01*
X95530565Y-51828143D01*
X95538568Y-51833958D01*
X95844105Y-52074822D01*
X95851624Y-52081243D01*
X96055369Y-52269581D01*
X96139138Y-52347016D01*
X96142704Y-52350446D01*
X97973680Y-54181422D01*
X98006096Y-54237184D01*
X98006670Y-54301682D01*
X97975252Y-54358013D01*
X97920075Y-54391416D01*
X97917888Y-54392058D01*
X97851233Y-54393244D01*
X97793303Y-54360255D01*
X97369031Y-53935984D01*
X97369031Y-53935983D01*
X97354074Y-53921026D01*
X97354030Y-53920969D01*
X97354038Y-53920962D01*
X97249491Y-53816416D01*
X97247096Y-53814450D01*
X97247090Y-53814445D01*
X97023311Y-53630795D01*
X97023303Y-53630789D01*
X97020911Y-53628826D01*
X97018342Y-53627109D01*
X97018336Y-53627105D01*
X96777615Y-53466263D01*
X96775044Y-53464545D01*
X96736026Y-53443690D01*
X96516999Y-53326619D01*
X96516997Y-53326618D01*
X96514258Y-53325154D01*
X96511391Y-53323966D01*
X96511388Y-53323965D01*
X96243921Y-53213179D01*
X96243914Y-53213176D01*
X96241064Y-53211996D01*
X96238119Y-53211102D01*
X96238106Y-53211098D01*
X95961059Y-53127061D01*
X95961057Y-53127060D01*
X95958095Y-53126162D01*
X95955056Y-53125557D01*
X95955054Y-53125557D01*
X95671117Y-53069082D01*
X95671115Y-53069081D01*
X95668075Y-53068477D01*
X95664996Y-53068173D01*
X95664984Y-53068172D01*
X95376880Y-53039801D01*
X95376867Y-53039800D01*
X95373797Y-53039498D01*
X95370703Y-53039498D01*
X95225947Y-53039500D01*
X85531445Y-53039500D01*
X85526497Y-53039403D01*
X85125451Y-53023643D01*
X85115588Y-53022867D01*
X84719472Y-52975981D01*
X84709701Y-52974433D01*
X84318489Y-52896614D01*
X84308869Y-52894304D01*
X83924976Y-52786034D01*
X83915567Y-52782977D01*
X83642478Y-52682228D01*
X83541341Y-52644916D01*
X83532203Y-52641131D01*
X83421795Y-52590232D01*
X83169961Y-52474134D01*
X83161148Y-52469643D01*
X82813142Y-52274750D01*
X82804706Y-52269581D01*
X82473050Y-52047975D01*
X82465046Y-52042160D01*
X82207177Y-51838874D01*
X82151798Y-51795216D01*
X82144278Y-51788794D01*
X82107262Y-51754577D01*
X81849337Y-51516153D01*
X81845771Y-51512724D01*
X81818368Y-51485320D01*
X81818366Y-51485319D01*
X77137382Y-46804335D01*
X77106925Y-46755031D01*
X77101760Y-46697308D01*
X77114468Y-46608922D01*
X77114468Y-46608917D01*
X77115750Y-46600000D01*
X77094859Y-46454696D01*
X77033877Y-46321164D01*
X76937744Y-46210222D01*
X76814250Y-46130857D01*
X76805606Y-46128318D01*
X76805604Y-46128318D01*
X76682043Y-46092038D01*
X76682042Y-46092037D01*
X76673399Y-46089500D01*
X76526601Y-46089500D01*
X76517958Y-46092037D01*
X76517956Y-46092038D01*
X76394395Y-46128318D01*
X76394391Y-46128319D01*
X76385750Y-46130857D01*
X76378172Y-46135727D01*
X76378170Y-46135728D01*
X76269836Y-46205350D01*
X76269833Y-46205352D01*
X76262256Y-46210222D01*
X76256358Y-46217028D01*
X76256354Y-46217032D01*
X76172025Y-46314352D01*
X76172022Y-46314355D01*
X76166123Y-46321164D01*
X76162380Y-46329358D01*
X76162379Y-46329361D01*
X76108883Y-46446501D01*
X76108882Y-46446504D01*
X76105141Y-46454696D01*
X76103859Y-46463611D01*
X76103859Y-46463612D01*
X76088675Y-46569222D01*
X76084250Y-46600000D01*
X76105141Y-46745304D01*
X76108882Y-46753497D01*
X76108883Y-46753498D01*
X76132099Y-46804335D01*
X76166123Y-46878836D01*
X76172025Y-46885647D01*
X76240804Y-46965022D01*
X76262256Y-46989778D01*
X76385750Y-47069143D01*
X76526601Y-47110500D01*
X76664390Y-47110500D01*
X76673399Y-47110500D01*
X76682094Y-47107946D01*
X76682154Y-47107945D01*
X76690965Y-47106679D01*
X76691124Y-47107784D01*
X76748756Y-47106751D01*
X76806697Y-47139743D01*
X81532185Y-51865232D01*
X81532213Y-51865250D01*
X81532263Y-51865294D01*
X81672413Y-52005444D01*
X81761167Y-52081247D01*
X81946662Y-52239675D01*
X82011632Y-52295164D01*
X82372537Y-52557377D01*
X82374641Y-52558666D01*
X82374645Y-52558669D01*
X82746426Y-52786497D01*
X82752902Y-52790465D01*
X83150382Y-52992992D01*
X83562527Y-53163710D01*
X83986796Y-53301564D01*
X84420572Y-53405707D01*
X84861183Y-53475495D01*
X85305910Y-53510498D01*
X85478904Y-53510499D01*
X85478906Y-53510500D01*
X85528961Y-53510500D01*
X91072763Y-53510500D01*
X91140884Y-53530502D01*
X91187377Y-53584158D01*
X91197481Y-53654431D01*
X91167988Y-53719012D01*
X91166255Y-53721012D01*
X91123372Y-53753114D01*
X91071030Y-53764500D01*
X84656445Y-53764500D01*
X84651497Y-53764403D01*
X84250451Y-53748643D01*
X84240588Y-53747867D01*
X83844472Y-53700981D01*
X83834701Y-53699433D01*
X83443489Y-53621614D01*
X83433869Y-53619304D01*
X83049976Y-53511034D01*
X83040567Y-53507977D01*
X82666343Y-53369917D01*
X82657203Y-53366131D01*
X82643216Y-53359683D01*
X82294961Y-53199134D01*
X82286148Y-53194643D01*
X82232277Y-53164474D01*
X81980806Y-53023643D01*
X81938142Y-52999750D01*
X81929706Y-52994581D01*
X81598050Y-52772975D01*
X81590046Y-52767160D01*
X81323936Y-52557377D01*
X81276798Y-52520216D01*
X81269278Y-52513794D01*
X80974339Y-52241155D01*
X80970771Y-52237724D01*
X80943368Y-52210320D01*
X80943366Y-52210319D01*
X73237382Y-44504334D01*
X73206925Y-44455031D01*
X73201760Y-44397308D01*
X73214468Y-44308922D01*
X73214468Y-44308917D01*
X73215750Y-44300000D01*
X73194859Y-44154696D01*
X73133877Y-44021164D01*
X73037744Y-43910222D01*
X72914250Y-43830857D01*
X72905606Y-43828318D01*
X72905604Y-43828318D01*
X72782043Y-43792038D01*
X72782042Y-43792037D01*
X72773399Y-43789500D01*
X72626601Y-43789500D01*
X72617958Y-43792037D01*
X72617956Y-43792038D01*
X72494395Y-43828318D01*
X72494391Y-43828319D01*
X72485750Y-43830857D01*
X72478172Y-43835727D01*
X72478170Y-43835728D01*
X72369836Y-43905350D01*
X72369833Y-43905352D01*
X72362256Y-43910222D01*
X72356358Y-43917028D01*
X72356354Y-43917032D01*
X72272025Y-44014352D01*
X72272022Y-44014355D01*
X72266123Y-44021164D01*
X72262380Y-44029358D01*
X72262379Y-44029361D01*
X72208883Y-44146501D01*
X72208882Y-44146504D01*
X72205141Y-44154696D01*
X72184250Y-44300000D01*
X65745256Y-44300000D01*
X66203989Y-43316243D01*
X66205888Y-43312351D01*
X66723953Y-42295589D01*
X66725975Y-42291789D01*
X67279193Y-41293758D01*
X67281382Y-41289967D01*
X67330657Y-41207961D01*
X67869079Y-40311873D01*
X67871379Y-40308191D01*
X68492893Y-39351144D01*
X68495277Y-39347610D01*
X69149800Y-38412856D01*
X69152379Y-38409307D01*
X69153713Y-38407537D01*
X69839119Y-37497970D01*
X69841768Y-37494581D01*
X70559920Y-36607738D01*
X70562650Y-36604485D01*
X71311298Y-35743262D01*
X71314190Y-35740049D01*
X72092477Y-34905439D01*
X72095477Y-34902334D01*
X72902334Y-34095477D01*
X72905439Y-34092477D01*
X73182785Y-33833848D01*
X73222537Y-33808767D01*
X73268716Y-33800000D01*
X118131284Y-33800000D01*
X118177463Y-33808767D01*
G37*
%TD.AperFunction*%
%TD*%
M02*
