%TF.GenerationSoftware,KiCad,Pcbnew,(6.0.9)*%
%TF.CreationDate,2023-01-23T17:19:02-06:00*%
%TF.ProjectId,pulse_ox_wearable,70756c73-655f-46f7-985f-776561726162,1*%
%TF.SameCoordinates,Original*%
%TF.FileFunction,Legend,Top*%
%TF.FilePolarity,Positive*%
%FSLAX46Y46*%
G04 Gerber Fmt 4.6, Leading zero omitted, Abs format (unit mm)*
G04 Created by KiCad (PCBNEW (6.0.9)) date 2023-01-23 17:19:02*
%MOMM*%
%LPD*%
G01*
G04 APERTURE LIST*
G04 Aperture macros list*
%AMRoundRect*
0 Rectangle with rounded corners*
0 $1 Rounding radius*
0 $2 $3 $4 $5 $6 $7 $8 $9 X,Y pos of 4 corners*
0 Add a 4 corners polygon primitive as box body*
4,1,4,$2,$3,$4,$5,$6,$7,$8,$9,$2,$3,0*
0 Add four circle primitives for the rounded corners*
1,1,$1+$1,$2,$3*
1,1,$1+$1,$4,$5*
1,1,$1+$1,$6,$7*
1,1,$1+$1,$8,$9*
0 Add four rect primitives between the rounded corners*
20,1,$1+$1,$2,$3,$4,$5,0*
20,1,$1+$1,$4,$5,$6,$7,0*
20,1,$1+$1,$6,$7,$8,$9,0*
20,1,$1+$1,$8,$9,$2,$3,0*%
%AMHorizOval*
0 Thick line with rounded ends*
0 $1 width*
0 $2 $3 position (X,Y) of the first rounded end (center of the circle)*
0 $4 $5 position (X,Y) of the second rounded end (center of the circle)*
0 Add line between two ends*
20,1,$1,$2,$3,$4,$5,0*
0 Add two circle primitives to create the rounded ends*
1,1,$1,$2,$3*
1,1,$1,$4,$5*%
%AMRotRect*
0 Rectangle, with rotation*
0 The origin of the aperture is its center*
0 $1 length*
0 $2 width*
0 $3 Rotation angle, in degrees counterclockwise*
0 Add horizontal line*
21,1,$1,$2,0,0,$3*%
G04 Aperture macros list end*
%ADD10C,0.150000*%
%ADD11C,0.254000*%
%ADD12C,0.120000*%
%ADD13C,0.100000*%
%ADD14C,0.200000*%
%ADD15R,0.990600X0.990600*%
%ADD16R,1.498600X0.889000*%
%ADD17R,0.889000X1.498600*%
%ADD18R,3.800000X2.000000*%
%ADD19R,1.500000X2.000000*%
%ADD20RoundRect,0.100000X0.100000X-0.130000X0.100000X0.130000X-0.100000X0.130000X-0.100000X-0.130000X0*%
%ADD21RoundRect,0.250000X-1.075000X0.312500X-1.075000X-0.312500X1.075000X-0.312500X1.075000X0.312500X0*%
%ADD22RoundRect,0.250000X-0.325000X-0.650000X0.325000X-0.650000X0.325000X0.650000X-0.325000X0.650000X0*%
%ADD23RoundRect,0.250000X0.250000X0.475000X-0.250000X0.475000X-0.250000X-0.475000X0.250000X-0.475000X0*%
%ADD24RoundRect,0.250000X0.325000X0.650000X-0.325000X0.650000X-0.325000X-0.650000X0.325000X-0.650000X0*%
%ADD25RoundRect,0.100000X-0.130000X-0.100000X0.130000X-0.100000X0.130000X0.100000X-0.130000X0.100000X0*%
%ADD26RoundRect,0.100000X-0.021213X-0.162635X0.162635X0.021213X0.021213X0.162635X-0.162635X-0.021213X0*%
%ADD27RoundRect,0.147500X0.172500X-0.147500X0.172500X0.147500X-0.172500X0.147500X-0.172500X-0.147500X0*%
%ADD28RoundRect,0.150000X0.150000X-0.512500X0.150000X0.512500X-0.150000X0.512500X-0.150000X-0.512500X0*%
%ADD29R,0.280000X0.700000*%
%ADD30R,0.260000X0.500000*%
%ADD31R,0.680000X1.050000*%
%ADD32C,0.600000*%
%ADD33R,1.650000X2.400000*%
%ADD34RoundRect,0.070000X0.140000X0.140000X-0.140000X0.140000X-0.140000X-0.140000X0.140000X-0.140000X0*%
%ADD35O,0.990000X0.420000*%
%ADD36RoundRect,0.225000X-0.225000X-0.250000X0.225000X-0.250000X0.225000X0.250000X-0.225000X0.250000X0*%
%ADD37O,1.600000X1.000000*%
%ADD38O,2.100000X1.000000*%
%ADD39R,1.450000X0.600000*%
%ADD40R,1.450000X0.300000*%
%ADD41C,0.650000*%
%ADD42RoundRect,0.250000X0.312500X1.075000X-0.312500X1.075000X-0.312500X-1.075000X0.312500X-1.075000X0*%
%ADD43RoundRect,0.135000X0.185000X-0.135000X0.185000X0.135000X-0.185000X0.135000X-0.185000X-0.135000X0*%
%ADD44RoundRect,0.250000X0.475000X-0.250000X0.475000X0.250000X-0.475000X0.250000X-0.475000X-0.250000X0*%
%ADD45RoundRect,0.147500X-0.172500X0.147500X-0.172500X-0.147500X0.172500X-0.147500X0.172500X0.147500X0*%
%ADD46RoundRect,0.218750X0.256250X-0.218750X0.256250X0.218750X-0.256250X0.218750X-0.256250X-0.218750X0*%
%ADD47RoundRect,0.135000X-0.135000X-0.185000X0.135000X-0.185000X0.135000X0.185000X-0.135000X0.185000X0*%
%ADD48RotRect,1.700000X1.700000X135.000000*%
%ADD49HorizOval,1.700000X0.000000X0.000000X0.000000X0.000000X0*%
%ADD50RoundRect,0.150000X-0.587500X-0.150000X0.587500X-0.150000X0.587500X0.150000X-0.587500X0.150000X0*%
%ADD51R,2.800000X2.100000*%
%ADD52R,1.900000X0.600000*%
%ADD53RoundRect,0.200000X-0.053033X0.335876X-0.335876X0.053033X0.053033X-0.335876X0.335876X-0.053033X0*%
%ADD54R,0.980000X3.400000*%
%ADD55RoundRect,0.250000X-0.512652X-0.159099X-0.159099X-0.512652X0.512652X0.159099X0.159099X0.512652X0*%
%ADD56RoundRect,0.225000X-0.250000X0.225000X-0.250000X-0.225000X0.250000X-0.225000X0.250000X0.225000X0*%
%ADD57O,1.524000X1.524000*%
%ADD58RotRect,0.900000X1.700000X135.000000*%
%ADD59R,2.600000X2.600000*%
%ADD60RoundRect,0.062500X-0.062500X-0.350000X0.062500X-0.350000X0.062500X0.350000X-0.062500X0.350000X0*%
%ADD61RoundRect,0.062500X-0.350000X-0.062500X0.350000X-0.062500X0.350000X0.062500X-0.350000X0.062500X0*%
%ADD62RoundRect,0.250000X-0.475000X0.250000X-0.475000X-0.250000X0.475000X-0.250000X0.475000X0.250000X0*%
%ADD63RoundRect,0.250000X-0.312500X-1.075000X0.312500X-1.075000X0.312500X1.075000X-0.312500X1.075000X0*%
%ADD64RoundRect,0.225000X0.250000X-0.225000X0.250000X0.225000X-0.250000X0.225000X-0.250000X-0.225000X0*%
%ADD65RoundRect,0.250000X-0.503814X-0.132583X-0.132583X-0.503814X0.503814X0.132583X0.132583X0.503814X0*%
%ADD66RoundRect,0.150000X0.587500X0.150000X-0.587500X0.150000X-0.587500X-0.150000X0.587500X-0.150000X0*%
%ADD67O,1.750000X1.200000*%
%ADD68RoundRect,0.250000X0.625000X-0.350000X0.625000X0.350000X-0.625000X0.350000X-0.625000X-0.350000X0*%
%ADD69C,0.800000*%
%ADD70C,0.500000*%
G04 APERTURE END LIST*
D10*
X91052380Y-88719047D02*
X91052380Y-88528571D01*
X91100000Y-88433333D01*
X91195238Y-88338095D01*
X91385714Y-88290476D01*
X91719047Y-88290476D01*
X91909523Y-88338095D01*
X92004761Y-88433333D01*
X92052380Y-88528571D01*
X92052380Y-88719047D01*
X92004761Y-88814285D01*
X91909523Y-88909523D01*
X91719047Y-88957142D01*
X91385714Y-88957142D01*
X91195238Y-88909523D01*
X91100000Y-88814285D01*
X91052380Y-88719047D01*
X92052380Y-87861904D02*
X91052380Y-87861904D01*
X92052380Y-87290476D01*
X91052380Y-87290476D01*
X100952380Y-88952380D02*
X100952380Y-88761904D01*
X101000000Y-88666666D01*
X101095238Y-88571428D01*
X101285714Y-88523809D01*
X101619047Y-88523809D01*
X101809523Y-88571428D01*
X101904761Y-88666666D01*
X101952380Y-88761904D01*
X101952380Y-88952380D01*
X101904761Y-89047619D01*
X101809523Y-89142857D01*
X101619047Y-89190476D01*
X101285714Y-89190476D01*
X101095238Y-89142857D01*
X101000000Y-89047619D01*
X100952380Y-88952380D01*
X101428571Y-87761904D02*
X101428571Y-88095238D01*
X101952380Y-88095238D02*
X100952380Y-88095238D01*
X100952380Y-87619047D01*
X101428571Y-86904761D02*
X101428571Y-87238095D01*
X101952380Y-87238095D02*
X100952380Y-87238095D01*
X100952380Y-86761904D01*
%TO.C,U1*%
X84349496Y-27962787D02*
X84349496Y-28772311D01*
X84397115Y-28867549D01*
X84444734Y-28915168D01*
X84539972Y-28962787D01*
X84730448Y-28962787D01*
X84825686Y-28915168D01*
X84873305Y-28867549D01*
X84920924Y-28772311D01*
X84920924Y-27962787D01*
X85920924Y-28962787D02*
X85349496Y-28962787D01*
X85635210Y-28962787D02*
X85635210Y-27962787D01*
X85539972Y-28105645D01*
X85444734Y-28200883D01*
X85349496Y-28248502D01*
%TO.C,U5*%
X107052380Y-76061904D02*
X107861904Y-76061904D01*
X107957142Y-76014285D01*
X108004761Y-75966666D01*
X108052380Y-75871428D01*
X108052380Y-75680952D01*
X108004761Y-75585714D01*
X107957142Y-75538095D01*
X107861904Y-75490476D01*
X107052380Y-75490476D01*
X107052380Y-74538095D02*
X107052380Y-75014285D01*
X107528571Y-75061904D01*
X107480952Y-75014285D01*
X107433333Y-74919047D01*
X107433333Y-74680952D01*
X107480952Y-74585714D01*
X107528571Y-74538095D01*
X107623809Y-74490476D01*
X107861904Y-74490476D01*
X107957142Y-74538095D01*
X108004761Y-74585714D01*
X108052380Y-74680952D01*
X108052380Y-74919047D01*
X108004761Y-75014285D01*
X107957142Y-75061904D01*
%TO.C,R3*%
X80033333Y-61952380D02*
X79700000Y-61476190D01*
X79461904Y-61952380D02*
X79461904Y-60952380D01*
X79842857Y-60952380D01*
X79938095Y-61000000D01*
X79985714Y-61047619D01*
X80033333Y-61142857D01*
X80033333Y-61285714D01*
X79985714Y-61380952D01*
X79938095Y-61428571D01*
X79842857Y-61476190D01*
X79461904Y-61476190D01*
X80366666Y-60952380D02*
X80985714Y-60952380D01*
X80652380Y-61333333D01*
X80795238Y-61333333D01*
X80890476Y-61380952D01*
X80938095Y-61428571D01*
X80985714Y-61523809D01*
X80985714Y-61761904D01*
X80938095Y-61857142D01*
X80890476Y-61904761D01*
X80795238Y-61952380D01*
X80509523Y-61952380D01*
X80414285Y-61904761D01*
X80366666Y-61857142D01*
%TO.C,R4*%
X99694880Y-62516666D02*
X99218690Y-62850000D01*
X99694880Y-63088095D02*
X98694880Y-63088095D01*
X98694880Y-62707142D01*
X98742500Y-62611904D01*
X98790119Y-62564285D01*
X98885357Y-62516666D01*
X99028214Y-62516666D01*
X99123452Y-62564285D01*
X99171071Y-62611904D01*
X99218690Y-62707142D01*
X99218690Y-63088095D01*
X99028214Y-61659523D02*
X99694880Y-61659523D01*
X98647261Y-61897619D02*
X99361547Y-62135714D01*
X99361547Y-61516666D01*
%TO.C,C17*%
X103757142Y-67607142D02*
X103709523Y-67654761D01*
X103566666Y-67702380D01*
X103471428Y-67702380D01*
X103328571Y-67654761D01*
X103233333Y-67559523D01*
X103185714Y-67464285D01*
X103138095Y-67273809D01*
X103138095Y-67130952D01*
X103185714Y-66940476D01*
X103233333Y-66845238D01*
X103328571Y-66750000D01*
X103471428Y-66702380D01*
X103566666Y-66702380D01*
X103709523Y-66750000D01*
X103757142Y-66797619D01*
X104709523Y-67702380D02*
X104138095Y-67702380D01*
X104423809Y-67702380D02*
X104423809Y-66702380D01*
X104328571Y-66845238D01*
X104233333Y-66940476D01*
X104138095Y-66988095D01*
X105042857Y-66702380D02*
X105709523Y-66702380D01*
X105280952Y-67702380D01*
%TO.C,C4*%
X89985668Y-69726279D02*
X89938049Y-69773898D01*
X89795192Y-69821517D01*
X89699954Y-69821517D01*
X89557096Y-69773898D01*
X89461858Y-69678660D01*
X89414239Y-69583422D01*
X89366620Y-69392946D01*
X89366620Y-69250089D01*
X89414239Y-69059613D01*
X89461858Y-68964375D01*
X89557096Y-68869137D01*
X89699954Y-68821517D01*
X89795192Y-68821517D01*
X89938049Y-68869137D01*
X89985668Y-68916756D01*
X90842811Y-69154851D02*
X90842811Y-69821517D01*
X90604715Y-68773898D02*
X90366620Y-69488184D01*
X90985668Y-69488184D01*
%TO.C,C8*%
X82233333Y-81407142D02*
X82185714Y-81454761D01*
X82042857Y-81502380D01*
X81947619Y-81502380D01*
X81804761Y-81454761D01*
X81709523Y-81359523D01*
X81661904Y-81264285D01*
X81614285Y-81073809D01*
X81614285Y-80930952D01*
X81661904Y-80740476D01*
X81709523Y-80645238D01*
X81804761Y-80550000D01*
X81947619Y-80502380D01*
X82042857Y-80502380D01*
X82185714Y-80550000D01*
X82233333Y-80597619D01*
X82804761Y-80930952D02*
X82709523Y-80883333D01*
X82661904Y-80835714D01*
X82614285Y-80740476D01*
X82614285Y-80692857D01*
X82661904Y-80597619D01*
X82709523Y-80550000D01*
X82804761Y-80502380D01*
X82995238Y-80502380D01*
X83090476Y-80550000D01*
X83138095Y-80597619D01*
X83185714Y-80692857D01*
X83185714Y-80740476D01*
X83138095Y-80835714D01*
X83090476Y-80883333D01*
X82995238Y-80930952D01*
X82804761Y-80930952D01*
X82709523Y-80978571D01*
X82661904Y-81026190D01*
X82614285Y-81121428D01*
X82614285Y-81311904D01*
X82661904Y-81407142D01*
X82709523Y-81454761D01*
X82804761Y-81502380D01*
X82995238Y-81502380D01*
X83090476Y-81454761D01*
X83138095Y-81407142D01*
X83185714Y-81311904D01*
X83185714Y-81121428D01*
X83138095Y-81026190D01*
X83090476Y-80978571D01*
X82995238Y-80930952D01*
%TO.C,C9*%
X87133333Y-74557142D02*
X87085714Y-74604761D01*
X86942857Y-74652380D01*
X86847619Y-74652380D01*
X86704761Y-74604761D01*
X86609523Y-74509523D01*
X86561904Y-74414285D01*
X86514285Y-74223809D01*
X86514285Y-74080952D01*
X86561904Y-73890476D01*
X86609523Y-73795238D01*
X86704761Y-73700000D01*
X86847619Y-73652380D01*
X86942857Y-73652380D01*
X87085714Y-73700000D01*
X87133333Y-73747619D01*
X87609523Y-74652380D02*
X87800000Y-74652380D01*
X87895238Y-74604761D01*
X87942857Y-74557142D01*
X88038095Y-74414285D01*
X88085714Y-74223809D01*
X88085714Y-73842857D01*
X88038095Y-73747619D01*
X87990476Y-73700000D01*
X87895238Y-73652380D01*
X87704761Y-73652380D01*
X87609523Y-73700000D01*
X87561904Y-73747619D01*
X87514285Y-73842857D01*
X87514285Y-74080952D01*
X87561904Y-74176190D01*
X87609523Y-74223809D01*
X87704761Y-74271428D01*
X87895238Y-74271428D01*
X87990476Y-74223809D01*
X88038095Y-74176190D01*
X88085714Y-74080952D01*
%TO.C,R1*%
X76502030Y-56737732D02*
X75929610Y-56636717D01*
X76097969Y-57141793D02*
X75390862Y-56434687D01*
X75660236Y-56165312D01*
X75761251Y-56131641D01*
X75828595Y-56131641D01*
X75929610Y-56165312D01*
X76030625Y-56266328D01*
X76064297Y-56367343D01*
X76064297Y-56434687D01*
X76030625Y-56535702D01*
X75761251Y-56805076D01*
X77175465Y-56064297D02*
X76771404Y-56468358D01*
X76973435Y-56266328D02*
X76266328Y-55559221D01*
X76300000Y-55727580D01*
X76300000Y-55862267D01*
X76266328Y-55963282D01*
%TO.C,D1*%
X79061904Y-57452380D02*
X79061904Y-56452380D01*
X79300000Y-56452380D01*
X79442857Y-56500000D01*
X79538095Y-56595238D01*
X79585714Y-56690476D01*
X79633333Y-56880952D01*
X79633333Y-57023809D01*
X79585714Y-57214285D01*
X79538095Y-57309523D01*
X79442857Y-57404761D01*
X79300000Y-57452380D01*
X79061904Y-57452380D01*
X80585714Y-57452380D02*
X80014285Y-57452380D01*
X80300000Y-57452380D02*
X80300000Y-56452380D01*
X80204761Y-56595238D01*
X80109523Y-56690476D01*
X80014285Y-56738095D01*
%TO.C,U2*%
X78252380Y-67061904D02*
X79061904Y-67061904D01*
X79157142Y-67014285D01*
X79204761Y-66966666D01*
X79252380Y-66871428D01*
X79252380Y-66680952D01*
X79204761Y-66585714D01*
X79157142Y-66538095D01*
X79061904Y-66490476D01*
X78252380Y-66490476D01*
X78347619Y-66061904D02*
X78300000Y-66014285D01*
X78252380Y-65919047D01*
X78252380Y-65680952D01*
X78300000Y-65585714D01*
X78347619Y-65538095D01*
X78442857Y-65490476D01*
X78538095Y-65490476D01*
X78680952Y-65538095D01*
X79252380Y-66109523D01*
X79252380Y-65490476D01*
%TO.C,U4*%
X85338095Y-80952380D02*
X85338095Y-81761904D01*
X85385714Y-81857142D01*
X85433333Y-81904761D01*
X85528571Y-81952380D01*
X85719047Y-81952380D01*
X85814285Y-81904761D01*
X85861904Y-81857142D01*
X85909523Y-81761904D01*
X85909523Y-80952380D01*
X86814285Y-81285714D02*
X86814285Y-81952380D01*
X86576190Y-80904761D02*
X86338095Y-81619047D01*
X86957142Y-81619047D01*
%TO.C,C6*%
X90035667Y-62686280D02*
X89988048Y-62733899D01*
X89845191Y-62781518D01*
X89749953Y-62781518D01*
X89607095Y-62733899D01*
X89511857Y-62638661D01*
X89464238Y-62543423D01*
X89416619Y-62352947D01*
X89416619Y-62210090D01*
X89464238Y-62019614D01*
X89511857Y-61924376D01*
X89607095Y-61829138D01*
X89749953Y-61781518D01*
X89845191Y-61781518D01*
X89988048Y-61829138D01*
X90035667Y-61876757D01*
X90892810Y-61781518D02*
X90702334Y-61781518D01*
X90607095Y-61829138D01*
X90559476Y-61876757D01*
X90464238Y-62019614D01*
X90416619Y-62210090D01*
X90416619Y-62591042D01*
X90464238Y-62686280D01*
X90511857Y-62733899D01*
X90607095Y-62781518D01*
X90797572Y-62781518D01*
X90892810Y-62733899D01*
X90940429Y-62686280D01*
X90988048Y-62591042D01*
X90988048Y-62352947D01*
X90940429Y-62257709D01*
X90892810Y-62210090D01*
X90797572Y-62162471D01*
X90607095Y-62162471D01*
X90511857Y-62210090D01*
X90464238Y-62257709D01*
X90416619Y-62352947D01*
%TO.C,C7*%
X84033333Y-68657142D02*
X83985714Y-68704761D01*
X83842857Y-68752380D01*
X83747619Y-68752380D01*
X83604761Y-68704761D01*
X83509523Y-68609523D01*
X83461904Y-68514285D01*
X83414285Y-68323809D01*
X83414285Y-68180952D01*
X83461904Y-67990476D01*
X83509523Y-67895238D01*
X83604761Y-67800000D01*
X83747619Y-67752380D01*
X83842857Y-67752380D01*
X83985714Y-67800000D01*
X84033333Y-67847619D01*
X84366666Y-67752380D02*
X85033333Y-67752380D01*
X84604761Y-68752380D01*
%TO.C,C13*%
X92707142Y-80297141D02*
X92659523Y-80344760D01*
X92516666Y-80392379D01*
X92421428Y-80392379D01*
X92278571Y-80344760D01*
X92183333Y-80249522D01*
X92135714Y-80154284D01*
X92088095Y-79963808D01*
X92088095Y-79820951D01*
X92135714Y-79630475D01*
X92183333Y-79535237D01*
X92278571Y-79439999D01*
X92421428Y-79392379D01*
X92516666Y-79392379D01*
X92659523Y-79439999D01*
X92707142Y-79487618D01*
X93659523Y-80392379D02*
X93088095Y-80392379D01*
X93373809Y-80392379D02*
X93373809Y-79392379D01*
X93278571Y-79535237D01*
X93183333Y-79630475D01*
X93088095Y-79678094D01*
X93992857Y-79392379D02*
X94611904Y-79392379D01*
X94278571Y-79773332D01*
X94421428Y-79773332D01*
X94516666Y-79820951D01*
X94564285Y-79868570D01*
X94611904Y-79963808D01*
X94611904Y-80201903D01*
X94564285Y-80297141D01*
X94516666Y-80344760D01*
X94421428Y-80392379D01*
X94135714Y-80392379D01*
X94040476Y-80344760D01*
X93992857Y-80297141D01*
%TO.C,R9*%
X82833333Y-44632380D02*
X82500000Y-44156190D01*
X82261904Y-44632380D02*
X82261904Y-43632380D01*
X82642857Y-43632380D01*
X82738095Y-43680000D01*
X82785714Y-43727619D01*
X82833333Y-43822857D01*
X82833333Y-43965714D01*
X82785714Y-44060952D01*
X82738095Y-44108571D01*
X82642857Y-44156190D01*
X82261904Y-44156190D01*
X83309523Y-44632380D02*
X83500000Y-44632380D01*
X83595238Y-44584761D01*
X83642857Y-44537142D01*
X83738095Y-44394285D01*
X83785714Y-44203809D01*
X83785714Y-43822857D01*
X83738095Y-43727619D01*
X83690476Y-43680000D01*
X83595238Y-43632380D01*
X83404761Y-43632380D01*
X83309523Y-43680000D01*
X83261904Y-43727619D01*
X83214285Y-43822857D01*
X83214285Y-44060952D01*
X83261904Y-44156190D01*
X83309523Y-44203809D01*
X83404761Y-44251428D01*
X83595238Y-44251428D01*
X83690476Y-44203809D01*
X83738095Y-44156190D01*
X83785714Y-44060952D01*
%TO.C,R12*%
X93219642Y-65902380D02*
X92886309Y-65426190D01*
X92648214Y-65902380D02*
X92648214Y-64902380D01*
X93029166Y-64902380D01*
X93124404Y-64950000D01*
X93172023Y-64997619D01*
X93219642Y-65092857D01*
X93219642Y-65235714D01*
X93172023Y-65330952D01*
X93124404Y-65378571D01*
X93029166Y-65426190D01*
X92648214Y-65426190D01*
X94172023Y-65902380D02*
X93600595Y-65902380D01*
X93886309Y-65902380D02*
X93886309Y-64902380D01*
X93791071Y-65045238D01*
X93695833Y-65140476D01*
X93600595Y-65188095D01*
X94552976Y-64997619D02*
X94600595Y-64950000D01*
X94695833Y-64902380D01*
X94933928Y-64902380D01*
X95029166Y-64950000D01*
X95076785Y-64997619D01*
X95124404Y-65092857D01*
X95124404Y-65188095D01*
X95076785Y-65330952D01*
X94505357Y-65902380D01*
X95124404Y-65902380D01*
%TO.C,C14*%
X96877142Y-70642857D02*
X96924761Y-70690476D01*
X96972380Y-70833333D01*
X96972380Y-70928571D01*
X96924761Y-71071428D01*
X96829523Y-71166666D01*
X96734285Y-71214285D01*
X96543809Y-71261904D01*
X96400952Y-71261904D01*
X96210476Y-71214285D01*
X96115238Y-71166666D01*
X96020000Y-71071428D01*
X95972380Y-70928571D01*
X95972380Y-70833333D01*
X96020000Y-70690476D01*
X96067619Y-70642857D01*
X96972380Y-69690476D02*
X96972380Y-70261904D01*
X96972380Y-69976190D02*
X95972380Y-69976190D01*
X96115238Y-70071428D01*
X96210476Y-70166666D01*
X96258095Y-70261904D01*
X96305714Y-68833333D02*
X96972380Y-68833333D01*
X95924761Y-69071428D02*
X96639047Y-69309523D01*
X96639047Y-68690476D01*
%TO.C,D2*%
X77061904Y-59052380D02*
X77061904Y-58052380D01*
X77300000Y-58052380D01*
X77442857Y-58100000D01*
X77538095Y-58195238D01*
X77585714Y-58290476D01*
X77633333Y-58480952D01*
X77633333Y-58623809D01*
X77585714Y-58814285D01*
X77538095Y-58909523D01*
X77442857Y-59004761D01*
X77300000Y-59052380D01*
X77061904Y-59052380D01*
X78014285Y-58147619D02*
X78061904Y-58100000D01*
X78157142Y-58052380D01*
X78395238Y-58052380D01*
X78490476Y-58100000D01*
X78538095Y-58147619D01*
X78585714Y-58242857D01*
X78585714Y-58338095D01*
X78538095Y-58480952D01*
X77966666Y-59052380D01*
X78585714Y-59052380D01*
%TO.C,D4*%
X76161904Y-69952380D02*
X76161904Y-68952380D01*
X76400000Y-68952380D01*
X76542857Y-69000000D01*
X76638095Y-69095238D01*
X76685714Y-69190476D01*
X76733333Y-69380952D01*
X76733333Y-69523809D01*
X76685714Y-69714285D01*
X76638095Y-69809523D01*
X76542857Y-69904761D01*
X76400000Y-69952380D01*
X76161904Y-69952380D01*
X77590476Y-69285714D02*
X77590476Y-69952380D01*
X77352380Y-68904761D02*
X77114285Y-69619047D01*
X77733333Y-69619047D01*
%TO.C,R8*%
X93195833Y-60932380D02*
X92862500Y-60456190D01*
X92624404Y-60932380D02*
X92624404Y-59932380D01*
X93005357Y-59932380D01*
X93100595Y-59980000D01*
X93148214Y-60027619D01*
X93195833Y-60122857D01*
X93195833Y-60265714D01*
X93148214Y-60360952D01*
X93100595Y-60408571D01*
X93005357Y-60456190D01*
X92624404Y-60456190D01*
X93767261Y-60360952D02*
X93672023Y-60313333D01*
X93624404Y-60265714D01*
X93576785Y-60170476D01*
X93576785Y-60122857D01*
X93624404Y-60027619D01*
X93672023Y-59980000D01*
X93767261Y-59932380D01*
X93957738Y-59932380D01*
X94052976Y-59980000D01*
X94100595Y-60027619D01*
X94148214Y-60122857D01*
X94148214Y-60170476D01*
X94100595Y-60265714D01*
X94052976Y-60313333D01*
X93957738Y-60360952D01*
X93767261Y-60360952D01*
X93672023Y-60408571D01*
X93624404Y-60456190D01*
X93576785Y-60551428D01*
X93576785Y-60741904D01*
X93624404Y-60837142D01*
X93672023Y-60884761D01*
X93767261Y-60932380D01*
X93957738Y-60932380D01*
X94052976Y-60884761D01*
X94100595Y-60837142D01*
X94148214Y-60741904D01*
X94148214Y-60551428D01*
X94100595Y-60456190D01*
X94052976Y-60408571D01*
X93957738Y-60360952D01*
%TO.C,C11*%
X92657142Y-72607142D02*
X92609523Y-72654761D01*
X92466666Y-72702380D01*
X92371428Y-72702380D01*
X92228571Y-72654761D01*
X92133333Y-72559523D01*
X92085714Y-72464285D01*
X92038095Y-72273809D01*
X92038095Y-72130952D01*
X92085714Y-71940476D01*
X92133333Y-71845238D01*
X92228571Y-71750000D01*
X92371428Y-71702380D01*
X92466666Y-71702380D01*
X92609523Y-71750000D01*
X92657142Y-71797619D01*
X93609523Y-72702380D02*
X93038095Y-72702380D01*
X93323809Y-72702380D02*
X93323809Y-71702380D01*
X93228571Y-71845238D01*
X93133333Y-71940476D01*
X93038095Y-71988095D01*
X94561904Y-72702380D02*
X93990476Y-72702380D01*
X94276190Y-72702380D02*
X94276190Y-71702380D01*
X94180952Y-71845238D01*
X94085714Y-71940476D01*
X93990476Y-71988095D01*
%TO.C,J4*%
X101613912Y-61557492D02*
X102118988Y-61052416D01*
X102253675Y-60985072D01*
X102388362Y-60985072D01*
X102523049Y-61052416D01*
X102590392Y-61119759D01*
X101209851Y-60682026D02*
X101681255Y-60210622D01*
X101108835Y-61119759D02*
X101782270Y-60783042D01*
X101344538Y-60345309D01*
%TO.C,Q1*%
X77704761Y-42447619D02*
X77609523Y-42400000D01*
X77514285Y-42304761D01*
X77371428Y-42161904D01*
X77276190Y-42114285D01*
X77180952Y-42114285D01*
X77228571Y-42352380D02*
X77133333Y-42304761D01*
X77038095Y-42209523D01*
X76990476Y-42019047D01*
X76990476Y-41685714D01*
X77038095Y-41495238D01*
X77133333Y-41400000D01*
X77228571Y-41352380D01*
X77419047Y-41352380D01*
X77514285Y-41400000D01*
X77609523Y-41495238D01*
X77657142Y-41685714D01*
X77657142Y-42019047D01*
X77609523Y-42209523D01*
X77514285Y-42304761D01*
X77419047Y-42352380D01*
X77228571Y-42352380D01*
X78609523Y-42352380D02*
X78038095Y-42352380D01*
X78323809Y-42352380D02*
X78323809Y-41352380D01*
X78228571Y-41495238D01*
X78133333Y-41590476D01*
X78038095Y-41638095D01*
D11*
%TO.C,J3*%
X113803148Y-58462333D02*
X114710291Y-58462333D01*
X114891720Y-58522809D01*
X115012672Y-58643761D01*
X115073148Y-58825190D01*
X115073148Y-58946142D01*
X113803148Y-57978523D02*
X113803148Y-57192333D01*
X114286958Y-57615666D01*
X114286958Y-57434238D01*
X114347434Y-57313285D01*
X114407910Y-57252809D01*
X114528863Y-57192333D01*
X114831244Y-57192333D01*
X114952196Y-57252809D01*
X115012672Y-57313285D01*
X115073148Y-57434238D01*
X115073148Y-57797095D01*
X115012672Y-57918047D01*
X114952196Y-57978523D01*
D10*
%TO.C,R11*%
X82776475Y-76885613D02*
X82204056Y-76784598D01*
X82372414Y-77289674D02*
X81665308Y-76582567D01*
X81934682Y-76313193D01*
X82035697Y-76279521D01*
X82103040Y-76279521D01*
X82204056Y-76313193D01*
X82305071Y-76414208D01*
X82338743Y-76515224D01*
X82338743Y-76582567D01*
X82305071Y-76683582D01*
X82035697Y-76952956D01*
X83449911Y-76212178D02*
X83045850Y-76616239D01*
X83247880Y-76414208D02*
X82540773Y-75707101D01*
X82574445Y-75875460D01*
X82574445Y-76010147D01*
X82540773Y-76111163D01*
X84123346Y-75538743D02*
X83719285Y-75942804D01*
X83921315Y-75740773D02*
X83214208Y-75033666D01*
X83247880Y-75202025D01*
X83247880Y-75336712D01*
X83214208Y-75437727D01*
%TO.C,L1*%
X87666666Y-86747619D02*
X88142857Y-86747619D01*
X88142857Y-87747619D01*
X86809523Y-86747619D02*
X87380952Y-86747619D01*
X87095238Y-86747619D02*
X87095238Y-87747619D01*
X87190476Y-87604761D01*
X87285714Y-87509523D01*
X87380952Y-87461904D01*
%TO.C,C1*%
X115457109Y-39320014D02*
X115524452Y-39320014D01*
X115659139Y-39387358D01*
X115726483Y-39454702D01*
X115793826Y-39589389D01*
X115793826Y-39724076D01*
X115760155Y-39825091D01*
X115659139Y-39993450D01*
X115558124Y-40094465D01*
X115389765Y-40195480D01*
X115288750Y-40229152D01*
X115154063Y-40229152D01*
X115019376Y-40161808D01*
X114952032Y-40094465D01*
X114884689Y-39959778D01*
X114884689Y-39892434D01*
X114851017Y-38579236D02*
X115255078Y-38983297D01*
X115053048Y-38781266D02*
X114345941Y-39488373D01*
X114514300Y-39454701D01*
X114648987Y-39454702D01*
X114750002Y-39488373D01*
%TO.C,C16*%
X83857142Y-34757142D02*
X83809523Y-34804761D01*
X83666666Y-34852380D01*
X83571428Y-34852380D01*
X83428571Y-34804761D01*
X83333333Y-34709523D01*
X83285714Y-34614285D01*
X83238095Y-34423809D01*
X83238095Y-34280952D01*
X83285714Y-34090476D01*
X83333333Y-33995238D01*
X83428571Y-33900000D01*
X83571428Y-33852380D01*
X83666666Y-33852380D01*
X83809523Y-33900000D01*
X83857142Y-33947619D01*
X84809523Y-34852380D02*
X84238095Y-34852380D01*
X84523809Y-34852380D02*
X84523809Y-33852380D01*
X84428571Y-33995238D01*
X84333333Y-34090476D01*
X84238095Y-34138095D01*
X85666666Y-33852380D02*
X85476190Y-33852380D01*
X85380952Y-33900000D01*
X85333333Y-33947619D01*
X85238095Y-34090476D01*
X85190476Y-34280952D01*
X85190476Y-34661904D01*
X85238095Y-34757142D01*
X85285714Y-34804761D01*
X85380952Y-34852380D01*
X85571428Y-34852380D01*
X85666666Y-34804761D01*
X85714285Y-34757142D01*
X85761904Y-34661904D01*
X85761904Y-34423809D01*
X85714285Y-34328571D01*
X85666666Y-34280952D01*
X85571428Y-34233333D01*
X85380952Y-34233333D01*
X85285714Y-34280952D01*
X85238095Y-34328571D01*
X85190476Y-34423809D01*
%TO.C,SW2*%
X117861251Y-39424366D02*
X117793908Y-39289679D01*
X117625549Y-39121320D01*
X117524534Y-39087648D01*
X117457190Y-39087648D01*
X117356175Y-39121320D01*
X117288832Y-39188663D01*
X117255160Y-39289679D01*
X117255160Y-39357022D01*
X117288832Y-39458037D01*
X117389847Y-39626396D01*
X117423519Y-39727411D01*
X117423519Y-39794755D01*
X117389847Y-39895770D01*
X117322503Y-39963114D01*
X117221488Y-39996785D01*
X117154145Y-39996785D01*
X117053129Y-39963114D01*
X116884771Y-39794755D01*
X116817427Y-39660068D01*
X116548053Y-39458037D02*
X117086801Y-38582572D01*
X116447038Y-38952961D01*
X116817427Y-38313198D01*
X115941962Y-38851946D01*
X115773603Y-38548900D02*
X115706259Y-38548900D01*
X115605244Y-38515228D01*
X115436885Y-38346870D01*
X115403214Y-38245854D01*
X115403214Y-38178511D01*
X115436885Y-38077496D01*
X115504229Y-38010152D01*
X115638916Y-37942809D01*
X116447038Y-37942809D01*
X116009305Y-37505076D01*
%TO.C,D3*%
X74161904Y-52152380D02*
X74161904Y-51152380D01*
X74400000Y-51152380D01*
X74542857Y-51200000D01*
X74638095Y-51295238D01*
X74685714Y-51390476D01*
X74733333Y-51580952D01*
X74733333Y-51723809D01*
X74685714Y-51914285D01*
X74638095Y-52009523D01*
X74542857Y-52104761D01*
X74400000Y-52152380D01*
X74161904Y-52152380D01*
X75066666Y-51152380D02*
X75685714Y-51152380D01*
X75352380Y-51533333D01*
X75495238Y-51533333D01*
X75590476Y-51580952D01*
X75638095Y-51628571D01*
X75685714Y-51723809D01*
X75685714Y-51961904D01*
X75638095Y-52057142D01*
X75590476Y-52104761D01*
X75495238Y-52152380D01*
X75209523Y-52152380D01*
X75114285Y-52104761D01*
X75066666Y-52057142D01*
%TO.C,U3*%
X93838095Y-53252380D02*
X93838095Y-54061904D01*
X93885714Y-54157142D01*
X93933333Y-54204761D01*
X94028571Y-54252380D01*
X94219047Y-54252380D01*
X94314285Y-54204761D01*
X94361904Y-54157142D01*
X94409523Y-54061904D01*
X94409523Y-53252380D01*
X94790476Y-53252380D02*
X95409523Y-53252380D01*
X95076190Y-53633333D01*
X95219047Y-53633333D01*
X95314285Y-53680952D01*
X95361904Y-53728571D01*
X95409523Y-53823809D01*
X95409523Y-54061904D01*
X95361904Y-54157142D01*
X95314285Y-54204761D01*
X95219047Y-54252380D01*
X94933333Y-54252380D01*
X94838095Y-54204761D01*
X94790476Y-54157142D01*
%TO.C,R7*%
X73333333Y-42832380D02*
X73000000Y-42356190D01*
X72761904Y-42832380D02*
X72761904Y-41832380D01*
X73142857Y-41832380D01*
X73238095Y-41880000D01*
X73285714Y-41927619D01*
X73333333Y-42022857D01*
X73333333Y-42165714D01*
X73285714Y-42260952D01*
X73238095Y-42308571D01*
X73142857Y-42356190D01*
X72761904Y-42356190D01*
X73666666Y-41832380D02*
X74333333Y-41832380D01*
X73904761Y-42832380D01*
%TO.C,R10*%
X85392770Y-74269318D02*
X84820351Y-74168303D01*
X84988709Y-74673379D02*
X84281603Y-73966272D01*
X84550977Y-73696898D01*
X84651992Y-73663226D01*
X84719335Y-73663226D01*
X84820351Y-73696898D01*
X84921366Y-73797913D01*
X84955038Y-73898929D01*
X84955038Y-73966272D01*
X84921366Y-74067287D01*
X84651992Y-74336661D01*
X86066206Y-73595883D02*
X85662145Y-73999944D01*
X85864175Y-73797913D02*
X85157068Y-73090806D01*
X85190740Y-73259165D01*
X85190740Y-73393852D01*
X85157068Y-73494868D01*
X85796832Y-72451043D02*
X85864175Y-72383700D01*
X85965190Y-72350028D01*
X86032534Y-72350028D01*
X86133549Y-72383700D01*
X86301908Y-72484715D01*
X86470267Y-72653074D01*
X86571282Y-72821432D01*
X86604954Y-72922448D01*
X86604954Y-72989791D01*
X86571282Y-73090806D01*
X86503938Y-73158150D01*
X86402923Y-73191822D01*
X86335580Y-73191822D01*
X86234564Y-73158150D01*
X86066206Y-73057135D01*
X85897847Y-72888776D01*
X85796832Y-72720417D01*
X85763160Y-72619402D01*
X85763160Y-72552058D01*
X85796832Y-72451043D01*
%TO.C,C10*%
X85087142Y-47142857D02*
X85134761Y-47190476D01*
X85182380Y-47333333D01*
X85182380Y-47428571D01*
X85134761Y-47571428D01*
X85039523Y-47666666D01*
X84944285Y-47714285D01*
X84753809Y-47761904D01*
X84610952Y-47761904D01*
X84420476Y-47714285D01*
X84325238Y-47666666D01*
X84230000Y-47571428D01*
X84182380Y-47428571D01*
X84182380Y-47333333D01*
X84230000Y-47190476D01*
X84277619Y-47142857D01*
X85182380Y-46190476D02*
X85182380Y-46761904D01*
X85182380Y-46476190D02*
X84182380Y-46476190D01*
X84325238Y-46571428D01*
X84420476Y-46666666D01*
X84468095Y-46761904D01*
X84182380Y-45571428D02*
X84182380Y-45476190D01*
X84230000Y-45380952D01*
X84277619Y-45333333D01*
X84372857Y-45285714D01*
X84563333Y-45238095D01*
X84801428Y-45238095D01*
X84991904Y-45285714D01*
X85087142Y-45333333D01*
X85134761Y-45380952D01*
X85182380Y-45476190D01*
X85182380Y-45571428D01*
X85134761Y-45666666D01*
X85087142Y-45714285D01*
X84991904Y-45761904D01*
X84801428Y-45809523D01*
X84563333Y-45809523D01*
X84372857Y-45761904D01*
X84277619Y-45714285D01*
X84230000Y-45666666D01*
X84182380Y-45571428D01*
%TO.C,C15*%
X81957142Y-39757142D02*
X81909523Y-39804761D01*
X81766666Y-39852380D01*
X81671428Y-39852380D01*
X81528571Y-39804761D01*
X81433333Y-39709523D01*
X81385714Y-39614285D01*
X81338095Y-39423809D01*
X81338095Y-39280952D01*
X81385714Y-39090476D01*
X81433333Y-38995238D01*
X81528571Y-38900000D01*
X81671428Y-38852380D01*
X81766666Y-38852380D01*
X81909523Y-38900000D01*
X81957142Y-38947619D01*
X82909523Y-39852380D02*
X82338095Y-39852380D01*
X82623809Y-39852380D02*
X82623809Y-38852380D01*
X82528571Y-38995238D01*
X82433333Y-39090476D01*
X82338095Y-39138095D01*
X83814285Y-38852380D02*
X83338095Y-38852380D01*
X83290476Y-39328571D01*
X83338095Y-39280952D01*
X83433333Y-39233333D01*
X83671428Y-39233333D01*
X83766666Y-39280952D01*
X83814285Y-39328571D01*
X83861904Y-39423809D01*
X83861904Y-39661904D01*
X83814285Y-39757142D01*
X83766666Y-39804761D01*
X83671428Y-39852380D01*
X83433333Y-39852380D01*
X83338095Y-39804761D01*
X83290476Y-39757142D01*
%TO.C,R6*%
X73433333Y-46252380D02*
X73100000Y-45776190D01*
X72861904Y-46252380D02*
X72861904Y-45252380D01*
X73242857Y-45252380D01*
X73338095Y-45300000D01*
X73385714Y-45347619D01*
X73433333Y-45442857D01*
X73433333Y-45585714D01*
X73385714Y-45680952D01*
X73338095Y-45728571D01*
X73242857Y-45776190D01*
X72861904Y-45776190D01*
X74290476Y-45252380D02*
X74100000Y-45252380D01*
X74004761Y-45300000D01*
X73957142Y-45347619D01*
X73861904Y-45490476D01*
X73814285Y-45680952D01*
X73814285Y-46061904D01*
X73861904Y-46157142D01*
X73909523Y-46204761D01*
X74004761Y-46252380D01*
X74195238Y-46252380D01*
X74290476Y-46204761D01*
X74338095Y-46157142D01*
X74385714Y-46061904D01*
X74385714Y-45823809D01*
X74338095Y-45728571D01*
X74290476Y-45680952D01*
X74195238Y-45633333D01*
X74004761Y-45633333D01*
X73909523Y-45680952D01*
X73861904Y-45728571D01*
X73814285Y-45823809D01*
%TO.C,C5*%
X89985668Y-66186279D02*
X89938049Y-66233898D01*
X89795192Y-66281517D01*
X89699954Y-66281517D01*
X89557096Y-66233898D01*
X89461858Y-66138660D01*
X89414239Y-66043422D01*
X89366620Y-65852946D01*
X89366620Y-65710089D01*
X89414239Y-65519613D01*
X89461858Y-65424375D01*
X89557096Y-65329137D01*
X89699954Y-65281517D01*
X89795192Y-65281517D01*
X89938049Y-65329137D01*
X89985668Y-65376756D01*
X90890430Y-65281517D02*
X90414239Y-65281517D01*
X90366620Y-65757708D01*
X90414239Y-65710089D01*
X90509477Y-65662470D01*
X90747573Y-65662470D01*
X90842811Y-65710089D01*
X90890430Y-65757708D01*
X90938049Y-65852946D01*
X90938049Y-66091041D01*
X90890430Y-66186279D01*
X90842811Y-66233898D01*
X90747573Y-66281517D01*
X90509477Y-66281517D01*
X90414239Y-66233898D01*
X90366620Y-66186279D01*
%TO.C,C2*%
X85957142Y-64166666D02*
X86004761Y-64214285D01*
X86052380Y-64357142D01*
X86052380Y-64452380D01*
X86004761Y-64595238D01*
X85909523Y-64690476D01*
X85814285Y-64738095D01*
X85623809Y-64785714D01*
X85480952Y-64785714D01*
X85290476Y-64738095D01*
X85195238Y-64690476D01*
X85100000Y-64595238D01*
X85052380Y-64452380D01*
X85052380Y-64357142D01*
X85100000Y-64214285D01*
X85147619Y-64166666D01*
X85147619Y-63785714D02*
X85100000Y-63738095D01*
X85052380Y-63642857D01*
X85052380Y-63404761D01*
X85100000Y-63309523D01*
X85147619Y-63261904D01*
X85242857Y-63214285D01*
X85338095Y-63214285D01*
X85480952Y-63261904D01*
X86052380Y-63833333D01*
X86052380Y-63214285D01*
%TO.C,R2*%
X74833333Y-58902380D02*
X74500000Y-58426190D01*
X74261904Y-58902380D02*
X74261904Y-57902380D01*
X74642857Y-57902380D01*
X74738095Y-57950000D01*
X74785714Y-57997619D01*
X74833333Y-58092857D01*
X74833333Y-58235714D01*
X74785714Y-58330952D01*
X74738095Y-58378571D01*
X74642857Y-58426190D01*
X74261904Y-58426190D01*
X75214285Y-57997619D02*
X75261904Y-57950000D01*
X75357142Y-57902380D01*
X75595238Y-57902380D01*
X75690476Y-57950000D01*
X75738095Y-57997619D01*
X75785714Y-58092857D01*
X75785714Y-58188095D01*
X75738095Y-58330952D01*
X75166666Y-58902380D01*
X75785714Y-58902380D01*
%TO.C,R5*%
X74333333Y-64952380D02*
X74000000Y-64476190D01*
X73761904Y-64952380D02*
X73761904Y-63952380D01*
X74142857Y-63952380D01*
X74238095Y-64000000D01*
X74285714Y-64047619D01*
X74333333Y-64142857D01*
X74333333Y-64285714D01*
X74285714Y-64380952D01*
X74238095Y-64428571D01*
X74142857Y-64476190D01*
X73761904Y-64476190D01*
X75238095Y-63952380D02*
X74761904Y-63952380D01*
X74714285Y-64428571D01*
X74761904Y-64380952D01*
X74857142Y-64333333D01*
X75095238Y-64333333D01*
X75190476Y-64380952D01*
X75238095Y-64428571D01*
X75285714Y-64523809D01*
X75285714Y-64761904D01*
X75238095Y-64857142D01*
X75190476Y-64904761D01*
X75095238Y-64952380D01*
X74857142Y-64952380D01*
X74761904Y-64904761D01*
X74714285Y-64857142D01*
%TO.C,Q2*%
X69504760Y-47247619D02*
X69409522Y-47200000D01*
X69314284Y-47104761D01*
X69171427Y-46961904D01*
X69076189Y-46914285D01*
X68980951Y-46914285D01*
X69028570Y-47152380D02*
X68933332Y-47104761D01*
X68838094Y-47009523D01*
X68790475Y-46819047D01*
X68790475Y-46485714D01*
X68838094Y-46295238D01*
X68933332Y-46200000D01*
X69028570Y-46152380D01*
X69219046Y-46152380D01*
X69314284Y-46200000D01*
X69409522Y-46295238D01*
X69457141Y-46485714D01*
X69457141Y-46819047D01*
X69409522Y-47009523D01*
X69314284Y-47104761D01*
X69219046Y-47152380D01*
X69028570Y-47152380D01*
X69838094Y-46247619D02*
X69885713Y-46200000D01*
X69980951Y-46152380D01*
X70219046Y-46152380D01*
X70314284Y-46200000D01*
X70361903Y-46247619D01*
X70409522Y-46342857D01*
X70409522Y-46438095D01*
X70361903Y-46580952D01*
X69790475Y-47152380D01*
X70409522Y-47152380D01*
%TO.C,C12*%
X92707142Y-76397142D02*
X92659523Y-76444761D01*
X92516666Y-76492380D01*
X92421428Y-76492380D01*
X92278571Y-76444761D01*
X92183333Y-76349523D01*
X92135714Y-76254285D01*
X92088095Y-76063809D01*
X92088095Y-75920952D01*
X92135714Y-75730476D01*
X92183333Y-75635238D01*
X92278571Y-75540000D01*
X92421428Y-75492380D01*
X92516666Y-75492380D01*
X92659523Y-75540000D01*
X92707142Y-75587619D01*
X93659523Y-76492380D02*
X93088095Y-76492380D01*
X93373809Y-76492380D02*
X93373809Y-75492380D01*
X93278571Y-75635238D01*
X93183333Y-75730476D01*
X93088095Y-75778095D01*
X94040476Y-75587619D02*
X94088095Y-75540000D01*
X94183333Y-75492380D01*
X94421428Y-75492380D01*
X94516666Y-75540000D01*
X94564285Y-75587619D01*
X94611904Y-75682857D01*
X94611904Y-75778095D01*
X94564285Y-75920952D01*
X93992857Y-76492380D01*
X94611904Y-76492380D01*
D12*
%TO.C,U1*%
X103673641Y-52664407D02*
X105118901Y-52664407D01*
X105118901Y-52664407D02*
X105118901Y-51660599D01*
X86703901Y-52664407D02*
X88149161Y-52664407D01*
X86703901Y-51660599D02*
X86703901Y-52664407D01*
X86703901Y-26756407D02*
X86703901Y-33596119D01*
X105118901Y-26756407D02*
X86703901Y-26756407D01*
X105118901Y-33596119D02*
X105118901Y-26756407D01*
%TO.C,U5*%
X99690000Y-77210000D02*
X100950000Y-77210000D01*
X99690000Y-73450000D02*
X99690000Y-77210000D01*
X106510000Y-77210000D02*
X105250000Y-77210000D01*
X106510000Y-71200000D02*
X106510000Y-77210000D01*
%TO.C,R4*%
X95607500Y-61626263D02*
X95607500Y-63073737D01*
X98317500Y-61626263D02*
X98317500Y-63073737D01*
%TO.C,C17*%
X103688748Y-70010000D02*
X105111252Y-70010000D01*
X103688748Y-68190000D02*
X105111252Y-68190000D01*
%TO.C,C4*%
X90413587Y-68424137D02*
X89891083Y-68424137D01*
X90413587Y-66954137D02*
X89891083Y-66954137D01*
%TO.C,C8*%
X83111252Y-80110000D02*
X81688748Y-80110000D01*
X83111252Y-78290000D02*
X81688748Y-78290000D01*
D13*
%TO.C,D1*%
X79750000Y-59790000D02*
G75*
G03*
X79750000Y-59790000I-50000J0D01*
G01*
D12*
%TO.C,U2*%
X79640000Y-66300000D02*
X79640000Y-65500000D01*
X82760000Y-66300000D02*
X82760000Y-67100000D01*
X79640000Y-66300000D02*
X79640000Y-68100000D01*
X82760000Y-66300000D02*
X82760000Y-65500000D01*
%TO.C,U4*%
X89175000Y-79995000D02*
X88200000Y-79995000D01*
X89175000Y-76745000D02*
X89175000Y-76970000D01*
X86900000Y-79995000D02*
X85925000Y-79995000D01*
X86900000Y-76745000D02*
X85925000Y-76745000D01*
X85925000Y-79770000D02*
X85925000Y-79995000D01*
X89175000Y-76745000D02*
X88200000Y-76745000D01*
X85925000Y-76970000D02*
X85925000Y-76745000D01*
%TO.C,C6*%
X90463586Y-61384138D02*
X89941082Y-61384138D01*
X90463586Y-59914138D02*
X89941082Y-59914138D01*
%TO.C,C7*%
X83059420Y-70210000D02*
X83340580Y-70210000D01*
X83059420Y-69190000D02*
X83340580Y-69190000D01*
%TO.C,J2*%
X69400000Y-62500000D02*
X67400000Y-62500000D01*
X63600000Y-53100000D02*
X63600000Y-62500000D01*
X65500000Y-53100000D02*
X63600000Y-53100000D01*
X65500000Y-62500000D02*
X63600000Y-62500000D01*
X69400000Y-53100000D02*
X67400000Y-53100000D01*
%TO.C,C13*%
X92638748Y-82699999D02*
X94061252Y-82699999D01*
X92638748Y-80879999D02*
X94061252Y-80879999D01*
%TO.C,R9*%
X83723737Y-43255000D02*
X82276263Y-43255000D01*
X83723737Y-40545000D02*
X82276263Y-40545000D01*
%TO.C,R12*%
X94242500Y-63803641D02*
X94242500Y-63496359D01*
X93482500Y-63803641D02*
X93482500Y-63496359D01*
%TO.C,C14*%
X98935000Y-70261252D02*
X98935000Y-69738748D01*
X97465000Y-70261252D02*
X97465000Y-69738748D01*
D13*
%TO.C,D2*%
X77850000Y-55810000D02*
G75*
G03*
X77850000Y-55810000I-50000J0D01*
G01*
D12*
%TO.C,D4*%
X77635000Y-68485000D02*
X77635000Y-66200000D01*
X76165000Y-66200000D02*
X76165000Y-68485000D01*
X76165000Y-68485000D02*
X77635000Y-68485000D01*
%TO.C,R8*%
X93208859Y-62030000D02*
X93516141Y-62030000D01*
X93208859Y-61270000D02*
X93516141Y-61270000D01*
%TO.C,C11*%
X92588748Y-75010000D02*
X94011252Y-75010000D01*
X92588748Y-73190000D02*
X94011252Y-73190000D01*
%TO.C,J4*%
X103370568Y-57448528D02*
X108801148Y-52017948D01*
X105251472Y-59329432D02*
X110682052Y-53898852D01*
X105251472Y-59329432D02*
X103370568Y-57448528D01*
X104353446Y-60227458D02*
X103412994Y-61167910D01*
X110682052Y-53898852D02*
X108801148Y-52017948D01*
X103412994Y-61167910D02*
X102472542Y-60227458D01*
%TO.C,Q1*%
X77800000Y-45860000D02*
X78450000Y-45860000D01*
X77800000Y-42740000D02*
X78450000Y-42740000D01*
X77800000Y-42740000D02*
X76125000Y-42740000D01*
X77800000Y-45860000D02*
X77150000Y-45860000D01*
D14*
%TO.C,J3*%
X110689875Y-59337000D02*
G75*
G03*
X110689875Y-59337000I-26250J0D01*
G01*
X116712625Y-62150000D02*
X120162625Y-62150000D01*
X120162625Y-53450000D02*
X116712625Y-53450000D01*
X113262625Y-61000000D02*
X113262625Y-54600000D01*
X120162625Y-62150000D02*
X120162625Y-53450000D01*
D12*
%TO.C,R11*%
X82437230Y-75301697D02*
X82101697Y-75637230D01*
X81698303Y-74562770D02*
X81362770Y-74898303D01*
%TO.C,C1*%
X114233771Y-39938184D02*
X114603238Y-40307651D01*
X113194324Y-40977631D02*
X113563791Y-41347098D01*
%TO.C,C16*%
X85110000Y-36559420D02*
X85110000Y-36840580D01*
X84090000Y-36559420D02*
X84090000Y-36840580D01*
%TO.C,SW1*%
X92300000Y-88200000D02*
X92300000Y-90000000D01*
X92300000Y-88200000D02*
X92300000Y-86400000D01*
X100700000Y-86400000D02*
X92300000Y-86400000D01*
X92300000Y-90000000D02*
X100700000Y-90000000D01*
X100700000Y-90000000D02*
X100700000Y-86400000D01*
%TO.C,SW2*%
X118223223Y-34843324D02*
X118011091Y-35055456D01*
X118576777Y-39156676D02*
X116243324Y-36823223D01*
X118788909Y-38944544D02*
X118576777Y-39156676D01*
X120556676Y-37176777D02*
X118223223Y-34843324D01*
X116243324Y-36823223D02*
X116455456Y-36611091D01*
X120344544Y-37388909D02*
X120556676Y-37176777D01*
D13*
%TO.C,D3*%
X74950000Y-52410000D02*
G75*
G03*
X74950000Y-52410000I-50000J0D01*
G01*
D12*
%TO.C,U3*%
X92490000Y-59210000D02*
X92490000Y-58735000D01*
X96710000Y-59210000D02*
X96710000Y-58735000D01*
X96235000Y-54990000D02*
X96710000Y-54990000D01*
X96235000Y-59210000D02*
X96710000Y-59210000D01*
X92965000Y-59210000D02*
X92490000Y-59210000D01*
X92965000Y-54990000D02*
X92490000Y-54990000D01*
X96710000Y-54990000D02*
X96710000Y-55465000D01*
%TO.C,R7*%
X74223737Y-41455000D02*
X72776263Y-41455000D01*
X74223737Y-38745000D02*
X72776263Y-38745000D01*
%TO.C,R10*%
X84314598Y-71946475D02*
X83979065Y-72282008D01*
X85053525Y-72685402D02*
X84717992Y-73020935D01*
%TO.C,C10*%
X83810000Y-46359420D02*
X83810000Y-46640580D01*
X82790000Y-46359420D02*
X82790000Y-46640580D01*
%TO.C,C15*%
X83335000Y-36638748D02*
X83335000Y-37161252D01*
X81865000Y-36638748D02*
X81865000Y-37161252D01*
%TO.C,R6*%
X72876263Y-46845000D02*
X74323737Y-46845000D01*
X72876263Y-49555000D02*
X74323737Y-49555000D01*
%TO.C,C5*%
X90413587Y-64884137D02*
X89891083Y-64884137D01*
X90413587Y-63414137D02*
X89891083Y-63414137D01*
%TO.C,C2*%
X84610000Y-64140580D02*
X84610000Y-63859420D01*
X83590000Y-64140580D02*
X83590000Y-63859420D01*
%TO.C,R5*%
X76459165Y-62119718D02*
X76780282Y-62440835D01*
X75419718Y-63159165D02*
X75740835Y-63480282D01*
%TO.C,Q2*%
X69599999Y-45860000D02*
X68949999Y-45860000D01*
X69599999Y-45860000D02*
X71274999Y-45860000D01*
X69599999Y-42740000D02*
X68949999Y-42740000D01*
X69599999Y-42740000D02*
X70249999Y-42740000D01*
%TO.C,C12*%
X92638748Y-78800000D02*
X94061252Y-78800000D01*
X92638748Y-76980000D02*
X94061252Y-76980000D01*
%TD*%
%LPC*%
D15*
%TO.C,U1*%
X95970967Y-41377285D03*
X94470967Y-41377285D03*
X92970967Y-41377285D03*
X95970967Y-39877285D03*
X92970967Y-39877285D03*
X95970967Y-38377285D03*
X94470967Y-38377285D03*
X92970967Y-38377285D03*
X94470967Y-39877285D03*
D16*
X104661401Y-34373359D03*
X104661401Y-35643359D03*
X104661401Y-36913359D03*
X104661401Y-38183359D03*
X104661401Y-39453359D03*
X104661401Y-40723359D03*
X104661401Y-41993359D03*
X104661401Y-43263359D03*
X104661401Y-44533359D03*
X104661401Y-45803359D03*
X104661401Y-47073359D03*
X104661401Y-48343359D03*
X104661401Y-49613359D03*
X104661401Y-50883359D03*
D17*
X102896401Y-52133293D03*
X101626401Y-52133293D03*
X100356401Y-52133293D03*
X99086401Y-52133293D03*
X97816401Y-52133293D03*
X96546401Y-52133293D03*
X95276401Y-52133293D03*
X94006401Y-52133293D03*
X92736401Y-52133293D03*
X91466401Y-52133293D03*
X90196401Y-52133293D03*
X88926401Y-52133293D03*
D16*
X87161401Y-50883359D03*
X87161401Y-49613359D03*
X87161401Y-48343359D03*
X87161401Y-47073359D03*
X87161401Y-45803359D03*
X87161401Y-44533359D03*
X87161401Y-43263359D03*
X87161401Y-41993359D03*
X87161401Y-40723359D03*
X87161401Y-39453359D03*
X87161401Y-38183359D03*
X87161401Y-36913359D03*
X87161401Y-35643359D03*
X87161401Y-34373359D03*
%TD*%
D18*
%TO.C,U5*%
X103100000Y-78450000D03*
D19*
X100800000Y-72150000D03*
X103100000Y-72150000D03*
X105400000Y-72150000D03*
%TD*%
D20*
%TO.C,R3*%
X80200000Y-62680000D03*
X80200000Y-63320000D03*
%TD*%
D21*
%TO.C,R4*%
X96962500Y-63812500D03*
X96962500Y-60887500D03*
%TD*%
D22*
%TO.C,C17*%
X105875000Y-69100000D03*
X102925000Y-69100000D03*
%TD*%
D23*
%TO.C,C4*%
X89202335Y-67689137D03*
X91102335Y-67689137D03*
%TD*%
D24*
%TO.C,C8*%
X80925000Y-79200000D03*
X83875000Y-79200000D03*
%TD*%
D25*
%TO.C,C9*%
X86220000Y-75100000D03*
X85580000Y-75100000D03*
%TD*%
D26*
%TO.C,R1*%
X75700000Y-55300000D03*
X75247452Y-55752548D03*
%TD*%
D27*
%TO.C,D1*%
X79700000Y-58215000D03*
X79700000Y-59185000D03*
%TD*%
D28*
%TO.C,U2*%
X80250000Y-65162500D03*
X82150000Y-65162500D03*
X82150000Y-67437500D03*
X81200000Y-67437500D03*
X80250000Y-67437500D03*
%TD*%
D29*
%TO.C,U4*%
X87800000Y-79920000D03*
D30*
X87800000Y-76740000D03*
D31*
X87100000Y-79005000D03*
X88000000Y-77735000D03*
D29*
X87300000Y-76820000D03*
D32*
X88050000Y-77620000D03*
D33*
X87550000Y-78370000D03*
D31*
X87100000Y-77735000D03*
D30*
X87300000Y-76740000D03*
X87800000Y-80000000D03*
X87300000Y-80000000D03*
D32*
X88050000Y-79120000D03*
X87050000Y-77620000D03*
D29*
X87300000Y-79920000D03*
D32*
X87050000Y-79120000D03*
X87550000Y-78370000D03*
D31*
X88000000Y-79005000D03*
D29*
X87800000Y-76820000D03*
D34*
X85790000Y-79370000D03*
D35*
X86075000Y-79370000D03*
X86075000Y-78870000D03*
D34*
X85790000Y-78870000D03*
D35*
X86075000Y-78370000D03*
D34*
X85790000Y-78370000D03*
X85790000Y-77870000D03*
D35*
X86075000Y-77870000D03*
D34*
X85790000Y-77370000D03*
D35*
X86075000Y-77370000D03*
D34*
X89310000Y-77370000D03*
D35*
X89025000Y-77370000D03*
D34*
X89310000Y-77870000D03*
D35*
X89025000Y-77870000D03*
D34*
X89310000Y-78370000D03*
D35*
X89025000Y-78370000D03*
X89025000Y-78870000D03*
D34*
X89310000Y-78870000D03*
D35*
X89025000Y-79370000D03*
D34*
X89310000Y-79370000D03*
%TD*%
D23*
%TO.C,C6*%
X89252334Y-60649138D03*
X91152334Y-60649138D03*
%TD*%
D36*
%TO.C,C7*%
X83975000Y-69700000D03*
X82425000Y-69700000D03*
%TD*%
D37*
%TO.C,J2*%
X66450000Y-53480000D03*
D38*
X70630000Y-53480000D03*
X70630000Y-62120000D03*
D37*
X66450000Y-62120000D03*
D39*
X71545000Y-54550000D03*
X71545000Y-55350000D03*
D40*
X71545000Y-56050000D03*
X71545000Y-57050000D03*
X71545000Y-58550000D03*
X71545000Y-59550000D03*
D39*
X71545000Y-60250000D03*
X71545000Y-61050000D03*
X71545000Y-61050000D03*
X71545000Y-60250000D03*
D40*
X71545000Y-59050000D03*
X71545000Y-58050000D03*
X71545000Y-57550000D03*
X71545000Y-56550000D03*
D39*
X71545000Y-55350000D03*
X71545000Y-54550000D03*
D41*
X70100000Y-54910000D03*
X70100000Y-60690000D03*
%TD*%
D22*
%TO.C,C13*%
X94825000Y-81789999D03*
X91875000Y-81789999D03*
%TD*%
D42*
%TO.C,R9*%
X81537500Y-41900000D03*
X84462500Y-41900000D03*
%TD*%
D43*
%TO.C,R12*%
X93862500Y-63140000D03*
X93862500Y-64160000D03*
%TD*%
D44*
%TO.C,C14*%
X98200000Y-69050000D03*
X98200000Y-70950000D03*
%TD*%
D45*
%TO.C,D2*%
X77800000Y-57385000D03*
X77800000Y-56415000D03*
%TD*%
D46*
%TO.C,D4*%
X76900000Y-66212500D03*
X76900000Y-67787500D03*
%TD*%
D47*
%TO.C,R8*%
X93872500Y-61650000D03*
X92852500Y-61650000D03*
%TD*%
D22*
%TO.C,C11*%
X94775000Y-74100000D03*
X91825000Y-74100000D03*
%TD*%
D48*
%TO.C,J4*%
X103412994Y-59287006D03*
D49*
X105209045Y-57490955D03*
X107005096Y-55694904D03*
X108801148Y-53898852D03*
%TD*%
D50*
%TO.C,Q1*%
X78737500Y-44300000D03*
X76862500Y-45250000D03*
X76862500Y-43350000D03*
%TD*%
D51*
%TO.C,J3*%
X114512625Y-53150000D03*
X114512625Y-62450000D03*
D52*
X112162625Y-56300000D03*
X112162625Y-57300000D03*
X112162625Y-58300000D03*
X112162625Y-59300000D03*
%TD*%
D53*
%TO.C,R11*%
X81316637Y-75683363D03*
X82483363Y-74516637D03*
%TD*%
D54*
%TO.C,L1*%
X88700000Y-84500000D03*
X86300000Y-84500000D03*
%TD*%
D55*
%TO.C,C1*%
X114570532Y-41314392D03*
X113227030Y-39970890D03*
%TD*%
D56*
%TO.C,C16*%
X84600000Y-37475000D03*
X84600000Y-35925000D03*
%TD*%
D57*
%TO.C,SW1*%
X98840000Y-88200000D03*
X96300000Y-88200000D03*
X93760000Y-88200000D03*
%TD*%
D58*
%TO.C,SW2*%
X117197918Y-35797918D03*
X119602082Y-38202082D03*
%TD*%
D45*
%TO.C,D3*%
X74900000Y-53985000D03*
X74900000Y-53015000D03*
%TD*%
D59*
%TO.C,U3*%
X94600000Y-57100000D03*
D60*
X93350000Y-55162500D03*
X93850000Y-55162500D03*
X94350000Y-55162500D03*
X94850000Y-55162500D03*
X95350000Y-55162500D03*
X95850000Y-55162500D03*
D61*
X96537500Y-55850000D03*
X96537500Y-56350000D03*
X96537500Y-56850000D03*
X96537500Y-57350000D03*
X96537500Y-57850000D03*
X96537500Y-58350000D03*
D60*
X95850000Y-59037500D03*
X95350000Y-59037500D03*
X94850000Y-59037500D03*
X94350000Y-59037500D03*
X93850000Y-59037500D03*
X93350000Y-59037500D03*
D61*
X92662500Y-58350000D03*
X92662500Y-57850000D03*
X92662500Y-57350000D03*
X92662500Y-56850000D03*
X92662500Y-56350000D03*
X92662500Y-55850000D03*
%TD*%
D42*
%TO.C,R7*%
X72037500Y-40100000D03*
X74962500Y-40100000D03*
%TD*%
D53*
%TO.C,R10*%
X83932932Y-73067068D03*
X85099658Y-71900342D03*
%TD*%
D56*
%TO.C,C10*%
X83300000Y-47275000D03*
X83300000Y-45725000D03*
%TD*%
D62*
%TO.C,C15*%
X82600000Y-37850000D03*
X82600000Y-35950000D03*
%TD*%
D63*
%TO.C,R6*%
X75062500Y-48200000D03*
X72137500Y-48200000D03*
%TD*%
D23*
%TO.C,C5*%
X89202335Y-64149137D03*
X91102335Y-64149137D03*
%TD*%
D64*
%TO.C,C2*%
X84100000Y-63225000D03*
X84100000Y-64775000D03*
%TD*%
D25*
%TO.C,R2*%
X75320000Y-59500000D03*
X74680000Y-59500000D03*
%TD*%
D65*
%TO.C,R5*%
X76745235Y-63445235D03*
X75454765Y-62154765D03*
%TD*%
D66*
%TO.C,Q2*%
X68662499Y-44300000D03*
X70537499Y-43350000D03*
X70537499Y-45250000D03*
%TD*%
D22*
%TO.C,C12*%
X94825000Y-77890000D03*
X91875000Y-77890000D03*
%TD*%
D67*
%TO.C,J1*%
X70350000Y-68200000D03*
D68*
X70350000Y-70200000D03*
%TD*%
D69*
X102900000Y-34700000D03*
X95700000Y-84200000D03*
X93700000Y-84200000D03*
X91700000Y-84200000D03*
X79871573Y-81171573D03*
X81285786Y-82585786D03*
X82700000Y-84000000D03*
X77871573Y-83271573D03*
X79285786Y-84685786D03*
X80700000Y-86100000D03*
X110400000Y-37900000D03*
X110400000Y-39899999D03*
X110400000Y-41900000D03*
X106528427Y-60171573D03*
X105114214Y-61585786D03*
X103700000Y-63000000D03*
X110028427Y-61771573D03*
X108614214Y-63185786D03*
X107200000Y-64600000D03*
X127128427Y-64971573D03*
X125714214Y-66385786D03*
X124300000Y-67800000D03*
X125228427Y-69771573D03*
X123814214Y-71185786D03*
X122400000Y-72600000D03*
X126400000Y-59800000D03*
X126400000Y-61799999D03*
X126400000Y-63800000D03*
X125000000Y-53600000D03*
X125000000Y-55599999D03*
X125000000Y-57600000D03*
X127200000Y-53000000D03*
X127200000Y-54999999D03*
X127200000Y-57000000D03*
X125300000Y-47000000D03*
X125300000Y-48999999D03*
X125300000Y-51000000D03*
X121271573Y-41171573D03*
X122685786Y-42585786D03*
X124100000Y-44000000D03*
X92228427Y-35671573D03*
X90814214Y-37085786D03*
X89400000Y-38500000D03*
X101000000Y-35500000D03*
X99000000Y-35500000D03*
X97000000Y-35500000D03*
X102600000Y-37500000D03*
X100600000Y-37500000D03*
X98600000Y-37500000D03*
X102400000Y-39700000D03*
X100400000Y-39700000D03*
X98400000Y-39700000D03*
X102100001Y-41800000D03*
X100100001Y-41800000D03*
X98099999Y-41800000D03*
X90500000Y-42000000D03*
X90500000Y-43999999D03*
X90500000Y-46000000D03*
X97099999Y-44000000D03*
X99100000Y-44000000D03*
X101100001Y-44000000D03*
X97300000Y-46300000D03*
X95300000Y-46300000D03*
X93300000Y-46300000D03*
X101300000Y-48600000D03*
X99300000Y-48600000D03*
X97300000Y-48600000D03*
X93800000Y-48600000D03*
X91800000Y-48600000D03*
X89800000Y-48600000D03*
X72900000Y-51500000D03*
X70900000Y-51500000D03*
X68900000Y-51500000D03*
X80028427Y-54428427D03*
X78614214Y-53014214D03*
X77200000Y-51600000D03*
X69800000Y-64500000D03*
X67800000Y-64500000D03*
X65800000Y-64500000D03*
X65700000Y-47000000D03*
X68528427Y-49828427D03*
X67114214Y-48414214D03*
X67114214Y-51242641D03*
X65700000Y-49828427D03*
X74085786Y-35714214D03*
X75500000Y-34300000D03*
X78328427Y-37128427D03*
X76914214Y-35714214D03*
X76914214Y-38542641D03*
X75500000Y-37128427D03*
X98499999Y-81100000D03*
X100500000Y-81100000D03*
X100500000Y-85100000D03*
X100500000Y-83100001D03*
X98500000Y-85100001D03*
X98500000Y-83100000D03*
X74700000Y-73700000D03*
X74700000Y-75700000D03*
X70700000Y-75700000D03*
X72700000Y-75700000D03*
X70700000Y-73700000D03*
X72700000Y-73700000D03*
X76614214Y-80385786D03*
X75200000Y-81800000D03*
X72371573Y-78971573D03*
X73785786Y-80385785D03*
X73785785Y-77557359D03*
X75200000Y-78971573D03*
X106700000Y-81100000D03*
X110800000Y-83100000D03*
X108800000Y-85100000D03*
X110800000Y-85100000D03*
X112800000Y-81100000D03*
X108800000Y-83100000D03*
X110800000Y-81100000D03*
X108800000Y-81100000D03*
X112800000Y-83100000D03*
X106700000Y-83100000D03*
X102700000Y-83100000D03*
X104700000Y-83100000D03*
X102700000Y-85100000D03*
X104700000Y-85100000D03*
X106700000Y-85100000D03*
X102700000Y-87100000D03*
X106700000Y-87100000D03*
X104700000Y-87100000D03*
X102700000Y-81100000D03*
X104700000Y-81100000D03*
X115600000Y-79200000D03*
X109500000Y-73200000D03*
X113500000Y-73200000D03*
X111500000Y-77200001D03*
X113500001Y-75200000D03*
X111500000Y-75200000D03*
X109500000Y-79200000D03*
X111500001Y-73200000D03*
X113500000Y-77200000D03*
X111500000Y-79200000D03*
X109500000Y-75200001D03*
X113500000Y-79200000D03*
X109500000Y-77200000D03*
X115599999Y-77200000D03*
X119600000Y-77200001D03*
X117600000Y-77200000D03*
X119600000Y-75200000D03*
X117599999Y-75200000D03*
X115600000Y-75200000D03*
X119599999Y-73200000D03*
X115599999Y-73200000D03*
X117600000Y-73200000D03*
X117600000Y-79200000D03*
X113500000Y-65100000D03*
X119600000Y-71100000D03*
X115600000Y-71100000D03*
X117600000Y-67100000D03*
X115600000Y-69100000D03*
X117600000Y-69100000D03*
X119600000Y-65100000D03*
X117600000Y-71100000D03*
X115600000Y-67100000D03*
X117600000Y-65100000D03*
X119600000Y-69100000D03*
X115600000Y-65100000D03*
X119600000Y-67100000D03*
X113500000Y-67100000D03*
X109500000Y-67100000D03*
X111500000Y-67100000D03*
X109500000Y-69100000D03*
X111500000Y-69100000D03*
X113500000Y-69100000D03*
X109500000Y-71100000D03*
X113500000Y-71100000D03*
X111500000Y-71100000D03*
X109500000Y-65100000D03*
X111500000Y-65100000D03*
X119600000Y-44000000D03*
X119600000Y-46000000D03*
X115600000Y-46000000D03*
X117600000Y-46000000D03*
X115600000Y-48000000D03*
X117600000Y-48000000D03*
X119600000Y-48000000D03*
X115600000Y-50000000D03*
X119600000Y-50000000D03*
X117600000Y-50000000D03*
X115600000Y-44000000D03*
X117600000Y-44000000D03*
X113500000Y-48000000D03*
X113500000Y-50000000D03*
X109500000Y-50000000D03*
X111500000Y-50000000D03*
X109500000Y-48000000D03*
X111500000Y-48000000D03*
X113500000Y-46000000D03*
X109500000Y-46000000D03*
X111500000Y-46000000D03*
X113500000Y-44000000D03*
X111500000Y-44000000D03*
X109500000Y-44000000D03*
X82600000Y-63200000D03*
X76100000Y-53600000D03*
X91500000Y-62400000D03*
X95300000Y-57700000D03*
X91200000Y-55700000D03*
X89500000Y-34599500D03*
X94500000Y-42900000D03*
X84900000Y-59200000D03*
X87500000Y-59200000D03*
X87500000Y-75500000D03*
X81700000Y-47900000D03*
X87500000Y-81200000D03*
X83500000Y-56300000D03*
X89100000Y-56300000D03*
X81400000Y-56300000D03*
X73300000Y-54000000D03*
X107700000Y-70700000D03*
X95900000Y-65500000D03*
X79800000Y-76300000D03*
X90100000Y-59200000D03*
X82500000Y-56300000D03*
X98200000Y-67600000D03*
X76700000Y-55000000D03*
X84600000Y-56300000D03*
X87500000Y-64500000D03*
X90200000Y-56200000D03*
X76400000Y-59300000D03*
X96500000Y-74200000D03*
X117600000Y-40900000D03*
X88000000Y-56300000D03*
X93900000Y-56400000D03*
X79280000Y-62680000D03*
X94500000Y-36000000D03*
X95300000Y-56400000D03*
X93900000Y-57700000D03*
X87500000Y-61100000D03*
X81200000Y-69100000D03*
X96500000Y-77800000D03*
X85500000Y-69200000D03*
X80000000Y-60200000D03*
X84100000Y-39000000D03*
X86200000Y-59200000D03*
X87600000Y-68300000D03*
X75900000Y-60500000D03*
X85700000Y-56300000D03*
X83800000Y-59200000D03*
X88900000Y-59200000D03*
X73500000Y-61400000D03*
X86800000Y-56300000D03*
X110100000Y-56200000D03*
X96400000Y-81800000D03*
X102400000Y-66600000D03*
X80800000Y-36100000D03*
X81300000Y-44400000D03*
X81400000Y-71100000D03*
D70*
X69704323Y-56800000D03*
X70250000Y-58124500D03*
X69712921Y-58572663D03*
X69650000Y-57558850D03*
D69*
X102700000Y-45400000D03*
X106300000Y-46119152D03*
X98000000Y-54900000D03*
X76600000Y-46600000D03*
X72700000Y-44300000D03*
X91600000Y-54000000D03*
X84900000Y-49500000D03*
X102400000Y-49800000D03*
X84400000Y-81200000D03*
M02*
