%TF.GenerationSoftware,KiCad,Pcbnew,(7.0.0)*%
%TF.CreationDate,2023-04-01T17:00:43-05:00*%
%TF.ProjectId,pulse_ox_wearable,70756c73-655f-46f7-985f-776561726162,1*%
%TF.SameCoordinates,Original*%
%TF.FileFunction,Legend,Top*%
%TF.FilePolarity,Positive*%
%FSLAX46Y46*%
G04 Gerber Fmt 4.6, Leading zero omitted, Abs format (unit mm)*
G04 Created by KiCad (PCBNEW (7.0.0)) date 2023-04-01 17:00:43*
%MOMM*%
%LPD*%
G01*
G04 APERTURE LIST*
G04 Aperture macros list*
%AMRoundRect*
0 Rectangle with rounded corners*
0 $1 Rounding radius*
0 $2 $3 $4 $5 $6 $7 $8 $9 X,Y pos of 4 corners*
0 Add a 4 corners polygon primitive as box body*
4,1,4,$2,$3,$4,$5,$6,$7,$8,$9,$2,$3,0*
0 Add four circle primitives for the rounded corners*
1,1,$1+$1,$2,$3*
1,1,$1+$1,$4,$5*
1,1,$1+$1,$6,$7*
1,1,$1+$1,$8,$9*
0 Add four rect primitives between the rounded corners*
20,1,$1+$1,$2,$3,$4,$5,0*
20,1,$1+$1,$4,$5,$6,$7,0*
20,1,$1+$1,$6,$7,$8,$9,0*
20,1,$1+$1,$8,$9,$2,$3,0*%
%AMHorizOval*
0 Thick line with rounded ends*
0 $1 width*
0 $2 $3 position (X,Y) of the first rounded end (center of the circle)*
0 $4 $5 position (X,Y) of the second rounded end (center of the circle)*
0 Add line between two ends*
20,1,$1,$2,$3,$4,$5,0*
0 Add two circle primitives to create the rounded ends*
1,1,$1,$2,$3*
1,1,$1,$4,$5*%
%AMRotRect*
0 Rectangle, with rotation*
0 The origin of the aperture is its center*
0 $1 length*
0 $2 width*
0 $3 Rotation angle, in degrees counterclockwise*
0 Add horizontal line*
21,1,$1,$2,0,0,$3*%
G04 Aperture macros list end*
%ADD10C,0.175000*%
%ADD11C,0.150000*%
%ADD12C,0.200000*%
%ADD13C,0.254000*%
%ADD14C,0.120000*%
%ADD15C,0.100000*%
%ADD16R,1.500000X2.000000*%
%ADD17R,3.800000X2.000000*%
%ADD18RoundRect,0.100000X0.100000X-0.130000X0.100000X0.130000X-0.100000X0.130000X-0.100000X-0.130000X0*%
%ADD19RoundRect,0.250000X-1.075000X0.312500X-1.075000X-0.312500X1.075000X-0.312500X1.075000X0.312500X0*%
%ADD20RoundRect,0.250000X-0.325000X-0.650000X0.325000X-0.650000X0.325000X0.650000X-0.325000X0.650000X0*%
%ADD21RoundRect,0.250000X0.250000X0.475000X-0.250000X0.475000X-0.250000X-0.475000X0.250000X-0.475000X0*%
%ADD22RoundRect,0.250000X-0.375000X-1.075000X0.375000X-1.075000X0.375000X1.075000X-0.375000X1.075000X0*%
%ADD23RoundRect,0.250000X0.325000X0.650000X-0.325000X0.650000X-0.325000X-0.650000X0.325000X-0.650000X0*%
%ADD24RoundRect,0.100000X-0.130000X-0.100000X0.130000X-0.100000X0.130000X0.100000X-0.130000X0.100000X0*%
%ADD25RoundRect,0.135000X0.035355X-0.226274X0.226274X-0.035355X-0.035355X0.226274X-0.226274X0.035355X0*%
%ADD26RoundRect,0.147500X0.172500X-0.147500X0.172500X0.147500X-0.172500X0.147500X-0.172500X-0.147500X0*%
%ADD27RoundRect,0.150000X0.150000X-0.512500X0.150000X0.512500X-0.150000X0.512500X-0.150000X-0.512500X0*%
%ADD28RoundRect,0.070000X0.140000X0.140000X-0.140000X0.140000X-0.140000X-0.140000X0.140000X-0.140000X0*%
%ADD29O,0.990000X0.420000*%
%ADD30C,0.600000*%
%ADD31R,0.680000X1.050000*%
%ADD32R,0.260000X0.500000*%
%ADD33R,0.280000X0.700000*%
%ADD34R,1.650000X2.400000*%
%ADD35RoundRect,0.225000X-0.225000X-0.250000X0.225000X-0.250000X0.225000X0.250000X-0.225000X0.250000X0*%
%ADD36C,0.650000*%
%ADD37R,1.450000X0.600000*%
%ADD38R,1.450000X0.300000*%
%ADD39O,2.100000X1.000000*%
%ADD40O,1.600000X1.000000*%
%ADD41RoundRect,0.250000X0.312500X1.075000X-0.312500X1.075000X-0.312500X-1.075000X0.312500X-1.075000X0*%
%ADD42RoundRect,0.135000X0.185000X-0.135000X0.185000X0.135000X-0.185000X0.135000X-0.185000X-0.135000X0*%
%ADD43RoundRect,0.250000X0.475000X-0.250000X0.475000X0.250000X-0.475000X0.250000X-0.475000X-0.250000X0*%
%ADD44RoundRect,0.147500X-0.172500X0.147500X-0.172500X-0.147500X0.172500X-0.147500X0.172500X0.147500X0*%
%ADD45RoundRect,0.218750X0.256250X-0.218750X0.256250X0.218750X-0.256250X0.218750X-0.256250X-0.218750X0*%
%ADD46RoundRect,0.135000X-0.135000X-0.185000X0.135000X-0.185000X0.135000X0.185000X-0.135000X0.185000X0*%
%ADD47RoundRect,0.150000X-0.587500X-0.150000X0.587500X-0.150000X0.587500X0.150000X-0.587500X0.150000X0*%
%ADD48R,1.900000X0.600000*%
%ADD49R,2.800000X2.100000*%
%ADD50RoundRect,0.200000X-0.053033X0.335876X-0.335876X0.053033X0.053033X-0.335876X0.335876X-0.053033X0*%
%ADD51RoundRect,0.225000X-0.250000X0.225000X-0.250000X-0.225000X0.250000X-0.225000X0.250000X0.225000X0*%
%ADD52O,1.524000X1.524000*%
%ADD53RotRect,0.900000X1.700000X135.000000*%
%ADD54RotRect,1.700000X1.700000X315.000000*%
%ADD55HorizOval,1.700000X0.000000X0.000000X0.000000X0.000000X0*%
%ADD56RoundRect,0.062500X-0.350000X-0.062500X0.350000X-0.062500X0.350000X0.062500X-0.350000X0.062500X0*%
%ADD57RoundRect,0.062500X-0.062500X-0.350000X0.062500X-0.350000X0.062500X0.350000X-0.062500X0.350000X0*%
%ADD58R,2.600000X2.600000*%
%ADD59RoundRect,0.250000X-0.475000X0.250000X-0.475000X-0.250000X0.475000X-0.250000X0.475000X0.250000X0*%
%ADD60RoundRect,0.250000X-0.312500X-1.075000X0.312500X-1.075000X0.312500X1.075000X-0.312500X1.075000X0*%
%ADD61RoundRect,0.225000X0.250000X-0.225000X0.250000X0.225000X-0.250000X0.225000X-0.250000X-0.225000X0*%
%ADD62R,1.498600X0.889000*%
%ADD63R,0.889000X1.498600*%
%ADD64R,0.990600X0.990600*%
%ADD65RoundRect,0.250000X-0.503814X-0.132583X-0.132583X-0.503814X0.503814X0.132583X0.132583X0.503814X0*%
%ADD66RoundRect,0.150000X0.587500X0.150000X-0.587500X0.150000X-0.587500X-0.150000X0.587500X-0.150000X0*%
%ADD67RoundRect,0.250000X0.625000X-0.350000X0.625000X0.350000X-0.625000X0.350000X-0.625000X-0.350000X0*%
%ADD68O,1.750000X1.200000*%
G04 APERTURE END LIST*
D10*
X89587500Y-80200000D02*
G75*
G03*
X89587500Y-80200000I-87500J0D01*
G01*
D11*
X90967380Y-88719047D02*
X90967380Y-88528571D01*
X90967380Y-88528571D02*
X91015000Y-88433333D01*
X91015000Y-88433333D02*
X91110238Y-88338095D01*
X91110238Y-88338095D02*
X91300714Y-88290476D01*
X91300714Y-88290476D02*
X91634047Y-88290476D01*
X91634047Y-88290476D02*
X91824523Y-88338095D01*
X91824523Y-88338095D02*
X91919761Y-88433333D01*
X91919761Y-88433333D02*
X91967380Y-88528571D01*
X91967380Y-88528571D02*
X91967380Y-88719047D01*
X91967380Y-88719047D02*
X91919761Y-88814285D01*
X91919761Y-88814285D02*
X91824523Y-88909523D01*
X91824523Y-88909523D02*
X91634047Y-88957142D01*
X91634047Y-88957142D02*
X91300714Y-88957142D01*
X91300714Y-88957142D02*
X91110238Y-88909523D01*
X91110238Y-88909523D02*
X91015000Y-88814285D01*
X91015000Y-88814285D02*
X90967380Y-88719047D01*
X91967380Y-87861904D02*
X90967380Y-87861904D01*
X90967380Y-87861904D02*
X91967380Y-87290476D01*
X91967380Y-87290476D02*
X90967380Y-87290476D01*
X111693643Y-81751196D02*
X111626299Y-81751196D01*
X111626299Y-81751196D02*
X111491612Y-81683852D01*
X111491612Y-81683852D02*
X111424269Y-81616509D01*
X111424269Y-81616509D02*
X111356925Y-81481822D01*
X111356925Y-81481822D02*
X111356925Y-81347135D01*
X111356925Y-81347135D02*
X111390597Y-81246120D01*
X111390597Y-81246120D02*
X111491612Y-81077761D01*
X111491612Y-81077761D02*
X111592627Y-80976746D01*
X111592627Y-80976746D02*
X111760986Y-80875730D01*
X111760986Y-80875730D02*
X111862001Y-80842059D01*
X111862001Y-80842059D02*
X111996688Y-80842059D01*
X111996688Y-80842059D02*
X112131375Y-80909402D01*
X112131375Y-80909402D02*
X112198719Y-80976746D01*
X112198719Y-80976746D02*
X112266062Y-81111433D01*
X112266062Y-81111433D02*
X112266062Y-81178776D01*
X111929345Y-82054242D02*
X111996688Y-82188929D01*
X111996688Y-82188929D02*
X112165047Y-82357287D01*
X112165047Y-82357287D02*
X112266062Y-82390959D01*
X112266062Y-82390959D02*
X112333406Y-82390959D01*
X112333406Y-82390959D02*
X112434421Y-82357287D01*
X112434421Y-82357287D02*
X112501765Y-82289944D01*
X112501765Y-82289944D02*
X112535436Y-82188929D01*
X112535436Y-82188929D02*
X112535436Y-82121585D01*
X112535436Y-82121585D02*
X112501765Y-82020570D01*
X112501765Y-82020570D02*
X112400749Y-81852211D01*
X112400749Y-81852211D02*
X112367078Y-81751196D01*
X112367078Y-81751196D02*
X112367078Y-81683852D01*
X112367078Y-81683852D02*
X112400749Y-81582837D01*
X112400749Y-81582837D02*
X112468093Y-81515494D01*
X112468093Y-81515494D02*
X112569108Y-81481822D01*
X112569108Y-81481822D02*
X112636452Y-81481822D01*
X112636452Y-81481822D02*
X112737467Y-81515494D01*
X112737467Y-81515494D02*
X112905826Y-81683852D01*
X112905826Y-81683852D02*
X112973169Y-81818539D01*
X112080868Y-80360553D02*
X113319988Y-81599673D01*
X113022238Y-79447135D02*
X113089582Y-79581822D01*
X113089582Y-79581822D02*
X113257940Y-79750181D01*
X113257940Y-79750181D02*
X113358956Y-79783852D01*
X113358956Y-79783852D02*
X113426299Y-79783852D01*
X113426299Y-79783852D02*
X113527314Y-79750181D01*
X113527314Y-79750181D02*
X113594658Y-79682837D01*
X113594658Y-79682837D02*
X113628330Y-79581822D01*
X113628330Y-79581822D02*
X113628330Y-79514478D01*
X113628330Y-79514478D02*
X113594658Y-79413463D01*
X113594658Y-79413463D02*
X113493643Y-79245104D01*
X113493643Y-79245104D02*
X113459971Y-79144089D01*
X113459971Y-79144089D02*
X113459971Y-79076746D01*
X113459971Y-79076746D02*
X113493643Y-78975730D01*
X113493643Y-78975730D02*
X113560986Y-78908387D01*
X113560986Y-78908387D02*
X113662001Y-78874715D01*
X113662001Y-78874715D02*
X113729345Y-78874715D01*
X113729345Y-78874715D02*
X113830360Y-78908387D01*
X113830360Y-78908387D02*
X113998719Y-79076746D01*
X113998719Y-79076746D02*
X114066062Y-79211433D01*
X114167078Y-80524631D02*
X114099734Y-80524631D01*
X114099734Y-80524631D02*
X113965047Y-80457287D01*
X113965047Y-80457287D02*
X113897704Y-80389944D01*
X113897704Y-80389944D02*
X113830360Y-80255257D01*
X113830360Y-80255257D02*
X113830360Y-80120570D01*
X113830360Y-80120570D02*
X113864032Y-80019555D01*
X113864032Y-80019555D02*
X113965047Y-79851196D01*
X113965047Y-79851196D02*
X114066062Y-79750181D01*
X114066062Y-79750181D02*
X114234421Y-79649165D01*
X114234421Y-79649165D02*
X114335437Y-79615494D01*
X114335437Y-79615494D02*
X114470124Y-79615494D01*
X114470124Y-79615494D02*
X114604811Y-79682837D01*
X114604811Y-79682837D02*
X114672154Y-79750181D01*
X114672154Y-79750181D02*
X114739498Y-79884868D01*
X114739498Y-79884868D02*
X114739498Y-79952211D01*
X114739498Y-81231738D02*
X114402780Y-80895020D01*
X114402780Y-80895020D02*
X115109887Y-80187913D01*
X114975200Y-81467440D02*
X115682307Y-80760333D01*
X115379261Y-81871501D02*
X115480276Y-81164394D01*
X116086368Y-81164394D02*
X115278246Y-81164394D01*
X118828330Y-70079791D02*
X118895673Y-70214478D01*
X118895673Y-70214478D02*
X118895673Y-70281822D01*
X118895673Y-70281822D02*
X118862001Y-70382837D01*
X118862001Y-70382837D02*
X118760986Y-70483852D01*
X118760986Y-70483852D02*
X118659971Y-70517524D01*
X118659971Y-70517524D02*
X118592627Y-70517524D01*
X118592627Y-70517524D02*
X118491612Y-70483852D01*
X118491612Y-70483852D02*
X118222238Y-70214478D01*
X118222238Y-70214478D02*
X118929345Y-69507372D01*
X118929345Y-69507372D02*
X119165047Y-69743074D01*
X119165047Y-69743074D02*
X119198719Y-69844089D01*
X119198719Y-69844089D02*
X119198719Y-69911433D01*
X119198719Y-69911433D02*
X119165047Y-70012448D01*
X119165047Y-70012448D02*
X119097704Y-70079791D01*
X119097704Y-70079791D02*
X118996688Y-70113463D01*
X118996688Y-70113463D02*
X118929345Y-70113463D01*
X118929345Y-70113463D02*
X118828330Y-70079791D01*
X118828330Y-70079791D02*
X118592627Y-69844089D01*
X119266062Y-71258303D02*
X118929345Y-70921585D01*
X118929345Y-70921585D02*
X119636452Y-70214478D01*
X68638095Y-67001428D02*
X69400000Y-67001428D01*
X69019047Y-67382380D02*
X69019047Y-66620476D01*
X117566062Y-75711433D02*
X117532391Y-75610417D01*
X117532391Y-75610417D02*
X117431375Y-75509402D01*
X117431375Y-75509402D02*
X117296688Y-75442059D01*
X117296688Y-75442059D02*
X117162001Y-75442059D01*
X117162001Y-75442059D02*
X117060986Y-75475730D01*
X117060986Y-75475730D02*
X116892627Y-75576746D01*
X116892627Y-75576746D02*
X116791612Y-75677761D01*
X116791612Y-75677761D02*
X116690597Y-75846120D01*
X116690597Y-75846120D02*
X116656925Y-75947135D01*
X116656925Y-75947135D02*
X116656925Y-76081822D01*
X116656925Y-76081822D02*
X116724269Y-76216509D01*
X116724269Y-76216509D02*
X116791612Y-76283852D01*
X116791612Y-76283852D02*
X116926299Y-76351196D01*
X116926299Y-76351196D02*
X116993643Y-76351196D01*
X116993643Y-76351196D02*
X117229345Y-76115494D01*
X117229345Y-76115494D02*
X117094658Y-75980807D01*
X117229345Y-76721585D02*
X117936452Y-76014478D01*
X117936452Y-76014478D02*
X117633406Y-77125646D01*
X117633406Y-77125646D02*
X118340513Y-76418539D01*
X117970123Y-77462364D02*
X118677230Y-76755257D01*
X118677230Y-76755257D02*
X118845589Y-76923616D01*
X118845589Y-76923616D02*
X118912932Y-77058303D01*
X118912932Y-77058303D02*
X118912932Y-77192990D01*
X118912932Y-77192990D02*
X118879261Y-77294005D01*
X118879261Y-77294005D02*
X118778245Y-77462364D01*
X118778245Y-77462364D02*
X118677230Y-77563379D01*
X118677230Y-77563379D02*
X118508871Y-77664394D01*
X118508871Y-77664394D02*
X118407856Y-77698066D01*
X118407856Y-77698066D02*
X118273169Y-77698066D01*
X118273169Y-77698066D02*
X118138482Y-77630722D01*
X118138482Y-77630722D02*
X117970123Y-77462364D01*
X105342857Y-86982380D02*
X105961904Y-86982380D01*
X105961904Y-86982380D02*
X105628571Y-87363333D01*
X105628571Y-87363333D02*
X105771428Y-87363333D01*
X105771428Y-87363333D02*
X105866666Y-87410952D01*
X105866666Y-87410952D02*
X105914285Y-87458571D01*
X105914285Y-87458571D02*
X105961904Y-87553809D01*
X105961904Y-87553809D02*
X105961904Y-87791904D01*
X105961904Y-87791904D02*
X105914285Y-87887142D01*
X105914285Y-87887142D02*
X105866666Y-87934761D01*
X105866666Y-87934761D02*
X105771428Y-87982380D01*
X105771428Y-87982380D02*
X105485714Y-87982380D01*
X105485714Y-87982380D02*
X105390476Y-87934761D01*
X105390476Y-87934761D02*
X105342857Y-87887142D01*
X106247619Y-86982380D02*
X106580952Y-87982380D01*
X106580952Y-87982380D02*
X106914285Y-86982380D01*
X107152381Y-86982380D02*
X107771428Y-86982380D01*
X107771428Y-86982380D02*
X107438095Y-87363333D01*
X107438095Y-87363333D02*
X107580952Y-87363333D01*
X107580952Y-87363333D02*
X107676190Y-87410952D01*
X107676190Y-87410952D02*
X107723809Y-87458571D01*
X107723809Y-87458571D02*
X107771428Y-87553809D01*
X107771428Y-87553809D02*
X107771428Y-87791904D01*
X107771428Y-87791904D02*
X107723809Y-87887142D01*
X107723809Y-87887142D02*
X107676190Y-87934761D01*
X107676190Y-87934761D02*
X107580952Y-87982380D01*
X107580952Y-87982380D02*
X107295238Y-87982380D01*
X107295238Y-87982380D02*
X107200000Y-87934761D01*
X107200000Y-87934761D02*
X107152381Y-87887142D01*
X68538095Y-71201428D02*
X69300000Y-71201428D01*
X114822238Y-77714478D02*
X115529345Y-77007372D01*
X115529345Y-77007372D02*
X115259971Y-77748150D01*
X115259971Y-77748150D02*
X116000749Y-77478776D01*
X116000749Y-77478776D02*
X115293643Y-78185883D01*
X116472154Y-77950181D02*
X116606841Y-78084868D01*
X116606841Y-78084868D02*
X116640513Y-78185883D01*
X116640513Y-78185883D02*
X116640513Y-78320570D01*
X116640513Y-78320570D02*
X116539497Y-78488929D01*
X116539497Y-78488929D02*
X116303795Y-78724631D01*
X116303795Y-78724631D02*
X116135436Y-78825646D01*
X116135436Y-78825646D02*
X116000749Y-78825646D01*
X116000749Y-78825646D02*
X115899734Y-78791974D01*
X115899734Y-78791974D02*
X115765047Y-78657287D01*
X115765047Y-78657287D02*
X115731375Y-78556272D01*
X115731375Y-78556272D02*
X115731375Y-78421585D01*
X115731375Y-78421585D02*
X115832391Y-78253226D01*
X115832391Y-78253226D02*
X116068093Y-78017524D01*
X116068093Y-78017524D02*
X116236452Y-77916509D01*
X116236452Y-77916509D02*
X116371139Y-77916509D01*
X116371139Y-77916509D02*
X116472154Y-77950181D01*
X116371139Y-79196035D02*
X116438482Y-79330722D01*
X116438482Y-79330722D02*
X116606841Y-79499081D01*
X116606841Y-79499081D02*
X116707856Y-79532753D01*
X116707856Y-79532753D02*
X116775200Y-79532753D01*
X116775200Y-79532753D02*
X116876215Y-79499081D01*
X116876215Y-79499081D02*
X116943558Y-79431738D01*
X116943558Y-79431738D02*
X116977230Y-79330722D01*
X116977230Y-79330722D02*
X116977230Y-79263379D01*
X116977230Y-79263379D02*
X116943558Y-79162364D01*
X116943558Y-79162364D02*
X116842543Y-78994005D01*
X116842543Y-78994005D02*
X116808871Y-78892990D01*
X116808871Y-78892990D02*
X116808871Y-78825646D01*
X116808871Y-78825646D02*
X116842543Y-78724631D01*
X116842543Y-78724631D02*
X116909887Y-78657287D01*
X116909887Y-78657287D02*
X117010902Y-78623616D01*
X117010902Y-78623616D02*
X117078245Y-78623616D01*
X117078245Y-78623616D02*
X117179261Y-78657287D01*
X117179261Y-78657287D02*
X117347619Y-78825646D01*
X117347619Y-78825646D02*
X117414963Y-78960333D01*
X117044574Y-79936814D02*
X117751680Y-79229707D01*
X100967380Y-88952380D02*
X100967380Y-88761904D01*
X100967380Y-88761904D02*
X101015000Y-88666666D01*
X101015000Y-88666666D02*
X101110238Y-88571428D01*
X101110238Y-88571428D02*
X101300714Y-88523809D01*
X101300714Y-88523809D02*
X101634047Y-88523809D01*
X101634047Y-88523809D02*
X101824523Y-88571428D01*
X101824523Y-88571428D02*
X101919761Y-88666666D01*
X101919761Y-88666666D02*
X101967380Y-88761904D01*
X101967380Y-88761904D02*
X101967380Y-88952380D01*
X101967380Y-88952380D02*
X101919761Y-89047618D01*
X101919761Y-89047618D02*
X101824523Y-89142856D01*
X101824523Y-89142856D02*
X101634047Y-89190475D01*
X101634047Y-89190475D02*
X101300714Y-89190475D01*
X101300714Y-89190475D02*
X101110238Y-89142856D01*
X101110238Y-89142856D02*
X101015000Y-89047618D01*
X101015000Y-89047618D02*
X100967380Y-88952380D01*
X101443571Y-87761904D02*
X101443571Y-88095237D01*
X101967380Y-88095237D02*
X100967380Y-88095237D01*
X100967380Y-88095237D02*
X100967380Y-87619047D01*
X101443571Y-86904761D02*
X101443571Y-87238094D01*
X101967380Y-87238094D02*
X100967380Y-87238094D01*
X100967380Y-87238094D02*
X100967380Y-86761904D01*
X109422238Y-83114478D02*
X110129345Y-82407372D01*
X110129345Y-82407372D02*
X110297704Y-82575730D01*
X110297704Y-82575730D02*
X110365047Y-82710417D01*
X110365047Y-82710417D02*
X110365047Y-82845104D01*
X110365047Y-82845104D02*
X110331375Y-82946120D01*
X110331375Y-82946120D02*
X110230360Y-83114478D01*
X110230360Y-83114478D02*
X110129345Y-83215494D01*
X110129345Y-83215494D02*
X109960986Y-83316509D01*
X109960986Y-83316509D02*
X109859971Y-83350181D01*
X109859971Y-83350181D02*
X109725284Y-83350181D01*
X109725284Y-83350181D02*
X109590597Y-83282837D01*
X109590597Y-83282837D02*
X109422238Y-83114478D01*
X110600749Y-84158303D02*
X110533406Y-84158303D01*
X110533406Y-84158303D02*
X110398719Y-84090959D01*
X110398719Y-84090959D02*
X110331375Y-84023616D01*
X110331375Y-84023616D02*
X110264032Y-83888929D01*
X110264032Y-83888929D02*
X110264032Y-83754242D01*
X110264032Y-83754242D02*
X110297704Y-83653226D01*
X110297704Y-83653226D02*
X110398719Y-83484868D01*
X110398719Y-83484868D02*
X110499734Y-83383852D01*
X110499734Y-83383852D02*
X110668093Y-83282837D01*
X110668093Y-83282837D02*
X110769108Y-83249165D01*
X110769108Y-83249165D02*
X110903795Y-83249165D01*
X110903795Y-83249165D02*
X111038482Y-83316509D01*
X111038482Y-83316509D02*
X111105826Y-83383852D01*
X111105826Y-83383852D02*
X111173169Y-83518539D01*
X111173169Y-83518539D02*
X111173169Y-83585883D01*
X108126299Y-85318539D02*
X108227314Y-84746120D01*
X107722238Y-84914478D02*
X108429345Y-84207372D01*
X108429345Y-84207372D02*
X108698719Y-84476746D01*
X108698719Y-84476746D02*
X108732391Y-84577761D01*
X108732391Y-84577761D02*
X108732391Y-84645104D01*
X108732391Y-84645104D02*
X108698719Y-84746120D01*
X108698719Y-84746120D02*
X108597704Y-84847135D01*
X108597704Y-84847135D02*
X108496688Y-84880807D01*
X108496688Y-84880807D02*
X108429345Y-84880807D01*
X108429345Y-84880807D02*
X108328330Y-84847135D01*
X108328330Y-84847135D02*
X108058956Y-84577761D01*
X108429345Y-85554242D02*
X108496688Y-85688929D01*
X108496688Y-85688929D02*
X108665047Y-85857287D01*
X108665047Y-85857287D02*
X108766062Y-85890959D01*
X108766062Y-85890959D02*
X108833406Y-85890959D01*
X108833406Y-85890959D02*
X108934421Y-85857287D01*
X108934421Y-85857287D02*
X109001765Y-85789944D01*
X109001765Y-85789944D02*
X109035436Y-85688929D01*
X109035436Y-85688929D02*
X109035436Y-85621585D01*
X109035436Y-85621585D02*
X109001765Y-85520570D01*
X109001765Y-85520570D02*
X108900749Y-85352211D01*
X108900749Y-85352211D02*
X108867078Y-85251196D01*
X108867078Y-85251196D02*
X108867078Y-85183852D01*
X108867078Y-85183852D02*
X108900749Y-85082837D01*
X108900749Y-85082837D02*
X108968093Y-85015494D01*
X108968093Y-85015494D02*
X109069108Y-84981822D01*
X109069108Y-84981822D02*
X109136452Y-84981822D01*
X109136452Y-84981822D02*
X109237467Y-85015494D01*
X109237467Y-85015494D02*
X109405826Y-85183852D01*
X109405826Y-85183852D02*
X109473169Y-85318539D01*
X109708872Y-85486898D02*
X110112933Y-85890959D01*
X109203795Y-86396035D02*
X109910902Y-85688929D01*
X112338095Y-42852380D02*
X112338095Y-41852380D01*
X112338095Y-41852380D02*
X112719047Y-41852380D01*
X112719047Y-41852380D02*
X112814285Y-41900000D01*
X112814285Y-41900000D02*
X112861904Y-41947619D01*
X112861904Y-41947619D02*
X112909523Y-42042857D01*
X112909523Y-42042857D02*
X112909523Y-42185714D01*
X112909523Y-42185714D02*
X112861904Y-42280952D01*
X112861904Y-42280952D02*
X112814285Y-42328571D01*
X112814285Y-42328571D02*
X112719047Y-42376190D01*
X112719047Y-42376190D02*
X112338095Y-42376190D01*
X113338095Y-42852380D02*
X113338095Y-42185714D01*
X113338095Y-42376190D02*
X113385714Y-42280952D01*
X113385714Y-42280952D02*
X113433333Y-42233333D01*
X113433333Y-42233333D02*
X113528571Y-42185714D01*
X113528571Y-42185714D02*
X113623809Y-42185714D01*
X114100000Y-42852380D02*
X114004762Y-42804761D01*
X114004762Y-42804761D02*
X113957143Y-42757142D01*
X113957143Y-42757142D02*
X113909524Y-42661904D01*
X113909524Y-42661904D02*
X113909524Y-42376190D01*
X113909524Y-42376190D02*
X113957143Y-42280952D01*
X113957143Y-42280952D02*
X114004762Y-42233333D01*
X114004762Y-42233333D02*
X114100000Y-42185714D01*
X114100000Y-42185714D02*
X114242857Y-42185714D01*
X114242857Y-42185714D02*
X114338095Y-42233333D01*
X114338095Y-42233333D02*
X114385714Y-42280952D01*
X114385714Y-42280952D02*
X114433333Y-42376190D01*
X114433333Y-42376190D02*
X114433333Y-42661904D01*
X114433333Y-42661904D02*
X114385714Y-42757142D01*
X114385714Y-42757142D02*
X114338095Y-42804761D01*
X114338095Y-42804761D02*
X114242857Y-42852380D01*
X114242857Y-42852380D02*
X114100000Y-42852380D01*
X114861905Y-42185714D02*
X114861905Y-43042857D01*
X114861905Y-43042857D02*
X114814286Y-43138095D01*
X114814286Y-43138095D02*
X114719048Y-43185714D01*
X114719048Y-43185714D02*
X114671429Y-43185714D01*
X114861905Y-41852380D02*
X114814286Y-41900000D01*
X114814286Y-41900000D02*
X114861905Y-41947619D01*
X114861905Y-41947619D02*
X114909524Y-41900000D01*
X114909524Y-41900000D02*
X114861905Y-41852380D01*
X114861905Y-41852380D02*
X114861905Y-41947619D01*
X115719047Y-42804761D02*
X115623809Y-42852380D01*
X115623809Y-42852380D02*
X115433333Y-42852380D01*
X115433333Y-42852380D02*
X115338095Y-42804761D01*
X115338095Y-42804761D02*
X115290476Y-42709523D01*
X115290476Y-42709523D02*
X115290476Y-42328571D01*
X115290476Y-42328571D02*
X115338095Y-42233333D01*
X115338095Y-42233333D02*
X115433333Y-42185714D01*
X115433333Y-42185714D02*
X115623809Y-42185714D01*
X115623809Y-42185714D02*
X115719047Y-42233333D01*
X115719047Y-42233333D02*
X115766666Y-42328571D01*
X115766666Y-42328571D02*
X115766666Y-42423809D01*
X115766666Y-42423809D02*
X115290476Y-42519047D01*
X116623809Y-42804761D02*
X116528571Y-42852380D01*
X116528571Y-42852380D02*
X116338095Y-42852380D01*
X116338095Y-42852380D02*
X116242857Y-42804761D01*
X116242857Y-42804761D02*
X116195238Y-42757142D01*
X116195238Y-42757142D02*
X116147619Y-42661904D01*
X116147619Y-42661904D02*
X116147619Y-42376190D01*
X116147619Y-42376190D02*
X116195238Y-42280952D01*
X116195238Y-42280952D02*
X116242857Y-42233333D01*
X116242857Y-42233333D02*
X116338095Y-42185714D01*
X116338095Y-42185714D02*
X116528571Y-42185714D01*
X116528571Y-42185714D02*
X116623809Y-42233333D01*
X116909524Y-42185714D02*
X117290476Y-42185714D01*
X117052381Y-41852380D02*
X117052381Y-42709523D01*
X117052381Y-42709523D02*
X117100000Y-42804761D01*
X117100000Y-42804761D02*
X117195238Y-42852380D01*
X117195238Y-42852380D02*
X117290476Y-42852380D01*
X112814285Y-44472380D02*
X112338095Y-44472380D01*
X112338095Y-44472380D02*
X112338095Y-43472380D01*
X113576190Y-44472380D02*
X113576190Y-43948571D01*
X113576190Y-43948571D02*
X113528571Y-43853333D01*
X113528571Y-43853333D02*
X113433333Y-43805714D01*
X113433333Y-43805714D02*
X113242857Y-43805714D01*
X113242857Y-43805714D02*
X113147619Y-43853333D01*
X113576190Y-44424761D02*
X113480952Y-44472380D01*
X113480952Y-44472380D02*
X113242857Y-44472380D01*
X113242857Y-44472380D02*
X113147619Y-44424761D01*
X113147619Y-44424761D02*
X113100000Y-44329523D01*
X113100000Y-44329523D02*
X113100000Y-44234285D01*
X113100000Y-44234285D02*
X113147619Y-44139047D01*
X113147619Y-44139047D02*
X113242857Y-44091428D01*
X113242857Y-44091428D02*
X113480952Y-44091428D01*
X113480952Y-44091428D02*
X113576190Y-44043809D01*
X114052381Y-44472380D02*
X114052381Y-43472380D01*
X114052381Y-43853333D02*
X114147619Y-43805714D01*
X114147619Y-43805714D02*
X114338095Y-43805714D01*
X114338095Y-43805714D02*
X114433333Y-43853333D01*
X114433333Y-43853333D02*
X114480952Y-43900952D01*
X114480952Y-43900952D02*
X114528571Y-43996190D01*
X114528571Y-43996190D02*
X114528571Y-44281904D01*
X114528571Y-44281904D02*
X114480952Y-44377142D01*
X114480952Y-44377142D02*
X114433333Y-44424761D01*
X114433333Y-44424761D02*
X114338095Y-44472380D01*
X114338095Y-44472380D02*
X114147619Y-44472380D01*
X114147619Y-44472380D02*
X114052381Y-44424761D01*
X115461905Y-43472380D02*
X116080952Y-43472380D01*
X116080952Y-43472380D02*
X115747619Y-43853333D01*
X115747619Y-43853333D02*
X115890476Y-43853333D01*
X115890476Y-43853333D02*
X115985714Y-43900952D01*
X115985714Y-43900952D02*
X116033333Y-43948571D01*
X116033333Y-43948571D02*
X116080952Y-44043809D01*
X116080952Y-44043809D02*
X116080952Y-44281904D01*
X116080952Y-44281904D02*
X116033333Y-44377142D01*
X116033333Y-44377142D02*
X115985714Y-44424761D01*
X115985714Y-44424761D02*
X115890476Y-44472380D01*
X115890476Y-44472380D02*
X115604762Y-44472380D01*
X115604762Y-44472380D02*
X115509524Y-44424761D01*
X115509524Y-44424761D02*
X115461905Y-44377142D01*
X112814285Y-46092380D02*
X112338095Y-46092380D01*
X112338095Y-46092380D02*
X112338095Y-45092380D01*
X113147619Y-46092380D02*
X113147619Y-45425714D01*
X113147619Y-45092380D02*
X113100000Y-45140000D01*
X113100000Y-45140000D02*
X113147619Y-45187619D01*
X113147619Y-45187619D02*
X113195238Y-45140000D01*
X113195238Y-45140000D02*
X113147619Y-45092380D01*
X113147619Y-45092380D02*
X113147619Y-45187619D01*
X113480952Y-45425714D02*
X113861904Y-45425714D01*
X113623809Y-46092380D02*
X113623809Y-45235238D01*
X113623809Y-45235238D02*
X113671428Y-45140000D01*
X113671428Y-45140000D02*
X113766666Y-45092380D01*
X113766666Y-45092380D02*
X113861904Y-45092380D01*
X114576190Y-46044761D02*
X114480952Y-46092380D01*
X114480952Y-46092380D02*
X114290476Y-46092380D01*
X114290476Y-46092380D02*
X114195238Y-46044761D01*
X114195238Y-46044761D02*
X114147619Y-45949523D01*
X114147619Y-45949523D02*
X114147619Y-45568571D01*
X114147619Y-45568571D02*
X114195238Y-45473333D01*
X114195238Y-45473333D02*
X114290476Y-45425714D01*
X114290476Y-45425714D02*
X114480952Y-45425714D01*
X114480952Y-45425714D02*
X114576190Y-45473333D01*
X114576190Y-45473333D02*
X114623809Y-45568571D01*
X114623809Y-45568571D02*
X114623809Y-45663809D01*
X114623809Y-45663809D02*
X114147619Y-45759047D01*
X115052381Y-46092380D02*
X115052381Y-45092380D01*
X115052381Y-45092380D02*
X115385714Y-45806666D01*
X115385714Y-45806666D02*
X115719047Y-45092380D01*
X115719047Y-45092380D02*
X115719047Y-46092380D01*
X116052381Y-45092380D02*
X116623809Y-45092380D01*
X116338095Y-46092380D02*
X116338095Y-45092380D01*
X117528571Y-46092380D02*
X117195238Y-45616190D01*
X116957143Y-46092380D02*
X116957143Y-45092380D01*
X116957143Y-45092380D02*
X117338095Y-45092380D01*
X117338095Y-45092380D02*
X117433333Y-45140000D01*
X117433333Y-45140000D02*
X117480952Y-45187619D01*
X117480952Y-45187619D02*
X117528571Y-45282857D01*
X117528571Y-45282857D02*
X117528571Y-45425714D01*
X117528571Y-45425714D02*
X117480952Y-45520952D01*
X117480952Y-45520952D02*
X117433333Y-45568571D01*
X117433333Y-45568571D02*
X117338095Y-45616190D01*
X117338095Y-45616190D02*
X116957143Y-45616190D01*
X112242857Y-47045714D02*
X112480952Y-47712380D01*
X112480952Y-47712380D02*
X112719047Y-47045714D01*
X113623809Y-47712380D02*
X113052381Y-47712380D01*
X113338095Y-47712380D02*
X113338095Y-46712380D01*
X113338095Y-46712380D02*
X113242857Y-46855238D01*
X113242857Y-46855238D02*
X113147619Y-46950476D01*
X113147619Y-46950476D02*
X113052381Y-46998095D01*
D12*
X111300000Y-41100000D02*
X113500000Y-41100000D01*
X114300000Y-41100000D02*
X114300000Y-41100000D01*
X115100000Y-41100000D02*
X115100000Y-41100000D01*
X115900000Y-41100000D02*
X118100000Y-41100000D01*
X118900000Y-41100000D02*
X118900000Y-41100000D01*
X119700000Y-41100000D02*
X119700000Y-41100000D01*
X119900000Y-41100000D02*
X119900000Y-43300000D01*
X119900000Y-44100000D02*
X119900000Y-44100000D01*
X119900000Y-44900000D02*
X119900000Y-44900000D01*
X119900000Y-45700000D02*
X119900000Y-47900000D01*
X119900000Y-48200000D02*
X117700000Y-48200000D01*
X116900000Y-48200000D02*
X116900000Y-48200000D01*
X116100000Y-48200000D02*
X116100000Y-48200000D01*
X115300000Y-48200000D02*
X113100000Y-48200000D01*
X112300000Y-48200000D02*
X112300000Y-48200000D01*
X111500000Y-48200000D02*
X111500000Y-48200000D01*
X111300000Y-48200000D02*
X111300000Y-46000000D01*
X111300000Y-45200000D02*
X111300000Y-45200000D01*
X111300000Y-44400000D02*
X111300000Y-44400000D01*
X111300000Y-43600000D02*
X111300000Y-41400000D01*
D11*
%TO.C,U5*%
X106967380Y-76061904D02*
X107776904Y-76061904D01*
X107776904Y-76061904D02*
X107872142Y-76014285D01*
X107872142Y-76014285D02*
X107919761Y-75966666D01*
X107919761Y-75966666D02*
X107967380Y-75871428D01*
X107967380Y-75871428D02*
X107967380Y-75680952D01*
X107967380Y-75680952D02*
X107919761Y-75585714D01*
X107919761Y-75585714D02*
X107872142Y-75538095D01*
X107872142Y-75538095D02*
X107776904Y-75490476D01*
X107776904Y-75490476D02*
X106967380Y-75490476D01*
X106967380Y-74538095D02*
X106967380Y-75014285D01*
X106967380Y-75014285D02*
X107443571Y-75061904D01*
X107443571Y-75061904D02*
X107395952Y-75014285D01*
X107395952Y-75014285D02*
X107348333Y-74919047D01*
X107348333Y-74919047D02*
X107348333Y-74680952D01*
X107348333Y-74680952D02*
X107395952Y-74585714D01*
X107395952Y-74585714D02*
X107443571Y-74538095D01*
X107443571Y-74538095D02*
X107538809Y-74490476D01*
X107538809Y-74490476D02*
X107776904Y-74490476D01*
X107776904Y-74490476D02*
X107872142Y-74538095D01*
X107872142Y-74538095D02*
X107919761Y-74585714D01*
X107919761Y-74585714D02*
X107967380Y-74680952D01*
X107967380Y-74680952D02*
X107967380Y-74919047D01*
X107967380Y-74919047D02*
X107919761Y-75014285D01*
X107919761Y-75014285D02*
X107872142Y-75061904D01*
%TO.C,R3*%
X80033333Y-61867380D02*
X79700000Y-61391190D01*
X79461905Y-61867380D02*
X79461905Y-60867380D01*
X79461905Y-60867380D02*
X79842857Y-60867380D01*
X79842857Y-60867380D02*
X79938095Y-60915000D01*
X79938095Y-60915000D02*
X79985714Y-60962619D01*
X79985714Y-60962619D02*
X80033333Y-61057857D01*
X80033333Y-61057857D02*
X80033333Y-61200714D01*
X80033333Y-61200714D02*
X79985714Y-61295952D01*
X79985714Y-61295952D02*
X79938095Y-61343571D01*
X79938095Y-61343571D02*
X79842857Y-61391190D01*
X79842857Y-61391190D02*
X79461905Y-61391190D01*
X80366667Y-60867380D02*
X80985714Y-60867380D01*
X80985714Y-60867380D02*
X80652381Y-61248333D01*
X80652381Y-61248333D02*
X80795238Y-61248333D01*
X80795238Y-61248333D02*
X80890476Y-61295952D01*
X80890476Y-61295952D02*
X80938095Y-61343571D01*
X80938095Y-61343571D02*
X80985714Y-61438809D01*
X80985714Y-61438809D02*
X80985714Y-61676904D01*
X80985714Y-61676904D02*
X80938095Y-61772142D01*
X80938095Y-61772142D02*
X80890476Y-61819761D01*
X80890476Y-61819761D02*
X80795238Y-61867380D01*
X80795238Y-61867380D02*
X80509524Y-61867380D01*
X80509524Y-61867380D02*
X80414286Y-61819761D01*
X80414286Y-61819761D02*
X80366667Y-61772142D01*
%TO.C,R4*%
X99609880Y-62516666D02*
X99133690Y-62849999D01*
X99609880Y-63088094D02*
X98609880Y-63088094D01*
X98609880Y-63088094D02*
X98609880Y-62707142D01*
X98609880Y-62707142D02*
X98657500Y-62611904D01*
X98657500Y-62611904D02*
X98705119Y-62564285D01*
X98705119Y-62564285D02*
X98800357Y-62516666D01*
X98800357Y-62516666D02*
X98943214Y-62516666D01*
X98943214Y-62516666D02*
X99038452Y-62564285D01*
X99038452Y-62564285D02*
X99086071Y-62611904D01*
X99086071Y-62611904D02*
X99133690Y-62707142D01*
X99133690Y-62707142D02*
X99133690Y-63088094D01*
X98943214Y-61659523D02*
X99609880Y-61659523D01*
X98562261Y-61897618D02*
X99276547Y-62135713D01*
X99276547Y-62135713D02*
X99276547Y-61516666D01*
%TO.C,C17*%
X103757142Y-67522142D02*
X103709523Y-67569761D01*
X103709523Y-67569761D02*
X103566666Y-67617380D01*
X103566666Y-67617380D02*
X103471428Y-67617380D01*
X103471428Y-67617380D02*
X103328571Y-67569761D01*
X103328571Y-67569761D02*
X103233333Y-67474523D01*
X103233333Y-67474523D02*
X103185714Y-67379285D01*
X103185714Y-67379285D02*
X103138095Y-67188809D01*
X103138095Y-67188809D02*
X103138095Y-67045952D01*
X103138095Y-67045952D02*
X103185714Y-66855476D01*
X103185714Y-66855476D02*
X103233333Y-66760238D01*
X103233333Y-66760238D02*
X103328571Y-66665000D01*
X103328571Y-66665000D02*
X103471428Y-66617380D01*
X103471428Y-66617380D02*
X103566666Y-66617380D01*
X103566666Y-66617380D02*
X103709523Y-66665000D01*
X103709523Y-66665000D02*
X103757142Y-66712619D01*
X104709523Y-67617380D02*
X104138095Y-67617380D01*
X104423809Y-67617380D02*
X104423809Y-66617380D01*
X104423809Y-66617380D02*
X104328571Y-66760238D01*
X104328571Y-66760238D02*
X104233333Y-66855476D01*
X104233333Y-66855476D02*
X104138095Y-66903095D01*
X105042857Y-66617380D02*
X105709523Y-66617380D01*
X105709523Y-66617380D02*
X105280952Y-67617380D01*
%TO.C,C4*%
X89985668Y-69641279D02*
X89938049Y-69688898D01*
X89938049Y-69688898D02*
X89795192Y-69736517D01*
X89795192Y-69736517D02*
X89699954Y-69736517D01*
X89699954Y-69736517D02*
X89557097Y-69688898D01*
X89557097Y-69688898D02*
X89461859Y-69593660D01*
X89461859Y-69593660D02*
X89414240Y-69498422D01*
X89414240Y-69498422D02*
X89366621Y-69307946D01*
X89366621Y-69307946D02*
X89366621Y-69165089D01*
X89366621Y-69165089D02*
X89414240Y-68974613D01*
X89414240Y-68974613D02*
X89461859Y-68879375D01*
X89461859Y-68879375D02*
X89557097Y-68784137D01*
X89557097Y-68784137D02*
X89699954Y-68736517D01*
X89699954Y-68736517D02*
X89795192Y-68736517D01*
X89795192Y-68736517D02*
X89938049Y-68784137D01*
X89938049Y-68784137D02*
X89985668Y-68831756D01*
X90842811Y-69069851D02*
X90842811Y-69736517D01*
X90604716Y-68688898D02*
X90366621Y-69403184D01*
X90366621Y-69403184D02*
X90985668Y-69403184D01*
%TO.C,L1*%
X87333333Y-82287380D02*
X86857143Y-82287380D01*
X86857143Y-82287380D02*
X86857143Y-81287380D01*
X88190476Y-82287380D02*
X87619048Y-82287380D01*
X87904762Y-82287380D02*
X87904762Y-81287380D01*
X87904762Y-81287380D02*
X87809524Y-81430238D01*
X87809524Y-81430238D02*
X87714286Y-81525476D01*
X87714286Y-81525476D02*
X87619048Y-81573095D01*
%TO.C,C8*%
X82233333Y-81322142D02*
X82185714Y-81369761D01*
X82185714Y-81369761D02*
X82042857Y-81417380D01*
X82042857Y-81417380D02*
X81947619Y-81417380D01*
X81947619Y-81417380D02*
X81804762Y-81369761D01*
X81804762Y-81369761D02*
X81709524Y-81274523D01*
X81709524Y-81274523D02*
X81661905Y-81179285D01*
X81661905Y-81179285D02*
X81614286Y-80988809D01*
X81614286Y-80988809D02*
X81614286Y-80845952D01*
X81614286Y-80845952D02*
X81661905Y-80655476D01*
X81661905Y-80655476D02*
X81709524Y-80560238D01*
X81709524Y-80560238D02*
X81804762Y-80465000D01*
X81804762Y-80465000D02*
X81947619Y-80417380D01*
X81947619Y-80417380D02*
X82042857Y-80417380D01*
X82042857Y-80417380D02*
X82185714Y-80465000D01*
X82185714Y-80465000D02*
X82233333Y-80512619D01*
X82804762Y-80845952D02*
X82709524Y-80798333D01*
X82709524Y-80798333D02*
X82661905Y-80750714D01*
X82661905Y-80750714D02*
X82614286Y-80655476D01*
X82614286Y-80655476D02*
X82614286Y-80607857D01*
X82614286Y-80607857D02*
X82661905Y-80512619D01*
X82661905Y-80512619D02*
X82709524Y-80465000D01*
X82709524Y-80465000D02*
X82804762Y-80417380D01*
X82804762Y-80417380D02*
X82995238Y-80417380D01*
X82995238Y-80417380D02*
X83090476Y-80465000D01*
X83090476Y-80465000D02*
X83138095Y-80512619D01*
X83138095Y-80512619D02*
X83185714Y-80607857D01*
X83185714Y-80607857D02*
X83185714Y-80655476D01*
X83185714Y-80655476D02*
X83138095Y-80750714D01*
X83138095Y-80750714D02*
X83090476Y-80798333D01*
X83090476Y-80798333D02*
X82995238Y-80845952D01*
X82995238Y-80845952D02*
X82804762Y-80845952D01*
X82804762Y-80845952D02*
X82709524Y-80893571D01*
X82709524Y-80893571D02*
X82661905Y-80941190D01*
X82661905Y-80941190D02*
X82614286Y-81036428D01*
X82614286Y-81036428D02*
X82614286Y-81226904D01*
X82614286Y-81226904D02*
X82661905Y-81322142D01*
X82661905Y-81322142D02*
X82709524Y-81369761D01*
X82709524Y-81369761D02*
X82804762Y-81417380D01*
X82804762Y-81417380D02*
X82995238Y-81417380D01*
X82995238Y-81417380D02*
X83090476Y-81369761D01*
X83090476Y-81369761D02*
X83138095Y-81322142D01*
X83138095Y-81322142D02*
X83185714Y-81226904D01*
X83185714Y-81226904D02*
X83185714Y-81036428D01*
X83185714Y-81036428D02*
X83138095Y-80941190D01*
X83138095Y-80941190D02*
X83090476Y-80893571D01*
X83090476Y-80893571D02*
X82995238Y-80845952D01*
%TO.C,C9*%
X87133333Y-74472142D02*
X87085714Y-74519761D01*
X87085714Y-74519761D02*
X86942857Y-74567380D01*
X86942857Y-74567380D02*
X86847619Y-74567380D01*
X86847619Y-74567380D02*
X86704762Y-74519761D01*
X86704762Y-74519761D02*
X86609524Y-74424523D01*
X86609524Y-74424523D02*
X86561905Y-74329285D01*
X86561905Y-74329285D02*
X86514286Y-74138809D01*
X86514286Y-74138809D02*
X86514286Y-73995952D01*
X86514286Y-73995952D02*
X86561905Y-73805476D01*
X86561905Y-73805476D02*
X86609524Y-73710238D01*
X86609524Y-73710238D02*
X86704762Y-73615000D01*
X86704762Y-73615000D02*
X86847619Y-73567380D01*
X86847619Y-73567380D02*
X86942857Y-73567380D01*
X86942857Y-73567380D02*
X87085714Y-73615000D01*
X87085714Y-73615000D02*
X87133333Y-73662619D01*
X87609524Y-74567380D02*
X87800000Y-74567380D01*
X87800000Y-74567380D02*
X87895238Y-74519761D01*
X87895238Y-74519761D02*
X87942857Y-74472142D01*
X87942857Y-74472142D02*
X88038095Y-74329285D01*
X88038095Y-74329285D02*
X88085714Y-74138809D01*
X88085714Y-74138809D02*
X88085714Y-73757857D01*
X88085714Y-73757857D02*
X88038095Y-73662619D01*
X88038095Y-73662619D02*
X87990476Y-73615000D01*
X87990476Y-73615000D02*
X87895238Y-73567380D01*
X87895238Y-73567380D02*
X87704762Y-73567380D01*
X87704762Y-73567380D02*
X87609524Y-73615000D01*
X87609524Y-73615000D02*
X87561905Y-73662619D01*
X87561905Y-73662619D02*
X87514286Y-73757857D01*
X87514286Y-73757857D02*
X87514286Y-73995952D01*
X87514286Y-73995952D02*
X87561905Y-74091190D01*
X87561905Y-74091190D02*
X87609524Y-74138809D01*
X87609524Y-74138809D02*
X87704762Y-74186428D01*
X87704762Y-74186428D02*
X87895238Y-74186428D01*
X87895238Y-74186428D02*
X87990476Y-74138809D01*
X87990476Y-74138809D02*
X88038095Y-74091190D01*
X88038095Y-74091190D02*
X88085714Y-73995952D01*
%TO.C,R1*%
X76541926Y-56777628D02*
X75969506Y-56676613D01*
X76137865Y-57181689D02*
X75430758Y-56474582D01*
X75430758Y-56474582D02*
X75700132Y-56205208D01*
X75700132Y-56205208D02*
X75801148Y-56171536D01*
X75801148Y-56171536D02*
X75868491Y-56171536D01*
X75868491Y-56171536D02*
X75969506Y-56205208D01*
X75969506Y-56205208D02*
X76070522Y-56306223D01*
X76070522Y-56306223D02*
X76104193Y-56407239D01*
X76104193Y-56407239D02*
X76104193Y-56474582D01*
X76104193Y-56474582D02*
X76070522Y-56575597D01*
X76070522Y-56575597D02*
X75801148Y-56844971D01*
X77215361Y-56104193D02*
X76811300Y-56508254D01*
X77013331Y-56306223D02*
X76306224Y-55599117D01*
X76306224Y-55599117D02*
X76339896Y-55767475D01*
X76339896Y-55767475D02*
X76339896Y-55902162D01*
X76339896Y-55902162D02*
X76306224Y-56003178D01*
%TO.C,D1*%
X79061905Y-57367380D02*
X79061905Y-56367380D01*
X79061905Y-56367380D02*
X79300000Y-56367380D01*
X79300000Y-56367380D02*
X79442857Y-56415000D01*
X79442857Y-56415000D02*
X79538095Y-56510238D01*
X79538095Y-56510238D02*
X79585714Y-56605476D01*
X79585714Y-56605476D02*
X79633333Y-56795952D01*
X79633333Y-56795952D02*
X79633333Y-56938809D01*
X79633333Y-56938809D02*
X79585714Y-57129285D01*
X79585714Y-57129285D02*
X79538095Y-57224523D01*
X79538095Y-57224523D02*
X79442857Y-57319761D01*
X79442857Y-57319761D02*
X79300000Y-57367380D01*
X79300000Y-57367380D02*
X79061905Y-57367380D01*
X80585714Y-57367380D02*
X80014286Y-57367380D01*
X80300000Y-57367380D02*
X80300000Y-56367380D01*
X80300000Y-56367380D02*
X80204762Y-56510238D01*
X80204762Y-56510238D02*
X80109524Y-56605476D01*
X80109524Y-56605476D02*
X80014286Y-56653095D01*
%TO.C,U2*%
X78167380Y-67061904D02*
X78976904Y-67061904D01*
X78976904Y-67061904D02*
X79072142Y-67014285D01*
X79072142Y-67014285D02*
X79119761Y-66966666D01*
X79119761Y-66966666D02*
X79167380Y-66871428D01*
X79167380Y-66871428D02*
X79167380Y-66680952D01*
X79167380Y-66680952D02*
X79119761Y-66585714D01*
X79119761Y-66585714D02*
X79072142Y-66538095D01*
X79072142Y-66538095D02*
X78976904Y-66490476D01*
X78976904Y-66490476D02*
X78167380Y-66490476D01*
X78262619Y-66061904D02*
X78215000Y-66014285D01*
X78215000Y-66014285D02*
X78167380Y-65919047D01*
X78167380Y-65919047D02*
X78167380Y-65680952D01*
X78167380Y-65680952D02*
X78215000Y-65585714D01*
X78215000Y-65585714D02*
X78262619Y-65538095D01*
X78262619Y-65538095D02*
X78357857Y-65490476D01*
X78357857Y-65490476D02*
X78453095Y-65490476D01*
X78453095Y-65490476D02*
X78595952Y-65538095D01*
X78595952Y-65538095D02*
X79167380Y-66109523D01*
X79167380Y-66109523D02*
X79167380Y-65490476D01*
%TO.C,U4*%
X85338095Y-80867380D02*
X85338095Y-81676904D01*
X85338095Y-81676904D02*
X85385714Y-81772142D01*
X85385714Y-81772142D02*
X85433333Y-81819761D01*
X85433333Y-81819761D02*
X85528571Y-81867380D01*
X85528571Y-81867380D02*
X85719047Y-81867380D01*
X85719047Y-81867380D02*
X85814285Y-81819761D01*
X85814285Y-81819761D02*
X85861904Y-81772142D01*
X85861904Y-81772142D02*
X85909523Y-81676904D01*
X85909523Y-81676904D02*
X85909523Y-80867380D01*
X86814285Y-81200714D02*
X86814285Y-81867380D01*
X86576190Y-80819761D02*
X86338095Y-81534047D01*
X86338095Y-81534047D02*
X86957142Y-81534047D01*
%TO.C,C6*%
X90035667Y-62601280D02*
X89988048Y-62648899D01*
X89988048Y-62648899D02*
X89845191Y-62696518D01*
X89845191Y-62696518D02*
X89749953Y-62696518D01*
X89749953Y-62696518D02*
X89607096Y-62648899D01*
X89607096Y-62648899D02*
X89511858Y-62553661D01*
X89511858Y-62553661D02*
X89464239Y-62458423D01*
X89464239Y-62458423D02*
X89416620Y-62267947D01*
X89416620Y-62267947D02*
X89416620Y-62125090D01*
X89416620Y-62125090D02*
X89464239Y-61934614D01*
X89464239Y-61934614D02*
X89511858Y-61839376D01*
X89511858Y-61839376D02*
X89607096Y-61744138D01*
X89607096Y-61744138D02*
X89749953Y-61696518D01*
X89749953Y-61696518D02*
X89845191Y-61696518D01*
X89845191Y-61696518D02*
X89988048Y-61744138D01*
X89988048Y-61744138D02*
X90035667Y-61791757D01*
X90892810Y-61696518D02*
X90702334Y-61696518D01*
X90702334Y-61696518D02*
X90607096Y-61744138D01*
X90607096Y-61744138D02*
X90559477Y-61791757D01*
X90559477Y-61791757D02*
X90464239Y-61934614D01*
X90464239Y-61934614D02*
X90416620Y-62125090D01*
X90416620Y-62125090D02*
X90416620Y-62506042D01*
X90416620Y-62506042D02*
X90464239Y-62601280D01*
X90464239Y-62601280D02*
X90511858Y-62648899D01*
X90511858Y-62648899D02*
X90607096Y-62696518D01*
X90607096Y-62696518D02*
X90797572Y-62696518D01*
X90797572Y-62696518D02*
X90892810Y-62648899D01*
X90892810Y-62648899D02*
X90940429Y-62601280D01*
X90940429Y-62601280D02*
X90988048Y-62506042D01*
X90988048Y-62506042D02*
X90988048Y-62267947D01*
X90988048Y-62267947D02*
X90940429Y-62172709D01*
X90940429Y-62172709D02*
X90892810Y-62125090D01*
X90892810Y-62125090D02*
X90797572Y-62077471D01*
X90797572Y-62077471D02*
X90607096Y-62077471D01*
X90607096Y-62077471D02*
X90511858Y-62125090D01*
X90511858Y-62125090D02*
X90464239Y-62172709D01*
X90464239Y-62172709D02*
X90416620Y-62267947D01*
%TO.C,C7*%
X84033333Y-68572142D02*
X83985714Y-68619761D01*
X83985714Y-68619761D02*
X83842857Y-68667380D01*
X83842857Y-68667380D02*
X83747619Y-68667380D01*
X83747619Y-68667380D02*
X83604762Y-68619761D01*
X83604762Y-68619761D02*
X83509524Y-68524523D01*
X83509524Y-68524523D02*
X83461905Y-68429285D01*
X83461905Y-68429285D02*
X83414286Y-68238809D01*
X83414286Y-68238809D02*
X83414286Y-68095952D01*
X83414286Y-68095952D02*
X83461905Y-67905476D01*
X83461905Y-67905476D02*
X83509524Y-67810238D01*
X83509524Y-67810238D02*
X83604762Y-67715000D01*
X83604762Y-67715000D02*
X83747619Y-67667380D01*
X83747619Y-67667380D02*
X83842857Y-67667380D01*
X83842857Y-67667380D02*
X83985714Y-67715000D01*
X83985714Y-67715000D02*
X84033333Y-67762619D01*
X84366667Y-67667380D02*
X85033333Y-67667380D01*
X85033333Y-67667380D02*
X84604762Y-68667380D01*
%TO.C,C13*%
X92707142Y-80212141D02*
X92659523Y-80259760D01*
X92659523Y-80259760D02*
X92516666Y-80307379D01*
X92516666Y-80307379D02*
X92421428Y-80307379D01*
X92421428Y-80307379D02*
X92278571Y-80259760D01*
X92278571Y-80259760D02*
X92183333Y-80164522D01*
X92183333Y-80164522D02*
X92135714Y-80069284D01*
X92135714Y-80069284D02*
X92088095Y-79878808D01*
X92088095Y-79878808D02*
X92088095Y-79735951D01*
X92088095Y-79735951D02*
X92135714Y-79545475D01*
X92135714Y-79545475D02*
X92183333Y-79450237D01*
X92183333Y-79450237D02*
X92278571Y-79354999D01*
X92278571Y-79354999D02*
X92421428Y-79307379D01*
X92421428Y-79307379D02*
X92516666Y-79307379D01*
X92516666Y-79307379D02*
X92659523Y-79354999D01*
X92659523Y-79354999D02*
X92707142Y-79402618D01*
X93659523Y-80307379D02*
X93088095Y-80307379D01*
X93373809Y-80307379D02*
X93373809Y-79307379D01*
X93373809Y-79307379D02*
X93278571Y-79450237D01*
X93278571Y-79450237D02*
X93183333Y-79545475D01*
X93183333Y-79545475D02*
X93088095Y-79593094D01*
X93992857Y-79307379D02*
X94611904Y-79307379D01*
X94611904Y-79307379D02*
X94278571Y-79688332D01*
X94278571Y-79688332D02*
X94421428Y-79688332D01*
X94421428Y-79688332D02*
X94516666Y-79735951D01*
X94516666Y-79735951D02*
X94564285Y-79783570D01*
X94564285Y-79783570D02*
X94611904Y-79878808D01*
X94611904Y-79878808D02*
X94611904Y-80116903D01*
X94611904Y-80116903D02*
X94564285Y-80212141D01*
X94564285Y-80212141D02*
X94516666Y-80259760D01*
X94516666Y-80259760D02*
X94421428Y-80307379D01*
X94421428Y-80307379D02*
X94135714Y-80307379D01*
X94135714Y-80307379D02*
X94040476Y-80259760D01*
X94040476Y-80259760D02*
X93992857Y-80212141D01*
%TO.C,R9*%
X82833333Y-44547380D02*
X82500000Y-44071190D01*
X82261905Y-44547380D02*
X82261905Y-43547380D01*
X82261905Y-43547380D02*
X82642857Y-43547380D01*
X82642857Y-43547380D02*
X82738095Y-43595000D01*
X82738095Y-43595000D02*
X82785714Y-43642619D01*
X82785714Y-43642619D02*
X82833333Y-43737857D01*
X82833333Y-43737857D02*
X82833333Y-43880714D01*
X82833333Y-43880714D02*
X82785714Y-43975952D01*
X82785714Y-43975952D02*
X82738095Y-44023571D01*
X82738095Y-44023571D02*
X82642857Y-44071190D01*
X82642857Y-44071190D02*
X82261905Y-44071190D01*
X83309524Y-44547380D02*
X83500000Y-44547380D01*
X83500000Y-44547380D02*
X83595238Y-44499761D01*
X83595238Y-44499761D02*
X83642857Y-44452142D01*
X83642857Y-44452142D02*
X83738095Y-44309285D01*
X83738095Y-44309285D02*
X83785714Y-44118809D01*
X83785714Y-44118809D02*
X83785714Y-43737857D01*
X83785714Y-43737857D02*
X83738095Y-43642619D01*
X83738095Y-43642619D02*
X83690476Y-43595000D01*
X83690476Y-43595000D02*
X83595238Y-43547380D01*
X83595238Y-43547380D02*
X83404762Y-43547380D01*
X83404762Y-43547380D02*
X83309524Y-43595000D01*
X83309524Y-43595000D02*
X83261905Y-43642619D01*
X83261905Y-43642619D02*
X83214286Y-43737857D01*
X83214286Y-43737857D02*
X83214286Y-43975952D01*
X83214286Y-43975952D02*
X83261905Y-44071190D01*
X83261905Y-44071190D02*
X83309524Y-44118809D01*
X83309524Y-44118809D02*
X83404762Y-44166428D01*
X83404762Y-44166428D02*
X83595238Y-44166428D01*
X83595238Y-44166428D02*
X83690476Y-44118809D01*
X83690476Y-44118809D02*
X83738095Y-44071190D01*
X83738095Y-44071190D02*
X83785714Y-43975952D01*
%TO.C,R12*%
X93219642Y-65817380D02*
X92886309Y-65341190D01*
X92648214Y-65817380D02*
X92648214Y-64817380D01*
X92648214Y-64817380D02*
X93029166Y-64817380D01*
X93029166Y-64817380D02*
X93124404Y-64865000D01*
X93124404Y-64865000D02*
X93172023Y-64912619D01*
X93172023Y-64912619D02*
X93219642Y-65007857D01*
X93219642Y-65007857D02*
X93219642Y-65150714D01*
X93219642Y-65150714D02*
X93172023Y-65245952D01*
X93172023Y-65245952D02*
X93124404Y-65293571D01*
X93124404Y-65293571D02*
X93029166Y-65341190D01*
X93029166Y-65341190D02*
X92648214Y-65341190D01*
X94172023Y-65817380D02*
X93600595Y-65817380D01*
X93886309Y-65817380D02*
X93886309Y-64817380D01*
X93886309Y-64817380D02*
X93791071Y-64960238D01*
X93791071Y-64960238D02*
X93695833Y-65055476D01*
X93695833Y-65055476D02*
X93600595Y-65103095D01*
X94552976Y-64912619D02*
X94600595Y-64865000D01*
X94600595Y-64865000D02*
X94695833Y-64817380D01*
X94695833Y-64817380D02*
X94933928Y-64817380D01*
X94933928Y-64817380D02*
X95029166Y-64865000D01*
X95029166Y-64865000D02*
X95076785Y-64912619D01*
X95076785Y-64912619D02*
X95124404Y-65007857D01*
X95124404Y-65007857D02*
X95124404Y-65103095D01*
X95124404Y-65103095D02*
X95076785Y-65245952D01*
X95076785Y-65245952D02*
X94505357Y-65817380D01*
X94505357Y-65817380D02*
X95124404Y-65817380D01*
%TO.C,C14*%
X96792142Y-70642857D02*
X96839761Y-70690476D01*
X96839761Y-70690476D02*
X96887380Y-70833333D01*
X96887380Y-70833333D02*
X96887380Y-70928571D01*
X96887380Y-70928571D02*
X96839761Y-71071428D01*
X96839761Y-71071428D02*
X96744523Y-71166666D01*
X96744523Y-71166666D02*
X96649285Y-71214285D01*
X96649285Y-71214285D02*
X96458809Y-71261904D01*
X96458809Y-71261904D02*
X96315952Y-71261904D01*
X96315952Y-71261904D02*
X96125476Y-71214285D01*
X96125476Y-71214285D02*
X96030238Y-71166666D01*
X96030238Y-71166666D02*
X95935000Y-71071428D01*
X95935000Y-71071428D02*
X95887380Y-70928571D01*
X95887380Y-70928571D02*
X95887380Y-70833333D01*
X95887380Y-70833333D02*
X95935000Y-70690476D01*
X95935000Y-70690476D02*
X95982619Y-70642857D01*
X96887380Y-69690476D02*
X96887380Y-70261904D01*
X96887380Y-69976190D02*
X95887380Y-69976190D01*
X95887380Y-69976190D02*
X96030238Y-70071428D01*
X96030238Y-70071428D02*
X96125476Y-70166666D01*
X96125476Y-70166666D02*
X96173095Y-70261904D01*
X96220714Y-68833333D02*
X96887380Y-68833333D01*
X95839761Y-69071428D02*
X96554047Y-69309523D01*
X96554047Y-69309523D02*
X96554047Y-68690476D01*
%TO.C,D2*%
X77061905Y-58967380D02*
X77061905Y-57967380D01*
X77061905Y-57967380D02*
X77300000Y-57967380D01*
X77300000Y-57967380D02*
X77442857Y-58015000D01*
X77442857Y-58015000D02*
X77538095Y-58110238D01*
X77538095Y-58110238D02*
X77585714Y-58205476D01*
X77585714Y-58205476D02*
X77633333Y-58395952D01*
X77633333Y-58395952D02*
X77633333Y-58538809D01*
X77633333Y-58538809D02*
X77585714Y-58729285D01*
X77585714Y-58729285D02*
X77538095Y-58824523D01*
X77538095Y-58824523D02*
X77442857Y-58919761D01*
X77442857Y-58919761D02*
X77300000Y-58967380D01*
X77300000Y-58967380D02*
X77061905Y-58967380D01*
X78014286Y-58062619D02*
X78061905Y-58015000D01*
X78061905Y-58015000D02*
X78157143Y-57967380D01*
X78157143Y-57967380D02*
X78395238Y-57967380D01*
X78395238Y-57967380D02*
X78490476Y-58015000D01*
X78490476Y-58015000D02*
X78538095Y-58062619D01*
X78538095Y-58062619D02*
X78585714Y-58157857D01*
X78585714Y-58157857D02*
X78585714Y-58253095D01*
X78585714Y-58253095D02*
X78538095Y-58395952D01*
X78538095Y-58395952D02*
X77966667Y-58967380D01*
X77966667Y-58967380D02*
X78585714Y-58967380D01*
%TO.C,D4*%
X76161905Y-69867380D02*
X76161905Y-68867380D01*
X76161905Y-68867380D02*
X76400000Y-68867380D01*
X76400000Y-68867380D02*
X76542857Y-68915000D01*
X76542857Y-68915000D02*
X76638095Y-69010238D01*
X76638095Y-69010238D02*
X76685714Y-69105476D01*
X76685714Y-69105476D02*
X76733333Y-69295952D01*
X76733333Y-69295952D02*
X76733333Y-69438809D01*
X76733333Y-69438809D02*
X76685714Y-69629285D01*
X76685714Y-69629285D02*
X76638095Y-69724523D01*
X76638095Y-69724523D02*
X76542857Y-69819761D01*
X76542857Y-69819761D02*
X76400000Y-69867380D01*
X76400000Y-69867380D02*
X76161905Y-69867380D01*
X77590476Y-69200714D02*
X77590476Y-69867380D01*
X77352381Y-68819761D02*
X77114286Y-69534047D01*
X77114286Y-69534047D02*
X77733333Y-69534047D01*
%TO.C,R8*%
X93195833Y-60847380D02*
X92862500Y-60371190D01*
X92624405Y-60847380D02*
X92624405Y-59847380D01*
X92624405Y-59847380D02*
X93005357Y-59847380D01*
X93005357Y-59847380D02*
X93100595Y-59895000D01*
X93100595Y-59895000D02*
X93148214Y-59942619D01*
X93148214Y-59942619D02*
X93195833Y-60037857D01*
X93195833Y-60037857D02*
X93195833Y-60180714D01*
X93195833Y-60180714D02*
X93148214Y-60275952D01*
X93148214Y-60275952D02*
X93100595Y-60323571D01*
X93100595Y-60323571D02*
X93005357Y-60371190D01*
X93005357Y-60371190D02*
X92624405Y-60371190D01*
X93767262Y-60275952D02*
X93672024Y-60228333D01*
X93672024Y-60228333D02*
X93624405Y-60180714D01*
X93624405Y-60180714D02*
X93576786Y-60085476D01*
X93576786Y-60085476D02*
X93576786Y-60037857D01*
X93576786Y-60037857D02*
X93624405Y-59942619D01*
X93624405Y-59942619D02*
X93672024Y-59895000D01*
X93672024Y-59895000D02*
X93767262Y-59847380D01*
X93767262Y-59847380D02*
X93957738Y-59847380D01*
X93957738Y-59847380D02*
X94052976Y-59895000D01*
X94052976Y-59895000D02*
X94100595Y-59942619D01*
X94100595Y-59942619D02*
X94148214Y-60037857D01*
X94148214Y-60037857D02*
X94148214Y-60085476D01*
X94148214Y-60085476D02*
X94100595Y-60180714D01*
X94100595Y-60180714D02*
X94052976Y-60228333D01*
X94052976Y-60228333D02*
X93957738Y-60275952D01*
X93957738Y-60275952D02*
X93767262Y-60275952D01*
X93767262Y-60275952D02*
X93672024Y-60323571D01*
X93672024Y-60323571D02*
X93624405Y-60371190D01*
X93624405Y-60371190D02*
X93576786Y-60466428D01*
X93576786Y-60466428D02*
X93576786Y-60656904D01*
X93576786Y-60656904D02*
X93624405Y-60752142D01*
X93624405Y-60752142D02*
X93672024Y-60799761D01*
X93672024Y-60799761D02*
X93767262Y-60847380D01*
X93767262Y-60847380D02*
X93957738Y-60847380D01*
X93957738Y-60847380D02*
X94052976Y-60799761D01*
X94052976Y-60799761D02*
X94100595Y-60752142D01*
X94100595Y-60752142D02*
X94148214Y-60656904D01*
X94148214Y-60656904D02*
X94148214Y-60466428D01*
X94148214Y-60466428D02*
X94100595Y-60371190D01*
X94100595Y-60371190D02*
X94052976Y-60323571D01*
X94052976Y-60323571D02*
X93957738Y-60275952D01*
%TO.C,C11*%
X92657142Y-72522142D02*
X92609523Y-72569761D01*
X92609523Y-72569761D02*
X92466666Y-72617380D01*
X92466666Y-72617380D02*
X92371428Y-72617380D01*
X92371428Y-72617380D02*
X92228571Y-72569761D01*
X92228571Y-72569761D02*
X92133333Y-72474523D01*
X92133333Y-72474523D02*
X92085714Y-72379285D01*
X92085714Y-72379285D02*
X92038095Y-72188809D01*
X92038095Y-72188809D02*
X92038095Y-72045952D01*
X92038095Y-72045952D02*
X92085714Y-71855476D01*
X92085714Y-71855476D02*
X92133333Y-71760238D01*
X92133333Y-71760238D02*
X92228571Y-71665000D01*
X92228571Y-71665000D02*
X92371428Y-71617380D01*
X92371428Y-71617380D02*
X92466666Y-71617380D01*
X92466666Y-71617380D02*
X92609523Y-71665000D01*
X92609523Y-71665000D02*
X92657142Y-71712619D01*
X93609523Y-72617380D02*
X93038095Y-72617380D01*
X93323809Y-72617380D02*
X93323809Y-71617380D01*
X93323809Y-71617380D02*
X93228571Y-71760238D01*
X93228571Y-71760238D02*
X93133333Y-71855476D01*
X93133333Y-71855476D02*
X93038095Y-71903095D01*
X94561904Y-72617380D02*
X93990476Y-72617380D01*
X94276190Y-72617380D02*
X94276190Y-71617380D01*
X94276190Y-71617380D02*
X94180952Y-71760238D01*
X94180952Y-71760238D02*
X94085714Y-71855476D01*
X94085714Y-71855476D02*
X93990476Y-71903095D01*
%TO.C,Q1*%
X77704761Y-42362619D02*
X77609523Y-42315000D01*
X77609523Y-42315000D02*
X77514285Y-42219761D01*
X77514285Y-42219761D02*
X77371428Y-42076904D01*
X77371428Y-42076904D02*
X77276190Y-42029285D01*
X77276190Y-42029285D02*
X77180952Y-42029285D01*
X77228571Y-42267380D02*
X77133333Y-42219761D01*
X77133333Y-42219761D02*
X77038095Y-42124523D01*
X77038095Y-42124523D02*
X76990476Y-41934047D01*
X76990476Y-41934047D02*
X76990476Y-41600714D01*
X76990476Y-41600714D02*
X77038095Y-41410238D01*
X77038095Y-41410238D02*
X77133333Y-41315000D01*
X77133333Y-41315000D02*
X77228571Y-41267380D01*
X77228571Y-41267380D02*
X77419047Y-41267380D01*
X77419047Y-41267380D02*
X77514285Y-41315000D01*
X77514285Y-41315000D02*
X77609523Y-41410238D01*
X77609523Y-41410238D02*
X77657142Y-41600714D01*
X77657142Y-41600714D02*
X77657142Y-41934047D01*
X77657142Y-41934047D02*
X77609523Y-42124523D01*
X77609523Y-42124523D02*
X77514285Y-42219761D01*
X77514285Y-42219761D02*
X77419047Y-42267380D01*
X77419047Y-42267380D02*
X77228571Y-42267380D01*
X78609523Y-42267380D02*
X78038095Y-42267380D01*
X78323809Y-42267380D02*
X78323809Y-41267380D01*
X78323809Y-41267380D02*
X78228571Y-41410238D01*
X78228571Y-41410238D02*
X78133333Y-41505476D01*
X78133333Y-41505476D02*
X78038095Y-41553095D01*
D13*
%TO.C,J3*%
X116876667Y-51796573D02*
X116876667Y-52703716D01*
X116876667Y-52703716D02*
X116816190Y-52885145D01*
X116816190Y-52885145D02*
X116695238Y-53006097D01*
X116695238Y-53006097D02*
X116513809Y-53066573D01*
X116513809Y-53066573D02*
X116392857Y-53066573D01*
X117360476Y-51796573D02*
X118146667Y-51796573D01*
X118146667Y-51796573D02*
X117723333Y-52280383D01*
X117723333Y-52280383D02*
X117904762Y-52280383D01*
X117904762Y-52280383D02*
X118025714Y-52340859D01*
X118025714Y-52340859D02*
X118086190Y-52401335D01*
X118086190Y-52401335D02*
X118146667Y-52522288D01*
X118146667Y-52522288D02*
X118146667Y-52824669D01*
X118146667Y-52824669D02*
X118086190Y-52945621D01*
X118086190Y-52945621D02*
X118025714Y-53006097D01*
X118025714Y-53006097D02*
X117904762Y-53066573D01*
X117904762Y-53066573D02*
X117541905Y-53066573D01*
X117541905Y-53066573D02*
X117420952Y-53006097D01*
X117420952Y-53006097D02*
X117360476Y-52945621D01*
D11*
%TO.C,R11*%
X82716371Y-76825509D02*
X82143952Y-76724493D01*
X82312310Y-77229570D02*
X81605204Y-76522463D01*
X81605204Y-76522463D02*
X81874578Y-76253089D01*
X81874578Y-76253089D02*
X81975593Y-76219417D01*
X81975593Y-76219417D02*
X82042936Y-76219417D01*
X82042936Y-76219417D02*
X82143952Y-76253089D01*
X82143952Y-76253089D02*
X82244967Y-76354104D01*
X82244967Y-76354104D02*
X82278639Y-76455119D01*
X82278639Y-76455119D02*
X82278639Y-76522463D01*
X82278639Y-76522463D02*
X82244967Y-76623478D01*
X82244967Y-76623478D02*
X81975593Y-76892852D01*
X83389806Y-76152074D02*
X82985745Y-76556135D01*
X83187776Y-76354104D02*
X82480669Y-75646997D01*
X82480669Y-75646997D02*
X82514341Y-75815356D01*
X82514341Y-75815356D02*
X82514341Y-75950043D01*
X82514341Y-75950043D02*
X82480669Y-76051058D01*
X84063241Y-75478639D02*
X83659180Y-75882700D01*
X83861211Y-75680669D02*
X83154104Y-74973562D01*
X83154104Y-74973562D02*
X83187776Y-75141921D01*
X83187776Y-75141921D02*
X83187776Y-75276608D01*
X83187776Y-75276608D02*
X83154104Y-75377623D01*
%TO.C,C16*%
X83857142Y-34672142D02*
X83809523Y-34719761D01*
X83809523Y-34719761D02*
X83666666Y-34767380D01*
X83666666Y-34767380D02*
X83571428Y-34767380D01*
X83571428Y-34767380D02*
X83428571Y-34719761D01*
X83428571Y-34719761D02*
X83333333Y-34624523D01*
X83333333Y-34624523D02*
X83285714Y-34529285D01*
X83285714Y-34529285D02*
X83238095Y-34338809D01*
X83238095Y-34338809D02*
X83238095Y-34195952D01*
X83238095Y-34195952D02*
X83285714Y-34005476D01*
X83285714Y-34005476D02*
X83333333Y-33910238D01*
X83333333Y-33910238D02*
X83428571Y-33815000D01*
X83428571Y-33815000D02*
X83571428Y-33767380D01*
X83571428Y-33767380D02*
X83666666Y-33767380D01*
X83666666Y-33767380D02*
X83809523Y-33815000D01*
X83809523Y-33815000D02*
X83857142Y-33862619D01*
X84809523Y-34767380D02*
X84238095Y-34767380D01*
X84523809Y-34767380D02*
X84523809Y-33767380D01*
X84523809Y-33767380D02*
X84428571Y-33910238D01*
X84428571Y-33910238D02*
X84333333Y-34005476D01*
X84333333Y-34005476D02*
X84238095Y-34053095D01*
X85666666Y-33767380D02*
X85476190Y-33767380D01*
X85476190Y-33767380D02*
X85380952Y-33815000D01*
X85380952Y-33815000D02*
X85333333Y-33862619D01*
X85333333Y-33862619D02*
X85238095Y-34005476D01*
X85238095Y-34005476D02*
X85190476Y-34195952D01*
X85190476Y-34195952D02*
X85190476Y-34576904D01*
X85190476Y-34576904D02*
X85238095Y-34672142D01*
X85238095Y-34672142D02*
X85285714Y-34719761D01*
X85285714Y-34719761D02*
X85380952Y-34767380D01*
X85380952Y-34767380D02*
X85571428Y-34767380D01*
X85571428Y-34767380D02*
X85666666Y-34719761D01*
X85666666Y-34719761D02*
X85714285Y-34672142D01*
X85714285Y-34672142D02*
X85761904Y-34576904D01*
X85761904Y-34576904D02*
X85761904Y-34338809D01*
X85761904Y-34338809D02*
X85714285Y-34243571D01*
X85714285Y-34243571D02*
X85666666Y-34195952D01*
X85666666Y-34195952D02*
X85571428Y-34148333D01*
X85571428Y-34148333D02*
X85380952Y-34148333D01*
X85380952Y-34148333D02*
X85285714Y-34195952D01*
X85285714Y-34195952D02*
X85238095Y-34243571D01*
X85238095Y-34243571D02*
X85190476Y-34338809D01*
%TO.C,SW2*%
X115463318Y-38051064D02*
X115530662Y-38185751D01*
X115530662Y-38185751D02*
X115699020Y-38354109D01*
X115699020Y-38354109D02*
X115800036Y-38387781D01*
X115800036Y-38387781D02*
X115867379Y-38387781D01*
X115867379Y-38387781D02*
X115968394Y-38354109D01*
X115968394Y-38354109D02*
X116035738Y-38286766D01*
X116035738Y-38286766D02*
X116069410Y-38185751D01*
X116069410Y-38185751D02*
X116069410Y-38118407D01*
X116069410Y-38118407D02*
X116035738Y-38017392D01*
X116035738Y-38017392D02*
X115934723Y-37849033D01*
X115934723Y-37849033D02*
X115901051Y-37748018D01*
X115901051Y-37748018D02*
X115901051Y-37680674D01*
X115901051Y-37680674D02*
X115934723Y-37579659D01*
X115934723Y-37579659D02*
X116002066Y-37512316D01*
X116002066Y-37512316D02*
X116103081Y-37478644D01*
X116103081Y-37478644D02*
X116170425Y-37478644D01*
X116170425Y-37478644D02*
X116271440Y-37512316D01*
X116271440Y-37512316D02*
X116439799Y-37680674D01*
X116439799Y-37680674D02*
X116507142Y-37815361D01*
X116776516Y-38017392D02*
X116237768Y-38892857D01*
X116237768Y-38892857D02*
X116877532Y-38522468D01*
X116877532Y-38522468D02*
X116507142Y-39162231D01*
X116507142Y-39162231D02*
X117382608Y-38623483D01*
X117550967Y-38926529D02*
X117618310Y-38926529D01*
X117618310Y-38926529D02*
X117719325Y-38960201D01*
X117719325Y-38960201D02*
X117887684Y-39128560D01*
X117887684Y-39128560D02*
X117921356Y-39229575D01*
X117921356Y-39229575D02*
X117921356Y-39296918D01*
X117921356Y-39296918D02*
X117887684Y-39397934D01*
X117887684Y-39397934D02*
X117820341Y-39465277D01*
X117820341Y-39465277D02*
X117685654Y-39532621D01*
X117685654Y-39532621D02*
X116877532Y-39532621D01*
X116877532Y-39532621D02*
X117315264Y-39970353D01*
%TO.C,D3*%
X74161905Y-52067380D02*
X74161905Y-51067380D01*
X74161905Y-51067380D02*
X74400000Y-51067380D01*
X74400000Y-51067380D02*
X74542857Y-51115000D01*
X74542857Y-51115000D02*
X74638095Y-51210238D01*
X74638095Y-51210238D02*
X74685714Y-51305476D01*
X74685714Y-51305476D02*
X74733333Y-51495952D01*
X74733333Y-51495952D02*
X74733333Y-51638809D01*
X74733333Y-51638809D02*
X74685714Y-51829285D01*
X74685714Y-51829285D02*
X74638095Y-51924523D01*
X74638095Y-51924523D02*
X74542857Y-52019761D01*
X74542857Y-52019761D02*
X74400000Y-52067380D01*
X74400000Y-52067380D02*
X74161905Y-52067380D01*
X75066667Y-51067380D02*
X75685714Y-51067380D01*
X75685714Y-51067380D02*
X75352381Y-51448333D01*
X75352381Y-51448333D02*
X75495238Y-51448333D01*
X75495238Y-51448333D02*
X75590476Y-51495952D01*
X75590476Y-51495952D02*
X75638095Y-51543571D01*
X75638095Y-51543571D02*
X75685714Y-51638809D01*
X75685714Y-51638809D02*
X75685714Y-51876904D01*
X75685714Y-51876904D02*
X75638095Y-51972142D01*
X75638095Y-51972142D02*
X75590476Y-52019761D01*
X75590476Y-52019761D02*
X75495238Y-52067380D01*
X75495238Y-52067380D02*
X75209524Y-52067380D01*
X75209524Y-52067380D02*
X75114286Y-52019761D01*
X75114286Y-52019761D02*
X75066667Y-51972142D01*
%TO.C,U3*%
X93838095Y-53167380D02*
X93838095Y-53976904D01*
X93838095Y-53976904D02*
X93885714Y-54072142D01*
X93885714Y-54072142D02*
X93933333Y-54119761D01*
X93933333Y-54119761D02*
X94028571Y-54167380D01*
X94028571Y-54167380D02*
X94219047Y-54167380D01*
X94219047Y-54167380D02*
X94314285Y-54119761D01*
X94314285Y-54119761D02*
X94361904Y-54072142D01*
X94361904Y-54072142D02*
X94409523Y-53976904D01*
X94409523Y-53976904D02*
X94409523Y-53167380D01*
X94790476Y-53167380D02*
X95409523Y-53167380D01*
X95409523Y-53167380D02*
X95076190Y-53548333D01*
X95076190Y-53548333D02*
X95219047Y-53548333D01*
X95219047Y-53548333D02*
X95314285Y-53595952D01*
X95314285Y-53595952D02*
X95361904Y-53643571D01*
X95361904Y-53643571D02*
X95409523Y-53738809D01*
X95409523Y-53738809D02*
X95409523Y-53976904D01*
X95409523Y-53976904D02*
X95361904Y-54072142D01*
X95361904Y-54072142D02*
X95314285Y-54119761D01*
X95314285Y-54119761D02*
X95219047Y-54167380D01*
X95219047Y-54167380D02*
X94933333Y-54167380D01*
X94933333Y-54167380D02*
X94838095Y-54119761D01*
X94838095Y-54119761D02*
X94790476Y-54072142D01*
%TO.C,R7*%
X73333333Y-42747380D02*
X73000000Y-42271190D01*
X72761905Y-42747380D02*
X72761905Y-41747380D01*
X72761905Y-41747380D02*
X73142857Y-41747380D01*
X73142857Y-41747380D02*
X73238095Y-41795000D01*
X73238095Y-41795000D02*
X73285714Y-41842619D01*
X73285714Y-41842619D02*
X73333333Y-41937857D01*
X73333333Y-41937857D02*
X73333333Y-42080714D01*
X73333333Y-42080714D02*
X73285714Y-42175952D01*
X73285714Y-42175952D02*
X73238095Y-42223571D01*
X73238095Y-42223571D02*
X73142857Y-42271190D01*
X73142857Y-42271190D02*
X72761905Y-42271190D01*
X73666667Y-41747380D02*
X74333333Y-41747380D01*
X74333333Y-41747380D02*
X73904762Y-42747380D01*
%TO.C,R10*%
X85332666Y-74209214D02*
X84760247Y-74108198D01*
X84928605Y-74613275D02*
X84221499Y-73906168D01*
X84221499Y-73906168D02*
X84490873Y-73636794D01*
X84490873Y-73636794D02*
X84591888Y-73603122D01*
X84591888Y-73603122D02*
X84659231Y-73603122D01*
X84659231Y-73603122D02*
X84760247Y-73636794D01*
X84760247Y-73636794D02*
X84861262Y-73737809D01*
X84861262Y-73737809D02*
X84894934Y-73838824D01*
X84894934Y-73838824D02*
X84894934Y-73906168D01*
X84894934Y-73906168D02*
X84861262Y-74007183D01*
X84861262Y-74007183D02*
X84591888Y-74276557D01*
X86006101Y-73535779D02*
X85602040Y-73939840D01*
X85804071Y-73737809D02*
X85096964Y-73030702D01*
X85096964Y-73030702D02*
X85130636Y-73199061D01*
X85130636Y-73199061D02*
X85130636Y-73333748D01*
X85130636Y-73333748D02*
X85096964Y-73434763D01*
X85736727Y-72390939D02*
X85804071Y-72323596D01*
X85804071Y-72323596D02*
X85905086Y-72289924D01*
X85905086Y-72289924D02*
X85972430Y-72289924D01*
X85972430Y-72289924D02*
X86073445Y-72323596D01*
X86073445Y-72323596D02*
X86241804Y-72424611D01*
X86241804Y-72424611D02*
X86410162Y-72592970D01*
X86410162Y-72592970D02*
X86511178Y-72761328D01*
X86511178Y-72761328D02*
X86544849Y-72862344D01*
X86544849Y-72862344D02*
X86544849Y-72929687D01*
X86544849Y-72929687D02*
X86511178Y-73030702D01*
X86511178Y-73030702D02*
X86443834Y-73098046D01*
X86443834Y-73098046D02*
X86342819Y-73131718D01*
X86342819Y-73131718D02*
X86275475Y-73131718D01*
X86275475Y-73131718D02*
X86174460Y-73098046D01*
X86174460Y-73098046D02*
X86006101Y-72997031D01*
X86006101Y-72997031D02*
X85837743Y-72828672D01*
X85837743Y-72828672D02*
X85736727Y-72660313D01*
X85736727Y-72660313D02*
X85703056Y-72559298D01*
X85703056Y-72559298D02*
X85703056Y-72491954D01*
X85703056Y-72491954D02*
X85736727Y-72390939D01*
%TO.C,C10*%
X85002142Y-47142857D02*
X85049761Y-47190476D01*
X85049761Y-47190476D02*
X85097380Y-47333333D01*
X85097380Y-47333333D02*
X85097380Y-47428571D01*
X85097380Y-47428571D02*
X85049761Y-47571428D01*
X85049761Y-47571428D02*
X84954523Y-47666666D01*
X84954523Y-47666666D02*
X84859285Y-47714285D01*
X84859285Y-47714285D02*
X84668809Y-47761904D01*
X84668809Y-47761904D02*
X84525952Y-47761904D01*
X84525952Y-47761904D02*
X84335476Y-47714285D01*
X84335476Y-47714285D02*
X84240238Y-47666666D01*
X84240238Y-47666666D02*
X84145000Y-47571428D01*
X84145000Y-47571428D02*
X84097380Y-47428571D01*
X84097380Y-47428571D02*
X84097380Y-47333333D01*
X84097380Y-47333333D02*
X84145000Y-47190476D01*
X84145000Y-47190476D02*
X84192619Y-47142857D01*
X85097380Y-46190476D02*
X85097380Y-46761904D01*
X85097380Y-46476190D02*
X84097380Y-46476190D01*
X84097380Y-46476190D02*
X84240238Y-46571428D01*
X84240238Y-46571428D02*
X84335476Y-46666666D01*
X84335476Y-46666666D02*
X84383095Y-46761904D01*
X84097380Y-45571428D02*
X84097380Y-45476190D01*
X84097380Y-45476190D02*
X84145000Y-45380952D01*
X84145000Y-45380952D02*
X84192619Y-45333333D01*
X84192619Y-45333333D02*
X84287857Y-45285714D01*
X84287857Y-45285714D02*
X84478333Y-45238095D01*
X84478333Y-45238095D02*
X84716428Y-45238095D01*
X84716428Y-45238095D02*
X84906904Y-45285714D01*
X84906904Y-45285714D02*
X85002142Y-45333333D01*
X85002142Y-45333333D02*
X85049761Y-45380952D01*
X85049761Y-45380952D02*
X85097380Y-45476190D01*
X85097380Y-45476190D02*
X85097380Y-45571428D01*
X85097380Y-45571428D02*
X85049761Y-45666666D01*
X85049761Y-45666666D02*
X85002142Y-45714285D01*
X85002142Y-45714285D02*
X84906904Y-45761904D01*
X84906904Y-45761904D02*
X84716428Y-45809523D01*
X84716428Y-45809523D02*
X84478333Y-45809523D01*
X84478333Y-45809523D02*
X84287857Y-45761904D01*
X84287857Y-45761904D02*
X84192619Y-45714285D01*
X84192619Y-45714285D02*
X84145000Y-45666666D01*
X84145000Y-45666666D02*
X84097380Y-45571428D01*
%TO.C,C15*%
X81957142Y-39672142D02*
X81909523Y-39719761D01*
X81909523Y-39719761D02*
X81766666Y-39767380D01*
X81766666Y-39767380D02*
X81671428Y-39767380D01*
X81671428Y-39767380D02*
X81528571Y-39719761D01*
X81528571Y-39719761D02*
X81433333Y-39624523D01*
X81433333Y-39624523D02*
X81385714Y-39529285D01*
X81385714Y-39529285D02*
X81338095Y-39338809D01*
X81338095Y-39338809D02*
X81338095Y-39195952D01*
X81338095Y-39195952D02*
X81385714Y-39005476D01*
X81385714Y-39005476D02*
X81433333Y-38910238D01*
X81433333Y-38910238D02*
X81528571Y-38815000D01*
X81528571Y-38815000D02*
X81671428Y-38767380D01*
X81671428Y-38767380D02*
X81766666Y-38767380D01*
X81766666Y-38767380D02*
X81909523Y-38815000D01*
X81909523Y-38815000D02*
X81957142Y-38862619D01*
X82909523Y-39767380D02*
X82338095Y-39767380D01*
X82623809Y-39767380D02*
X82623809Y-38767380D01*
X82623809Y-38767380D02*
X82528571Y-38910238D01*
X82528571Y-38910238D02*
X82433333Y-39005476D01*
X82433333Y-39005476D02*
X82338095Y-39053095D01*
X83814285Y-38767380D02*
X83338095Y-38767380D01*
X83338095Y-38767380D02*
X83290476Y-39243571D01*
X83290476Y-39243571D02*
X83338095Y-39195952D01*
X83338095Y-39195952D02*
X83433333Y-39148333D01*
X83433333Y-39148333D02*
X83671428Y-39148333D01*
X83671428Y-39148333D02*
X83766666Y-39195952D01*
X83766666Y-39195952D02*
X83814285Y-39243571D01*
X83814285Y-39243571D02*
X83861904Y-39338809D01*
X83861904Y-39338809D02*
X83861904Y-39576904D01*
X83861904Y-39576904D02*
X83814285Y-39672142D01*
X83814285Y-39672142D02*
X83766666Y-39719761D01*
X83766666Y-39719761D02*
X83671428Y-39767380D01*
X83671428Y-39767380D02*
X83433333Y-39767380D01*
X83433333Y-39767380D02*
X83338095Y-39719761D01*
X83338095Y-39719761D02*
X83290476Y-39672142D01*
%TO.C,R6*%
X73433333Y-46167380D02*
X73100000Y-45691190D01*
X72861905Y-46167380D02*
X72861905Y-45167380D01*
X72861905Y-45167380D02*
X73242857Y-45167380D01*
X73242857Y-45167380D02*
X73338095Y-45215000D01*
X73338095Y-45215000D02*
X73385714Y-45262619D01*
X73385714Y-45262619D02*
X73433333Y-45357857D01*
X73433333Y-45357857D02*
X73433333Y-45500714D01*
X73433333Y-45500714D02*
X73385714Y-45595952D01*
X73385714Y-45595952D02*
X73338095Y-45643571D01*
X73338095Y-45643571D02*
X73242857Y-45691190D01*
X73242857Y-45691190D02*
X72861905Y-45691190D01*
X74290476Y-45167380D02*
X74100000Y-45167380D01*
X74100000Y-45167380D02*
X74004762Y-45215000D01*
X74004762Y-45215000D02*
X73957143Y-45262619D01*
X73957143Y-45262619D02*
X73861905Y-45405476D01*
X73861905Y-45405476D02*
X73814286Y-45595952D01*
X73814286Y-45595952D02*
X73814286Y-45976904D01*
X73814286Y-45976904D02*
X73861905Y-46072142D01*
X73861905Y-46072142D02*
X73909524Y-46119761D01*
X73909524Y-46119761D02*
X74004762Y-46167380D01*
X74004762Y-46167380D02*
X74195238Y-46167380D01*
X74195238Y-46167380D02*
X74290476Y-46119761D01*
X74290476Y-46119761D02*
X74338095Y-46072142D01*
X74338095Y-46072142D02*
X74385714Y-45976904D01*
X74385714Y-45976904D02*
X74385714Y-45738809D01*
X74385714Y-45738809D02*
X74338095Y-45643571D01*
X74338095Y-45643571D02*
X74290476Y-45595952D01*
X74290476Y-45595952D02*
X74195238Y-45548333D01*
X74195238Y-45548333D02*
X74004762Y-45548333D01*
X74004762Y-45548333D02*
X73909524Y-45595952D01*
X73909524Y-45595952D02*
X73861905Y-45643571D01*
X73861905Y-45643571D02*
X73814286Y-45738809D01*
%TO.C,C5*%
X89985668Y-66101279D02*
X89938049Y-66148898D01*
X89938049Y-66148898D02*
X89795192Y-66196517D01*
X89795192Y-66196517D02*
X89699954Y-66196517D01*
X89699954Y-66196517D02*
X89557097Y-66148898D01*
X89557097Y-66148898D02*
X89461859Y-66053660D01*
X89461859Y-66053660D02*
X89414240Y-65958422D01*
X89414240Y-65958422D02*
X89366621Y-65767946D01*
X89366621Y-65767946D02*
X89366621Y-65625089D01*
X89366621Y-65625089D02*
X89414240Y-65434613D01*
X89414240Y-65434613D02*
X89461859Y-65339375D01*
X89461859Y-65339375D02*
X89557097Y-65244137D01*
X89557097Y-65244137D02*
X89699954Y-65196517D01*
X89699954Y-65196517D02*
X89795192Y-65196517D01*
X89795192Y-65196517D02*
X89938049Y-65244137D01*
X89938049Y-65244137D02*
X89985668Y-65291756D01*
X90890430Y-65196517D02*
X90414240Y-65196517D01*
X90414240Y-65196517D02*
X90366621Y-65672708D01*
X90366621Y-65672708D02*
X90414240Y-65625089D01*
X90414240Y-65625089D02*
X90509478Y-65577470D01*
X90509478Y-65577470D02*
X90747573Y-65577470D01*
X90747573Y-65577470D02*
X90842811Y-65625089D01*
X90842811Y-65625089D02*
X90890430Y-65672708D01*
X90890430Y-65672708D02*
X90938049Y-65767946D01*
X90938049Y-65767946D02*
X90938049Y-66006041D01*
X90938049Y-66006041D02*
X90890430Y-66101279D01*
X90890430Y-66101279D02*
X90842811Y-66148898D01*
X90842811Y-66148898D02*
X90747573Y-66196517D01*
X90747573Y-66196517D02*
X90509478Y-66196517D01*
X90509478Y-66196517D02*
X90414240Y-66148898D01*
X90414240Y-66148898D02*
X90366621Y-66101279D01*
%TO.C,C2*%
X85872142Y-64166666D02*
X85919761Y-64214285D01*
X85919761Y-64214285D02*
X85967380Y-64357142D01*
X85967380Y-64357142D02*
X85967380Y-64452380D01*
X85967380Y-64452380D02*
X85919761Y-64595237D01*
X85919761Y-64595237D02*
X85824523Y-64690475D01*
X85824523Y-64690475D02*
X85729285Y-64738094D01*
X85729285Y-64738094D02*
X85538809Y-64785713D01*
X85538809Y-64785713D02*
X85395952Y-64785713D01*
X85395952Y-64785713D02*
X85205476Y-64738094D01*
X85205476Y-64738094D02*
X85110238Y-64690475D01*
X85110238Y-64690475D02*
X85015000Y-64595237D01*
X85015000Y-64595237D02*
X84967380Y-64452380D01*
X84967380Y-64452380D02*
X84967380Y-64357142D01*
X84967380Y-64357142D02*
X85015000Y-64214285D01*
X85015000Y-64214285D02*
X85062619Y-64166666D01*
X85062619Y-63785713D02*
X85015000Y-63738094D01*
X85015000Y-63738094D02*
X84967380Y-63642856D01*
X84967380Y-63642856D02*
X84967380Y-63404761D01*
X84967380Y-63404761D02*
X85015000Y-63309523D01*
X85015000Y-63309523D02*
X85062619Y-63261904D01*
X85062619Y-63261904D02*
X85157857Y-63214285D01*
X85157857Y-63214285D02*
X85253095Y-63214285D01*
X85253095Y-63214285D02*
X85395952Y-63261904D01*
X85395952Y-63261904D02*
X85967380Y-63833332D01*
X85967380Y-63833332D02*
X85967380Y-63214285D01*
%TO.C,U1*%
X84349496Y-27877787D02*
X84349496Y-28687311D01*
X84349496Y-28687311D02*
X84397115Y-28782549D01*
X84397115Y-28782549D02*
X84444734Y-28830168D01*
X84444734Y-28830168D02*
X84539972Y-28877787D01*
X84539972Y-28877787D02*
X84730448Y-28877787D01*
X84730448Y-28877787D02*
X84825686Y-28830168D01*
X84825686Y-28830168D02*
X84873305Y-28782549D01*
X84873305Y-28782549D02*
X84920924Y-28687311D01*
X84920924Y-28687311D02*
X84920924Y-27877787D01*
X85920924Y-28877787D02*
X85349496Y-28877787D01*
X85635210Y-28877787D02*
X85635210Y-27877787D01*
X85635210Y-27877787D02*
X85539972Y-28020645D01*
X85539972Y-28020645D02*
X85444734Y-28115883D01*
X85444734Y-28115883D02*
X85349496Y-28163502D01*
%TO.C,R2*%
X74833333Y-58697380D02*
X74500000Y-58221190D01*
X74261905Y-58697380D02*
X74261905Y-57697380D01*
X74261905Y-57697380D02*
X74642857Y-57697380D01*
X74642857Y-57697380D02*
X74738095Y-57745000D01*
X74738095Y-57745000D02*
X74785714Y-57792619D01*
X74785714Y-57792619D02*
X74833333Y-57887857D01*
X74833333Y-57887857D02*
X74833333Y-58030714D01*
X74833333Y-58030714D02*
X74785714Y-58125952D01*
X74785714Y-58125952D02*
X74738095Y-58173571D01*
X74738095Y-58173571D02*
X74642857Y-58221190D01*
X74642857Y-58221190D02*
X74261905Y-58221190D01*
X75214286Y-57792619D02*
X75261905Y-57745000D01*
X75261905Y-57745000D02*
X75357143Y-57697380D01*
X75357143Y-57697380D02*
X75595238Y-57697380D01*
X75595238Y-57697380D02*
X75690476Y-57745000D01*
X75690476Y-57745000D02*
X75738095Y-57792619D01*
X75738095Y-57792619D02*
X75785714Y-57887857D01*
X75785714Y-57887857D02*
X75785714Y-57983095D01*
X75785714Y-57983095D02*
X75738095Y-58125952D01*
X75738095Y-58125952D02*
X75166667Y-58697380D01*
X75166667Y-58697380D02*
X75785714Y-58697380D01*
%TO.C,R5*%
X74333333Y-64867380D02*
X74000000Y-64391190D01*
X73761905Y-64867380D02*
X73761905Y-63867380D01*
X73761905Y-63867380D02*
X74142857Y-63867380D01*
X74142857Y-63867380D02*
X74238095Y-63915000D01*
X74238095Y-63915000D02*
X74285714Y-63962619D01*
X74285714Y-63962619D02*
X74333333Y-64057857D01*
X74333333Y-64057857D02*
X74333333Y-64200714D01*
X74333333Y-64200714D02*
X74285714Y-64295952D01*
X74285714Y-64295952D02*
X74238095Y-64343571D01*
X74238095Y-64343571D02*
X74142857Y-64391190D01*
X74142857Y-64391190D02*
X73761905Y-64391190D01*
X75238095Y-63867380D02*
X74761905Y-63867380D01*
X74761905Y-63867380D02*
X74714286Y-64343571D01*
X74714286Y-64343571D02*
X74761905Y-64295952D01*
X74761905Y-64295952D02*
X74857143Y-64248333D01*
X74857143Y-64248333D02*
X75095238Y-64248333D01*
X75095238Y-64248333D02*
X75190476Y-64295952D01*
X75190476Y-64295952D02*
X75238095Y-64343571D01*
X75238095Y-64343571D02*
X75285714Y-64438809D01*
X75285714Y-64438809D02*
X75285714Y-64676904D01*
X75285714Y-64676904D02*
X75238095Y-64772142D01*
X75238095Y-64772142D02*
X75190476Y-64819761D01*
X75190476Y-64819761D02*
X75095238Y-64867380D01*
X75095238Y-64867380D02*
X74857143Y-64867380D01*
X74857143Y-64867380D02*
X74761905Y-64819761D01*
X74761905Y-64819761D02*
X74714286Y-64772142D01*
%TO.C,Q2*%
X69504760Y-47162619D02*
X69409522Y-47115000D01*
X69409522Y-47115000D02*
X69314284Y-47019761D01*
X69314284Y-47019761D02*
X69171427Y-46876904D01*
X69171427Y-46876904D02*
X69076189Y-46829285D01*
X69076189Y-46829285D02*
X68980951Y-46829285D01*
X69028570Y-47067380D02*
X68933332Y-47019761D01*
X68933332Y-47019761D02*
X68838094Y-46924523D01*
X68838094Y-46924523D02*
X68790475Y-46734047D01*
X68790475Y-46734047D02*
X68790475Y-46400714D01*
X68790475Y-46400714D02*
X68838094Y-46210238D01*
X68838094Y-46210238D02*
X68933332Y-46115000D01*
X68933332Y-46115000D02*
X69028570Y-46067380D01*
X69028570Y-46067380D02*
X69219046Y-46067380D01*
X69219046Y-46067380D02*
X69314284Y-46115000D01*
X69314284Y-46115000D02*
X69409522Y-46210238D01*
X69409522Y-46210238D02*
X69457141Y-46400714D01*
X69457141Y-46400714D02*
X69457141Y-46734047D01*
X69457141Y-46734047D02*
X69409522Y-46924523D01*
X69409522Y-46924523D02*
X69314284Y-47019761D01*
X69314284Y-47019761D02*
X69219046Y-47067380D01*
X69219046Y-47067380D02*
X69028570Y-47067380D01*
X69838094Y-46162619D02*
X69885713Y-46115000D01*
X69885713Y-46115000D02*
X69980951Y-46067380D01*
X69980951Y-46067380D02*
X70219046Y-46067380D01*
X70219046Y-46067380D02*
X70314284Y-46115000D01*
X70314284Y-46115000D02*
X70361903Y-46162619D01*
X70361903Y-46162619D02*
X70409522Y-46257857D01*
X70409522Y-46257857D02*
X70409522Y-46353095D01*
X70409522Y-46353095D02*
X70361903Y-46495952D01*
X70361903Y-46495952D02*
X69790475Y-47067380D01*
X69790475Y-47067380D02*
X70409522Y-47067380D01*
%TO.C,C12*%
X92707142Y-76312142D02*
X92659523Y-76359761D01*
X92659523Y-76359761D02*
X92516666Y-76407380D01*
X92516666Y-76407380D02*
X92421428Y-76407380D01*
X92421428Y-76407380D02*
X92278571Y-76359761D01*
X92278571Y-76359761D02*
X92183333Y-76264523D01*
X92183333Y-76264523D02*
X92135714Y-76169285D01*
X92135714Y-76169285D02*
X92088095Y-75978809D01*
X92088095Y-75978809D02*
X92088095Y-75835952D01*
X92088095Y-75835952D02*
X92135714Y-75645476D01*
X92135714Y-75645476D02*
X92183333Y-75550238D01*
X92183333Y-75550238D02*
X92278571Y-75455000D01*
X92278571Y-75455000D02*
X92421428Y-75407380D01*
X92421428Y-75407380D02*
X92516666Y-75407380D01*
X92516666Y-75407380D02*
X92659523Y-75455000D01*
X92659523Y-75455000D02*
X92707142Y-75502619D01*
X93659523Y-76407380D02*
X93088095Y-76407380D01*
X93373809Y-76407380D02*
X93373809Y-75407380D01*
X93373809Y-75407380D02*
X93278571Y-75550238D01*
X93278571Y-75550238D02*
X93183333Y-75645476D01*
X93183333Y-75645476D02*
X93088095Y-75693095D01*
X94040476Y-75502619D02*
X94088095Y-75455000D01*
X94088095Y-75455000D02*
X94183333Y-75407380D01*
X94183333Y-75407380D02*
X94421428Y-75407380D01*
X94421428Y-75407380D02*
X94516666Y-75455000D01*
X94516666Y-75455000D02*
X94564285Y-75502619D01*
X94564285Y-75502619D02*
X94611904Y-75597857D01*
X94611904Y-75597857D02*
X94611904Y-75693095D01*
X94611904Y-75693095D02*
X94564285Y-75835952D01*
X94564285Y-75835952D02*
X93992857Y-76407380D01*
X93992857Y-76407380D02*
X94611904Y-76407380D01*
D14*
%TO.C,U5*%
X106510000Y-71200000D02*
X106510000Y-77210000D01*
X99690000Y-73450000D02*
X99690000Y-77210000D01*
X106510000Y-77210000D02*
X105250000Y-77210000D01*
X99690000Y-77210000D02*
X100950000Y-77210000D01*
%TO.C,R4*%
X98317500Y-61626263D02*
X98317500Y-63073737D01*
X95607500Y-61626263D02*
X95607500Y-63073737D01*
%TO.C,C17*%
X103688748Y-68190000D02*
X105111252Y-68190000D01*
X103688748Y-70010000D02*
X105111252Y-70010000D01*
%TO.C,C4*%
X90413587Y-68424137D02*
X89891083Y-68424137D01*
X90413587Y-66954137D02*
X89891083Y-66954137D01*
%TO.C,L1*%
X86897936Y-82840000D02*
X88102064Y-82840000D01*
X86897936Y-85560000D02*
X88102064Y-85560000D01*
%TO.C,C8*%
X83111252Y-80110000D02*
X81688748Y-80110000D01*
X83111252Y-78290000D02*
X81688748Y-78290000D01*
%TO.C,R1*%
X75096385Y-55366214D02*
X75313666Y-55148933D01*
X75633786Y-55903615D02*
X75851067Y-55686334D01*
D15*
%TO.C,D1*%
X79750000Y-59790000D02*
G75*
G03*
X79750000Y-59790000I-50000J0D01*
G01*
D14*
%TO.C,U2*%
X79640000Y-66300000D02*
X79640000Y-68100000D01*
X79640000Y-66300000D02*
X79640000Y-65500000D01*
X82760000Y-66300000D02*
X82760000Y-67100000D01*
X82760000Y-66300000D02*
X82760000Y-65500000D01*
%TO.C,U4*%
X89175000Y-79995000D02*
X88200000Y-79995000D01*
X89175000Y-76745000D02*
X89175000Y-76970000D01*
X89175000Y-76745000D02*
X88200000Y-76745000D01*
X86900000Y-79995000D02*
X85925000Y-79995000D01*
X86900000Y-76745000D02*
X85925000Y-76745000D01*
X85925000Y-79770000D02*
X85925000Y-79995000D01*
X85925000Y-76970000D02*
X85925000Y-76745000D01*
%TO.C,C6*%
X90463586Y-61384138D02*
X89941082Y-61384138D01*
X90463586Y-59914138D02*
X89941082Y-59914138D01*
%TO.C,C7*%
X83059420Y-69190000D02*
X83340580Y-69190000D01*
X83059420Y-70210000D02*
X83340580Y-70210000D01*
%TO.C,J2*%
X69400000Y-53100000D02*
X67400000Y-53100000D01*
X65500000Y-53100000D02*
X63600000Y-53100000D01*
X63600000Y-53100000D02*
X63600000Y-62500000D01*
X69400000Y-62500000D02*
X67400000Y-62500000D01*
X65500000Y-62500000D02*
X63600000Y-62500000D01*
%TO.C,C13*%
X92638748Y-80879999D02*
X94061252Y-80879999D01*
X92638748Y-82699999D02*
X94061252Y-82699999D01*
%TO.C,R9*%
X83723737Y-43255000D02*
X82276263Y-43255000D01*
X83723737Y-40545000D02*
X82276263Y-40545000D01*
%TO.C,R12*%
X93482500Y-63803641D02*
X93482500Y-63496359D01*
X94242500Y-63803641D02*
X94242500Y-63496359D01*
%TO.C,C14*%
X97465000Y-70261252D02*
X97465000Y-69738748D01*
X98935000Y-70261252D02*
X98935000Y-69738748D01*
D15*
%TO.C,D2*%
X77850000Y-55810000D02*
G75*
G03*
X77850000Y-55810000I-50000J0D01*
G01*
D14*
%TO.C,D4*%
X76165000Y-68485000D02*
X77635000Y-68485000D01*
X77635000Y-68485000D02*
X77635000Y-66200000D01*
X76165000Y-66200000D02*
X76165000Y-68485000D01*
%TO.C,R8*%
X93208859Y-61270000D02*
X93516141Y-61270000D01*
X93208859Y-62030000D02*
X93516141Y-62030000D01*
%TO.C,C11*%
X92588748Y-73190000D02*
X94011252Y-73190000D01*
X92588748Y-75010000D02*
X94011252Y-75010000D01*
%TO.C,Q1*%
X77800000Y-42740000D02*
X76125000Y-42740000D01*
X77800000Y-42740000D02*
X78450000Y-42740000D01*
X77800000Y-45860000D02*
X77150000Y-45860000D01*
X77800000Y-45860000D02*
X78450000Y-45860000D01*
D12*
%TO.C,J3*%
X115712625Y-62150000D02*
X119162625Y-62150000D01*
X119162625Y-62150000D02*
X119162625Y-53450000D01*
X112262625Y-61000000D02*
X112262625Y-54600000D01*
X119162625Y-53450000D02*
X115712625Y-53450000D01*
X109689875Y-59337000D02*
G75*
G03*
X109689875Y-59337000I-26250J0D01*
G01*
D14*
%TO.C,R11*%
X82437230Y-75301697D02*
X82101697Y-75637230D01*
X81698303Y-74562770D02*
X81362770Y-74898303D01*
%TO.C,C16*%
X85110000Y-36559420D02*
X85110000Y-36840580D01*
X84090000Y-36559420D02*
X84090000Y-36840580D01*
%TO.C,SW1*%
X92300000Y-88200000D02*
X92300000Y-86400000D01*
X92300000Y-88200000D02*
X92300000Y-90000000D01*
X92300000Y-90000000D02*
X100700000Y-90000000D01*
X100700000Y-86400000D02*
X92300000Y-86400000D01*
X100700000Y-90000000D02*
X100700000Y-86400000D01*
%TO.C,SW2*%
X118576777Y-39156676D02*
X116243324Y-36823223D01*
X118788909Y-38944544D02*
X118576777Y-39156676D01*
X120344544Y-37388909D02*
X120556676Y-37176777D01*
X120556676Y-37176777D02*
X118223223Y-34843324D01*
X116243324Y-36823223D02*
X116455456Y-36611091D01*
X118223223Y-34843324D02*
X118011091Y-35055456D01*
%TO.C,J4*%
X117280256Y-70438840D02*
X118220708Y-71379292D01*
X116339804Y-71379292D02*
X117280256Y-70438840D01*
X115441778Y-72277318D02*
X102826993Y-84892103D01*
X115441778Y-72277318D02*
X117322682Y-74158222D01*
X102826993Y-84892103D02*
X104707897Y-86773007D01*
X117322682Y-74158222D02*
X104707897Y-86773007D01*
D15*
%TO.C,D3*%
X74950000Y-52410000D02*
G75*
G03*
X74950000Y-52410000I-50000J0D01*
G01*
D14*
%TO.C,U3*%
X92490000Y-59210000D02*
X92490000Y-58735000D01*
X92965000Y-54990000D02*
X92490000Y-54990000D01*
X92965000Y-59210000D02*
X92490000Y-59210000D01*
X96235000Y-54990000D02*
X96710000Y-54990000D01*
X96235000Y-59210000D02*
X96710000Y-59210000D01*
X96710000Y-54990000D02*
X96710000Y-55465000D01*
X96710000Y-59210000D02*
X96710000Y-58735000D01*
%TO.C,R7*%
X74223737Y-41455000D02*
X72776263Y-41455000D01*
X74223737Y-38745000D02*
X72776263Y-38745000D01*
%TO.C,R10*%
X85053525Y-72685402D02*
X84717992Y-73020935D01*
X84314598Y-71946475D02*
X83979065Y-72282008D01*
%TO.C,C10*%
X83810000Y-46359420D02*
X83810000Y-46640580D01*
X82790000Y-46359420D02*
X82790000Y-46640580D01*
%TO.C,C15*%
X83335000Y-36638748D02*
X83335000Y-37161252D01*
X81865000Y-36638748D02*
X81865000Y-37161252D01*
%TO.C,R6*%
X72876263Y-46845000D02*
X74323737Y-46845000D01*
X72876263Y-49555000D02*
X74323737Y-49555000D01*
%TO.C,C5*%
X90413587Y-64884137D02*
X89891083Y-64884137D01*
X90413587Y-63414137D02*
X89891083Y-63414137D01*
%TO.C,C2*%
X83590000Y-64140580D02*
X83590000Y-63859420D01*
X84610000Y-64140580D02*
X84610000Y-63859420D01*
%TO.C,U1*%
X86703901Y-26756407D02*
X86703901Y-33596119D01*
X86703901Y-51660599D02*
X86703901Y-52664407D01*
X86703901Y-52664407D02*
X88149161Y-52664407D01*
X103673641Y-52664407D02*
X105118901Y-52664407D01*
X105118901Y-26756407D02*
X86703901Y-26756407D01*
X105118901Y-33596119D02*
X105118901Y-26756407D01*
X105118901Y-52664407D02*
X105118901Y-51660599D01*
%TO.C,R2*%
X74846359Y-59120000D02*
X75153641Y-59120000D01*
X74846359Y-59880000D02*
X75153641Y-59880000D01*
%TO.C,R5*%
X76459165Y-62119718D02*
X76780282Y-62440835D01*
X75419718Y-63159165D02*
X75740835Y-63480282D01*
%TO.C,Q2*%
X69599999Y-45860000D02*
X71274999Y-45860000D01*
X69599999Y-45860000D02*
X68949999Y-45860000D01*
X69599999Y-42740000D02*
X70249999Y-42740000D01*
X69599999Y-42740000D02*
X68949999Y-42740000D01*
%TO.C,C12*%
X92638748Y-76980000D02*
X94061252Y-76980000D01*
X92638748Y-78800000D02*
X94061252Y-78800000D01*
%TD*%
%LPC*%
D16*
%TO.C,U5*%
X105399999Y-72149999D03*
X103099999Y-72149999D03*
X100799999Y-72149999D03*
D17*
X103099999Y-78449999D03*
%TD*%
D18*
%TO.C,R3*%
X80200000Y-63320000D03*
X80200000Y-62680000D03*
%TD*%
D19*
%TO.C,R4*%
X96962500Y-60887500D03*
X96962500Y-63812500D03*
%TD*%
D20*
%TO.C,C17*%
X102925000Y-69100000D03*
X105875000Y-69100000D03*
%TD*%
D21*
%TO.C,C4*%
X91102335Y-67689137D03*
X89202335Y-67689137D03*
%TD*%
D22*
%TO.C,L1*%
X86100000Y-84200000D03*
X88900000Y-84200000D03*
%TD*%
D23*
%TO.C,C8*%
X83875000Y-79200000D03*
X80925000Y-79200000D03*
%TD*%
D24*
%TO.C,C9*%
X85580000Y-75100000D03*
X86220000Y-75100000D03*
%TD*%
D25*
%TO.C,R1*%
X75113102Y-55886898D03*
X75834350Y-55165650D03*
%TD*%
D26*
%TO.C,D1*%
X79700000Y-59185000D03*
X79700000Y-58215000D03*
%TD*%
D27*
%TO.C,U2*%
X80250000Y-67437500D03*
X81200000Y-67437500D03*
X82150000Y-67437500D03*
X82150000Y-65162500D03*
X80250000Y-65162500D03*
%TD*%
D28*
%TO.C,U4*%
X89310000Y-79370000D03*
D29*
X89024999Y-79369999D03*
D28*
X89310000Y-78870000D03*
D29*
X89024999Y-78869999D03*
D28*
X89310000Y-78370000D03*
D29*
X89024999Y-78369999D03*
D28*
X89310000Y-77870000D03*
D29*
X89024999Y-77869999D03*
D28*
X89310000Y-77370000D03*
D29*
X89024999Y-77369999D03*
X86074999Y-77369999D03*
D28*
X85790000Y-77370000D03*
D29*
X86074999Y-77869999D03*
D28*
X85790000Y-77870000D03*
D29*
X86074999Y-78369999D03*
D28*
X85790000Y-78370000D03*
D29*
X86074999Y-78869999D03*
D28*
X85790000Y-78870000D03*
D29*
X86074999Y-79369999D03*
D28*
X85790000Y-79370000D03*
D30*
X88050000Y-79120000D03*
X88050000Y-77620000D03*
D31*
X87999999Y-79004999D03*
X87999999Y-77734999D03*
D32*
X87799999Y-79999999D03*
D33*
X87799999Y-79919999D03*
X87799999Y-76819999D03*
D32*
X87799999Y-76739999D03*
D30*
X87550000Y-78370000D03*
D34*
X87549999Y-78369999D03*
D32*
X87299999Y-79999999D03*
D33*
X87299999Y-79919999D03*
X87299999Y-76819999D03*
D32*
X87299999Y-76739999D03*
D31*
X87099999Y-79004999D03*
X87099999Y-77734999D03*
D30*
X87050000Y-79120000D03*
X87050000Y-77620000D03*
%TD*%
D21*
%TO.C,C6*%
X91152334Y-60649138D03*
X89252334Y-60649138D03*
%TD*%
D35*
%TO.C,C7*%
X82425000Y-69700000D03*
X83975000Y-69700000D03*
%TD*%
D36*
%TO.C,J2*%
X70100000Y-54910000D03*
X70100000Y-60690000D03*
D37*
X71544999Y-54549999D03*
X71544999Y-55349999D03*
D38*
X71544999Y-56549999D03*
X71544999Y-57549999D03*
X71544999Y-58049999D03*
X71544999Y-59049999D03*
D37*
X71544999Y-60249999D03*
X71544999Y-61049999D03*
X71544999Y-61049999D03*
X71544999Y-60249999D03*
D38*
X71544999Y-59549999D03*
X71544999Y-58549999D03*
X71544999Y-57049999D03*
X71544999Y-56049999D03*
D37*
X71544999Y-55349999D03*
X71544999Y-54549999D03*
D39*
X70629999Y-53479999D03*
D40*
X66449999Y-53479999D03*
D39*
X70629999Y-62119999D03*
D40*
X66449999Y-62119999D03*
%TD*%
D20*
%TO.C,C13*%
X91875000Y-81789999D03*
X94825000Y-81789999D03*
%TD*%
D41*
%TO.C,R9*%
X84462500Y-41900000D03*
X81537500Y-41900000D03*
%TD*%
D42*
%TO.C,R12*%
X93862500Y-64160000D03*
X93862500Y-63140000D03*
%TD*%
D43*
%TO.C,C14*%
X98200000Y-70950000D03*
X98200000Y-69050000D03*
%TD*%
D44*
%TO.C,D2*%
X77800000Y-56415000D03*
X77800000Y-57385000D03*
%TD*%
D45*
%TO.C,D4*%
X76900000Y-67787500D03*
X76900000Y-66212500D03*
%TD*%
D46*
%TO.C,R8*%
X92852500Y-61650000D03*
X93872500Y-61650000D03*
%TD*%
D20*
%TO.C,C11*%
X91825000Y-74100000D03*
X94775000Y-74100000D03*
%TD*%
D47*
%TO.C,Q1*%
X76862500Y-43350000D03*
X76862500Y-45250000D03*
X78737500Y-44300000D03*
%TD*%
D48*
%TO.C,J3*%
X111162624Y-59299999D03*
X111162624Y-58299999D03*
X111162624Y-57299999D03*
X111162624Y-56299999D03*
D49*
X113512624Y-62449999D03*
X113512624Y-53149999D03*
%TD*%
D50*
%TO.C,R11*%
X82483363Y-74516637D03*
X81316637Y-75683363D03*
%TD*%
D51*
%TO.C,C16*%
X84600000Y-35925000D03*
X84600000Y-37475000D03*
%TD*%
D52*
%TO.C,SW1*%
X93759999Y-88199999D03*
X96299999Y-88199999D03*
X98839999Y-88199999D03*
%TD*%
D53*
%TO.C,SW2*%
X119602081Y-38202081D03*
X117197917Y-35797917D03*
%TD*%
D54*
%TO.C,J4*%
X117280255Y-72319743D03*
D55*
X115484204Y-74115794D03*
X113688153Y-75911845D03*
X111892101Y-77707897D03*
X110096050Y-79503948D03*
X108299999Y-81299999D03*
X106503948Y-83096050D03*
X104707896Y-84892102D03*
%TD*%
D44*
%TO.C,D3*%
X74900000Y-53015000D03*
X74900000Y-53985000D03*
%TD*%
D56*
%TO.C,U3*%
X92662500Y-55850000D03*
X92662500Y-56350000D03*
X92662500Y-56850000D03*
X92662500Y-57350000D03*
X92662500Y-57850000D03*
X92662500Y-58350000D03*
D57*
X93350000Y-59037500D03*
X93850000Y-59037500D03*
X94350000Y-59037500D03*
X94850000Y-59037500D03*
X95350000Y-59037500D03*
X95850000Y-59037500D03*
D56*
X96537500Y-58350000D03*
X96537500Y-57850000D03*
X96537500Y-57350000D03*
X96537500Y-56850000D03*
X96537500Y-56350000D03*
X96537500Y-55850000D03*
D57*
X95850000Y-55162500D03*
X95350000Y-55162500D03*
X94850000Y-55162500D03*
X94350000Y-55162500D03*
X93850000Y-55162500D03*
X93350000Y-55162500D03*
D58*
X94599999Y-57099999D03*
%TD*%
D41*
%TO.C,R7*%
X74962500Y-40100000D03*
X72037500Y-40100000D03*
%TD*%
D50*
%TO.C,R10*%
X85099658Y-71900342D03*
X83932932Y-73067068D03*
%TD*%
D51*
%TO.C,C10*%
X83300000Y-45725000D03*
X83300000Y-47275000D03*
%TD*%
D59*
%TO.C,C15*%
X82600000Y-35950000D03*
X82600000Y-37850000D03*
%TD*%
D60*
%TO.C,R6*%
X72137500Y-48200000D03*
X75062500Y-48200000D03*
%TD*%
D21*
%TO.C,C5*%
X91102335Y-64149137D03*
X89202335Y-64149137D03*
%TD*%
D61*
%TO.C,C2*%
X84100000Y-64775000D03*
X84100000Y-63225000D03*
%TD*%
D62*
%TO.C,U1*%
X87161400Y-34373358D03*
X87161400Y-35643358D03*
X87161400Y-36913358D03*
X87161400Y-38183358D03*
X87161400Y-39453358D03*
X87161400Y-40723358D03*
X87161400Y-41993358D03*
X87161400Y-43263358D03*
X87161400Y-44533358D03*
X87161400Y-45803358D03*
X87161400Y-47073358D03*
X87161400Y-48343358D03*
X87161400Y-49613358D03*
X87161400Y-50883358D03*
D63*
X88926400Y-52133292D03*
X90196400Y-52133292D03*
X91466400Y-52133292D03*
X92736400Y-52133292D03*
X94006400Y-52133292D03*
X95276400Y-52133292D03*
X96546400Y-52133292D03*
X97816400Y-52133292D03*
X99086400Y-52133292D03*
X100356400Y-52133292D03*
X101626400Y-52133292D03*
X102896400Y-52133292D03*
D62*
X104661400Y-50883358D03*
X104661400Y-49613358D03*
X104661400Y-48343358D03*
X104661400Y-47073358D03*
X104661400Y-45803358D03*
X104661400Y-44533358D03*
X104661400Y-43263358D03*
X104661400Y-41993358D03*
X104661400Y-40723358D03*
X104661400Y-39453358D03*
X104661400Y-38183358D03*
X104661400Y-36913358D03*
X104661400Y-35643358D03*
X104661400Y-34373358D03*
D64*
X94470966Y-39877284D03*
X92970966Y-38377284D03*
X94470966Y-38377284D03*
X95970966Y-38377284D03*
X92970966Y-39877284D03*
X95970966Y-39877284D03*
X92970966Y-41377284D03*
X94470966Y-41377284D03*
X95970966Y-41377284D03*
%TD*%
D46*
%TO.C,R2*%
X74490000Y-59500000D03*
X75510000Y-59500000D03*
%TD*%
D65*
%TO.C,R5*%
X75454765Y-62154765D03*
X76745235Y-63445235D03*
%TD*%
D66*
%TO.C,Q2*%
X70537499Y-45250000D03*
X70537499Y-43350000D03*
X68662499Y-44300000D03*
%TD*%
D20*
%TO.C,C12*%
X91875000Y-77890000D03*
X94825000Y-77890000D03*
%TD*%
D67*
%TO.C,J1*%
X70350000Y-70200000D03*
D68*
X70349999Y-68199999D03*
%TD*%
M02*
