%TF.GenerationSoftware,KiCad,Pcbnew,(6.0.9)*%
%TF.CreationDate,2023-01-23T17:19:02-06:00*%
%TF.ProjectId,pulse_ox_wearable,70756c73-655f-46f7-985f-776561726162,1*%
%TF.SameCoordinates,Original*%
%TF.FileFunction,Legend,Bot*%
%TF.FilePolarity,Positive*%
%FSLAX46Y46*%
G04 Gerber Fmt 4.6, Leading zero omitted, Abs format (unit mm)*
G04 Created by KiCad (PCBNEW (6.0.9)) date 2023-01-23 17:19:02*
%MOMM*%
%LPD*%
G01*
G04 APERTURE LIST*
G04 Aperture macros list*
%AMRoundRect*
0 Rectangle with rounded corners*
0 $1 Rounding radius*
0 $2 $3 $4 $5 $6 $7 $8 $9 X,Y pos of 4 corners*
0 Add a 4 corners polygon primitive as box body*
4,1,4,$2,$3,$4,$5,$6,$7,$8,$9,$2,$3,0*
0 Add four circle primitives for the rounded corners*
1,1,$1+$1,$2,$3*
1,1,$1+$1,$4,$5*
1,1,$1+$1,$6,$7*
1,1,$1+$1,$8,$9*
0 Add four rect primitives between the rounded corners*
20,1,$1+$1,$2,$3,$4,$5,0*
20,1,$1+$1,$4,$5,$6,$7,0*
20,1,$1+$1,$6,$7,$8,$9,0*
20,1,$1+$1,$8,$9,$2,$3,0*%
%AMHorizOval*
0 Thick line with rounded ends*
0 $1 width*
0 $2 $3 position (X,Y) of the first rounded end (center of the circle)*
0 $4 $5 position (X,Y) of the second rounded end (center of the circle)*
0 Add line between two ends*
20,1,$1,$2,$3,$4,$5,0*
0 Add two circle primitives to create the rounded ends*
1,1,$1,$2,$3*
1,1,$1,$4,$5*%
%AMRotRect*
0 Rectangle, with rotation*
0 The origin of the aperture is its center*
0 $1 length*
0 $2 width*
0 $3 Rotation angle, in degrees counterclockwise*
0 Add horizontal line*
21,1,$1,$2,0,0,$3*%
G04 Aperture macros list end*
%ADD10C,0.150000*%
%ADD11C,0.120000*%
%ADD12C,0.600000*%
%ADD13O,1.600000X1.000000*%
%ADD14O,2.100000X1.000000*%
%ADD15C,0.650000*%
%ADD16RotRect,1.700000X1.700000X135.000000*%
%ADD17HorizOval,1.700000X0.000000X0.000000X0.000000X0.000000X0*%
%ADD18O,1.524000X1.524000*%
%ADD19O,1.750000X1.200000*%
%ADD20RoundRect,0.250000X0.625000X-0.350000X0.625000X0.350000X-0.625000X0.350000X-0.625000X-0.350000X0*%
%ADD21C,0.800000*%
%ADD22C,0.500000*%
G04 APERTURE END LIST*
D10*
%TO.C,J1*%
X72702380Y-68866666D02*
X73416666Y-68866666D01*
X73559523Y-68819047D01*
X73654761Y-68723809D01*
X73702380Y-68580952D01*
X73702380Y-68485714D01*
X73702380Y-69866666D02*
X73702380Y-69295238D01*
X73702380Y-69580952D02*
X72702380Y-69580952D01*
X72845238Y-69485714D01*
X72940476Y-69390476D01*
X72988095Y-69295238D01*
D11*
%TO.C,U1*%
X86449901Y-34373359D02*
G75*
G03*
X86449901Y-34373359I-381000J0D01*
G01*
%TO.C,J1*%
X72160000Y-69700000D02*
X71550000Y-69700000D01*
X68550000Y-69300000D02*
X68550000Y-69100000D01*
X67440000Y-66140000D02*
X72160000Y-66140000D01*
X71550000Y-69700000D02*
X71550000Y-71650000D01*
X72160000Y-66140000D02*
X72160000Y-72260000D01*
X68050000Y-66750000D02*
X71550000Y-66750000D01*
X68050000Y-71650000D02*
X68050000Y-66750000D01*
X72160000Y-72260000D02*
X67440000Y-72260000D01*
X72460000Y-71310000D02*
X72460000Y-72560000D01*
X72460000Y-72560000D02*
X71210000Y-72560000D01*
X69550000Y-72260000D02*
X69550000Y-71650000D01*
X70850000Y-66140000D02*
X70850000Y-66750000D01*
X72160000Y-70500000D02*
X72360000Y-70500000D01*
X68050000Y-69200000D02*
X68550000Y-69200000D01*
X70850000Y-72260000D02*
X70850000Y-71650000D01*
X69550000Y-66140000D02*
X69550000Y-66750000D01*
X71550000Y-68700000D02*
X72160000Y-68700000D01*
X68050000Y-69300000D02*
X68550000Y-69300000D01*
X71550000Y-66750000D02*
X71550000Y-68700000D01*
X72360000Y-70800000D02*
X72160000Y-70800000D01*
X72360000Y-70500000D02*
X72360000Y-70800000D01*
X72260000Y-70500000D02*
X72260000Y-70800000D01*
X68550000Y-69100000D02*
X68050000Y-69100000D01*
X71550000Y-71650000D02*
X68050000Y-71650000D01*
X67440000Y-72260000D02*
X67440000Y-66140000D01*
%TD*%
%LPC*%
D12*
%TO.C,U4*%
X88050000Y-77620000D03*
X88050000Y-79120000D03*
X87050000Y-77620000D03*
X87050000Y-79120000D03*
X87550000Y-78370000D03*
%TD*%
D13*
%TO.C,J2*%
X66450000Y-53480000D03*
D14*
X70630000Y-53480000D03*
X70630000Y-62120000D03*
D13*
X66450000Y-62120000D03*
D15*
X70100000Y-54910000D03*
X70100000Y-60690000D03*
%TD*%
D16*
%TO.C,J4*%
X103412994Y-59287006D03*
D17*
X105209045Y-57490955D03*
X107005096Y-55694904D03*
X108801148Y-53898852D03*
%TD*%
D18*
%TO.C,SW1*%
X98840000Y-88200000D03*
X96300000Y-88200000D03*
X93760000Y-88200000D03*
%TD*%
D19*
%TO.C,J1*%
X70350000Y-68200000D03*
D20*
X70350000Y-70200000D03*
%TD*%
D21*
X102900000Y-34700000D03*
X95700000Y-84200000D03*
X93700000Y-84200000D03*
X91700000Y-84200000D03*
X79871573Y-81171573D03*
X81285786Y-82585786D03*
X82700000Y-84000000D03*
X77871573Y-83271573D03*
X79285786Y-84685786D03*
X80700000Y-86100000D03*
X110400000Y-37900000D03*
X110400000Y-39899999D03*
X110400000Y-41900000D03*
X106528427Y-60171573D03*
X105114214Y-61585786D03*
X103700000Y-63000000D03*
X110028427Y-61771573D03*
X108614214Y-63185786D03*
X107200000Y-64600000D03*
X127128427Y-64971573D03*
X125714214Y-66385786D03*
X124300000Y-67800000D03*
X125228427Y-69771573D03*
X123814214Y-71185786D03*
X122400000Y-72600000D03*
X126400000Y-59800000D03*
X126400000Y-61799999D03*
X126400000Y-63800000D03*
X125000000Y-53600000D03*
X125000000Y-55599999D03*
X125000000Y-57600000D03*
X127200000Y-53000000D03*
X127200000Y-54999999D03*
X127200000Y-57000000D03*
X125300000Y-47000000D03*
X125300000Y-48999999D03*
X125300000Y-51000000D03*
X121271573Y-41171573D03*
X122685786Y-42585786D03*
X124100000Y-44000000D03*
X92228427Y-35671573D03*
X90814214Y-37085786D03*
X89400000Y-38500000D03*
X101000000Y-35500000D03*
X99000000Y-35500000D03*
X97000000Y-35500000D03*
X102600000Y-37500000D03*
X100600000Y-37500000D03*
X98600000Y-37500000D03*
X102400000Y-39700000D03*
X100400000Y-39700000D03*
X98400000Y-39700000D03*
X102100001Y-41800000D03*
X100100001Y-41800000D03*
X98099999Y-41800000D03*
X90500000Y-42000000D03*
X90500000Y-43999999D03*
X90500000Y-46000000D03*
X97099999Y-44000000D03*
X99100000Y-44000000D03*
X101100001Y-44000000D03*
X97300000Y-46300000D03*
X95300000Y-46300000D03*
X93300000Y-46300000D03*
X101300000Y-48600000D03*
X99300000Y-48600000D03*
X97300000Y-48600000D03*
X93800000Y-48600000D03*
X91800000Y-48600000D03*
X89800000Y-48600000D03*
X72900000Y-51500000D03*
X70900000Y-51500000D03*
X68900000Y-51500000D03*
X80028427Y-54428427D03*
X78614214Y-53014214D03*
X77200000Y-51600000D03*
X69800000Y-64500000D03*
X67800000Y-64500000D03*
X65800000Y-64500000D03*
X65700000Y-47000000D03*
X68528427Y-49828427D03*
X67114214Y-48414214D03*
X67114214Y-51242641D03*
X65700000Y-49828427D03*
X74085786Y-35714214D03*
X75500000Y-34300000D03*
X78328427Y-37128427D03*
X76914214Y-35714214D03*
X76914214Y-38542641D03*
X75500000Y-37128427D03*
X98499999Y-81100000D03*
X100500000Y-81100000D03*
X100500000Y-85100000D03*
X100500000Y-83100001D03*
X98500000Y-85100001D03*
X98500000Y-83100000D03*
X74700000Y-73700000D03*
X74700000Y-75700000D03*
X70700000Y-75700000D03*
X72700000Y-75700000D03*
X70700000Y-73700000D03*
X72700000Y-73700000D03*
X76614214Y-80385786D03*
X75200000Y-81800000D03*
X72371573Y-78971573D03*
X73785786Y-80385785D03*
X73785785Y-77557359D03*
X75200000Y-78971573D03*
X106700000Y-81100000D03*
X110800000Y-83100000D03*
X108800000Y-85100000D03*
X110800000Y-85100000D03*
X112800000Y-81100000D03*
X108800000Y-83100000D03*
X110800000Y-81100000D03*
X108800000Y-81100000D03*
X112800000Y-83100000D03*
X106700000Y-83100000D03*
X102700000Y-83100000D03*
X104700000Y-83100000D03*
X102700000Y-85100000D03*
X104700000Y-85100000D03*
X106700000Y-85100000D03*
X102700000Y-87100000D03*
X106700000Y-87100000D03*
X104700000Y-87100000D03*
X102700000Y-81100000D03*
X104700000Y-81100000D03*
X115600000Y-79200000D03*
X109500000Y-73200000D03*
X113500000Y-73200000D03*
X111500000Y-77200001D03*
X113500001Y-75200000D03*
X111500000Y-75200000D03*
X109500000Y-79200000D03*
X111500001Y-73200000D03*
X113500000Y-77200000D03*
X111500000Y-79200000D03*
X109500000Y-75200001D03*
X113500000Y-79200000D03*
X109500000Y-77200000D03*
X115599999Y-77200000D03*
X119600000Y-77200001D03*
X117600000Y-77200000D03*
X119600000Y-75200000D03*
X117599999Y-75200000D03*
X115600000Y-75200000D03*
X119599999Y-73200000D03*
X115599999Y-73200000D03*
X117600000Y-73200000D03*
X117600000Y-79200000D03*
X113500000Y-65100000D03*
X119600000Y-71100000D03*
X115600000Y-71100000D03*
X117600000Y-67100000D03*
X115600000Y-69100000D03*
X117600000Y-69100000D03*
X119600000Y-65100000D03*
X117600000Y-71100000D03*
X115600000Y-67100000D03*
X117600000Y-65100000D03*
X119600000Y-69100000D03*
X115600000Y-65100000D03*
X119600000Y-67100000D03*
X113500000Y-67100000D03*
X109500000Y-67100000D03*
X111500000Y-67100000D03*
X109500000Y-69100000D03*
X111500000Y-69100000D03*
X113500000Y-69100000D03*
X109500000Y-71100000D03*
X113500000Y-71100000D03*
X111500000Y-71100000D03*
X109500000Y-65100000D03*
X111500000Y-65100000D03*
X119600000Y-44000000D03*
X119600000Y-46000000D03*
X115600000Y-46000000D03*
X117600000Y-46000000D03*
X115600000Y-48000000D03*
X117600000Y-48000000D03*
X119600000Y-48000000D03*
X115600000Y-50000000D03*
X119600000Y-50000000D03*
X117600000Y-50000000D03*
X115600000Y-44000000D03*
X117600000Y-44000000D03*
X113500000Y-48000000D03*
X113500000Y-50000000D03*
X109500000Y-50000000D03*
X111500000Y-50000000D03*
X109500000Y-48000000D03*
X111500000Y-48000000D03*
X113500000Y-46000000D03*
X109500000Y-46000000D03*
X111500000Y-46000000D03*
X113500000Y-44000000D03*
X111500000Y-44000000D03*
X109500000Y-44000000D03*
X82600000Y-63200000D03*
X76100000Y-53600000D03*
X91500000Y-62400000D03*
X95300000Y-57700000D03*
X91200000Y-55700000D03*
X89500000Y-34599500D03*
X94500000Y-42900000D03*
X84900000Y-59200000D03*
X87500000Y-59200000D03*
X87500000Y-75500000D03*
X81700000Y-47900000D03*
X87500000Y-81200000D03*
X83500000Y-56300000D03*
X89100000Y-56300000D03*
X81400000Y-56300000D03*
X73300000Y-54000000D03*
X107700000Y-70700000D03*
X95900000Y-65500000D03*
X79800000Y-76300000D03*
X90100000Y-59200000D03*
X82500000Y-56300000D03*
X98200000Y-67600000D03*
X76700000Y-55000000D03*
X84600000Y-56300000D03*
X87500000Y-64500000D03*
X90200000Y-56200000D03*
X76400000Y-59300000D03*
X96500000Y-74200000D03*
X117600000Y-40900000D03*
X88000000Y-56300000D03*
X93900000Y-56400000D03*
X79280000Y-62680000D03*
X94500000Y-36000000D03*
X95300000Y-56400000D03*
X93900000Y-57700000D03*
X87500000Y-61100000D03*
X81200000Y-69100000D03*
X96500000Y-77800000D03*
X85500000Y-69200000D03*
X80000000Y-60200000D03*
X84100000Y-39000000D03*
X86200000Y-59200000D03*
X87600000Y-68300000D03*
X75900000Y-60500000D03*
X85700000Y-56300000D03*
X83800000Y-59200000D03*
X88900000Y-59200000D03*
X73500000Y-61400000D03*
X86800000Y-56300000D03*
X110100000Y-56200000D03*
X96400000Y-81800000D03*
X102400000Y-66600000D03*
X80800000Y-36100000D03*
X81300000Y-44400000D03*
X81400000Y-71100000D03*
D22*
X69704323Y-56800000D03*
X70250000Y-58124500D03*
X69712921Y-58572663D03*
X69650000Y-57558850D03*
D21*
X102700000Y-45400000D03*
X106300000Y-46119152D03*
X98000000Y-54900000D03*
X76600000Y-46600000D03*
X72700000Y-44300000D03*
X91600000Y-54000000D03*
X84900000Y-49500000D03*
X102400000Y-49800000D03*
X84400000Y-81200000D03*
M02*
