M48
; DRILL file {KiCad (7.0.0)} date Sat Apr  1 17:00:43 2023
; FORMAT={-:-/ absolute / inch / decimal}
; #@! TF.CreationDate,2023-04-01T17:00:43-05:00
; #@! TF.GenerationSoftware,Kicad,Pcbnew,(7.0.0)
; #@! TF.FileFunction,Plated,1,4,PTH
FMAT,2
INCH
; #@! TA.AperFunction,Plated,PTH,ViaDrill
T1C0.0118
; #@! TA.AperFunction,Plated,PTH,ComponentDrill
T2C0.0118
; #@! TA.AperFunction,Plated,PTH,ViaDrill
T3C0.0157
; #@! TA.AperFunction,Plated,PTH,ComponentDrill
T4C0.0236
; #@! TA.AperFunction,Plated,PTH,ComponentDrill
T5C0.0295
; #@! TA.AperFunction,Plated,PTH,ComponentDrill
T6C0.0300
; #@! TA.AperFunction,Plated,PTH,ComponentDrill
T7C0.0394
%
G90
G05
T1
X2.7421Y-2.2661
X2.7443Y-2.2362
X2.7446Y-2.306
X2.7657Y-2.2884
T2
X3.4272Y-3.0559
X3.4272Y-3.115
X3.4469Y-3.0854
X3.4665Y-3.0559
X3.4665Y-3.115
T3
X2.5866Y-1.8504
X2.5866Y-1.9617
X2.5906Y-2.5394
X2.6423Y-1.9061
X2.6423Y-2.0174
X2.6693Y-2.5394
X2.698Y-1.9617
X2.7126Y-2.0276
X2.748Y-2.5394
X2.7835Y-2.9016
X2.7835Y-2.9803
X2.7913Y-2.0276
X2.8493Y-3.1091
X2.8622Y-1.7441
X2.8622Y-2.9016
X2.8622Y-2.9803
X2.8701Y-2.0276
X2.874Y-2.1417
X2.878Y-2.4016
X2.905Y-3.0534
X2.905Y-3.1648
X2.9134Y-2.0866
X2.9168Y-1.4061
X2.9409Y-2.9016
X2.9409Y-2.9803
X2.9606Y-3.1091
X2.9606Y-3.2205
X2.9724Y-1.3504
X2.9724Y-1.4617
X2.9961Y-2.1102
X3.0079Y-2.3425
X3.0157Y-1.8346
X3.0163Y-3.1648
X3.0197Y-2.1654
X3.0281Y-1.4061
X3.0281Y-1.5174
X3.0394Y-2.0315
X3.0658Y-3.2784
X3.0838Y-1.4617
X3.095Y-2.0872
X3.1213Y-2.4677
X3.1215Y-3.3341
X3.1299Y-3.1181
X3.1446Y-3.1957
X3.1507Y-2.1429
X3.1654Y-3.0157
X3.1772Y-2.3228
X3.1772Y-3.3898
X3.1811Y-1.4213
X3.1969Y-2.7205
X3.2002Y-3.2514
X3.2008Y-1.4921
X3.2008Y-1.748
X3.2047Y-2.2165
X3.2047Y-2.7992
X3.2288Y-1.8735
X3.248Y-2.2165
X3.252Y-2.4882
X3.2559Y-3.3071
X3.2874Y-2.2165
X3.2874Y-2.437
X3.2992Y-2.3307
X3.3228Y-3.1969
X3.3286Y-1.5136
X3.3307Y-2.2165
X3.3425Y-1.9488
X3.3425Y-2.3307
X3.3504Y-2.7441
X3.374Y-2.2165
X3.3937Y-2.3307
X3.4173Y-2.2165
X3.4449Y-2.3307
X3.4449Y-2.9843
X3.4488Y-3.189
X3.4637Y-2.6741
X3.4646Y-2.2165
X3.4646Y-2.3898
X3.4646Y-2.5276
X3.4843Y-1.3533
X3.5Y-2.3307
X3.5079Y-2.2165
X3.5118Y-1.6024
X3.5236Y-1.9409
X3.5472Y-2.3307
X3.5512Y-2.2126
X3.5906Y-2.1929
X3.6024Y-1.9409
X3.6024Y-2.4567
X3.6063Y-2.126
X3.6102Y-3.315
X3.6811Y-1.9409
X3.689Y-3.315
X3.6969Y-2.2205
X3.6969Y-2.2717
X3.7205Y-1.4566
X3.7205Y-1.689
X3.7323Y-2.5276
X3.752Y-2.2205
X3.752Y-2.2717
X3.7677Y-3.315
X3.7795Y-3.0665
X3.7835Y-3.2201
X3.7992Y-2.9213
X3.8228Y-1.7323
X3.8307Y-1.9488
X3.8583Y-2.1614
X3.8661Y-2.6732
X3.874Y-2.9134
X3.874Y-2.9921
X3.874Y-3.0709
X3.878Y-3.1929
X3.878Y-3.2717
X3.878Y-3.3504
X3.8819Y-1.9882
X3.8892Y-1.779
X3.8976Y-1.3976
X3.9016Y-1.685
X3.9016Y-1.7323
X3.9449Y-1.8346
X3.9528Y-1.563
X3.9567Y-3.1929
X3.9567Y-3.2717
X3.9567Y-3.3504
X3.9606Y-1.4764
X3.9685Y-1.9882
X3.9764Y-1.3976
X3.9803Y-1.7323
X4.0006Y-1.8903
X4.0315Y-1.563
X4.0315Y-1.9606
X4.0315Y-2.622
X4.0394Y-1.4764
X4.0433Y-1.7874
X4.063Y-3.4488
X4.0731Y-1.3533
X4.0827Y-2.4803
X4.1303Y-2.2516
X4.1384Y-2.4246
X4.185Y-1.8157
X4.194Y-2.369
X4.2189Y-2.7205
X4.2205Y-2.8425
X4.248Y-1.4685
X4.2638Y-2.4882
X4.2638Y-2.5827
X4.2638Y-2.6732
X4.2908Y-1.6423
X4.2913Y-2.8346
X4.2913Y-2.9134
X4.2913Y-2.9921
X4.2992Y-2.2362
X4.3071Y-2.185
X4.311Y-1.9094
X4.311Y-1.9882
X4.311Y-2.0669
X4.3268Y-1.4685
X4.3465Y-1.5866
X4.4021Y-1.5309
X4.4055Y-1.4685
X4.4055Y-2.6024
X4.4055Y-2.6811
X4.4055Y-2.7598
X4.4882Y-3.2638
X4.5039Y-2.0118
X4.5039Y-1.9331
X4.5472Y-2.7126
X4.5472Y-2.5512
X4.5472Y-2.6299
X4.5787Y-3.2244
X4.5827Y-1.9331
X4.5827Y-2.0118
X4.626Y-2.5512
X4.626Y-2.6299
X4.626Y-2.7126
X4.626Y-3.1772
X4.6614Y-1.9331
X4.6614Y-2.0118
X4.6699Y-3.0979
X4.6715Y-2.9573
X4.7047Y-2.5512
X4.7047Y-2.6299
X4.7047Y-2.7126
X4.7272Y-2.9016
X4.7272Y-3.0129
X4.7402Y-1.5394
X4.7745Y-1.6209
X4.7829Y-2.8459
X4.7829Y-2.9573
X4.8301Y-1.6766
X4.8386Y-2.9016
X4.8858Y-1.7323
X4.9016Y-2.4724
X4.9016Y-2.5512
X4.9016Y-2.6299
X4.9213Y-2.1102
X4.9213Y-2.189
X4.9213Y-2.2677
X4.9331Y-1.8504
X4.9331Y-1.9291
X4.9331Y-2.0079
X4.9409Y-2.3622
X4.9803Y-2.4724
X4.9803Y-2.5512
X4.9803Y-2.6299
X5.0079Y-2.0866
X5.0079Y-2.1654
X5.0079Y-2.2441
X5.0079Y-2.3661
T5
X2.7697Y-2.685
X2.7697Y-2.7638
T6
X3.6913Y-3.4724
X3.7913Y-3.4724
X3.8913Y-3.4724
T7
X4.1224Y-3.3422
X4.1931Y-3.2715
X4.2638Y-3.2008
X4.3345Y-3.1301
X4.4052Y-3.0594
X4.4759Y-2.9887
X4.5466Y-2.9179
X4.6173Y-2.8472
T4
G00X2.628Y-2.1055
M15
G01X2.6043Y-2.1055
M16
G05
G00X2.628Y-2.4457
M15
G01X2.6043Y-2.4457
M16
G05
G00X2.8024Y-2.1055
M15
G01X2.7591Y-2.1055
M16
G05
G00X2.8024Y-2.4457
M15
G01X2.7591Y-2.4457
M16
G05
T0
M30
