%TF.GenerationSoftware,KiCad,Pcbnew,(7.0.0)*%
%TF.CreationDate,2023-04-01T17:00:43-05:00*%
%TF.ProjectId,pulse_ox_wearable,70756c73-655f-46f7-985f-776561726162,1*%
%TF.SameCoordinates,Original*%
%TF.FileFunction,Copper,L2,Inr*%
%TF.FilePolarity,Positive*%
%FSLAX46Y46*%
G04 Gerber Fmt 4.6, Leading zero omitted, Abs format (unit mm)*
G04 Created by KiCad (PCBNEW (7.0.0)) date 2023-04-01 17:00:43*
%MOMM*%
%LPD*%
G01*
G04 APERTURE LIST*
G04 Aperture macros list*
%AMRoundRect*
0 Rectangle with rounded corners*
0 $1 Rounding radius*
0 $2 $3 $4 $5 $6 $7 $8 $9 X,Y pos of 4 corners*
0 Add a 4 corners polygon primitive as box body*
4,1,4,$2,$3,$4,$5,$6,$7,$8,$9,$2,$3,0*
0 Add four circle primitives for the rounded corners*
1,1,$1+$1,$2,$3*
1,1,$1+$1,$4,$5*
1,1,$1+$1,$6,$7*
1,1,$1+$1,$8,$9*
0 Add four rect primitives between the rounded corners*
20,1,$1+$1,$2,$3,$4,$5,0*
20,1,$1+$1,$4,$5,$6,$7,0*
20,1,$1+$1,$6,$7,$8,$9,0*
20,1,$1+$1,$8,$9,$2,$3,0*%
%AMHorizOval*
0 Thick line with rounded ends*
0 $1 width*
0 $2 $3 position (X,Y) of the first rounded end (center of the circle)*
0 $4 $5 position (X,Y) of the second rounded end (center of the circle)*
0 Add line between two ends*
20,1,$1,$2,$3,$4,$5,0*
0 Add two circle primitives to create the rounded ends*
1,1,$1,$2,$3*
1,1,$1,$4,$5*%
%AMRotRect*
0 Rectangle, with rotation*
0 The origin of the aperture is its center*
0 $1 length*
0 $2 width*
0 $3 Rotation angle, in degrees counterclockwise*
0 Add horizontal line*
21,1,$1,$2,0,0,$3*%
G04 Aperture macros list end*
%TA.AperFunction,ComponentPad*%
%ADD10C,0.600000*%
%TD*%
%TA.AperFunction,ComponentPad*%
%ADD11O,2.100000X1.000000*%
%TD*%
%TA.AperFunction,ComponentPad*%
%ADD12O,1.600000X1.000000*%
%TD*%
%TA.AperFunction,ComponentPad*%
%ADD13O,1.524000X1.524000*%
%TD*%
%TA.AperFunction,ComponentPad*%
%ADD14RotRect,1.700000X1.700000X315.000000*%
%TD*%
%TA.AperFunction,ComponentPad*%
%ADD15HorizOval,1.700000X0.000000X0.000000X0.000000X0.000000X0*%
%TD*%
%TA.AperFunction,ComponentPad*%
%ADD16RoundRect,0.250000X0.625000X-0.350000X0.625000X0.350000X-0.625000X0.350000X-0.625000X-0.350000X0*%
%TD*%
%TA.AperFunction,ComponentPad*%
%ADD17O,1.750000X1.200000*%
%TD*%
%TA.AperFunction,ViaPad*%
%ADD18C,0.800000*%
%TD*%
%TA.AperFunction,ViaPad*%
%ADD19C,0.500000*%
%TD*%
G04 APERTURE END LIST*
D10*
%TO.N,GND*%
%TO.C,U4*%
X88050000Y-79120000D03*
X88050000Y-77620000D03*
X87550000Y-78370000D03*
X87050000Y-79120000D03*
X87050000Y-77620000D03*
%TD*%
D11*
%TO.N,unconnected-(J2-SHIELD-PadS1)*%
%TO.C,J2*%
X70629999Y-53479999D03*
D12*
X66449999Y-53479999D03*
D11*
X70629999Y-62119999D03*
D12*
X66449999Y-62119999D03*
%TD*%
D13*
%TO.N,/VDD_IN*%
%TO.C,SW1*%
X93759999Y-88199999D03*
%TO.N,VDD*%
X96299999Y-88199999D03*
%TO.N,unconnected-(SW1-C-Pad3)*%
X98839999Y-88199999D03*
%TD*%
D14*
%TO.N,+3V3*%
%TO.C,J4*%
X117280255Y-72319743D03*
D15*
%TO.N,GND*%
X115484204Y-74115794D03*
%TO.N,MOSI*%
X113688153Y-75911845D03*
%TO.N,SCLK*%
X111892101Y-77707897D03*
%TO.N,~{CS}*%
X110096050Y-79503948D03*
%TO.N,DC*%
X108299999Y-81299999D03*
%TO.N,RST*%
X106503948Y-83096050D03*
%TO.N,+3V3*%
X104707896Y-84892102D03*
%TD*%
D16*
%TO.N,GND*%
%TO.C,J1*%
X70350000Y-70200000D03*
D17*
%TO.N,VDD*%
X70349999Y-68199999D03*
%TD*%
D18*
%TO.N,VBUS*%
X82600000Y-63200000D03*
X76100000Y-53600000D03*
X91500000Y-62400000D03*
%TO.N,GND*%
X98400000Y-76000000D03*
X127200000Y-57000000D03*
X79285786Y-84685786D03*
X98500000Y-85100001D03*
X69800000Y-64500000D03*
X98499999Y-81100000D03*
X79871573Y-81171573D03*
X76914214Y-38542641D03*
X95300000Y-57700000D03*
X70700000Y-75700000D03*
X91200000Y-55700000D03*
X88500000Y-34373359D03*
X118400000Y-49100000D03*
X126500000Y-62800000D03*
X103700000Y-63000000D03*
X125000000Y-53600000D03*
X125500000Y-60000000D03*
X94500000Y-42900000D03*
X124100000Y-44000000D03*
X121485786Y-72285786D03*
X114000000Y-82900000D03*
X75200000Y-81800000D03*
X99100000Y-44000000D03*
X84900000Y-59200000D03*
X87500000Y-59200000D03*
X83500000Y-61900000D03*
X87500000Y-75800000D03*
X117500000Y-64800000D03*
X82012500Y-47587500D03*
X127200000Y-60100000D03*
X87600000Y-81000000D03*
X99000000Y-35500000D03*
X115500000Y-64800000D03*
X83500000Y-56300000D03*
X116400000Y-49100000D03*
X100600000Y-37500000D03*
X100400000Y-39700000D03*
X72371573Y-78971573D03*
X68900000Y-51500000D03*
X89100000Y-56300000D03*
X115499999Y-68900000D03*
X111900000Y-37300000D03*
X111900000Y-68100000D03*
X65700000Y-47000000D03*
X81400000Y-56300000D03*
X76914214Y-35714214D03*
X73000000Y-54400000D03*
X119500000Y-66800000D03*
X109500000Y-50500000D03*
X107159500Y-69100000D03*
X80028427Y-54428427D03*
X120071573Y-76528427D03*
X100500000Y-81100000D03*
X94800000Y-64200000D03*
X67114214Y-48414214D03*
X74700000Y-75700000D03*
X91500000Y-49300000D03*
X79500000Y-79200000D03*
X90100000Y-59200000D03*
X115500000Y-66800000D03*
X81285786Y-82585786D03*
X102600000Y-37500000D03*
X117500000Y-80700000D03*
X82500000Y-56300000D03*
X121271573Y-41171573D03*
X91700000Y-84200000D03*
X98200000Y-67900000D03*
X74000000Y-53000000D03*
X107900000Y-37300000D03*
X127200000Y-53000000D03*
X98400000Y-78000001D03*
X119500001Y-68900000D03*
X93700000Y-84200000D03*
X108985786Y-41714214D03*
X117500000Y-66800000D03*
X109000000Y-76000000D03*
X76700000Y-55000000D03*
X108300000Y-63200000D03*
X125300000Y-47000000D03*
X108300000Y-67900000D03*
X126500000Y-66800000D03*
X65800000Y-64500000D03*
X124500000Y-66800001D03*
X109500000Y-48499999D03*
X93500001Y-49300000D03*
X118614214Y-78685786D03*
X84600000Y-56300000D03*
X88000000Y-64200000D03*
X75500000Y-37128427D03*
X110400000Y-40300000D03*
X105114214Y-61585786D03*
X109500000Y-52500001D03*
X100500000Y-85100000D03*
X90200000Y-56200000D03*
X67800000Y-64500000D03*
X76400000Y-59500000D03*
X96500000Y-74200000D03*
X122900000Y-73700000D03*
X120400000Y-39100000D03*
X114400000Y-49100000D03*
X88000000Y-56300000D03*
X116400000Y-51100000D03*
X93900000Y-56400000D03*
X101000000Y-35500000D03*
X79280000Y-62680000D03*
X126500000Y-64800001D03*
X95700000Y-84200000D03*
X75200000Y-78971573D03*
X107200000Y-72200000D03*
X94500000Y-36998315D03*
X80700000Y-86100000D03*
X72700000Y-73700000D03*
X124500000Y-64800000D03*
X70900000Y-51500000D03*
X95300000Y-56400000D03*
X93900000Y-57700000D03*
X74085786Y-35714214D03*
X118657359Y-75114214D03*
X77871573Y-83271573D03*
X124499999Y-62800000D03*
X125000000Y-55599999D03*
X111900000Y-66099999D03*
X74700000Y-73700000D03*
X88000000Y-60700000D03*
X75500000Y-34300000D03*
X81200000Y-69100000D03*
X98785786Y-45185786D03*
X82700000Y-84000000D03*
X114399999Y-51100000D03*
X98400000Y-73999999D03*
X100500000Y-83100001D03*
X109000000Y-71999998D03*
X98500000Y-83100000D03*
X118400001Y-51100000D03*
X78328427Y-37128427D03*
X96000000Y-77890000D03*
X125300000Y-48999999D03*
X109000000Y-73999999D03*
X70700000Y-73700000D03*
X125300000Y-51000000D03*
X109900000Y-37300000D03*
X80400000Y-76600000D03*
X65700000Y-49828427D03*
X73785785Y-77557359D03*
X127200000Y-54999999D03*
X72900000Y-51500000D03*
X85100000Y-69700000D03*
X77200000Y-51600000D03*
X102400000Y-39700000D03*
X81300000Y-37900000D03*
X80700000Y-59000000D03*
X108300000Y-65600000D03*
X125000000Y-57600000D03*
X116300000Y-81900000D03*
X103199999Y-87600000D03*
X103457611Y-34373359D03*
X100200000Y-46600000D03*
X117500000Y-68900000D03*
X101100001Y-44000000D03*
X73785786Y-80385785D03*
X78614214Y-53014214D03*
X120071573Y-73700000D03*
X84545778Y-38445778D03*
X86200000Y-59200000D03*
X67114214Y-51242641D03*
X122685786Y-42585786D03*
X87979141Y-67923264D03*
X119500000Y-64800000D03*
X76614214Y-80385786D03*
X85700000Y-56300000D03*
X83800000Y-59200000D03*
X101614214Y-48014214D03*
X106528427Y-60171573D03*
X97099999Y-44000000D03*
X88900000Y-59200000D03*
X111900000Y-70100001D03*
X73100000Y-61000000D03*
X86800000Y-56300000D03*
X111814214Y-38885786D03*
X68528427Y-49828427D03*
X72700000Y-75700000D03*
X109400000Y-55500000D03*
X121485786Y-75114214D03*
X89499999Y-49300000D03*
X96100000Y-81789999D03*
%TO.N,+3V3*%
X102400000Y-66600000D03*
X80800000Y-36100000D03*
X81300000Y-44400000D03*
%TO.N,VDD*%
X81400000Y-71100000D03*
D19*
%TO.N,D-*%
X69704323Y-56800000D03*
X70250000Y-58124500D03*
%TO.N,D+*%
X69712921Y-58572663D03*
X69650000Y-57558850D03*
D18*
%TO.N,SDA*%
X104909045Y-57190955D03*
X102700000Y-45400000D03*
%TO.N,SCL*%
X106300000Y-46119152D03*
X109200000Y-56800000D03*
%TO.N,~{RTS}*%
X98000000Y-54900000D03*
X76600000Y-46600000D03*
%TO.N,~{DTR}*%
X72700000Y-44300000D03*
X91600000Y-54000000D03*
%TO.N,IO0*%
X84900000Y-49500000D03*
X102400000Y-49800000D03*
%TO.N,MOSI*%
X89200000Y-40700000D03*
%TO.N,SCLK*%
X97300000Y-49500000D03*
%TO.N,~{CS}*%
X99100000Y-42800000D03*
%TO.N,DC*%
X100800000Y-50500000D03*
%TO.N,RST*%
X98600000Y-50500000D03*
%TO.N,/VDD_IN*%
X84400000Y-81200000D03*
%TD*%
%TA.AperFunction,Conductor*%
%TO.N,GND*%
G36*
X118177463Y-33808767D02*
G01*
X118217216Y-33833850D01*
X118494531Y-34092451D01*
X118497694Y-34095506D01*
X119304493Y-34902305D01*
X119307549Y-34905468D01*
X120085784Y-35740022D01*
X120088726Y-35743291D01*
X120204961Y-35877004D01*
X120837320Y-36604451D01*
X120840107Y-36607772D01*
X121558201Y-37494544D01*
X121560909Y-37498009D01*
X122247620Y-38409307D01*
X122250205Y-38412865D01*
X122904688Y-39347561D01*
X122907132Y-39351184D01*
X123347535Y-40029346D01*
X123528600Y-40308161D01*
X123530930Y-40311890D01*
X124118617Y-41289967D01*
X124120816Y-41293776D01*
X124674002Y-42291748D01*
X124676067Y-42295631D01*
X125194096Y-43312321D01*
X125196024Y-43316274D01*
X125678251Y-44350412D01*
X125680040Y-44354430D01*
X125896455Y-44864271D01*
X126123858Y-45400000D01*
X126125891Y-45404788D01*
X126127534Y-45408857D01*
X126216224Y-45639901D01*
X126536446Y-46474109D01*
X126537950Y-46478241D01*
X126909441Y-47557129D01*
X126910800Y-47561312D01*
X127244403Y-48652481D01*
X127245616Y-48656709D01*
X127540945Y-49758890D01*
X127542009Y-49763157D01*
X127798692Y-50874976D01*
X127799606Y-50879278D01*
X128017325Y-51999341D01*
X128018089Y-52003672D01*
X128196590Y-53130683D01*
X128197202Y-53135038D01*
X128336260Y-54267572D01*
X128336720Y-54271946D01*
X128436171Y-55408683D01*
X128436477Y-55413071D01*
X128496193Y-56552516D01*
X128496347Y-56556911D01*
X128516261Y-57697800D01*
X128516261Y-57702198D01*
X128496347Y-58843088D01*
X128496193Y-58847483D01*
X128436477Y-59986928D01*
X128436171Y-59991316D01*
X128336720Y-61128053D01*
X128336260Y-61132427D01*
X128197202Y-62264961D01*
X128196590Y-62269316D01*
X128018089Y-63396327D01*
X128017325Y-63400658D01*
X127799606Y-64520721D01*
X127798692Y-64525023D01*
X127542009Y-65636842D01*
X127540945Y-65641109D01*
X127245616Y-66743290D01*
X127244403Y-66747518D01*
X126910800Y-67838687D01*
X126909441Y-67842870D01*
X126537950Y-68921758D01*
X126536446Y-68925890D01*
X126127538Y-69991133D01*
X126125891Y-69995211D01*
X125680040Y-71045569D01*
X125678251Y-71049587D01*
X125196024Y-72083725D01*
X125194096Y-72087678D01*
X124676067Y-73104368D01*
X124674002Y-73108251D01*
X124120816Y-74106223D01*
X124118617Y-74110032D01*
X123530930Y-75088109D01*
X123528600Y-75091838D01*
X122907148Y-76048791D01*
X122904688Y-76052438D01*
X122250205Y-76987134D01*
X122247620Y-76990692D01*
X121560909Y-77901990D01*
X121558201Y-77905455D01*
X120840127Y-78792203D01*
X120837300Y-78795572D01*
X120088726Y-79656708D01*
X120085784Y-79659977D01*
X119307549Y-80494531D01*
X119304493Y-80497694D01*
X118497694Y-81304493D01*
X118494531Y-81307549D01*
X117659977Y-82085784D01*
X117656708Y-82088726D01*
X116795572Y-82837300D01*
X116792203Y-82840127D01*
X115905455Y-83558201D01*
X115901990Y-83560909D01*
X114990692Y-84247620D01*
X114987134Y-84250205D01*
X114052438Y-84904688D01*
X114048791Y-84907148D01*
X113091838Y-85528600D01*
X113088109Y-85530930D01*
X112110032Y-86118617D01*
X112106223Y-86120816D01*
X111108251Y-86674002D01*
X111104368Y-86676067D01*
X110087678Y-87194096D01*
X110083725Y-87196024D01*
X109049587Y-87678251D01*
X109045569Y-87680040D01*
X107995211Y-88125891D01*
X107991133Y-88127538D01*
X106925890Y-88536446D01*
X106921758Y-88537950D01*
X105842870Y-88909441D01*
X105838687Y-88910800D01*
X104747518Y-89244403D01*
X104743290Y-89245616D01*
X103641109Y-89540945D01*
X103636842Y-89542009D01*
X102525023Y-89798692D01*
X102520721Y-89799606D01*
X101400658Y-90017325D01*
X101396327Y-90018089D01*
X100269316Y-90196590D01*
X100264961Y-90197202D01*
X99132427Y-90336260D01*
X99128053Y-90336720D01*
X97991316Y-90436171D01*
X97986928Y-90436477D01*
X96847483Y-90496193D01*
X96843088Y-90496347D01*
X95702199Y-90516261D01*
X95697801Y-90516261D01*
X94556911Y-90496347D01*
X94552516Y-90496193D01*
X93413071Y-90436477D01*
X93408683Y-90436171D01*
X92271946Y-90336720D01*
X92267572Y-90336260D01*
X91135038Y-90197202D01*
X91130683Y-90196590D01*
X90003672Y-90018089D01*
X89999341Y-90017325D01*
X88879278Y-89799606D01*
X88874976Y-89798692D01*
X87763157Y-89542009D01*
X87758890Y-89540945D01*
X86656709Y-89245616D01*
X86652481Y-89244403D01*
X85561312Y-88910800D01*
X85557129Y-88909441D01*
X85375964Y-88847061D01*
X84514825Y-88550547D01*
X84478241Y-88537950D01*
X84474109Y-88536446D01*
X83597636Y-88200000D01*
X92882694Y-88200000D01*
X92901865Y-88382402D01*
X92903902Y-88388674D01*
X92903904Y-88388679D01*
X92956498Y-88550547D01*
X92956501Y-88550554D01*
X92958541Y-88556832D01*
X93050245Y-88715668D01*
X93172968Y-88851965D01*
X93321347Y-88959769D01*
X93488898Y-89034368D01*
X93668297Y-89072500D01*
X93845100Y-89072500D01*
X93851703Y-89072500D01*
X94031102Y-89034368D01*
X94198653Y-88959769D01*
X94347032Y-88851965D01*
X94469755Y-88715668D01*
X94561459Y-88556832D01*
X94618135Y-88382402D01*
X94637306Y-88200000D01*
X95422694Y-88200000D01*
X95441865Y-88382402D01*
X95443902Y-88388674D01*
X95443904Y-88388679D01*
X95496498Y-88550547D01*
X95496501Y-88550554D01*
X95498541Y-88556832D01*
X95590245Y-88715668D01*
X95712968Y-88851965D01*
X95861347Y-88959769D01*
X96028898Y-89034368D01*
X96208297Y-89072500D01*
X96385100Y-89072500D01*
X96391703Y-89072500D01*
X96571102Y-89034368D01*
X96738653Y-88959769D01*
X96887032Y-88851965D01*
X97009755Y-88715668D01*
X97101459Y-88556832D01*
X97158135Y-88382402D01*
X97177306Y-88200000D01*
X97962694Y-88200000D01*
X97981865Y-88382402D01*
X97983902Y-88388674D01*
X97983904Y-88388679D01*
X98036498Y-88550547D01*
X98036501Y-88550554D01*
X98038541Y-88556832D01*
X98130245Y-88715668D01*
X98252968Y-88851965D01*
X98401347Y-88959769D01*
X98568898Y-89034368D01*
X98748297Y-89072500D01*
X98925100Y-89072500D01*
X98931703Y-89072500D01*
X99111102Y-89034368D01*
X99278653Y-88959769D01*
X99427032Y-88851965D01*
X99549755Y-88715668D01*
X99641459Y-88556832D01*
X99698135Y-88382402D01*
X99717306Y-88200000D01*
X99698135Y-88017598D01*
X99641459Y-87843168D01*
X99549755Y-87684332D01*
X99427032Y-87548035D01*
X99278653Y-87440231D01*
X99111102Y-87365632D01*
X99104649Y-87364260D01*
X99104645Y-87364259D01*
X98938160Y-87328872D01*
X98938155Y-87328871D01*
X98931703Y-87327500D01*
X98748297Y-87327500D01*
X98741845Y-87328871D01*
X98741839Y-87328872D01*
X98575354Y-87364259D01*
X98575347Y-87364261D01*
X98568898Y-87365632D01*
X98562868Y-87368316D01*
X98562867Y-87368317D01*
X98407377Y-87437546D01*
X98407375Y-87437547D01*
X98401347Y-87440231D01*
X98396006Y-87444111D01*
X98396005Y-87444112D01*
X98258307Y-87544155D01*
X98258301Y-87544160D01*
X98252968Y-87548035D01*
X98130245Y-87684332D01*
X98126944Y-87690048D01*
X98126942Y-87690052D01*
X98041845Y-87837445D01*
X98038541Y-87843168D01*
X98036502Y-87849442D01*
X98036498Y-87849452D01*
X97983904Y-88011320D01*
X97983902Y-88011327D01*
X97981865Y-88017598D01*
X97962694Y-88200000D01*
X97177306Y-88200000D01*
X97158135Y-88017598D01*
X97101459Y-87843168D01*
X97009755Y-87684332D01*
X96887032Y-87548035D01*
X96738653Y-87440231D01*
X96571102Y-87365632D01*
X96564649Y-87364260D01*
X96564645Y-87364259D01*
X96398160Y-87328872D01*
X96398155Y-87328871D01*
X96391703Y-87327500D01*
X96208297Y-87327500D01*
X96201845Y-87328871D01*
X96201839Y-87328872D01*
X96035354Y-87364259D01*
X96035347Y-87364261D01*
X96028898Y-87365632D01*
X96022868Y-87368316D01*
X96022867Y-87368317D01*
X95867377Y-87437546D01*
X95867375Y-87437547D01*
X95861347Y-87440231D01*
X95856006Y-87444111D01*
X95856005Y-87444112D01*
X95718307Y-87544155D01*
X95718301Y-87544160D01*
X95712968Y-87548035D01*
X95590245Y-87684332D01*
X95586944Y-87690048D01*
X95586942Y-87690052D01*
X95501845Y-87837445D01*
X95498541Y-87843168D01*
X95496502Y-87849442D01*
X95496498Y-87849452D01*
X95443904Y-88011320D01*
X95443902Y-88011327D01*
X95441865Y-88017598D01*
X95422694Y-88200000D01*
X94637306Y-88200000D01*
X94618135Y-88017598D01*
X94561459Y-87843168D01*
X94469755Y-87684332D01*
X94347032Y-87548035D01*
X94198653Y-87440231D01*
X94031102Y-87365632D01*
X94024649Y-87364260D01*
X94024645Y-87364259D01*
X93858160Y-87328872D01*
X93858155Y-87328871D01*
X93851703Y-87327500D01*
X93668297Y-87327500D01*
X93661845Y-87328871D01*
X93661839Y-87328872D01*
X93495354Y-87364259D01*
X93495347Y-87364261D01*
X93488898Y-87365632D01*
X93482868Y-87368316D01*
X93482867Y-87368317D01*
X93327377Y-87437546D01*
X93327375Y-87437547D01*
X93321347Y-87440231D01*
X93316006Y-87444111D01*
X93316005Y-87444112D01*
X93178307Y-87544155D01*
X93178301Y-87544160D01*
X93172968Y-87548035D01*
X93050245Y-87684332D01*
X93046944Y-87690048D01*
X93046942Y-87690052D01*
X92961845Y-87837445D01*
X92958541Y-87843168D01*
X92956502Y-87849442D01*
X92956498Y-87849452D01*
X92903904Y-88011320D01*
X92903902Y-88011327D01*
X92901865Y-88017598D01*
X92882694Y-88200000D01*
X83597636Y-88200000D01*
X83580534Y-88193435D01*
X83408857Y-88127534D01*
X83404788Y-88125891D01*
X83165127Y-88024161D01*
X82738735Y-87843168D01*
X82354430Y-87680040D01*
X82350412Y-87678251D01*
X81316274Y-87196024D01*
X81312321Y-87194096D01*
X80295631Y-86676067D01*
X80291748Y-86674002D01*
X79293776Y-86120816D01*
X79289967Y-86118617D01*
X78311890Y-85530930D01*
X78308161Y-85528600D01*
X78029346Y-85347535D01*
X77351184Y-84907132D01*
X77347561Y-84904688D01*
X77338389Y-84898266D01*
X77329587Y-84892103D01*
X103742750Y-84892103D01*
X103761295Y-85080394D01*
X103816217Y-85261449D01*
X103819136Y-85266910D01*
X103902486Y-85422847D01*
X103902490Y-85422853D01*
X103905407Y-85428310D01*
X104025435Y-85574565D01*
X104171690Y-85694593D01*
X104177148Y-85697510D01*
X104177152Y-85697513D01*
X104255120Y-85739188D01*
X104338551Y-85783783D01*
X104519606Y-85838705D01*
X104707897Y-85857250D01*
X104896188Y-85838705D01*
X105077243Y-85783783D01*
X105244104Y-85694593D01*
X105390359Y-85574565D01*
X105510387Y-85428310D01*
X105599577Y-85261449D01*
X105654499Y-85080394D01*
X105673044Y-84892103D01*
X105654499Y-84703812D01*
X105599577Y-84522757D01*
X105510387Y-84355896D01*
X105390359Y-84209641D01*
X105244104Y-84089613D01*
X105238647Y-84086696D01*
X105238641Y-84086692D01*
X105082704Y-84003342D01*
X105077243Y-84000423D01*
X105066621Y-83997201D01*
X104902110Y-83947297D01*
X104902106Y-83947296D01*
X104896188Y-83945501D01*
X104707897Y-83926956D01*
X104701734Y-83927563D01*
X104525768Y-83944894D01*
X104525767Y-83944894D01*
X104519606Y-83945501D01*
X104513689Y-83947295D01*
X104513683Y-83947297D01*
X104344474Y-83998626D01*
X104344471Y-83998627D01*
X104338551Y-84000423D01*
X104333093Y-84003340D01*
X104333089Y-84003342D01*
X104177152Y-84086692D01*
X104177141Y-84086699D01*
X104171690Y-84089613D01*
X104166904Y-84093540D01*
X104166899Y-84093544D01*
X104030219Y-84205714D01*
X104030214Y-84205718D01*
X104025435Y-84209641D01*
X104021512Y-84214420D01*
X104021508Y-84214425D01*
X103909338Y-84351105D01*
X103909334Y-84351110D01*
X103905407Y-84355896D01*
X103902493Y-84361347D01*
X103902486Y-84361358D01*
X103819136Y-84517295D01*
X103819134Y-84517299D01*
X103816217Y-84522757D01*
X103814421Y-84528677D01*
X103814420Y-84528680D01*
X103763091Y-84697889D01*
X103763089Y-84697895D01*
X103761295Y-84703812D01*
X103742750Y-84892103D01*
X77329587Y-84892103D01*
X76810567Y-84528680D01*
X76412865Y-84250205D01*
X76409307Y-84247620D01*
X75498009Y-83560909D01*
X75494544Y-83558201D01*
X74923836Y-83096051D01*
X105538802Y-83096051D01*
X105557347Y-83284342D01*
X105612269Y-83465397D01*
X105615188Y-83470858D01*
X105698538Y-83626795D01*
X105698542Y-83626801D01*
X105701459Y-83632258D01*
X105821487Y-83778513D01*
X105967742Y-83898541D01*
X105973200Y-83901458D01*
X105973204Y-83901461D01*
X106051172Y-83943136D01*
X106134603Y-83987731D01*
X106315658Y-84042653D01*
X106503949Y-84061198D01*
X106692240Y-84042653D01*
X106873295Y-83987731D01*
X107040156Y-83898541D01*
X107186411Y-83778513D01*
X107306439Y-83632258D01*
X107395629Y-83465397D01*
X107450551Y-83284342D01*
X107469096Y-83096051D01*
X107450551Y-82907760D01*
X107395629Y-82726705D01*
X107306439Y-82559844D01*
X107186411Y-82413589D01*
X107040156Y-82293561D01*
X107034699Y-82290644D01*
X107034693Y-82290640D01*
X106878756Y-82207290D01*
X106873295Y-82204371D01*
X106821832Y-82188760D01*
X106698162Y-82151245D01*
X106698158Y-82151244D01*
X106692240Y-82149449D01*
X106503949Y-82130904D01*
X106497786Y-82131511D01*
X106321820Y-82148842D01*
X106321819Y-82148842D01*
X106315658Y-82149449D01*
X106309741Y-82151243D01*
X106309735Y-82151245D01*
X106140526Y-82202574D01*
X106140523Y-82202575D01*
X106134603Y-82204371D01*
X106129145Y-82207288D01*
X106129141Y-82207290D01*
X105973204Y-82290640D01*
X105973193Y-82290647D01*
X105967742Y-82293561D01*
X105962956Y-82297488D01*
X105962951Y-82297492D01*
X105826271Y-82409662D01*
X105826266Y-82409666D01*
X105821487Y-82413589D01*
X105817564Y-82418368D01*
X105817560Y-82418373D01*
X105705390Y-82555053D01*
X105705386Y-82555058D01*
X105701459Y-82559844D01*
X105698545Y-82565295D01*
X105698538Y-82565306D01*
X105615188Y-82721243D01*
X105615186Y-82721247D01*
X105612269Y-82726705D01*
X105610473Y-82732625D01*
X105610472Y-82732628D01*
X105559143Y-82901837D01*
X105559141Y-82901843D01*
X105557347Y-82907760D01*
X105538802Y-83096051D01*
X74923836Y-83096051D01*
X74607772Y-82840107D01*
X74604451Y-82837320D01*
X73813145Y-82149449D01*
X73743291Y-82088726D01*
X73740022Y-82085784D01*
X72905468Y-81307549D01*
X72902305Y-81304493D01*
X72797812Y-81200000D01*
X83884250Y-81200000D01*
X83905141Y-81345304D01*
X83966123Y-81478836D01*
X84062256Y-81589778D01*
X84185750Y-81669143D01*
X84326601Y-81710500D01*
X84464390Y-81710500D01*
X84473399Y-81710500D01*
X84614250Y-81669143D01*
X84737744Y-81589778D01*
X84833877Y-81478836D01*
X84894859Y-81345304D01*
X84901373Y-81300000D01*
X107334853Y-81300000D01*
X107353398Y-81488291D01*
X107355193Y-81494209D01*
X107355194Y-81494213D01*
X107385661Y-81594649D01*
X107408320Y-81669346D01*
X107411239Y-81674807D01*
X107494589Y-81830744D01*
X107494593Y-81830750D01*
X107497510Y-81836207D01*
X107617538Y-81982462D01*
X107763793Y-82102490D01*
X107769251Y-82105407D01*
X107769255Y-82105410D01*
X107816951Y-82130904D01*
X107930654Y-82191680D01*
X108111709Y-82246602D01*
X108300000Y-82265147D01*
X108488291Y-82246602D01*
X108669346Y-82191680D01*
X108836207Y-82102490D01*
X108982462Y-81982462D01*
X109102490Y-81836207D01*
X109191680Y-81669346D01*
X109246602Y-81488291D01*
X109265147Y-81300000D01*
X109246602Y-81111709D01*
X109191680Y-80930654D01*
X109102490Y-80763793D01*
X108982462Y-80617538D01*
X108836207Y-80497510D01*
X108830750Y-80494593D01*
X108830744Y-80494589D01*
X108674807Y-80411239D01*
X108669346Y-80408320D01*
X108617883Y-80392709D01*
X108494213Y-80355194D01*
X108494209Y-80355193D01*
X108488291Y-80353398D01*
X108300000Y-80334853D01*
X108293837Y-80335460D01*
X108117871Y-80352791D01*
X108117870Y-80352791D01*
X108111709Y-80353398D01*
X108105792Y-80355192D01*
X108105786Y-80355194D01*
X107936577Y-80406523D01*
X107936574Y-80406524D01*
X107930654Y-80408320D01*
X107925196Y-80411237D01*
X107925192Y-80411239D01*
X107769255Y-80494589D01*
X107769244Y-80494596D01*
X107763793Y-80497510D01*
X107759007Y-80501437D01*
X107759002Y-80501441D01*
X107622322Y-80613611D01*
X107622317Y-80613615D01*
X107617538Y-80617538D01*
X107613615Y-80622317D01*
X107613611Y-80622322D01*
X107501441Y-80759002D01*
X107501437Y-80759007D01*
X107497510Y-80763793D01*
X107494596Y-80769244D01*
X107494589Y-80769255D01*
X107411239Y-80925192D01*
X107411237Y-80925196D01*
X107408320Y-80930654D01*
X107406524Y-80936574D01*
X107406523Y-80936577D01*
X107355194Y-81105786D01*
X107355192Y-81105792D01*
X107353398Y-81111709D01*
X107334853Y-81300000D01*
X84901373Y-81300000D01*
X84915750Y-81200000D01*
X84894859Y-81054696D01*
X84833877Y-80921164D01*
X84737744Y-80810222D01*
X84614250Y-80730857D01*
X84605606Y-80728318D01*
X84605604Y-80728318D01*
X84482043Y-80692038D01*
X84482042Y-80692037D01*
X84473399Y-80689500D01*
X84326601Y-80689500D01*
X84317958Y-80692037D01*
X84317956Y-80692038D01*
X84194395Y-80728318D01*
X84194391Y-80728319D01*
X84185750Y-80730857D01*
X84178172Y-80735727D01*
X84178170Y-80735728D01*
X84069836Y-80805350D01*
X84069833Y-80805352D01*
X84062256Y-80810222D01*
X84056358Y-80817028D01*
X84056354Y-80817032D01*
X83972025Y-80914352D01*
X83972022Y-80914355D01*
X83966123Y-80921164D01*
X83962380Y-80929358D01*
X83962379Y-80929361D01*
X83908883Y-81046501D01*
X83908882Y-81046504D01*
X83905141Y-81054696D01*
X83903859Y-81063611D01*
X83903859Y-81063612D01*
X83896944Y-81111709D01*
X83884250Y-81200000D01*
X72797812Y-81200000D01*
X72095506Y-80497694D01*
X72092450Y-80494531D01*
X71314215Y-79659977D01*
X71311273Y-79656708D01*
X71178481Y-79503949D01*
X109130904Y-79503949D01*
X109149449Y-79692240D01*
X109204371Y-79873295D01*
X109207290Y-79878756D01*
X109290640Y-80034693D01*
X109290644Y-80034699D01*
X109293561Y-80040156D01*
X109413589Y-80186411D01*
X109559844Y-80306439D01*
X109565302Y-80309356D01*
X109565306Y-80309359D01*
X109613002Y-80334853D01*
X109726705Y-80395629D01*
X109907760Y-80450551D01*
X110096051Y-80469096D01*
X110284342Y-80450551D01*
X110465397Y-80395629D01*
X110632258Y-80306439D01*
X110778513Y-80186411D01*
X110898541Y-80040156D01*
X110987731Y-79873295D01*
X111042653Y-79692240D01*
X111061198Y-79503949D01*
X111042653Y-79315658D01*
X110987731Y-79134603D01*
X110898541Y-78967742D01*
X110778513Y-78821487D01*
X110744911Y-78793911D01*
X110637048Y-78705390D01*
X110637047Y-78705389D01*
X110632258Y-78701459D01*
X110626801Y-78698542D01*
X110626795Y-78698538D01*
X110470858Y-78615188D01*
X110465397Y-78612269D01*
X110413934Y-78596658D01*
X110290264Y-78559143D01*
X110290260Y-78559142D01*
X110284342Y-78557347D01*
X110096051Y-78538802D01*
X110089888Y-78539409D01*
X109913922Y-78556740D01*
X109913921Y-78556740D01*
X109907760Y-78557347D01*
X109901843Y-78559141D01*
X109901837Y-78559143D01*
X109732628Y-78610472D01*
X109732625Y-78610473D01*
X109726705Y-78612269D01*
X109721247Y-78615186D01*
X109721243Y-78615188D01*
X109565306Y-78698538D01*
X109565295Y-78698545D01*
X109559844Y-78701459D01*
X109555058Y-78705386D01*
X109555053Y-78705390D01*
X109418373Y-78817560D01*
X109418368Y-78817564D01*
X109413589Y-78821487D01*
X109409666Y-78826266D01*
X109409662Y-78826271D01*
X109297492Y-78962951D01*
X109297488Y-78962956D01*
X109293561Y-78967742D01*
X109290647Y-78973193D01*
X109290640Y-78973204D01*
X109207290Y-79129141D01*
X109207288Y-79129145D01*
X109204371Y-79134603D01*
X109202575Y-79140523D01*
X109202574Y-79140526D01*
X109151245Y-79309735D01*
X109151243Y-79309741D01*
X109149449Y-79315658D01*
X109130904Y-79503949D01*
X71178481Y-79503949D01*
X71173124Y-79497786D01*
X70562674Y-78795542D01*
X70559897Y-78792233D01*
X69841790Y-77905445D01*
X69839090Y-77901990D01*
X69830074Y-77890026D01*
X69692831Y-77707898D01*
X110926955Y-77707898D01*
X110945500Y-77896189D01*
X110947295Y-77902107D01*
X110947296Y-77902111D01*
X110948908Y-77907425D01*
X111000422Y-78077244D01*
X111003341Y-78082705D01*
X111086691Y-78238642D01*
X111086695Y-78238648D01*
X111089612Y-78244105D01*
X111209640Y-78390360D01*
X111355895Y-78510388D01*
X111361353Y-78513305D01*
X111361357Y-78513308D01*
X111409053Y-78538802D01*
X111522756Y-78599578D01*
X111703811Y-78654500D01*
X111892102Y-78673045D01*
X112080393Y-78654500D01*
X112261448Y-78599578D01*
X112428309Y-78510388D01*
X112574564Y-78390360D01*
X112694592Y-78244105D01*
X112783782Y-78077244D01*
X112838704Y-77896189D01*
X112857249Y-77707898D01*
X112838704Y-77519607D01*
X112783782Y-77338552D01*
X112694592Y-77171691D01*
X112574564Y-77025436D01*
X112428309Y-76905408D01*
X112422852Y-76902491D01*
X112422846Y-76902487D01*
X112266909Y-76819137D01*
X112261448Y-76816218D01*
X112250826Y-76812996D01*
X112086315Y-76763092D01*
X112086311Y-76763091D01*
X112080393Y-76761296D01*
X111892102Y-76742751D01*
X111885939Y-76743358D01*
X111709973Y-76760689D01*
X111709972Y-76760689D01*
X111703811Y-76761296D01*
X111697894Y-76763090D01*
X111697888Y-76763092D01*
X111528679Y-76814421D01*
X111528676Y-76814422D01*
X111522756Y-76816218D01*
X111517298Y-76819135D01*
X111517294Y-76819137D01*
X111361357Y-76902487D01*
X111361346Y-76902494D01*
X111355895Y-76905408D01*
X111351109Y-76909335D01*
X111351104Y-76909339D01*
X111214424Y-77021509D01*
X111214419Y-77021513D01*
X111209640Y-77025436D01*
X111205717Y-77030215D01*
X111205713Y-77030220D01*
X111093543Y-77166900D01*
X111093539Y-77166905D01*
X111089612Y-77171691D01*
X111086698Y-77177142D01*
X111086691Y-77177153D01*
X111003341Y-77333090D01*
X111003339Y-77333094D01*
X111000422Y-77338552D01*
X110998626Y-77344472D01*
X110998625Y-77344475D01*
X110947296Y-77513684D01*
X110947294Y-77513690D01*
X110945500Y-77519607D01*
X110926955Y-77707898D01*
X69692831Y-77707898D01*
X69175601Y-77021509D01*
X69152379Y-76990692D01*
X69149794Y-76987134D01*
X68853267Y-76563651D01*
X68495295Y-76052415D01*
X68492876Y-76048828D01*
X68403919Y-75911846D01*
X112723007Y-75911846D01*
X112741552Y-76100137D01*
X112796474Y-76281192D01*
X112799393Y-76286653D01*
X112882743Y-76442590D01*
X112882747Y-76442596D01*
X112885664Y-76448053D01*
X113005692Y-76594308D01*
X113151947Y-76714336D01*
X113157405Y-76717253D01*
X113157409Y-76717256D01*
X113235377Y-76758931D01*
X113318808Y-76803526D01*
X113499863Y-76858448D01*
X113688154Y-76876993D01*
X113876445Y-76858448D01*
X114057500Y-76803526D01*
X114224361Y-76714336D01*
X114370616Y-76594308D01*
X114490644Y-76448053D01*
X114579834Y-76281192D01*
X114634756Y-76100137D01*
X114653301Y-75911846D01*
X114634756Y-75723555D01*
X114579834Y-75542500D01*
X114490644Y-75375639D01*
X114370616Y-75229384D01*
X114224361Y-75109356D01*
X114218904Y-75106439D01*
X114218898Y-75106435D01*
X114062961Y-75023085D01*
X114057500Y-75020166D01*
X114046878Y-75016944D01*
X113882367Y-74967040D01*
X113882363Y-74967039D01*
X113876445Y-74965244D01*
X113688154Y-74946699D01*
X113681991Y-74947306D01*
X113506025Y-74964637D01*
X113506024Y-74964637D01*
X113499863Y-74965244D01*
X113493946Y-74967038D01*
X113493940Y-74967040D01*
X113324731Y-75018369D01*
X113324728Y-75018370D01*
X113318808Y-75020166D01*
X113313350Y-75023083D01*
X113313346Y-75023085D01*
X113157409Y-75106435D01*
X113157398Y-75106442D01*
X113151947Y-75109356D01*
X113147161Y-75113283D01*
X113147156Y-75113287D01*
X113010476Y-75225457D01*
X113010471Y-75225461D01*
X113005692Y-75229384D01*
X113001769Y-75234163D01*
X113001765Y-75234168D01*
X112889595Y-75370848D01*
X112889591Y-75370853D01*
X112885664Y-75375639D01*
X112882750Y-75381090D01*
X112882743Y-75381101D01*
X112799393Y-75537038D01*
X112799391Y-75537042D01*
X112796474Y-75542500D01*
X112794678Y-75548420D01*
X112794677Y-75548423D01*
X112743348Y-75717632D01*
X112743346Y-75717638D01*
X112741552Y-75723555D01*
X112723007Y-75911846D01*
X68403919Y-75911846D01*
X67871396Y-75091833D01*
X67869069Y-75088109D01*
X67281382Y-74110032D01*
X67279183Y-74106223D01*
X67012943Y-73625914D01*
X66725988Y-73108234D01*
X66723932Y-73104368D01*
X66324146Y-72319744D01*
X115965510Y-72319744D01*
X115974086Y-72362859D01*
X115992343Y-72390183D01*
X117209817Y-73607657D01*
X117237141Y-73625914D01*
X117280256Y-73634490D01*
X117323371Y-73625914D01*
X117350695Y-73607657D01*
X118568169Y-72390183D01*
X118586426Y-72362859D01*
X118595002Y-72319744D01*
X118586426Y-72276629D01*
X118568169Y-72249305D01*
X117350695Y-71031831D01*
X117323371Y-71013574D01*
X117311202Y-71011153D01*
X117311201Y-71011153D01*
X117292427Y-71007419D01*
X117280256Y-71004998D01*
X117268085Y-71007419D01*
X117249310Y-71011153D01*
X117249307Y-71011153D01*
X117237141Y-71013574D01*
X117226825Y-71020466D01*
X117226824Y-71020467D01*
X117214962Y-71028393D01*
X117209817Y-71031831D01*
X117205443Y-71036204D01*
X117205438Y-71036209D01*
X115996721Y-72244926D01*
X115996716Y-72244931D01*
X115992343Y-72249305D01*
X115974086Y-72276629D01*
X115965510Y-72319744D01*
X66324146Y-72319744D01*
X66205899Y-72087670D01*
X66203975Y-72083725D01*
X65745256Y-71100000D01*
X80884250Y-71100000D01*
X80905141Y-71245304D01*
X80966123Y-71378836D01*
X81062256Y-71489778D01*
X81185750Y-71569143D01*
X81326601Y-71610500D01*
X81464390Y-71610500D01*
X81473399Y-71610500D01*
X81614250Y-71569143D01*
X81737744Y-71489778D01*
X81833877Y-71378836D01*
X81894859Y-71245304D01*
X81915750Y-71100000D01*
X81894859Y-70954696D01*
X81833877Y-70821164D01*
X81737744Y-70710222D01*
X81614250Y-70630857D01*
X81605606Y-70628318D01*
X81605604Y-70628318D01*
X81482043Y-70592038D01*
X81482042Y-70592037D01*
X81473399Y-70589500D01*
X81326601Y-70589500D01*
X81317958Y-70592037D01*
X81317956Y-70592038D01*
X81194395Y-70628318D01*
X81194391Y-70628319D01*
X81185750Y-70630857D01*
X81178172Y-70635727D01*
X81178170Y-70635728D01*
X81069836Y-70705350D01*
X81069833Y-70705352D01*
X81062256Y-70710222D01*
X81056358Y-70717028D01*
X81056354Y-70717032D01*
X80972025Y-70814352D01*
X80972022Y-70814355D01*
X80966123Y-70821164D01*
X80962380Y-70829358D01*
X80962379Y-70829361D01*
X80908883Y-70946501D01*
X80908882Y-70946504D01*
X80905141Y-70954696D01*
X80903859Y-70963611D01*
X80903859Y-70963612D01*
X80892076Y-71045569D01*
X80884250Y-71100000D01*
X65745256Y-71100000D01*
X65721741Y-71049573D01*
X65719959Y-71045569D01*
X65714128Y-71031831D01*
X65274092Y-69995173D01*
X65272476Y-69991172D01*
X65211440Y-69832167D01*
X121099500Y-69832167D01*
X121101073Y-69839059D01*
X121101074Y-69839067D01*
X121130042Y-69965985D01*
X121130043Y-69965987D01*
X121131617Y-69972882D01*
X121134684Y-69979251D01*
X121134686Y-69979256D01*
X121191168Y-70096543D01*
X121191170Y-70096546D01*
X121194241Y-70102923D01*
X121198651Y-70108453D01*
X121198653Y-70108456D01*
X121238739Y-70158722D01*
X121284232Y-70215768D01*
X121397077Y-70305759D01*
X121403455Y-70308830D01*
X121403456Y-70308831D01*
X121460285Y-70336198D01*
X121527118Y-70368383D01*
X121534013Y-70369956D01*
X121534014Y-70369957D01*
X121593284Y-70383485D01*
X121667833Y-70400500D01*
X121674911Y-70400500D01*
X123000000Y-70400500D01*
X123072170Y-70400509D01*
X123212895Y-70368407D01*
X123342945Y-70305788D01*
X123455796Y-70215796D01*
X123545788Y-70102945D01*
X123608407Y-69972895D01*
X123640509Y-69832170D01*
X123640500Y-69760000D01*
X123640500Y-69759500D01*
X123640500Y-57699901D01*
X123640500Y-45639901D01*
X123640500Y-45567833D01*
X123608383Y-45427118D01*
X123545759Y-45297077D01*
X123455768Y-45184232D01*
X123450242Y-45179825D01*
X123348456Y-45098653D01*
X123348453Y-45098651D01*
X123342923Y-45094241D01*
X123336546Y-45091170D01*
X123336543Y-45091168D01*
X123219256Y-45034686D01*
X123219251Y-45034684D01*
X123212882Y-45031617D01*
X123205991Y-45030044D01*
X123205985Y-45030042D01*
X123079067Y-45001074D01*
X123079059Y-45001073D01*
X123072167Y-44999500D01*
X123000099Y-44999500D01*
X121739901Y-44999500D01*
X121739900Y-44999500D01*
X121674909Y-44999509D01*
X121674908Y-44999509D01*
X121667836Y-44999510D01*
X121660945Y-45001083D01*
X121660941Y-45001084D01*
X121534021Y-45030068D01*
X121534018Y-45030069D01*
X121527130Y-45031642D01*
X121520766Y-45034707D01*
X121520758Y-45034710D01*
X121403474Y-45091201D01*
X121403467Y-45091204D01*
X121397100Y-45094272D01*
X121391574Y-45098678D01*
X121391569Y-45098682D01*
X121289786Y-45179854D01*
X121289781Y-45179858D01*
X121284261Y-45184261D01*
X121279858Y-45189781D01*
X121279854Y-45189786D01*
X121198682Y-45291569D01*
X121198678Y-45291574D01*
X121194272Y-45297100D01*
X121191204Y-45303467D01*
X121191201Y-45303474D01*
X121134710Y-45420758D01*
X121134707Y-45420766D01*
X121131642Y-45427130D01*
X121130070Y-45434014D01*
X121130068Y-45434021D01*
X121101084Y-45560941D01*
X121101083Y-45560945D01*
X121099510Y-45567836D01*
X121099500Y-45639900D01*
X121099500Y-45639901D01*
X121099500Y-57699901D01*
X121099500Y-69759500D01*
X121099500Y-69760000D01*
X121099500Y-69832167D01*
X65211440Y-69832167D01*
X64863544Y-68925867D01*
X64862049Y-68921758D01*
X64858173Y-68910500D01*
X64643234Y-68286270D01*
X69364500Y-68286270D01*
X69366321Y-68293661D01*
X69366322Y-68293663D01*
X69403967Y-68446395D01*
X69403968Y-68446399D01*
X69405792Y-68453797D01*
X69485976Y-68606574D01*
X69600391Y-68735723D01*
X69742389Y-68833737D01*
X69903717Y-68894921D01*
X70032025Y-68910500D01*
X70664165Y-68910500D01*
X70667975Y-68910500D01*
X70796283Y-68894921D01*
X70957611Y-68833737D01*
X71099609Y-68735723D01*
X71214024Y-68606574D01*
X71294208Y-68453797D01*
X71335500Y-68286270D01*
X71335500Y-68113730D01*
X71294208Y-67946203D01*
X71214024Y-67793426D01*
X71099609Y-67664277D01*
X71093336Y-67659947D01*
X71093335Y-67659946D01*
X70963886Y-67570594D01*
X70963884Y-67570593D01*
X70957611Y-67566263D01*
X70950483Y-67563559D01*
X70950480Y-67563558D01*
X70803409Y-67507781D01*
X70803404Y-67507779D01*
X70796283Y-67505079D01*
X70784999Y-67503709D01*
X70671760Y-67489959D01*
X70671750Y-67489958D01*
X70667975Y-67489500D01*
X70032025Y-67489500D01*
X70028250Y-67489958D01*
X70028239Y-67489959D01*
X69911285Y-67504160D01*
X69911284Y-67504160D01*
X69903717Y-67505079D01*
X69896597Y-67507779D01*
X69896590Y-67507781D01*
X69749519Y-67563558D01*
X69749512Y-67563561D01*
X69742389Y-67566263D01*
X69736119Y-67570590D01*
X69736113Y-67570594D01*
X69606664Y-67659946D01*
X69606658Y-67659950D01*
X69600391Y-67664277D01*
X69595339Y-67669978D01*
X69595336Y-67669982D01*
X69491032Y-67787718D01*
X69491029Y-67787722D01*
X69485976Y-67793426D01*
X69482434Y-67800174D01*
X69482431Y-67800179D01*
X69409336Y-67939449D01*
X69409333Y-67939454D01*
X69405792Y-67946203D01*
X69403969Y-67953597D01*
X69403967Y-67953604D01*
X69366322Y-68106336D01*
X69364500Y-68113730D01*
X69364500Y-68286270D01*
X64643234Y-68286270D01*
X64490544Y-67842827D01*
X64489213Y-67838730D01*
X64155593Y-66747510D01*
X64154383Y-66743290D01*
X64152533Y-66736387D01*
X64115988Y-66600000D01*
X101884250Y-66600000D01*
X101905141Y-66745304D01*
X101966123Y-66878836D01*
X102062256Y-66989778D01*
X102185750Y-67069143D01*
X102326601Y-67110500D01*
X102464390Y-67110500D01*
X102473399Y-67110500D01*
X102614250Y-67069143D01*
X102737744Y-66989778D01*
X102833877Y-66878836D01*
X102894859Y-66745304D01*
X102915750Y-66600000D01*
X102894859Y-66454696D01*
X102833877Y-66321164D01*
X102737744Y-66210222D01*
X102614250Y-66130857D01*
X102605606Y-66128318D01*
X102605604Y-66128318D01*
X102482043Y-66092038D01*
X102482042Y-66092037D01*
X102473399Y-66089500D01*
X102326601Y-66089500D01*
X102317958Y-66092037D01*
X102317956Y-66092038D01*
X102194395Y-66128318D01*
X102194391Y-66128319D01*
X102185750Y-66130857D01*
X102178172Y-66135727D01*
X102178170Y-66135728D01*
X102069836Y-66205350D01*
X102069833Y-66205352D01*
X102062256Y-66210222D01*
X102056358Y-66217028D01*
X102056354Y-66217032D01*
X101972025Y-66314352D01*
X101972022Y-66314355D01*
X101966123Y-66321164D01*
X101962380Y-66329358D01*
X101962379Y-66329361D01*
X101908883Y-66446501D01*
X101908882Y-66446504D01*
X101905141Y-66454696D01*
X101884250Y-66600000D01*
X64115988Y-66600000D01*
X63859054Y-65641109D01*
X63857990Y-65636842D01*
X63601307Y-64525023D01*
X63600393Y-64520721D01*
X63599632Y-64516808D01*
X63382671Y-63400645D01*
X63381910Y-63396327D01*
X63373829Y-63345304D01*
X63350815Y-63200000D01*
X82084250Y-63200000D01*
X82105141Y-63345304D01*
X82166123Y-63478836D01*
X82262256Y-63589778D01*
X82385750Y-63669143D01*
X82526601Y-63710500D01*
X82664390Y-63710500D01*
X82673399Y-63710500D01*
X82814250Y-63669143D01*
X82937744Y-63589778D01*
X83033877Y-63478836D01*
X83094859Y-63345304D01*
X83115750Y-63200000D01*
X83094859Y-63054696D01*
X83033877Y-62921164D01*
X82937744Y-62810222D01*
X82814250Y-62730857D01*
X82805606Y-62728318D01*
X82805604Y-62728318D01*
X82682043Y-62692038D01*
X82682042Y-62692037D01*
X82673399Y-62689500D01*
X82526601Y-62689500D01*
X82517958Y-62692037D01*
X82517956Y-62692038D01*
X82394395Y-62728318D01*
X82394391Y-62728319D01*
X82385750Y-62730857D01*
X82378172Y-62735727D01*
X82378170Y-62735728D01*
X82269836Y-62805350D01*
X82269833Y-62805352D01*
X82262256Y-62810222D01*
X82256358Y-62817028D01*
X82256354Y-62817032D01*
X82172025Y-62914352D01*
X82172022Y-62914355D01*
X82166123Y-62921164D01*
X82162380Y-62929358D01*
X82162379Y-62929361D01*
X82108883Y-63046501D01*
X82108882Y-63046504D01*
X82105141Y-63054696D01*
X82084250Y-63200000D01*
X63350815Y-63200000D01*
X63203403Y-62269277D01*
X63202802Y-62265001D01*
X63180254Y-62081362D01*
X65535862Y-62081362D01*
X65536359Y-62089266D01*
X65536359Y-62089272D01*
X65538366Y-62121164D01*
X65545548Y-62235305D01*
X65593213Y-62382004D01*
X65597460Y-62388697D01*
X65597462Y-62388700D01*
X65671613Y-62505544D01*
X65671615Y-62505547D01*
X65675863Y-62512240D01*
X65681641Y-62517666D01*
X65681642Y-62517667D01*
X65740812Y-62573231D01*
X65788305Y-62617830D01*
X65923474Y-62692140D01*
X66072876Y-62730500D01*
X66784445Y-62730500D01*
X66788408Y-62730500D01*
X66903032Y-62716020D01*
X67046448Y-62659237D01*
X67171237Y-62568572D01*
X67269559Y-62449722D01*
X67335235Y-62310154D01*
X67364138Y-62158638D01*
X67359276Y-62081362D01*
X69465862Y-62081362D01*
X69466359Y-62089266D01*
X69466359Y-62089272D01*
X69468366Y-62121164D01*
X69475548Y-62235305D01*
X69523213Y-62382004D01*
X69527460Y-62388697D01*
X69527462Y-62388700D01*
X69601613Y-62505544D01*
X69601615Y-62505547D01*
X69605863Y-62512240D01*
X69611641Y-62517666D01*
X69611642Y-62517667D01*
X69670812Y-62573231D01*
X69718305Y-62617830D01*
X69853474Y-62692140D01*
X70002876Y-62730500D01*
X71214445Y-62730500D01*
X71218408Y-62730500D01*
X71333032Y-62716020D01*
X71476448Y-62659237D01*
X71601237Y-62568572D01*
X71699559Y-62449722D01*
X71722956Y-62400000D01*
X90984250Y-62400000D01*
X91005141Y-62545304D01*
X91008882Y-62553497D01*
X91008883Y-62553498D01*
X91058504Y-62662154D01*
X91066123Y-62678836D01*
X91162256Y-62789778D01*
X91285750Y-62869143D01*
X91426601Y-62910500D01*
X91564390Y-62910500D01*
X91573399Y-62910500D01*
X91714250Y-62869143D01*
X91837744Y-62789778D01*
X91933877Y-62678836D01*
X91994859Y-62545304D01*
X92015750Y-62400000D01*
X91994859Y-62254696D01*
X91933877Y-62121164D01*
X91837744Y-62010222D01*
X91714250Y-61930857D01*
X91705606Y-61928318D01*
X91705604Y-61928318D01*
X91582043Y-61892038D01*
X91582042Y-61892037D01*
X91573399Y-61889500D01*
X91426601Y-61889500D01*
X91417958Y-61892037D01*
X91417956Y-61892038D01*
X91294395Y-61928318D01*
X91294391Y-61928319D01*
X91285750Y-61930857D01*
X91278172Y-61935727D01*
X91278170Y-61935728D01*
X91169836Y-62005350D01*
X91169833Y-62005352D01*
X91162256Y-62010222D01*
X91156358Y-62017028D01*
X91156354Y-62017032D01*
X91072025Y-62114352D01*
X91072022Y-62114355D01*
X91066123Y-62121164D01*
X91062380Y-62129358D01*
X91062379Y-62129361D01*
X91008883Y-62246501D01*
X91008882Y-62246504D01*
X91005141Y-62254696D01*
X91003859Y-62263611D01*
X91003859Y-62263612D01*
X90996136Y-62317327D01*
X90984250Y-62400000D01*
X71722956Y-62400000D01*
X71765235Y-62310154D01*
X71794138Y-62158638D01*
X71784452Y-62004695D01*
X71736787Y-61857996D01*
X71732537Y-61851299D01*
X71658386Y-61734455D01*
X71658384Y-61734453D01*
X71654137Y-61727760D01*
X71594149Y-61671428D01*
X71547471Y-61627594D01*
X71547470Y-61627593D01*
X71541695Y-61622170D01*
X71466376Y-61580763D01*
X71413472Y-61551678D01*
X71413468Y-61551676D01*
X71406526Y-61547860D01*
X71398851Y-61545889D01*
X71398845Y-61545887D01*
X71264803Y-61511471D01*
X71264798Y-61511470D01*
X71257124Y-61509500D01*
X70206744Y-61509500D01*
X70146139Y-61493968D01*
X70110518Y-61460604D01*
X70084861Y-61489631D01*
X70028834Y-61511110D01*
X69934834Y-61522985D01*
X69934823Y-61522987D01*
X69926968Y-61523980D01*
X69919606Y-61526894D01*
X69919601Y-61526896D01*
X69790920Y-61577845D01*
X69790914Y-61577847D01*
X69783552Y-61580763D01*
X69777140Y-61585420D01*
X69777139Y-61585422D01*
X69665176Y-61666768D01*
X69665172Y-61666770D01*
X69658763Y-61671428D01*
X69653713Y-61677531D01*
X69653709Y-61677536D01*
X69565493Y-61784170D01*
X69565489Y-61784175D01*
X69560441Y-61790278D01*
X69557069Y-61797443D01*
X69557065Y-61797450D01*
X69498140Y-61922672D01*
X69498138Y-61922677D01*
X69494765Y-61929846D01*
X69493280Y-61937628D01*
X69493279Y-61937633D01*
X69467347Y-62073576D01*
X69465862Y-62081362D01*
X67359276Y-62081362D01*
X67354452Y-62004695D01*
X67306787Y-61857996D01*
X67302537Y-61851299D01*
X67228386Y-61734455D01*
X67228384Y-61734453D01*
X67224137Y-61727760D01*
X67164149Y-61671428D01*
X67117471Y-61627594D01*
X67117470Y-61627593D01*
X67111695Y-61622170D01*
X67036376Y-61580763D01*
X66983472Y-61551678D01*
X66983468Y-61551676D01*
X66976526Y-61547860D01*
X66968851Y-61545889D01*
X66968845Y-61545887D01*
X66834803Y-61511471D01*
X66834798Y-61511470D01*
X66827124Y-61509500D01*
X66111592Y-61509500D01*
X66107667Y-61509995D01*
X66107664Y-61509996D01*
X66004827Y-61522987D01*
X66004825Y-61522987D01*
X65996968Y-61523980D01*
X65989606Y-61526894D01*
X65989601Y-61526896D01*
X65860920Y-61577845D01*
X65860914Y-61577847D01*
X65853552Y-61580763D01*
X65847140Y-61585420D01*
X65847139Y-61585422D01*
X65735176Y-61666768D01*
X65735172Y-61666770D01*
X65728763Y-61671428D01*
X65723713Y-61677531D01*
X65723709Y-61677536D01*
X65635493Y-61784170D01*
X65635489Y-61784175D01*
X65630441Y-61790278D01*
X65627069Y-61797443D01*
X65627065Y-61797450D01*
X65568140Y-61922672D01*
X65568138Y-61922677D01*
X65564765Y-61929846D01*
X65563280Y-61937628D01*
X65563279Y-61937633D01*
X65537347Y-62073576D01*
X65535862Y-62081362D01*
X63180254Y-62081362D01*
X63063733Y-61132376D01*
X63063284Y-61128105D01*
X63024955Y-60690000D01*
X69519534Y-60690000D01*
X69520612Y-60698188D01*
X69538234Y-60832047D01*
X69538235Y-60832053D01*
X69539313Y-60840236D01*
X69542472Y-60847864D01*
X69542473Y-60847865D01*
X69594141Y-60972603D01*
X69594142Y-60972606D01*
X69597302Y-60980233D01*
X69689549Y-61100451D01*
X69809767Y-61192698D01*
X69949764Y-61250687D01*
X70029488Y-61261182D01*
X70085401Y-61282953D01*
X70109114Y-61310064D01*
X70132239Y-61281888D01*
X70190298Y-61258578D01*
X70198542Y-61257492D01*
X70250236Y-61250687D01*
X70390233Y-61192698D01*
X70510451Y-61100451D01*
X70602698Y-60980233D01*
X70660687Y-60840236D01*
X70680466Y-60690000D01*
X70660687Y-60539764D01*
X70602698Y-60399767D01*
X70510451Y-60279549D01*
X70390233Y-60187302D01*
X70382606Y-60184142D01*
X70382603Y-60184141D01*
X70257865Y-60132473D01*
X70257864Y-60132472D01*
X70250236Y-60129313D01*
X70242053Y-60128235D01*
X70242047Y-60128234D01*
X70141807Y-60115038D01*
X70141806Y-60115037D01*
X70137720Y-60114500D01*
X70062280Y-60114500D01*
X70058194Y-60115037D01*
X70058192Y-60115038D01*
X69957952Y-60128234D01*
X69957944Y-60128236D01*
X69949764Y-60129313D01*
X69942137Y-60132472D01*
X69942134Y-60132473D01*
X69817396Y-60184141D01*
X69817390Y-60184144D01*
X69809767Y-60187302D01*
X69803218Y-60192326D01*
X69803213Y-60192330D01*
X69696099Y-60274522D01*
X69696094Y-60274526D01*
X69689549Y-60279549D01*
X69684526Y-60286094D01*
X69684522Y-60286099D01*
X69602330Y-60393213D01*
X69602326Y-60393218D01*
X69597302Y-60399767D01*
X69594144Y-60407390D01*
X69594141Y-60407396D01*
X69542473Y-60532134D01*
X69539313Y-60539764D01*
X69538236Y-60547944D01*
X69538234Y-60547952D01*
X69521052Y-60678463D01*
X69519534Y-60690000D01*
X63024955Y-60690000D01*
X62963825Y-59991282D01*
X62963524Y-59986962D01*
X62903804Y-58847432D01*
X62903653Y-58843137D01*
X62883738Y-57702177D01*
X62883738Y-57697801D01*
X62883835Y-57692244D01*
X62886163Y-57558850D01*
X69244508Y-57558850D01*
X69246059Y-57568643D01*
X69246059Y-57568646D01*
X69264354Y-57684154D01*
X69268852Y-57692983D01*
X69268854Y-57692987D01*
X69292225Y-57738854D01*
X69321950Y-57797192D01*
X69411658Y-57886900D01*
X69524696Y-57944496D01*
X69551264Y-57948703D01*
X69553802Y-57949106D01*
X69614405Y-57976469D01*
X69652641Y-58030871D01*
X69657860Y-58097160D01*
X69628609Y-58156875D01*
X69586391Y-58184611D01*
X69587617Y-58187017D01*
X69483411Y-58240112D01*
X69483407Y-58240114D01*
X69474579Y-58244613D01*
X69467570Y-58251621D01*
X69467567Y-58251624D01*
X69391882Y-58327309D01*
X69391879Y-58327312D01*
X69384871Y-58334321D01*
X69380372Y-58343149D01*
X69380370Y-58343153D01*
X69331775Y-58438525D01*
X69331772Y-58438531D01*
X69327275Y-58447359D01*
X69325724Y-58457148D01*
X69325724Y-58457150D01*
X69317085Y-58511696D01*
X69307429Y-58572663D01*
X69327275Y-58697967D01*
X69331773Y-58706796D01*
X69331775Y-58706800D01*
X69380370Y-58802172D01*
X69384871Y-58811005D01*
X69474579Y-58900713D01*
X69587617Y-58958309D01*
X69712921Y-58978155D01*
X69838225Y-58958309D01*
X69951263Y-58900713D01*
X70040971Y-58811005D01*
X70098567Y-58697967D01*
X70108583Y-58634730D01*
X70131096Y-58580380D01*
X70175829Y-58542174D01*
X70233032Y-58528441D01*
X70240207Y-58528441D01*
X70250000Y-58529992D01*
X70375304Y-58510146D01*
X70488342Y-58452550D01*
X70578050Y-58362842D01*
X70635646Y-58249804D01*
X70655492Y-58124500D01*
X70635646Y-57999196D01*
X70578050Y-57886158D01*
X70488342Y-57796450D01*
X70479510Y-57791950D01*
X70479509Y-57791949D01*
X70384137Y-57743354D01*
X70384133Y-57743352D01*
X70375304Y-57738854D01*
X70365512Y-57737303D01*
X70259793Y-57720559D01*
X70250000Y-57719008D01*
X70240207Y-57720559D01*
X70240206Y-57720559D01*
X70195756Y-57727599D01*
X70137109Y-57722983D01*
X70086949Y-57692244D01*
X70056212Y-57642084D01*
X70051598Y-57583437D01*
X70053941Y-57568646D01*
X70053941Y-57568643D01*
X70055492Y-57558850D01*
X70035646Y-57433546D01*
X69978050Y-57320508D01*
X69953223Y-57295681D01*
X69920611Y-57239197D01*
X69920611Y-57190955D01*
X104393295Y-57190955D01*
X104414186Y-57336259D01*
X104475168Y-57469791D01*
X104571301Y-57580733D01*
X104694795Y-57660098D01*
X104835646Y-57701455D01*
X104973435Y-57701455D01*
X104982444Y-57701455D01*
X105123295Y-57660098D01*
X105246789Y-57580733D01*
X105342922Y-57469791D01*
X105403904Y-57336259D01*
X105424795Y-57190955D01*
X105403904Y-57045651D01*
X105342922Y-56912119D01*
X105246789Y-56801177D01*
X105244958Y-56800000D01*
X108684250Y-56800000D01*
X108705141Y-56945304D01*
X108766123Y-57078836D01*
X108772025Y-57085647D01*
X108848561Y-57173974D01*
X108862256Y-57189778D01*
X108985750Y-57269143D01*
X109126601Y-57310500D01*
X109264390Y-57310500D01*
X109273399Y-57310500D01*
X109414250Y-57269143D01*
X109537744Y-57189778D01*
X109633877Y-57078836D01*
X109694859Y-56945304D01*
X109715750Y-56800000D01*
X109694859Y-56654696D01*
X109633877Y-56521164D01*
X109537744Y-56410222D01*
X109414250Y-56330857D01*
X109405606Y-56328318D01*
X109405604Y-56328318D01*
X109282043Y-56292038D01*
X109282042Y-56292037D01*
X109273399Y-56289500D01*
X109126601Y-56289500D01*
X109117958Y-56292037D01*
X109117956Y-56292038D01*
X108994395Y-56328318D01*
X108994391Y-56328319D01*
X108985750Y-56330857D01*
X108978172Y-56335727D01*
X108978170Y-56335728D01*
X108869836Y-56405350D01*
X108869833Y-56405352D01*
X108862256Y-56410222D01*
X108856358Y-56417028D01*
X108856354Y-56417032D01*
X108772025Y-56514352D01*
X108772022Y-56514355D01*
X108766123Y-56521164D01*
X108762380Y-56529358D01*
X108762379Y-56529361D01*
X108708883Y-56646501D01*
X108708882Y-56646504D01*
X108705141Y-56654696D01*
X108703859Y-56663611D01*
X108703859Y-56663612D01*
X108701073Y-56682993D01*
X108684250Y-56800000D01*
X105244958Y-56800000D01*
X105123295Y-56721812D01*
X105114651Y-56719273D01*
X105114649Y-56719273D01*
X104991088Y-56682993D01*
X104991087Y-56682992D01*
X104982444Y-56680455D01*
X104835646Y-56680455D01*
X104827003Y-56682992D01*
X104827001Y-56682993D01*
X104703440Y-56719273D01*
X104703436Y-56719274D01*
X104694795Y-56721812D01*
X104687217Y-56726682D01*
X104687215Y-56726683D01*
X104578881Y-56796305D01*
X104578878Y-56796307D01*
X104571301Y-56801177D01*
X104565403Y-56807983D01*
X104565399Y-56807987D01*
X104481070Y-56905307D01*
X104481067Y-56905310D01*
X104475168Y-56912119D01*
X104471425Y-56920313D01*
X104471424Y-56920316D01*
X104417928Y-57037456D01*
X104417927Y-57037459D01*
X104414186Y-57045651D01*
X104412904Y-57054566D01*
X104412904Y-57054567D01*
X104402339Y-57128050D01*
X104393295Y-57190955D01*
X69920611Y-57190955D01*
X69920611Y-57173974D01*
X69953220Y-57117494D01*
X70032373Y-57038342D01*
X70089969Y-56925304D01*
X70109815Y-56800000D01*
X70089969Y-56674696D01*
X70084321Y-56663612D01*
X70036873Y-56570490D01*
X70032373Y-56561658D01*
X69942665Y-56471950D01*
X69933833Y-56467450D01*
X69933832Y-56467449D01*
X69838460Y-56418854D01*
X69838456Y-56418852D01*
X69829627Y-56414354D01*
X69819835Y-56412803D01*
X69714116Y-56396059D01*
X69704323Y-56394508D01*
X69694530Y-56396059D01*
X69588810Y-56412803D01*
X69588808Y-56412803D01*
X69579019Y-56414354D01*
X69570191Y-56418851D01*
X69570185Y-56418854D01*
X69474813Y-56467449D01*
X69474809Y-56467451D01*
X69465981Y-56471950D01*
X69458972Y-56478958D01*
X69458969Y-56478961D01*
X69383284Y-56554646D01*
X69383281Y-56554649D01*
X69376273Y-56561658D01*
X69371774Y-56570486D01*
X69371772Y-56570490D01*
X69323177Y-56665862D01*
X69323174Y-56665868D01*
X69318677Y-56674696D01*
X69317126Y-56684485D01*
X69317126Y-56684487D01*
X69310443Y-56726683D01*
X69298831Y-56800000D01*
X69318677Y-56925304D01*
X69323175Y-56934133D01*
X69323177Y-56934137D01*
X69371772Y-57029509D01*
X69376273Y-57038342D01*
X69383284Y-57045353D01*
X69401099Y-57063168D01*
X69433711Y-57119652D01*
X69433711Y-57184874D01*
X69401100Y-57241358D01*
X69321950Y-57320508D01*
X69317451Y-57329336D01*
X69317449Y-57329340D01*
X69268854Y-57424712D01*
X69268851Y-57424718D01*
X69264354Y-57433546D01*
X69262803Y-57443335D01*
X69262803Y-57443337D01*
X69246059Y-57549057D01*
X69244508Y-57558850D01*
X62886163Y-57558850D01*
X62903653Y-56556860D01*
X62903804Y-56552569D01*
X62963524Y-55413033D01*
X62963825Y-55408721D01*
X63007457Y-54910000D01*
X69519534Y-54910000D01*
X69520612Y-54918188D01*
X69538234Y-55052047D01*
X69538235Y-55052053D01*
X69539313Y-55060236D01*
X69542472Y-55067864D01*
X69542473Y-55067865D01*
X69594141Y-55192603D01*
X69594142Y-55192606D01*
X69597302Y-55200233D01*
X69602329Y-55206784D01*
X69602330Y-55206786D01*
X69669750Y-55294649D01*
X69689549Y-55320451D01*
X69809767Y-55412698D01*
X69949764Y-55470687D01*
X70062280Y-55485500D01*
X70133598Y-55485500D01*
X70137720Y-55485500D01*
X70250236Y-55470687D01*
X70390233Y-55412698D01*
X70510451Y-55320451D01*
X70602698Y-55200233D01*
X70660687Y-55060236D01*
X70680466Y-54910000D01*
X70679149Y-54900000D01*
X97484250Y-54900000D01*
X97505141Y-55045304D01*
X97566123Y-55178836D01*
X97662256Y-55289778D01*
X97785750Y-55369143D01*
X97926601Y-55410500D01*
X98064390Y-55410500D01*
X98073399Y-55410500D01*
X98214250Y-55369143D01*
X98337744Y-55289778D01*
X98433877Y-55178836D01*
X98494859Y-55045304D01*
X98515750Y-54900000D01*
X98494859Y-54754696D01*
X98433877Y-54621164D01*
X98337744Y-54510222D01*
X98214250Y-54430857D01*
X98205606Y-54428318D01*
X98205604Y-54428318D01*
X98082043Y-54392038D01*
X98082042Y-54392037D01*
X98073399Y-54389500D01*
X97926601Y-54389500D01*
X97917958Y-54392037D01*
X97917956Y-54392038D01*
X97794395Y-54428318D01*
X97794391Y-54428319D01*
X97785750Y-54430857D01*
X97778172Y-54435727D01*
X97778170Y-54435728D01*
X97669836Y-54505350D01*
X97669833Y-54505352D01*
X97662256Y-54510222D01*
X97656358Y-54517028D01*
X97656354Y-54517032D01*
X97572025Y-54614352D01*
X97572022Y-54614355D01*
X97566123Y-54621164D01*
X97562380Y-54629358D01*
X97562379Y-54629361D01*
X97508883Y-54746501D01*
X97508882Y-54746504D01*
X97505141Y-54754696D01*
X97484250Y-54900000D01*
X70679149Y-54900000D01*
X70660687Y-54759764D01*
X70602698Y-54619767D01*
X70510451Y-54499549D01*
X70474133Y-54471681D01*
X70396786Y-54412330D01*
X70396784Y-54412329D01*
X70390233Y-54407302D01*
X70382606Y-54404142D01*
X70382603Y-54404141D01*
X70257865Y-54352473D01*
X70257864Y-54352472D01*
X70250236Y-54349313D01*
X70242053Y-54348235D01*
X70242047Y-54348234D01*
X70190298Y-54341422D01*
X70132239Y-54318112D01*
X70102656Y-54282066D01*
X70070329Y-54319028D01*
X70014415Y-54340801D01*
X69957951Y-54348235D01*
X69957949Y-54348235D01*
X69949764Y-54349313D01*
X69942137Y-54352472D01*
X69942134Y-54352473D01*
X69817396Y-54404141D01*
X69817390Y-54404144D01*
X69809767Y-54407302D01*
X69803218Y-54412326D01*
X69803213Y-54412330D01*
X69696099Y-54494522D01*
X69696094Y-54494526D01*
X69689549Y-54499549D01*
X69684526Y-54506094D01*
X69684522Y-54506099D01*
X69602330Y-54613213D01*
X69602326Y-54613218D01*
X69597302Y-54619767D01*
X69594144Y-54627390D01*
X69594141Y-54627396D01*
X69542473Y-54752134D01*
X69539313Y-54759764D01*
X69538236Y-54767944D01*
X69538234Y-54767952D01*
X69522024Y-54891083D01*
X69519534Y-54910000D01*
X63007457Y-54910000D01*
X63063285Y-54271888D01*
X63063732Y-54267629D01*
X63165185Y-53441362D01*
X65535862Y-53441362D01*
X65536359Y-53449266D01*
X65536359Y-53449272D01*
X65540226Y-53510726D01*
X65545548Y-53595305D01*
X65555454Y-53625793D01*
X65586441Y-53721164D01*
X65593213Y-53742004D01*
X65597460Y-53748697D01*
X65597462Y-53748700D01*
X65671613Y-53865544D01*
X65671615Y-53865547D01*
X65675863Y-53872240D01*
X65681641Y-53877666D01*
X65681642Y-53877667D01*
X65740812Y-53933231D01*
X65788305Y-53977830D01*
X65923474Y-54052140D01*
X66072876Y-54090500D01*
X66784445Y-54090500D01*
X66788408Y-54090500D01*
X66903032Y-54076020D01*
X67046448Y-54019237D01*
X67171237Y-53928572D01*
X67269559Y-53809722D01*
X67335235Y-53670154D01*
X67364138Y-53518638D01*
X67359276Y-53441362D01*
X69465862Y-53441362D01*
X69466359Y-53449266D01*
X69466359Y-53449272D01*
X69470226Y-53510726D01*
X69475548Y-53595305D01*
X69485454Y-53625793D01*
X69516441Y-53721164D01*
X69523213Y-53742004D01*
X69527460Y-53748697D01*
X69527462Y-53748700D01*
X69601613Y-53865544D01*
X69601615Y-53865547D01*
X69605863Y-53872240D01*
X69611641Y-53877666D01*
X69611642Y-53877667D01*
X69670812Y-53933231D01*
X69718305Y-53977830D01*
X69853474Y-54052140D01*
X70002876Y-54090500D01*
X70010813Y-54090500D01*
X70013757Y-54090872D01*
X70069785Y-54112350D01*
X70101313Y-54148016D01*
X70146139Y-54106032D01*
X70206744Y-54090500D01*
X71214445Y-54090500D01*
X71218408Y-54090500D01*
X71333032Y-54076020D01*
X71476448Y-54019237D01*
X71601237Y-53928572D01*
X71699559Y-53809722D01*
X71765235Y-53670154D01*
X71778617Y-53600000D01*
X75584250Y-53600000D01*
X75605141Y-53745304D01*
X75666123Y-53878836D01*
X75762256Y-53989778D01*
X75885750Y-54069143D01*
X76026601Y-54110500D01*
X76164390Y-54110500D01*
X76173399Y-54110500D01*
X76314250Y-54069143D01*
X76421838Y-54000000D01*
X91084250Y-54000000D01*
X91105141Y-54145304D01*
X91108882Y-54153497D01*
X91108883Y-54153498D01*
X91161979Y-54269763D01*
X91166123Y-54278836D01*
X91262256Y-54389778D01*
X91385750Y-54469143D01*
X91526601Y-54510500D01*
X91664390Y-54510500D01*
X91673399Y-54510500D01*
X91814250Y-54469143D01*
X91937744Y-54389778D01*
X92033877Y-54278836D01*
X92094859Y-54145304D01*
X92115750Y-54000000D01*
X92094859Y-53854696D01*
X92033877Y-53721164D01*
X91937744Y-53610222D01*
X91814250Y-53530857D01*
X91805606Y-53528318D01*
X91805604Y-53528318D01*
X91682043Y-53492038D01*
X91682042Y-53492037D01*
X91673399Y-53489500D01*
X91526601Y-53489500D01*
X91517958Y-53492037D01*
X91517956Y-53492038D01*
X91394395Y-53528318D01*
X91394391Y-53528319D01*
X91385750Y-53530857D01*
X91378172Y-53535727D01*
X91378170Y-53535728D01*
X91269836Y-53605350D01*
X91269833Y-53605352D01*
X91262256Y-53610222D01*
X91256358Y-53617028D01*
X91256354Y-53617032D01*
X91172025Y-53714352D01*
X91172022Y-53714355D01*
X91166123Y-53721164D01*
X91162380Y-53729358D01*
X91162379Y-53729361D01*
X91108883Y-53846501D01*
X91108882Y-53846504D01*
X91105141Y-53854696D01*
X91103859Y-53863611D01*
X91103859Y-53863612D01*
X91093850Y-53933231D01*
X91084250Y-54000000D01*
X76421838Y-54000000D01*
X76437744Y-53989778D01*
X76533877Y-53878836D01*
X76594859Y-53745304D01*
X76615750Y-53600000D01*
X76594859Y-53454696D01*
X76533877Y-53321164D01*
X76437744Y-53210222D01*
X76314250Y-53130857D01*
X76305606Y-53128318D01*
X76305604Y-53128318D01*
X76182043Y-53092038D01*
X76182042Y-53092037D01*
X76173399Y-53089500D01*
X76026601Y-53089500D01*
X76017958Y-53092037D01*
X76017956Y-53092038D01*
X75894395Y-53128318D01*
X75894391Y-53128319D01*
X75885750Y-53130857D01*
X75878172Y-53135727D01*
X75878170Y-53135728D01*
X75769836Y-53205350D01*
X75769833Y-53205352D01*
X75762256Y-53210222D01*
X75756358Y-53217028D01*
X75756354Y-53217032D01*
X75672025Y-53314352D01*
X75672022Y-53314355D01*
X75666123Y-53321164D01*
X75662380Y-53329358D01*
X75662379Y-53329361D01*
X75608883Y-53446501D01*
X75608882Y-53446504D01*
X75605141Y-53454696D01*
X75584250Y-53600000D01*
X71778617Y-53600000D01*
X71794138Y-53518638D01*
X71784452Y-53364695D01*
X71736787Y-53217996D01*
X71732537Y-53211299D01*
X71658386Y-53094455D01*
X71658384Y-53094453D01*
X71654137Y-53087760D01*
X71594149Y-53031428D01*
X71547471Y-52987594D01*
X71547470Y-52987593D01*
X71541695Y-52982170D01*
X71466376Y-52940763D01*
X71413472Y-52911678D01*
X71413468Y-52911676D01*
X71406526Y-52907860D01*
X71398851Y-52905889D01*
X71398845Y-52905887D01*
X71264803Y-52871471D01*
X71264798Y-52871470D01*
X71257124Y-52869500D01*
X70041592Y-52869500D01*
X70037667Y-52869995D01*
X70037664Y-52869996D01*
X69934827Y-52882987D01*
X69934825Y-52882987D01*
X69926968Y-52883980D01*
X69919606Y-52886894D01*
X69919601Y-52886896D01*
X69790920Y-52937845D01*
X69790914Y-52937847D01*
X69783552Y-52940763D01*
X69777140Y-52945420D01*
X69777139Y-52945422D01*
X69665176Y-53026768D01*
X69665172Y-53026770D01*
X69658763Y-53031428D01*
X69653713Y-53037531D01*
X69653709Y-53037536D01*
X69565493Y-53144170D01*
X69565489Y-53144175D01*
X69560441Y-53150278D01*
X69557069Y-53157443D01*
X69557065Y-53157450D01*
X69498140Y-53282672D01*
X69498138Y-53282677D01*
X69494765Y-53289846D01*
X69493280Y-53297628D01*
X69493279Y-53297633D01*
X69478978Y-53372605D01*
X69465862Y-53441362D01*
X67359276Y-53441362D01*
X67354452Y-53364695D01*
X67306787Y-53217996D01*
X67302537Y-53211299D01*
X67228386Y-53094455D01*
X67228384Y-53094453D01*
X67224137Y-53087760D01*
X67164149Y-53031428D01*
X67117471Y-52987594D01*
X67117470Y-52987593D01*
X67111695Y-52982170D01*
X67036376Y-52940763D01*
X66983472Y-52911678D01*
X66983468Y-52911676D01*
X66976526Y-52907860D01*
X66968851Y-52905889D01*
X66968845Y-52905887D01*
X66834803Y-52871471D01*
X66834798Y-52871470D01*
X66827124Y-52869500D01*
X66111592Y-52869500D01*
X66107667Y-52869995D01*
X66107664Y-52869996D01*
X66004827Y-52882987D01*
X66004825Y-52882987D01*
X65996968Y-52883980D01*
X65989606Y-52886894D01*
X65989601Y-52886896D01*
X65860920Y-52937845D01*
X65860914Y-52937847D01*
X65853552Y-52940763D01*
X65847140Y-52945420D01*
X65847139Y-52945422D01*
X65735176Y-53026768D01*
X65735172Y-53026770D01*
X65728763Y-53031428D01*
X65723713Y-53037531D01*
X65723709Y-53037536D01*
X65635493Y-53144170D01*
X65635489Y-53144175D01*
X65630441Y-53150278D01*
X65627069Y-53157443D01*
X65627065Y-53157450D01*
X65568140Y-53282672D01*
X65568138Y-53282677D01*
X65564765Y-53289846D01*
X65563280Y-53297628D01*
X65563279Y-53297633D01*
X65548978Y-53372605D01*
X65535862Y-53441362D01*
X63165185Y-53441362D01*
X63202803Y-53134990D01*
X63203402Y-53130730D01*
X63381914Y-52003648D01*
X63382674Y-51999341D01*
X63575380Y-51007961D01*
X63600395Y-50879267D01*
X63601307Y-50874976D01*
X63656390Y-50636387D01*
X63687877Y-50500000D01*
X98084250Y-50500000D01*
X98105141Y-50645304D01*
X98166123Y-50778836D01*
X98172025Y-50785647D01*
X98253157Y-50879278D01*
X98262256Y-50889778D01*
X98385750Y-50969143D01*
X98526601Y-51010500D01*
X98664390Y-51010500D01*
X98673399Y-51010500D01*
X98814250Y-50969143D01*
X98937744Y-50889778D01*
X99033877Y-50778836D01*
X99094859Y-50645304D01*
X99115750Y-50500000D01*
X100284250Y-50500000D01*
X100305141Y-50645304D01*
X100366123Y-50778836D01*
X100372025Y-50785647D01*
X100453157Y-50879278D01*
X100462256Y-50889778D01*
X100585750Y-50969143D01*
X100726601Y-51010500D01*
X100864390Y-51010500D01*
X100873399Y-51010500D01*
X101014250Y-50969143D01*
X101137744Y-50889778D01*
X101233877Y-50778836D01*
X101294859Y-50645304D01*
X101315750Y-50500000D01*
X101294859Y-50354696D01*
X101233877Y-50221164D01*
X101137744Y-50110222D01*
X101014250Y-50030857D01*
X101005606Y-50028318D01*
X101005604Y-50028318D01*
X100882043Y-49992038D01*
X100882042Y-49992037D01*
X100873399Y-49989500D01*
X100726601Y-49989500D01*
X100717958Y-49992037D01*
X100717956Y-49992038D01*
X100594395Y-50028318D01*
X100594391Y-50028319D01*
X100585750Y-50030857D01*
X100578172Y-50035727D01*
X100578170Y-50035728D01*
X100469836Y-50105350D01*
X100469833Y-50105352D01*
X100462256Y-50110222D01*
X100456358Y-50117028D01*
X100456354Y-50117032D01*
X100372025Y-50214352D01*
X100372022Y-50214355D01*
X100366123Y-50221164D01*
X100362380Y-50229358D01*
X100362379Y-50229361D01*
X100308883Y-50346501D01*
X100308882Y-50346504D01*
X100305141Y-50354696D01*
X100284250Y-50500000D01*
X99115750Y-50500000D01*
X99094859Y-50354696D01*
X99033877Y-50221164D01*
X98937744Y-50110222D01*
X98814250Y-50030857D01*
X98805606Y-50028318D01*
X98805604Y-50028318D01*
X98682043Y-49992038D01*
X98682042Y-49992037D01*
X98673399Y-49989500D01*
X98526601Y-49989500D01*
X98517958Y-49992037D01*
X98517956Y-49992038D01*
X98394395Y-50028318D01*
X98394391Y-50028319D01*
X98385750Y-50030857D01*
X98378172Y-50035727D01*
X98378170Y-50035728D01*
X98269836Y-50105350D01*
X98269833Y-50105352D01*
X98262256Y-50110222D01*
X98256358Y-50117028D01*
X98256354Y-50117032D01*
X98172025Y-50214352D01*
X98172022Y-50214355D01*
X98166123Y-50221164D01*
X98162380Y-50229358D01*
X98162379Y-50229361D01*
X98108883Y-50346501D01*
X98108882Y-50346504D01*
X98105141Y-50354696D01*
X98084250Y-50500000D01*
X63687877Y-50500000D01*
X63857992Y-49763147D01*
X63859054Y-49758890D01*
X63889169Y-49646501D01*
X63928424Y-49500000D01*
X84384250Y-49500000D01*
X84405141Y-49645304D01*
X84466123Y-49778836D01*
X84562256Y-49889778D01*
X84685750Y-49969143D01*
X84826601Y-50010500D01*
X84964390Y-50010500D01*
X84973399Y-50010500D01*
X85114250Y-49969143D01*
X85237744Y-49889778D01*
X85333877Y-49778836D01*
X85394859Y-49645304D01*
X85415750Y-49500000D01*
X96784250Y-49500000D01*
X96805141Y-49645304D01*
X96866123Y-49778836D01*
X96962256Y-49889778D01*
X97085750Y-49969143D01*
X97226601Y-50010500D01*
X97364390Y-50010500D01*
X97373399Y-50010500D01*
X97514250Y-49969143D01*
X97637744Y-49889778D01*
X97715538Y-49800000D01*
X101884250Y-49800000D01*
X101905141Y-49945304D01*
X101966123Y-50078836D01*
X102062256Y-50189778D01*
X102185750Y-50269143D01*
X102326601Y-50310500D01*
X102464390Y-50310500D01*
X102473399Y-50310500D01*
X102614250Y-50269143D01*
X102737744Y-50189778D01*
X102833877Y-50078836D01*
X102894859Y-49945304D01*
X102915750Y-49800000D01*
X102894859Y-49654696D01*
X102833877Y-49521164D01*
X102737744Y-49410222D01*
X102614250Y-49330857D01*
X102605606Y-49328318D01*
X102605604Y-49328318D01*
X102482043Y-49292038D01*
X102482042Y-49292037D01*
X102473399Y-49289500D01*
X102326601Y-49289500D01*
X102317958Y-49292037D01*
X102317956Y-49292038D01*
X102194395Y-49328318D01*
X102194391Y-49328319D01*
X102185750Y-49330857D01*
X102178172Y-49335727D01*
X102178170Y-49335728D01*
X102069836Y-49405350D01*
X102069833Y-49405352D01*
X102062256Y-49410222D01*
X102056358Y-49417028D01*
X102056354Y-49417032D01*
X101972025Y-49514352D01*
X101972022Y-49514355D01*
X101966123Y-49521164D01*
X101962380Y-49529358D01*
X101962379Y-49529361D01*
X101908883Y-49646501D01*
X101908882Y-49646504D01*
X101905141Y-49654696D01*
X101903859Y-49663611D01*
X101903859Y-49663612D01*
X101887293Y-49778836D01*
X101884250Y-49800000D01*
X97715538Y-49800000D01*
X97733877Y-49778836D01*
X97794859Y-49645304D01*
X97815750Y-49500000D01*
X97794859Y-49354696D01*
X97733877Y-49221164D01*
X97637744Y-49110222D01*
X97514250Y-49030857D01*
X97505606Y-49028318D01*
X97505604Y-49028318D01*
X97382043Y-48992038D01*
X97382042Y-48992037D01*
X97373399Y-48989500D01*
X97226601Y-48989500D01*
X97217958Y-48992037D01*
X97217956Y-48992038D01*
X97094395Y-49028318D01*
X97094391Y-49028319D01*
X97085750Y-49030857D01*
X97078172Y-49035727D01*
X97078170Y-49035728D01*
X96969836Y-49105350D01*
X96969833Y-49105352D01*
X96962256Y-49110222D01*
X96956358Y-49117028D01*
X96956354Y-49117032D01*
X96872025Y-49214352D01*
X96872022Y-49214355D01*
X96866123Y-49221164D01*
X96862380Y-49229358D01*
X96862379Y-49229361D01*
X96808883Y-49346501D01*
X96808882Y-49346504D01*
X96805141Y-49354696D01*
X96784250Y-49500000D01*
X85415750Y-49500000D01*
X85394859Y-49354696D01*
X85333877Y-49221164D01*
X85237744Y-49110222D01*
X85114250Y-49030857D01*
X85105606Y-49028318D01*
X85105604Y-49028318D01*
X84982043Y-48992038D01*
X84982042Y-48992037D01*
X84973399Y-48989500D01*
X84826601Y-48989500D01*
X84817958Y-48992037D01*
X84817956Y-48992038D01*
X84694395Y-49028318D01*
X84694391Y-49028319D01*
X84685750Y-49030857D01*
X84678172Y-49035727D01*
X84678170Y-49035728D01*
X84569836Y-49105350D01*
X84569833Y-49105352D01*
X84562256Y-49110222D01*
X84556358Y-49117028D01*
X84556354Y-49117032D01*
X84472025Y-49214352D01*
X84472022Y-49214355D01*
X84466123Y-49221164D01*
X84462380Y-49229358D01*
X84462379Y-49229361D01*
X84408883Y-49346501D01*
X84408882Y-49346504D01*
X84405141Y-49354696D01*
X84384250Y-49500000D01*
X63928424Y-49500000D01*
X64154389Y-48656686D01*
X64155596Y-48652481D01*
X64489218Y-47561252D01*
X64490538Y-47557189D01*
X64820124Y-46600000D01*
X76084250Y-46600000D01*
X76105141Y-46745304D01*
X76166123Y-46878836D01*
X76262256Y-46989778D01*
X76385750Y-47069143D01*
X76526601Y-47110500D01*
X76664390Y-47110500D01*
X76673399Y-47110500D01*
X76814250Y-47069143D01*
X76937744Y-46989778D01*
X77033877Y-46878836D01*
X77094859Y-46745304D01*
X77115750Y-46600000D01*
X77094859Y-46454696D01*
X77033877Y-46321164D01*
X76937744Y-46210222D01*
X76814250Y-46130857D01*
X76805606Y-46128318D01*
X76805604Y-46128318D01*
X76774387Y-46119152D01*
X105784250Y-46119152D01*
X105805141Y-46264456D01*
X105866123Y-46397988D01*
X105872025Y-46404799D01*
X105932086Y-46474113D01*
X105962256Y-46508930D01*
X106085750Y-46588295D01*
X106226601Y-46629652D01*
X106364390Y-46629652D01*
X106373399Y-46629652D01*
X106514250Y-46588295D01*
X106637744Y-46508930D01*
X106733877Y-46397988D01*
X106794859Y-46264456D01*
X106815750Y-46119152D01*
X106794859Y-45973848D01*
X106733877Y-45840316D01*
X106637744Y-45729374D01*
X106514250Y-45650009D01*
X106505606Y-45647470D01*
X106505604Y-45647470D01*
X106382043Y-45611190D01*
X106382042Y-45611189D01*
X106373399Y-45608652D01*
X106226601Y-45608652D01*
X106217958Y-45611189D01*
X106217956Y-45611190D01*
X106094395Y-45647470D01*
X106094391Y-45647471D01*
X106085750Y-45650009D01*
X106078172Y-45654879D01*
X106078170Y-45654880D01*
X105969836Y-45724502D01*
X105969833Y-45724504D01*
X105962256Y-45729374D01*
X105956358Y-45736180D01*
X105956354Y-45736184D01*
X105872025Y-45833504D01*
X105872022Y-45833507D01*
X105866123Y-45840316D01*
X105862380Y-45848510D01*
X105862379Y-45848513D01*
X105808883Y-45965653D01*
X105808882Y-45965656D01*
X105805141Y-45973848D01*
X105784250Y-46119152D01*
X76774387Y-46119152D01*
X76682043Y-46092038D01*
X76682042Y-46092037D01*
X76673399Y-46089500D01*
X76526601Y-46089500D01*
X76517958Y-46092037D01*
X76517956Y-46092038D01*
X76394395Y-46128318D01*
X76394391Y-46128319D01*
X76385750Y-46130857D01*
X76378172Y-46135727D01*
X76378170Y-46135728D01*
X76269836Y-46205350D01*
X76269833Y-46205352D01*
X76262256Y-46210222D01*
X76256358Y-46217028D01*
X76256354Y-46217032D01*
X76172025Y-46314352D01*
X76172022Y-46314355D01*
X76166123Y-46321164D01*
X76162380Y-46329358D01*
X76162379Y-46329361D01*
X76108883Y-46446501D01*
X76108882Y-46446504D01*
X76105141Y-46454696D01*
X76103859Y-46463611D01*
X76103859Y-46463612D01*
X76096643Y-46513801D01*
X76084250Y-46600000D01*
X64820124Y-46600000D01*
X64862064Y-46478198D01*
X64863552Y-46474113D01*
X65272484Y-45408807D01*
X65274084Y-45404845D01*
X65276141Y-45400000D01*
X102184250Y-45400000D01*
X102205141Y-45545304D01*
X102208882Y-45553497D01*
X102208883Y-45553498D01*
X102248615Y-45640500D01*
X102266123Y-45678836D01*
X102362256Y-45789778D01*
X102485750Y-45869143D01*
X102626601Y-45910500D01*
X102764390Y-45910500D01*
X102773399Y-45910500D01*
X102914250Y-45869143D01*
X103037744Y-45789778D01*
X103133877Y-45678836D01*
X103194859Y-45545304D01*
X103215750Y-45400000D01*
X103194859Y-45254696D01*
X103133877Y-45121164D01*
X103037744Y-45010222D01*
X102914250Y-44930857D01*
X102905606Y-44928318D01*
X102905604Y-44928318D01*
X102782043Y-44892038D01*
X102782042Y-44892037D01*
X102773399Y-44889500D01*
X102626601Y-44889500D01*
X102617958Y-44892037D01*
X102617956Y-44892038D01*
X102494395Y-44928318D01*
X102494391Y-44928319D01*
X102485750Y-44930857D01*
X102478172Y-44935727D01*
X102478170Y-44935728D01*
X102369836Y-45005350D01*
X102369833Y-45005352D01*
X102362256Y-45010222D01*
X102356358Y-45017028D01*
X102356354Y-45017032D01*
X102272025Y-45114352D01*
X102272022Y-45114355D01*
X102266123Y-45121164D01*
X102262380Y-45129358D01*
X102262379Y-45129361D01*
X102208883Y-45246501D01*
X102208882Y-45246504D01*
X102205141Y-45254696D01*
X102203859Y-45263611D01*
X102203859Y-45263612D01*
X102198128Y-45303474D01*
X102184250Y-45400000D01*
X65276141Y-45400000D01*
X65719974Y-44354395D01*
X65721732Y-44350447D01*
X65745256Y-44300000D01*
X72184250Y-44300000D01*
X72205141Y-44445304D01*
X72208882Y-44453497D01*
X72208883Y-44453498D01*
X72254551Y-44553498D01*
X72266123Y-44578836D01*
X72272025Y-44585647D01*
X72352774Y-44678836D01*
X72362256Y-44689778D01*
X72485750Y-44769143D01*
X72626601Y-44810500D01*
X72764390Y-44810500D01*
X72773399Y-44810500D01*
X72914250Y-44769143D01*
X73037744Y-44689778D01*
X73133877Y-44578836D01*
X73194859Y-44445304D01*
X73201373Y-44400000D01*
X80784250Y-44400000D01*
X80785532Y-44408917D01*
X80790764Y-44445304D01*
X80805141Y-44545304D01*
X80808882Y-44553497D01*
X80808883Y-44553498D01*
X80820454Y-44578836D01*
X80866123Y-44678836D01*
X80962256Y-44789778D01*
X81085750Y-44869143D01*
X81226601Y-44910500D01*
X81364390Y-44910500D01*
X81373399Y-44910500D01*
X81514250Y-44869143D01*
X81637744Y-44789778D01*
X81733877Y-44678836D01*
X81794859Y-44545304D01*
X81815750Y-44400000D01*
X81794859Y-44254696D01*
X81733877Y-44121164D01*
X81637744Y-44010222D01*
X81514250Y-43930857D01*
X81505606Y-43928318D01*
X81505604Y-43928318D01*
X81382043Y-43892038D01*
X81382042Y-43892037D01*
X81373399Y-43889500D01*
X81226601Y-43889500D01*
X81217958Y-43892037D01*
X81217956Y-43892038D01*
X81094395Y-43928318D01*
X81094391Y-43928319D01*
X81085750Y-43930857D01*
X81078172Y-43935727D01*
X81078170Y-43935728D01*
X80969836Y-44005350D01*
X80969833Y-44005352D01*
X80962256Y-44010222D01*
X80956358Y-44017028D01*
X80956354Y-44017032D01*
X80872025Y-44114352D01*
X80872022Y-44114355D01*
X80866123Y-44121164D01*
X80862380Y-44129358D01*
X80862379Y-44129361D01*
X80808883Y-44246501D01*
X80808882Y-44246504D01*
X80805141Y-44254696D01*
X80803859Y-44263611D01*
X80803859Y-44263612D01*
X80790802Y-44354430D01*
X80784250Y-44400000D01*
X73201373Y-44400000D01*
X73215750Y-44300000D01*
X73194859Y-44154696D01*
X73133877Y-44021164D01*
X73037744Y-43910222D01*
X72914250Y-43830857D01*
X72905606Y-43828318D01*
X72905604Y-43828318D01*
X72782043Y-43792038D01*
X72782042Y-43792037D01*
X72773399Y-43789500D01*
X72626601Y-43789500D01*
X72617958Y-43792037D01*
X72617956Y-43792038D01*
X72494395Y-43828318D01*
X72494391Y-43828319D01*
X72485750Y-43830857D01*
X72478172Y-43835727D01*
X72478170Y-43835728D01*
X72369836Y-43905350D01*
X72369833Y-43905352D01*
X72362256Y-43910222D01*
X72356358Y-43917028D01*
X72356354Y-43917032D01*
X72272025Y-44014352D01*
X72272022Y-44014355D01*
X72266123Y-44021164D01*
X72262380Y-44029358D01*
X72262379Y-44029361D01*
X72208883Y-44146501D01*
X72208882Y-44146504D01*
X72205141Y-44154696D01*
X72184250Y-44300000D01*
X65745256Y-44300000D01*
X66203989Y-43316243D01*
X66205888Y-43312351D01*
X66466943Y-42800000D01*
X98584250Y-42800000D01*
X98605141Y-42945304D01*
X98666123Y-43078836D01*
X98762256Y-43189778D01*
X98885750Y-43269143D01*
X99026601Y-43310500D01*
X99164390Y-43310500D01*
X99173399Y-43310500D01*
X99314250Y-43269143D01*
X99437744Y-43189778D01*
X99533877Y-43078836D01*
X99594859Y-42945304D01*
X99615750Y-42800000D01*
X99594859Y-42654696D01*
X99533877Y-42521164D01*
X99437744Y-42410222D01*
X99314250Y-42330857D01*
X99305606Y-42328318D01*
X99305604Y-42328318D01*
X99182043Y-42292038D01*
X99182042Y-42292037D01*
X99173399Y-42289500D01*
X99026601Y-42289500D01*
X99017958Y-42292037D01*
X99017956Y-42292038D01*
X98894395Y-42328318D01*
X98894391Y-42328319D01*
X98885750Y-42330857D01*
X98878172Y-42335727D01*
X98878170Y-42335728D01*
X98769836Y-42405350D01*
X98769833Y-42405352D01*
X98762256Y-42410222D01*
X98756358Y-42417028D01*
X98756354Y-42417032D01*
X98672025Y-42514352D01*
X98672022Y-42514355D01*
X98666123Y-42521164D01*
X98662380Y-42529358D01*
X98662379Y-42529361D01*
X98608883Y-42646501D01*
X98608882Y-42646504D01*
X98605141Y-42654696D01*
X98584250Y-42800000D01*
X66466943Y-42800000D01*
X66723953Y-42295589D01*
X66725975Y-42291789D01*
X67279193Y-41293758D01*
X67281382Y-41289967D01*
X67330657Y-41207961D01*
X67635870Y-40700000D01*
X88684250Y-40700000D01*
X88705141Y-40845304D01*
X88766123Y-40978836D01*
X88862256Y-41089778D01*
X88985750Y-41169143D01*
X89126601Y-41210500D01*
X89264390Y-41210500D01*
X89273399Y-41210500D01*
X89414250Y-41169143D01*
X89537744Y-41089778D01*
X89633877Y-40978836D01*
X89694859Y-40845304D01*
X89715750Y-40700000D01*
X89694859Y-40554696D01*
X89633877Y-40421164D01*
X89537744Y-40310222D01*
X89414250Y-40230857D01*
X89405606Y-40228318D01*
X89405604Y-40228318D01*
X89282043Y-40192038D01*
X89282042Y-40192037D01*
X89273399Y-40189500D01*
X89126601Y-40189500D01*
X89117958Y-40192037D01*
X89117956Y-40192038D01*
X88994395Y-40228318D01*
X88994391Y-40228319D01*
X88985750Y-40230857D01*
X88978172Y-40235727D01*
X88978170Y-40235728D01*
X88869836Y-40305350D01*
X88869833Y-40305352D01*
X88862256Y-40310222D01*
X88856358Y-40317028D01*
X88856354Y-40317032D01*
X88772025Y-40414352D01*
X88772022Y-40414355D01*
X88766123Y-40421164D01*
X88762380Y-40429358D01*
X88762379Y-40429361D01*
X88708883Y-40546501D01*
X88708882Y-40546504D01*
X88705141Y-40554696D01*
X88684250Y-40700000D01*
X67635870Y-40700000D01*
X67869079Y-40311873D01*
X67871379Y-40308191D01*
X68492893Y-39351144D01*
X68495277Y-39347610D01*
X69149800Y-38412856D01*
X69152379Y-38409307D01*
X69153713Y-38407537D01*
X69839119Y-37497970D01*
X69841768Y-37494581D01*
X70559920Y-36607738D01*
X70562650Y-36604485D01*
X71001191Y-36100000D01*
X80284250Y-36100000D01*
X80305141Y-36245304D01*
X80366123Y-36378836D01*
X80462256Y-36489778D01*
X80585750Y-36569143D01*
X80726601Y-36610500D01*
X80864390Y-36610500D01*
X80873399Y-36610500D01*
X81014250Y-36569143D01*
X81137744Y-36489778D01*
X81233877Y-36378836D01*
X81294859Y-36245304D01*
X81315750Y-36100000D01*
X81294859Y-35954696D01*
X81233877Y-35821164D01*
X81137744Y-35710222D01*
X81014250Y-35630857D01*
X81005606Y-35628318D01*
X81005604Y-35628318D01*
X80882043Y-35592038D01*
X80882042Y-35592037D01*
X80873399Y-35589500D01*
X80726601Y-35589500D01*
X80717958Y-35592037D01*
X80717956Y-35592038D01*
X80594395Y-35628318D01*
X80594391Y-35628319D01*
X80585750Y-35630857D01*
X80578172Y-35635727D01*
X80578170Y-35635728D01*
X80469836Y-35705350D01*
X80469833Y-35705352D01*
X80462256Y-35710222D01*
X80456358Y-35717028D01*
X80456354Y-35717032D01*
X80372025Y-35814352D01*
X80372022Y-35814355D01*
X80366123Y-35821164D01*
X80362380Y-35829358D01*
X80362379Y-35829361D01*
X80308883Y-35946501D01*
X80308882Y-35946504D01*
X80305141Y-35954696D01*
X80284250Y-36100000D01*
X71001191Y-36100000D01*
X71311298Y-35743262D01*
X71314190Y-35740049D01*
X72092477Y-34905439D01*
X72095477Y-34902334D01*
X72902334Y-34095477D01*
X72905439Y-34092477D01*
X73182785Y-33833848D01*
X73222537Y-33808767D01*
X73268716Y-33800000D01*
X118131284Y-33800000D01*
X118177463Y-33808767D01*
G37*
%TD.AperFunction*%
%TD*%
M02*
