%TF.GenerationSoftware,KiCad,Pcbnew,(6.0.9)*%
%TF.CreationDate,2023-01-23T17:19:02-06:00*%
%TF.ProjectId,pulse_ox_wearable,70756c73-655f-46f7-985f-776561726162,1*%
%TF.SameCoordinates,Original*%
%TF.FileFunction,Soldermask,Top*%
%TF.FilePolarity,Negative*%
%FSLAX46Y46*%
G04 Gerber Fmt 4.6, Leading zero omitted, Abs format (unit mm)*
G04 Created by KiCad (PCBNEW (6.0.9)) date 2023-01-23 17:19:02*
%MOMM*%
%LPD*%
G01*
G04 APERTURE LIST*
G04 Aperture macros list*
%AMRoundRect*
0 Rectangle with rounded corners*
0 $1 Rounding radius*
0 $2 $3 $4 $5 $6 $7 $8 $9 X,Y pos of 4 corners*
0 Add a 4 corners polygon primitive as box body*
4,1,4,$2,$3,$4,$5,$6,$7,$8,$9,$2,$3,0*
0 Add four circle primitives for the rounded corners*
1,1,$1+$1,$2,$3*
1,1,$1+$1,$4,$5*
1,1,$1+$1,$6,$7*
1,1,$1+$1,$8,$9*
0 Add four rect primitives between the rounded corners*
20,1,$1+$1,$2,$3,$4,$5,0*
20,1,$1+$1,$4,$5,$6,$7,0*
20,1,$1+$1,$6,$7,$8,$9,0*
20,1,$1+$1,$8,$9,$2,$3,0*%
%AMHorizOval*
0 Thick line with rounded ends*
0 $1 width*
0 $2 $3 position (X,Y) of the first rounded end (center of the circle)*
0 $4 $5 position (X,Y) of the second rounded end (center of the circle)*
0 Add line between two ends*
20,1,$1,$2,$3,$4,$5,0*
0 Add two circle primitives to create the rounded ends*
1,1,$1,$2,$3*
1,1,$1,$4,$5*%
%AMRotRect*
0 Rectangle, with rotation*
0 The origin of the aperture is its center*
0 $1 length*
0 $2 width*
0 $3 Rotation angle, in degrees counterclockwise*
0 Add horizontal line*
21,1,$1,$2,0,0,$3*%
G04 Aperture macros list end*
%ADD10R,0.990600X0.990600*%
%ADD11R,1.498600X0.889000*%
%ADD12R,0.889000X1.498600*%
%ADD13R,3.800000X2.000000*%
%ADD14R,1.500000X2.000000*%
%ADD15RoundRect,0.100000X0.100000X-0.130000X0.100000X0.130000X-0.100000X0.130000X-0.100000X-0.130000X0*%
%ADD16RoundRect,0.250000X-1.075000X0.312500X-1.075000X-0.312500X1.075000X-0.312500X1.075000X0.312500X0*%
%ADD17RoundRect,0.250000X-0.325000X-0.650000X0.325000X-0.650000X0.325000X0.650000X-0.325000X0.650000X0*%
%ADD18RoundRect,0.250000X0.250000X0.475000X-0.250000X0.475000X-0.250000X-0.475000X0.250000X-0.475000X0*%
%ADD19RoundRect,0.250000X0.325000X0.650000X-0.325000X0.650000X-0.325000X-0.650000X0.325000X-0.650000X0*%
%ADD20RoundRect,0.100000X-0.130000X-0.100000X0.130000X-0.100000X0.130000X0.100000X-0.130000X0.100000X0*%
%ADD21RoundRect,0.100000X-0.021213X-0.162635X0.162635X0.021213X0.021213X0.162635X-0.162635X-0.021213X0*%
%ADD22RoundRect,0.147500X0.172500X-0.147500X0.172500X0.147500X-0.172500X0.147500X-0.172500X-0.147500X0*%
%ADD23RoundRect,0.150000X0.150000X-0.512500X0.150000X0.512500X-0.150000X0.512500X-0.150000X-0.512500X0*%
%ADD24R,0.280000X0.700000*%
%ADD25R,0.260000X0.500000*%
%ADD26R,0.680000X1.050000*%
%ADD27C,0.600000*%
%ADD28R,1.650000X2.400000*%
%ADD29RoundRect,0.070000X0.140000X0.140000X-0.140000X0.140000X-0.140000X-0.140000X0.140000X-0.140000X0*%
%ADD30O,0.990000X0.420000*%
%ADD31RoundRect,0.225000X-0.225000X-0.250000X0.225000X-0.250000X0.225000X0.250000X-0.225000X0.250000X0*%
%ADD32O,1.600000X1.000000*%
%ADD33O,2.100000X1.000000*%
%ADD34R,1.450000X0.600000*%
%ADD35R,1.450000X0.300000*%
%ADD36C,0.650000*%
%ADD37RoundRect,0.250000X0.312500X1.075000X-0.312500X1.075000X-0.312500X-1.075000X0.312500X-1.075000X0*%
%ADD38RoundRect,0.135000X0.185000X-0.135000X0.185000X0.135000X-0.185000X0.135000X-0.185000X-0.135000X0*%
%ADD39RoundRect,0.250000X0.475000X-0.250000X0.475000X0.250000X-0.475000X0.250000X-0.475000X-0.250000X0*%
%ADD40RoundRect,0.147500X-0.172500X0.147500X-0.172500X-0.147500X0.172500X-0.147500X0.172500X0.147500X0*%
%ADD41RoundRect,0.218750X0.256250X-0.218750X0.256250X0.218750X-0.256250X0.218750X-0.256250X-0.218750X0*%
%ADD42RoundRect,0.135000X-0.135000X-0.185000X0.135000X-0.185000X0.135000X0.185000X-0.135000X0.185000X0*%
%ADD43RotRect,1.700000X1.700000X135.000000*%
%ADD44HorizOval,1.700000X0.000000X0.000000X0.000000X0.000000X0*%
%ADD45RoundRect,0.150000X-0.587500X-0.150000X0.587500X-0.150000X0.587500X0.150000X-0.587500X0.150000X0*%
%ADD46R,2.800000X2.100000*%
%ADD47R,1.900000X0.600000*%
%ADD48RoundRect,0.200000X-0.053033X0.335876X-0.335876X0.053033X0.053033X-0.335876X0.335876X-0.053033X0*%
%ADD49R,0.980000X3.400000*%
%ADD50RoundRect,0.250000X-0.512652X-0.159099X-0.159099X-0.512652X0.512652X0.159099X0.159099X0.512652X0*%
%ADD51RoundRect,0.225000X-0.250000X0.225000X-0.250000X-0.225000X0.250000X-0.225000X0.250000X0.225000X0*%
%ADD52O,1.524000X1.524000*%
%ADD53RotRect,0.900000X1.700000X135.000000*%
%ADD54R,2.600000X2.600000*%
%ADD55RoundRect,0.062500X-0.062500X-0.350000X0.062500X-0.350000X0.062500X0.350000X-0.062500X0.350000X0*%
%ADD56RoundRect,0.062500X-0.350000X-0.062500X0.350000X-0.062500X0.350000X0.062500X-0.350000X0.062500X0*%
%ADD57RoundRect,0.250000X-0.475000X0.250000X-0.475000X-0.250000X0.475000X-0.250000X0.475000X0.250000X0*%
%ADD58RoundRect,0.250000X-0.312500X-1.075000X0.312500X-1.075000X0.312500X1.075000X-0.312500X1.075000X0*%
%ADD59RoundRect,0.225000X0.250000X-0.225000X0.250000X0.225000X-0.250000X0.225000X-0.250000X-0.225000X0*%
%ADD60RoundRect,0.250000X-0.503814X-0.132583X-0.132583X-0.503814X0.503814X0.132583X0.132583X0.503814X0*%
%ADD61RoundRect,0.150000X0.587500X0.150000X-0.587500X0.150000X-0.587500X-0.150000X0.587500X-0.150000X0*%
%ADD62O,1.750000X1.200000*%
%ADD63RoundRect,0.250000X0.625000X-0.350000X0.625000X0.350000X-0.625000X0.350000X-0.625000X-0.350000X0*%
%ADD64C,0.800000*%
%ADD65C,0.500000*%
G04 APERTURE END LIST*
D10*
%TO.C,U1*%
X95970967Y-41377285D03*
X94470967Y-41377285D03*
X92970967Y-41377285D03*
X95970967Y-39877285D03*
X92970967Y-39877285D03*
X95970967Y-38377285D03*
X94470967Y-38377285D03*
X92970967Y-38377285D03*
X94470967Y-39877285D03*
D11*
X104661401Y-34373359D03*
X104661401Y-35643359D03*
X104661401Y-36913359D03*
X104661401Y-38183359D03*
X104661401Y-39453359D03*
X104661401Y-40723359D03*
X104661401Y-41993359D03*
X104661401Y-43263359D03*
X104661401Y-44533359D03*
X104661401Y-45803359D03*
X104661401Y-47073359D03*
X104661401Y-48343359D03*
X104661401Y-49613359D03*
X104661401Y-50883359D03*
D12*
X102896401Y-52133293D03*
X101626401Y-52133293D03*
X100356401Y-52133293D03*
X99086401Y-52133293D03*
X97816401Y-52133293D03*
X96546401Y-52133293D03*
X95276401Y-52133293D03*
X94006401Y-52133293D03*
X92736401Y-52133293D03*
X91466401Y-52133293D03*
X90196401Y-52133293D03*
X88926401Y-52133293D03*
D11*
X87161401Y-50883359D03*
X87161401Y-49613359D03*
X87161401Y-48343359D03*
X87161401Y-47073359D03*
X87161401Y-45803359D03*
X87161401Y-44533359D03*
X87161401Y-43263359D03*
X87161401Y-41993359D03*
X87161401Y-40723359D03*
X87161401Y-39453359D03*
X87161401Y-38183359D03*
X87161401Y-36913359D03*
X87161401Y-35643359D03*
X87161401Y-34373359D03*
%TD*%
D13*
%TO.C,U5*%
X103100000Y-78450000D03*
D14*
X100800000Y-72150000D03*
X103100000Y-72150000D03*
X105400000Y-72150000D03*
%TD*%
D15*
%TO.C,R3*%
X80200000Y-62680000D03*
X80200000Y-63320000D03*
%TD*%
D16*
%TO.C,R4*%
X96962500Y-63812500D03*
X96962500Y-60887500D03*
%TD*%
D17*
%TO.C,C17*%
X105875000Y-69100000D03*
X102925000Y-69100000D03*
%TD*%
D18*
%TO.C,C4*%
X89202335Y-67689137D03*
X91102335Y-67689137D03*
%TD*%
D19*
%TO.C,C8*%
X80925000Y-79200000D03*
X83875000Y-79200000D03*
%TD*%
D20*
%TO.C,C9*%
X86220000Y-75100000D03*
X85580000Y-75100000D03*
%TD*%
D21*
%TO.C,R1*%
X75700000Y-55300000D03*
X75247452Y-55752548D03*
%TD*%
D22*
%TO.C,D1*%
X79700000Y-58215000D03*
X79700000Y-59185000D03*
%TD*%
D23*
%TO.C,U2*%
X80250000Y-65162500D03*
X82150000Y-65162500D03*
X82150000Y-67437500D03*
X81200000Y-67437500D03*
X80250000Y-67437500D03*
%TD*%
D24*
%TO.C,U4*%
X87800000Y-79920000D03*
D25*
X87800000Y-76740000D03*
D26*
X87100000Y-79005000D03*
X88000000Y-77735000D03*
D24*
X87300000Y-76820000D03*
D27*
X88050000Y-77620000D03*
D28*
X87550000Y-78370000D03*
D26*
X87100000Y-77735000D03*
D25*
X87300000Y-76740000D03*
X87800000Y-80000000D03*
X87300000Y-80000000D03*
D27*
X88050000Y-79120000D03*
X87050000Y-77620000D03*
D24*
X87300000Y-79920000D03*
D27*
X87050000Y-79120000D03*
X87550000Y-78370000D03*
D26*
X88000000Y-79005000D03*
D24*
X87800000Y-76820000D03*
D29*
X85790000Y-79370000D03*
D30*
X86075000Y-79370000D03*
X86075000Y-78870000D03*
D29*
X85790000Y-78870000D03*
D30*
X86075000Y-78370000D03*
D29*
X85790000Y-78370000D03*
X85790000Y-77870000D03*
D30*
X86075000Y-77870000D03*
D29*
X85790000Y-77370000D03*
D30*
X86075000Y-77370000D03*
D29*
X89310000Y-77370000D03*
D30*
X89025000Y-77370000D03*
D29*
X89310000Y-77870000D03*
D30*
X89025000Y-77870000D03*
D29*
X89310000Y-78370000D03*
D30*
X89025000Y-78370000D03*
X89025000Y-78870000D03*
D29*
X89310000Y-78870000D03*
D30*
X89025000Y-79370000D03*
D29*
X89310000Y-79370000D03*
%TD*%
D18*
%TO.C,C6*%
X89252334Y-60649138D03*
X91152334Y-60649138D03*
%TD*%
D31*
%TO.C,C7*%
X83975000Y-69700000D03*
X82425000Y-69700000D03*
%TD*%
D32*
%TO.C,J2*%
X66450000Y-53480000D03*
D33*
X70630000Y-53480000D03*
X70630000Y-62120000D03*
D32*
X66450000Y-62120000D03*
D34*
X71545000Y-54550000D03*
X71545000Y-55350000D03*
D35*
X71545000Y-56050000D03*
X71545000Y-57050000D03*
X71545000Y-58550000D03*
X71545000Y-59550000D03*
D34*
X71545000Y-60250000D03*
X71545000Y-61050000D03*
X71545000Y-61050000D03*
X71545000Y-60250000D03*
D35*
X71545000Y-59050000D03*
X71545000Y-58050000D03*
X71545000Y-57550000D03*
X71545000Y-56550000D03*
D34*
X71545000Y-55350000D03*
X71545000Y-54550000D03*
D36*
X70100000Y-54910000D03*
X70100000Y-60690000D03*
%TD*%
D17*
%TO.C,C13*%
X94825000Y-81789999D03*
X91875000Y-81789999D03*
%TD*%
D37*
%TO.C,R9*%
X81537500Y-41900000D03*
X84462500Y-41900000D03*
%TD*%
D38*
%TO.C,R12*%
X93862500Y-63140000D03*
X93862500Y-64160000D03*
%TD*%
D39*
%TO.C,C14*%
X98200000Y-69050000D03*
X98200000Y-70950000D03*
%TD*%
D40*
%TO.C,D2*%
X77800000Y-57385000D03*
X77800000Y-56415000D03*
%TD*%
D41*
%TO.C,D4*%
X76900000Y-66212500D03*
X76900000Y-67787500D03*
%TD*%
D42*
%TO.C,R8*%
X93872500Y-61650000D03*
X92852500Y-61650000D03*
%TD*%
D17*
%TO.C,C11*%
X94775000Y-74100000D03*
X91825000Y-74100000D03*
%TD*%
D43*
%TO.C,J4*%
X103412994Y-59287006D03*
D44*
X105209045Y-57490955D03*
X107005096Y-55694904D03*
X108801148Y-53898852D03*
%TD*%
D45*
%TO.C,Q1*%
X78737500Y-44300000D03*
X76862500Y-45250000D03*
X76862500Y-43350000D03*
%TD*%
D46*
%TO.C,J3*%
X114512625Y-53150000D03*
X114512625Y-62450000D03*
D47*
X112162625Y-56300000D03*
X112162625Y-57300000D03*
X112162625Y-58300000D03*
X112162625Y-59300000D03*
%TD*%
D48*
%TO.C,R11*%
X81316637Y-75683363D03*
X82483363Y-74516637D03*
%TD*%
D49*
%TO.C,L1*%
X88700000Y-84500000D03*
X86300000Y-84500000D03*
%TD*%
D50*
%TO.C,C1*%
X114570532Y-41314392D03*
X113227030Y-39970890D03*
%TD*%
D51*
%TO.C,C16*%
X84600000Y-37475000D03*
X84600000Y-35925000D03*
%TD*%
D52*
%TO.C,SW1*%
X98840000Y-88200000D03*
X96300000Y-88200000D03*
X93760000Y-88200000D03*
%TD*%
D53*
%TO.C,SW2*%
X117197918Y-35797918D03*
X119602082Y-38202082D03*
%TD*%
D40*
%TO.C,D3*%
X74900000Y-53985000D03*
X74900000Y-53015000D03*
%TD*%
D54*
%TO.C,U3*%
X94600000Y-57100000D03*
D55*
X93350000Y-55162500D03*
X93850000Y-55162500D03*
X94350000Y-55162500D03*
X94850000Y-55162500D03*
X95350000Y-55162500D03*
X95850000Y-55162500D03*
D56*
X96537500Y-55850000D03*
X96537500Y-56350000D03*
X96537500Y-56850000D03*
X96537500Y-57350000D03*
X96537500Y-57850000D03*
X96537500Y-58350000D03*
D55*
X95850000Y-59037500D03*
X95350000Y-59037500D03*
X94850000Y-59037500D03*
X94350000Y-59037500D03*
X93850000Y-59037500D03*
X93350000Y-59037500D03*
D56*
X92662500Y-58350000D03*
X92662500Y-57850000D03*
X92662500Y-57350000D03*
X92662500Y-56850000D03*
X92662500Y-56350000D03*
X92662500Y-55850000D03*
%TD*%
D37*
%TO.C,R7*%
X72037500Y-40100000D03*
X74962500Y-40100000D03*
%TD*%
D48*
%TO.C,R10*%
X83932932Y-73067068D03*
X85099658Y-71900342D03*
%TD*%
D51*
%TO.C,C10*%
X83300000Y-47275000D03*
X83300000Y-45725000D03*
%TD*%
D57*
%TO.C,C15*%
X82600000Y-37850000D03*
X82600000Y-35950000D03*
%TD*%
D58*
%TO.C,R6*%
X75062500Y-48200000D03*
X72137500Y-48200000D03*
%TD*%
D18*
%TO.C,C5*%
X89202335Y-64149137D03*
X91102335Y-64149137D03*
%TD*%
D59*
%TO.C,C2*%
X84100000Y-63225000D03*
X84100000Y-64775000D03*
%TD*%
D20*
%TO.C,R2*%
X75320000Y-59500000D03*
X74680000Y-59500000D03*
%TD*%
D60*
%TO.C,R5*%
X76745235Y-63445235D03*
X75454765Y-62154765D03*
%TD*%
D61*
%TO.C,Q2*%
X68662499Y-44300000D03*
X70537499Y-43350000D03*
X70537499Y-45250000D03*
%TD*%
D17*
%TO.C,C12*%
X94825000Y-77890000D03*
X91875000Y-77890000D03*
%TD*%
D62*
%TO.C,J1*%
X70350000Y-68200000D03*
D63*
X70350000Y-70200000D03*
%TD*%
D64*
X102900000Y-34700000D03*
X95700000Y-84200000D03*
X93700000Y-84200000D03*
X91700000Y-84200000D03*
X79871573Y-81171573D03*
X81285786Y-82585786D03*
X82700000Y-84000000D03*
X77871573Y-83271573D03*
X79285786Y-84685786D03*
X80700000Y-86100000D03*
X110400000Y-37900000D03*
X110400000Y-39899999D03*
X110400000Y-41900000D03*
X106528427Y-60171573D03*
X105114214Y-61585786D03*
X103700000Y-63000000D03*
X110028427Y-61771573D03*
X108614214Y-63185786D03*
X107200000Y-64600000D03*
X127128427Y-64971573D03*
X125714214Y-66385786D03*
X124300000Y-67800000D03*
X125228427Y-69771573D03*
X123814214Y-71185786D03*
X122400000Y-72600000D03*
X126400000Y-59800000D03*
X126400000Y-61799999D03*
X126400000Y-63800000D03*
X125000000Y-53600000D03*
X125000000Y-55599999D03*
X125000000Y-57600000D03*
X127200000Y-53000000D03*
X127200000Y-54999999D03*
X127200000Y-57000000D03*
X125300000Y-47000000D03*
X125300000Y-48999999D03*
X125300000Y-51000000D03*
X121271573Y-41171573D03*
X122685786Y-42585786D03*
X124100000Y-44000000D03*
X92228427Y-35671573D03*
X90814214Y-37085786D03*
X89400000Y-38500000D03*
X101000000Y-35500000D03*
X99000000Y-35500000D03*
X97000000Y-35500000D03*
X102600000Y-37500000D03*
X100600000Y-37500000D03*
X98600000Y-37500000D03*
X102400000Y-39700000D03*
X100400000Y-39700000D03*
X98400000Y-39700000D03*
X102100001Y-41800000D03*
X100100001Y-41800000D03*
X98099999Y-41800000D03*
X90500000Y-42000000D03*
X90500000Y-43999999D03*
X90500000Y-46000000D03*
X97099999Y-44000000D03*
X99100000Y-44000000D03*
X101100001Y-44000000D03*
X97300000Y-46300000D03*
X95300000Y-46300000D03*
X93300000Y-46300000D03*
X101300000Y-48600000D03*
X99300000Y-48600000D03*
X97300000Y-48600000D03*
X93800000Y-48600000D03*
X91800000Y-48600000D03*
X89800000Y-48600000D03*
X72900000Y-51500000D03*
X70900000Y-51500000D03*
X68900000Y-51500000D03*
X80028427Y-54428427D03*
X78614214Y-53014214D03*
X77200000Y-51600000D03*
X69800000Y-64500000D03*
X67800000Y-64500000D03*
X65800000Y-64500000D03*
X65700000Y-47000000D03*
X68528427Y-49828427D03*
X67114214Y-48414214D03*
X67114214Y-51242641D03*
X65700000Y-49828427D03*
X74085786Y-35714214D03*
X75500000Y-34300000D03*
X78328427Y-37128427D03*
X76914214Y-35714214D03*
X76914214Y-38542641D03*
X75500000Y-37128427D03*
X98499999Y-81100000D03*
X100500000Y-81100000D03*
X100500000Y-85100000D03*
X100500000Y-83100001D03*
X98500000Y-85100001D03*
X98500000Y-83100000D03*
X74700000Y-73700000D03*
X74700000Y-75700000D03*
X70700000Y-75700000D03*
X72700000Y-75700000D03*
X70700000Y-73700000D03*
X72700000Y-73700000D03*
X76614214Y-80385786D03*
X75200000Y-81800000D03*
X72371573Y-78971573D03*
X73785786Y-80385785D03*
X73785785Y-77557359D03*
X75200000Y-78971573D03*
X106700000Y-81100000D03*
X110800000Y-83100000D03*
X108800000Y-85100000D03*
X110800000Y-85100000D03*
X112800000Y-81100000D03*
X108800000Y-83100000D03*
X110800000Y-81100000D03*
X108800000Y-81100000D03*
X112800000Y-83100000D03*
X106700000Y-83100000D03*
X102700000Y-83100000D03*
X104700000Y-83100000D03*
X102700000Y-85100000D03*
X104700000Y-85100000D03*
X106700000Y-85100000D03*
X102700000Y-87100000D03*
X106700000Y-87100000D03*
X104700000Y-87100000D03*
X102700000Y-81100000D03*
X104700000Y-81100000D03*
X115600000Y-79200000D03*
X109500000Y-73200000D03*
X113500000Y-73200000D03*
X111500000Y-77200001D03*
X113500001Y-75200000D03*
X111500000Y-75200000D03*
X109500000Y-79200000D03*
X111500001Y-73200000D03*
X113500000Y-77200000D03*
X111500000Y-79200000D03*
X109500000Y-75200001D03*
X113500000Y-79200000D03*
X109500000Y-77200000D03*
X115599999Y-77200000D03*
X119600000Y-77200001D03*
X117600000Y-77200000D03*
X119600000Y-75200000D03*
X117599999Y-75200000D03*
X115600000Y-75200000D03*
X119599999Y-73200000D03*
X115599999Y-73200000D03*
X117600000Y-73200000D03*
X117600000Y-79200000D03*
X113500000Y-65100000D03*
X119600000Y-71100000D03*
X115600000Y-71100000D03*
X117600000Y-67100000D03*
X115600000Y-69100000D03*
X117600000Y-69100000D03*
X119600000Y-65100000D03*
X117600000Y-71100000D03*
X115600000Y-67100000D03*
X117600000Y-65100000D03*
X119600000Y-69100000D03*
X115600000Y-65100000D03*
X119600000Y-67100000D03*
X113500000Y-67100000D03*
X109500000Y-67100000D03*
X111500000Y-67100000D03*
X109500000Y-69100000D03*
X111500000Y-69100000D03*
X113500000Y-69100000D03*
X109500000Y-71100000D03*
X113500000Y-71100000D03*
X111500000Y-71100000D03*
X109500000Y-65100000D03*
X111500000Y-65100000D03*
X119600000Y-44000000D03*
X119600000Y-46000000D03*
X115600000Y-46000000D03*
X117600000Y-46000000D03*
X115600000Y-48000000D03*
X117600000Y-48000000D03*
X119600000Y-48000000D03*
X115600000Y-50000000D03*
X119600000Y-50000000D03*
X117600000Y-50000000D03*
X115600000Y-44000000D03*
X117600000Y-44000000D03*
X113500000Y-48000000D03*
X113500000Y-50000000D03*
X109500000Y-50000000D03*
X111500000Y-50000000D03*
X109500000Y-48000000D03*
X111500000Y-48000000D03*
X113500000Y-46000000D03*
X109500000Y-46000000D03*
X111500000Y-46000000D03*
X113500000Y-44000000D03*
X111500000Y-44000000D03*
X109500000Y-44000000D03*
X82600000Y-63200000D03*
X76100000Y-53600000D03*
X91500000Y-62400000D03*
X95300000Y-57700000D03*
X91200000Y-55700000D03*
X89500000Y-34599500D03*
X94500000Y-42900000D03*
X84900000Y-59200000D03*
X87500000Y-59200000D03*
X87500000Y-75500000D03*
X81700000Y-47900000D03*
X87500000Y-81200000D03*
X83500000Y-56300000D03*
X89100000Y-56300000D03*
X81400000Y-56300000D03*
X73300000Y-54000000D03*
X107700000Y-70700000D03*
X95900000Y-65500000D03*
X79800000Y-76300000D03*
X90100000Y-59200000D03*
X82500000Y-56300000D03*
X98200000Y-67600000D03*
X76700000Y-55000000D03*
X84600000Y-56300000D03*
X87500000Y-64500000D03*
X90200000Y-56200000D03*
X76400000Y-59300000D03*
X96500000Y-74200000D03*
X117600000Y-40900000D03*
X88000000Y-56300000D03*
X93900000Y-56400000D03*
X79280000Y-62680000D03*
X94500000Y-36000000D03*
X95300000Y-56400000D03*
X93900000Y-57700000D03*
X87500000Y-61100000D03*
X81200000Y-69100000D03*
X96500000Y-77800000D03*
X85500000Y-69200000D03*
X80000000Y-60200000D03*
X84100000Y-39000000D03*
X86200000Y-59200000D03*
X87600000Y-68300000D03*
X75900000Y-60500000D03*
X85700000Y-56300000D03*
X83800000Y-59200000D03*
X88900000Y-59200000D03*
X73500000Y-61400000D03*
X86800000Y-56300000D03*
X110100000Y-56200000D03*
X96400000Y-81800000D03*
X102400000Y-66600000D03*
X80800000Y-36100000D03*
X81300000Y-44400000D03*
X81400000Y-71100000D03*
D65*
X69704323Y-56800000D03*
X70250000Y-58124500D03*
X69712921Y-58572663D03*
X69650000Y-57558850D03*
D64*
X102700000Y-45400000D03*
X106300000Y-46119152D03*
X98000000Y-54900000D03*
X76600000Y-46600000D03*
X72700000Y-44300000D03*
X91600000Y-54000000D03*
X84900000Y-49500000D03*
X102400000Y-49800000D03*
X84400000Y-81200000D03*
M02*
