%TF.GenerationSoftware,KiCad,Pcbnew,(7.0.0)*%
%TF.CreationDate,2023-04-01T17:00:43-05:00*%
%TF.ProjectId,pulse_ox_wearable,70756c73-655f-46f7-985f-776561726162,1*%
%TF.SameCoordinates,Original*%
%TF.FileFunction,Legend,Bot*%
%TF.FilePolarity,Positive*%
%FSLAX46Y46*%
G04 Gerber Fmt 4.6, Leading zero omitted, Abs format (unit mm)*
G04 Created by KiCad (PCBNEW (7.0.0)) date 2023-04-01 17:00:43*
%MOMM*%
%LPD*%
G01*
G04 APERTURE LIST*
G04 Aperture macros list*
%AMRoundRect*
0 Rectangle with rounded corners*
0 $1 Rounding radius*
0 $2 $3 $4 $5 $6 $7 $8 $9 X,Y pos of 4 corners*
0 Add a 4 corners polygon primitive as box body*
4,1,4,$2,$3,$4,$5,$6,$7,$8,$9,$2,$3,0*
0 Add four circle primitives for the rounded corners*
1,1,$1+$1,$2,$3*
1,1,$1+$1,$4,$5*
1,1,$1+$1,$6,$7*
1,1,$1+$1,$8,$9*
0 Add four rect primitives between the rounded corners*
20,1,$1+$1,$2,$3,$4,$5,0*
20,1,$1+$1,$4,$5,$6,$7,0*
20,1,$1+$1,$6,$7,$8,$9,0*
20,1,$1+$1,$8,$9,$2,$3,0*%
%AMHorizOval*
0 Thick line with rounded ends*
0 $1 width*
0 $2 $3 position (X,Y) of the first rounded end (center of the circle)*
0 $4 $5 position (X,Y) of the second rounded end (center of the circle)*
0 Add line between two ends*
20,1,$1,$2,$3,$4,$5,0*
0 Add two circle primitives to create the rounded ends*
1,1,$1,$2,$3*
1,1,$1,$4,$5*%
%AMRotRect*
0 Rectangle, with rotation*
0 The origin of the aperture is its center*
0 $1 length*
0 $2 width*
0 $3 Rotation angle, in degrees counterclockwise*
0 Add horizontal line*
21,1,$1,$2,0,0,$3*%
G04 Aperture macros list end*
%ADD10C,0.150000*%
%ADD11C,0.120000*%
%ADD12C,0.600000*%
%ADD13C,0.650000*%
%ADD14O,2.100000X1.000000*%
%ADD15O,1.600000X1.000000*%
%ADD16O,1.524000X1.524000*%
%ADD17RotRect,1.700000X1.700000X315.000000*%
%ADD18HorizOval,1.700000X0.000000X0.000000X0.000000X0.000000X0*%
%ADD19RoundRect,0.250000X0.625000X-0.350000X0.625000X0.350000X-0.625000X0.350000X-0.625000X-0.350000X0*%
%ADD20O,1.750000X1.200000*%
G04 APERTURE END LIST*
D10*
X99119048Y-85767380D02*
X99119048Y-86481666D01*
X99119048Y-86481666D02*
X99166667Y-86624523D01*
X99166667Y-86624523D02*
X99261905Y-86719761D01*
X99261905Y-86719761D02*
X99404762Y-86767380D01*
X99404762Y-86767380D02*
X99500000Y-86767380D01*
X98166667Y-86767380D02*
X98642857Y-86767380D01*
X98642857Y-86767380D02*
X98642857Y-85767380D01*
X97261905Y-86672142D02*
X97309524Y-86719761D01*
X97309524Y-86719761D02*
X97452381Y-86767380D01*
X97452381Y-86767380D02*
X97547619Y-86767380D01*
X97547619Y-86767380D02*
X97690476Y-86719761D01*
X97690476Y-86719761D02*
X97785714Y-86624523D01*
X97785714Y-86624523D02*
X97833333Y-86529285D01*
X97833333Y-86529285D02*
X97880952Y-86338809D01*
X97880952Y-86338809D02*
X97880952Y-86195952D01*
X97880952Y-86195952D02*
X97833333Y-86005476D01*
X97833333Y-86005476D02*
X97785714Y-85910238D01*
X97785714Y-85910238D02*
X97690476Y-85815000D01*
X97690476Y-85815000D02*
X97547619Y-85767380D01*
X97547619Y-85767380D02*
X97452381Y-85767380D01*
X97452381Y-85767380D02*
X97309524Y-85815000D01*
X97309524Y-85815000D02*
X97261905Y-85862619D01*
X96547619Y-85767380D02*
X96547619Y-86481666D01*
X96547619Y-86481666D02*
X96595238Y-86624523D01*
X96595238Y-86624523D02*
X96690476Y-86719761D01*
X96690476Y-86719761D02*
X96833333Y-86767380D01*
X96833333Y-86767380D02*
X96928571Y-86767380D01*
X95595238Y-86767380D02*
X96071428Y-86767380D01*
X96071428Y-86767380D02*
X96071428Y-85767380D01*
X94690476Y-86672142D02*
X94738095Y-86719761D01*
X94738095Y-86719761D02*
X94880952Y-86767380D01*
X94880952Y-86767380D02*
X94976190Y-86767380D01*
X94976190Y-86767380D02*
X95119047Y-86719761D01*
X95119047Y-86719761D02*
X95214285Y-86624523D01*
X95214285Y-86624523D02*
X95261904Y-86529285D01*
X95261904Y-86529285D02*
X95309523Y-86338809D01*
X95309523Y-86338809D02*
X95309523Y-86195952D01*
X95309523Y-86195952D02*
X95261904Y-86005476D01*
X95261904Y-86005476D02*
X95214285Y-85910238D01*
X95214285Y-85910238D02*
X95119047Y-85815000D01*
X95119047Y-85815000D02*
X94976190Y-85767380D01*
X94976190Y-85767380D02*
X94880952Y-85767380D01*
X94880952Y-85767380D02*
X94738095Y-85815000D01*
X94738095Y-85815000D02*
X94690476Y-85862619D01*
X93976190Y-85767380D02*
X93976190Y-86481666D01*
X93976190Y-86481666D02*
X94023809Y-86624523D01*
X94023809Y-86624523D02*
X94119047Y-86719761D01*
X94119047Y-86719761D02*
X94261904Y-86767380D01*
X94261904Y-86767380D02*
X94357142Y-86767380D01*
X93023809Y-86767380D02*
X93499999Y-86767380D01*
X93499999Y-86767380D02*
X93499999Y-85767380D01*
X92119047Y-86672142D02*
X92166666Y-86719761D01*
X92166666Y-86719761D02*
X92309523Y-86767380D01*
X92309523Y-86767380D02*
X92404761Y-86767380D01*
X92404761Y-86767380D02*
X92547618Y-86719761D01*
X92547618Y-86719761D02*
X92642856Y-86624523D01*
X92642856Y-86624523D02*
X92690475Y-86529285D01*
X92690475Y-86529285D02*
X92738094Y-86338809D01*
X92738094Y-86338809D02*
X92738094Y-86195952D01*
X92738094Y-86195952D02*
X92690475Y-86005476D01*
X92690475Y-86005476D02*
X92642856Y-85910238D01*
X92642856Y-85910238D02*
X92547618Y-85815000D01*
X92547618Y-85815000D02*
X92404761Y-85767380D01*
X92404761Y-85767380D02*
X92309523Y-85767380D01*
X92309523Y-85767380D02*
X92166666Y-85815000D01*
X92166666Y-85815000D02*
X92119047Y-85862619D01*
X91404761Y-85767380D02*
X91404761Y-86481666D01*
X91404761Y-86481666D02*
X91452380Y-86624523D01*
X91452380Y-86624523D02*
X91547618Y-86719761D01*
X91547618Y-86719761D02*
X91690475Y-86767380D01*
X91690475Y-86767380D02*
X91785713Y-86767380D01*
X90452380Y-86767380D02*
X90928570Y-86767380D01*
X90928570Y-86767380D02*
X90928570Y-85767380D01*
X89547618Y-86672142D02*
X89595237Y-86719761D01*
X89595237Y-86719761D02*
X89738094Y-86767380D01*
X89738094Y-86767380D02*
X89833332Y-86767380D01*
X89833332Y-86767380D02*
X89976189Y-86719761D01*
X89976189Y-86719761D02*
X90071427Y-86624523D01*
X90071427Y-86624523D02*
X90119046Y-86529285D01*
X90119046Y-86529285D02*
X90166665Y-86338809D01*
X90166665Y-86338809D02*
X90166665Y-86195952D01*
X90166665Y-86195952D02*
X90119046Y-86005476D01*
X90119046Y-86005476D02*
X90071427Y-85910238D01*
X90071427Y-85910238D02*
X89976189Y-85815000D01*
X89976189Y-85815000D02*
X89833332Y-85767380D01*
X89833332Y-85767380D02*
X89738094Y-85767380D01*
X89738094Y-85767380D02*
X89595237Y-85815000D01*
X89595237Y-85815000D02*
X89547618Y-85862619D01*
%TO.C,J1*%
X72617380Y-68866666D02*
X73331666Y-68866666D01*
X73331666Y-68866666D02*
X73474523Y-68819047D01*
X73474523Y-68819047D02*
X73569761Y-68723809D01*
X73569761Y-68723809D02*
X73617380Y-68580952D01*
X73617380Y-68580952D02*
X73617380Y-68485714D01*
X73617380Y-69866666D02*
X73617380Y-69295238D01*
X73617380Y-69580952D02*
X72617380Y-69580952D01*
X72617380Y-69580952D02*
X72760238Y-69485714D01*
X72760238Y-69485714D02*
X72855476Y-69390476D01*
X72855476Y-69390476D02*
X72903095Y-69295238D01*
D11*
%TO.C,U1*%
X86449901Y-34373359D02*
G75*
G03*
X86449901Y-34373359I-381000J0D01*
G01*
%TO.C,J1*%
X72460000Y-72560000D02*
X71210000Y-72560000D01*
X67440000Y-72260000D02*
X67440000Y-66140000D01*
X69550000Y-72260000D02*
X69550000Y-71650000D01*
X70850000Y-72260000D02*
X70850000Y-71650000D01*
X72160000Y-72260000D02*
X67440000Y-72260000D01*
X68050000Y-71650000D02*
X68050000Y-66750000D01*
X71550000Y-71650000D02*
X68050000Y-71650000D01*
X72460000Y-71310000D02*
X72460000Y-72560000D01*
X72360000Y-70800000D02*
X72160000Y-70800000D01*
X72160000Y-70500000D02*
X72360000Y-70500000D01*
X72260000Y-70500000D02*
X72260000Y-70800000D01*
X72360000Y-70500000D02*
X72360000Y-70800000D01*
X71550000Y-69700000D02*
X71550000Y-71650000D01*
X72160000Y-69700000D02*
X71550000Y-69700000D01*
X68050000Y-69300000D02*
X68550000Y-69300000D01*
X68550000Y-69300000D02*
X68550000Y-69100000D01*
X68050000Y-69200000D02*
X68550000Y-69200000D01*
X68550000Y-69100000D02*
X68050000Y-69100000D01*
X71550000Y-68700000D02*
X72160000Y-68700000D01*
X68050000Y-66750000D02*
X71550000Y-66750000D01*
X71550000Y-66750000D02*
X71550000Y-68700000D01*
X67440000Y-66140000D02*
X72160000Y-66140000D01*
X69550000Y-66140000D02*
X69550000Y-66750000D01*
X70850000Y-66140000D02*
X70850000Y-66750000D01*
X72160000Y-66140000D02*
X72160000Y-72260000D01*
%TD*%
%LPC*%
D12*
%TO.C,U4*%
X88050000Y-79120000D03*
X88050000Y-77620000D03*
X87550000Y-78370000D03*
X87050000Y-79120000D03*
X87050000Y-77620000D03*
%TD*%
D13*
%TO.C,J2*%
X70100000Y-54910000D03*
X70100000Y-60690000D03*
D14*
X70629999Y-53479999D03*
D15*
X66449999Y-53479999D03*
D14*
X70629999Y-62119999D03*
D15*
X66449999Y-62119999D03*
%TD*%
D16*
%TO.C,SW1*%
X93759999Y-88199999D03*
X96299999Y-88199999D03*
X98839999Y-88199999D03*
%TD*%
D17*
%TO.C,J4*%
X117280255Y-72319743D03*
D18*
X115484204Y-74115794D03*
X113688153Y-75911845D03*
X111892101Y-77707897D03*
X110096050Y-79503948D03*
X108299999Y-81299999D03*
X106503948Y-83096050D03*
X104707896Y-84892102D03*
%TD*%
D19*
%TO.C,J1*%
X70350000Y-70200000D03*
D20*
X70349999Y-68199999D03*
%TD*%
M02*
