%TF.GenerationSoftware,KiCad,Pcbnew,(6.0.9)*%
%TF.CreationDate,2023-01-23T17:19:02-06:00*%
%TF.ProjectId,pulse_ox_wearable,70756c73-655f-46f7-985f-776561726162,1*%
%TF.SameCoordinates,Original*%
%TF.FileFunction,Copper,L4,Bot*%
%TF.FilePolarity,Positive*%
%FSLAX46Y46*%
G04 Gerber Fmt 4.6, Leading zero omitted, Abs format (unit mm)*
G04 Created by KiCad (PCBNEW (6.0.9)) date 2023-01-23 17:19:02*
%MOMM*%
%LPD*%
G01*
G04 APERTURE LIST*
G04 Aperture macros list*
%AMRoundRect*
0 Rectangle with rounded corners*
0 $1 Rounding radius*
0 $2 $3 $4 $5 $6 $7 $8 $9 X,Y pos of 4 corners*
0 Add a 4 corners polygon primitive as box body*
4,1,4,$2,$3,$4,$5,$6,$7,$8,$9,$2,$3,0*
0 Add four circle primitives for the rounded corners*
1,1,$1+$1,$2,$3*
1,1,$1+$1,$4,$5*
1,1,$1+$1,$6,$7*
1,1,$1+$1,$8,$9*
0 Add four rect primitives between the rounded corners*
20,1,$1+$1,$2,$3,$4,$5,0*
20,1,$1+$1,$4,$5,$6,$7,0*
20,1,$1+$1,$6,$7,$8,$9,0*
20,1,$1+$1,$8,$9,$2,$3,0*%
%AMHorizOval*
0 Thick line with rounded ends*
0 $1 width*
0 $2 $3 position (X,Y) of the first rounded end (center of the circle)*
0 $4 $5 position (X,Y) of the second rounded end (center of the circle)*
0 Add line between two ends*
20,1,$1,$2,$3,$4,$5,0*
0 Add two circle primitives to create the rounded ends*
1,1,$1,$2,$3*
1,1,$1,$4,$5*%
%AMRotRect*
0 Rectangle, with rotation*
0 The origin of the aperture is its center*
0 $1 length*
0 $2 width*
0 $3 Rotation angle, in degrees counterclockwise*
0 Add horizontal line*
21,1,$1,$2,0,0,$3*%
G04 Aperture macros list end*
%TA.AperFunction,SMDPad,CuDef*%
%ADD10R,2.300000X2.800000*%
%TD*%
%TA.AperFunction,ComponentPad*%
%ADD11C,0.600000*%
%TD*%
%TA.AperFunction,ComponentPad*%
%ADD12O,1.600000X1.000000*%
%TD*%
%TA.AperFunction,ComponentPad*%
%ADD13O,2.100000X1.000000*%
%TD*%
%TA.AperFunction,ComponentPad*%
%ADD14RotRect,1.700000X1.700000X135.000000*%
%TD*%
%TA.AperFunction,ComponentPad*%
%ADD15HorizOval,1.700000X0.000000X0.000000X0.000000X0.000000X0*%
%TD*%
%TA.AperFunction,ComponentPad*%
%ADD16O,1.524000X1.524000*%
%TD*%
%TA.AperFunction,ComponentPad*%
%ADD17O,1.750000X1.200000*%
%TD*%
%TA.AperFunction,ComponentPad*%
%ADD18RoundRect,0.250000X0.625000X-0.350000X0.625000X0.350000X-0.625000X0.350000X-0.625000X-0.350000X0*%
%TD*%
%TA.AperFunction,ViaPad*%
%ADD19C,0.800000*%
%TD*%
%TA.AperFunction,ViaPad*%
%ADD20C,0.500000*%
%TD*%
%TA.AperFunction,Conductor*%
%ADD21C,0.250000*%
%TD*%
%TA.AperFunction,Conductor*%
%ADD22C,0.500000*%
%TD*%
G04 APERTURE END LIST*
D10*
%TO.P,U4,11,GND*%
%TO.N,GND*%
X87550000Y-78370000D03*
D11*
X88050000Y-77620000D03*
X88050000Y-79120000D03*
X87050000Y-77620000D03*
X87050000Y-79120000D03*
X87550000Y-78370000D03*
%TD*%
D12*
%TO.P,J2,S1,SHIELD*%
%TO.N,unconnected-(J2-PadS1)*%
X66450000Y-53480000D03*
D13*
X70630000Y-53480000D03*
X70630000Y-62120000D03*
D12*
X66450000Y-62120000D03*
%TD*%
D14*
%TO.P,J4,1,Pin_1*%
%TO.N,+3V3*%
X103412994Y-59287006D03*
D15*
%TO.P,J4,2,Pin_2*%
%TO.N,SDA*%
X105209045Y-57490955D03*
%TO.P,J4,3,Pin_3*%
%TO.N,SCL*%
X107005096Y-55694904D03*
%TO.P,J4,4,Pin_4*%
%TO.N,GND*%
X108801148Y-53898852D03*
%TD*%
D16*
%TO.P,SW1,3,C*%
%TO.N,unconnected-(SW1-Pad3)*%
X98840000Y-88200000D03*
%TO.P,SW1,2,B*%
%TO.N,VDD*%
X96300000Y-88200000D03*
%TO.P,SW1,1,A*%
%TO.N,/VDD_IN*%
X93760000Y-88200000D03*
%TD*%
D17*
%TO.P,J1,2,Pin_2*%
%TO.N,VDD*%
X70350000Y-68200000D03*
D18*
%TO.P,J1,1,Pin_1*%
%TO.N,GND*%
X70350000Y-70200000D03*
%TD*%
D19*
%TO.N,GND*%
X102900000Y-34700000D03*
X95700000Y-84200000D03*
X93700000Y-84200000D03*
X91700000Y-84200000D03*
X79871573Y-81171573D03*
X81285786Y-82585786D03*
X82700000Y-84000000D03*
X77871573Y-83271573D03*
X79285786Y-84685786D03*
X80700000Y-86100000D03*
X110400000Y-37900000D03*
X110400000Y-39899999D03*
X110400000Y-41900000D03*
X106528427Y-60171573D03*
X105114214Y-61585786D03*
X103700000Y-63000000D03*
X110028427Y-61771573D03*
X108614214Y-63185786D03*
X107200000Y-64600000D03*
X127128427Y-64971573D03*
X125714214Y-66385786D03*
X124300000Y-67800000D03*
X125228427Y-69771573D03*
X123814214Y-71185786D03*
X122400000Y-72600000D03*
X126400000Y-59800000D03*
X126400000Y-61799999D03*
X126400000Y-63800000D03*
X125000000Y-53600000D03*
X125000000Y-55599999D03*
X125000000Y-57600000D03*
X127200000Y-53000000D03*
X127200000Y-54999999D03*
X127200000Y-57000000D03*
X125300000Y-47000000D03*
X125300000Y-48999999D03*
X125300000Y-51000000D03*
X121271573Y-41171573D03*
X122685786Y-42585786D03*
X124100000Y-44000000D03*
X92228427Y-35671573D03*
X90814214Y-37085786D03*
X89400000Y-38500000D03*
X101000000Y-35500000D03*
X99000000Y-35500000D03*
X97000000Y-35500000D03*
X102600000Y-37500000D03*
X100600000Y-37500000D03*
X98600000Y-37500000D03*
X102400000Y-39700000D03*
X100400000Y-39700000D03*
X98400000Y-39700000D03*
X102100001Y-41800000D03*
X100100001Y-41800000D03*
X98099999Y-41800000D03*
X90500000Y-42000000D03*
X90500000Y-43999999D03*
X90500000Y-46000000D03*
X97099999Y-44000000D03*
X99100000Y-44000000D03*
X101100001Y-44000000D03*
X97300000Y-46300000D03*
X95300000Y-46300000D03*
X93300000Y-46300000D03*
X101300000Y-48600000D03*
X99300000Y-48600000D03*
X97300000Y-48600000D03*
X93800000Y-48600000D03*
X91800000Y-48600000D03*
X89800000Y-48600000D03*
X72900000Y-51500000D03*
X70900000Y-51500000D03*
X68900000Y-51500000D03*
X80028427Y-54428427D03*
X78614214Y-53014214D03*
X77200000Y-51600000D03*
X69800000Y-64500000D03*
X67800000Y-64500000D03*
X65800000Y-64500000D03*
X65700000Y-47000000D03*
X68528427Y-49828427D03*
X67114214Y-48414214D03*
X67114214Y-51242641D03*
X65700000Y-49828427D03*
X74085786Y-35714214D03*
X75500000Y-34300000D03*
X78328427Y-37128427D03*
X76914214Y-35714214D03*
X76914214Y-38542641D03*
X75500000Y-37128427D03*
X98499999Y-81100000D03*
X100500000Y-81100000D03*
X100500000Y-85100000D03*
X100500000Y-83100001D03*
X98500000Y-85100001D03*
X98500000Y-83100000D03*
X74700000Y-73700000D03*
X74700000Y-75700000D03*
X70700000Y-75700000D03*
X72700000Y-75700000D03*
X70700000Y-73700000D03*
X72700000Y-73700000D03*
X76614214Y-80385786D03*
X75200000Y-81800000D03*
X72371573Y-78971573D03*
X73785786Y-80385785D03*
X73785785Y-77557359D03*
X75200000Y-78971573D03*
X106700000Y-81100000D03*
X110800000Y-83100000D03*
X108800000Y-85100000D03*
X110800000Y-85100000D03*
X112800000Y-81100000D03*
X108800000Y-83100000D03*
X110800000Y-81100000D03*
X108800000Y-81100000D03*
X112800000Y-83100000D03*
X106700000Y-83100000D03*
X102700000Y-83100000D03*
X104700000Y-83100000D03*
X102700000Y-85100000D03*
X104700000Y-85100000D03*
X106700000Y-85100000D03*
X102700000Y-87100000D03*
X106700000Y-87100000D03*
X104700000Y-87100000D03*
X102700000Y-81100000D03*
X104700000Y-81100000D03*
X115600000Y-79200000D03*
X109500000Y-73200000D03*
X113500000Y-73200000D03*
X111500000Y-77200001D03*
X113500001Y-75200000D03*
X111500000Y-75200000D03*
X109500000Y-79200000D03*
X111500001Y-73200000D03*
X113500000Y-77200000D03*
X111500000Y-79200000D03*
X109500000Y-75200001D03*
X113500000Y-79200000D03*
X109500000Y-77200000D03*
X115599999Y-77200000D03*
X119600000Y-77200001D03*
X117600000Y-77200000D03*
X119600000Y-75200000D03*
X117599999Y-75200000D03*
X115600000Y-75200000D03*
X119599999Y-73200000D03*
X115599999Y-73200000D03*
X117600000Y-73200000D03*
X117600000Y-79200000D03*
X113500000Y-65100000D03*
X119600000Y-71100000D03*
X115600000Y-71100000D03*
X117600000Y-67100000D03*
X115600000Y-69100000D03*
X117600000Y-69100000D03*
X119600000Y-65100000D03*
X117600000Y-71100000D03*
X115600000Y-67100000D03*
X117600000Y-65100000D03*
X119600000Y-69100000D03*
X115600000Y-65100000D03*
X119600000Y-67100000D03*
X113500000Y-67100000D03*
X109500000Y-67100000D03*
X111500000Y-67100000D03*
X109500000Y-69100000D03*
X111500000Y-69100000D03*
X113500000Y-69100000D03*
X109500000Y-71100000D03*
X113500000Y-71100000D03*
X111500000Y-71100000D03*
X109500000Y-65100000D03*
X111500000Y-65100000D03*
X119600000Y-44000000D03*
X119600000Y-46000000D03*
X115600000Y-46000000D03*
X117600000Y-46000000D03*
X115600000Y-48000000D03*
X117600000Y-48000000D03*
X119600000Y-48000000D03*
X115600000Y-50000000D03*
X119600000Y-50000000D03*
X117600000Y-50000000D03*
X115600000Y-44000000D03*
X117600000Y-44000000D03*
X113500000Y-48000000D03*
X113500000Y-50000000D03*
X109500000Y-50000000D03*
X111500000Y-50000000D03*
X109500000Y-48000000D03*
X111500000Y-48000000D03*
X113500000Y-46000000D03*
X109500000Y-46000000D03*
X111500000Y-46000000D03*
X113500000Y-44000000D03*
X111500000Y-44000000D03*
X109500000Y-44000000D03*
%TO.N,VBUS*%
X82600000Y-63200000D03*
X76100000Y-53600000D03*
X91500000Y-62400000D03*
%TO.N,GND*%
X95300000Y-57700000D03*
X91200000Y-55700000D03*
X89500000Y-34599500D03*
X94500000Y-42900000D03*
X84900000Y-59200000D03*
X87500000Y-59200000D03*
X87500000Y-75500000D03*
X81700000Y-47900000D03*
X87500000Y-81200000D03*
X83500000Y-56300000D03*
X89100000Y-56300000D03*
X81400000Y-56300000D03*
X73300000Y-54000000D03*
X107700000Y-70700000D03*
X95900000Y-65500000D03*
X79800000Y-76300000D03*
X90100000Y-59200000D03*
X82500000Y-56300000D03*
X98200000Y-67600000D03*
X76700000Y-55000000D03*
X84600000Y-56300000D03*
X87500000Y-64500000D03*
X90200000Y-56200000D03*
X76400000Y-59300000D03*
X96500000Y-74200000D03*
X117600000Y-40900000D03*
X88000000Y-56300000D03*
X93900000Y-56400000D03*
X79280000Y-62680000D03*
X94500000Y-36000000D03*
X95300000Y-56400000D03*
X93900000Y-57700000D03*
X87500000Y-61100000D03*
X81200000Y-69100000D03*
X96500000Y-77800000D03*
X85500000Y-69200000D03*
X80000000Y-60200000D03*
X84100000Y-39000000D03*
X86200000Y-59200000D03*
X87600000Y-68300000D03*
X75900000Y-60500000D03*
X85700000Y-56300000D03*
X83800000Y-59200000D03*
X88900000Y-59200000D03*
X73500000Y-61400000D03*
X86800000Y-56300000D03*
X110100000Y-56200000D03*
X96400000Y-81800000D03*
%TO.N,+3V3*%
X102400000Y-66600000D03*
X80800000Y-36100000D03*
X81300000Y-44400000D03*
%TO.N,VDD*%
X81400000Y-71100000D03*
D20*
%TO.N,D-*%
X69704323Y-56800000D03*
X70250000Y-58124500D03*
%TO.N,D+*%
X69712921Y-58572663D03*
X69650000Y-57558850D03*
D19*
%TO.N,SDA*%
X102700000Y-45400000D03*
%TO.N,SCL*%
X106300000Y-46119152D03*
%TO.N,~{RTS}*%
X98000000Y-54900000D03*
X76600000Y-46600000D03*
%TO.N,~{DTR}*%
X72700000Y-44300000D03*
X91600000Y-54000000D03*
%TO.N,IO0*%
X84900000Y-49500000D03*
X102400000Y-49800000D03*
%TO.N,/VDD_IN*%
X84400000Y-81200000D03*
%TD*%
D21*
%TO.N,D+*%
X69681438Y-58541224D02*
G75*
G02*
X69650000Y-58465250I75962J75924D01*
G01*
%TO.N,D-*%
X70249988Y-57731528D02*
G75*
G03*
X69977161Y-57072838I-931488J28D01*
G01*
D22*
%TO.N,/VDD_IN*%
X84100014Y-81712132D02*
G75*
G02*
X84250001Y-81350001I512086J32D01*
G01*
X84950005Y-86049995D02*
G75*
G02*
X84100000Y-83997918I2052095J2052095D01*
G01*
X87002081Y-86900007D02*
G75*
G02*
X84950000Y-86050000I19J2902107D01*
G01*
X91540761Y-86900017D02*
G75*
G02*
X93109999Y-87550001I39J-2219183D01*
G01*
D21*
%TO.N,IO0*%
X101887867Y-49500014D02*
G75*
G02*
X102249999Y-49650001I33J-512086D01*
G01*
%TO.N,~{DTR}*%
X84653963Y-54000010D02*
G75*
G02*
X80806208Y-52406206I37J5441610D01*
G01*
%TO.N,~{RTS}*%
X95225951Y-53275021D02*
G75*
G02*
X97187499Y-54087501I49J-2773979D01*
G01*
X85528963Y-53275010D02*
G75*
G02*
X81681208Y-51681206I37J5441610D01*
G01*
D22*
%TO.N,SCL*%
X106705113Y-46810694D02*
G75*
G03*
X106502548Y-46321700I-691513J-6D01*
G01*
%TO.N,SDA*%
X104754502Y-54054542D02*
G75*
G02*
X104600000Y-53681472I373098J373042D01*
G01*
X104909072Y-54427572D02*
G75*
G03*
X104754522Y-54054522I-527572J-28D01*
G01*
X104599998Y-48643502D02*
G75*
G03*
X103649999Y-46350001I-3243498J2D01*
G01*
%TO.N,VDD*%
X78200016Y-74160660D02*
G75*
G03*
X77450000Y-72350000I-2560716J-40D01*
G01*
X95999989Y-89399989D02*
G75*
G03*
X96300000Y-88675735I-724289J724289D01*
G01*
X87753963Y-88400010D02*
G75*
G02*
X83906208Y-86806206I37J5441610D01*
G01*
X93319238Y-89699983D02*
G75*
G02*
X91750001Y-89049999I-38J2219183D01*
G01*
X77450068Y-72349932D02*
G75*
G02*
X77760660Y-71600000I310632J310632D01*
G01*
X77760660Y-71600016D02*
G75*
G02*
X75950000Y-70850000I40J2560716D01*
G01*
X79793800Y-82693784D02*
G75*
G02*
X78200000Y-78846036I3847800J3847784D01*
G01*
X71825000Y-68200011D02*
G75*
G02*
X74342981Y-69242983I0J-3560989D01*
G01*
X95275735Y-89700014D02*
G75*
G03*
X95999999Y-89399999I-35J1024314D01*
G01*
X80546446Y-71600019D02*
G75*
G03*
X81150000Y-71350000I-46J853619D01*
G01*
X90180761Y-88400017D02*
G75*
G02*
X91749999Y-89050001I39J-2219183D01*
G01*
X77450000Y-72350000D02*
X75950000Y-70850000D01*
%TO.N,+3V3*%
X101450500Y-65650540D02*
G75*
G02*
X100501041Y-63358274I2292300J2292240D01*
G01*
X92548118Y-50500002D02*
G75*
G02*
X96395874Y-52093792I-18J-5441598D01*
G01*
X81396021Y-49296009D02*
G75*
G02*
X80300000Y-46650000I2645979J2646009D01*
G01*
X80300023Y-36953553D02*
G75*
G02*
X80550001Y-36350001I853477J53D01*
G01*
X80525000Y-45175000D02*
G75*
G02*
X80375000Y-45175000I-75000J75000D01*
G01*
X99195050Y-54892996D02*
G75*
G02*
X100501041Y-58045888I-3152850J-3152904D01*
G01*
X100501097Y-58045880D02*
G75*
G02*
X101646492Y-57344410I725103J101880D01*
G01*
X80299918Y-45206066D02*
G75*
G02*
X80375000Y-45175000I43982J-34D01*
G01*
X80375010Y-45174990D02*
G75*
G02*
X80300000Y-44993933I181090J181090D01*
G01*
X84226345Y-50499951D02*
G75*
G02*
X81450001Y-49349999I-45J3926351D01*
G01*
X99195064Y-54892982D02*
X101646492Y-57344410D01*
X80300000Y-45206066D02*
X80300000Y-44993933D01*
%TO.N,VBUS*%
X76301041Y-53599984D02*
G75*
G02*
X76644239Y-53742157I-41J-485416D01*
G01*
X81361809Y-58459763D02*
G75*
G02*
X82600000Y-61448959I-2989209J-2989237D01*
G01*
X82599972Y-61448961D02*
G75*
G02*
X83745451Y-60843369I700328J61461D01*
G01*
X87212742Y-62399953D02*
G75*
G02*
X83951041Y-61048959I-42J4612753D01*
G01*
X81361827Y-58459745D02*
X83745451Y-60843369D01*
X76301041Y-53600000D02*
X76100000Y-53600000D01*
X83745451Y-60843369D02*
X83951041Y-61048959D01*
X76644239Y-53742157D02*
X81361827Y-58459745D01*
X82600000Y-61448959D02*
X82600000Y-63200000D01*
X91500000Y-62400000D02*
X87212742Y-62400000D01*
%TO.N,+3V3*%
X100501041Y-63358274D02*
X100501041Y-58045888D01*
X81300000Y-44400000D02*
X80525000Y-45175000D01*
X80300000Y-46650000D02*
X80300000Y-45206066D01*
X92548118Y-50500000D02*
X84226345Y-50500000D01*
X81396015Y-49296015D02*
X81450000Y-49350000D01*
X101450520Y-65650520D02*
X102400000Y-66600000D01*
X101646492Y-57344410D02*
X103112994Y-58810912D01*
X96395874Y-52093792D02*
X99195064Y-54892982D01*
X80300000Y-36953553D02*
X80300000Y-44993933D01*
X80800000Y-36100000D02*
X80550000Y-36350000D01*
%TO.N,VDD*%
X75950000Y-70850000D02*
X74342982Y-69242982D01*
X78200000Y-74160660D02*
X78200000Y-78846036D01*
X77760660Y-71600000D02*
X80546446Y-71600000D01*
X71825000Y-68200000D02*
X70350000Y-68200000D01*
X83906207Y-86806207D02*
X79793792Y-82693792D01*
X96300000Y-88675735D02*
X96300000Y-88200000D01*
X81400000Y-71100000D02*
X81150000Y-71350000D01*
X87753963Y-88400000D02*
X90180761Y-88400000D01*
X93319238Y-89700000D02*
X95275735Y-89700000D01*
D21*
%TO.N,D-*%
X70250000Y-58124500D02*
X70250000Y-57731528D01*
X69704323Y-56800000D02*
X69977161Y-57072838D01*
%TO.N,D+*%
X69712921Y-58572663D02*
X69681460Y-58541202D01*
X69650000Y-58465250D02*
X69650000Y-57558850D01*
D22*
%TO.N,SDA*%
X104909045Y-54427572D02*
X104909045Y-57190955D01*
X102700000Y-45400000D02*
X103650000Y-46350000D01*
X104600000Y-53681472D02*
X104600000Y-48643502D01*
%TO.N,SCL*%
X106705096Y-46810694D02*
X106705096Y-55394904D01*
X106502548Y-46321700D02*
X106300000Y-46119152D01*
D21*
%TO.N,~{RTS}*%
X95225951Y-53275000D02*
X85528963Y-53275000D01*
X76600000Y-46600000D02*
X81681207Y-51681207D01*
X97187500Y-54087500D02*
X98000000Y-54900000D01*
%TO.N,~{DTR}*%
X80806207Y-52406207D02*
X72700000Y-44300000D01*
X91600000Y-54000000D02*
X84653963Y-54000000D01*
%TO.N,IO0*%
X84900000Y-49500000D02*
X101887867Y-49500000D01*
X102400000Y-49800000D02*
X102250000Y-49650000D01*
D22*
%TO.N,/VDD_IN*%
X84100000Y-81712132D02*
X84100000Y-83997918D01*
X84250000Y-81350000D02*
X84400000Y-81200000D01*
X87002081Y-86900000D02*
X91540761Y-86900000D01*
X93110000Y-87550000D02*
X93760000Y-88200000D01*
%TD*%
%TA.AperFunction,Conductor*%
%TO.N,GND*%
G36*
X118180899Y-33820002D02*
G01*
X118200305Y-33835363D01*
X119264461Y-34863006D01*
X119266029Y-34864548D01*
X119304147Y-34902666D01*
X119307203Y-34905830D01*
X119344024Y-34945316D01*
X119345509Y-34946937D01*
X120800081Y-36562403D01*
X120801484Y-36563988D01*
X120836921Y-36604754D01*
X120839729Y-36608101D01*
X120873714Y-36650069D01*
X120875083Y-36651790D01*
X122213375Y-38364725D01*
X122214714Y-38366469D01*
X122247217Y-38409602D01*
X122249802Y-38413160D01*
X122280760Y-38457372D01*
X122282006Y-38459185D01*
X123497570Y-40261332D01*
X123498784Y-40263166D01*
X123528181Y-40308434D01*
X123530510Y-40312162D01*
X123558310Y-40358428D01*
X123559427Y-40360324D01*
X124646321Y-42242881D01*
X124647404Y-42244795D01*
X124673561Y-42291983D01*
X124675625Y-42295865D01*
X124700130Y-42343958D01*
X124701098Y-42345900D01*
X125517532Y-44019836D01*
X125654038Y-44299715D01*
X125654985Y-44301702D01*
X125677789Y-44350607D01*
X125679577Y-44354622D01*
X125700694Y-44404370D01*
X125701536Y-44406403D01*
X126045635Y-45258078D01*
X126477656Y-46327365D01*
X126515825Y-46421837D01*
X126516592Y-46423783D01*
X126535977Y-46474281D01*
X126537480Y-46478412D01*
X126555055Y-46529453D01*
X126555753Y-46531539D01*
X127227489Y-48598932D01*
X127228150Y-48601028D01*
X127243926Y-48652627D01*
X127245139Y-48656856D01*
X127259115Y-48709015D01*
X127259662Y-48711133D01*
X127404610Y-49292487D01*
X127785543Y-50820328D01*
X127786056Y-50822465D01*
X127798202Y-50875073D01*
X127799117Y-50879377D01*
X127809408Y-50932322D01*
X127809809Y-50934483D01*
X128187290Y-53075287D01*
X128187652Y-53077454D01*
X128196095Y-53130756D01*
X128196706Y-53135100D01*
X128203293Y-53188740D01*
X128203522Y-53190755D01*
X128424104Y-55289453D01*
X128430753Y-55352710D01*
X128430964Y-55354901D01*
X128435672Y-55408720D01*
X128435978Y-55413106D01*
X128438802Y-55466991D01*
X128438898Y-55469188D01*
X128454034Y-55902612D01*
X128514764Y-57641693D01*
X128514818Y-57643755D01*
X128515603Y-57688692D01*
X128515762Y-57697802D01*
X128515762Y-57702177D01*
X128514818Y-57756245D01*
X128514764Y-57758307D01*
X128486668Y-58562870D01*
X128438898Y-59930812D01*
X128438802Y-59933009D01*
X128435978Y-59986894D01*
X128435672Y-59991280D01*
X128430964Y-60045099D01*
X128430755Y-60047268D01*
X128203522Y-62209245D01*
X128203293Y-62211260D01*
X128199415Y-62242843D01*
X128196708Y-62264888D01*
X128196095Y-62269244D01*
X128187652Y-62322546D01*
X128187290Y-62324713D01*
X127809809Y-64465517D01*
X127809408Y-64467678D01*
X127799117Y-64520623D01*
X127798202Y-64524927D01*
X127786056Y-64577535D01*
X127785543Y-64579672D01*
X127750107Y-64721800D01*
X127397334Y-66136697D01*
X127259665Y-66688856D01*
X127259115Y-66690985D01*
X127245139Y-66743144D01*
X127243926Y-66747373D01*
X127228150Y-66798972D01*
X127227489Y-66801068D01*
X126555753Y-68868461D01*
X126555055Y-68870547D01*
X126537480Y-68921588D01*
X126535985Y-68925696D01*
X126516592Y-68976219D01*
X126515843Y-68978118D01*
X126193063Y-69777027D01*
X125701536Y-70993597D01*
X125700694Y-70995630D01*
X125679577Y-71045378D01*
X125677789Y-71049393D01*
X125654985Y-71098298D01*
X125654042Y-71100277D01*
X124708645Y-73038629D01*
X124701112Y-73054073D01*
X124700130Y-73056042D01*
X124675625Y-73104135D01*
X124673561Y-73108017D01*
X124647404Y-73155205D01*
X124646321Y-73157119D01*
X123559427Y-75039676D01*
X123558310Y-75041572D01*
X123530510Y-75087838D01*
X123528181Y-75091566D01*
X123498784Y-75136834D01*
X123497570Y-75138668D01*
X122282006Y-76940815D01*
X122280760Y-76942628D01*
X122249802Y-76986840D01*
X122247217Y-76990398D01*
X122214714Y-77033531D01*
X122213375Y-77035275D01*
X120875083Y-78748210D01*
X120873714Y-78749931D01*
X120839729Y-78791899D01*
X120836921Y-78795246D01*
X120801484Y-78836012D01*
X120800081Y-78837597D01*
X119345509Y-80453063D01*
X119344024Y-80454684D01*
X119307203Y-80494170D01*
X119304147Y-80497334D01*
X119266029Y-80535452D01*
X119264462Y-80536993D01*
X117700663Y-82047136D01*
X117699149Y-82048572D01*
X117659656Y-82085400D01*
X117656418Y-82088316D01*
X117615632Y-82123771D01*
X117614057Y-82125116D01*
X115948781Y-83522449D01*
X115947083Y-83523848D01*
X115905124Y-83557825D01*
X115901662Y-83560530D01*
X115880741Y-83576296D01*
X115858503Y-83593053D01*
X115856870Y-83594262D01*
X114098141Y-84872053D01*
X114096462Y-84873251D01*
X114052138Y-84904288D01*
X114048521Y-84906727D01*
X114003222Y-84936144D01*
X114001426Y-84937289D01*
X112157898Y-86089252D01*
X112156087Y-86090362D01*
X112125286Y-86108869D01*
X112109762Y-86118197D01*
X112105968Y-86120387D01*
X112058747Y-86146562D01*
X112056849Y-86147592D01*
X110137466Y-87168146D01*
X110135515Y-87169162D01*
X110087460Y-87193647D01*
X110083507Y-87195575D01*
X110034667Y-87218349D01*
X110032667Y-87219261D01*
X109048575Y-87657408D01*
X108046653Y-88103493D01*
X108044752Y-88104319D01*
X108005796Y-88120855D01*
X107995043Y-88125419D01*
X107990979Y-88127061D01*
X107940473Y-88146449D01*
X107938547Y-88147168D01*
X106830272Y-88550547D01*
X105895826Y-88890657D01*
X105893754Y-88891391D01*
X105842716Y-88908965D01*
X105838541Y-88910322D01*
X105786890Y-88926113D01*
X105784870Y-88926711D01*
X103695160Y-89525927D01*
X103693205Y-89526469D01*
X103662972Y-89534570D01*
X103640994Y-89540458D01*
X103636729Y-89541522D01*
X103584110Y-89553670D01*
X103581963Y-89554146D01*
X102831082Y-89713751D01*
X101455618Y-90006115D01*
X101453594Y-90006526D01*
X101400546Y-90016838D01*
X101396245Y-90017596D01*
X101342914Y-90026042D01*
X101340741Y-90026367D01*
X99188085Y-90328903D01*
X99185907Y-90329190D01*
X99174639Y-90330574D01*
X99132309Y-90335771D01*
X99128051Y-90336219D01*
X99074151Y-90340934D01*
X99072120Y-90341094D01*
X98152684Y-90405387D01*
X96903503Y-90492738D01*
X96901309Y-90492872D01*
X96847467Y-90495694D01*
X96843071Y-90495848D01*
X96793198Y-90496719D01*
X96789109Y-90496790D01*
X96786911Y-90496809D01*
X94613089Y-90496809D01*
X94610891Y-90496790D01*
X94606802Y-90496719D01*
X94556929Y-90495848D01*
X94552533Y-90495694D01*
X94498691Y-90492872D01*
X94496497Y-90492738D01*
X93247316Y-90405387D01*
X92327880Y-90341094D01*
X92325849Y-90340934D01*
X92271949Y-90336219D01*
X92267691Y-90335771D01*
X92225361Y-90330574D01*
X92214093Y-90329190D01*
X92211915Y-90328903D01*
X90059259Y-90026367D01*
X90057086Y-90026042D01*
X90003755Y-90017596D01*
X89999454Y-90016838D01*
X89946406Y-90006526D01*
X89944382Y-90006115D01*
X88568918Y-89713751D01*
X87818037Y-89554146D01*
X87815890Y-89553670D01*
X87763271Y-89541522D01*
X87759006Y-89540458D01*
X87737028Y-89534570D01*
X87706795Y-89526469D01*
X87704840Y-89525927D01*
X85615130Y-88926711D01*
X85613110Y-88926113D01*
X85561459Y-88910322D01*
X85557284Y-88908965D01*
X85506246Y-88891391D01*
X85504174Y-88890657D01*
X84569728Y-88550547D01*
X83461453Y-88147168D01*
X83459527Y-88146449D01*
X83409021Y-88127061D01*
X83404957Y-88125419D01*
X83394204Y-88120855D01*
X83355248Y-88104319D01*
X83353347Y-88103493D01*
X82351425Y-87657408D01*
X81367333Y-87219261D01*
X81365333Y-87218349D01*
X81316493Y-87195575D01*
X81312540Y-87193647D01*
X81264485Y-87169162D01*
X81262534Y-87168146D01*
X79343151Y-86147592D01*
X79341253Y-86146562D01*
X79294032Y-86120387D01*
X79290238Y-86118197D01*
X79274714Y-86108869D01*
X79243913Y-86090362D01*
X79242102Y-86089252D01*
X77398574Y-84937289D01*
X77396778Y-84936144D01*
X77351479Y-84906727D01*
X77347862Y-84904288D01*
X77303538Y-84873251D01*
X77301859Y-84872053D01*
X75543130Y-83594262D01*
X75541497Y-83593053D01*
X75519259Y-83576296D01*
X75498338Y-83560530D01*
X75494876Y-83557825D01*
X75452917Y-83523848D01*
X75451219Y-83522449D01*
X73785943Y-82125116D01*
X73784368Y-82123771D01*
X73743582Y-82088316D01*
X73740344Y-82085400D01*
X73700851Y-82048572D01*
X73699337Y-82047136D01*
X72135538Y-80536993D01*
X72133971Y-80535452D01*
X72095853Y-80497334D01*
X72092797Y-80494170D01*
X72055976Y-80454684D01*
X72054491Y-80453063D01*
X70599919Y-78837597D01*
X70598516Y-78836012D01*
X70563079Y-78795246D01*
X70560271Y-78791899D01*
X70526286Y-78749931D01*
X70524917Y-78748210D01*
X69186625Y-77035275D01*
X69185286Y-77033531D01*
X69152783Y-76990398D01*
X69150198Y-76986840D01*
X69119240Y-76942628D01*
X69117994Y-76940815D01*
X67902430Y-75138668D01*
X67901216Y-75136834D01*
X67871819Y-75091566D01*
X67869490Y-75087838D01*
X67841690Y-75041572D01*
X67840573Y-75039676D01*
X66753679Y-73157119D01*
X66752596Y-73155205D01*
X66726439Y-73108017D01*
X66724375Y-73104135D01*
X66699870Y-73056042D01*
X66698888Y-73054073D01*
X66691356Y-73038629D01*
X65745958Y-71100277D01*
X65745015Y-71098298D01*
X65722211Y-71049393D01*
X65720423Y-71045378D01*
X65699306Y-70995630D01*
X65698464Y-70993597D01*
X65206937Y-69777027D01*
X64884157Y-68978118D01*
X64883408Y-68976219D01*
X64864015Y-68925696D01*
X64862520Y-68921588D01*
X64844945Y-68870547D01*
X64844247Y-68868461D01*
X64653780Y-68282263D01*
X69364025Y-68282263D01*
X69404170Y-68449479D01*
X69483044Y-68602293D01*
X69488036Y-68608015D01*
X69488037Y-68608017D01*
X69551786Y-68681094D01*
X69596091Y-68731882D01*
X69630336Y-68755950D01*
X69730570Y-68826396D01*
X69730572Y-68826397D01*
X69736787Y-68830765D01*
X69897008Y-68893232D01*
X70028168Y-68910500D01*
X70668119Y-68910500D01*
X70795723Y-68895058D01*
X70956589Y-68834272D01*
X70996596Y-68806776D01*
X71092054Y-68741170D01*
X71092056Y-68741169D01*
X71098313Y-68736868D01*
X71212711Y-68608470D01*
X71213774Y-68609417D01*
X71262642Y-68570071D01*
X71310811Y-68560500D01*
X71786708Y-68560500D01*
X71806419Y-68562051D01*
X71815206Y-68563443D01*
X71815207Y-68563443D01*
X71825000Y-68564994D01*
X71834798Y-68563442D01*
X71836842Y-68563442D01*
X71859622Y-68562212D01*
X72037487Y-68570950D01*
X72132522Y-68575618D01*
X72144818Y-68576830D01*
X72259254Y-68593804D01*
X72443255Y-68621098D01*
X72455382Y-68623510D01*
X72748036Y-68696815D01*
X72759869Y-68700404D01*
X73043936Y-68802044D01*
X73055359Y-68806776D01*
X73328097Y-68935770D01*
X73338984Y-68941589D01*
X73597765Y-69096694D01*
X73608046Y-69103563D01*
X73850388Y-69283294D01*
X73859937Y-69291130D01*
X74062357Y-69474591D01*
X74077687Y-69491674D01*
X74079067Y-69493054D01*
X74084894Y-69501074D01*
X74092913Y-69506900D01*
X74100117Y-69512134D01*
X74115152Y-69524976D01*
X75668008Y-71077832D01*
X75680849Y-71092866D01*
X75691910Y-71108090D01*
X75699194Y-71113382D01*
X75701340Y-71115327D01*
X75702794Y-71116781D01*
X75704241Y-71117957D01*
X75743505Y-71153543D01*
X75747985Y-71157809D01*
X77163607Y-72573431D01*
X77171914Y-72582596D01*
X77182404Y-72595379D01*
X77185842Y-72599829D01*
X77186084Y-72600071D01*
X77191910Y-72608090D01*
X77199929Y-72613916D01*
X77203184Y-72617171D01*
X77218056Y-72630613D01*
X77354780Y-72783608D01*
X77363589Y-72794654D01*
X77498174Y-72984332D01*
X77505692Y-72996296D01*
X77618199Y-73199860D01*
X77624329Y-73212590D01*
X77713332Y-73427456D01*
X77717999Y-73440792D01*
X77782389Y-73664286D01*
X77785530Y-73678044D01*
X77818305Y-73870932D01*
X77824493Y-73907350D01*
X77826075Y-73921390D01*
X77837579Y-74126187D01*
X77836557Y-74146409D01*
X77836557Y-74150871D01*
X77835006Y-74160666D01*
X77836558Y-74170462D01*
X77837948Y-74179239D01*
X77839500Y-74198952D01*
X77839500Y-78807746D01*
X77837949Y-78827454D01*
X77835006Y-78846038D01*
X77835029Y-78846181D01*
X77852925Y-79301612D01*
X77906516Y-79754377D01*
X77995465Y-80201541D01*
X78119223Y-80640348D01*
X78120077Y-80642664D01*
X78120081Y-80642675D01*
X78270060Y-81049209D01*
X78277027Y-81068093D01*
X78278057Y-81070328D01*
X78278059Y-81070332D01*
X78447135Y-81437082D01*
X78467906Y-81482138D01*
X78469109Y-81484286D01*
X78469112Y-81484292D01*
X78607120Y-81730723D01*
X78690681Y-81879931D01*
X78943979Y-82259019D01*
X79226240Y-82617065D01*
X79535564Y-82951692D01*
X79535702Y-82951881D01*
X79543663Y-82957665D01*
X79543664Y-82957666D01*
X79550922Y-82962939D01*
X79565956Y-82975780D01*
X83624219Y-87034043D01*
X83637059Y-87049076D01*
X83648118Y-87064297D01*
X83648235Y-87064382D01*
X83982928Y-87373767D01*
X83984871Y-87375299D01*
X83984876Y-87375303D01*
X84063831Y-87437546D01*
X84340974Y-87656028D01*
X84343035Y-87657405D01*
X84343039Y-87657408D01*
X84568551Y-87808090D01*
X84720063Y-87909327D01*
X84924547Y-88023844D01*
X85115689Y-88130890D01*
X85115701Y-88130896D01*
X85117856Y-88132103D01*
X85120102Y-88133138D01*
X85120111Y-88133143D01*
X85529663Y-88321949D01*
X85531902Y-88322981D01*
X85534213Y-88323834D01*
X85534214Y-88323834D01*
X85957320Y-88479928D01*
X85957331Y-88479932D01*
X85959647Y-88480786D01*
X85962038Y-88481460D01*
X85962037Y-88481460D01*
X86396081Y-88603876D01*
X86396094Y-88603879D01*
X86398455Y-88604545D01*
X86845621Y-88693494D01*
X86984625Y-88709947D01*
X87295933Y-88746795D01*
X87295942Y-88746796D01*
X87298386Y-88747085D01*
X87447916Y-88752961D01*
X87743334Y-88764570D01*
X87743335Y-88764570D01*
X87753902Y-88764985D01*
X87753961Y-88764994D01*
X87763571Y-88763472D01*
X87763574Y-88763472D01*
X87772544Y-88762051D01*
X87792253Y-88760500D01*
X90142475Y-88760500D01*
X90162184Y-88762051D01*
X90170972Y-88763443D01*
X90170973Y-88763443D01*
X90180767Y-88764994D01*
X90190563Y-88763442D01*
X90199658Y-88763442D01*
X90214808Y-88762748D01*
X90397587Y-88774725D01*
X90415141Y-88775875D01*
X90431477Y-88778026D01*
X90542611Y-88800130D01*
X90653741Y-88822233D01*
X90669659Y-88826497D01*
X90884264Y-88899345D01*
X90899473Y-88905645D01*
X91066911Y-88988214D01*
X91102720Y-89005873D01*
X91116993Y-89014113D01*
X91189884Y-89062816D01*
X91305433Y-89140022D01*
X91318495Y-89150046D01*
X91433953Y-89251299D01*
X91469382Y-89282369D01*
X91479786Y-89293773D01*
X91486084Y-89300071D01*
X91491910Y-89308090D01*
X91495355Y-89310593D01*
X91708264Y-89500859D01*
X91944574Y-89668529D01*
X92198171Y-89808685D01*
X92201427Y-89810034D01*
X92201436Y-89810038D01*
X92462591Y-89918209D01*
X92462599Y-89918212D01*
X92465866Y-89919565D01*
X92744293Y-89999775D01*
X92747765Y-90000365D01*
X92747770Y-90000366D01*
X92887748Y-90024147D01*
X93029950Y-90048306D01*
X93138912Y-90054424D01*
X93305949Y-90063802D01*
X93305951Y-90063802D01*
X93314881Y-90064303D01*
X93319244Y-90064994D01*
X93337817Y-90062052D01*
X93357530Y-90060500D01*
X95237455Y-90060500D01*
X95257162Y-90062051D01*
X95265951Y-90063443D01*
X95265952Y-90063443D01*
X95275747Y-90064994D01*
X95285543Y-90063442D01*
X95285544Y-90063442D01*
X95286297Y-90063323D01*
X95297767Y-90062041D01*
X95452767Y-90051877D01*
X95452770Y-90051877D01*
X95456881Y-90051607D01*
X95460926Y-90050802D01*
X95460928Y-90050802D01*
X95630867Y-90016995D01*
X95630874Y-90016993D01*
X95634916Y-90016189D01*
X95806804Y-89957837D01*
X95887159Y-89918209D01*
X95965906Y-89879374D01*
X95965910Y-89879372D01*
X95969606Y-89877549D01*
X96120536Y-89776699D01*
X96123628Y-89773987D01*
X96123635Y-89773982D01*
X96192315Y-89713751D01*
X96240304Y-89671665D01*
X96249314Y-89664467D01*
X96250069Y-89663918D01*
X96258090Y-89658090D01*
X96264558Y-89649188D01*
X96271763Y-89640170D01*
X96373966Y-89523632D01*
X96373967Y-89523630D01*
X96376688Y-89520528D01*
X96477537Y-89369599D01*
X96493490Y-89337252D01*
X96523620Y-89276155D01*
X96557824Y-89206799D01*
X96606703Y-89062815D01*
X96647541Y-89004741D01*
X96674765Y-88988214D01*
X96738653Y-88959769D01*
X96887032Y-88851965D01*
X96912353Y-88823844D01*
X97005336Y-88720576D01*
X97005337Y-88720575D01*
X97009755Y-88715668D01*
X97075675Y-88601492D01*
X97098155Y-88562555D01*
X97098156Y-88562554D01*
X97101459Y-88556832D01*
X97158135Y-88382402D01*
X97177306Y-88200000D01*
X97962694Y-88200000D01*
X97981865Y-88382402D01*
X98038541Y-88556832D01*
X98041844Y-88562554D01*
X98041845Y-88562555D01*
X98064325Y-88601492D01*
X98130245Y-88715668D01*
X98134663Y-88720575D01*
X98134664Y-88720576D01*
X98227648Y-88823844D01*
X98252968Y-88851965D01*
X98258307Y-88855844D01*
X98332406Y-88909680D01*
X98401347Y-88959769D01*
X98407375Y-88962453D01*
X98407377Y-88962454D01*
X98546662Y-89024468D01*
X98568898Y-89034368D01*
X98658597Y-89053434D01*
X98741840Y-89071128D01*
X98741844Y-89071128D01*
X98748297Y-89072500D01*
X98931703Y-89072500D01*
X98938156Y-89071128D01*
X98938160Y-89071128D01*
X99021403Y-89053434D01*
X99111102Y-89034368D01*
X99133338Y-89024468D01*
X99272623Y-88962454D01*
X99272625Y-88962453D01*
X99278653Y-88959769D01*
X99347595Y-88909680D01*
X99421693Y-88855844D01*
X99427032Y-88851965D01*
X99452353Y-88823844D01*
X99545336Y-88720576D01*
X99545337Y-88720575D01*
X99549755Y-88715668D01*
X99615675Y-88601492D01*
X99638155Y-88562555D01*
X99638156Y-88562554D01*
X99641459Y-88556832D01*
X99698135Y-88382402D01*
X99717306Y-88200000D01*
X99698135Y-88017598D01*
X99641459Y-87843168D01*
X99630957Y-87824977D01*
X99553058Y-87690053D01*
X99549755Y-87684332D01*
X99545336Y-87679424D01*
X99431447Y-87552938D01*
X99431445Y-87552937D01*
X99427032Y-87548035D01*
X99341233Y-87485698D01*
X99283995Y-87444112D01*
X99283994Y-87444111D01*
X99278653Y-87440231D01*
X99272625Y-87437547D01*
X99272623Y-87437546D01*
X99117133Y-87368317D01*
X99117131Y-87368316D01*
X99111102Y-87365632D01*
X99021403Y-87346566D01*
X98938160Y-87328872D01*
X98938156Y-87328872D01*
X98931703Y-87327500D01*
X98748297Y-87327500D01*
X98741844Y-87328872D01*
X98741840Y-87328872D01*
X98658597Y-87346566D01*
X98568898Y-87365632D01*
X98562869Y-87368316D01*
X98562867Y-87368317D01*
X98407377Y-87437546D01*
X98407375Y-87437547D01*
X98401347Y-87440231D01*
X98396006Y-87444111D01*
X98396005Y-87444112D01*
X98338767Y-87485698D01*
X98252968Y-87548035D01*
X98248555Y-87552937D01*
X98248553Y-87552938D01*
X98134664Y-87679424D01*
X98130245Y-87684332D01*
X98126942Y-87690053D01*
X98049044Y-87824977D01*
X98038541Y-87843168D01*
X97981865Y-88017598D01*
X97962694Y-88200000D01*
X97177306Y-88200000D01*
X97158135Y-88017598D01*
X97101459Y-87843168D01*
X97090957Y-87824977D01*
X97013058Y-87690053D01*
X97009755Y-87684332D01*
X97005336Y-87679424D01*
X96891447Y-87552938D01*
X96891445Y-87552937D01*
X96887032Y-87548035D01*
X96801233Y-87485698D01*
X96743995Y-87444112D01*
X96743994Y-87444111D01*
X96738653Y-87440231D01*
X96732625Y-87437547D01*
X96732623Y-87437546D01*
X96577133Y-87368317D01*
X96577131Y-87368316D01*
X96571102Y-87365632D01*
X96481403Y-87346566D01*
X96398160Y-87328872D01*
X96398156Y-87328872D01*
X96391703Y-87327500D01*
X96208297Y-87327500D01*
X96201844Y-87328872D01*
X96201840Y-87328872D01*
X96118597Y-87346566D01*
X96028898Y-87365632D01*
X96022869Y-87368316D01*
X96022867Y-87368317D01*
X95867377Y-87437546D01*
X95867375Y-87437547D01*
X95861347Y-87440231D01*
X95856006Y-87444111D01*
X95856005Y-87444112D01*
X95798767Y-87485698D01*
X95712968Y-87548035D01*
X95708555Y-87552937D01*
X95708553Y-87552938D01*
X95594664Y-87679424D01*
X95590245Y-87684332D01*
X95586942Y-87690053D01*
X95509044Y-87824977D01*
X95498541Y-87843168D01*
X95441865Y-88017598D01*
X95422694Y-88200000D01*
X95441865Y-88382402D01*
X95498541Y-88556832D01*
X95501844Y-88562554D01*
X95501845Y-88562555D01*
X95524325Y-88601492D01*
X95590245Y-88715668D01*
X95594663Y-88720575D01*
X95594664Y-88720576D01*
X95687648Y-88823844D01*
X95712968Y-88851965D01*
X95775657Y-88897511D01*
X95819010Y-88953732D01*
X95825086Y-89024468D01*
X95798995Y-89079379D01*
X95786892Y-89094127D01*
X95766452Y-89119033D01*
X95756392Y-89128515D01*
X95756945Y-89129068D01*
X95749929Y-89136084D01*
X95741910Y-89141910D01*
X95736084Y-89149929D01*
X95729068Y-89156945D01*
X95728520Y-89156397D01*
X95719003Y-89166494D01*
X95654092Y-89219766D01*
X95633557Y-89233487D01*
X95540684Y-89283131D01*
X95517868Y-89292582D01*
X95417093Y-89323154D01*
X95392871Y-89327973D01*
X95309361Y-89336200D01*
X95295432Y-89335790D01*
X95295432Y-89336557D01*
X95285520Y-89336557D01*
X95275723Y-89335006D01*
X95258181Y-89337785D01*
X95257152Y-89337948D01*
X95237437Y-89339500D01*
X93357524Y-89339500D01*
X93337815Y-89337949D01*
X93329027Y-89336557D01*
X93329026Y-89336557D01*
X93319232Y-89335006D01*
X93309436Y-89336558D01*
X93300341Y-89336558D01*
X93285191Y-89337252D01*
X93084861Y-89324125D01*
X93068520Y-89321974D01*
X92902637Y-89288980D01*
X92846260Y-89277767D01*
X92830342Y-89273502D01*
X92615742Y-89200657D01*
X92600514Y-89194349D01*
X92523554Y-89156397D01*
X92397280Y-89094127D01*
X92383007Y-89085887D01*
X92236826Y-88988214D01*
X92194567Y-88959978D01*
X92181505Y-88949954D01*
X92030616Y-88817629D01*
X92020214Y-88806227D01*
X92013916Y-88799929D01*
X92008090Y-88791910D01*
X92004645Y-88789407D01*
X91791735Y-88599140D01*
X91555426Y-88431471D01*
X91301829Y-88291315D01*
X91298573Y-88289967D01*
X91298564Y-88289962D01*
X91037408Y-88181791D01*
X91037400Y-88181788D01*
X91034133Y-88180435D01*
X90755706Y-88100225D01*
X90752234Y-88099635D01*
X90752229Y-88099634D01*
X90602675Y-88074226D01*
X90470049Y-88051694D01*
X90361087Y-88045576D01*
X90194050Y-88036198D01*
X90194048Y-88036198D01*
X90185118Y-88035697D01*
X90180755Y-88035006D01*
X90162182Y-88037948D01*
X90142469Y-88039500D01*
X87792257Y-88039500D01*
X87772545Y-88037949D01*
X87763757Y-88036557D01*
X87753965Y-88035006D01*
X87743440Y-88036673D01*
X87718781Y-88038128D01*
X87553550Y-88031634D01*
X87360260Y-88024038D01*
X87350398Y-88023262D01*
X87130262Y-87997207D01*
X86964019Y-87977530D01*
X86954264Y-87975984D01*
X86572662Y-87900077D01*
X86563055Y-87897771D01*
X86349159Y-87837445D01*
X86188601Y-87792162D01*
X86179192Y-87789105D01*
X85814181Y-87654444D01*
X85805041Y-87650658D01*
X85451703Y-87487766D01*
X85442905Y-87483283D01*
X85103440Y-87293173D01*
X85095013Y-87288009D01*
X84966479Y-87202126D01*
X84771509Y-87071851D01*
X84763521Y-87066048D01*
X84457974Y-86825174D01*
X84450453Y-86818751D01*
X84422620Y-86793022D01*
X84186936Y-86575159D01*
X84170529Y-86556695D01*
X84170126Y-86556140D01*
X84170123Y-86556137D01*
X84164296Y-86548117D01*
X84156276Y-86542290D01*
X84156274Y-86542288D01*
X84149076Y-86537059D01*
X84134042Y-86524218D01*
X81607744Y-83997920D01*
X83735006Y-83997920D01*
X83735816Y-84003036D01*
X83736181Y-84010469D01*
X83736181Y-84010470D01*
X83748157Y-84254202D01*
X83751296Y-84318094D01*
X83751748Y-84321143D01*
X83751749Y-84321150D01*
X83788704Y-84570266D01*
X83798334Y-84635184D01*
X83876225Y-84946137D01*
X83984219Y-85247958D01*
X84121277Y-85537741D01*
X84122860Y-85540382D01*
X84284489Y-85810044D01*
X84284495Y-85810053D01*
X84286078Y-85812694D01*
X84287921Y-85815179D01*
X84413875Y-85985007D01*
X84477036Y-86070170D01*
X84479118Y-86072467D01*
X84683491Y-86297959D01*
X84683493Y-86297960D01*
X84688821Y-86303839D01*
X84691910Y-86308090D01*
X84696108Y-86311140D01*
X84929826Y-86522969D01*
X84932312Y-86524813D01*
X84932316Y-86524816D01*
X85033196Y-86599634D01*
X85187302Y-86713927D01*
X85462256Y-86878729D01*
X85752039Y-87015787D01*
X85754954Y-87016830D01*
X86050944Y-87122739D01*
X86050951Y-87122741D01*
X86053860Y-87123782D01*
X86056850Y-87124531D01*
X86056860Y-87124534D01*
X86332773Y-87193647D01*
X86364814Y-87201673D01*
X86367861Y-87202125D01*
X86367866Y-87202126D01*
X86678848Y-87248258D01*
X86678855Y-87248259D01*
X86681904Y-87248711D01*
X86684984Y-87248862D01*
X86684991Y-87248863D01*
X86832694Y-87256120D01*
X86997027Y-87264194D01*
X87002079Y-87264994D01*
X87011872Y-87263443D01*
X87011879Y-87263442D01*
X87020661Y-87262051D01*
X87040371Y-87260500D01*
X91502475Y-87260500D01*
X91522184Y-87262051D01*
X91530972Y-87263443D01*
X91530973Y-87263443D01*
X91540767Y-87264994D01*
X91550563Y-87263442D01*
X91559658Y-87263442D01*
X91574808Y-87262748D01*
X91757587Y-87274725D01*
X91775141Y-87275875D01*
X91791477Y-87278026D01*
X91901608Y-87299930D01*
X92013741Y-87322233D01*
X92029659Y-87326497D01*
X92244264Y-87399345D01*
X92259473Y-87405645D01*
X92329609Y-87440231D01*
X92462720Y-87505873D01*
X92476993Y-87514113D01*
X92535100Y-87552938D01*
X92665433Y-87640022D01*
X92678497Y-87650048D01*
X92718489Y-87685119D01*
X92829385Y-87782373D01*
X92839765Y-87793750D01*
X92846080Y-87800066D01*
X92851910Y-87808090D01*
X92859933Y-87813919D01*
X92859934Y-87813920D01*
X92867134Y-87819151D01*
X92882168Y-87831992D01*
X92887954Y-87837778D01*
X92921980Y-87900090D01*
X92918692Y-87965809D01*
X92909990Y-87992591D01*
X92901865Y-88017598D01*
X92882694Y-88200000D01*
X92901865Y-88382402D01*
X92958541Y-88556832D01*
X92961844Y-88562554D01*
X92961845Y-88562555D01*
X92984325Y-88601492D01*
X93050245Y-88715668D01*
X93054663Y-88720575D01*
X93054664Y-88720576D01*
X93147648Y-88823844D01*
X93172968Y-88851965D01*
X93178307Y-88855844D01*
X93252406Y-88909680D01*
X93321347Y-88959769D01*
X93327375Y-88962453D01*
X93327377Y-88962454D01*
X93466662Y-89024468D01*
X93488898Y-89034368D01*
X93578597Y-89053434D01*
X93661840Y-89071128D01*
X93661844Y-89071128D01*
X93668297Y-89072500D01*
X93851703Y-89072500D01*
X93858156Y-89071128D01*
X93858160Y-89071128D01*
X93941403Y-89053434D01*
X94031102Y-89034368D01*
X94053338Y-89024468D01*
X94192623Y-88962454D01*
X94192625Y-88962453D01*
X94198653Y-88959769D01*
X94267595Y-88909680D01*
X94341693Y-88855844D01*
X94347032Y-88851965D01*
X94372353Y-88823844D01*
X94465336Y-88720576D01*
X94465337Y-88720575D01*
X94469755Y-88715668D01*
X94535675Y-88601492D01*
X94558155Y-88562555D01*
X94558156Y-88562554D01*
X94561459Y-88556832D01*
X94618135Y-88382402D01*
X94637306Y-88200000D01*
X94618135Y-88017598D01*
X94561459Y-87843168D01*
X94550957Y-87824977D01*
X94473058Y-87690053D01*
X94469755Y-87684332D01*
X94465336Y-87679424D01*
X94351447Y-87552938D01*
X94351445Y-87552937D01*
X94347032Y-87548035D01*
X94261233Y-87485698D01*
X94203995Y-87444112D01*
X94203994Y-87444111D01*
X94198653Y-87440231D01*
X94192625Y-87437547D01*
X94192623Y-87437546D01*
X94037133Y-87368317D01*
X94037131Y-87368316D01*
X94031102Y-87365632D01*
X93941403Y-87346566D01*
X93858160Y-87328872D01*
X93858156Y-87328872D01*
X93851703Y-87327500D01*
X93668297Y-87327500D01*
X93661844Y-87328872D01*
X93661840Y-87328872D01*
X93578904Y-87346501D01*
X93511740Y-87360777D01*
X93440950Y-87355375D01*
X93396449Y-87326625D01*
X93391992Y-87322168D01*
X93379151Y-87307134D01*
X93373917Y-87299930D01*
X93373916Y-87299929D01*
X93368090Y-87291910D01*
X93364645Y-87289407D01*
X93151735Y-87099140D01*
X92915426Y-86931471D01*
X92661829Y-86791315D01*
X92658573Y-86789967D01*
X92658564Y-86789962D01*
X92397408Y-86681791D01*
X92397400Y-86681788D01*
X92394133Y-86680435D01*
X92115706Y-86600225D01*
X92112234Y-86599635D01*
X92112229Y-86599634D01*
X91918581Y-86566735D01*
X91830049Y-86551694D01*
X91721087Y-86545576D01*
X91554050Y-86536198D01*
X91554048Y-86536198D01*
X91545118Y-86535697D01*
X91540755Y-86535006D01*
X91522182Y-86537948D01*
X91502469Y-86539500D01*
X87040375Y-86539500D01*
X87020663Y-86537949D01*
X87011875Y-86536557D01*
X87002083Y-86535006D01*
X86992291Y-86536557D01*
X86987736Y-86536557D01*
X86967643Y-86537573D01*
X86724578Y-86523921D01*
X86710545Y-86522340D01*
X86572547Y-86498892D01*
X86443498Y-86476965D01*
X86429723Y-86473820D01*
X86169454Y-86398837D01*
X86156118Y-86394171D01*
X85967721Y-86316134D01*
X85905865Y-86290512D01*
X85893143Y-86284385D01*
X85656068Y-86153358D01*
X85644120Y-86145851D01*
X85423194Y-85989095D01*
X85412161Y-85980296D01*
X85230611Y-85818055D01*
X85217179Y-85803193D01*
X85213919Y-85799933D01*
X85208090Y-85791910D01*
X85200064Y-85786079D01*
X85196751Y-85782766D01*
X85181975Y-85769411D01*
X85019714Y-85587839D01*
X85010905Y-85576793D01*
X84854165Y-85355891D01*
X84846647Y-85343927D01*
X84715623Y-85106859D01*
X84709492Y-85094128D01*
X84605836Y-84843881D01*
X84601171Y-84830550D01*
X84526184Y-84570266D01*
X84523040Y-84556491D01*
X84477668Y-84289458D01*
X84476086Y-84275417D01*
X84462433Y-84032318D01*
X84463443Y-84012321D01*
X84463443Y-84007711D01*
X84464994Y-83997916D01*
X84462051Y-83979336D01*
X84460500Y-83959624D01*
X84460500Y-81808927D01*
X84480502Y-81740806D01*
X84534158Y-81694313D01*
X84553346Y-81687368D01*
X84604829Y-81673332D01*
X84612479Y-81668635D01*
X84612481Y-81668634D01*
X84721793Y-81601517D01*
X84721796Y-81601514D01*
X84729445Y-81596818D01*
X84748996Y-81575219D01*
X84821548Y-81495064D01*
X84821549Y-81495063D01*
X84827576Y-81488404D01*
X84852442Y-81437082D01*
X84887420Y-81364886D01*
X84887420Y-81364885D01*
X84891335Y-81356805D01*
X84915596Y-81212601D01*
X84915750Y-81200000D01*
X84895020Y-81055246D01*
X84834495Y-80922129D01*
X84824142Y-80910114D01*
X84744901Y-80818150D01*
X84744898Y-80818148D01*
X84739041Y-80811350D01*
X84616332Y-80731814D01*
X84599366Y-80726740D01*
X84484834Y-80692487D01*
X84484832Y-80692487D01*
X84476233Y-80689915D01*
X84467258Y-80689860D01*
X84467257Y-80689860D01*
X84404163Y-80689475D01*
X84330005Y-80689022D01*
X84189404Y-80729206D01*
X84065732Y-80807237D01*
X83968932Y-80916841D01*
X83906786Y-81049209D01*
X83884288Y-81193699D01*
X83884682Y-81196712D01*
X83867004Y-81257961D01*
X83832206Y-81314749D01*
X83779645Y-81441654D01*
X83747585Y-81575219D01*
X83745517Y-81601517D01*
X83742872Y-81635143D01*
X83741405Y-81645169D01*
X83739957Y-81649294D01*
X83739500Y-81654571D01*
X83739500Y-81673075D01*
X83739113Y-81682943D01*
X83738991Y-81684496D01*
X83737830Y-81694313D01*
X83735006Y-81712155D01*
X83736557Y-81721944D01*
X83736557Y-81721947D01*
X83737948Y-81730723D01*
X83739500Y-81750441D01*
X83739500Y-83959628D01*
X83737949Y-83979336D01*
X83735006Y-83997920D01*
X81607744Y-83997920D01*
X80075781Y-82465957D01*
X80062940Y-82450923D01*
X80057711Y-82443725D01*
X80057708Y-82443722D01*
X80051882Y-82435703D01*
X80043861Y-82429875D01*
X80043859Y-82429873D01*
X80043344Y-82429499D01*
X80024884Y-82413095D01*
X79884258Y-82260967D01*
X79781253Y-82149537D01*
X79774831Y-82142017D01*
X79533961Y-81836473D01*
X79528151Y-81828476D01*
X79462835Y-81730723D01*
X79312004Y-81504990D01*
X79306834Y-81496554D01*
X79116726Y-81157091D01*
X79112235Y-81148276D01*
X78949353Y-80794959D01*
X78945567Y-80785819D01*
X78810905Y-80420803D01*
X78807848Y-80411394D01*
X78702241Y-80036948D01*
X78699931Y-80027328D01*
X78646117Y-79756793D01*
X78624026Y-79645734D01*
X78622479Y-79635970D01*
X78576748Y-79249601D01*
X78575972Y-79239739D01*
X78561880Y-78881171D01*
X78563335Y-78856507D01*
X78563443Y-78855825D01*
X78564994Y-78846034D01*
X78562051Y-78827454D01*
X78560500Y-78807742D01*
X78560500Y-74198946D01*
X78562051Y-74179237D01*
X78564994Y-74160654D01*
X78563609Y-74151914D01*
X78563441Y-74148497D01*
X78563441Y-74146713D01*
X78563275Y-74145107D01*
X78550104Y-73877072D01*
X78550103Y-73877065D01*
X78549952Y-73873986D01*
X78507834Y-73590078D01*
X78438092Y-73311666D01*
X78437055Y-73308768D01*
X78437052Y-73308758D01*
X78342442Y-73044348D01*
X78341398Y-73041430D01*
X78300323Y-72954585D01*
X78220001Y-72784762D01*
X78219998Y-72784755D01*
X78218681Y-72781972D01*
X78109507Y-72599829D01*
X78072722Y-72538457D01*
X78072720Y-72538454D01*
X78071125Y-72535793D01*
X77900150Y-72305261D01*
X77778568Y-72171115D01*
X77747642Y-72107210D01*
X77756175Y-72036728D01*
X77801459Y-71982048D01*
X77871928Y-71960500D01*
X80508168Y-71960500D01*
X80527872Y-71962050D01*
X80536675Y-71963444D01*
X80536676Y-71963444D01*
X80546466Y-71964994D01*
X80555514Y-71963561D01*
X80557012Y-71963443D01*
X80558159Y-71963443D01*
X80560440Y-71963173D01*
X80736969Y-71949271D01*
X80922781Y-71904654D01*
X80927342Y-71902765D01*
X80927347Y-71902763D01*
X81094751Y-71833416D01*
X81099326Y-71831521D01*
X81262258Y-71731672D01*
X81354807Y-71652627D01*
X81358725Y-71649710D01*
X81360156Y-71649022D01*
X81364210Y-71645614D01*
X81365198Y-71644626D01*
X81366236Y-71644116D01*
X81368281Y-71642593D01*
X81372880Y-71639623D01*
X81373482Y-71640556D01*
X81428733Y-71613408D01*
X81452495Y-71611589D01*
X81454769Y-71611631D01*
X81454773Y-71611631D01*
X81463747Y-71611795D01*
X81472411Y-71609433D01*
X81596167Y-71575694D01*
X81596170Y-71575693D01*
X81604829Y-71573332D01*
X81612479Y-71568635D01*
X81612481Y-71568634D01*
X81721793Y-71501517D01*
X81721796Y-71501514D01*
X81729445Y-71496818D01*
X81827576Y-71388404D01*
X81891335Y-71256805D01*
X81915596Y-71112601D01*
X81915750Y-71100000D01*
X81895020Y-70955246D01*
X81834495Y-70822129D01*
X81824142Y-70810114D01*
X81744901Y-70718150D01*
X81744898Y-70718148D01*
X81739041Y-70711350D01*
X81616332Y-70631814D01*
X81599366Y-70626740D01*
X81484834Y-70592487D01*
X81484832Y-70592487D01*
X81476233Y-70589915D01*
X81467258Y-70589860D01*
X81467257Y-70589860D01*
X81404163Y-70589475D01*
X81330005Y-70589022D01*
X81189404Y-70629206D01*
X81065732Y-70707237D01*
X80968932Y-70816841D01*
X80906786Y-70949209D01*
X80905405Y-70958076D01*
X80905405Y-70958077D01*
X80889855Y-71057946D01*
X80859610Y-71122178D01*
X80845298Y-71135951D01*
X80829954Y-71148543D01*
X80809427Y-71162258D01*
X80781195Y-71177349D01*
X80746061Y-71196129D01*
X80723249Y-71205579D01*
X80654496Y-71226438D01*
X80630276Y-71231257D01*
X80615000Y-71232762D01*
X80580086Y-71236202D01*
X80566137Y-71235793D01*
X80566137Y-71236556D01*
X80556217Y-71236556D01*
X80546426Y-71235006D01*
X80536637Y-71236557D01*
X80536632Y-71236557D01*
X80527856Y-71237948D01*
X80508139Y-71239500D01*
X77798952Y-71239500D01*
X77779239Y-71237948D01*
X77771089Y-71236657D01*
X77760666Y-71235006D01*
X77760647Y-71235009D01*
X77760627Y-71235006D01*
X77751085Y-71236518D01*
X77750415Y-71236521D01*
X77746591Y-71237013D01*
X77745533Y-71237118D01*
X77745309Y-71237140D01*
X77725809Y-71237558D01*
X77521388Y-71226075D01*
X77507353Y-71224493D01*
X77278044Y-71185530D01*
X77264286Y-71182389D01*
X77040792Y-71117999D01*
X77027456Y-71113332D01*
X76812590Y-71024329D01*
X76799860Y-71018199D01*
X76596296Y-70905692D01*
X76584332Y-70898174D01*
X76394654Y-70763589D01*
X76383608Y-70754780D01*
X76230610Y-70618054D01*
X76217190Y-70603205D01*
X76213920Y-70599935D01*
X76208090Y-70591910D01*
X76192866Y-70580849D01*
X76177832Y-70568008D01*
X74624975Y-69015151D01*
X74612135Y-69000118D01*
X74606900Y-68992912D01*
X74606894Y-68992906D01*
X74601070Y-68984890D01*
X74595648Y-68980951D01*
X74348067Y-68754087D01*
X74318239Y-68731199D01*
X74078574Y-68547300D01*
X74076399Y-68545631D01*
X73787596Y-68361646D01*
X73614226Y-68271396D01*
X73486283Y-68204793D01*
X73486276Y-68204790D01*
X73483858Y-68203531D01*
X73167494Y-68072491D01*
X73089748Y-68047978D01*
X72843544Y-67970350D01*
X72843539Y-67970349D01*
X72840914Y-67969521D01*
X72506602Y-67895407D01*
X72503882Y-67895049D01*
X72503877Y-67895048D01*
X72377227Y-67878374D01*
X72167103Y-67850711D01*
X71831703Y-67836068D01*
X71825000Y-67835006D01*
X71815207Y-67836557D01*
X71815206Y-67836557D01*
X71806419Y-67837949D01*
X71786708Y-67839500D01*
X71310703Y-67839500D01*
X71242582Y-67819498D01*
X71215754Y-67796329D01*
X71108903Y-67673843D01*
X71103909Y-67668118D01*
X71043937Y-67625969D01*
X70969430Y-67573604D01*
X70969428Y-67573603D01*
X70963213Y-67569235D01*
X70802992Y-67506768D01*
X70671832Y-67489500D01*
X70031881Y-67489500D01*
X69904277Y-67504942D01*
X69743411Y-67565728D01*
X69601687Y-67663132D01*
X69487289Y-67791530D01*
X69483738Y-67798236D01*
X69483737Y-67798238D01*
X69410373Y-67936799D01*
X69406820Y-67943510D01*
X69364926Y-68110297D01*
X69364025Y-68282263D01*
X64653780Y-68282263D01*
X64172511Y-66801068D01*
X64171850Y-66798972D01*
X64156074Y-66747373D01*
X64154861Y-66743144D01*
X64140885Y-66690985D01*
X64140335Y-66688856D01*
X64002667Y-66136697D01*
X63649893Y-64721800D01*
X63614457Y-64579672D01*
X63613944Y-64577535D01*
X63601798Y-64524927D01*
X63600883Y-64520623D01*
X63590592Y-64467678D01*
X63590191Y-64465517D01*
X63212710Y-62324713D01*
X63212348Y-62322546D01*
X63203905Y-62269244D01*
X63203292Y-62264888D01*
X63200585Y-62242843D01*
X63196707Y-62211260D01*
X63196478Y-62209245D01*
X63183037Y-62081362D01*
X65535862Y-62081362D01*
X65545548Y-62235305D01*
X65547997Y-62242841D01*
X65547997Y-62242843D01*
X65569868Y-62310154D01*
X65593213Y-62382004D01*
X65675863Y-62512240D01*
X65681642Y-62517667D01*
X65681643Y-62517668D01*
X65740813Y-62573232D01*
X65788305Y-62617830D01*
X65923474Y-62692140D01*
X66072876Y-62730500D01*
X66788408Y-62730500D01*
X66792333Y-62730004D01*
X66792336Y-62730004D01*
X66895173Y-62717013D01*
X66895175Y-62717013D01*
X66903032Y-62716020D01*
X66958365Y-62694112D01*
X67039079Y-62662155D01*
X67039081Y-62662154D01*
X67046448Y-62659237D01*
X67110907Y-62612405D01*
X67164823Y-62573232D01*
X67171237Y-62568572D01*
X67269559Y-62449722D01*
X67335235Y-62310154D01*
X67364138Y-62158638D01*
X67359276Y-62081362D01*
X69465862Y-62081362D01*
X69475548Y-62235305D01*
X69477997Y-62242841D01*
X69477997Y-62242843D01*
X69499868Y-62310154D01*
X69523213Y-62382004D01*
X69605863Y-62512240D01*
X69611642Y-62517667D01*
X69611643Y-62517668D01*
X69670813Y-62573232D01*
X69718305Y-62617830D01*
X69853474Y-62692140D01*
X70002876Y-62730500D01*
X71218408Y-62730500D01*
X71222333Y-62730004D01*
X71222336Y-62730004D01*
X71325173Y-62717013D01*
X71325175Y-62717013D01*
X71333032Y-62716020D01*
X71388365Y-62694112D01*
X71469079Y-62662155D01*
X71469081Y-62662154D01*
X71476448Y-62659237D01*
X71540907Y-62612405D01*
X71594823Y-62573232D01*
X71601237Y-62568572D01*
X71699559Y-62449722D01*
X71765235Y-62310154D01*
X71794138Y-62158638D01*
X71786642Y-62039500D01*
X71784950Y-62012606D01*
X71784950Y-62012604D01*
X71784452Y-62004695D01*
X71782003Y-61997157D01*
X71739238Y-61865538D01*
X71739236Y-61865535D01*
X71736787Y-61857996D01*
X71654137Y-61727760D01*
X71594150Y-61671428D01*
X71547472Y-61627595D01*
X71541695Y-61622170D01*
X71406526Y-61547860D01*
X71257124Y-61509500D01*
X70206744Y-61509500D01*
X70138623Y-61489498D01*
X70110944Y-61457555D01*
X70096680Y-61480341D01*
X70028832Y-61511112D01*
X70025982Y-61511472D01*
X69934828Y-61522987D01*
X69934827Y-61522987D01*
X69926968Y-61523980D01*
X69919600Y-61526897D01*
X69919601Y-61526897D01*
X69790921Y-61577845D01*
X69790919Y-61577846D01*
X69783552Y-61580763D01*
X69777141Y-61585421D01*
X69777139Y-61585422D01*
X69704037Y-61638534D01*
X69658763Y-61671428D01*
X69560441Y-61790278D01*
X69494765Y-61929846D01*
X69486041Y-61975578D01*
X69473848Y-62039500D01*
X69465862Y-62081362D01*
X67359276Y-62081362D01*
X67356642Y-62039500D01*
X67354950Y-62012606D01*
X67354950Y-62012604D01*
X67354452Y-62004695D01*
X67352003Y-61997157D01*
X67309238Y-61865538D01*
X67309236Y-61865535D01*
X67306787Y-61857996D01*
X67224137Y-61727760D01*
X67164150Y-61671428D01*
X67117472Y-61627595D01*
X67111695Y-61622170D01*
X66976526Y-61547860D01*
X66827124Y-61509500D01*
X66111592Y-61509500D01*
X66107667Y-61509996D01*
X66107664Y-61509996D01*
X66004827Y-61522987D01*
X66004825Y-61522987D01*
X65996968Y-61523980D01*
X65989600Y-61526897D01*
X65989601Y-61526897D01*
X65860921Y-61577845D01*
X65860919Y-61577846D01*
X65853552Y-61580763D01*
X65847141Y-61585421D01*
X65847139Y-61585422D01*
X65774037Y-61638534D01*
X65728763Y-61671428D01*
X65630441Y-61790278D01*
X65564765Y-61929846D01*
X65556041Y-61975578D01*
X65543848Y-62039500D01*
X65535862Y-62081362D01*
X63183037Y-62081362D01*
X63036799Y-60690000D01*
X69519534Y-60690000D01*
X69539313Y-60840236D01*
X69597302Y-60980233D01*
X69689549Y-61100451D01*
X69809767Y-61192698D01*
X69949764Y-61250687D01*
X69957952Y-61251765D01*
X70029488Y-61261183D01*
X70094415Y-61289906D01*
X70107512Y-61309763D01*
X70111520Y-61300988D01*
X70171246Y-61262604D01*
X70190298Y-61258578D01*
X70242048Y-61251765D01*
X70250236Y-61250687D01*
X70390233Y-61192698D01*
X70510451Y-61100451D01*
X70602698Y-60980233D01*
X70660687Y-60840236D01*
X70680466Y-60690000D01*
X70660687Y-60539764D01*
X70602698Y-60399767D01*
X70510451Y-60279549D01*
X70390233Y-60187302D01*
X70250236Y-60129313D01*
X70242048Y-60128235D01*
X70141807Y-60115038D01*
X70141806Y-60115038D01*
X70137720Y-60114500D01*
X70062280Y-60114500D01*
X70058194Y-60115038D01*
X70058193Y-60115038D01*
X69957952Y-60128235D01*
X69949764Y-60129313D01*
X69809767Y-60187302D01*
X69689549Y-60279549D01*
X69597302Y-60399767D01*
X69539313Y-60539764D01*
X69519534Y-60690000D01*
X63036799Y-60690000D01*
X62969245Y-60047268D01*
X62969036Y-60045099D01*
X62964328Y-59991280D01*
X62964022Y-59986894D01*
X62961198Y-59933009D01*
X62961102Y-59930812D01*
X62913332Y-58562870D01*
X62885236Y-57758307D01*
X62885182Y-57756245D01*
X62884238Y-57702177D01*
X62884238Y-57697802D01*
X62884397Y-57688692D01*
X62885182Y-57643755D01*
X62885236Y-57641693D01*
X62888129Y-57558850D01*
X69244508Y-57558850D01*
X69246059Y-57568643D01*
X69262288Y-57671107D01*
X69264354Y-57684154D01*
X69321950Y-57797192D01*
X69377595Y-57852837D01*
X69411621Y-57915149D01*
X69414500Y-57941932D01*
X69414500Y-58255240D01*
X69394498Y-58323361D01*
X69391616Y-58327576D01*
X69384871Y-58334321D01*
X69327275Y-58447359D01*
X69325725Y-58457148D01*
X69325724Y-58457150D01*
X69317085Y-58511697D01*
X69307429Y-58572663D01*
X69308980Y-58582456D01*
X69325630Y-58687578D01*
X69327275Y-58697967D01*
X69384871Y-58811005D01*
X69474579Y-58900713D01*
X69587617Y-58958309D01*
X69597406Y-58959859D01*
X69597408Y-58959860D01*
X69703128Y-58976604D01*
X69712921Y-58978155D01*
X69722714Y-58976604D01*
X69828434Y-58959860D01*
X69828436Y-58959859D01*
X69838225Y-58958309D01*
X69951263Y-58900713D01*
X70040971Y-58811005D01*
X70098567Y-58697967D01*
X70100118Y-58688175D01*
X70108583Y-58634730D01*
X70138996Y-58570577D01*
X70199264Y-58533050D01*
X70233032Y-58528441D01*
X70240207Y-58528441D01*
X70250000Y-58529992D01*
X70259793Y-58528441D01*
X70365513Y-58511697D01*
X70365515Y-58511696D01*
X70375304Y-58510146D01*
X70488342Y-58452550D01*
X70578050Y-58362842D01*
X70635646Y-58249804D01*
X70642345Y-58207511D01*
X70653941Y-58134293D01*
X70655492Y-58124500D01*
X70644004Y-58051965D01*
X70637197Y-58008987D01*
X70637196Y-58008985D01*
X70635646Y-57999196D01*
X70578050Y-57886158D01*
X70524597Y-57832705D01*
X70490571Y-57770393D01*
X70487699Y-57743674D01*
X70490114Y-57731535D01*
X70488431Y-57723075D01*
X70474689Y-57548406D01*
X70431810Y-57369785D01*
X70415059Y-57329341D01*
X70363409Y-57204642D01*
X70363408Y-57204641D01*
X70361516Y-57200072D01*
X70265537Y-57043445D01*
X70253635Y-57029509D01*
X70179433Y-56942631D01*
X70181002Y-56941291D01*
X70177101Y-56937901D01*
X70176114Y-56938744D01*
X70170482Y-56932150D01*
X70151682Y-56910138D01*
X70146947Y-56903052D01*
X70142733Y-56900237D01*
X70111143Y-56842385D01*
X70108264Y-56815602D01*
X70108264Y-56809793D01*
X70109815Y-56800000D01*
X70093144Y-56694742D01*
X70091520Y-56684487D01*
X70091519Y-56684485D01*
X70089969Y-56674696D01*
X70032373Y-56561658D01*
X69942665Y-56471950D01*
X69829627Y-56414354D01*
X69819838Y-56412804D01*
X69819836Y-56412803D01*
X69714116Y-56396059D01*
X69704323Y-56394508D01*
X69694530Y-56396059D01*
X69588810Y-56412803D01*
X69588808Y-56412804D01*
X69579019Y-56414354D01*
X69465981Y-56471950D01*
X69376273Y-56561658D01*
X69318677Y-56674696D01*
X69317127Y-56684485D01*
X69317126Y-56684487D01*
X69315502Y-56694742D01*
X69298831Y-56800000D01*
X69300382Y-56809793D01*
X69315153Y-56903052D01*
X69318677Y-56925304D01*
X69376273Y-57038342D01*
X69401100Y-57063169D01*
X69435126Y-57125481D01*
X69430061Y-57196296D01*
X69401104Y-57241354D01*
X69321950Y-57320508D01*
X69264354Y-57433546D01*
X69262804Y-57443335D01*
X69262803Y-57443337D01*
X69255814Y-57487467D01*
X69244508Y-57558850D01*
X62888129Y-57558850D01*
X62945966Y-55902612D01*
X62961102Y-55469188D01*
X62961198Y-55466991D01*
X62964022Y-55413106D01*
X62964328Y-55408720D01*
X62969036Y-55354901D01*
X62969247Y-55352710D01*
X62975896Y-55289453D01*
X63015778Y-54910000D01*
X69519534Y-54910000D01*
X69539313Y-55060236D01*
X69597302Y-55200233D01*
X69689549Y-55320451D01*
X69809767Y-55412698D01*
X69949764Y-55470687D01*
X70062280Y-55485500D01*
X70137720Y-55485500D01*
X70250236Y-55470687D01*
X70390233Y-55412698D01*
X70510451Y-55320451D01*
X70602698Y-55200233D01*
X70660687Y-55060236D01*
X70680466Y-54910000D01*
X70660687Y-54759764D01*
X70602698Y-54619767D01*
X70510451Y-54499549D01*
X70390233Y-54407302D01*
X70250236Y-54349313D01*
X70190298Y-54341422D01*
X70125371Y-54312700D01*
X70102078Y-54277386D01*
X70082097Y-54309679D01*
X70014414Y-54340802D01*
X69949764Y-54349313D01*
X69809767Y-54407302D01*
X69689549Y-54499549D01*
X69597302Y-54619767D01*
X69539313Y-54759764D01*
X69519534Y-54910000D01*
X63015778Y-54910000D01*
X63170138Y-53441362D01*
X65535862Y-53441362D01*
X65538182Y-53478237D01*
X65544889Y-53584827D01*
X65545548Y-53595305D01*
X65547997Y-53602841D01*
X65547997Y-53602843D01*
X65589410Y-53730299D01*
X65593213Y-53742004D01*
X65675863Y-53872240D01*
X65681642Y-53877667D01*
X65681643Y-53877668D01*
X65740813Y-53933232D01*
X65788305Y-53977830D01*
X65923474Y-54052140D01*
X66072876Y-54090500D01*
X66788408Y-54090500D01*
X66792333Y-54090004D01*
X66792336Y-54090004D01*
X66895173Y-54077013D01*
X66895175Y-54077013D01*
X66903032Y-54076020D01*
X66958365Y-54054112D01*
X67039079Y-54022155D01*
X67039081Y-54022154D01*
X67046448Y-54019237D01*
X67055314Y-54012796D01*
X67164823Y-53933232D01*
X67171237Y-53928572D01*
X67260388Y-53820808D01*
X67264507Y-53815829D01*
X67264508Y-53815828D01*
X67269559Y-53809722D01*
X67335235Y-53670154D01*
X67359360Y-53543685D01*
X67362653Y-53526424D01*
X67362653Y-53526422D01*
X67364138Y-53518638D01*
X67359276Y-53441362D01*
X69465862Y-53441362D01*
X69468182Y-53478237D01*
X69474889Y-53584827D01*
X69475548Y-53595305D01*
X69477997Y-53602841D01*
X69477997Y-53602843D01*
X69519410Y-53730299D01*
X69523213Y-53742004D01*
X69605863Y-53872240D01*
X69611642Y-53877667D01*
X69611643Y-53877668D01*
X69670813Y-53933232D01*
X69718305Y-53977830D01*
X69853474Y-54052140D01*
X70002876Y-54090500D01*
X70010802Y-54090500D01*
X70013762Y-54090874D01*
X70078838Y-54119258D01*
X70102646Y-54154946D01*
X70123104Y-54122264D01*
X70187330Y-54092005D01*
X70206744Y-54090500D01*
X71218408Y-54090500D01*
X71222333Y-54090004D01*
X71222336Y-54090004D01*
X71325173Y-54077013D01*
X71325175Y-54077013D01*
X71333032Y-54076020D01*
X71388365Y-54054112D01*
X71469079Y-54022155D01*
X71469081Y-54022154D01*
X71476448Y-54019237D01*
X71485314Y-54012796D01*
X71594823Y-53933232D01*
X71601237Y-53928572D01*
X71690388Y-53820808D01*
X71694507Y-53815829D01*
X71694508Y-53815828D01*
X71699559Y-53809722D01*
X71765235Y-53670154D01*
X71779819Y-53593699D01*
X75584288Y-53593699D01*
X75585452Y-53602601D01*
X75585452Y-53602604D01*
X75601424Y-53724739D01*
X75603249Y-53738695D01*
X75662143Y-53872542D01*
X75756236Y-53984479D01*
X75763707Y-53989452D01*
X75763708Y-53989453D01*
X75870491Y-54060534D01*
X75870493Y-54060535D01*
X75877964Y-54065508D01*
X75886531Y-54068185D01*
X75886532Y-54068185D01*
X76008975Y-54106440D01*
X76008977Y-54106440D01*
X76017541Y-54109116D01*
X76085455Y-54110360D01*
X76154770Y-54111631D01*
X76154773Y-54111631D01*
X76163747Y-54111795D01*
X76236337Y-54092005D01*
X76296167Y-54075694D01*
X76296170Y-54075693D01*
X76304829Y-54073332D01*
X76319711Y-54064194D01*
X76388227Y-54045597D01*
X76455922Y-54066994D01*
X76474733Y-54082475D01*
X81079836Y-58687578D01*
X81092677Y-58702612D01*
X81097909Y-58709814D01*
X81097912Y-58709817D01*
X81103738Y-58717836D01*
X81111758Y-58723663D01*
X81112025Y-58723930D01*
X81130428Y-58740355D01*
X81331088Y-58959334D01*
X81338147Y-58967746D01*
X81536826Y-59226666D01*
X81543118Y-59235653D01*
X81718472Y-59510899D01*
X81723955Y-59520396D01*
X81839733Y-59742800D01*
X81874652Y-59809878D01*
X81879297Y-59819840D01*
X81941739Y-59970584D01*
X82001576Y-60115038D01*
X82004181Y-60121328D01*
X82007941Y-60131657D01*
X82106077Y-60442898D01*
X82108922Y-60453516D01*
X82179556Y-60772114D01*
X82181464Y-60782935D01*
X82183577Y-60798980D01*
X82224064Y-61106489D01*
X82225022Y-61117439D01*
X82236686Y-61384532D01*
X82236806Y-61390358D01*
X82236706Y-61428641D01*
X82236558Y-61430495D01*
X82236558Y-61439167D01*
X82235006Y-61448963D01*
X82236557Y-61458756D01*
X82236557Y-61466323D01*
X82236607Y-61466513D01*
X82236576Y-61478393D01*
X82236404Y-61480869D01*
X82238805Y-61490488D01*
X82239017Y-61492901D01*
X82239500Y-61503928D01*
X82239500Y-62789264D01*
X82219498Y-62857385D01*
X82207941Y-62872672D01*
X82168932Y-62916841D01*
X82106786Y-63049209D01*
X82084288Y-63193699D01*
X82085452Y-63202601D01*
X82085452Y-63202604D01*
X82100802Y-63319985D01*
X82103249Y-63338695D01*
X82162143Y-63472542D01*
X82256236Y-63584479D01*
X82263707Y-63589452D01*
X82263708Y-63589453D01*
X82370491Y-63660534D01*
X82370493Y-63660535D01*
X82377964Y-63665508D01*
X82386531Y-63668185D01*
X82386532Y-63668185D01*
X82508975Y-63706440D01*
X82508977Y-63706440D01*
X82517541Y-63709116D01*
X82585455Y-63710360D01*
X82654770Y-63711631D01*
X82654773Y-63711631D01*
X82663747Y-63711795D01*
X82710463Y-63699059D01*
X82796167Y-63675694D01*
X82796170Y-63675693D01*
X82804829Y-63673332D01*
X82812479Y-63668635D01*
X82812481Y-63668634D01*
X82921793Y-63601517D01*
X82921796Y-63601514D01*
X82929445Y-63596818D01*
X82936112Y-63589453D01*
X83021548Y-63495064D01*
X83021549Y-63495063D01*
X83027576Y-63488404D01*
X83091335Y-63356805D01*
X83115596Y-63212601D01*
X83115750Y-63200000D01*
X83095020Y-63055246D01*
X83034495Y-62922129D01*
X82991047Y-62871705D01*
X82961733Y-62807042D01*
X82960500Y-62789457D01*
X82960500Y-61487247D01*
X82962051Y-61467538D01*
X82963442Y-61458756D01*
X82963442Y-61458755D01*
X82964994Y-61448955D01*
X82964824Y-61447883D01*
X82963523Y-61418095D01*
X82963596Y-61417049D01*
X82963531Y-61416790D01*
X82963596Y-61416468D01*
X82963452Y-61416474D01*
X82962311Y-61390358D01*
X82961904Y-61381028D01*
X82962003Y-61368111D01*
X82963888Y-61336180D01*
X82971393Y-61300167D01*
X82974457Y-61291825D01*
X82993051Y-61241197D01*
X83010634Y-61208893D01*
X83048400Y-61158692D01*
X83074567Y-61132841D01*
X83125219Y-61095690D01*
X83157741Y-61078496D01*
X83216966Y-61057558D01*
X83253065Y-61050491D01*
X83281897Y-61049140D01*
X83315814Y-61047550D01*
X83352416Y-61051211D01*
X83413338Y-61066519D01*
X83447325Y-61080596D01*
X83491953Y-61107298D01*
X83507042Y-61117898D01*
X83507738Y-61118468D01*
X83514338Y-61125871D01*
X83521926Y-61130303D01*
X83528613Y-61136355D01*
X83669050Y-61276792D01*
X83681890Y-61291825D01*
X83687124Y-61299028D01*
X83692955Y-61307053D01*
X83697478Y-61310339D01*
X83702162Y-61314668D01*
X83702162Y-61314669D01*
X83915069Y-61511472D01*
X83980394Y-61571856D01*
X83982324Y-61573377D01*
X83982334Y-61573386D01*
X84106704Y-61671428D01*
X84287297Y-61813792D01*
X84405076Y-61892487D01*
X84610163Y-62029518D01*
X84610171Y-62029523D01*
X84612235Y-62030902D01*
X84953205Y-62221849D01*
X85144760Y-62310154D01*
X85305869Y-62384424D01*
X85305874Y-62384426D01*
X85308106Y-62385455D01*
X85674749Y-62520712D01*
X86050875Y-62626785D01*
X86053291Y-62627266D01*
X86053297Y-62627267D01*
X86431738Y-62702540D01*
X86431741Y-62702541D01*
X86434162Y-62703022D01*
X86436611Y-62703312D01*
X86436612Y-62703312D01*
X86819790Y-62748660D01*
X86819793Y-62748660D01*
X86822250Y-62748951D01*
X86960468Y-62754380D01*
X87200127Y-62763795D01*
X87200129Y-62763795D01*
X87206834Y-62764058D01*
X87212745Y-62764994D01*
X87231325Y-62762051D01*
X87251037Y-62760500D01*
X91083212Y-62760500D01*
X91151333Y-62780502D01*
X91155661Y-62783795D01*
X91156236Y-62784479D01*
X91158827Y-62786203D01*
X91158826Y-62786203D01*
X91270491Y-62860534D01*
X91270493Y-62860535D01*
X91277964Y-62865508D01*
X91286531Y-62868185D01*
X91286532Y-62868185D01*
X91408975Y-62906440D01*
X91408977Y-62906440D01*
X91417541Y-62909116D01*
X91485455Y-62910360D01*
X91554770Y-62911631D01*
X91554773Y-62911631D01*
X91563747Y-62911795D01*
X91610463Y-62899059D01*
X91696167Y-62875694D01*
X91696170Y-62875693D01*
X91704829Y-62873332D01*
X91712479Y-62868635D01*
X91712481Y-62868634D01*
X91821793Y-62801517D01*
X91821796Y-62801514D01*
X91829445Y-62796818D01*
X91839054Y-62786203D01*
X91921548Y-62695064D01*
X91921549Y-62695063D01*
X91927576Y-62688404D01*
X91940294Y-62662155D01*
X91987420Y-62564886D01*
X91987420Y-62564885D01*
X91991335Y-62556805D01*
X92015596Y-62412601D01*
X92015750Y-62400000D01*
X91995020Y-62255246D01*
X91934495Y-62122129D01*
X91928636Y-62115329D01*
X91844901Y-62018150D01*
X91844898Y-62018148D01*
X91839041Y-62011350D01*
X91716332Y-61931814D01*
X91685767Y-61922673D01*
X91584834Y-61892487D01*
X91584832Y-61892487D01*
X91576233Y-61889915D01*
X91567258Y-61889860D01*
X91567257Y-61889860D01*
X91504163Y-61889475D01*
X91430005Y-61889022D01*
X91289404Y-61929206D01*
X91165732Y-62007237D01*
X91162919Y-62010422D01*
X91100252Y-62038372D01*
X91083428Y-62039500D01*
X87251031Y-62039500D01*
X87231322Y-62037949D01*
X87222532Y-62036557D01*
X87212739Y-62035006D01*
X87202946Y-62036557D01*
X87202382Y-62036557D01*
X87178055Y-62037939D01*
X86847625Y-62023516D01*
X86836681Y-62022558D01*
X86479807Y-61975578D01*
X86468984Y-61973670D01*
X86306423Y-61937633D01*
X86117544Y-61895762D01*
X86106943Y-61892921D01*
X85763635Y-61784681D01*
X85753306Y-61780922D01*
X85420739Y-61643173D01*
X85410791Y-61638534D01*
X85379356Y-61622170D01*
X85188821Y-61522987D01*
X85091498Y-61472325D01*
X85081979Y-61466829D01*
X84876894Y-61336180D01*
X84778399Y-61273434D01*
X84769400Y-61267134D01*
X84767271Y-61265500D01*
X84483809Y-61047998D01*
X84475390Y-61040933D01*
X84231719Y-60817656D01*
X84215049Y-60798980D01*
X84214954Y-60798885D01*
X84209127Y-60790865D01*
X84193905Y-60779806D01*
X84178869Y-60766963D01*
X84010242Y-60598336D01*
X84005280Y-60593082D01*
X83992154Y-60578357D01*
X83976564Y-60560867D01*
X83974041Y-60559394D01*
X83966888Y-60554547D01*
X83962298Y-60550393D01*
X81689089Y-58277183D01*
X81685287Y-58273213D01*
X81663836Y-58249804D01*
X81620686Y-58202714D01*
X81619916Y-58201654D01*
X81604692Y-58190593D01*
X81589658Y-58177752D01*
X76926226Y-53514320D01*
X76913386Y-53499287D01*
X76908156Y-53492089D01*
X76902327Y-53484066D01*
X76891570Y-53476250D01*
X76887027Y-53472949D01*
X76879260Y-53466826D01*
X76803527Y-53402144D01*
X76799763Y-53398929D01*
X76686248Y-53329364D01*
X76563250Y-53278411D01*
X76558436Y-53277255D01*
X76558430Y-53277253D01*
X76527498Y-53269825D01*
X76519004Y-53267786D01*
X76452970Y-53227515D01*
X76444903Y-53218152D01*
X76444899Y-53218148D01*
X76439041Y-53211350D01*
X76367336Y-53164873D01*
X76323866Y-53136697D01*
X76323864Y-53136696D01*
X76316332Y-53131814D01*
X76299366Y-53126740D01*
X76184834Y-53092487D01*
X76184832Y-53092487D01*
X76176233Y-53089915D01*
X76167258Y-53089860D01*
X76167257Y-53089860D01*
X76104163Y-53089475D01*
X76030005Y-53089022D01*
X75889404Y-53129206D01*
X75881817Y-53133993D01*
X75881815Y-53133994D01*
X75815218Y-53176014D01*
X75765732Y-53207237D01*
X75759789Y-53213966D01*
X75702873Y-53278411D01*
X75668932Y-53316841D01*
X75606786Y-53449209D01*
X75605405Y-53458078D01*
X75585774Y-53584158D01*
X75584288Y-53593699D01*
X71779819Y-53593699D01*
X71789360Y-53543685D01*
X71792653Y-53526424D01*
X71792653Y-53526422D01*
X71794138Y-53518638D01*
X71786808Y-53402144D01*
X71784950Y-53372606D01*
X71784950Y-53372604D01*
X71784452Y-53364695D01*
X71773814Y-53331954D01*
X71739238Y-53225538D01*
X71739236Y-53225535D01*
X71736787Y-53217996D01*
X71654137Y-53087760D01*
X71614187Y-53050244D01*
X71547472Y-52987595D01*
X71541695Y-52982170D01*
X71527642Y-52974444D01*
X71461068Y-52937845D01*
X71406526Y-52907860D01*
X71257124Y-52869500D01*
X70041592Y-52869500D01*
X70037667Y-52869996D01*
X70037664Y-52869996D01*
X69934827Y-52882987D01*
X69934825Y-52882987D01*
X69926968Y-52883980D01*
X69879861Y-52902631D01*
X69790921Y-52937845D01*
X69790919Y-52937846D01*
X69783552Y-52940763D01*
X69777141Y-52945421D01*
X69777139Y-52945422D01*
X69709471Y-52994586D01*
X69658763Y-53031428D01*
X69560441Y-53150278D01*
X69494765Y-53289846D01*
X69465862Y-53441362D01*
X67359276Y-53441362D01*
X67356808Y-53402144D01*
X67354950Y-53372606D01*
X67354950Y-53372604D01*
X67354452Y-53364695D01*
X67343814Y-53331954D01*
X67309238Y-53225538D01*
X67309236Y-53225535D01*
X67306787Y-53217996D01*
X67224137Y-53087760D01*
X67184187Y-53050244D01*
X67117472Y-52987595D01*
X67111695Y-52982170D01*
X67097642Y-52974444D01*
X67031068Y-52937845D01*
X66976526Y-52907860D01*
X66827124Y-52869500D01*
X66111592Y-52869500D01*
X66107667Y-52869996D01*
X66107664Y-52869996D01*
X66004827Y-52882987D01*
X66004825Y-52882987D01*
X65996968Y-52883980D01*
X65949861Y-52902631D01*
X65860921Y-52937845D01*
X65860919Y-52937846D01*
X65853552Y-52940763D01*
X65847141Y-52945421D01*
X65847139Y-52945422D01*
X65779471Y-52994586D01*
X65728763Y-53031428D01*
X65630441Y-53150278D01*
X65564765Y-53289846D01*
X65535862Y-53441362D01*
X63170138Y-53441362D01*
X63196478Y-53190755D01*
X63196707Y-53188740D01*
X63203294Y-53135100D01*
X63203905Y-53130756D01*
X63212348Y-53077454D01*
X63212710Y-53075287D01*
X63590191Y-50934483D01*
X63590592Y-50932322D01*
X63600883Y-50879377D01*
X63601798Y-50875073D01*
X63613944Y-50822465D01*
X63614457Y-50820328D01*
X63995390Y-49292487D01*
X64140338Y-48711133D01*
X64140885Y-48709015D01*
X64154861Y-48656856D01*
X64156074Y-48652627D01*
X64171850Y-48601028D01*
X64172511Y-48598932D01*
X64844247Y-46531539D01*
X64844945Y-46529453D01*
X64862520Y-46478412D01*
X64864023Y-46474281D01*
X64883408Y-46423783D01*
X64884175Y-46421837D01*
X64922345Y-46327365D01*
X65354365Y-45258078D01*
X65698464Y-44406403D01*
X65699306Y-44404370D01*
X65720423Y-44354622D01*
X65722211Y-44350607D01*
X65745015Y-44301702D01*
X65745962Y-44299715D01*
X65748896Y-44293699D01*
X72184288Y-44293699D01*
X72185452Y-44302601D01*
X72185452Y-44302604D01*
X72202085Y-44429796D01*
X72203249Y-44438695D01*
X72262143Y-44572542D01*
X72356236Y-44684479D01*
X72363707Y-44689452D01*
X72363708Y-44689453D01*
X72470491Y-44760534D01*
X72470493Y-44760535D01*
X72477964Y-44765508D01*
X72486531Y-44768185D01*
X72486532Y-44768185D01*
X72608975Y-44806440D01*
X72608977Y-44806440D01*
X72617541Y-44809116D01*
X72685455Y-44810360D01*
X72754770Y-44811631D01*
X72754773Y-44811631D01*
X72763747Y-44811795D01*
X72778511Y-44807770D01*
X72783577Y-44806389D01*
X72854560Y-44807770D01*
X72905811Y-44838858D01*
X80614503Y-52547550D01*
X80628711Y-52564861D01*
X80629528Y-52565678D01*
X80636421Y-52575994D01*
X80637672Y-52576830D01*
X80745267Y-52676289D01*
X80954819Y-52869996D01*
X80964172Y-52878642D01*
X80966115Y-52880174D01*
X80966120Y-52880178D01*
X81095496Y-52982170D01*
X81314504Y-53154822D01*
X81316565Y-53156199D01*
X81316569Y-53156202D01*
X81385780Y-53202447D01*
X81685426Y-53402664D01*
X82074649Y-53620640D01*
X82076894Y-53621675D01*
X82076898Y-53621677D01*
X82456678Y-53796759D01*
X82479775Y-53807407D01*
X82482086Y-53808260D01*
X82482087Y-53808260D01*
X82895978Y-53960954D01*
X82895989Y-53960958D01*
X82898305Y-53961812D01*
X83327659Y-54082904D01*
X83765191Y-54169937D01*
X84208202Y-54222373D01*
X84331800Y-54227230D01*
X84639441Y-54239320D01*
X84639443Y-54239320D01*
X84652558Y-54239835D01*
X84653961Y-54240114D01*
X84666132Y-54237693D01*
X84667297Y-54237693D01*
X84689567Y-54235500D01*
X91072318Y-54235500D01*
X91140439Y-54255502D01*
X91168769Y-54280425D01*
X91250458Y-54377606D01*
X91250461Y-54377608D01*
X91256236Y-54384479D01*
X91263707Y-54389452D01*
X91263708Y-54389453D01*
X91370491Y-54460534D01*
X91370493Y-54460535D01*
X91377964Y-54465508D01*
X91386531Y-54468185D01*
X91386532Y-54468185D01*
X91508975Y-54506440D01*
X91508977Y-54506440D01*
X91517541Y-54509116D01*
X91585455Y-54510360D01*
X91654770Y-54511631D01*
X91654773Y-54511631D01*
X91663747Y-54511795D01*
X91727101Y-54494523D01*
X91796167Y-54475694D01*
X91796170Y-54475693D01*
X91804829Y-54473332D01*
X91812479Y-54468635D01*
X91812481Y-54468634D01*
X91921793Y-54401517D01*
X91921796Y-54401514D01*
X91929445Y-54396818D01*
X91935694Y-54389915D01*
X92021548Y-54295064D01*
X92021549Y-54295063D01*
X92027576Y-54288404D01*
X92032036Y-54279200D01*
X92087420Y-54164886D01*
X92087420Y-54164885D01*
X92091335Y-54156805D01*
X92115596Y-54012601D01*
X92115750Y-54000000D01*
X92095020Y-53855246D01*
X92034495Y-53722129D01*
X92028635Y-53715328D01*
X92023800Y-53707768D01*
X92025973Y-53706378D01*
X92002267Y-53654080D01*
X92012569Y-53583835D01*
X92059213Y-53530310D01*
X92127035Y-53510500D01*
X95190350Y-53510500D01*
X95212612Y-53512693D01*
X95213783Y-53512693D01*
X95225955Y-53515114D01*
X95238128Y-53512692D01*
X95250536Y-53512692D01*
X95250536Y-53513088D01*
X95259923Y-53512428D01*
X95503126Y-53526082D01*
X95517148Y-53527662D01*
X95728968Y-53563648D01*
X95783857Y-53572974D01*
X95797632Y-53576118D01*
X96057585Y-53651006D01*
X96070922Y-53655673D01*
X96320851Y-53759194D01*
X96333582Y-53765325D01*
X96570345Y-53896178D01*
X96582309Y-53903695D01*
X96802942Y-54060240D01*
X96813984Y-54069045D01*
X96926883Y-54169937D01*
X96995546Y-54231298D01*
X97001772Y-54238463D01*
X97002044Y-54238191D01*
X97010818Y-54246965D01*
X97017714Y-54257286D01*
X97028036Y-54264183D01*
X97028861Y-54265008D01*
X97046153Y-54279200D01*
X97462800Y-54695848D01*
X97496825Y-54758160D01*
X97498204Y-54804326D01*
X97484288Y-54893699D01*
X97485452Y-54902601D01*
X97485452Y-54902604D01*
X97500128Y-55014828D01*
X97503249Y-55038695D01*
X97562143Y-55172542D01*
X97656236Y-55284479D01*
X97663707Y-55289452D01*
X97663708Y-55289453D01*
X97770491Y-55360534D01*
X97770493Y-55360535D01*
X97777964Y-55365508D01*
X97786531Y-55368185D01*
X97786532Y-55368185D01*
X97908975Y-55406440D01*
X97908977Y-55406440D01*
X97917541Y-55409116D01*
X97985455Y-55410360D01*
X98054770Y-55411631D01*
X98054773Y-55411631D01*
X98063747Y-55411795D01*
X98110463Y-55399059D01*
X98196167Y-55375694D01*
X98196170Y-55375693D01*
X98204829Y-55373332D01*
X98212479Y-55368635D01*
X98212481Y-55368634D01*
X98321793Y-55301517D01*
X98321796Y-55301514D01*
X98329445Y-55296818D01*
X98336112Y-55289453D01*
X98421548Y-55195064D01*
X98421549Y-55195063D01*
X98427576Y-55188404D01*
X98438314Y-55166242D01*
X98487420Y-55064886D01*
X98487420Y-55064885D01*
X98491335Y-55056805D01*
X98492824Y-55047956D01*
X98492825Y-55047952D01*
X98502307Y-54991589D01*
X98533334Y-54927731D01*
X98593959Y-54890784D01*
X98664936Y-54892479D01*
X98715656Y-54923398D01*
X98913074Y-55120816D01*
X98925915Y-55135850D01*
X98936976Y-55151074D01*
X98945002Y-55156905D01*
X98945224Y-55157127D01*
X98963687Y-55173607D01*
X99177975Y-55407457D01*
X99185041Y-55415878D01*
X99395993Y-55690793D01*
X99402298Y-55699796D01*
X99588500Y-55992070D01*
X99593996Y-56001590D01*
X99754005Y-56308959D01*
X99758651Y-56318921D01*
X99891271Y-56639090D01*
X99895030Y-56649420D01*
X99999233Y-56979905D01*
X100002078Y-56990522D01*
X100041778Y-57169591D01*
X100075237Y-57320508D01*
X100077084Y-57328841D01*
X100078992Y-57339661D01*
X100119343Y-57646147D01*
X100124226Y-57683238D01*
X100125184Y-57694188D01*
X100132655Y-57865285D01*
X100131740Y-57886898D01*
X100129893Y-57901215D01*
X100132736Y-57957695D01*
X100136903Y-58040484D01*
X100136070Y-58040526D01*
X100136571Y-58042579D01*
X100136047Y-58045889D01*
X100137599Y-58055686D01*
X100137599Y-58058824D01*
X100138039Y-58063052D01*
X100138990Y-58081952D01*
X100138991Y-58081954D01*
X100139632Y-58094698D01*
X100139597Y-58096672D01*
X100140419Y-58099360D01*
X100140541Y-58101020D01*
X100140541Y-63319979D01*
X100138990Y-63339691D01*
X100136047Y-63358271D01*
X100136264Y-63359644D01*
X100136713Y-63368786D01*
X100151789Y-63675694D01*
X100153561Y-63711778D01*
X100205490Y-64061880D01*
X100291486Y-64405207D01*
X100410719Y-64738452D01*
X100562041Y-65058405D01*
X100743996Y-65361986D01*
X100745836Y-65364467D01*
X100952985Y-65643783D01*
X100952991Y-65643790D01*
X100954830Y-65646270D01*
X101191765Y-65907694D01*
X101192427Y-65908606D01*
X101200458Y-65914441D01*
X101200460Y-65914443D01*
X101207649Y-65919667D01*
X101222681Y-65932505D01*
X101854063Y-66563886D01*
X101888088Y-66626199D01*
X101889904Y-66636644D01*
X101896732Y-66688856D01*
X101903249Y-66738695D01*
X101962143Y-66872542D01*
X102056236Y-66984479D01*
X102063707Y-66989452D01*
X102063708Y-66989453D01*
X102170491Y-67060534D01*
X102170493Y-67060535D01*
X102177964Y-67065508D01*
X102186531Y-67068185D01*
X102186532Y-67068185D01*
X102308975Y-67106440D01*
X102308977Y-67106440D01*
X102317541Y-67109116D01*
X102385455Y-67110360D01*
X102454770Y-67111631D01*
X102454773Y-67111631D01*
X102463747Y-67111795D01*
X102510463Y-67099059D01*
X102596167Y-67075694D01*
X102596170Y-67075693D01*
X102604829Y-67073332D01*
X102612479Y-67068635D01*
X102612481Y-67068634D01*
X102721793Y-67001517D01*
X102721796Y-67001514D01*
X102729445Y-66996818D01*
X102736112Y-66989453D01*
X102821548Y-66895064D01*
X102821549Y-66895063D01*
X102827576Y-66888404D01*
X102870906Y-66798972D01*
X102887420Y-66764886D01*
X102887420Y-66764885D01*
X102891335Y-66756805D01*
X102915596Y-66612601D01*
X102915750Y-66600000D01*
X102895020Y-66455246D01*
X102834495Y-66322129D01*
X102828636Y-66315329D01*
X102744901Y-66218150D01*
X102744898Y-66218148D01*
X102739041Y-66211350D01*
X102616332Y-66131814D01*
X102607732Y-66129242D01*
X102484834Y-66092487D01*
X102484832Y-66092487D01*
X102476233Y-66089915D01*
X102467258Y-66089860D01*
X102467257Y-66089860D01*
X102454050Y-66089780D01*
X102451008Y-66089761D01*
X102383010Y-66069343D01*
X102362682Y-66052858D01*
X101732512Y-65422688D01*
X101719670Y-65407653D01*
X101714439Y-65400453D01*
X101708613Y-65392434D01*
X101700593Y-65386607D01*
X101699405Y-65385419D01*
X101682013Y-65369809D01*
X101519692Y-65190711D01*
X101511848Y-65181153D01*
X101350787Y-64963982D01*
X101343918Y-64953701D01*
X101204925Y-64721800D01*
X101199096Y-64710895D01*
X101083499Y-64466479D01*
X101078767Y-64455055D01*
X101059859Y-64402207D01*
X100987684Y-64200485D01*
X100984095Y-64188653D01*
X100918401Y-63926382D01*
X100915989Y-63914254D01*
X100876320Y-63646803D01*
X100875109Y-63634507D01*
X100872315Y-63577609D01*
X100863572Y-63399619D01*
X100863245Y-63392954D01*
X100864484Y-63370012D01*
X100864484Y-63368070D01*
X100866035Y-63358277D01*
X100863092Y-63339694D01*
X100861541Y-63319985D01*
X100861541Y-58084179D01*
X100863092Y-58064468D01*
X100864484Y-58055679D01*
X100866035Y-58045887D01*
X100865003Y-58039371D01*
X100864771Y-58033464D01*
X100859857Y-57908404D01*
X100865230Y-57866734D01*
X100884650Y-57802995D01*
X100900198Y-57770041D01*
X100910366Y-57754721D01*
X100939286Y-57711149D01*
X100963610Y-57684027D01*
X101017915Y-57638784D01*
X101048986Y-57619755D01*
X101113965Y-57591946D01*
X101149182Y-57582604D01*
X101219403Y-57574551D01*
X101255827Y-57575679D01*
X101325414Y-57588058D01*
X101359985Y-57599558D01*
X101405957Y-57622694D01*
X101438405Y-57646147D01*
X102477858Y-58685600D01*
X102511884Y-58747912D01*
X102506819Y-58818727D01*
X102477858Y-58863790D01*
X102125081Y-59216567D01*
X102121645Y-59221710D01*
X102121643Y-59221712D01*
X102115425Y-59231019D01*
X102106824Y-59243891D01*
X102098248Y-59287006D01*
X102106824Y-59330121D01*
X102125081Y-59357445D01*
X103342555Y-60574919D01*
X103347698Y-60578355D01*
X103347700Y-60578357D01*
X103359562Y-60586283D01*
X103359564Y-60586284D01*
X103369879Y-60593176D01*
X103382048Y-60595596D01*
X103382049Y-60595597D01*
X103400823Y-60599331D01*
X103412994Y-60601752D01*
X103425165Y-60599331D01*
X103443939Y-60595597D01*
X103443940Y-60595596D01*
X103456109Y-60593176D01*
X103466424Y-60586284D01*
X103466426Y-60586283D01*
X103478288Y-60578357D01*
X103478290Y-60578355D01*
X103483433Y-60574919D01*
X104700907Y-59357445D01*
X104719164Y-59330121D01*
X104727740Y-59287006D01*
X104719164Y-59243891D01*
X104710564Y-59231019D01*
X104704345Y-59221712D01*
X104704343Y-59221710D01*
X104700907Y-59216567D01*
X103483433Y-57999093D01*
X103478288Y-57995655D01*
X103466426Y-57987729D01*
X103466424Y-57987728D01*
X103456109Y-57980836D01*
X103443940Y-57978416D01*
X103443939Y-57978415D01*
X103425165Y-57974681D01*
X103412994Y-57972260D01*
X103400823Y-57974681D01*
X103382049Y-57978415D01*
X103382048Y-57978416D01*
X103369879Y-57980836D01*
X103359564Y-57987728D01*
X103359562Y-57987729D01*
X103347700Y-57995655D01*
X103342555Y-57999093D01*
X103165872Y-58175776D01*
X103103560Y-58209802D01*
X103032745Y-58204737D01*
X102987682Y-58175776D01*
X101940452Y-57128546D01*
X101939387Y-57127320D01*
X101938101Y-57124899D01*
X101929533Y-57116616D01*
X101899943Y-57088013D01*
X101898421Y-57086515D01*
X99518304Y-54706398D01*
X99514875Y-54702833D01*
X99461337Y-54644917D01*
X99457130Y-54640366D01*
X99453152Y-54634890D01*
X99437927Y-54623829D01*
X99422897Y-54610991D01*
X96677865Y-51865959D01*
X96665024Y-51850925D01*
X96659783Y-51843711D01*
X96659782Y-51843710D01*
X96653963Y-51835701D01*
X96653842Y-51835613D01*
X96319153Y-51526232D01*
X96290582Y-51503708D01*
X95963052Y-51245506D01*
X95963050Y-51245505D01*
X95961106Y-51243972D01*
X95582017Y-50990675D01*
X95477820Y-50932322D01*
X95186372Y-50769103D01*
X95186362Y-50769098D01*
X95184223Y-50767900D01*
X94834350Y-50606607D01*
X94772416Y-50578055D01*
X94772412Y-50578053D01*
X94770177Y-50577023D01*
X94767865Y-50576170D01*
X94344759Y-50420077D01*
X94344748Y-50420073D01*
X94342432Y-50419219D01*
X94340048Y-50418547D01*
X94340043Y-50418545D01*
X93906012Y-50296135D01*
X93906000Y-50296132D01*
X93903624Y-50295462D01*
X93901204Y-50294981D01*
X93901193Y-50294978D01*
X93613571Y-50237767D01*
X93456459Y-50206515D01*
X93270280Y-50184479D01*
X93006146Y-50153216D01*
X93006138Y-50153215D01*
X93003693Y-50152926D01*
X92899482Y-50148831D01*
X92558801Y-50135444D01*
X92558799Y-50135444D01*
X92548279Y-50135031D01*
X92548119Y-50135006D01*
X92529538Y-50137949D01*
X92509827Y-50139500D01*
X85280215Y-50139500D01*
X85212094Y-50119498D01*
X85165601Y-50065842D01*
X85155497Y-49995568D01*
X85184991Y-49930988D01*
X85214287Y-49906125D01*
X85221793Y-49901517D01*
X85221796Y-49901514D01*
X85229445Y-49896818D01*
X85236112Y-49889453D01*
X85305674Y-49812601D01*
X85327576Y-49788404D01*
X85327663Y-49788224D01*
X85378935Y-49745753D01*
X85428720Y-49735500D01*
X101766082Y-49735500D01*
X101834203Y-49755502D01*
X101880696Y-49809158D01*
X101891018Y-49845161D01*
X101903249Y-49938695D01*
X101962143Y-50072542D01*
X102056236Y-50184479D01*
X102063707Y-50189452D01*
X102063708Y-50189453D01*
X102170491Y-50260534D01*
X102170493Y-50260535D01*
X102177964Y-50265508D01*
X102186531Y-50268185D01*
X102186532Y-50268185D01*
X102308975Y-50306440D01*
X102308977Y-50306440D01*
X102317541Y-50309116D01*
X102385455Y-50310360D01*
X102454770Y-50311631D01*
X102454773Y-50311631D01*
X102463747Y-50311795D01*
X102521188Y-50296135D01*
X102596167Y-50275694D01*
X102596170Y-50275693D01*
X102604829Y-50273332D01*
X102612479Y-50268635D01*
X102612481Y-50268634D01*
X102721793Y-50201517D01*
X102721796Y-50201514D01*
X102729445Y-50196818D01*
X102736112Y-50189453D01*
X102821548Y-50095064D01*
X102821549Y-50095063D01*
X102827576Y-50088404D01*
X102836765Y-50069439D01*
X102887420Y-49964886D01*
X102887420Y-49964885D01*
X102891335Y-49956805D01*
X102915596Y-49812601D01*
X102915750Y-49800000D01*
X102895020Y-49655246D01*
X102834495Y-49522129D01*
X102809998Y-49493699D01*
X102744901Y-49418150D01*
X102744898Y-49418148D01*
X102739041Y-49411350D01*
X102677686Y-49371582D01*
X102623866Y-49336697D01*
X102623864Y-49336696D01*
X102616332Y-49331814D01*
X102607732Y-49329242D01*
X102484834Y-49292487D01*
X102484832Y-49292487D01*
X102476233Y-49289915D01*
X102467258Y-49289860D01*
X102467257Y-49289860D01*
X102404163Y-49289475D01*
X102330005Y-49289022D01*
X102236755Y-49315673D01*
X102165559Y-49315100D01*
X102040339Y-49277120D01*
X102040337Y-49277120D01*
X102034417Y-49275324D01*
X101941747Y-49266202D01*
X101941934Y-49264305D01*
X101938018Y-49264542D01*
X101937924Y-49264500D01*
X101924680Y-49264500D01*
X101922888Y-49264119D01*
X101918299Y-49263894D01*
X101904076Y-49262494D01*
X101902812Y-49262307D01*
X101902177Y-49262307D01*
X101897920Y-49261888D01*
X101887852Y-49259886D01*
X101875680Y-49262308D01*
X101874493Y-49262308D01*
X101852251Y-49264500D01*
X85428758Y-49264500D01*
X85360637Y-49244498D01*
X85333305Y-49220748D01*
X85244901Y-49118150D01*
X85244898Y-49118148D01*
X85239041Y-49111350D01*
X85116332Y-49031814D01*
X85099366Y-49026740D01*
X84984834Y-48992487D01*
X84984832Y-48992487D01*
X84976233Y-48989915D01*
X84967258Y-48989860D01*
X84967257Y-48989860D01*
X84904163Y-48989475D01*
X84830005Y-48989022D01*
X84689404Y-49029206D01*
X84681817Y-49033993D01*
X84681815Y-49033994D01*
X84651620Y-49053046D01*
X84565732Y-49107237D01*
X84468932Y-49216841D01*
X84406786Y-49349209D01*
X84405405Y-49358078D01*
X84397871Y-49406467D01*
X84384288Y-49493699D01*
X84385452Y-49502601D01*
X84385452Y-49502604D01*
X84402085Y-49629796D01*
X84403249Y-49638695D01*
X84462143Y-49772542D01*
X84556236Y-49884479D01*
X84563707Y-49889452D01*
X84563708Y-49889453D01*
X84592492Y-49908613D01*
X84638115Y-49963010D01*
X84647086Y-50033438D01*
X84616556Y-50097535D01*
X84556220Y-50134952D01*
X84522673Y-50139500D01*
X84264633Y-50139500D01*
X84244924Y-50137949D01*
X84236134Y-50136557D01*
X84226341Y-50135006D01*
X84216549Y-50136557D01*
X84214155Y-50136557D01*
X84191897Y-50137759D01*
X84035775Y-50130092D01*
X83883003Y-50122588D01*
X83870712Y-50121378D01*
X83649517Y-50088569D01*
X83536806Y-50071851D01*
X83524679Y-50069439D01*
X83229751Y-49995568D01*
X83197237Y-49987424D01*
X83185411Y-49983837D01*
X82867573Y-49870118D01*
X82856167Y-49865394D01*
X82551019Y-49721075D01*
X82540114Y-49715247D01*
X82250579Y-49541712D01*
X82240298Y-49534843D01*
X82104731Y-49434304D01*
X81969163Y-49333764D01*
X81959606Y-49325920D01*
X81903112Y-49274718D01*
X81730629Y-49118394D01*
X81715300Y-49101314D01*
X81713913Y-49099927D01*
X81708085Y-49091906D01*
X81692965Y-49080921D01*
X81665090Y-49053046D01*
X81659930Y-49045944D01*
X81654103Y-49037924D01*
X81646084Y-49032098D01*
X81644642Y-49030656D01*
X81627653Y-49015411D01*
X81432228Y-48799794D01*
X81424393Y-48790248D01*
X81234079Y-48533643D01*
X81227209Y-48523361D01*
X81062967Y-48249341D01*
X81057139Y-48238436D01*
X80920553Y-47949652D01*
X80915821Y-47938229D01*
X80808194Y-47637435D01*
X80804604Y-47625602D01*
X80726976Y-47315693D01*
X80724567Y-47303578D01*
X80718082Y-47259856D01*
X80677690Y-46987564D01*
X80676479Y-46975264D01*
X80674872Y-46942539D01*
X80667913Y-46800898D01*
X80662204Y-46684677D01*
X80663443Y-46661734D01*
X80663443Y-46659793D01*
X80664994Y-46650000D01*
X80662051Y-46631418D01*
X80660500Y-46611708D01*
X80660500Y-45589141D01*
X80680502Y-45521020D01*
X80722655Y-45483778D01*
X80721349Y-45481755D01*
X80728011Y-45477453D01*
X80735156Y-45474022D01*
X80739210Y-45470614D01*
X80752442Y-45457382D01*
X80764837Y-45446511D01*
X80767458Y-45444500D01*
X80770097Y-45442530D01*
X80775070Y-45438917D01*
X80775071Y-45438916D01*
X80783090Y-45433090D01*
X80794151Y-45417866D01*
X80806992Y-45402832D01*
X80816125Y-45393699D01*
X102184288Y-45393699D01*
X102185452Y-45402601D01*
X102185452Y-45402604D01*
X102202085Y-45529796D01*
X102203249Y-45538695D01*
X102262143Y-45672542D01*
X102356236Y-45784479D01*
X102363707Y-45789452D01*
X102363708Y-45789453D01*
X102470491Y-45860534D01*
X102470493Y-45860535D01*
X102477964Y-45865508D01*
X102486531Y-45868185D01*
X102486532Y-45868185D01*
X102608975Y-45906440D01*
X102608977Y-45906440D01*
X102617541Y-45909116D01*
X102649984Y-45909710D01*
X102717725Y-45930956D01*
X102736770Y-45946594D01*
X103368008Y-46577832D01*
X103380849Y-46592866D01*
X103391910Y-46608090D01*
X103399929Y-46613916D01*
X103401318Y-46615305D01*
X103418398Y-46630633D01*
X103580936Y-46809966D01*
X103588779Y-46819523D01*
X103610628Y-46848983D01*
X103749935Y-47036817D01*
X103756805Y-47047098D01*
X103795485Y-47111631D01*
X103887745Y-47265556D01*
X103895895Y-47279154D01*
X103901724Y-47290059D01*
X104017396Y-47534629D01*
X104022128Y-47546053D01*
X104113272Y-47800785D01*
X104116861Y-47812617D01*
X104182599Y-48075055D01*
X104185010Y-48087180D01*
X104208279Y-48244039D01*
X104224708Y-48354795D01*
X104225920Y-48367096D01*
X104226941Y-48387893D01*
X104237795Y-48608836D01*
X104236558Y-48631732D01*
X104236558Y-48633705D01*
X104235006Y-48643502D01*
X104236557Y-48653295D01*
X104236557Y-48653296D01*
X104237949Y-48662083D01*
X104239500Y-48681794D01*
X104239500Y-53643166D01*
X104237948Y-53662883D01*
X104236557Y-53671659D01*
X104236557Y-53671664D01*
X104235006Y-53681453D01*
X104236557Y-53691250D01*
X104236557Y-53691251D01*
X104237705Y-53698506D01*
X104238867Y-53708326D01*
X104245966Y-53798581D01*
X104247714Y-53820808D01*
X104280338Y-53956734D01*
X104282232Y-53961307D01*
X104330151Y-54077013D01*
X104333824Y-54085883D01*
X104336412Y-54090106D01*
X104336413Y-54090109D01*
X104371699Y-54147700D01*
X104406853Y-54205075D01*
X104410074Y-54208847D01*
X104410077Y-54208851D01*
X104480359Y-54291152D01*
X104486470Y-54298904D01*
X104496413Y-54312592D01*
X104496436Y-54312608D01*
X104496452Y-54312631D01*
X104505004Y-54318844D01*
X104506538Y-54320409D01*
X104532940Y-54360365D01*
X104533032Y-54360585D01*
X104536009Y-54367771D01*
X104545601Y-54415983D01*
X104545601Y-54417801D01*
X104544051Y-54427591D01*
X104545602Y-54437380D01*
X104545602Y-54437384D01*
X104546993Y-54446161D01*
X104548545Y-54465878D01*
X104548545Y-56737912D01*
X104528543Y-56806033D01*
X104519066Y-56818903D01*
X104416652Y-56940955D01*
X104416648Y-56940961D01*
X104412689Y-56945679D01*
X104409725Y-56951071D01*
X104409722Y-56951075D01*
X104356618Y-57047671D01*
X104321944Y-57110743D01*
X104264989Y-57290290D01*
X104264303Y-57296407D01*
X104264302Y-57296411D01*
X104260062Y-57334214D01*
X104243992Y-57477479D01*
X104244508Y-57483623D01*
X104256548Y-57626999D01*
X104259754Y-57665183D01*
X104311674Y-57846249D01*
X104314492Y-57851731D01*
X104314493Y-57851735D01*
X104376435Y-57972260D01*
X104397775Y-58013783D01*
X104514776Y-58161402D01*
X104519463Y-58165391D01*
X104519466Y-58165394D01*
X104646153Y-58273213D01*
X104658223Y-58283485D01*
X104822649Y-58375380D01*
X105001794Y-58433587D01*
X105188832Y-58455890D01*
X105194967Y-58455418D01*
X105194969Y-58455418D01*
X105370498Y-58441912D01*
X105370501Y-58441911D01*
X105376641Y-58441439D01*
X105387075Y-58438526D01*
X105404764Y-58433587D01*
X105558066Y-58390785D01*
X105726197Y-58305856D01*
X105731048Y-58302066D01*
X105731051Y-58302064D01*
X105869772Y-58193682D01*
X105869773Y-58193681D01*
X105874629Y-58189887D01*
X105878655Y-58185223D01*
X105878658Y-58185220D01*
X105993681Y-58051965D01*
X105993682Y-58051963D01*
X105997710Y-58047297D01*
X106083865Y-57895638D01*
X106087706Y-57888877D01*
X106087708Y-57888873D01*
X106090751Y-57883516D01*
X106123395Y-57785382D01*
X106148262Y-57710630D01*
X106148263Y-57710627D01*
X106150207Y-57704782D01*
X106155210Y-57665183D01*
X106173374Y-57521405D01*
X106173375Y-57521398D01*
X106173816Y-57517903D01*
X106174192Y-57490955D01*
X106155811Y-57303490D01*
X106101368Y-57123166D01*
X106058979Y-57043445D01*
X106015830Y-56962293D01*
X106015828Y-56962290D01*
X106012936Y-56956851D01*
X105893885Y-56810879D01*
X105748748Y-56690812D01*
X105583055Y-56601222D01*
X105403115Y-56545521D01*
X105396993Y-56544878D01*
X105396990Y-56544877D01*
X105382374Y-56543341D01*
X105316717Y-56516327D01*
X105276088Y-56458105D01*
X105269545Y-56418031D01*
X105269545Y-54465851D01*
X105271095Y-54446147D01*
X105272488Y-54437346D01*
X105274039Y-54427553D01*
X105272488Y-54417764D01*
X105272488Y-54417758D01*
X105271391Y-54410837D01*
X105270228Y-54401014D01*
X105261732Y-54293129D01*
X105261731Y-54293124D01*
X105261343Y-54288195D01*
X105259183Y-54279200D01*
X105229856Y-54157078D01*
X105229855Y-54157074D01*
X105228701Y-54152270D01*
X105210955Y-54109433D01*
X105177090Y-54027691D01*
X105175198Y-54023124D01*
X105172617Y-54018913D01*
X105172614Y-54018907D01*
X105104737Y-53908160D01*
X105102150Y-53903939D01*
X105028899Y-53818186D01*
X105022777Y-53810419D01*
X105018843Y-53805003D01*
X105018842Y-53805002D01*
X105012631Y-53796452D01*
X105012608Y-53796436D01*
X105012592Y-53796413D01*
X105004041Y-53790201D01*
X105002514Y-53788643D01*
X104976102Y-53748672D01*
X104975774Y-53747878D01*
X104973030Y-53741252D01*
X104963442Y-53693036D01*
X104963442Y-53691286D01*
X104964994Y-53681491D01*
X104962050Y-53662897D01*
X104960500Y-53643193D01*
X104960500Y-48681794D01*
X104962051Y-48662083D01*
X104963214Y-48654740D01*
X104964994Y-48643502D01*
X104964777Y-48642129D01*
X104963781Y-48621855D01*
X104947621Y-48292912D01*
X104947621Y-48292908D01*
X104947469Y-48289822D01*
X104895511Y-47939549D01*
X104862212Y-47806611D01*
X104810222Y-47599055D01*
X104810220Y-47599050D01*
X104809470Y-47596054D01*
X104791580Y-47546053D01*
X104749823Y-47429351D01*
X104690176Y-47262648D01*
X104538776Y-46942539D01*
X104500940Y-46879413D01*
X104358318Y-46641462D01*
X104358312Y-46641453D01*
X104356729Y-46638812D01*
X104251377Y-46496761D01*
X104147635Y-46356881D01*
X104147632Y-46356877D01*
X104145788Y-46354391D01*
X103926870Y-46112851D01*
X105784288Y-46112851D01*
X105785452Y-46121753D01*
X105785452Y-46121756D01*
X105798058Y-46218150D01*
X105803249Y-46257847D01*
X105862143Y-46391694D01*
X105956236Y-46503631D01*
X105963707Y-46508604D01*
X105963708Y-46508605D01*
X106070491Y-46579686D01*
X106070493Y-46579687D01*
X106077964Y-46584660D01*
X106217541Y-46628268D01*
X106226514Y-46628432D01*
X106228759Y-46628796D01*
X106292805Y-46659433D01*
X106325020Y-46704956D01*
X106326983Y-46709695D01*
X106335497Y-46741465D01*
X106340575Y-46780029D01*
X106341653Y-46796478D01*
X106341653Y-46800903D01*
X106340102Y-46810697D01*
X106341653Y-46820489D01*
X106343045Y-46829277D01*
X106344596Y-46848989D01*
X106344596Y-54941861D01*
X106324594Y-55009982D01*
X106315117Y-55022852D01*
X106212703Y-55144904D01*
X106212699Y-55144910D01*
X106208740Y-55149628D01*
X106205776Y-55155020D01*
X106205773Y-55155024D01*
X106134605Y-55284479D01*
X106117995Y-55314692D01*
X106061040Y-55494239D01*
X106040043Y-55681428D01*
X106055805Y-55869132D01*
X106107725Y-56050198D01*
X106110543Y-56055680D01*
X106110544Y-56055684D01*
X106129633Y-56092826D01*
X106193826Y-56217732D01*
X106310827Y-56365351D01*
X106315514Y-56369340D01*
X106315517Y-56369343D01*
X106430793Y-56467450D01*
X106454274Y-56487434D01*
X106618700Y-56579329D01*
X106797845Y-56637536D01*
X106984883Y-56659839D01*
X106991018Y-56659367D01*
X106991020Y-56659367D01*
X107166549Y-56645861D01*
X107166552Y-56645860D01*
X107172692Y-56645388D01*
X107354117Y-56594734D01*
X107522248Y-56509805D01*
X107527099Y-56506015D01*
X107527102Y-56506013D01*
X107665823Y-56397631D01*
X107665824Y-56397630D01*
X107670680Y-56393836D01*
X107674706Y-56389172D01*
X107674709Y-56389169D01*
X107789732Y-56255914D01*
X107789733Y-56255912D01*
X107793761Y-56251246D01*
X107886802Y-56087465D01*
X107946258Y-55908731D01*
X107951261Y-55869132D01*
X107969425Y-55725354D01*
X107969426Y-55725347D01*
X107969867Y-55721852D01*
X107970243Y-55694904D01*
X107951862Y-55507439D01*
X107897419Y-55327115D01*
X107871096Y-55277609D01*
X107811881Y-55166242D01*
X107811879Y-55166239D01*
X107808987Y-55160800D01*
X107689936Y-55014828D01*
X107544799Y-54894761D01*
X107379106Y-54805171D01*
X107199166Y-54749470D01*
X107193044Y-54748827D01*
X107193041Y-54748826D01*
X107178425Y-54747290D01*
X107112768Y-54720276D01*
X107072139Y-54662054D01*
X107065596Y-54621980D01*
X107065596Y-46848983D01*
X107067147Y-46829274D01*
X107068539Y-46820484D01*
X107070090Y-46810691D01*
X107068430Y-46800209D01*
X107067268Y-46790388D01*
X107064625Y-46756805D01*
X107055871Y-46645602D01*
X107052021Y-46629564D01*
X107028484Y-46531539D01*
X107017209Y-46484578D01*
X107013794Y-46476335D01*
X106955727Y-46336160D01*
X106955726Y-46336158D01*
X106953832Y-46331586D01*
X106867301Y-46190392D01*
X106841360Y-46160022D01*
X106812442Y-46096051D01*
X106796293Y-45983288D01*
X106795020Y-45974398D01*
X106734495Y-45841281D01*
X106685551Y-45784479D01*
X106644901Y-45737302D01*
X106644898Y-45737300D01*
X106639041Y-45730502D01*
X106516332Y-45650966D01*
X106507612Y-45648358D01*
X106479662Y-45639999D01*
X121094943Y-45639999D01*
X121098608Y-45640000D01*
X121099000Y-45644518D01*
X121099000Y-69753635D01*
X121098496Y-69760000D01*
X121094944Y-69760000D01*
X121096862Y-69777025D01*
X121096862Y-69777027D01*
X121110325Y-69896509D01*
X121111117Y-69903538D01*
X121158825Y-70039879D01*
X121235675Y-70162186D01*
X121337814Y-70264325D01*
X121460121Y-70341175D01*
X121596462Y-70388883D01*
X121603491Y-70389675D01*
X121721997Y-70403028D01*
X121721999Y-70403028D01*
X121740000Y-70405056D01*
X121740000Y-70401393D01*
X121744527Y-70401000D01*
X122993637Y-70401000D01*
X123000000Y-70401505D01*
X122999999Y-70405055D01*
X123017026Y-70403139D01*
X123059279Y-70398384D01*
X123143546Y-70388901D01*
X123150221Y-70386566D01*
X123150225Y-70386565D01*
X123273214Y-70343541D01*
X123273215Y-70343540D01*
X123279897Y-70341203D01*
X123320025Y-70315992D01*
X123396217Y-70268122D01*
X123396220Y-70268120D01*
X123402212Y-70264355D01*
X123504355Y-70162212D01*
X123581203Y-70039897D01*
X123628901Y-69903546D01*
X123645055Y-69759999D01*
X123641395Y-69760000D01*
X123641000Y-69755464D01*
X123641000Y-45646365D01*
X123641504Y-45640000D01*
X123645056Y-45640000D01*
X123643138Y-45622975D01*
X123643138Y-45622973D01*
X123629675Y-45503491D01*
X123628883Y-45496462D01*
X123581175Y-45360121D01*
X123511485Y-45249209D01*
X123508092Y-45243809D01*
X123508091Y-45243808D01*
X123504325Y-45237814D01*
X123402186Y-45135675D01*
X123279879Y-45058825D01*
X123151680Y-45013966D01*
X123150217Y-45013454D01*
X123150216Y-45013454D01*
X123143538Y-45011117D01*
X123136509Y-45010325D01*
X123018003Y-44996972D01*
X123018001Y-44996972D01*
X123000000Y-44994944D01*
X123000000Y-44998607D01*
X122995473Y-44999000D01*
X121746367Y-44999000D01*
X121740000Y-44998496D01*
X121739999Y-44994943D01*
X121720780Y-44997111D01*
X121603496Y-45010341D01*
X121603493Y-45010342D01*
X121596469Y-45011134D01*
X121589795Y-45013470D01*
X121559054Y-45024230D01*
X121460138Y-45058852D01*
X121454153Y-45062613D01*
X121454151Y-45062614D01*
X121451454Y-45064309D01*
X121337840Y-45135705D01*
X121235705Y-45237840D01*
X121158852Y-45360138D01*
X121156517Y-45366809D01*
X121129670Y-45443510D01*
X121111134Y-45496469D01*
X121110342Y-45503491D01*
X121110341Y-45503496D01*
X121106371Y-45538695D01*
X121094943Y-45639999D01*
X106479662Y-45639999D01*
X106384834Y-45611639D01*
X106384832Y-45611639D01*
X106376233Y-45609067D01*
X106367258Y-45609012D01*
X106367257Y-45609012D01*
X106304163Y-45608627D01*
X106230005Y-45608174D01*
X106089404Y-45648358D01*
X106081817Y-45653145D01*
X106081815Y-45653146D01*
X106015218Y-45695166D01*
X105965732Y-45726389D01*
X105959789Y-45733118D01*
X105920496Y-45777609D01*
X105868932Y-45835993D01*
X105806786Y-45968361D01*
X105805405Y-45977230D01*
X105786904Y-46096051D01*
X105784288Y-46112851D01*
X103926870Y-46112851D01*
X103908899Y-46093023D01*
X103908090Y-46091910D01*
X103892866Y-46080849D01*
X103877832Y-46068008D01*
X103246422Y-45436598D01*
X103212396Y-45374286D01*
X103210790Y-45365365D01*
X103196293Y-45264136D01*
X103195020Y-45255246D01*
X103134495Y-45122129D01*
X103084650Y-45064281D01*
X103044901Y-45018150D01*
X103044898Y-45018148D01*
X103039041Y-45011350D01*
X102916332Y-44931814D01*
X102849394Y-44911795D01*
X102784834Y-44892487D01*
X102784832Y-44892487D01*
X102776233Y-44889915D01*
X102767258Y-44889860D01*
X102767257Y-44889860D01*
X102704163Y-44889475D01*
X102630005Y-44889022D01*
X102489404Y-44929206D01*
X102365732Y-45007237D01*
X102359789Y-45013966D01*
X102320171Y-45058825D01*
X102268932Y-45116841D01*
X102206786Y-45249209D01*
X102205405Y-45258078D01*
X102187311Y-45374286D01*
X102184288Y-45393699D01*
X80816125Y-45393699D01*
X81261347Y-44948477D01*
X81323659Y-44914451D01*
X81352752Y-44911593D01*
X81363747Y-44911795D01*
X81372411Y-44909433D01*
X81496167Y-44875694D01*
X81496170Y-44875693D01*
X81504829Y-44873332D01*
X81512479Y-44868635D01*
X81512481Y-44868634D01*
X81621793Y-44801517D01*
X81621796Y-44801514D01*
X81629445Y-44796818D01*
X81655363Y-44768185D01*
X81721548Y-44695064D01*
X81721549Y-44695063D01*
X81727576Y-44688404D01*
X81791335Y-44556805D01*
X81815596Y-44412601D01*
X81815750Y-44400000D01*
X81795020Y-44255246D01*
X81734495Y-44122129D01*
X81718223Y-44103244D01*
X81644901Y-44018150D01*
X81644898Y-44018148D01*
X81639041Y-44011350D01*
X81516332Y-43931814D01*
X81499366Y-43926740D01*
X81384834Y-43892487D01*
X81384832Y-43892487D01*
X81376233Y-43889915D01*
X81367258Y-43889860D01*
X81367257Y-43889860D01*
X81304163Y-43889475D01*
X81230005Y-43889022D01*
X81089404Y-43929206D01*
X80965732Y-44007237D01*
X80959789Y-44013966D01*
X80880941Y-44103244D01*
X80820855Y-44141062D01*
X80749862Y-44140392D01*
X80690501Y-44101446D01*
X80661619Y-44036589D01*
X80660500Y-44019836D01*
X80660500Y-36991828D01*
X80662050Y-36972125D01*
X80663443Y-36963325D01*
X80664994Y-36953530D01*
X80663442Y-36943734D01*
X80663441Y-36933819D01*
X80664228Y-36933819D01*
X80663820Y-36920033D01*
X80668775Y-36869699D01*
X80673593Y-36845471D01*
X80694441Y-36776736D01*
X80703893Y-36753915D01*
X80737752Y-36690565D01*
X80751474Y-36670028D01*
X80761515Y-36657793D01*
X80820191Y-36617825D01*
X80846020Y-36613999D01*
X80845863Y-36612740D01*
X80854770Y-36611630D01*
X80863747Y-36611795D01*
X80889654Y-36604732D01*
X80996167Y-36575694D01*
X80996170Y-36575693D01*
X81004829Y-36573332D01*
X81012479Y-36568635D01*
X81012481Y-36568634D01*
X81121793Y-36501517D01*
X81121796Y-36501514D01*
X81129445Y-36496818D01*
X81216457Y-36400689D01*
X81221548Y-36395064D01*
X81221549Y-36395063D01*
X81227576Y-36388404D01*
X81291335Y-36256805D01*
X81315596Y-36112601D01*
X81315750Y-36100000D01*
X81295020Y-35955246D01*
X81234495Y-35822129D01*
X81161368Y-35737261D01*
X81144901Y-35718150D01*
X81144898Y-35718148D01*
X81139041Y-35711350D01*
X81016332Y-35631814D01*
X80999366Y-35626740D01*
X80884834Y-35592487D01*
X80884832Y-35592487D01*
X80876233Y-35589915D01*
X80867258Y-35589860D01*
X80867257Y-35589860D01*
X80804163Y-35589475D01*
X80730005Y-35589022D01*
X80589404Y-35629206D01*
X80465732Y-35707237D01*
X80368932Y-35816841D01*
X80306786Y-35949209D01*
X80305405Y-35958076D01*
X80305405Y-35958077D01*
X80288207Y-36068528D01*
X80259519Y-36130971D01*
X80171547Y-36233976D01*
X80171544Y-36233980D01*
X80168326Y-36237748D01*
X80165740Y-36241969D01*
X80165738Y-36241971D01*
X80080962Y-36380320D01*
X80068480Y-36400689D01*
X79995355Y-36577244D01*
X79994201Y-36582052D01*
X79951907Y-36758251D01*
X79951906Y-36758257D01*
X79950752Y-36763065D01*
X79950364Y-36768003D01*
X79941224Y-36884220D01*
X79940500Y-36889169D01*
X79939957Y-36890715D01*
X79939500Y-36895992D01*
X79939500Y-36901189D01*
X79939112Y-36911068D01*
X79936910Y-36939066D01*
X79936556Y-36942055D01*
X79936556Y-36943567D01*
X79936522Y-36944000D01*
X79935006Y-36953576D01*
X79936557Y-36963365D01*
X79936557Y-36963368D01*
X79937948Y-36972144D01*
X79939500Y-36991862D01*
X79939500Y-44955676D01*
X79937951Y-44975370D01*
X79935006Y-44993980D01*
X79936559Y-45003775D01*
X79937946Y-45012526D01*
X79939500Y-45032254D01*
X79939500Y-45165243D01*
X79938123Y-45183821D01*
X79934849Y-45205783D01*
X79935006Y-45205783D01*
X79937804Y-45223538D01*
X79937964Y-45224553D01*
X79939500Y-45244168D01*
X79939500Y-46611708D01*
X79937949Y-46631418D01*
X79935006Y-46650000D01*
X79935815Y-46655108D01*
X79951218Y-47007900D01*
X79964565Y-47109280D01*
X79991742Y-47315706D01*
X79997978Y-47363075D01*
X79998575Y-47365770D01*
X79998576Y-47365773D01*
X80041014Y-47557197D01*
X80075516Y-47712824D01*
X80183242Y-48054484D01*
X80184286Y-48057004D01*
X80184288Y-48057010D01*
X80196786Y-48087183D01*
X80320336Y-48385455D01*
X80485754Y-48703217D01*
X80678238Y-49005354D01*
X80896322Y-49289564D01*
X81134838Y-49549855D01*
X81137927Y-49554106D01*
X81145946Y-49559932D01*
X81145949Y-49559935D01*
X81153050Y-49565094D01*
X81180921Y-49592964D01*
X81186083Y-49600068D01*
X81186085Y-49600070D01*
X81191915Y-49608094D01*
X81194843Y-49610221D01*
X81468197Y-49860695D01*
X81470376Y-49862367D01*
X81470382Y-49862372D01*
X81601541Y-49963010D01*
X81765179Y-50088569D01*
X81924652Y-50190161D01*
X82055209Y-50273332D01*
X82080891Y-50289693D01*
X82269627Y-50387939D01*
X82331367Y-50420077D01*
X82412931Y-50462535D01*
X82758772Y-50605781D01*
X83115781Y-50718340D01*
X83118450Y-50718932D01*
X83118455Y-50718933D01*
X83478570Y-50798764D01*
X83478577Y-50798765D01*
X83481242Y-50799356D01*
X83852372Y-50848211D01*
X83855122Y-50848331D01*
X83855133Y-50848332D01*
X84070878Y-50857749D01*
X84222348Y-50864360D01*
X84226349Y-50864994D01*
X84236141Y-50863443D01*
X84236143Y-50863443D01*
X84244929Y-50862051D01*
X84264641Y-50860500D01*
X92509825Y-50860500D01*
X92529535Y-50862051D01*
X92548117Y-50864994D01*
X92557910Y-50863443D01*
X92557912Y-50863443D01*
X92558581Y-50863337D01*
X92583239Y-50861882D01*
X92693398Y-50866210D01*
X92941821Y-50875972D01*
X92951684Y-50876748D01*
X93338057Y-50922479D01*
X93347829Y-50924027D01*
X93729411Y-50999929D01*
X93739031Y-51002239D01*
X94113480Y-51107845D01*
X94122888Y-51110902D01*
X94487905Y-51245563D01*
X94497043Y-51249348D01*
X94850374Y-51412235D01*
X94859179Y-51416722D01*
X95198641Y-51606830D01*
X95207076Y-51611999D01*
X95530564Y-51828145D01*
X95538562Y-51833955D01*
X95844124Y-52074839D01*
X95851612Y-52081235D01*
X96060964Y-52274755D01*
X96115140Y-52324834D01*
X96131545Y-52343295D01*
X96131957Y-52343862D01*
X96131959Y-52343864D01*
X96137785Y-52351883D01*
X96145804Y-52357709D01*
X96145805Y-52357710D01*
X96153009Y-52362944D01*
X96168043Y-52375785D01*
X97508025Y-53715767D01*
X97522841Y-53742900D01*
X97543398Y-53751848D01*
X97551692Y-53759434D01*
X97974023Y-54181765D01*
X98008049Y-54244077D01*
X98002984Y-54314892D01*
X97960437Y-54371728D01*
X97919566Y-54392005D01*
X97917363Y-54392635D01*
X97846370Y-54392129D01*
X97793633Y-54360585D01*
X97379200Y-53946153D01*
X97363529Y-53927057D01*
X97357831Y-53918529D01*
X97356386Y-53913915D01*
X97334314Y-53898222D01*
X97248900Y-53820808D01*
X97137490Y-53719832D01*
X97121976Y-53708326D01*
X96902465Y-53545526D01*
X96902458Y-53545521D01*
X96899982Y-53543685D01*
X96897337Y-53542100D01*
X96897330Y-53542095D01*
X96716274Y-53433576D01*
X96646352Y-53391667D01*
X96643569Y-53390351D01*
X96643562Y-53390347D01*
X96431066Y-53289846D01*
X96379042Y-53265241D01*
X96376135Y-53264201D01*
X96376128Y-53264198D01*
X96203538Y-53202447D01*
X96100627Y-53165626D01*
X95978803Y-53135112D01*
X95816800Y-53094534D01*
X95816796Y-53094533D01*
X95813789Y-53093780D01*
X95810720Y-53093325D01*
X95810716Y-53093324D01*
X95524354Y-53050850D01*
X95524345Y-53050849D01*
X95521290Y-53050396D01*
X95518201Y-53050244D01*
X95518198Y-53050244D01*
X95242052Y-53036683D01*
X95232663Y-53036222D01*
X95225947Y-53034886D01*
X95213773Y-53037308D01*
X95212598Y-53037308D01*
X95190344Y-53039500D01*
X85564573Y-53039500D01*
X85542305Y-53037307D01*
X85541135Y-53037307D01*
X85528965Y-53034886D01*
X85516793Y-53037307D01*
X85505512Y-53037307D01*
X85494658Y-53038162D01*
X85125441Y-53023653D01*
X85115603Y-53022879D01*
X84719464Y-52975991D01*
X84709709Y-52974445D01*
X84318486Y-52896625D01*
X84308867Y-52894315D01*
X83924974Y-52786043D01*
X83915565Y-52782986D01*
X83541345Y-52644929D01*
X83532204Y-52641143D01*
X83169959Y-52474144D01*
X83161145Y-52469652D01*
X82813132Y-52274755D01*
X82804696Y-52269586D01*
X82779631Y-52252838D01*
X82473036Y-52047978D01*
X82465048Y-52042175D01*
X82151793Y-51795224D01*
X82144272Y-51788801D01*
X81872914Y-51537961D01*
X81865909Y-51529759D01*
X81857885Y-51521735D01*
X81850993Y-51511420D01*
X81840677Y-51504527D01*
X81839858Y-51503708D01*
X81822549Y-51489502D01*
X77137058Y-46804011D01*
X77103032Y-46741699D01*
X77101899Y-46694014D01*
X77115596Y-46612601D01*
X77115750Y-46600000D01*
X77095020Y-46455246D01*
X77034495Y-46322129D01*
X77024142Y-46310114D01*
X76944901Y-46218150D01*
X76944898Y-46218148D01*
X76939041Y-46211350D01*
X76816332Y-46131814D01*
X76752925Y-46112851D01*
X76684834Y-46092487D01*
X76684832Y-46092487D01*
X76676233Y-46089915D01*
X76667258Y-46089860D01*
X76667257Y-46089860D01*
X76604163Y-46089475D01*
X76530005Y-46089022D01*
X76389404Y-46129206D01*
X76265732Y-46207237D01*
X76168932Y-46316841D01*
X76106786Y-46449209D01*
X76105405Y-46458078D01*
X76086759Y-46577832D01*
X76084288Y-46593699D01*
X76085452Y-46602601D01*
X76085452Y-46602604D01*
X76102085Y-46729796D01*
X76103249Y-46738695D01*
X76162143Y-46872542D01*
X76256236Y-46984479D01*
X76263707Y-46989452D01*
X76263708Y-46989453D01*
X76370491Y-47060534D01*
X76370493Y-47060535D01*
X76377964Y-47065508D01*
X76386531Y-47068185D01*
X76386532Y-47068185D01*
X76508975Y-47106440D01*
X76508977Y-47106440D01*
X76517541Y-47109116D01*
X76585455Y-47110360D01*
X76654770Y-47111631D01*
X76654773Y-47111631D01*
X76663747Y-47111795D01*
X76678511Y-47107770D01*
X76683577Y-47106389D01*
X76754560Y-47107770D01*
X76805811Y-47138858D01*
X81489503Y-51822550D01*
X81503711Y-51839861D01*
X81504528Y-51840678D01*
X81511421Y-51850994D01*
X81512672Y-51851830D01*
X81520522Y-51859086D01*
X81757225Y-52077891D01*
X81839172Y-52153642D01*
X81841115Y-52155174D01*
X81841120Y-52155178D01*
X81944175Y-52236420D01*
X82189504Y-52429822D01*
X82191565Y-52431199D01*
X82191569Y-52431202D01*
X82292630Y-52498729D01*
X82560426Y-52677664D01*
X82949649Y-52895640D01*
X82951894Y-52896675D01*
X82951898Y-52896677D01*
X83339331Y-53075287D01*
X83354775Y-53082407D01*
X83357086Y-53083260D01*
X83357087Y-53083260D01*
X83770978Y-53235954D01*
X83770989Y-53235958D01*
X83773305Y-53236812D01*
X84202659Y-53357904D01*
X84640191Y-53444937D01*
X85083202Y-53497373D01*
X85466307Y-53512428D01*
X85470608Y-53512597D01*
X85507480Y-53525016D01*
X85519014Y-53517604D01*
X85529931Y-53514921D01*
X85539987Y-53512921D01*
X85564567Y-53510500D01*
X91072476Y-53510500D01*
X91140597Y-53530502D01*
X91187090Y-53584158D01*
X91197194Y-53654432D01*
X91177806Y-53705649D01*
X91176493Y-53707649D01*
X91122387Y-53753618D01*
X91071163Y-53764500D01*
X85554512Y-53764500D01*
X85511421Y-53751847D01*
X85496384Y-53760697D01*
X85465660Y-53764500D01*
X84689573Y-53764500D01*
X84667305Y-53762307D01*
X84666135Y-53762307D01*
X84653965Y-53759886D01*
X84641793Y-53762307D01*
X84630512Y-53762307D01*
X84619658Y-53763162D01*
X84250441Y-53748653D01*
X84240603Y-53747879D01*
X83844464Y-53700991D01*
X83834709Y-53699445D01*
X83443486Y-53621625D01*
X83433867Y-53619315D01*
X83049974Y-53511043D01*
X83040565Y-53507986D01*
X82666345Y-53369929D01*
X82657204Y-53366143D01*
X82294959Y-53199144D01*
X82286145Y-53194652D01*
X81938132Y-52999755D01*
X81929696Y-52994586D01*
X81598036Y-52772978D01*
X81590048Y-52767175D01*
X81276793Y-52520224D01*
X81269272Y-52513801D01*
X81085433Y-52343862D01*
X80997914Y-52262961D01*
X80990909Y-52254759D01*
X80982885Y-52246735D01*
X80975993Y-52236420D01*
X80965677Y-52229527D01*
X80964858Y-52228708D01*
X80947549Y-52214502D01*
X73237058Y-44504011D01*
X73203032Y-44441699D01*
X73201899Y-44394014D01*
X73215596Y-44312601D01*
X73215750Y-44300000D01*
X73195020Y-44155246D01*
X73134495Y-44022129D01*
X73128636Y-44015329D01*
X73044901Y-43918150D01*
X73044898Y-43918148D01*
X73039041Y-43911350D01*
X72916332Y-43831814D01*
X72899366Y-43826740D01*
X72784834Y-43792487D01*
X72784832Y-43792487D01*
X72776233Y-43789915D01*
X72767258Y-43789860D01*
X72767257Y-43789860D01*
X72704163Y-43789475D01*
X72630005Y-43789022D01*
X72489404Y-43829206D01*
X72365732Y-43907237D01*
X72359789Y-43913966D01*
X72339714Y-43936697D01*
X72268932Y-44016841D01*
X72237859Y-44083025D01*
X72210926Y-44140392D01*
X72206786Y-44149209D01*
X72205405Y-44158078D01*
X72191548Y-44247074D01*
X72184288Y-44293699D01*
X65748896Y-44293699D01*
X65882468Y-44019836D01*
X66698902Y-42345900D01*
X66699870Y-42343958D01*
X66724375Y-42295865D01*
X66726439Y-42291983D01*
X66752596Y-42244795D01*
X66753679Y-42242881D01*
X67840573Y-40360324D01*
X67841690Y-40358428D01*
X67869490Y-40312162D01*
X67871819Y-40308434D01*
X67901216Y-40263166D01*
X67902430Y-40261332D01*
X69117994Y-38459185D01*
X69119240Y-38457372D01*
X69150198Y-38413160D01*
X69152783Y-38409602D01*
X69185286Y-38366469D01*
X69186625Y-38364725D01*
X70524917Y-36651790D01*
X70526286Y-36650069D01*
X70560271Y-36608101D01*
X70563079Y-36604754D01*
X70598516Y-36563988D01*
X70599919Y-36562403D01*
X72054491Y-34946937D01*
X72055976Y-34945316D01*
X72092797Y-34905830D01*
X72095853Y-34902666D01*
X72133971Y-34864548D01*
X72135539Y-34863006D01*
X73199695Y-33835363D01*
X73262592Y-33802431D01*
X73287222Y-33800000D01*
X118112778Y-33800000D01*
X118180899Y-33820002D01*
G37*
%TD.AperFunction*%
%TD*%
M02*
