%TF.GenerationSoftware,KiCad,Pcbnew,(6.0.9)*%
%TF.CreationDate,2023-01-23T17:19:02-06:00*%
%TF.ProjectId,pulse_ox_wearable,70756c73-655f-46f7-985f-776561726162,1*%
%TF.SameCoordinates,Original*%
%TF.FileFunction,Paste,Top*%
%TF.FilePolarity,Positive*%
%FSLAX46Y46*%
G04 Gerber Fmt 4.6, Leading zero omitted, Abs format (unit mm)*
G04 Created by KiCad (PCBNEW (6.0.9)) date 2023-01-23 17:19:02*
%MOMM*%
%LPD*%
G01*
G04 APERTURE LIST*
G04 Aperture macros list*
%AMRoundRect*
0 Rectangle with rounded corners*
0 $1 Rounding radius*
0 $2 $3 $4 $5 $6 $7 $8 $9 X,Y pos of 4 corners*
0 Add a 4 corners polygon primitive as box body*
4,1,4,$2,$3,$4,$5,$6,$7,$8,$9,$2,$3,0*
0 Add four circle primitives for the rounded corners*
1,1,$1+$1,$2,$3*
1,1,$1+$1,$4,$5*
1,1,$1+$1,$6,$7*
1,1,$1+$1,$8,$9*
0 Add four rect primitives between the rounded corners*
20,1,$1+$1,$2,$3,$4,$5,0*
20,1,$1+$1,$4,$5,$6,$7,0*
20,1,$1+$1,$6,$7,$8,$9,0*
20,1,$1+$1,$8,$9,$2,$3,0*%
%AMRotRect*
0 Rectangle, with rotation*
0 The origin of the aperture is its center*
0 $1 length*
0 $2 width*
0 $3 Rotation angle, in degrees counterclockwise*
0 Add horizontal line*
21,1,$1,$2,0,0,$3*%
G04 Aperture macros list end*
%ADD10R,0.990600X0.990600*%
%ADD11R,1.498600X0.889000*%
%ADD12R,0.889000X1.498600*%
%ADD13R,3.800000X2.000000*%
%ADD14R,1.500000X2.000000*%
%ADD15RoundRect,0.079500X0.100500X-0.079500X0.100500X0.079500X-0.100500X0.079500X-0.100500X-0.079500X0*%
%ADD16RoundRect,0.250000X-1.075000X0.312500X-1.075000X-0.312500X1.075000X-0.312500X1.075000X0.312500X0*%
%ADD17RoundRect,0.250000X-0.325000X-0.650000X0.325000X-0.650000X0.325000X0.650000X-0.325000X0.650000X0*%
%ADD18RoundRect,0.250000X0.250000X0.475000X-0.250000X0.475000X-0.250000X-0.475000X0.250000X-0.475000X0*%
%ADD19RoundRect,0.250000X0.325000X0.650000X-0.325000X0.650000X-0.325000X-0.650000X0.325000X-0.650000X0*%
%ADD20RoundRect,0.079500X-0.079500X-0.100500X0.079500X-0.100500X0.079500X0.100500X-0.079500X0.100500X0*%
%ADD21RoundRect,0.079500X0.014849X-0.127279X0.127279X-0.014849X-0.014849X0.127279X-0.127279X0.014849X0*%
%ADD22RoundRect,0.147500X0.172500X-0.147500X0.172500X0.147500X-0.172500X0.147500X-0.172500X-0.147500X0*%
%ADD23RoundRect,0.150000X0.150000X-0.512500X0.150000X0.512500X-0.150000X0.512500X-0.150000X-0.512500X0*%
%ADD24R,0.260000X0.500000*%
%ADD25R,0.680000X1.050000*%
%ADD26R,0.230000X0.230000*%
%ADD27O,0.800000X0.230000*%
%ADD28RoundRect,0.225000X-0.225000X-0.250000X0.225000X-0.250000X0.225000X0.250000X-0.225000X0.250000X0*%
%ADD29R,1.450000X0.600000*%
%ADD30R,1.450000X0.300000*%
%ADD31RoundRect,0.250000X0.312500X1.075000X-0.312500X1.075000X-0.312500X-1.075000X0.312500X-1.075000X0*%
%ADD32RoundRect,0.135000X0.185000X-0.135000X0.185000X0.135000X-0.185000X0.135000X-0.185000X-0.135000X0*%
%ADD33RoundRect,0.250000X0.475000X-0.250000X0.475000X0.250000X-0.475000X0.250000X-0.475000X-0.250000X0*%
%ADD34RoundRect,0.147500X-0.172500X0.147500X-0.172500X-0.147500X0.172500X-0.147500X0.172500X0.147500X0*%
%ADD35RoundRect,0.218750X0.256250X-0.218750X0.256250X0.218750X-0.256250X0.218750X-0.256250X-0.218750X0*%
%ADD36RoundRect,0.135000X-0.135000X-0.185000X0.135000X-0.185000X0.135000X0.185000X-0.135000X0.185000X0*%
%ADD37RoundRect,0.150000X-0.587500X-0.150000X0.587500X-0.150000X0.587500X0.150000X-0.587500X0.150000X0*%
%ADD38R,2.800000X2.100000*%
%ADD39R,1.900000X0.600000*%
%ADD40RoundRect,0.200000X-0.053033X0.335876X-0.335876X0.053033X0.053033X-0.335876X0.335876X-0.053033X0*%
%ADD41R,0.980000X3.400000*%
%ADD42RoundRect,0.250000X-0.512652X-0.159099X-0.159099X-0.512652X0.512652X0.159099X0.159099X0.512652X0*%
%ADD43RoundRect,0.225000X-0.250000X0.225000X-0.250000X-0.225000X0.250000X-0.225000X0.250000X0.225000X0*%
%ADD44RotRect,0.900000X1.700000X135.000000*%
%ADD45RoundRect,0.062500X-0.062500X-0.350000X0.062500X-0.350000X0.062500X0.350000X-0.062500X0.350000X0*%
%ADD46RoundRect,0.062500X-0.350000X-0.062500X0.350000X-0.062500X0.350000X0.062500X-0.350000X0.062500X0*%
%ADD47RoundRect,0.250000X-0.275000X-0.275000X0.275000X-0.275000X0.275000X0.275000X-0.275000X0.275000X0*%
%ADD48RoundRect,0.250000X-0.475000X0.250000X-0.475000X-0.250000X0.475000X-0.250000X0.475000X0.250000X0*%
%ADD49RoundRect,0.250000X-0.312500X-1.075000X0.312500X-1.075000X0.312500X1.075000X-0.312500X1.075000X0*%
%ADD50RoundRect,0.225000X0.250000X-0.225000X0.250000X0.225000X-0.250000X0.225000X-0.250000X-0.225000X0*%
%ADD51RoundRect,0.250000X-0.503814X-0.132583X-0.132583X-0.503814X0.503814X0.132583X0.132583X0.503814X0*%
%ADD52RoundRect,0.150000X0.587500X0.150000X-0.587500X0.150000X-0.587500X-0.150000X0.587500X-0.150000X0*%
G04 APERTURE END LIST*
D10*
%TO.C,U1*%
X95970967Y-41377285D03*
X94470967Y-41377285D03*
X92970967Y-41377285D03*
X95970967Y-39877285D03*
X92970967Y-39877285D03*
X95970967Y-38377285D03*
X94470967Y-38377285D03*
X92970967Y-38377285D03*
X94470967Y-39877285D03*
D11*
X104661401Y-34373359D03*
X104661401Y-35643359D03*
X104661401Y-36913359D03*
X104661401Y-38183359D03*
X104661401Y-39453359D03*
X104661401Y-40723359D03*
X104661401Y-41993359D03*
X104661401Y-43263359D03*
X104661401Y-44533359D03*
X104661401Y-45803359D03*
X104661401Y-47073359D03*
X104661401Y-48343359D03*
X104661401Y-49613359D03*
X104661401Y-50883359D03*
D12*
X102896401Y-52133293D03*
X101626401Y-52133293D03*
X100356401Y-52133293D03*
X99086401Y-52133293D03*
X97816401Y-52133293D03*
X96546401Y-52133293D03*
X95276401Y-52133293D03*
X94006401Y-52133293D03*
X92736401Y-52133293D03*
X91466401Y-52133293D03*
X90196401Y-52133293D03*
X88926401Y-52133293D03*
D11*
X87161401Y-50883359D03*
X87161401Y-49613359D03*
X87161401Y-48343359D03*
X87161401Y-47073359D03*
X87161401Y-45803359D03*
X87161401Y-44533359D03*
X87161401Y-43263359D03*
X87161401Y-41993359D03*
X87161401Y-40723359D03*
X87161401Y-39453359D03*
X87161401Y-38183359D03*
X87161401Y-36913359D03*
X87161401Y-35643359D03*
X87161401Y-34373359D03*
%TD*%
D13*
%TO.C,U5*%
X103100000Y-78450000D03*
D14*
X100800000Y-72150000D03*
X103100000Y-72150000D03*
X105400000Y-72150000D03*
%TD*%
D15*
%TO.C,R3*%
X80200000Y-62655000D03*
X80200000Y-63345000D03*
%TD*%
D16*
%TO.C,R4*%
X96962500Y-63812500D03*
X96962500Y-60887500D03*
%TD*%
D17*
%TO.C,C17*%
X105875000Y-69100000D03*
X102925000Y-69100000D03*
%TD*%
D18*
%TO.C,C4*%
X89202335Y-67689137D03*
X91102335Y-67689137D03*
%TD*%
D19*
%TO.C,C8*%
X80925000Y-79200000D03*
X83875000Y-79200000D03*
%TD*%
D20*
%TO.C,C9*%
X86245000Y-75100000D03*
X85555000Y-75100000D03*
%TD*%
D21*
%TO.C,R1*%
X75229774Y-55770226D03*
X75717678Y-55282322D03*
%TD*%
D22*
%TO.C,D1*%
X79700000Y-58215000D03*
X79700000Y-59185000D03*
%TD*%
D23*
%TO.C,U2*%
X80250000Y-65162500D03*
X82150000Y-65162500D03*
X82150000Y-67437500D03*
X81200000Y-67437500D03*
X80250000Y-67437500D03*
%TD*%
D24*
%TO.C,U4*%
X87800000Y-76740000D03*
D25*
X87100000Y-79005000D03*
X88000000Y-77735000D03*
X87100000Y-77735000D03*
D24*
X87300000Y-76740000D03*
X87800000Y-80000000D03*
X87300000Y-80000000D03*
D25*
X88000000Y-79005000D03*
D26*
X85790000Y-79370000D03*
D27*
X86075000Y-79370000D03*
X86075000Y-78870000D03*
D26*
X85790000Y-78870000D03*
D27*
X86075000Y-78370000D03*
D26*
X85790000Y-78370000D03*
X85790000Y-77870000D03*
D27*
X86075000Y-77870000D03*
D26*
X85790000Y-77370000D03*
D27*
X86075000Y-77370000D03*
D26*
X89310000Y-77370000D03*
D27*
X89025000Y-77370000D03*
D26*
X89310000Y-77870000D03*
D27*
X89025000Y-77870000D03*
D26*
X89310000Y-78370000D03*
D27*
X89025000Y-78370000D03*
X89025000Y-78870000D03*
D26*
X89310000Y-78870000D03*
D27*
X89025000Y-79370000D03*
D26*
X89310000Y-79370000D03*
%TD*%
D18*
%TO.C,C6*%
X89252334Y-60649138D03*
X91152334Y-60649138D03*
%TD*%
D28*
%TO.C,C7*%
X83975000Y-69700000D03*
X82425000Y-69700000D03*
%TD*%
D29*
%TO.C,J2*%
X71545000Y-54550000D03*
X71545000Y-55350000D03*
D30*
X71545000Y-56050000D03*
X71545000Y-57050000D03*
X71545000Y-58550000D03*
X71545000Y-59550000D03*
D29*
X71545000Y-60250000D03*
X71545000Y-61050000D03*
X71545000Y-61050000D03*
X71545000Y-60250000D03*
D30*
X71545000Y-59050000D03*
X71545000Y-58050000D03*
X71545000Y-57550000D03*
X71545000Y-56550000D03*
D29*
X71545000Y-55350000D03*
X71545000Y-54550000D03*
%TD*%
D17*
%TO.C,C13*%
X94825000Y-81789999D03*
X91875000Y-81789999D03*
%TD*%
D31*
%TO.C,R9*%
X81537500Y-41900000D03*
X84462500Y-41900000D03*
%TD*%
D32*
%TO.C,R12*%
X93862500Y-63140000D03*
X93862500Y-64160000D03*
%TD*%
D33*
%TO.C,C14*%
X98200000Y-69050000D03*
X98200000Y-70950000D03*
%TD*%
D34*
%TO.C,D2*%
X77800000Y-57385000D03*
X77800000Y-56415000D03*
%TD*%
D35*
%TO.C,D4*%
X76900000Y-66212500D03*
X76900000Y-67787500D03*
%TD*%
D36*
%TO.C,R8*%
X93872500Y-61650000D03*
X92852500Y-61650000D03*
%TD*%
D17*
%TO.C,C11*%
X94775000Y-74100000D03*
X91825000Y-74100000D03*
%TD*%
D37*
%TO.C,Q1*%
X78737500Y-44300000D03*
X76862500Y-45250000D03*
X76862500Y-43350000D03*
%TD*%
D38*
%TO.C,J3*%
X114512625Y-53150000D03*
X114512625Y-62450000D03*
D39*
X112162625Y-56300000D03*
X112162625Y-57300000D03*
X112162625Y-58300000D03*
X112162625Y-59300000D03*
%TD*%
D40*
%TO.C,R11*%
X81316637Y-75683363D03*
X82483363Y-74516637D03*
%TD*%
D41*
%TO.C,L1*%
X88700000Y-84500000D03*
X86300000Y-84500000D03*
%TD*%
D42*
%TO.C,C1*%
X114570532Y-41314392D03*
X113227030Y-39970890D03*
%TD*%
D43*
%TO.C,C16*%
X84600000Y-37475000D03*
X84600000Y-35925000D03*
%TD*%
D44*
%TO.C,SW2*%
X117197918Y-35797918D03*
X119602082Y-38202082D03*
%TD*%
D34*
%TO.C,D3*%
X74900000Y-53985000D03*
X74900000Y-53015000D03*
%TD*%
D45*
%TO.C,U3*%
X93350000Y-55162500D03*
X93850000Y-55162500D03*
X94350000Y-55162500D03*
X94850000Y-55162500D03*
X95350000Y-55162500D03*
X95850000Y-55162500D03*
D46*
X96537500Y-55850000D03*
X96537500Y-56350000D03*
X96537500Y-56850000D03*
X96537500Y-57350000D03*
X96537500Y-57850000D03*
X96537500Y-58350000D03*
D45*
X95850000Y-59037500D03*
X95350000Y-59037500D03*
X94850000Y-59037500D03*
X94350000Y-59037500D03*
X93850000Y-59037500D03*
X93350000Y-59037500D03*
D46*
X92662500Y-58350000D03*
X92662500Y-57850000D03*
X92662500Y-57350000D03*
X92662500Y-56850000D03*
X92662500Y-56350000D03*
X92662500Y-55850000D03*
D47*
X95250000Y-57750000D03*
X93950000Y-57750000D03*
X93950000Y-56450000D03*
X95250000Y-56450000D03*
%TD*%
D31*
%TO.C,R7*%
X72037500Y-40100000D03*
X74962500Y-40100000D03*
%TD*%
D40*
%TO.C,R10*%
X83932932Y-73067068D03*
X85099658Y-71900342D03*
%TD*%
D43*
%TO.C,C10*%
X83300000Y-47275000D03*
X83300000Y-45725000D03*
%TD*%
D48*
%TO.C,C15*%
X82600000Y-37850000D03*
X82600000Y-35950000D03*
%TD*%
D49*
%TO.C,R6*%
X75062500Y-48200000D03*
X72137500Y-48200000D03*
%TD*%
D18*
%TO.C,C5*%
X89202335Y-64149137D03*
X91102335Y-64149137D03*
%TD*%
D50*
%TO.C,C2*%
X84100000Y-63225000D03*
X84100000Y-64775000D03*
%TD*%
D20*
%TO.C,R2*%
X74655000Y-59500000D03*
X75345000Y-59500000D03*
%TD*%
D51*
%TO.C,R5*%
X76745235Y-63445235D03*
X75454765Y-62154765D03*
%TD*%
D52*
%TO.C,Q2*%
X68662499Y-44300000D03*
X70537499Y-43350000D03*
X70537499Y-45250000D03*
%TD*%
D17*
%TO.C,C12*%
X94825000Y-77890000D03*
X91875000Y-77890000D03*
%TD*%
M02*
